M48
;GenerationSoftware,Autodesk,EAGLE,9.5.2*%
;CreationDate,2019-12-31T02:58:07Z*%
FMAT,2
ICI,OFF
METRIC,TZ,000.000
T10C0.254
T9C0.350
T8C0.500
T7C0.900
T6C0.914
T5C1.016
T4C1.100
T3C1.650
T2C2.200
T1C2.800
%
G90
M71
T1
X5080Y60705
X5080Y2795
T2
X70146Y60325
X81746Y60325
T3
X67190Y26105
X52190Y45015
T4
X73696Y60425
X78196Y60425
T5
X17780Y29210
X17780Y26670
X17780Y24130
X17780Y21590
T6
X79446Y57925
X77073Y57925
X74819Y57925
X72446Y57925
T7
X7943Y17145
X6033Y18415
X7943Y19685
X6033Y20955
X7943Y22225
X6033Y23495
X7943Y24765
X6033Y26035
X7943Y27305
X6033Y28575
X7943Y29845
X6033Y31115
X7943Y32385
X6033Y33655
X7943Y34925
X6033Y36195
X7943Y37465
X6033Y38735
X7943Y40005
X6033Y41275
X7943Y42545
X6033Y43815
X7943Y45085
X6033Y46355
X7943Y47625
X6033Y48895
X7943Y50165
X6033Y51435
X7943Y52705
X2213Y10795
X4123Y12065
X2213Y13335
X4123Y14605
X2213Y15875
X4123Y17145
X2213Y18415
X4123Y19685
X2213Y20955
X4123Y22225
X2213Y23495
X4123Y24765
X2213Y26035
X4123Y27305
X2213Y28575
X4123Y29845
X2213Y31115
X4123Y32385
X2213Y33655
X4123Y34925
X2213Y36195
X4123Y37465
X2213Y38735
X4123Y40005
X2213Y41275
X4123Y42545
X2213Y43815
X4123Y45085
X2213Y46355
X4123Y47625
X4123Y50165
X2213Y51435
X4123Y52705
X45720Y6350
X48260Y6350
X50800Y6350
X53340Y6350
X53340Y8890
X50800Y8890
X48260Y8890
X45720Y8890
X45720Y3810
X48260Y3810
X50800Y3810
X53340Y3810
X55880Y3810
X58420Y3810
X2213Y48895
X82141Y5969
X78641Y5969
X6033Y10795
X7943Y12065
X6033Y13335
X7943Y14605
X6033Y15875
T8
X54440Y45015
X53940Y47555
X53940Y28645
X54440Y26105
X54940Y23565
X55440Y28645
X55940Y26105
X56440Y23565
X56940Y28645
X57440Y26105
X57940Y23565
X58440Y28645
X58940Y26105
X59440Y23565
X59940Y28645
X60440Y26105
X60940Y23565
X61440Y28645
X61940Y26105
X62440Y23565
X62940Y28645
X63440Y26105
X63940Y23565
X64440Y28645
X64940Y26105
X65440Y23565
X65440Y42475
X64940Y45015
X64440Y47555
X63940Y42475
X63440Y45015
X62940Y47555
X62440Y42475
X61940Y45015
X61440Y47555
X60940Y42475
X60440Y45015
X59940Y47555
X59440Y42475
X58940Y45015
X58440Y47555
X57940Y42475
X57440Y45015
X56940Y47555
X56440Y42475
X55940Y45015
X55440Y47555
X54940Y42475
T9
X80800Y34210
T10
X72390Y28448
X72390Y27940
X72390Y27432
X70485Y27432
X70485Y27940
X70485Y28448
X12192Y34495
X11557Y35179
X12192Y35179
X12827Y35179
X11557Y34544
X12827Y34544
X11557Y33782
X12192Y33782
X12827Y33782
X58420Y61087
X59690Y61087
X59055Y60706
X58420Y60198
X59690Y60198
X61976Y52070
X61341Y52578
X62738Y52578
X61341Y51435
X62738Y51435
X40513Y24765
X40259Y22352
X41748Y11430
X63500Y12813
X67183Y12460
X74422Y28448
X74422Y27940
X74422Y27432
X36167Y12700
X14732Y7493
X15240Y7493
X15748Y7493
X16256Y7493
X16764Y7493
X17272Y7493
X14732Y9017
X15240Y9017
X15748Y9017
X16256Y9017
X16764Y9017
X17272Y9017
X14732Y11430
X15240Y11430
X15748Y11430
X16256Y11430
X16764Y11430
X17272Y11430
X14732Y16510
X15240Y16510
X15748Y16510
X16256Y16510
X16764Y16510
X17272Y16510
X14605Y35306
X14605Y34798
X14605Y33782
X14605Y34290
X23495Y45593
X23495Y45085
X23495Y44577
X23495Y44069
X24765Y43561
X24765Y44069
X24765Y44577
X24765Y45085
X24765Y45593
X23495Y43561
X27940Y37211
X33980Y22352
X36040Y22380
X59182Y9093
X68250Y34925
X44211Y37338
X26924Y37338
X33480Y22860
X36469Y22880
X59182Y9652
X53587Y31997
X68250Y36195
X43434Y37770
X55880Y30480
X32980Y23368
X36068Y23380
X59182Y10211
X53340Y33020
X68250Y37465
X25880Y37493
X42418Y38202
X50800Y10254
X24892Y37719
X32480Y23622
X36453Y23880
X59182Y10770
X53280Y34230
X68250Y38735
X41402Y38633
X51511Y10643
X45720Y10744
X23368Y37338
X31980Y23876
X36068Y24380
X53014Y35234
X57359Y11176
X68250Y40005
X39878Y39065
X22479Y37465
X31480Y24130
X36461Y24880
X58420Y12164
X57791Y11570
X68250Y41275
X52922Y35810
X38862Y39497
X21463Y37592
X60979Y30226
X36068Y25380
X59055Y12605
X58244Y11232
X68250Y42545
X52800Y36449
X37846Y39929
X32050Y25448
X36477Y25880
X20447Y37779
X59690Y13164
X58854Y11232
X68250Y43815
X52672Y37008
X36830Y40361
X31597Y25807
X64022Y6604
X69737Y6604
X64036Y14224
X23876Y57150
X67183Y51724
X25273Y21590
X19022Y17780
X38100Y3810
X33147Y972
X42647Y20193
X41275Y12446
X25273Y32131
X61468Y31115
X50297Y15240
X19939Y11430
X71120Y22860
X72390Y22098
X57150Y15367
X50308Y17780
X83693Y1905
X31496Y33020
X32004Y33020
X30480Y33020
X30480Y41021
X30988Y41021
X31496Y41021
X32004Y41021
X37325Y20828
X40304Y32460
X40640Y26670
X67060Y14214
X63500Y11063
X41529Y57226
X30480Y35560
X30988Y35560
X31496Y35560
X32004Y35560
X41910Y7620
X20955Y29718
X20955Y29210
X20955Y28702
X20955Y28194
X20955Y27686
X20955Y27178
X20955Y26670
X20955Y26162
X21463Y29718
X21463Y29210
X21463Y28702
X21463Y28194
X21463Y27686
X21463Y27178
X21463Y26670
X21463Y26162
X23876Y16891
X20955Y7998
X40767Y57226
X39370Y49911
X39370Y45720
X33579Y32258
X20470Y7693
X16696Y33893
X29591Y47625
X65583Y11633
X65544Y12815
X35548Y20413
X30470Y25234
X45330Y37211
X35357Y15517
X59969Y5710
X23114Y57404
X21844Y58649
X30583Y57099
X40640Y59919
X20038Y18748
X14149Y41477
X39878Y57226
X34925Y15875
X60528Y5583
X35710Y21059
X31000Y25642
X43838Y16637
X46863Y32131
X57912Y43851
X24638Y14605
X33020Y30480
X38100Y45720
X38100Y49911
X43279Y16637
X44704Y32385
X45720Y16510
X36703Y17018
X73660Y21590
X44397Y16637
X51816Y24130
X47676Y30480
X47676Y27940
X47676Y25400
X47676Y22860
X47676Y20320
X47676Y17780
X47676Y15240
X47676Y12700
X73914Y7747
X34036Y940
X74736Y14130
X35005Y1372
X65989Y3201
X34647Y940
X66548Y3150
X35560Y1803
X60198Y13970
X71487Y14224
X71487Y8636
X64022Y8636
X63552Y15139
X71473Y10160
X71473Y12573
X79248Y12154
X80772Y12154
X77724Y13804
X68199Y50165
X44450Y14643
X65151Y57912
X65151Y58928
X59055Y58928
X59055Y57912
X59690Y58420
X64643Y58420
X77111Y41551
X77887Y41565
X77708Y46990
X84328Y51435
X51172Y13970
X55880Y20320
X60579Y21158
X74726Y24009
X60631Y20599
X75158Y23650
X60683Y20041
X75209Y23091
X60735Y19482
X75514Y22606
X60786Y18923
X75819Y21414
X61345Y18871
X75819Y20574
X61904Y18819
X75565Y19304
X62463Y18767
X75819Y17526
X80800Y16510
X80800Y19050
X80800Y21590
X80800Y24130
X80800Y26670
X80800Y29210
X80800Y31750
X36322Y33487
X41910Y3200
X21514Y7998
X20417Y6955
X20828Y6498
X30607Y7747
X33147Y7747
X24372Y1639
X25527Y2159
X28067Y2159
X30607Y2159
X33147Y5461
X28956Y1397
X26416Y1524
X29845Y33487
X36449Y13208
X36449Y12192
X68777Y23114
X67183Y22911
X23557Y33487
X32639Y54534
X30480Y56337
X46990Y35560
X9674Y26184
X46322Y57114
X9726Y26743
X42291Y57305
X43458Y57455
X45949Y57531
X11555Y25525
X43074Y57887
X45322Y57912
X19606Y21057
X43433Y58318
X44949Y58420
X43001Y58750
X44438Y58916
X21880Y54229
X47625Y54102
X43434Y54102
X21380Y53340
X38458Y52984
X20880Y52959
X58372Y41260
X37973Y52553
X20380Y52451
X37465Y52121
X19880Y52070
X36957Y51689
X19380Y51689
X36449Y51257
X18880Y51181
X35941Y50825
X17432Y50343
X35382Y50394
X35560Y59614
X34036Y56105
X17120Y37083
X21285Y30931
X21844Y30983
X22975Y33516
X34915Y33919
X25908Y53797
X47625Y53543
X22403Y31035
X42875Y53645
X22479Y53467
X22962Y31086
X42390Y53241
X23520Y31138
X24079Y31190
X24638Y31242
X75311Y8636
X77089Y8636
X76200Y8001
X75311Y7239
X77089Y7239
X75311Y3429
X76200Y2667
X75311Y1905
X77089Y1905
X77089Y3429
X84582Y8001
X83693Y8763
X85471Y8763
X83693Y7239
X85471Y7239
X83693Y3429
X85471Y3429
X30988Y33020
X84582Y2667
X85471Y1905
X82042Y11049
X55499Y61595
X56134Y61595
X56769Y61595
X55499Y60960
X56134Y60960
X56769Y60960
X55499Y60325
X56134Y60325
X56769Y60325
X50292Y60720
X79248Y13754
X80772Y13754
X33274Y13730
X69723Y12573
X69737Y14224
X69723Y10160
X69737Y8636
X65992Y6604
X65992Y8636
X71487Y6604
X38684Y27940
X27940Y32385
X27940Y31877
X27940Y31369
X29972Y32385
X29972Y31877
X29972Y31369
X28829Y32385
X28829Y31877
X28829Y31369
X27686Y44450
X27686Y43815
X27686Y43180
X27686Y42545
X29210Y42545
X29210Y43180
X29210Y43815
X29210Y44450
X44196Y43307
X44196Y42672
X44196Y42037
X44196Y41402
X46990Y43307
X46990Y42672
X46990Y42037
X46990Y41402
X39243Y32258
X36322Y31115
X75565Y28448
X75565Y27940
X75565Y27432
X28702Y17780
X29210Y17780
X29718Y17780
X28702Y16383
X29210Y16383
X29718Y16383
X60071Y14986
X59563Y14986
X60071Y15494
X54991Y6731
X55372Y6350
X55753Y5969
X59055Y8001
X59055Y7493
X59055Y6985
X41910Y9500
X45720Y43307
X45720Y42672
X45720Y42037
X45720Y41402
X29845Y1143
M30