G04 EAGLE Gerber RS-274X export*
G75*
%MOMM*%
%FSLAX34Y34*%
%LPD*%
%IN*%
%IPPOS*%
%AMOC8*
5,1,8,0,0,1.08239X$1,22.5*%
G01*
%ADD10C,0.254000*%


D10*
X0Y0D02*
X863600Y0D01*
X863600Y635000D01*
X0Y635000D01*
X0Y0D01*
X50300Y593050D02*
X49303Y593121D01*
X48313Y593264D01*
X47336Y593476D01*
X46376Y593758D01*
X45439Y594107D01*
X44529Y594523D01*
X43652Y595002D01*
X42810Y595543D01*
X42010Y596142D01*
X41254Y596797D01*
X40547Y597504D01*
X39892Y598260D01*
X39293Y599060D01*
X38752Y599902D01*
X38273Y600779D01*
X37857Y601689D01*
X37508Y602626D01*
X37226Y603586D01*
X37014Y604563D01*
X36871Y605553D01*
X36800Y606550D01*
X36800Y607550D01*
X36871Y608548D01*
X37014Y609537D01*
X37226Y610515D01*
X37508Y611474D01*
X37857Y612411D01*
X38273Y613321D01*
X38752Y614198D01*
X39293Y615040D01*
X39892Y615840D01*
X40547Y616596D01*
X41254Y617303D01*
X42010Y617958D01*
X42810Y618557D01*
X43652Y619098D01*
X44529Y619577D01*
X45439Y619993D01*
X46376Y620342D01*
X47336Y620624D01*
X48313Y620836D01*
X49303Y620979D01*
X50300Y621050D01*
X51300Y621050D01*
X52298Y620979D01*
X53287Y620836D01*
X54265Y620624D01*
X55224Y620342D01*
X56161Y619993D01*
X57071Y619577D01*
X57948Y619098D01*
X58790Y618557D01*
X59590Y617958D01*
X60346Y617303D01*
X61053Y616596D01*
X61708Y615840D01*
X62307Y615040D01*
X62848Y614198D01*
X63327Y613321D01*
X63743Y612411D01*
X64092Y611474D01*
X64374Y610515D01*
X64586Y609537D01*
X64729Y608548D01*
X64800Y607550D01*
X64800Y606550D01*
X64729Y605553D01*
X64586Y604563D01*
X64374Y603586D01*
X64092Y602626D01*
X63743Y601689D01*
X63327Y600779D01*
X62848Y599902D01*
X62307Y599060D01*
X61708Y598260D01*
X61053Y597504D01*
X60346Y596797D01*
X59590Y596142D01*
X58790Y595543D01*
X57948Y595002D01*
X57071Y594523D01*
X56161Y594107D01*
X55224Y593758D01*
X54265Y593476D01*
X53287Y593264D01*
X52298Y593121D01*
X51300Y593050D01*
X50300Y593050D01*
X50300Y13950D02*
X49303Y14021D01*
X48313Y14164D01*
X47336Y14376D01*
X46376Y14658D01*
X45439Y15007D01*
X44529Y15423D01*
X43652Y15902D01*
X42810Y16443D01*
X42010Y17042D01*
X41254Y17697D01*
X40547Y18404D01*
X39892Y19160D01*
X39293Y19960D01*
X38752Y20802D01*
X38273Y21679D01*
X37857Y22589D01*
X37508Y23526D01*
X37226Y24486D01*
X37014Y25463D01*
X36871Y26453D01*
X36800Y27450D01*
X36800Y28450D01*
X36871Y29448D01*
X37014Y30437D01*
X37226Y31415D01*
X37508Y32374D01*
X37857Y33311D01*
X38273Y34221D01*
X38752Y35098D01*
X39293Y35940D01*
X39892Y36740D01*
X40547Y37496D01*
X41254Y38203D01*
X42010Y38858D01*
X42810Y39457D01*
X43652Y39998D01*
X44529Y40477D01*
X45439Y40893D01*
X46376Y41242D01*
X47336Y41524D01*
X48313Y41736D01*
X49303Y41879D01*
X50300Y41950D01*
X51300Y41950D01*
X52298Y41879D01*
X53287Y41736D01*
X54265Y41524D01*
X55224Y41242D01*
X56161Y40893D01*
X57071Y40477D01*
X57948Y39998D01*
X58790Y39457D01*
X59590Y38858D01*
X60346Y38203D01*
X61053Y37496D01*
X61708Y36740D01*
X62307Y35940D01*
X62848Y35098D01*
X63327Y34221D01*
X63743Y33311D01*
X64092Y32374D01*
X64374Y31415D01*
X64586Y30437D01*
X64729Y29448D01*
X64800Y28450D01*
X64800Y27450D01*
X64729Y26453D01*
X64586Y25463D01*
X64374Y24486D01*
X64092Y23526D01*
X63743Y22589D01*
X63327Y21679D01*
X62848Y20802D01*
X62307Y19960D01*
X61708Y19160D01*
X61053Y18404D01*
X60346Y17697D01*
X59590Y17042D01*
X58790Y16443D01*
X57948Y15902D01*
X57071Y15423D01*
X56161Y15007D01*
X55224Y14658D01*
X54265Y14376D01*
X53287Y14164D01*
X52298Y14021D01*
X51300Y13950D01*
X50300Y13950D01*
X671495Y252800D02*
X670688Y252879D01*
X669893Y253038D01*
X669117Y253273D01*
X668368Y253583D01*
X667654Y253965D01*
X666980Y254416D01*
X666353Y254930D01*
X665780Y255503D01*
X665266Y256130D01*
X664815Y256804D01*
X664433Y257518D01*
X664123Y258267D01*
X663888Y259043D01*
X663729Y259838D01*
X663650Y260645D01*
X663650Y261455D01*
X663729Y262262D01*
X663888Y263057D01*
X664123Y263833D01*
X664433Y264582D01*
X664815Y265296D01*
X665266Y265970D01*
X665780Y266597D01*
X666353Y267170D01*
X666980Y267684D01*
X667654Y268135D01*
X668368Y268517D01*
X669117Y268827D01*
X669893Y269062D01*
X670688Y269221D01*
X671495Y269300D01*
X672305Y269300D01*
X673112Y269221D01*
X673907Y269062D01*
X674683Y268827D01*
X675432Y268517D01*
X676146Y268135D01*
X676820Y267684D01*
X677447Y267170D01*
X678020Y266597D01*
X678534Y265970D01*
X678985Y265296D01*
X679367Y264582D01*
X679677Y263833D01*
X679912Y263057D01*
X680071Y262262D01*
X680150Y261455D01*
X680150Y260645D01*
X680071Y259838D01*
X679912Y259043D01*
X679677Y258267D01*
X679367Y257518D01*
X678985Y256804D01*
X678534Y256130D01*
X678020Y255503D01*
X677447Y254930D01*
X676820Y254416D01*
X676146Y253965D01*
X675432Y253583D01*
X674683Y253273D01*
X673907Y253038D01*
X673112Y252879D01*
X672305Y252800D01*
X671495Y252800D01*
X521495Y441900D02*
X520688Y441979D01*
X519893Y442138D01*
X519117Y442373D01*
X518368Y442683D01*
X517654Y443065D01*
X516980Y443516D01*
X516353Y444030D01*
X515780Y444603D01*
X515266Y445230D01*
X514815Y445904D01*
X514433Y446618D01*
X514123Y447367D01*
X513888Y448143D01*
X513729Y448938D01*
X513650Y449745D01*
X513650Y450555D01*
X513729Y451362D01*
X513888Y452157D01*
X514123Y452933D01*
X514433Y453682D01*
X514815Y454396D01*
X515266Y455070D01*
X515780Y455697D01*
X516353Y456270D01*
X516980Y456784D01*
X517654Y457235D01*
X518368Y457617D01*
X519117Y457927D01*
X519893Y458162D01*
X520688Y458321D01*
X521495Y458400D01*
X522305Y458400D01*
X523112Y458321D01*
X523907Y458162D01*
X524683Y457927D01*
X525432Y457617D01*
X526146Y457235D01*
X526820Y456784D01*
X527447Y456270D01*
X528020Y455697D01*
X528534Y455070D01*
X528985Y454396D01*
X529367Y453682D01*
X529677Y452933D01*
X529912Y452157D01*
X530071Y451362D01*
X530150Y450555D01*
X530150Y449745D01*
X530071Y448938D01*
X529912Y448143D01*
X529677Y447367D01*
X529367Y446618D01*
X528985Y445904D01*
X528534Y445230D01*
X528020Y444603D01*
X527447Y444030D01*
X526820Y443516D01*
X526146Y443065D01*
X525432Y442683D01*
X524683Y442373D01*
X523907Y442138D01*
X523112Y441979D01*
X522305Y441900D01*
X521495Y441900D01*
X821705Y64190D02*
X822290Y64113D01*
X822860Y63960D01*
X823405Y63735D01*
X823915Y63440D01*
X824383Y63081D01*
X824801Y62663D01*
X825160Y62195D01*
X825455Y61685D01*
X825680Y61140D01*
X825833Y60570D01*
X825910Y59985D01*
X825910Y59395D01*
X825833Y58810D01*
X825680Y58240D01*
X825455Y57695D01*
X825160Y57185D01*
X824801Y56717D01*
X824383Y56299D01*
X823915Y55940D01*
X823405Y55645D01*
X822860Y55420D01*
X822290Y55267D01*
X821705Y55190D01*
X821115Y55190D01*
X820530Y55267D01*
X819960Y55420D01*
X819415Y55645D01*
X818905Y55940D01*
X818437Y56299D01*
X818019Y56717D01*
X817660Y57185D01*
X817365Y57695D01*
X817140Y58240D01*
X816987Y58810D01*
X816910Y59395D01*
X816910Y59985D01*
X816987Y60570D01*
X817140Y61140D01*
X817365Y61685D01*
X817660Y62195D01*
X818019Y62663D01*
X818437Y63081D01*
X818905Y63440D01*
X819415Y63735D01*
X819960Y63960D01*
X820530Y64113D01*
X821115Y64190D01*
X821705Y64190D01*
X786705Y64190D02*
X787290Y64113D01*
X787860Y63960D01*
X788405Y63735D01*
X788915Y63440D01*
X789383Y63081D01*
X789801Y62663D01*
X790160Y62195D01*
X790455Y61685D01*
X790680Y61140D01*
X790833Y60570D01*
X790910Y59985D01*
X790910Y59395D01*
X790833Y58810D01*
X790680Y58240D01*
X790455Y57695D01*
X790160Y57185D01*
X789801Y56717D01*
X789383Y56299D01*
X788915Y55940D01*
X788405Y55645D01*
X787860Y55420D01*
X787290Y55267D01*
X786705Y55190D01*
X786115Y55190D01*
X785530Y55267D01*
X784960Y55420D01*
X784415Y55645D01*
X783905Y55940D01*
X783437Y56299D01*
X783019Y56717D01*
X782660Y57185D01*
X782365Y57695D01*
X782140Y58240D01*
X781987Y58810D01*
X781910Y59395D01*
X781910Y59985D01*
X781987Y60570D01*
X782140Y61140D01*
X782365Y61685D01*
X782660Y62195D01*
X783019Y62663D01*
X783437Y63081D01*
X783905Y63440D01*
X784415Y63735D01*
X784960Y63960D01*
X785530Y64113D01*
X786115Y64190D01*
X786705Y64190D01*
X781651Y598750D02*
X781037Y598819D01*
X780435Y598957D01*
X779852Y599161D01*
X779295Y599429D01*
X778772Y599757D01*
X778289Y600143D01*
X777853Y600579D01*
X777467Y601062D01*
X777139Y601585D01*
X776871Y602142D01*
X776667Y602725D01*
X776529Y603327D01*
X776460Y603941D01*
X776460Y604559D01*
X776529Y605173D01*
X776667Y605775D01*
X776871Y606358D01*
X777139Y606915D01*
X777467Y607438D01*
X777853Y607921D01*
X778289Y608358D01*
X778772Y608743D01*
X779295Y609071D01*
X779852Y609339D01*
X780435Y609543D01*
X781037Y609681D01*
X781651Y609750D01*
X782269Y609750D01*
X782883Y609681D01*
X783485Y609543D01*
X784068Y609339D01*
X784625Y609071D01*
X785148Y608743D01*
X785631Y608358D01*
X786068Y607921D01*
X786453Y607438D01*
X786781Y606915D01*
X787049Y606358D01*
X787253Y605775D01*
X787391Y605173D01*
X787460Y604559D01*
X787460Y603941D01*
X787391Y603327D01*
X787253Y602725D01*
X787049Y602142D01*
X786781Y601585D01*
X786453Y601062D01*
X786068Y600579D01*
X785631Y600143D01*
X785148Y599757D01*
X784625Y599429D01*
X784068Y599161D01*
X783485Y598957D01*
X782883Y598819D01*
X782269Y598750D01*
X781651Y598750D01*
X736651Y598750D02*
X736037Y598819D01*
X735435Y598957D01*
X734852Y599161D01*
X734295Y599429D01*
X733772Y599757D01*
X733289Y600143D01*
X732853Y600579D01*
X732467Y601062D01*
X732139Y601585D01*
X731871Y602142D01*
X731667Y602725D01*
X731529Y603327D01*
X731460Y603941D01*
X731460Y604559D01*
X731529Y605173D01*
X731667Y605775D01*
X731871Y606358D01*
X732139Y606915D01*
X732467Y607438D01*
X732853Y607921D01*
X733289Y608358D01*
X733772Y608743D01*
X734295Y609071D01*
X734852Y609339D01*
X735435Y609543D01*
X736037Y609681D01*
X736651Y609750D01*
X737269Y609750D01*
X737883Y609681D01*
X738485Y609543D01*
X739068Y609339D01*
X739625Y609071D01*
X740148Y608743D01*
X740631Y608358D01*
X741068Y607921D01*
X741453Y607438D01*
X741781Y606915D01*
X742049Y606358D01*
X742253Y605775D01*
X742391Y605173D01*
X742460Y604559D01*
X742460Y603941D01*
X742391Y603327D01*
X742253Y602725D01*
X742049Y602142D01*
X741781Y601585D01*
X741453Y601062D01*
X741068Y600579D01*
X740631Y600143D01*
X740148Y599757D01*
X739625Y599429D01*
X739068Y599161D01*
X738485Y598957D01*
X737883Y598819D01*
X737269Y598750D01*
X736651Y598750D01*
M02*
