G04 EAGLE Gerber RS-274X export*
G75*
%MOMM*%
%FSLAX34Y34*%
%LPD*%
%INSoldermask Top*%
%IPPOS*%
%AMOC8*
5,1,8,0,0,1.08239X$1,22.5*%
G01*
%ADD10C,1.611200*%
%ADD11C,3.003200*%
%ADD12C,1.211200*%
%ADD13C,1.853200*%
%ADD14R,2.003200X2.353200*%
%ADD15R,2.209800X1.295400*%
%ADD16R,1.253200X1.283200*%
%ADD17R,1.283200X1.253200*%
%ADD18R,2.353200X2.003200*%
%ADD19R,1.303200X1.203200*%
%ADD20R,2.703200X2.403200*%
%ADD21R,0.703200X3.203200*%
%ADD22C,1.103200*%
%ADD23R,1.203200X1.303200*%
%ADD24R,1.203200X1.103200*%
%ADD25R,2.003200X2.003200*%
%ADD26R,1.703200X1.703200*%
%ADD27R,1.803200X2.503200*%
%ADD28C,0.697853*%
%ADD29R,2.203200X1.703200*%
%ADD30R,2.203200X4.003200*%
%ADD31C,1.727200*%
%ADD32R,1.016000X1.016000*%
%ADD33R,0.903200X1.403200*%
%ADD34C,2.082800*%
%ADD35C,3.419200*%
%ADD36C,1.303200*%


D10*
X60330Y107950D03*
X79430Y120650D03*
X60330Y133350D03*
X79430Y146050D03*
X60330Y158750D03*
X79430Y171450D03*
X60330Y184150D03*
X79430Y196850D03*
X60330Y209550D03*
X79430Y222250D03*
X60330Y234950D03*
X79430Y247650D03*
X60330Y260350D03*
X79430Y273050D03*
X60330Y285750D03*
X79430Y298450D03*
X60330Y311150D03*
X79430Y323850D03*
X60330Y336550D03*
X79430Y349250D03*
X60330Y361950D03*
X79430Y374650D03*
X60330Y387350D03*
X79430Y400050D03*
X60330Y412750D03*
X79430Y425450D03*
X60330Y438150D03*
X79430Y450850D03*
X60330Y463550D03*
X79430Y476250D03*
X60330Y488950D03*
X79430Y501650D03*
X60330Y514350D03*
X79430Y527050D03*
X22130Y107950D03*
X41230Y120650D03*
X22130Y133350D03*
X41230Y146050D03*
X22130Y158750D03*
X41230Y171450D03*
X22130Y184150D03*
X41230Y196850D03*
X22130Y209550D03*
X41230Y222250D03*
X22130Y234950D03*
X41230Y247650D03*
X22130Y260350D03*
X41230Y273050D03*
X22130Y285750D03*
X41230Y298450D03*
X22130Y311150D03*
X41230Y323850D03*
X22130Y336550D03*
X41230Y349250D03*
X22130Y361950D03*
X41230Y374650D03*
X22130Y387350D03*
X41230Y400050D03*
X22130Y412750D03*
X41230Y425450D03*
X22130Y438150D03*
X41230Y450850D03*
X22130Y463550D03*
X41230Y476250D03*
X22130Y488950D03*
X41230Y501650D03*
X22130Y514350D03*
X41230Y527050D03*
D11*
X50800Y607050D03*
X50800Y27950D03*
D12*
X654400Y424750D03*
X649400Y450150D03*
X644400Y475550D03*
X639400Y424750D03*
X634400Y450150D03*
X629400Y475550D03*
X624400Y424750D03*
X619400Y450150D03*
X614400Y475550D03*
X609400Y424750D03*
X604400Y450150D03*
X599400Y475550D03*
X594400Y424750D03*
X589400Y450150D03*
X584400Y475550D03*
X579400Y424750D03*
X574400Y450150D03*
X569400Y475550D03*
X564400Y424750D03*
X559400Y450150D03*
X554400Y475550D03*
X549400Y424750D03*
X544400Y450150D03*
X539400Y475550D03*
X539400Y286450D03*
X544400Y261050D03*
X549400Y235650D03*
X554400Y286450D03*
X559400Y261050D03*
X564400Y235650D03*
X569400Y286450D03*
X574400Y261050D03*
X579400Y235650D03*
X584400Y286450D03*
X589400Y261050D03*
X594400Y235650D03*
X599400Y286450D03*
X604400Y261050D03*
X609400Y235650D03*
X614400Y286450D03*
X619400Y261050D03*
X624400Y235650D03*
X629400Y286450D03*
X634400Y261050D03*
X639400Y235650D03*
X644400Y286450D03*
X649400Y261050D03*
X654400Y235650D03*
D13*
X671900Y261050D03*
X521900Y450150D03*
D14*
X147320Y315450D03*
X147320Y344950D03*
D10*
X457200Y63500D03*
X482600Y63500D03*
X508000Y63500D03*
X533400Y63500D03*
X533400Y88900D03*
X508000Y88900D03*
X482600Y88900D03*
X457200Y88900D03*
X457200Y38100D03*
X482600Y38100D03*
X508000Y38100D03*
X533400Y38100D03*
X558800Y38100D03*
X584200Y38100D03*
D15*
X476758Y254000D03*
X386842Y254000D03*
X476758Y203200D03*
X386842Y203200D03*
X476758Y152400D03*
X386842Y177800D03*
X476758Y177800D03*
X476758Y228600D03*
X386842Y228600D03*
X386842Y152400D03*
X476758Y279400D03*
X386842Y279400D03*
X476758Y127000D03*
X386842Y127000D03*
X386842Y304800D03*
X476758Y304800D03*
D16*
X640220Y86360D03*
X657720Y86360D03*
X714870Y86360D03*
X697370Y86360D03*
X714870Y142240D03*
X697370Y142240D03*
X640220Y66040D03*
X657720Y66040D03*
X697370Y66040D03*
X714870Y66040D03*
D17*
X635000Y110630D03*
X635000Y128130D03*
X671830Y142100D03*
X671830Y124600D03*
D16*
X640360Y157480D03*
X657860Y157480D03*
X640360Y142240D03*
X657860Y142240D03*
D18*
X620540Y157480D03*
X591040Y157480D03*
D16*
X714730Y101600D03*
X697230Y101600D03*
X714730Y125730D03*
X697230Y125730D03*
D19*
X747640Y101600D03*
X730640Y101600D03*
X747640Y125730D03*
X730640Y125730D03*
D20*
X761910Y79690D03*
X845910Y79690D03*
X761910Y26690D03*
X845910Y26690D03*
D21*
X787910Y87190D03*
X795910Y87190D03*
X803910Y87190D03*
X811910Y87190D03*
X819910Y87190D03*
D22*
X821410Y59690D03*
X786410Y59690D03*
D23*
X777240Y121040D03*
X777240Y138040D03*
D24*
X807720Y121540D03*
X807720Y137540D03*
X792480Y121540D03*
X792480Y137540D03*
D18*
X531350Y609600D03*
X560850Y609600D03*
X649750Y520700D03*
X620250Y520700D03*
D17*
X502920Y624700D03*
X502920Y607200D03*
D25*
X312100Y167400D03*
X312100Y137400D03*
X272100Y137400D03*
X272100Y167400D03*
D17*
X332740Y154800D03*
X332740Y137300D03*
D26*
X808000Y165100D03*
X843000Y165100D03*
X808000Y190500D03*
X843000Y190500D03*
X808000Y215900D03*
X843000Y215900D03*
X808000Y241300D03*
X843000Y241300D03*
X808000Y266700D03*
X843000Y266700D03*
X808000Y292100D03*
X843000Y292100D03*
X808000Y317500D03*
X843000Y317500D03*
X808000Y342900D03*
X843000Y342900D03*
D27*
X419100Y32000D03*
X419100Y95000D03*
D28*
X703083Y480073D02*
X739637Y480073D01*
X703083Y480073D02*
X703083Y485127D01*
X739637Y485127D01*
X739637Y480073D01*
X758963Y480073D02*
X795517Y480073D01*
X758963Y480073D02*
X758963Y485127D01*
X795517Y485127D01*
X795517Y480073D01*
X739637Y454673D02*
X703083Y454673D01*
X703083Y459727D01*
X739637Y459727D01*
X739637Y454673D01*
X758963Y454673D02*
X795517Y454673D01*
X758963Y454673D02*
X758963Y459727D01*
X795517Y459727D01*
X795517Y454673D01*
X739637Y429273D02*
X703083Y429273D01*
X703083Y434327D01*
X739637Y434327D01*
X739637Y429273D01*
X758963Y429273D02*
X795517Y429273D01*
X758963Y429273D02*
X758963Y434327D01*
X795517Y434327D01*
X795517Y429273D01*
X739637Y403873D02*
X703083Y403873D01*
X703083Y408927D01*
X739637Y408927D01*
X739637Y403873D01*
X758963Y403873D02*
X795517Y403873D01*
X758963Y403873D02*
X758963Y408927D01*
X795517Y408927D01*
X795517Y403873D01*
X739637Y378473D02*
X703083Y378473D01*
X703083Y383527D01*
X739637Y383527D01*
X739637Y378473D01*
X758963Y378473D02*
X795517Y378473D01*
X758963Y378473D02*
X758963Y383527D01*
X795517Y383527D01*
X795517Y378473D01*
X739637Y353073D02*
X703083Y353073D01*
X703083Y358127D01*
X739637Y358127D01*
X739637Y353073D01*
X758963Y353073D02*
X795517Y353073D01*
X758963Y353073D02*
X758963Y358127D01*
X795517Y358127D01*
X795517Y353073D01*
X739637Y327673D02*
X703083Y327673D01*
X703083Y332727D01*
X739637Y332727D01*
X739637Y327673D01*
X758963Y327673D02*
X795517Y327673D01*
X758963Y327673D02*
X758963Y332727D01*
X795517Y332727D01*
X795517Y327673D01*
X739637Y302273D02*
X703083Y302273D01*
X703083Y307327D01*
X739637Y307327D01*
X739637Y302273D01*
X758963Y302273D02*
X795517Y302273D01*
X758963Y302273D02*
X758963Y307327D01*
X795517Y307327D01*
X795517Y302273D01*
X232397Y56377D02*
X232397Y19823D01*
X227343Y19823D01*
X227343Y56377D01*
X232397Y56377D01*
X232397Y26453D02*
X227343Y26453D01*
X227343Y33083D02*
X232397Y33083D01*
X232397Y39713D02*
X227343Y39713D01*
X227343Y46343D02*
X232397Y46343D01*
X232397Y52973D02*
X227343Y52973D01*
X232397Y75703D02*
X232397Y112257D01*
X232397Y75703D02*
X227343Y75703D01*
X227343Y112257D01*
X232397Y112257D01*
X232397Y82333D02*
X227343Y82333D01*
X227343Y88963D02*
X232397Y88963D01*
X232397Y95593D02*
X227343Y95593D01*
X227343Y102223D02*
X232397Y102223D01*
X232397Y108853D02*
X227343Y108853D01*
X257797Y56377D02*
X257797Y19823D01*
X252743Y19823D01*
X252743Y56377D01*
X257797Y56377D01*
X257797Y26453D02*
X252743Y26453D01*
X252743Y33083D02*
X257797Y33083D01*
X257797Y39713D02*
X252743Y39713D01*
X252743Y46343D02*
X257797Y46343D01*
X257797Y52973D02*
X252743Y52973D01*
X257797Y75703D02*
X257797Y112257D01*
X257797Y75703D02*
X252743Y75703D01*
X252743Y112257D01*
X257797Y112257D01*
X257797Y82333D02*
X252743Y82333D01*
X252743Y88963D02*
X257797Y88963D01*
X257797Y95593D02*
X252743Y95593D01*
X252743Y102223D02*
X257797Y102223D01*
X257797Y108853D02*
X252743Y108853D01*
X283197Y56377D02*
X283197Y19823D01*
X278143Y19823D01*
X278143Y56377D01*
X283197Y56377D01*
X283197Y26453D02*
X278143Y26453D01*
X278143Y33083D02*
X283197Y33083D01*
X283197Y39713D02*
X278143Y39713D01*
X278143Y46343D02*
X283197Y46343D01*
X283197Y52973D02*
X278143Y52973D01*
X283197Y75703D02*
X283197Y112257D01*
X283197Y75703D02*
X278143Y75703D01*
X278143Y112257D01*
X283197Y112257D01*
X283197Y82333D02*
X278143Y82333D01*
X278143Y88963D02*
X283197Y88963D01*
X283197Y95593D02*
X278143Y95593D01*
X278143Y102223D02*
X283197Y102223D01*
X283197Y108853D02*
X278143Y108853D01*
X308597Y56377D02*
X308597Y19823D01*
X303543Y19823D01*
X303543Y56377D01*
X308597Y56377D01*
X308597Y26453D02*
X303543Y26453D01*
X303543Y33083D02*
X308597Y33083D01*
X308597Y39713D02*
X303543Y39713D01*
X303543Y46343D02*
X308597Y46343D01*
X308597Y52973D02*
X303543Y52973D01*
X308597Y75703D02*
X308597Y112257D01*
X308597Y75703D02*
X303543Y75703D01*
X303543Y112257D01*
X308597Y112257D01*
X308597Y82333D02*
X303543Y82333D01*
X303543Y88963D02*
X308597Y88963D01*
X308597Y95593D02*
X303543Y95593D01*
X303543Y102223D02*
X308597Y102223D01*
X308597Y108853D02*
X303543Y108853D01*
X333997Y56377D02*
X333997Y19823D01*
X328943Y19823D01*
X328943Y56377D01*
X333997Y56377D01*
X333997Y26453D02*
X328943Y26453D01*
X328943Y33083D02*
X333997Y33083D01*
X333997Y39713D02*
X328943Y39713D01*
X328943Y46343D02*
X333997Y46343D01*
X333997Y52973D02*
X328943Y52973D01*
X333997Y75703D02*
X333997Y112257D01*
X333997Y75703D02*
X328943Y75703D01*
X328943Y112257D01*
X333997Y112257D01*
X333997Y82333D02*
X328943Y82333D01*
X328943Y88963D02*
X333997Y88963D01*
X333997Y95593D02*
X328943Y95593D01*
X328943Y102223D02*
X333997Y102223D01*
X333997Y108853D02*
X328943Y108853D01*
D29*
X590800Y607200D03*
X590800Y584200D03*
X590800Y561200D03*
D30*
X653800Y584200D03*
D31*
X185420Y292100D02*
X170180Y292100D01*
X170180Y266700D02*
X185420Y266700D01*
X185420Y241300D02*
X170180Y241300D01*
X170180Y215900D02*
X185420Y215900D01*
D32*
X364490Y142240D03*
X364490Y111760D03*
D33*
X121920Y281220D03*
X121920Y318220D03*
D34*
X794460Y579250D03*
X770730Y579250D03*
X748190Y579250D03*
X724460Y579250D03*
D35*
X701460Y603250D03*
X817460Y603250D03*
D36*
X781960Y604250D03*
X736960Y604250D03*
M02*
