G04 EAGLE Gerber RS-274X export*
G75*
%MOMM*%
%FSLAX34Y34*%
%LPD*%
%INSolderpaste Bottom*%
%IPPOS*%
%AMOC8*
5,1,8,0,0,1.08239X$1,22.5*%
G01*
%ADD10R,0.270000X1.500000*%
%ADD11R,1.500000X0.270000*%
%ADD12R,1.000000X0.300000*%
%ADD13R,0.300000X1.000000*%
%ADD14R,3.000000X0.600000*%
%ADD15R,0.300000X1.900000*%
%ADD16R,1.400000X0.300000*%
%ADD17R,0.600000X0.700000*%
%ADD18R,0.600000X0.900000*%
%ADD19R,0.925000X0.740000*%
%ADD20R,0.740000X0.925000*%
%ADD21R,1.000000X1.100000*%
%ADD22R,1.270000X0.760000*%
%ADD23R,0.700000X0.600000*%


D10*
X244800Y36800D03*
X249800Y36800D03*
X254800Y36800D03*
X259800Y36800D03*
X264800Y36800D03*
X269800Y36800D03*
X274800Y36800D03*
X279800Y36800D03*
X284800Y36800D03*
X289800Y36800D03*
X294800Y36800D03*
X299800Y36800D03*
X304800Y36800D03*
X309800Y36800D03*
X314800Y36800D03*
X319800Y36800D03*
X324800Y36800D03*
X329800Y36800D03*
X334800Y36800D03*
X339800Y36800D03*
X344800Y36800D03*
X349800Y36800D03*
X354800Y36800D03*
X359800Y36800D03*
X364800Y36800D03*
X244800Y191800D03*
X249800Y191800D03*
X254800Y191800D03*
X259800Y191800D03*
X264800Y191800D03*
X269800Y191800D03*
X274800Y191800D03*
X279800Y191800D03*
X284800Y191800D03*
X289800Y191800D03*
X294800Y191800D03*
X299800Y191800D03*
X304800Y191800D03*
X309800Y191800D03*
X314800Y191800D03*
X319800Y191800D03*
X324800Y191800D03*
X329800Y191800D03*
X334800Y191800D03*
X339800Y191800D03*
X344800Y191800D03*
X349800Y191800D03*
X354800Y191800D03*
X359800Y191800D03*
X364800Y191800D03*
D11*
X382300Y174300D03*
X382300Y169300D03*
X382300Y164300D03*
X382300Y159300D03*
X382300Y154300D03*
X382300Y149300D03*
X382300Y144300D03*
X382300Y139300D03*
X382300Y134300D03*
X382300Y129300D03*
X382300Y124300D03*
X382300Y119300D03*
X382300Y114300D03*
X382300Y109300D03*
X382300Y104300D03*
X382300Y99300D03*
X382300Y94300D03*
X382300Y89300D03*
X382300Y84300D03*
X382300Y79300D03*
X382300Y74300D03*
X382300Y69300D03*
X382300Y64300D03*
X382300Y59300D03*
X382300Y54300D03*
X227300Y54300D03*
X227300Y59300D03*
X227300Y64300D03*
X227300Y69300D03*
X227300Y74300D03*
X227300Y79300D03*
X227300Y84300D03*
X227300Y89300D03*
X227300Y94300D03*
X227300Y99300D03*
X227300Y104300D03*
X227300Y109300D03*
X227300Y114300D03*
X227300Y119300D03*
X227300Y124300D03*
X227300Y129300D03*
X227300Y134300D03*
X227300Y139300D03*
X227300Y144300D03*
X227300Y149300D03*
X227300Y154300D03*
X227300Y159300D03*
X227300Y164300D03*
X227300Y169300D03*
X227300Y174300D03*
D12*
X730100Y141640D03*
X730100Y136640D03*
X730100Y131640D03*
X730100Y126640D03*
X730100Y121640D03*
X730100Y116640D03*
X730100Y111640D03*
X730100Y106640D03*
X730100Y101640D03*
X730100Y96640D03*
X730100Y91640D03*
X730100Y86640D03*
X730100Y81640D03*
X730100Y76640D03*
X730100Y71640D03*
X730100Y66640D03*
D13*
X710600Y47140D03*
X705600Y47140D03*
X700600Y47140D03*
X695600Y47140D03*
X690600Y47140D03*
X685600Y47140D03*
X680600Y47140D03*
X675600Y47140D03*
X670600Y47140D03*
X665600Y47140D03*
X660600Y47140D03*
X655600Y47140D03*
X650600Y47140D03*
X645600Y47140D03*
X640600Y47140D03*
X635600Y47140D03*
D12*
X616100Y66640D03*
X616100Y71640D03*
X616100Y76640D03*
X616100Y81640D03*
X616100Y86640D03*
X616100Y91640D03*
X616100Y96640D03*
X616100Y101640D03*
X616100Y106640D03*
X616100Y111640D03*
X616100Y116640D03*
X616100Y121640D03*
X616100Y126640D03*
X616100Y131640D03*
X616100Y136640D03*
X616100Y141640D03*
D13*
X635600Y161140D03*
X640600Y161140D03*
X645600Y161140D03*
X650600Y161140D03*
X655600Y161140D03*
X660600Y161140D03*
X665600Y161140D03*
X670600Y161140D03*
X675600Y161140D03*
X680600Y161140D03*
X685600Y161140D03*
X690600Y161140D03*
X695600Y161140D03*
X700600Y161140D03*
X705600Y161140D03*
X710600Y161140D03*
D14*
X821000Y514350D03*
X821000Y501650D03*
X821000Y488950D03*
X821000Y476250D03*
X821000Y463550D03*
X821000Y450850D03*
X821000Y438150D03*
X821000Y425450D03*
X821000Y412750D03*
X821000Y400050D03*
X821000Y387350D03*
X821000Y374650D03*
X821000Y361950D03*
X821000Y349250D03*
X703000Y349250D03*
X703000Y361950D03*
X703000Y374650D03*
X703000Y387350D03*
X703000Y400050D03*
X703000Y412750D03*
X703000Y425450D03*
X703000Y438150D03*
X703000Y450850D03*
X703000Y463550D03*
X703000Y476250D03*
X703000Y488950D03*
X703000Y501650D03*
X703000Y514350D03*
D15*
X183800Y557450D03*
X188800Y557450D03*
X193800Y557450D03*
X198800Y557450D03*
X203800Y557450D03*
X208800Y557450D03*
X213800Y557450D03*
X218800Y557450D03*
X223800Y557450D03*
X228800Y557450D03*
X233800Y557450D03*
X238800Y557450D03*
X243800Y557450D03*
X248800Y557450D03*
X253800Y557450D03*
X258800Y557450D03*
X263800Y557450D03*
X268800Y557450D03*
X273800Y557450D03*
X278800Y557450D03*
X283800Y557450D03*
X288800Y557450D03*
X293800Y557450D03*
X298800Y557450D03*
X298800Y356950D03*
X293800Y356950D03*
X288800Y356950D03*
X283800Y356950D03*
X278800Y356950D03*
X273800Y356950D03*
X268800Y356950D03*
X263800Y356950D03*
X258800Y356950D03*
X253800Y356950D03*
X248800Y356950D03*
X243800Y356950D03*
X238800Y356950D03*
X233800Y356950D03*
X228800Y356950D03*
X223800Y356950D03*
X218800Y356950D03*
X213800Y356950D03*
X208800Y356950D03*
X203800Y356950D03*
X198800Y356950D03*
X193800Y356950D03*
X188800Y356950D03*
X183800Y356950D03*
X348900Y557450D03*
X353900Y557450D03*
X358900Y557450D03*
X363900Y557450D03*
X368900Y557450D03*
X373900Y557450D03*
X378900Y557450D03*
X383900Y557450D03*
X388900Y557450D03*
X393900Y557450D03*
X398900Y557450D03*
X403900Y557450D03*
X408900Y557450D03*
X413900Y557450D03*
X418900Y557450D03*
X423900Y557450D03*
X428900Y557450D03*
X433900Y557450D03*
X438900Y557450D03*
X443900Y557450D03*
X448900Y557450D03*
X453900Y557450D03*
X458900Y557450D03*
X463900Y557450D03*
X463900Y356950D03*
X458900Y356950D03*
X453900Y356950D03*
X448900Y356950D03*
X443900Y356950D03*
X438900Y356950D03*
X433900Y356950D03*
X428900Y356950D03*
X423900Y356950D03*
X418900Y356950D03*
X413900Y356950D03*
X408900Y356950D03*
X403900Y356950D03*
X398900Y356950D03*
X393900Y356950D03*
X388900Y356950D03*
X383900Y356950D03*
X378900Y356950D03*
X373900Y356950D03*
X368900Y356950D03*
X363900Y356950D03*
X358900Y356950D03*
X353900Y356950D03*
X348900Y356950D03*
D16*
X521450Y153630D03*
X521450Y160130D03*
X521450Y166630D03*
X521450Y173130D03*
X521450Y179630D03*
X521450Y186130D03*
X521450Y192630D03*
X521450Y199130D03*
X521450Y205630D03*
X521450Y212130D03*
X583450Y212130D03*
X583450Y205630D03*
X583450Y199130D03*
X583450Y192630D03*
X583450Y186130D03*
X583450Y179630D03*
X583450Y173130D03*
X583450Y166630D03*
X583450Y160130D03*
X583450Y153630D03*
D17*
X200580Y96520D03*
X190580Y96520D03*
X485220Y127000D03*
X495220Y127000D03*
X485220Y152400D03*
X495220Y152400D03*
X485220Y177800D03*
X495220Y177800D03*
X485220Y203200D03*
X495220Y203200D03*
X485220Y228600D03*
X495220Y228600D03*
X485220Y254000D03*
X495220Y254000D03*
X485220Y279400D03*
X495220Y279400D03*
X485220Y304800D03*
X495220Y304800D03*
D18*
X681380Y205810D03*
X690880Y205810D03*
X700380Y205810D03*
X700380Y182810D03*
X690880Y182810D03*
X681380Y182810D03*
D17*
X665400Y191770D03*
X655400Y191770D03*
X665400Y181610D03*
X655400Y181610D03*
X764460Y111760D03*
X754460Y111760D03*
X764460Y101600D03*
X754460Y101600D03*
X764460Y121920D03*
X754460Y121920D03*
D19*
X201580Y114300D03*
X189580Y114300D03*
X201580Y167640D03*
X189580Y167640D03*
D20*
X261620Y218790D03*
X261620Y230790D03*
D19*
X406750Y185420D03*
X418750Y185420D03*
X405480Y114300D03*
X417480Y114300D03*
X377540Y26670D03*
X389540Y26670D03*
X331120Y17780D03*
X319120Y17780D03*
X253080Y330200D03*
X265080Y330200D03*
X406050Y332740D03*
X394050Y332740D03*
X599090Y311150D03*
X587090Y311150D03*
X753460Y133350D03*
X765460Y133350D03*
D17*
X750650Y146050D03*
X760650Y146050D03*
X760650Y156210D03*
X750650Y156210D03*
D20*
X671830Y517240D03*
X671830Y529240D03*
X849630Y413100D03*
X849630Y425100D03*
D21*
X792090Y271780D03*
X775090Y271780D03*
X792090Y256540D03*
X775090Y256540D03*
X792090Y241300D03*
X775090Y241300D03*
X792090Y226060D03*
X775090Y226060D03*
X792090Y210820D03*
X775090Y210820D03*
X792090Y195580D03*
X775090Y195580D03*
X792090Y180340D03*
X775090Y180340D03*
X792090Y165100D03*
X775090Y165100D03*
D22*
X127150Y19050D03*
X127150Y31750D03*
X203050Y31750D03*
X203050Y19050D03*
D16*
X450100Y270550D03*
X450100Y264050D03*
X450100Y257550D03*
X450100Y251050D03*
X450100Y244550D03*
X450100Y238050D03*
X450100Y231550D03*
X450100Y225050D03*
X450100Y218550D03*
X450100Y212050D03*
X388100Y212050D03*
X388100Y218550D03*
X388100Y225050D03*
X388100Y231550D03*
X388100Y238050D03*
X388100Y244550D03*
X388100Y251050D03*
X388100Y257550D03*
X388100Y264050D03*
X388100Y270550D03*
D23*
X438150Y22780D03*
X438150Y12780D03*
D17*
X436800Y76200D03*
X426800Y76200D03*
X401400Y76200D03*
X411400Y76200D03*
M02*
