M48
;GenerationSoftware,Autodesk,EAGLE,9.6.2*%
;CreationDate,2023-03-31T03:09:13Z*%
FMAT,2
ICI,OFF
METRIC,TZ,000.000
T6C0.203
T5C0.229
T4C0.305
T3C0.600
T2C0.610
T1C0.650
%
G90
M71
T1
X32100Y3740
X26320Y3740
T2
X13212Y33470
X13212Y42360
X13212Y41090
X13212Y39820
X13212Y38550
X13212Y37280
X13212Y36010
X13212Y34740
X13212Y32200
X21467Y42360
X21467Y43630
X19336Y11160
X17050Y13446
T3
X24890Y4240
X33530Y4240
X24890Y60
X33530Y60
T4
X28321Y17145
T5
X31496Y6350
X26670Y6350
T6
X38735Y20955
X30480Y27940
X34925Y27940
X34925Y30480
X24130Y12700
X24130Y12065
X24130Y11430
X24130Y10795
X40640Y34925
X30480Y30480
X37922Y30493
X38837Y16535
X37762Y29786
X37175Y24106
X37890Y25190
X37719Y29083
X38334Y24130
X17145Y43180
X32841Y34610
X30518Y12827
X32091Y34613
X31966Y12827
X35560Y15240
X35560Y14605
X36449Y24003
X37465Y28321
X34544Y24257
X26797Y28067
X30861Y22606
X30861Y20828
X32313Y20922
X30379Y24257
X32313Y18972
X30988Y23749
X38100Y31750
X33814Y38950
X27805Y27602
X27940Y34417
X35560Y13970
X35560Y13335
X38735Y18796
X40767Y20828
X34036Y22352
X29210Y25908
X16510Y43180
X17780Y43180
X16510Y32639
X30734Y37846
X17145Y32639
X17780Y32639
X29210Y37846
X32258Y37846
X24765Y37465
X24765Y36830
X24765Y38100
X40640Y35560
X40640Y34290
M30