G04 EAGLE Gerber RS-274X export*
G75*
%MOMM*%
%FSLAX34Y34*%
%LPD*%
%INSilkscreen Top*%
%IPPOS*%
%AMOC8*
5,1,8,0,0,1.08239X$1,22.5*%
G01*
%ADD10C,0.076200*%
%ADD11C,0.200000*%
%ADD12C,0.152400*%
%ADD13C,0.200000*%
%ADD14C,0.304800*%
%ADD15C,0.127000*%
%ADD16C,0.050800*%
%ADD17C,0.914400*%
%ADD18C,0.203200*%
%ADD19C,0.101600*%


D10*
X265381Y187323D02*
X274619Y184243D01*
X265381Y181164D01*
X267691Y181934D02*
X267691Y186553D01*
X270000Y177810D02*
X270182Y177808D01*
X270363Y177801D01*
X270545Y177790D01*
X270726Y177775D01*
X270907Y177756D01*
X271087Y177732D01*
X271266Y177704D01*
X271445Y177672D01*
X271623Y177635D01*
X271800Y177594D01*
X271976Y177549D01*
X272151Y177500D01*
X272325Y177446D01*
X272497Y177389D01*
X272668Y177327D01*
X272838Y177261D01*
X273006Y177192D01*
X273172Y177118D01*
X273336Y177040D01*
X273336Y177039D02*
X273415Y177010D01*
X273492Y176978D01*
X273568Y176942D01*
X273643Y176903D01*
X273716Y176860D01*
X273786Y176814D01*
X273855Y176766D01*
X273921Y176714D01*
X273985Y176659D01*
X274046Y176602D01*
X274105Y176542D01*
X274162Y176479D01*
X274215Y176414D01*
X274265Y176347D01*
X274313Y176277D01*
X274357Y176206D01*
X274398Y176132D01*
X274436Y176057D01*
X274470Y175980D01*
X274501Y175902D01*
X274528Y175823D01*
X274552Y175742D01*
X274573Y175660D01*
X274589Y175578D01*
X274602Y175495D01*
X274612Y175411D01*
X274617Y175327D01*
X274619Y175243D01*
X274617Y175159D01*
X274612Y175075D01*
X274602Y174991D01*
X274589Y174908D01*
X274573Y174826D01*
X274552Y174744D01*
X274528Y174663D01*
X274501Y174584D01*
X274470Y174506D01*
X274436Y174429D01*
X274398Y174354D01*
X274357Y174280D01*
X274313Y174209D01*
X274265Y174139D01*
X274215Y174072D01*
X274162Y174007D01*
X274105Y173944D01*
X274047Y173884D01*
X273985Y173827D01*
X273921Y173772D01*
X273855Y173720D01*
X273786Y173672D01*
X273716Y173626D01*
X273643Y173583D01*
X273569Y173544D01*
X273492Y173508D01*
X273415Y173476D01*
X273336Y173447D01*
X273172Y173369D01*
X273006Y173295D01*
X272838Y173226D01*
X272668Y173160D01*
X272497Y173098D01*
X272325Y173041D01*
X272151Y172987D01*
X271976Y172938D01*
X271800Y172893D01*
X271623Y172852D01*
X271445Y172815D01*
X271266Y172783D01*
X271087Y172755D01*
X270907Y172731D01*
X270726Y172712D01*
X270545Y172697D01*
X270363Y172686D01*
X270182Y172679D01*
X270000Y172677D01*
X270000Y177809D02*
X269818Y177807D01*
X269637Y177800D01*
X269455Y177789D01*
X269274Y177774D01*
X269093Y177755D01*
X268913Y177731D01*
X268734Y177703D01*
X268555Y177671D01*
X268377Y177634D01*
X268200Y177593D01*
X268024Y177548D01*
X267849Y177499D01*
X267675Y177445D01*
X267503Y177388D01*
X267332Y177326D01*
X267162Y177260D01*
X266995Y177191D01*
X266828Y177117D01*
X266664Y177039D01*
X266585Y177010D01*
X266508Y176978D01*
X266431Y176942D01*
X266357Y176903D01*
X266284Y176860D01*
X266214Y176814D01*
X266145Y176766D01*
X266079Y176714D01*
X266015Y176659D01*
X265953Y176602D01*
X265895Y176542D01*
X265838Y176479D01*
X265785Y176414D01*
X265735Y176347D01*
X265687Y176277D01*
X265643Y176206D01*
X265602Y176132D01*
X265564Y176057D01*
X265530Y175980D01*
X265499Y175902D01*
X265472Y175823D01*
X265448Y175742D01*
X265427Y175660D01*
X265411Y175578D01*
X265398Y175495D01*
X265388Y175411D01*
X265383Y175327D01*
X265381Y175243D01*
X266664Y173447D02*
X266828Y173369D01*
X266994Y173295D01*
X267162Y173226D01*
X267332Y173160D01*
X267503Y173098D01*
X267675Y173041D01*
X267849Y172987D01*
X268024Y172938D01*
X268200Y172893D01*
X268377Y172852D01*
X268555Y172815D01*
X268734Y172783D01*
X268913Y172755D01*
X269093Y172731D01*
X269274Y172712D01*
X269455Y172697D01*
X269637Y172686D01*
X269818Y172679D01*
X270000Y172677D01*
X266664Y173447D02*
X266585Y173476D01*
X266508Y173508D01*
X266431Y173544D01*
X266357Y173583D01*
X266284Y173626D01*
X266214Y173672D01*
X266145Y173720D01*
X266079Y173772D01*
X266015Y173827D01*
X265953Y173884D01*
X265895Y173944D01*
X265838Y174007D01*
X265785Y174072D01*
X265735Y174139D01*
X265687Y174209D01*
X265643Y174280D01*
X265602Y174354D01*
X265564Y174429D01*
X265530Y174506D01*
X265499Y174584D01*
X265472Y174663D01*
X265448Y174744D01*
X265427Y174826D01*
X265411Y174908D01*
X265398Y174991D01*
X265388Y175075D01*
X265383Y175159D01*
X265381Y175243D01*
X267434Y177296D02*
X272566Y173191D01*
X202829Y418192D02*
X196157Y418192D01*
X196058Y418190D01*
X195958Y418184D01*
X195859Y418175D01*
X195761Y418161D01*
X195663Y418144D01*
X195565Y418123D01*
X195469Y418098D01*
X195374Y418069D01*
X195279Y418037D01*
X195187Y418001D01*
X195095Y417962D01*
X195005Y417919D01*
X194917Y417873D01*
X194831Y417823D01*
X194747Y417770D01*
X194665Y417714D01*
X194585Y417654D01*
X194508Y417592D01*
X194433Y417526D01*
X194360Y417458D01*
X194291Y417387D01*
X194224Y417313D01*
X194160Y417237D01*
X194099Y417158D01*
X194041Y417077D01*
X193986Y416994D01*
X193935Y416909D01*
X193887Y416822D01*
X193842Y416733D01*
X193801Y416642D01*
X193763Y416550D01*
X193729Y416457D01*
X193699Y416362D01*
X193672Y416266D01*
X193649Y416169D01*
X193630Y416072D01*
X193615Y415973D01*
X193603Y415874D01*
X193595Y415775D01*
X193591Y415676D01*
X193591Y415576D01*
X193595Y415477D01*
X193603Y415378D01*
X193615Y415279D01*
X193630Y415180D01*
X193649Y415083D01*
X193672Y414986D01*
X193699Y414890D01*
X193729Y414795D01*
X193763Y414702D01*
X193801Y414610D01*
X193842Y414519D01*
X193887Y414430D01*
X193935Y414343D01*
X193986Y414258D01*
X194041Y414175D01*
X194099Y414094D01*
X194160Y414015D01*
X194224Y413939D01*
X194291Y413865D01*
X194360Y413794D01*
X194433Y413726D01*
X194508Y413660D01*
X194585Y413598D01*
X194665Y413538D01*
X194747Y413482D01*
X194831Y413429D01*
X194917Y413379D01*
X195005Y413333D01*
X195095Y413290D01*
X195187Y413251D01*
X195279Y413215D01*
X195374Y413183D01*
X195469Y413154D01*
X195565Y413129D01*
X195663Y413108D01*
X195761Y413091D01*
X195859Y413077D01*
X195958Y413068D01*
X196058Y413062D01*
X196157Y413060D01*
X202829Y413060D01*
X195644Y404059D02*
X195554Y404061D01*
X195465Y404067D01*
X195376Y404077D01*
X195287Y404090D01*
X195200Y404108D01*
X195113Y404129D01*
X195027Y404154D01*
X194942Y404183D01*
X194858Y404215D01*
X194776Y404251D01*
X194696Y404291D01*
X194617Y404334D01*
X194541Y404381D01*
X194466Y404430D01*
X194394Y404483D01*
X194324Y404539D01*
X194257Y404598D01*
X194192Y404660D01*
X194130Y404725D01*
X194071Y404792D01*
X194015Y404862D01*
X193962Y404934D01*
X193913Y405009D01*
X193866Y405086D01*
X193823Y405164D01*
X193783Y405244D01*
X193747Y405326D01*
X193715Y405410D01*
X193686Y405495D01*
X193661Y405581D01*
X193640Y405668D01*
X193622Y405756D01*
X193609Y405844D01*
X193599Y405933D01*
X193593Y406022D01*
X193591Y406112D01*
X193593Y406239D01*
X193598Y406366D01*
X193608Y406492D01*
X193621Y406618D01*
X193637Y406744D01*
X193658Y406869D01*
X193682Y406994D01*
X193709Y407117D01*
X193740Y407240D01*
X193775Y407362D01*
X193813Y407483D01*
X193855Y407603D01*
X193901Y407721D01*
X193949Y407838D01*
X194002Y407954D01*
X194057Y408068D01*
X194116Y408180D01*
X194178Y408291D01*
X194243Y408400D01*
X194312Y408506D01*
X194383Y408611D01*
X194458Y408714D01*
X194536Y408814D01*
X194616Y408912D01*
X194699Y409008D01*
X194785Y409101D01*
X194874Y409191D01*
X200776Y408935D02*
X200866Y408933D01*
X200955Y408927D01*
X201044Y408917D01*
X201132Y408904D01*
X201220Y408886D01*
X201307Y408865D01*
X201393Y408840D01*
X201478Y408811D01*
X201562Y408779D01*
X201644Y408743D01*
X201724Y408703D01*
X201803Y408660D01*
X201879Y408613D01*
X201954Y408564D01*
X202026Y408511D01*
X202096Y408455D01*
X202163Y408396D01*
X202228Y408334D01*
X202290Y408269D01*
X202349Y408202D01*
X202405Y408132D01*
X202458Y408060D01*
X202507Y407985D01*
X202554Y407909D01*
X202597Y407830D01*
X202637Y407750D01*
X202673Y407668D01*
X202705Y407584D01*
X202734Y407499D01*
X202759Y407413D01*
X202780Y407326D01*
X202798Y407238D01*
X202811Y407150D01*
X202821Y407061D01*
X202827Y406972D01*
X202829Y406882D01*
X202827Y406758D01*
X202821Y406634D01*
X202811Y406511D01*
X202797Y406388D01*
X202779Y406265D01*
X202757Y406144D01*
X202732Y406022D01*
X202702Y405902D01*
X202669Y405783D01*
X202631Y405665D01*
X202590Y405548D01*
X202546Y405433D01*
X202497Y405319D01*
X202445Y405206D01*
X202389Y405096D01*
X202330Y404987D01*
X202267Y404880D01*
X202201Y404775D01*
X202132Y404673D01*
X202059Y404573D01*
X198980Y407909D02*
X199027Y407985D01*
X199078Y408060D01*
X199132Y408132D01*
X199189Y408202D01*
X199249Y408269D01*
X199312Y408334D01*
X199377Y408396D01*
X199445Y408455D01*
X199516Y408511D01*
X199589Y408564D01*
X199664Y408614D01*
X199742Y408660D01*
X199821Y408703D01*
X199902Y408743D01*
X199985Y408779D01*
X200069Y408811D01*
X200154Y408840D01*
X200241Y408865D01*
X200329Y408886D01*
X200417Y408904D01*
X200506Y408917D01*
X200596Y408927D01*
X200686Y408933D01*
X200776Y408935D01*
X197440Y405086D02*
X197393Y405009D01*
X197342Y404934D01*
X197288Y404862D01*
X197231Y404792D01*
X197171Y404725D01*
X197108Y404660D01*
X197043Y404598D01*
X196975Y404539D01*
X196904Y404483D01*
X196831Y404430D01*
X196756Y404380D01*
X196678Y404334D01*
X196599Y404291D01*
X196518Y404251D01*
X196435Y404215D01*
X196351Y404183D01*
X196266Y404154D01*
X196179Y404129D01*
X196092Y404108D01*
X196003Y404090D01*
X195914Y404077D01*
X195824Y404067D01*
X195734Y404061D01*
X195644Y404059D01*
X197440Y405086D02*
X198980Y407909D01*
X198723Y400062D02*
X198723Y397496D01*
X198721Y397397D01*
X198715Y397297D01*
X198706Y397198D01*
X198692Y397100D01*
X198675Y397002D01*
X198654Y396904D01*
X198629Y396808D01*
X198600Y396713D01*
X198568Y396618D01*
X198532Y396526D01*
X198493Y396434D01*
X198450Y396344D01*
X198404Y396256D01*
X198354Y396170D01*
X198301Y396086D01*
X198245Y396004D01*
X198185Y395924D01*
X198123Y395847D01*
X198057Y395772D01*
X197989Y395699D01*
X197918Y395630D01*
X197844Y395563D01*
X197768Y395499D01*
X197689Y395438D01*
X197608Y395380D01*
X197525Y395325D01*
X197440Y395274D01*
X197353Y395226D01*
X197264Y395181D01*
X197173Y395140D01*
X197081Y395102D01*
X196988Y395068D01*
X196893Y395038D01*
X196797Y395011D01*
X196700Y394988D01*
X196603Y394969D01*
X196504Y394954D01*
X196405Y394942D01*
X196306Y394934D01*
X196207Y394930D01*
X196107Y394930D01*
X196008Y394934D01*
X195909Y394942D01*
X195810Y394954D01*
X195711Y394969D01*
X195614Y394988D01*
X195517Y395011D01*
X195421Y395038D01*
X195326Y395068D01*
X195233Y395102D01*
X195141Y395140D01*
X195050Y395181D01*
X194961Y395226D01*
X194874Y395274D01*
X194789Y395325D01*
X194706Y395380D01*
X194625Y395438D01*
X194546Y395499D01*
X194470Y395563D01*
X194396Y395630D01*
X194325Y395699D01*
X194257Y395772D01*
X194191Y395847D01*
X194129Y395924D01*
X194069Y396004D01*
X194013Y396086D01*
X193960Y396170D01*
X193910Y396256D01*
X193864Y396344D01*
X193821Y396434D01*
X193782Y396526D01*
X193746Y396618D01*
X193714Y396713D01*
X193685Y396808D01*
X193660Y396904D01*
X193639Y397002D01*
X193622Y397100D01*
X193608Y397198D01*
X193599Y397297D01*
X193593Y397397D01*
X193591Y397496D01*
X193591Y400062D01*
X202829Y400062D01*
X202829Y397496D01*
X202827Y397406D01*
X202821Y397317D01*
X202811Y397228D01*
X202798Y397140D01*
X202780Y397052D01*
X202759Y396965D01*
X202734Y396879D01*
X202705Y396794D01*
X202673Y396710D01*
X202637Y396628D01*
X202597Y396548D01*
X202554Y396470D01*
X202507Y396393D01*
X202458Y396318D01*
X202405Y396246D01*
X202349Y396176D01*
X202290Y396109D01*
X202228Y396044D01*
X202163Y395982D01*
X202096Y395923D01*
X202026Y395867D01*
X201954Y395814D01*
X201879Y395765D01*
X201803Y395718D01*
X201724Y395675D01*
X201644Y395635D01*
X201562Y395599D01*
X201478Y395567D01*
X201393Y395538D01*
X201307Y395513D01*
X201220Y395492D01*
X201132Y395474D01*
X201044Y395461D01*
X200955Y395451D01*
X200866Y395445D01*
X200776Y395443D01*
X200686Y395445D01*
X200597Y395451D01*
X200508Y395461D01*
X200420Y395474D01*
X200332Y395492D01*
X200245Y395513D01*
X200159Y395538D01*
X200074Y395567D01*
X199990Y395599D01*
X199908Y395635D01*
X199828Y395675D01*
X199750Y395718D01*
X199673Y395765D01*
X199598Y395814D01*
X199526Y395867D01*
X199456Y395923D01*
X199389Y395982D01*
X199324Y396044D01*
X199262Y396109D01*
X199203Y396176D01*
X199147Y396246D01*
X199094Y396318D01*
X199045Y396393D01*
X198998Y396470D01*
X198955Y396548D01*
X198915Y396628D01*
X198879Y396710D01*
X198847Y396794D01*
X198818Y396879D01*
X198793Y396965D01*
X198772Y397052D01*
X198754Y397140D01*
X198741Y397228D01*
X198731Y397317D01*
X198725Y397406D01*
X198723Y397496D01*
X199750Y386305D02*
X193591Y386305D01*
X199750Y386305D02*
X199750Y381686D01*
X199748Y381608D01*
X199742Y381530D01*
X199732Y381453D01*
X199718Y381376D01*
X199701Y381300D01*
X199679Y381225D01*
X199654Y381151D01*
X199625Y381079D01*
X199593Y381008D01*
X199556Y380939D01*
X199517Y380871D01*
X199474Y380806D01*
X199428Y380743D01*
X199378Y380683D01*
X199326Y380625D01*
X199271Y380570D01*
X199213Y380518D01*
X199153Y380468D01*
X199090Y380422D01*
X199025Y380379D01*
X198957Y380340D01*
X198888Y380303D01*
X198817Y380271D01*
X198745Y380242D01*
X198671Y380217D01*
X198596Y380195D01*
X198520Y380178D01*
X198443Y380164D01*
X198366Y380154D01*
X198288Y380148D01*
X198210Y380146D01*
X193591Y380146D01*
X193591Y383226D02*
X199750Y383226D01*
X197697Y375979D02*
X195644Y375979D01*
X197697Y375979D02*
X197787Y375977D01*
X197876Y375971D01*
X197965Y375961D01*
X198053Y375948D01*
X198141Y375930D01*
X198228Y375909D01*
X198314Y375884D01*
X198399Y375855D01*
X198483Y375823D01*
X198565Y375787D01*
X198645Y375747D01*
X198724Y375704D01*
X198800Y375657D01*
X198875Y375608D01*
X198947Y375555D01*
X199017Y375499D01*
X199084Y375440D01*
X199149Y375378D01*
X199211Y375313D01*
X199270Y375246D01*
X199326Y375176D01*
X199379Y375104D01*
X199428Y375029D01*
X199475Y374953D01*
X199518Y374874D01*
X199558Y374794D01*
X199594Y374712D01*
X199626Y374628D01*
X199655Y374543D01*
X199680Y374457D01*
X199701Y374370D01*
X199719Y374282D01*
X199732Y374194D01*
X199742Y374105D01*
X199748Y374016D01*
X199750Y373926D01*
X199748Y373836D01*
X199742Y373747D01*
X199732Y373658D01*
X199719Y373570D01*
X199701Y373482D01*
X199680Y373395D01*
X199655Y373309D01*
X199626Y373224D01*
X199594Y373140D01*
X199558Y373058D01*
X199518Y372978D01*
X199475Y372900D01*
X199428Y372823D01*
X199379Y372748D01*
X199326Y372676D01*
X199270Y372606D01*
X199211Y372539D01*
X199149Y372474D01*
X199084Y372412D01*
X199017Y372353D01*
X198947Y372297D01*
X198875Y372244D01*
X198800Y372195D01*
X198724Y372148D01*
X198645Y372105D01*
X198565Y372065D01*
X198483Y372029D01*
X198399Y371997D01*
X198314Y371968D01*
X198228Y371943D01*
X198141Y371922D01*
X198053Y371904D01*
X197965Y371891D01*
X197876Y371881D01*
X197787Y371875D01*
X197697Y371873D01*
X195644Y371873D01*
X195554Y371875D01*
X195465Y371881D01*
X195376Y371891D01*
X195288Y371904D01*
X195200Y371922D01*
X195113Y371943D01*
X195027Y371968D01*
X194942Y371997D01*
X194858Y372029D01*
X194776Y372065D01*
X194696Y372105D01*
X194618Y372148D01*
X194541Y372195D01*
X194466Y372244D01*
X194394Y372297D01*
X194324Y372353D01*
X194257Y372412D01*
X194192Y372474D01*
X194130Y372539D01*
X194071Y372606D01*
X194015Y372676D01*
X193962Y372748D01*
X193913Y372823D01*
X193866Y372900D01*
X193823Y372978D01*
X193783Y373058D01*
X193747Y373140D01*
X193715Y373224D01*
X193686Y373309D01*
X193661Y373395D01*
X193640Y373482D01*
X193622Y373570D01*
X193609Y373658D01*
X193599Y373747D01*
X193593Y373836D01*
X193591Y373926D01*
X193593Y374016D01*
X193599Y374105D01*
X193609Y374194D01*
X193622Y374282D01*
X193640Y374370D01*
X193661Y374457D01*
X193686Y374543D01*
X193715Y374628D01*
X193747Y374712D01*
X193783Y374794D01*
X193823Y374874D01*
X193866Y374953D01*
X193913Y375029D01*
X193962Y375104D01*
X194015Y375176D01*
X194071Y375246D01*
X194130Y375313D01*
X194192Y375378D01*
X194257Y375440D01*
X194324Y375499D01*
X194394Y375555D01*
X194466Y375608D01*
X194541Y375657D01*
X194618Y375704D01*
X194696Y375747D01*
X194776Y375787D01*
X194858Y375823D01*
X194942Y375855D01*
X195027Y375884D01*
X195113Y375909D01*
X195200Y375930D01*
X195288Y375948D01*
X195376Y375961D01*
X195465Y375971D01*
X195554Y375977D01*
X195644Y375979D01*
X193591Y364118D02*
X202829Y364118D01*
X193591Y364118D02*
X193591Y366684D01*
X193593Y366760D01*
X193598Y366835D01*
X193608Y366910D01*
X193621Y366984D01*
X193637Y367058D01*
X193657Y367131D01*
X193681Y367203D01*
X193708Y367273D01*
X193739Y367342D01*
X193773Y367410D01*
X193810Y367476D01*
X193851Y367540D01*
X193894Y367601D01*
X193941Y367661D01*
X193990Y367718D01*
X194042Y367773D01*
X194097Y367825D01*
X194154Y367874D01*
X194214Y367921D01*
X194275Y367964D01*
X194339Y368005D01*
X194405Y368042D01*
X194473Y368076D01*
X194542Y368107D01*
X194612Y368134D01*
X194684Y368158D01*
X194757Y368178D01*
X194831Y368194D01*
X194905Y368207D01*
X194980Y368217D01*
X195055Y368222D01*
X195131Y368224D01*
X198210Y368224D01*
X198286Y368222D01*
X198361Y368217D01*
X198436Y368207D01*
X198510Y368194D01*
X198584Y368178D01*
X198657Y368158D01*
X198729Y368134D01*
X198799Y368107D01*
X198868Y368076D01*
X198936Y368042D01*
X199002Y368005D01*
X199066Y367964D01*
X199127Y367921D01*
X199187Y367874D01*
X199244Y367825D01*
X199299Y367773D01*
X199351Y367718D01*
X199400Y367661D01*
X199447Y367601D01*
X199490Y367540D01*
X199531Y367476D01*
X199568Y367410D01*
X199602Y367342D01*
X199633Y367273D01*
X199660Y367203D01*
X199684Y367131D01*
X199704Y367058D01*
X199720Y366984D01*
X199733Y366910D01*
X199743Y366835D01*
X199748Y366760D01*
X199750Y366684D01*
X199750Y364118D01*
X201289Y354783D02*
X193591Y354783D01*
X201289Y354783D02*
X201367Y354781D01*
X201445Y354775D01*
X201522Y354765D01*
X201599Y354751D01*
X201675Y354734D01*
X201750Y354712D01*
X201824Y354687D01*
X201896Y354658D01*
X201967Y354626D01*
X202036Y354590D01*
X202104Y354550D01*
X202169Y354507D01*
X202232Y354461D01*
X202292Y354412D01*
X202350Y354359D01*
X202405Y354304D01*
X202457Y354246D01*
X202507Y354186D01*
X202553Y354123D01*
X202596Y354058D01*
X202635Y353990D01*
X202672Y353921D01*
X202704Y353850D01*
X202733Y353778D01*
X202758Y353704D01*
X202780Y353629D01*
X202797Y353553D01*
X202811Y353476D01*
X202821Y353399D01*
X202827Y353321D01*
X202829Y353243D01*
X202829Y352730D01*
X199750Y352730D02*
X199750Y355809D01*
X197697Y350179D02*
X195644Y350179D01*
X197697Y350179D02*
X197787Y350177D01*
X197876Y350171D01*
X197965Y350161D01*
X198053Y350148D01*
X198141Y350130D01*
X198228Y350109D01*
X198314Y350084D01*
X198399Y350055D01*
X198483Y350023D01*
X198565Y349987D01*
X198645Y349947D01*
X198724Y349904D01*
X198800Y349857D01*
X198875Y349808D01*
X198947Y349755D01*
X199017Y349699D01*
X199084Y349640D01*
X199149Y349578D01*
X199211Y349513D01*
X199270Y349446D01*
X199326Y349376D01*
X199379Y349304D01*
X199428Y349229D01*
X199475Y349153D01*
X199518Y349074D01*
X199558Y348994D01*
X199594Y348912D01*
X199626Y348828D01*
X199655Y348743D01*
X199680Y348657D01*
X199701Y348570D01*
X199719Y348482D01*
X199732Y348394D01*
X199742Y348305D01*
X199748Y348216D01*
X199750Y348126D01*
X199748Y348036D01*
X199742Y347947D01*
X199732Y347858D01*
X199719Y347770D01*
X199701Y347682D01*
X199680Y347595D01*
X199655Y347509D01*
X199626Y347424D01*
X199594Y347340D01*
X199558Y347258D01*
X199518Y347178D01*
X199475Y347100D01*
X199428Y347023D01*
X199379Y346948D01*
X199326Y346876D01*
X199270Y346806D01*
X199211Y346739D01*
X199149Y346674D01*
X199084Y346612D01*
X199017Y346553D01*
X198947Y346497D01*
X198875Y346444D01*
X198800Y346395D01*
X198724Y346348D01*
X198645Y346305D01*
X198565Y346265D01*
X198483Y346229D01*
X198399Y346197D01*
X198314Y346168D01*
X198228Y346143D01*
X198141Y346122D01*
X198053Y346104D01*
X197965Y346091D01*
X197876Y346081D01*
X197787Y346075D01*
X197697Y346073D01*
X195644Y346073D01*
X195554Y346075D01*
X195465Y346081D01*
X195376Y346091D01*
X195288Y346104D01*
X195200Y346122D01*
X195113Y346143D01*
X195027Y346168D01*
X194942Y346197D01*
X194858Y346229D01*
X194776Y346265D01*
X194696Y346305D01*
X194618Y346348D01*
X194541Y346395D01*
X194466Y346444D01*
X194394Y346497D01*
X194324Y346553D01*
X194257Y346612D01*
X194192Y346674D01*
X194130Y346739D01*
X194071Y346806D01*
X194015Y346876D01*
X193962Y346948D01*
X193913Y347023D01*
X193866Y347100D01*
X193823Y347178D01*
X193783Y347258D01*
X193747Y347340D01*
X193715Y347424D01*
X193686Y347509D01*
X193661Y347595D01*
X193640Y347682D01*
X193622Y347770D01*
X193609Y347858D01*
X193599Y347947D01*
X193593Y348036D01*
X193591Y348126D01*
X193593Y348216D01*
X193599Y348305D01*
X193609Y348394D01*
X193622Y348482D01*
X193640Y348570D01*
X193661Y348657D01*
X193686Y348743D01*
X193715Y348828D01*
X193747Y348912D01*
X193783Y348994D01*
X193823Y349074D01*
X193866Y349153D01*
X193913Y349229D01*
X193962Y349304D01*
X194015Y349376D01*
X194071Y349446D01*
X194130Y349513D01*
X194192Y349578D01*
X194257Y349640D01*
X194324Y349699D01*
X194394Y349755D01*
X194466Y349808D01*
X194541Y349857D01*
X194618Y349904D01*
X194696Y349947D01*
X194776Y349987D01*
X194858Y350023D01*
X194942Y350055D01*
X195027Y350084D01*
X195113Y350109D01*
X195200Y350130D01*
X195288Y350148D01*
X195376Y350161D01*
X195465Y350171D01*
X195554Y350177D01*
X195644Y350179D01*
X193591Y342028D02*
X199750Y342028D01*
X199750Y338948D01*
X198723Y338948D01*
X187829Y421914D02*
X178591Y421914D01*
X187829Y421914D02*
X187829Y419348D01*
X187827Y419249D01*
X187821Y419149D01*
X187812Y419050D01*
X187798Y418952D01*
X187781Y418854D01*
X187760Y418756D01*
X187735Y418660D01*
X187706Y418565D01*
X187674Y418470D01*
X187638Y418378D01*
X187599Y418286D01*
X187556Y418196D01*
X187510Y418108D01*
X187460Y418022D01*
X187407Y417938D01*
X187351Y417856D01*
X187291Y417776D01*
X187229Y417699D01*
X187163Y417624D01*
X187095Y417551D01*
X187024Y417482D01*
X186950Y417415D01*
X186874Y417351D01*
X186795Y417290D01*
X186714Y417232D01*
X186631Y417177D01*
X186546Y417126D01*
X186459Y417078D01*
X186370Y417033D01*
X186279Y416992D01*
X186187Y416954D01*
X186094Y416920D01*
X185999Y416890D01*
X185903Y416863D01*
X185806Y416840D01*
X185709Y416821D01*
X185610Y416806D01*
X185511Y416794D01*
X185412Y416786D01*
X185313Y416782D01*
X185213Y416782D01*
X185114Y416786D01*
X185015Y416794D01*
X184916Y416806D01*
X184817Y416821D01*
X184720Y416840D01*
X184623Y416863D01*
X184527Y416890D01*
X184432Y416920D01*
X184339Y416954D01*
X184247Y416992D01*
X184156Y417033D01*
X184067Y417078D01*
X183980Y417126D01*
X183895Y417177D01*
X183812Y417232D01*
X183731Y417290D01*
X183652Y417351D01*
X183576Y417415D01*
X183502Y417482D01*
X183431Y417551D01*
X183363Y417624D01*
X183297Y417699D01*
X183235Y417776D01*
X183175Y417856D01*
X183119Y417938D01*
X183066Y418022D01*
X183016Y418108D01*
X182970Y418196D01*
X182927Y418286D01*
X182888Y418378D01*
X182852Y418470D01*
X182820Y418565D01*
X182791Y418660D01*
X182766Y418756D01*
X182745Y418854D01*
X182728Y418952D01*
X182714Y419050D01*
X182705Y419149D01*
X182699Y419249D01*
X182697Y419348D01*
X182697Y421914D01*
X182697Y413431D02*
X180644Y413431D01*
X182697Y413431D02*
X182787Y413429D01*
X182876Y413423D01*
X182965Y413413D01*
X183053Y413400D01*
X183141Y413382D01*
X183228Y413361D01*
X183314Y413336D01*
X183399Y413307D01*
X183483Y413275D01*
X183565Y413239D01*
X183645Y413199D01*
X183724Y413156D01*
X183800Y413109D01*
X183875Y413060D01*
X183947Y413007D01*
X184017Y412951D01*
X184084Y412892D01*
X184149Y412830D01*
X184211Y412765D01*
X184270Y412698D01*
X184326Y412628D01*
X184379Y412556D01*
X184428Y412481D01*
X184475Y412405D01*
X184518Y412326D01*
X184558Y412246D01*
X184594Y412164D01*
X184626Y412080D01*
X184655Y411995D01*
X184680Y411909D01*
X184701Y411822D01*
X184719Y411734D01*
X184732Y411646D01*
X184742Y411557D01*
X184748Y411468D01*
X184750Y411378D01*
X184748Y411288D01*
X184742Y411199D01*
X184732Y411110D01*
X184719Y411022D01*
X184701Y410934D01*
X184680Y410847D01*
X184655Y410761D01*
X184626Y410676D01*
X184594Y410592D01*
X184558Y410510D01*
X184518Y410430D01*
X184475Y410352D01*
X184428Y410275D01*
X184379Y410200D01*
X184326Y410128D01*
X184270Y410058D01*
X184211Y409991D01*
X184149Y409926D01*
X184084Y409864D01*
X184017Y409805D01*
X183947Y409749D01*
X183875Y409696D01*
X183800Y409647D01*
X183724Y409600D01*
X183645Y409557D01*
X183565Y409517D01*
X183483Y409481D01*
X183399Y409449D01*
X183314Y409420D01*
X183228Y409395D01*
X183141Y409374D01*
X183053Y409356D01*
X182965Y409343D01*
X182876Y409333D01*
X182787Y409327D01*
X182697Y409325D01*
X182697Y409326D02*
X180644Y409326D01*
X180644Y409325D02*
X180554Y409327D01*
X180465Y409333D01*
X180376Y409343D01*
X180288Y409356D01*
X180200Y409374D01*
X180113Y409395D01*
X180027Y409420D01*
X179942Y409449D01*
X179858Y409481D01*
X179776Y409517D01*
X179696Y409557D01*
X179618Y409600D01*
X179541Y409647D01*
X179466Y409696D01*
X179394Y409749D01*
X179324Y409805D01*
X179257Y409864D01*
X179192Y409926D01*
X179130Y409991D01*
X179071Y410058D01*
X179015Y410128D01*
X178962Y410200D01*
X178913Y410275D01*
X178866Y410352D01*
X178823Y410430D01*
X178783Y410510D01*
X178747Y410592D01*
X178715Y410676D01*
X178686Y410761D01*
X178661Y410847D01*
X178640Y410934D01*
X178622Y411022D01*
X178609Y411110D01*
X178599Y411199D01*
X178593Y411288D01*
X178591Y411378D01*
X178593Y411468D01*
X178599Y411557D01*
X178609Y411646D01*
X178622Y411734D01*
X178640Y411822D01*
X178661Y411909D01*
X178686Y411995D01*
X178715Y412080D01*
X178747Y412164D01*
X178783Y412246D01*
X178823Y412326D01*
X178866Y412405D01*
X178913Y412481D01*
X178962Y412556D01*
X179015Y412628D01*
X179071Y412698D01*
X179130Y412765D01*
X179192Y412830D01*
X179257Y412892D01*
X179324Y412951D01*
X179394Y413007D01*
X179466Y413060D01*
X179541Y413109D01*
X179618Y413156D01*
X179696Y413199D01*
X179776Y413239D01*
X179858Y413275D01*
X179942Y413307D01*
X180027Y413336D01*
X180113Y413361D01*
X180200Y413382D01*
X180288Y413400D01*
X180376Y413413D01*
X180465Y413423D01*
X180554Y413429D01*
X180644Y413431D01*
X184750Y405758D02*
X178591Y404218D01*
X182697Y402678D01*
X178591Y401139D01*
X184750Y399599D01*
X178591Y394492D02*
X178591Y391926D01*
X178591Y394492D02*
X178593Y394568D01*
X178598Y394643D01*
X178608Y394718D01*
X178621Y394792D01*
X178637Y394866D01*
X178657Y394939D01*
X178681Y395011D01*
X178708Y395081D01*
X178739Y395150D01*
X178773Y395218D01*
X178810Y395284D01*
X178851Y395348D01*
X178894Y395409D01*
X178941Y395469D01*
X178990Y395526D01*
X179042Y395581D01*
X179097Y395633D01*
X179154Y395682D01*
X179214Y395729D01*
X179275Y395772D01*
X179339Y395813D01*
X179405Y395850D01*
X179473Y395884D01*
X179542Y395915D01*
X179612Y395942D01*
X179684Y395966D01*
X179757Y395986D01*
X179831Y396002D01*
X179905Y396015D01*
X179980Y396025D01*
X180055Y396030D01*
X180131Y396032D01*
X180131Y396031D02*
X182697Y396031D01*
X182787Y396029D01*
X182876Y396023D01*
X182965Y396013D01*
X183053Y396000D01*
X183141Y395982D01*
X183228Y395961D01*
X183314Y395936D01*
X183399Y395907D01*
X183483Y395875D01*
X183565Y395839D01*
X183645Y395799D01*
X183724Y395756D01*
X183800Y395709D01*
X183875Y395660D01*
X183947Y395607D01*
X184017Y395551D01*
X184084Y395492D01*
X184149Y395430D01*
X184211Y395365D01*
X184270Y395298D01*
X184326Y395228D01*
X184379Y395156D01*
X184428Y395081D01*
X184475Y395005D01*
X184518Y394926D01*
X184558Y394846D01*
X184594Y394764D01*
X184626Y394680D01*
X184655Y394595D01*
X184680Y394509D01*
X184701Y394422D01*
X184719Y394334D01*
X184732Y394246D01*
X184742Y394157D01*
X184748Y394068D01*
X184750Y393978D01*
X184748Y393888D01*
X184742Y393799D01*
X184732Y393710D01*
X184719Y393622D01*
X184701Y393534D01*
X184680Y393447D01*
X184655Y393361D01*
X184626Y393276D01*
X184594Y393192D01*
X184558Y393110D01*
X184518Y393030D01*
X184475Y392952D01*
X184428Y392875D01*
X184379Y392800D01*
X184326Y392728D01*
X184270Y392658D01*
X184211Y392591D01*
X184149Y392526D01*
X184084Y392464D01*
X184017Y392405D01*
X183947Y392349D01*
X183875Y392296D01*
X183800Y392247D01*
X183724Y392200D01*
X183645Y392157D01*
X183565Y392117D01*
X183483Y392081D01*
X183399Y392049D01*
X183314Y392020D01*
X183228Y391995D01*
X183141Y391974D01*
X183053Y391956D01*
X182965Y391943D01*
X182876Y391933D01*
X182787Y391927D01*
X182697Y391925D01*
X182697Y391926D02*
X181670Y391926D01*
X181670Y396031D01*
X178591Y387880D02*
X184750Y387880D01*
X184750Y384801D01*
X183723Y384801D01*
X187829Y376688D02*
X178591Y376688D01*
X187829Y376688D02*
X187829Y374122D01*
X187827Y374023D01*
X187821Y373923D01*
X187812Y373824D01*
X187798Y373726D01*
X187781Y373628D01*
X187760Y373530D01*
X187735Y373434D01*
X187706Y373339D01*
X187674Y373244D01*
X187638Y373152D01*
X187599Y373060D01*
X187556Y372970D01*
X187510Y372882D01*
X187460Y372796D01*
X187407Y372712D01*
X187351Y372630D01*
X187291Y372550D01*
X187229Y372473D01*
X187163Y372398D01*
X187095Y372325D01*
X187024Y372256D01*
X186950Y372189D01*
X186874Y372125D01*
X186795Y372064D01*
X186714Y372006D01*
X186631Y371951D01*
X186546Y371900D01*
X186459Y371852D01*
X186370Y371807D01*
X186279Y371766D01*
X186187Y371728D01*
X186094Y371694D01*
X185999Y371664D01*
X185903Y371637D01*
X185806Y371614D01*
X185709Y371595D01*
X185610Y371580D01*
X185511Y371568D01*
X185412Y371560D01*
X185313Y371556D01*
X185213Y371556D01*
X185114Y371560D01*
X185015Y371568D01*
X184916Y371580D01*
X184817Y371595D01*
X184720Y371614D01*
X184623Y371637D01*
X184527Y371664D01*
X184432Y371694D01*
X184339Y371728D01*
X184247Y371766D01*
X184156Y371807D01*
X184067Y371852D01*
X183980Y371900D01*
X183895Y371951D01*
X183812Y372006D01*
X183731Y372064D01*
X183652Y372125D01*
X183576Y372189D01*
X183502Y372256D01*
X183431Y372325D01*
X183363Y372398D01*
X183297Y372473D01*
X183235Y372550D01*
X183175Y372630D01*
X183119Y372712D01*
X183066Y372796D01*
X183016Y372882D01*
X182970Y372970D01*
X182927Y373060D01*
X182888Y373152D01*
X182852Y373244D01*
X182820Y373339D01*
X182791Y373434D01*
X182766Y373530D01*
X182745Y373628D01*
X182728Y373726D01*
X182714Y373824D01*
X182705Y373923D01*
X182699Y374023D01*
X182697Y374122D01*
X182697Y376688D01*
X182697Y373609D02*
X178591Y371556D01*
X178591Y366292D02*
X178591Y363726D01*
X178591Y366292D02*
X178593Y366368D01*
X178598Y366443D01*
X178608Y366518D01*
X178621Y366592D01*
X178637Y366666D01*
X178657Y366739D01*
X178681Y366811D01*
X178708Y366881D01*
X178739Y366950D01*
X178773Y367018D01*
X178810Y367084D01*
X178851Y367148D01*
X178894Y367209D01*
X178941Y367269D01*
X178990Y367326D01*
X179042Y367381D01*
X179097Y367433D01*
X179154Y367482D01*
X179214Y367529D01*
X179275Y367572D01*
X179339Y367613D01*
X179405Y367650D01*
X179473Y367684D01*
X179542Y367715D01*
X179612Y367742D01*
X179684Y367766D01*
X179757Y367786D01*
X179831Y367802D01*
X179905Y367815D01*
X179980Y367825D01*
X180055Y367830D01*
X180131Y367832D01*
X180131Y367831D02*
X182697Y367831D01*
X182787Y367829D01*
X182876Y367823D01*
X182965Y367813D01*
X183053Y367800D01*
X183141Y367782D01*
X183228Y367761D01*
X183314Y367736D01*
X183399Y367707D01*
X183483Y367675D01*
X183565Y367639D01*
X183645Y367599D01*
X183724Y367556D01*
X183800Y367509D01*
X183875Y367460D01*
X183947Y367407D01*
X184017Y367351D01*
X184084Y367292D01*
X184149Y367230D01*
X184211Y367165D01*
X184270Y367098D01*
X184326Y367028D01*
X184379Y366956D01*
X184428Y366881D01*
X184475Y366805D01*
X184518Y366726D01*
X184558Y366646D01*
X184594Y366564D01*
X184626Y366480D01*
X184655Y366395D01*
X184680Y366309D01*
X184701Y366222D01*
X184719Y366134D01*
X184732Y366046D01*
X184742Y365957D01*
X184748Y365868D01*
X184750Y365778D01*
X184748Y365688D01*
X184742Y365599D01*
X184732Y365510D01*
X184719Y365422D01*
X184701Y365334D01*
X184680Y365247D01*
X184655Y365161D01*
X184626Y365076D01*
X184594Y364992D01*
X184558Y364910D01*
X184518Y364830D01*
X184475Y364752D01*
X184428Y364675D01*
X184379Y364600D01*
X184326Y364528D01*
X184270Y364458D01*
X184211Y364391D01*
X184149Y364326D01*
X184084Y364264D01*
X184017Y364205D01*
X183947Y364149D01*
X183875Y364096D01*
X183800Y364047D01*
X183724Y364000D01*
X183645Y363957D01*
X183565Y363917D01*
X183483Y363881D01*
X183399Y363849D01*
X183314Y363820D01*
X183228Y363795D01*
X183141Y363774D01*
X183053Y363756D01*
X182965Y363743D01*
X182876Y363733D01*
X182787Y363727D01*
X182697Y363725D01*
X182697Y363726D02*
X181670Y363726D01*
X181670Y367831D01*
X184750Y359686D02*
X175512Y359686D01*
X184750Y359686D02*
X184750Y357120D01*
X184748Y357042D01*
X184742Y356964D01*
X184732Y356887D01*
X184718Y356810D01*
X184701Y356734D01*
X184679Y356659D01*
X184654Y356585D01*
X184625Y356513D01*
X184593Y356442D01*
X184556Y356373D01*
X184517Y356305D01*
X184474Y356240D01*
X184428Y356177D01*
X184378Y356117D01*
X184326Y356059D01*
X184271Y356004D01*
X184213Y355952D01*
X184153Y355902D01*
X184090Y355856D01*
X184025Y355813D01*
X183957Y355774D01*
X183888Y355737D01*
X183817Y355705D01*
X183745Y355676D01*
X183671Y355651D01*
X183596Y355629D01*
X183520Y355612D01*
X183443Y355598D01*
X183366Y355588D01*
X183288Y355582D01*
X183210Y355580D01*
X180131Y355580D01*
X180055Y355582D01*
X179980Y355587D01*
X179905Y355597D01*
X179831Y355610D01*
X179757Y355626D01*
X179684Y355646D01*
X179612Y355670D01*
X179542Y355697D01*
X179473Y355728D01*
X179405Y355762D01*
X179339Y355799D01*
X179275Y355840D01*
X179214Y355883D01*
X179154Y355930D01*
X179097Y355979D01*
X179042Y356031D01*
X178990Y356086D01*
X178941Y356143D01*
X178894Y356203D01*
X178851Y356264D01*
X178810Y356328D01*
X178773Y356394D01*
X178739Y356462D01*
X178708Y356531D01*
X178681Y356601D01*
X178657Y356673D01*
X178637Y356746D01*
X178621Y356820D01*
X178608Y356894D01*
X178598Y356969D01*
X178593Y357044D01*
X178591Y357120D01*
X178591Y359686D01*
X180131Y351809D02*
X187829Y351809D01*
X180131Y351810D02*
X180053Y351808D01*
X179975Y351802D01*
X179898Y351792D01*
X179821Y351778D01*
X179745Y351761D01*
X179670Y351739D01*
X179596Y351714D01*
X179524Y351685D01*
X179453Y351653D01*
X179384Y351616D01*
X179316Y351577D01*
X179251Y351534D01*
X179188Y351488D01*
X179128Y351438D01*
X179070Y351386D01*
X179015Y351331D01*
X178963Y351273D01*
X178913Y351213D01*
X178867Y351150D01*
X178824Y351085D01*
X178785Y351017D01*
X178748Y350948D01*
X178716Y350877D01*
X178687Y350805D01*
X178662Y350731D01*
X178640Y350656D01*
X178623Y350580D01*
X178609Y350503D01*
X178599Y350426D01*
X178593Y350348D01*
X178591Y350270D01*
X182184Y345380D02*
X182184Y343071D01*
X182183Y345380D02*
X182181Y345463D01*
X182175Y345546D01*
X182166Y345628D01*
X182152Y345710D01*
X182135Y345791D01*
X182114Y345871D01*
X182090Y345951D01*
X182062Y346029D01*
X182030Y346105D01*
X181995Y346181D01*
X181956Y346254D01*
X181914Y346325D01*
X181869Y346395D01*
X181820Y346462D01*
X181769Y346527D01*
X181714Y346590D01*
X181657Y346650D01*
X181597Y346707D01*
X181534Y346762D01*
X181469Y346813D01*
X181402Y346862D01*
X181332Y346907D01*
X181261Y346949D01*
X181188Y346988D01*
X181112Y347023D01*
X181036Y347055D01*
X180958Y347083D01*
X180878Y347107D01*
X180798Y347128D01*
X180717Y347145D01*
X180635Y347159D01*
X180553Y347168D01*
X180470Y347174D01*
X180387Y347176D01*
X180304Y347174D01*
X180221Y347168D01*
X180139Y347159D01*
X180057Y347145D01*
X179976Y347128D01*
X179896Y347107D01*
X179816Y347083D01*
X179738Y347055D01*
X179662Y347023D01*
X179586Y346988D01*
X179513Y346949D01*
X179442Y346907D01*
X179372Y346862D01*
X179305Y346813D01*
X179240Y346762D01*
X179177Y346707D01*
X179117Y346650D01*
X179060Y346590D01*
X179005Y346527D01*
X178954Y346462D01*
X178905Y346395D01*
X178860Y346325D01*
X178818Y346254D01*
X178779Y346181D01*
X178744Y346105D01*
X178712Y346029D01*
X178684Y345951D01*
X178660Y345871D01*
X178639Y345791D01*
X178622Y345710D01*
X178608Y345628D01*
X178599Y345546D01*
X178593Y345463D01*
X178591Y345380D01*
X178591Y343071D01*
X183210Y343071D01*
X183286Y343073D01*
X183361Y343078D01*
X183436Y343088D01*
X183510Y343101D01*
X183584Y343117D01*
X183657Y343137D01*
X183729Y343161D01*
X183799Y343188D01*
X183868Y343219D01*
X183936Y343253D01*
X184002Y343290D01*
X184066Y343331D01*
X184127Y343374D01*
X184187Y343421D01*
X184244Y343470D01*
X184299Y343522D01*
X184351Y343577D01*
X184400Y343634D01*
X184447Y343694D01*
X184490Y343755D01*
X184531Y343819D01*
X184568Y343885D01*
X184602Y343953D01*
X184633Y344022D01*
X184660Y344092D01*
X184684Y344164D01*
X184704Y344237D01*
X184720Y344311D01*
X184733Y344385D01*
X184743Y344460D01*
X184748Y344535D01*
X184750Y344611D01*
X184750Y346663D01*
X175512Y339331D02*
X175512Y338305D01*
X184750Y335226D01*
X184750Y339331D02*
X178591Y337279D01*
X157829Y435800D02*
X148591Y435800D01*
X148591Y433234D01*
X148593Y433158D01*
X148598Y433083D01*
X148608Y433008D01*
X148621Y432934D01*
X148637Y432860D01*
X148657Y432787D01*
X148681Y432715D01*
X148708Y432645D01*
X148739Y432576D01*
X148773Y432508D01*
X148810Y432442D01*
X148851Y432378D01*
X148894Y432317D01*
X148941Y432257D01*
X148990Y432200D01*
X149042Y432145D01*
X149097Y432093D01*
X149154Y432044D01*
X149214Y431997D01*
X149275Y431954D01*
X149339Y431913D01*
X149405Y431876D01*
X149473Y431842D01*
X149542Y431811D01*
X149612Y431784D01*
X149684Y431760D01*
X149757Y431740D01*
X149831Y431724D01*
X149905Y431711D01*
X149980Y431701D01*
X150055Y431696D01*
X150131Y431694D01*
X153210Y431694D01*
X153286Y431696D01*
X153361Y431701D01*
X153436Y431711D01*
X153510Y431724D01*
X153584Y431740D01*
X153657Y431760D01*
X153729Y431784D01*
X153799Y431811D01*
X153868Y431842D01*
X153936Y431876D01*
X154002Y431913D01*
X154066Y431954D01*
X154127Y431997D01*
X154187Y432044D01*
X154244Y432093D01*
X154299Y432145D01*
X154351Y432200D01*
X154400Y432257D01*
X154447Y432317D01*
X154490Y432378D01*
X154531Y432442D01*
X154568Y432508D01*
X154602Y432576D01*
X154633Y432645D01*
X154660Y432715D01*
X154684Y432787D01*
X154704Y432860D01*
X154720Y432934D01*
X154733Y433008D01*
X154743Y433083D01*
X154748Y433158D01*
X154750Y433234D01*
X154750Y435800D01*
X154750Y428093D02*
X148591Y428093D01*
X157316Y428349D02*
X157829Y428349D01*
X157829Y427836D01*
X157316Y427836D01*
X157316Y428349D01*
X154750Y425203D02*
X154750Y422124D01*
X157829Y424177D02*
X150131Y424177D01*
X150053Y424175D01*
X149975Y424169D01*
X149898Y424159D01*
X149821Y424145D01*
X149745Y424128D01*
X149670Y424106D01*
X149596Y424081D01*
X149524Y424052D01*
X149453Y424020D01*
X149384Y423983D01*
X149316Y423944D01*
X149251Y423901D01*
X149188Y423855D01*
X149128Y423805D01*
X149070Y423753D01*
X149015Y423698D01*
X148963Y423640D01*
X148913Y423580D01*
X148867Y423517D01*
X148824Y423452D01*
X148785Y423384D01*
X148748Y423315D01*
X148716Y423244D01*
X148687Y423172D01*
X148662Y423098D01*
X148640Y423023D01*
X148623Y422947D01*
X148609Y422870D01*
X148599Y422793D01*
X148593Y422715D01*
X148591Y422637D01*
X148591Y422124D01*
X148591Y419049D02*
X149104Y419049D01*
X149104Y418536D01*
X148591Y418536D01*
X148591Y419049D01*
X150131Y415023D02*
X157829Y415023D01*
X150131Y415024D02*
X150053Y415022D01*
X149975Y415016D01*
X149898Y415006D01*
X149821Y414992D01*
X149745Y414975D01*
X149670Y414953D01*
X149596Y414928D01*
X149524Y414899D01*
X149453Y414867D01*
X149384Y414830D01*
X149316Y414791D01*
X149251Y414748D01*
X149188Y414702D01*
X149128Y414652D01*
X149070Y414600D01*
X149015Y414545D01*
X148963Y414487D01*
X148913Y414427D01*
X148867Y414364D01*
X148824Y414299D01*
X148785Y414231D01*
X148748Y414162D01*
X148716Y414091D01*
X148687Y414019D01*
X148662Y413945D01*
X148640Y413870D01*
X148623Y413794D01*
X148609Y413717D01*
X148599Y413640D01*
X148593Y413562D01*
X148591Y413484D01*
X145512Y410646D02*
X145512Y409619D01*
X154750Y406540D01*
X154750Y410646D02*
X148591Y408593D01*
X147565Y403446D02*
X158855Y399340D01*
X154750Y395600D02*
X145512Y395600D01*
X154750Y395600D02*
X154750Y393034D01*
X154748Y392956D01*
X154742Y392878D01*
X154732Y392801D01*
X154718Y392724D01*
X154701Y392648D01*
X154679Y392573D01*
X154654Y392499D01*
X154625Y392427D01*
X154593Y392356D01*
X154556Y392287D01*
X154517Y392219D01*
X154474Y392154D01*
X154428Y392091D01*
X154378Y392031D01*
X154326Y391973D01*
X154271Y391918D01*
X154213Y391866D01*
X154153Y391816D01*
X154090Y391770D01*
X154025Y391727D01*
X153957Y391688D01*
X153888Y391651D01*
X153817Y391619D01*
X153745Y391590D01*
X153671Y391565D01*
X153596Y391543D01*
X153520Y391526D01*
X153443Y391512D01*
X153366Y391502D01*
X153288Y391496D01*
X153210Y391494D01*
X153210Y391495D02*
X150131Y391495D01*
X150131Y391494D02*
X150055Y391496D01*
X149980Y391501D01*
X149905Y391511D01*
X149831Y391524D01*
X149757Y391540D01*
X149684Y391560D01*
X149612Y391584D01*
X149542Y391611D01*
X149473Y391642D01*
X149405Y391676D01*
X149339Y391713D01*
X149275Y391754D01*
X149214Y391797D01*
X149154Y391844D01*
X149097Y391893D01*
X149042Y391945D01*
X148990Y392000D01*
X148941Y392057D01*
X148894Y392117D01*
X148851Y392178D01*
X148810Y392242D01*
X148773Y392308D01*
X148739Y392376D01*
X148708Y392445D01*
X148681Y392515D01*
X148657Y392587D01*
X148637Y392660D01*
X148621Y392734D01*
X148608Y392808D01*
X148598Y392883D01*
X148593Y392958D01*
X148591Y393034D01*
X148591Y395600D01*
X148591Y386296D02*
X148591Y384243D01*
X148591Y386296D02*
X148593Y386372D01*
X148598Y386447D01*
X148608Y386522D01*
X148621Y386596D01*
X148637Y386670D01*
X148657Y386743D01*
X148681Y386815D01*
X148708Y386885D01*
X148739Y386954D01*
X148773Y387022D01*
X148810Y387088D01*
X148851Y387152D01*
X148894Y387213D01*
X148941Y387273D01*
X148990Y387330D01*
X149042Y387385D01*
X149097Y387437D01*
X149154Y387486D01*
X149214Y387533D01*
X149275Y387576D01*
X149339Y387617D01*
X149405Y387654D01*
X149473Y387688D01*
X149542Y387719D01*
X149612Y387746D01*
X149684Y387770D01*
X149757Y387790D01*
X149831Y387806D01*
X149905Y387819D01*
X149980Y387829D01*
X150055Y387834D01*
X150131Y387836D01*
X150131Y387835D02*
X153210Y387835D01*
X153210Y387836D02*
X153286Y387834D01*
X153361Y387829D01*
X153436Y387819D01*
X153510Y387806D01*
X153584Y387790D01*
X153657Y387770D01*
X153729Y387746D01*
X153799Y387719D01*
X153868Y387688D01*
X153936Y387654D01*
X154002Y387617D01*
X154066Y387576D01*
X154127Y387533D01*
X154187Y387486D01*
X154244Y387437D01*
X154299Y387385D01*
X154351Y387330D01*
X154400Y387273D01*
X154447Y387213D01*
X154490Y387152D01*
X154531Y387088D01*
X154568Y387022D01*
X154602Y386954D01*
X154633Y386885D01*
X154660Y386815D01*
X154684Y386743D01*
X154704Y386670D01*
X154720Y386596D01*
X154733Y386522D01*
X154743Y386447D01*
X154748Y386372D01*
X154750Y386296D01*
X154750Y384243D01*
X152184Y380176D02*
X151157Y377610D01*
X152183Y380176D02*
X152212Y380243D01*
X152244Y380308D01*
X152280Y380371D01*
X152319Y380432D01*
X152362Y380490D01*
X152407Y380547D01*
X152456Y380600D01*
X152507Y380651D01*
X152561Y380700D01*
X152618Y380745D01*
X152677Y380787D01*
X152738Y380825D01*
X152801Y380861D01*
X152866Y380893D01*
X152933Y380921D01*
X153001Y380946D01*
X153070Y380966D01*
X153141Y380984D01*
X153212Y380997D01*
X153284Y381006D01*
X153356Y381011D01*
X153428Y381013D01*
X153501Y381010D01*
X153573Y381004D01*
X153644Y380994D01*
X153715Y380980D01*
X153786Y380962D01*
X153855Y380940D01*
X153922Y380914D01*
X153989Y380885D01*
X154053Y380852D01*
X154116Y380816D01*
X154177Y380776D01*
X154235Y380734D01*
X154291Y380688D01*
X154344Y380639D01*
X154395Y380587D01*
X154443Y380532D01*
X154488Y380476D01*
X154529Y380416D01*
X154567Y380355D01*
X154602Y380291D01*
X154634Y380226D01*
X154662Y380159D01*
X154686Y380091D01*
X154706Y380021D01*
X154723Y379951D01*
X154735Y379880D01*
X154744Y379808D01*
X154749Y379735D01*
X154750Y379663D01*
X154749Y379663D02*
X154745Y379514D01*
X154738Y379365D01*
X154726Y379217D01*
X154711Y379069D01*
X154691Y378921D01*
X154668Y378774D01*
X154642Y378627D01*
X154611Y378482D01*
X154577Y378337D01*
X154539Y378193D01*
X154498Y378050D01*
X154453Y377908D01*
X154404Y377767D01*
X154351Y377628D01*
X154296Y377490D01*
X154236Y377353D01*
X151158Y377610D02*
X151129Y377543D01*
X151097Y377478D01*
X151061Y377415D01*
X151022Y377354D01*
X150979Y377296D01*
X150934Y377239D01*
X150885Y377186D01*
X150834Y377135D01*
X150780Y377086D01*
X150723Y377041D01*
X150664Y376999D01*
X150603Y376961D01*
X150540Y376925D01*
X150475Y376893D01*
X150408Y376865D01*
X150340Y376840D01*
X150271Y376820D01*
X150200Y376802D01*
X150129Y376789D01*
X150057Y376780D01*
X149985Y376775D01*
X149913Y376773D01*
X149840Y376776D01*
X149768Y376782D01*
X149697Y376792D01*
X149626Y376806D01*
X149555Y376824D01*
X149486Y376846D01*
X149419Y376872D01*
X149352Y376901D01*
X149288Y376934D01*
X149225Y376970D01*
X149164Y377010D01*
X149106Y377052D01*
X149050Y377098D01*
X148997Y377147D01*
X148946Y377199D01*
X148898Y377254D01*
X148853Y377310D01*
X148812Y377370D01*
X148774Y377431D01*
X148739Y377495D01*
X148707Y377560D01*
X148679Y377627D01*
X148655Y377695D01*
X148635Y377765D01*
X148618Y377835D01*
X148606Y377906D01*
X148597Y377978D01*
X148592Y378051D01*
X148591Y378123D01*
X148592Y378123D02*
X148597Y378329D01*
X148608Y378535D01*
X148623Y378740D01*
X148643Y378945D01*
X148667Y379149D01*
X148697Y379353D01*
X148731Y379556D01*
X148771Y379758D01*
X148815Y379959D01*
X148863Y380159D01*
X148917Y380358D01*
X148975Y380555D01*
X149038Y380751D01*
X149105Y380946D01*
X148591Y373446D02*
X154750Y369340D01*
X154750Y373446D02*
X148591Y369340D01*
X152184Y365772D02*
X152184Y359613D01*
X154750Y355395D02*
X148591Y355395D01*
X154750Y355395D02*
X154750Y352315D01*
X153723Y352315D01*
X148591Y347906D02*
X148591Y345340D01*
X148591Y347906D02*
X148593Y347982D01*
X148598Y348057D01*
X148608Y348132D01*
X148621Y348206D01*
X148637Y348280D01*
X148657Y348353D01*
X148681Y348425D01*
X148708Y348495D01*
X148739Y348564D01*
X148773Y348632D01*
X148810Y348698D01*
X148851Y348762D01*
X148894Y348823D01*
X148941Y348883D01*
X148990Y348940D01*
X149042Y348995D01*
X149097Y349047D01*
X149154Y349096D01*
X149214Y349143D01*
X149275Y349186D01*
X149339Y349227D01*
X149405Y349264D01*
X149473Y349298D01*
X149542Y349329D01*
X149612Y349356D01*
X149684Y349380D01*
X149757Y349400D01*
X149831Y349416D01*
X149905Y349429D01*
X149980Y349439D01*
X150055Y349444D01*
X150131Y349446D01*
X152697Y349446D01*
X152787Y349444D01*
X152876Y349438D01*
X152965Y349428D01*
X153053Y349415D01*
X153141Y349397D01*
X153228Y349376D01*
X153314Y349351D01*
X153399Y349322D01*
X153483Y349290D01*
X153565Y349254D01*
X153645Y349214D01*
X153724Y349171D01*
X153800Y349124D01*
X153875Y349075D01*
X153947Y349022D01*
X154017Y348966D01*
X154084Y348907D01*
X154149Y348845D01*
X154211Y348780D01*
X154270Y348713D01*
X154326Y348643D01*
X154379Y348571D01*
X154428Y348496D01*
X154475Y348420D01*
X154518Y348341D01*
X154558Y348261D01*
X154594Y348179D01*
X154626Y348095D01*
X154655Y348010D01*
X154680Y347924D01*
X154701Y347837D01*
X154719Y347749D01*
X154732Y347661D01*
X154742Y347572D01*
X154748Y347483D01*
X154750Y347393D01*
X154748Y347303D01*
X154742Y347214D01*
X154732Y347125D01*
X154719Y347037D01*
X154701Y346949D01*
X154680Y346862D01*
X154655Y346776D01*
X154626Y346691D01*
X154594Y346607D01*
X154558Y346525D01*
X154518Y346445D01*
X154475Y346367D01*
X154428Y346290D01*
X154379Y346215D01*
X154326Y346143D01*
X154270Y346073D01*
X154211Y346006D01*
X154149Y345941D01*
X154084Y345879D01*
X154017Y345820D01*
X153947Y345764D01*
X153875Y345711D01*
X153800Y345662D01*
X153724Y345615D01*
X153645Y345572D01*
X153565Y345532D01*
X153483Y345496D01*
X153399Y345464D01*
X153314Y345435D01*
X153228Y345410D01*
X153141Y345389D01*
X153053Y345371D01*
X152965Y345358D01*
X152876Y345348D01*
X152787Y345342D01*
X152697Y345340D01*
X151670Y345340D01*
X151670Y349446D01*
X148591Y337585D02*
X157829Y337585D01*
X148591Y337585D02*
X148591Y340151D01*
X148593Y340227D01*
X148598Y340302D01*
X148608Y340377D01*
X148621Y340451D01*
X148637Y340525D01*
X148657Y340598D01*
X148681Y340670D01*
X148708Y340740D01*
X148739Y340809D01*
X148773Y340877D01*
X148810Y340943D01*
X148851Y341007D01*
X148894Y341068D01*
X148941Y341128D01*
X148990Y341185D01*
X149042Y341240D01*
X149097Y341292D01*
X149154Y341341D01*
X149214Y341388D01*
X149275Y341431D01*
X149339Y341472D01*
X149405Y341509D01*
X149473Y341543D01*
X149542Y341574D01*
X149612Y341601D01*
X149684Y341625D01*
X149757Y341645D01*
X149831Y341661D01*
X149905Y341674D01*
X149980Y341684D01*
X150055Y341689D01*
X150131Y341691D01*
X153210Y341691D01*
X153286Y341689D01*
X153361Y341684D01*
X153436Y341674D01*
X153510Y341661D01*
X153584Y341645D01*
X153657Y341625D01*
X153729Y341601D01*
X153799Y341574D01*
X153868Y341543D01*
X153936Y341509D01*
X154002Y341472D01*
X154066Y341431D01*
X154127Y341388D01*
X154187Y341341D01*
X154244Y341292D01*
X154299Y341240D01*
X154351Y341185D01*
X154400Y341128D01*
X154447Y341068D01*
X154490Y341007D01*
X154531Y340943D01*
X154568Y340877D01*
X154602Y340809D01*
X154633Y340740D01*
X154660Y340670D01*
X154684Y340598D01*
X154704Y340525D01*
X154720Y340451D01*
X154733Y340377D01*
X154743Y340302D01*
X154748Y340227D01*
X154750Y340151D01*
X154750Y337585D01*
X154750Y333246D02*
X150131Y333246D01*
X150053Y333244D01*
X149975Y333238D01*
X149898Y333228D01*
X149821Y333214D01*
X149745Y333197D01*
X149670Y333175D01*
X149596Y333150D01*
X149524Y333121D01*
X149453Y333089D01*
X149384Y333052D01*
X149316Y333013D01*
X149251Y332970D01*
X149188Y332924D01*
X149128Y332874D01*
X149070Y332822D01*
X149015Y332767D01*
X148963Y332709D01*
X148913Y332649D01*
X148867Y332586D01*
X148824Y332521D01*
X148785Y332453D01*
X148748Y332384D01*
X148716Y332313D01*
X148687Y332241D01*
X148662Y332167D01*
X148640Y332092D01*
X148623Y332016D01*
X148609Y331939D01*
X148599Y331862D01*
X148593Y331784D01*
X148591Y331706D01*
X148591Y329140D01*
X154750Y329140D01*
X148591Y325446D02*
X154750Y321340D01*
X154750Y325446D02*
X148591Y321340D01*
D11*
X327160Y133270D02*
X328160Y133270D01*
X328160Y123270D02*
X327160Y123270D01*
X297680Y123270D02*
X296680Y123270D01*
X296680Y133270D02*
X297680Y133270D01*
D12*
X402470Y157480D02*
X402470Y173100D01*
X374020Y173100D02*
X374020Y157480D01*
D13*
X399740Y170290D03*
D14*
X363566Y339800D02*
X363568Y339863D01*
X363574Y339925D01*
X363584Y339987D01*
X363597Y340049D01*
X363615Y340109D01*
X363636Y340168D01*
X363661Y340226D01*
X363690Y340282D01*
X363722Y340336D01*
X363757Y340388D01*
X363795Y340437D01*
X363837Y340485D01*
X363881Y340529D01*
X363929Y340571D01*
X363978Y340609D01*
X364030Y340644D01*
X364084Y340676D01*
X364140Y340705D01*
X364198Y340730D01*
X364257Y340751D01*
X364317Y340769D01*
X364379Y340782D01*
X364441Y340792D01*
X364503Y340798D01*
X364566Y340800D01*
X364629Y340798D01*
X364691Y340792D01*
X364753Y340782D01*
X364815Y340769D01*
X364875Y340751D01*
X364934Y340730D01*
X364992Y340705D01*
X365048Y340676D01*
X365102Y340644D01*
X365154Y340609D01*
X365203Y340571D01*
X365251Y340529D01*
X365295Y340485D01*
X365337Y340437D01*
X365375Y340388D01*
X365410Y340336D01*
X365442Y340282D01*
X365471Y340226D01*
X365496Y340168D01*
X365517Y340109D01*
X365535Y340049D01*
X365548Y339987D01*
X365558Y339925D01*
X365564Y339863D01*
X365566Y339800D01*
X365564Y339737D01*
X365558Y339675D01*
X365548Y339613D01*
X365535Y339551D01*
X365517Y339491D01*
X365496Y339432D01*
X365471Y339374D01*
X365442Y339318D01*
X365410Y339264D01*
X365375Y339212D01*
X365337Y339163D01*
X365295Y339115D01*
X365251Y339071D01*
X365203Y339029D01*
X365154Y338991D01*
X365102Y338956D01*
X365048Y338924D01*
X364992Y338895D01*
X364934Y338870D01*
X364875Y338849D01*
X364815Y338831D01*
X364753Y338818D01*
X364691Y338808D01*
X364629Y338802D01*
X364566Y338800D01*
X364503Y338802D01*
X364441Y338808D01*
X364379Y338818D01*
X364317Y338831D01*
X364257Y338849D01*
X364198Y338870D01*
X364140Y338895D01*
X364084Y338924D01*
X364030Y338956D01*
X363978Y338991D01*
X363929Y339029D01*
X363881Y339071D01*
X363837Y339115D01*
X363795Y339163D01*
X363757Y339212D01*
X363722Y339264D01*
X363690Y339318D01*
X363661Y339374D01*
X363636Y339432D01*
X363615Y339491D01*
X363597Y339551D01*
X363584Y339613D01*
X363574Y339675D01*
X363568Y339737D01*
X363566Y339800D01*
D15*
X367566Y334800D02*
X367566Y328800D01*
X367566Y334800D02*
X361566Y334800D01*
X367566Y258800D02*
X367566Y252800D01*
X361566Y252800D01*
X291566Y334800D02*
X285566Y334800D01*
X285566Y328800D01*
X285566Y252800D02*
X291566Y252800D01*
X285566Y252800D02*
X285566Y258800D01*
X214666Y417250D02*
X214666Y442650D01*
X132116Y442650D01*
X132116Y315650D01*
D12*
X303378Y185394D02*
X303380Y185294D01*
X303386Y185195D01*
X303396Y185095D01*
X303409Y184997D01*
X303427Y184898D01*
X303448Y184801D01*
X303473Y184705D01*
X303502Y184609D01*
X303535Y184515D01*
X303571Y184422D01*
X303611Y184331D01*
X303655Y184241D01*
X303702Y184153D01*
X303752Y184067D01*
X303806Y183983D01*
X303863Y183901D01*
X303923Y183822D01*
X303987Y183744D01*
X304053Y183670D01*
X304122Y183598D01*
X304194Y183529D01*
X304268Y183463D01*
X304346Y183399D01*
X304425Y183339D01*
X304507Y183282D01*
X304591Y183228D01*
X304677Y183178D01*
X304765Y183131D01*
X304855Y183087D01*
X304946Y183047D01*
X305039Y183011D01*
X305133Y182978D01*
X305229Y182949D01*
X305325Y182924D01*
X305422Y182903D01*
X305521Y182885D01*
X305619Y182872D01*
X305719Y182862D01*
X305818Y182856D01*
X305918Y182854D01*
X303378Y185394D02*
X303378Y230606D01*
X303380Y230706D01*
X303386Y230805D01*
X303396Y230905D01*
X303409Y231003D01*
X303427Y231102D01*
X303448Y231199D01*
X303473Y231295D01*
X303502Y231391D01*
X303535Y231485D01*
X303571Y231578D01*
X303611Y231669D01*
X303655Y231759D01*
X303702Y231847D01*
X303752Y231933D01*
X303806Y232017D01*
X303863Y232099D01*
X303923Y232178D01*
X303987Y232256D01*
X304053Y232330D01*
X304122Y232402D01*
X304194Y232471D01*
X304268Y232537D01*
X304346Y232601D01*
X304425Y232661D01*
X304507Y232718D01*
X304591Y232772D01*
X304677Y232822D01*
X304765Y232869D01*
X304855Y232913D01*
X304946Y232953D01*
X305039Y232989D01*
X305133Y233022D01*
X305229Y233051D01*
X305325Y233076D01*
X305422Y233097D01*
X305521Y233115D01*
X305619Y233128D01*
X305719Y233138D01*
X305818Y233144D01*
X305918Y233146D01*
X344244Y233146D01*
X344344Y233144D01*
X344443Y233138D01*
X344543Y233128D01*
X344641Y233115D01*
X344740Y233097D01*
X344837Y233076D01*
X344933Y233051D01*
X345029Y233022D01*
X345123Y232989D01*
X345216Y232953D01*
X345307Y232913D01*
X345397Y232869D01*
X345485Y232822D01*
X345571Y232772D01*
X345655Y232718D01*
X345737Y232661D01*
X345816Y232601D01*
X345894Y232537D01*
X345968Y232471D01*
X346040Y232402D01*
X346109Y232330D01*
X346175Y232256D01*
X346239Y232178D01*
X346299Y232099D01*
X346356Y232017D01*
X346410Y231933D01*
X346460Y231847D01*
X346507Y231759D01*
X346551Y231669D01*
X346591Y231578D01*
X346627Y231485D01*
X346660Y231391D01*
X346689Y231295D01*
X346714Y231199D01*
X346735Y231102D01*
X346753Y231003D01*
X346766Y230905D01*
X346776Y230805D01*
X346782Y230706D01*
X346784Y230606D01*
X346784Y185394D01*
X346782Y185294D01*
X346776Y185195D01*
X346766Y185095D01*
X346753Y184997D01*
X346735Y184898D01*
X346714Y184801D01*
X346689Y184705D01*
X346660Y184609D01*
X346627Y184515D01*
X346591Y184422D01*
X346551Y184331D01*
X346507Y184241D01*
X346460Y184153D01*
X346410Y184067D01*
X346356Y183983D01*
X346299Y183901D01*
X346239Y183822D01*
X346175Y183744D01*
X346109Y183670D01*
X346040Y183598D01*
X345968Y183529D01*
X345894Y183463D01*
X345816Y183399D01*
X345737Y183339D01*
X345655Y183282D01*
X345571Y183228D01*
X345485Y183178D01*
X345397Y183131D01*
X345307Y183087D01*
X345216Y183047D01*
X345123Y183011D01*
X345029Y182978D01*
X344933Y182949D01*
X344837Y182924D01*
X344740Y182903D01*
X344641Y182885D01*
X344543Y182872D01*
X344443Y182862D01*
X344344Y182856D01*
X344244Y182854D01*
X305918Y182854D01*
D16*
X342748Y185140D02*
X342824Y185142D01*
X342900Y185148D01*
X342975Y185157D01*
X343050Y185171D01*
X343124Y185188D01*
X343197Y185209D01*
X343269Y185233D01*
X343340Y185262D01*
X343409Y185293D01*
X343476Y185328D01*
X343541Y185367D01*
X343605Y185409D01*
X343666Y185454D01*
X343725Y185502D01*
X343781Y185553D01*
X343835Y185607D01*
X343886Y185663D01*
X343934Y185722D01*
X343979Y185783D01*
X344021Y185847D01*
X344060Y185912D01*
X344095Y185979D01*
X344126Y186048D01*
X344155Y186119D01*
X344179Y186191D01*
X344200Y186264D01*
X344217Y186338D01*
X344231Y186413D01*
X344240Y186488D01*
X344246Y186564D01*
X344248Y186640D01*
X342748Y185140D02*
X307164Y185140D01*
X307088Y185142D01*
X307012Y185148D01*
X306937Y185157D01*
X306862Y185171D01*
X306788Y185188D01*
X306715Y185209D01*
X306643Y185233D01*
X306572Y185262D01*
X306503Y185293D01*
X306436Y185328D01*
X306371Y185367D01*
X306307Y185409D01*
X306246Y185454D01*
X306187Y185502D01*
X306131Y185553D01*
X306077Y185607D01*
X306026Y185663D01*
X305978Y185722D01*
X305933Y185783D01*
X305891Y185847D01*
X305852Y185912D01*
X305817Y185979D01*
X305786Y186048D01*
X305757Y186119D01*
X305733Y186191D01*
X305712Y186264D01*
X305695Y186338D01*
X305681Y186413D01*
X305672Y186488D01*
X305666Y186564D01*
X305664Y186640D01*
X305664Y229360D01*
X305666Y229436D01*
X305672Y229512D01*
X305681Y229587D01*
X305695Y229662D01*
X305712Y229736D01*
X305733Y229809D01*
X305757Y229881D01*
X305786Y229952D01*
X305817Y230021D01*
X305852Y230088D01*
X305891Y230153D01*
X305933Y230217D01*
X305978Y230278D01*
X306026Y230337D01*
X306077Y230393D01*
X306131Y230447D01*
X306187Y230498D01*
X306246Y230546D01*
X306307Y230591D01*
X306371Y230633D01*
X306436Y230672D01*
X306503Y230707D01*
X306572Y230738D01*
X306643Y230767D01*
X306715Y230791D01*
X306788Y230812D01*
X306862Y230829D01*
X306937Y230843D01*
X307012Y230852D01*
X307088Y230858D01*
X307164Y230860D01*
X342748Y230860D01*
X342824Y230858D01*
X342900Y230852D01*
X342975Y230843D01*
X343050Y230829D01*
X343124Y230812D01*
X343197Y230791D01*
X343269Y230767D01*
X343340Y230738D01*
X343409Y230707D01*
X343476Y230672D01*
X343541Y230633D01*
X343605Y230591D01*
X343666Y230546D01*
X343725Y230498D01*
X343781Y230447D01*
X343835Y230393D01*
X343886Y230337D01*
X343934Y230278D01*
X343979Y230217D01*
X344021Y230153D01*
X344060Y230088D01*
X344095Y230021D01*
X344126Y229952D01*
X344155Y229881D01*
X344179Y229809D01*
X344200Y229736D01*
X344217Y229662D01*
X344231Y229587D01*
X344240Y229512D01*
X344246Y229436D01*
X344248Y229360D01*
X344248Y186640D01*
D17*
X337648Y191744D03*
D15*
X363550Y351800D02*
X395550Y351800D01*
X363550Y351800D02*
X363550Y376800D01*
X395550Y376800D01*
X395550Y351800D01*
X403950Y377000D02*
X403952Y377063D01*
X403958Y377125D01*
X403968Y377187D01*
X403981Y377249D01*
X403999Y377309D01*
X404020Y377368D01*
X404045Y377426D01*
X404074Y377482D01*
X404106Y377536D01*
X404141Y377588D01*
X404179Y377637D01*
X404221Y377685D01*
X404265Y377729D01*
X404313Y377771D01*
X404362Y377809D01*
X404414Y377844D01*
X404468Y377876D01*
X404524Y377905D01*
X404582Y377930D01*
X404641Y377951D01*
X404701Y377969D01*
X404763Y377982D01*
X404825Y377992D01*
X404887Y377998D01*
X404950Y378000D01*
X405013Y377998D01*
X405075Y377992D01*
X405137Y377982D01*
X405199Y377969D01*
X405259Y377951D01*
X405318Y377930D01*
X405376Y377905D01*
X405432Y377876D01*
X405486Y377844D01*
X405538Y377809D01*
X405587Y377771D01*
X405635Y377729D01*
X405679Y377685D01*
X405721Y377637D01*
X405759Y377588D01*
X405794Y377536D01*
X405826Y377482D01*
X405855Y377426D01*
X405880Y377368D01*
X405901Y377309D01*
X405919Y377249D01*
X405932Y377187D01*
X405942Y377125D01*
X405948Y377063D01*
X405950Y377000D01*
X405948Y376937D01*
X405942Y376875D01*
X405932Y376813D01*
X405919Y376751D01*
X405901Y376691D01*
X405880Y376632D01*
X405855Y376574D01*
X405826Y376518D01*
X405794Y376464D01*
X405759Y376412D01*
X405721Y376363D01*
X405679Y376315D01*
X405635Y376271D01*
X405587Y376229D01*
X405538Y376191D01*
X405486Y376156D01*
X405432Y376124D01*
X405376Y376095D01*
X405318Y376070D01*
X405259Y376049D01*
X405199Y376031D01*
X405137Y376018D01*
X405075Y376008D01*
X405013Y376002D01*
X404950Y376000D01*
X404887Y376002D01*
X404825Y376008D01*
X404763Y376018D01*
X404701Y376031D01*
X404641Y376049D01*
X404582Y376070D01*
X404524Y376095D01*
X404468Y376124D01*
X404414Y376156D01*
X404362Y376191D01*
X404313Y376229D01*
X404265Y376271D01*
X404221Y376315D01*
X404179Y376363D01*
X404141Y376412D01*
X404106Y376464D01*
X404074Y376518D01*
X404045Y376574D01*
X404020Y376632D01*
X403999Y376691D01*
X403981Y376751D01*
X403968Y376813D01*
X403958Y376875D01*
X403952Y376937D01*
X403950Y377000D01*
D18*
X286070Y385445D02*
X286070Y356235D01*
X286070Y385445D02*
X298770Y385445D01*
X298770Y356235D01*
X286070Y356235D01*
X316620Y356415D02*
X316620Y385625D01*
X329320Y385625D01*
X329320Y356415D01*
X316620Y356415D01*
X338290Y162380D02*
X292570Y162380D01*
X338290Y162380D02*
X338290Y139520D01*
X292570Y139520D01*
X292570Y162380D01*
X373855Y192260D02*
X403065Y192260D01*
X373855Y192260D02*
X373855Y204960D01*
X403065Y204960D01*
X403065Y192260D01*
X413385Y228600D02*
X384175Y228600D01*
X384175Y241300D01*
X413385Y241300D01*
X413385Y228600D01*
X314140Y356595D02*
X314140Y385805D01*
X314140Y356595D02*
X301440Y356595D01*
X301440Y385805D01*
X314140Y385805D01*
X372967Y346707D02*
X394113Y346707D01*
X394113Y335594D01*
X372967Y335593D01*
X372967Y346707D01*
X347023Y350107D02*
X347023Y371253D01*
X358136Y371253D01*
X358137Y350107D01*
X347023Y350107D01*
X384175Y256540D02*
X413385Y256540D01*
X413385Y243840D01*
X384175Y243840D01*
X384175Y256540D01*
X384175Y270510D02*
X413385Y270510D01*
X413385Y257810D01*
X384175Y257810D01*
X384175Y270510D01*
X384175Y227330D02*
X413385Y227330D01*
X413385Y214630D01*
X384175Y214630D01*
X384175Y227330D01*
X383850Y287820D02*
X383850Y333540D01*
X406710Y333540D01*
X406710Y287820D01*
X383850Y287820D01*
X255920Y355755D02*
X255920Y384965D01*
X268620Y384965D01*
X268620Y355755D01*
X255920Y355755D01*
X384485Y285430D02*
X413695Y285430D01*
X413695Y272730D01*
X384485Y272730D01*
X384485Y285430D01*
X276350Y272065D02*
X276350Y242855D01*
X263650Y242855D01*
X263650Y272065D01*
X276350Y272065D01*
D19*
X247400Y28100D02*
X247400Y14600D01*
X336800Y14600D02*
X336800Y28100D01*
X336800Y-25400D02*
X247400Y-25400D01*
X247400Y-11900D01*
X336800Y-11900D02*
X336800Y-25400D01*
D18*
X289973Y70643D02*
X268827Y70643D01*
X268827Y81756D01*
X289973Y81757D01*
X289973Y70643D01*
X304387Y81757D02*
X325533Y81757D01*
X325533Y70644D01*
X304387Y70643D01*
X304387Y81757D01*
M02*
