G04 EAGLE Gerber RS-274X export*
G75*
%MOMM*%
%FSLAX34Y34*%
%LPD*%
%INSoldermask Top*%
%IPPOS*%
%AMOC8*
5,1,8,0,0,1.08239X$1,22.5*%
G01*
%ADD10R,1.103200X1.203200*%
%ADD11R,0.803200X1.103200*%
%ADD12R,1.203200X1.303200*%
%ADD13R,1.303200X1.203200*%
%ADD14C,0.316234*%
%ADD15C,0.806416*%
%ADD16C,0.914400*%
%ADD17R,1.193800X0.508000*%
%ADD18R,1.603200X1.403200*%
%ADD19R,1.003200X1.103200*%
%ADD20R,1.603200X2.003200*%
%ADD21R,1.103200X1.003200*%
%ADD22R,0.803200X0.803200*%
%ADD23R,2.003200X1.603200*%
%ADD24C,2.133600*%
%ADD25R,0.778200X1.353200*%
%ADD26R,0.478200X1.353200*%
%ADD27C,1.203200*%
%ADD28C,0.853200*%


D10*
X319660Y128270D03*
X335660Y128270D03*
X305180Y128270D03*
X289180Y128270D03*
D11*
X397740Y176790D03*
X388240Y176790D03*
X378740Y176790D03*
X378740Y153790D03*
X388240Y153790D03*
X397740Y153790D03*
D12*
X277180Y379340D03*
X277180Y362340D03*
X338140Y379340D03*
X338140Y362340D03*
D13*
X264400Y146540D03*
X281400Y146540D03*
D14*
X353481Y328365D02*
X354651Y328365D01*
X353481Y328365D02*
X353481Y337235D01*
X354651Y337235D01*
X354651Y328365D01*
X354651Y331369D02*
X353481Y331369D01*
X353481Y334373D02*
X354651Y334373D01*
X349651Y328365D02*
X348481Y328365D01*
X348481Y337235D01*
X349651Y337235D01*
X349651Y328365D01*
X349651Y331369D02*
X348481Y331369D01*
X348481Y334373D02*
X349651Y334373D01*
X344651Y328365D02*
X343481Y328365D01*
X343481Y337235D01*
X344651Y337235D01*
X344651Y328365D01*
X344651Y331369D02*
X343481Y331369D01*
X343481Y334373D02*
X344651Y334373D01*
X339651Y328365D02*
X338481Y328365D01*
X338481Y337235D01*
X339651Y337235D01*
X339651Y328365D01*
X339651Y331369D02*
X338481Y331369D01*
X338481Y334373D02*
X339651Y334373D01*
X334651Y328365D02*
X333481Y328365D01*
X333481Y337235D01*
X334651Y337235D01*
X334651Y328365D01*
X334651Y331369D02*
X333481Y331369D01*
X333481Y334373D02*
X334651Y334373D01*
X329651Y328365D02*
X328481Y328365D01*
X328481Y337235D01*
X329651Y337235D01*
X329651Y328365D01*
X329651Y331369D02*
X328481Y331369D01*
X328481Y334373D02*
X329651Y334373D01*
X324651Y328365D02*
X323481Y328365D01*
X323481Y337235D01*
X324651Y337235D01*
X324651Y328365D01*
X324651Y331369D02*
X323481Y331369D01*
X323481Y334373D02*
X324651Y334373D01*
X319651Y328365D02*
X318481Y328365D01*
X318481Y337235D01*
X319651Y337235D01*
X319651Y328365D01*
X319651Y331369D02*
X318481Y331369D01*
X318481Y334373D02*
X319651Y334373D01*
X314651Y328365D02*
X313481Y328365D01*
X313481Y337235D01*
X314651Y337235D01*
X314651Y328365D01*
X314651Y331369D02*
X313481Y331369D01*
X313481Y334373D02*
X314651Y334373D01*
X309651Y328365D02*
X308481Y328365D01*
X308481Y337235D01*
X309651Y337235D01*
X309651Y328365D01*
X309651Y331369D02*
X308481Y331369D01*
X308481Y334373D02*
X309651Y334373D01*
X304651Y328365D02*
X303481Y328365D01*
X303481Y337235D01*
X304651Y337235D01*
X304651Y328365D01*
X304651Y331369D02*
X303481Y331369D01*
X303481Y334373D02*
X304651Y334373D01*
X299651Y328365D02*
X298481Y328365D01*
X298481Y337235D01*
X299651Y337235D01*
X299651Y328365D01*
X299651Y331369D02*
X298481Y331369D01*
X298481Y334373D02*
X299651Y334373D01*
X292001Y321885D02*
X292001Y320715D01*
X283131Y320715D01*
X283131Y321885D01*
X292001Y321885D01*
X292001Y316885D02*
X292001Y315715D01*
X283131Y315715D01*
X283131Y316885D01*
X292001Y316885D01*
X292001Y311885D02*
X292001Y310715D01*
X283131Y310715D01*
X283131Y311885D01*
X292001Y311885D01*
X292001Y306885D02*
X292001Y305715D01*
X283131Y305715D01*
X283131Y306885D01*
X292001Y306885D01*
X292001Y301885D02*
X292001Y300715D01*
X283131Y300715D01*
X283131Y301885D01*
X292001Y301885D01*
X292001Y296885D02*
X292001Y295715D01*
X283131Y295715D01*
X283131Y296885D01*
X292001Y296885D01*
X292001Y292385D02*
X292001Y291215D01*
X283131Y291215D01*
X283131Y292385D01*
X292001Y292385D01*
X292001Y286885D02*
X292001Y285715D01*
X283131Y285715D01*
X283131Y286885D01*
X292001Y286885D01*
X292001Y281885D02*
X292001Y280715D01*
X283131Y280715D01*
X283131Y281885D01*
X292001Y281885D01*
X292001Y276885D02*
X292001Y275715D01*
X283131Y275715D01*
X283131Y276885D01*
X292001Y276885D01*
X292001Y271885D02*
X292001Y270715D01*
X283131Y270715D01*
X283131Y271885D01*
X292001Y271885D01*
X292001Y266885D02*
X292001Y265715D01*
X283131Y265715D01*
X283131Y266885D01*
X292001Y266885D01*
X298481Y259235D02*
X299651Y259235D01*
X299651Y250365D01*
X298481Y250365D01*
X298481Y259235D01*
X298481Y253369D02*
X299651Y253369D01*
X299651Y256373D02*
X298481Y256373D01*
X303481Y259235D02*
X304651Y259235D01*
X304651Y250365D01*
X303481Y250365D01*
X303481Y259235D01*
X303481Y253369D02*
X304651Y253369D01*
X304651Y256373D02*
X303481Y256373D01*
X308481Y259235D02*
X309651Y259235D01*
X309651Y250365D01*
X308481Y250365D01*
X308481Y259235D01*
X308481Y253369D02*
X309651Y253369D01*
X309651Y256373D02*
X308481Y256373D01*
X313481Y259235D02*
X314651Y259235D01*
X314651Y250365D01*
X313481Y250365D01*
X313481Y259235D01*
X313481Y253369D02*
X314651Y253369D01*
X314651Y256373D02*
X313481Y256373D01*
X318481Y259235D02*
X319651Y259235D01*
X319651Y250365D01*
X318481Y250365D01*
X318481Y259235D01*
X318481Y253369D02*
X319651Y253369D01*
X319651Y256373D02*
X318481Y256373D01*
X323481Y259235D02*
X324651Y259235D01*
X324651Y250365D01*
X323481Y250365D01*
X323481Y259235D01*
X323481Y253369D02*
X324651Y253369D01*
X324651Y256373D02*
X323481Y256373D01*
X328481Y259235D02*
X329651Y259235D01*
X329651Y250365D01*
X328481Y250365D01*
X328481Y259235D01*
X328481Y253369D02*
X329651Y253369D01*
X329651Y256373D02*
X328481Y256373D01*
X333481Y259235D02*
X334651Y259235D01*
X334651Y250365D01*
X333481Y250365D01*
X333481Y259235D01*
X333481Y253369D02*
X334651Y253369D01*
X334651Y256373D02*
X333481Y256373D01*
X338481Y259235D02*
X339651Y259235D01*
X339651Y250365D01*
X338481Y250365D01*
X338481Y259235D01*
X338481Y253369D02*
X339651Y253369D01*
X339651Y256373D02*
X338481Y256373D01*
X343481Y259235D02*
X344651Y259235D01*
X344651Y250365D01*
X343481Y250365D01*
X343481Y259235D01*
X343481Y253369D02*
X344651Y253369D01*
X344651Y256373D02*
X343481Y256373D01*
X348481Y259235D02*
X349651Y259235D01*
X349651Y250365D01*
X348481Y250365D01*
X348481Y259235D01*
X348481Y253369D02*
X349651Y253369D01*
X349651Y256373D02*
X348481Y256373D01*
X353481Y259235D02*
X354651Y259235D01*
X354651Y250365D01*
X353481Y250365D01*
X353481Y259235D01*
X353481Y253369D02*
X354651Y253369D01*
X354651Y256373D02*
X353481Y256373D01*
X361131Y265715D02*
X361131Y266885D01*
X370001Y266885D01*
X370001Y265715D01*
X361131Y265715D01*
X361131Y270715D02*
X361131Y271885D01*
X370001Y271885D01*
X370001Y270715D01*
X361131Y270715D01*
X361131Y275715D02*
X361131Y276885D01*
X370001Y276885D01*
X370001Y275715D01*
X361131Y275715D01*
X361131Y280715D02*
X361131Y281885D01*
X370001Y281885D01*
X370001Y280715D01*
X361131Y280715D01*
X361131Y285715D02*
X361131Y286885D01*
X370001Y286885D01*
X370001Y285715D01*
X361131Y285715D01*
X361131Y290715D02*
X361131Y291885D01*
X370001Y291885D01*
X370001Y290715D01*
X361131Y290715D01*
X361131Y295715D02*
X361131Y296885D01*
X370001Y296885D01*
X370001Y295715D01*
X361131Y295715D01*
X361131Y300715D02*
X361131Y301885D01*
X370001Y301885D01*
X370001Y300715D01*
X361131Y300715D01*
X361131Y305715D02*
X361131Y306885D01*
X370001Y306885D01*
X370001Y305715D01*
X361131Y305715D01*
X361131Y310715D02*
X361131Y311885D01*
X370001Y311885D01*
X370001Y310715D01*
X361131Y310715D01*
X361131Y315715D02*
X361131Y316885D01*
X370001Y316885D01*
X370001Y315715D01*
X361131Y315715D01*
X361131Y320715D02*
X361131Y321885D01*
X370001Y321885D01*
X370001Y320715D01*
X361131Y320715D01*
D15*
X299582Y320784D02*
X299582Y266816D01*
X299582Y320784D02*
X353550Y320784D01*
X353550Y266816D01*
X299582Y266816D01*
X299582Y274477D02*
X353550Y274477D01*
X353550Y282138D02*
X299582Y282138D01*
X299582Y289799D02*
X353550Y289799D01*
X353550Y297460D02*
X299582Y297460D01*
X299582Y305121D02*
X353550Y305121D01*
X353550Y312782D02*
X299582Y312782D01*
X299582Y320443D02*
X353550Y320443D01*
D16*
X135672Y423600D02*
X128560Y423600D01*
X128560Y410900D02*
X135672Y410900D01*
X135672Y398200D02*
X128560Y398200D01*
X128560Y385500D02*
X135672Y385500D01*
X135672Y372800D02*
X128560Y372800D01*
X128560Y360100D02*
X135672Y360100D01*
X135672Y347400D02*
X128560Y347400D01*
X128560Y334700D02*
X135672Y334700D01*
X135672Y322000D02*
X128560Y322000D01*
X211110Y423600D02*
X218222Y423600D01*
X218222Y436300D02*
X211110Y436300D01*
D17*
X354634Y188500D03*
X354634Y195000D03*
X354634Y201500D03*
X354634Y208000D03*
X354634Y214500D03*
X354634Y221000D03*
X354634Y227500D03*
X295278Y188500D03*
X295278Y195000D03*
X295278Y201500D03*
X295278Y208000D03*
X295278Y214500D03*
X295278Y221000D03*
X295278Y227500D03*
D16*
X196916Y111600D02*
X189804Y111600D01*
X170500Y130904D02*
X170500Y138016D01*
D18*
X390550Y372800D03*
X368550Y372800D03*
X368550Y355800D03*
X390550Y355800D03*
D19*
X292420Y363220D03*
X292420Y378460D03*
X322970Y363400D03*
X322970Y378640D03*
D20*
X302730Y150950D03*
X328130Y150950D03*
D21*
X396080Y198610D03*
X380840Y198610D03*
X406400Y234950D03*
X391160Y234950D03*
D19*
X307790Y378820D03*
X307790Y363580D03*
D22*
X378460Y341150D03*
X388620Y341150D03*
X352580Y355600D03*
X352580Y365760D03*
D21*
X391160Y250190D03*
X406400Y250190D03*
X391160Y264160D03*
X406400Y264160D03*
X391160Y220980D03*
X406400Y220980D03*
D23*
X395280Y297980D03*
X395280Y323380D03*
D19*
X262270Y362740D03*
X262270Y377980D03*
D21*
X391470Y279080D03*
X406710Y279080D03*
D19*
X270000Y265080D03*
X270000Y249840D03*
D24*
X270000Y227018D02*
X270000Y208222D01*
D25*
X260100Y48150D03*
X268100Y48150D03*
D26*
X279600Y48150D03*
X289600Y48150D03*
X294600Y48150D03*
X304600Y48150D03*
D25*
X324100Y48150D03*
X316100Y48150D03*
D26*
X309600Y48150D03*
X299600Y48150D03*
X284600Y48150D03*
X274600Y48150D03*
D27*
X248900Y47400D02*
X248900Y37400D01*
X335300Y37400D02*
X335300Y47400D01*
X248900Y5600D02*
X248900Y-4400D01*
X335300Y-4400D02*
X335300Y5600D01*
D28*
X321000Y37400D03*
X263200Y37400D03*
D22*
X284480Y76200D03*
X274320Y76200D03*
X309880Y76200D03*
X320040Y76200D03*
M02*
