G04 EAGLE Gerber RS-274X export*
G75*
%MOMM*%
%FSLAX34Y34*%
%LPD*%
%INTop Copper*%
%IPPOS*%
%AMOC8*
5,1,8,0,0,1.08239X$1,22.5*%
G01*
%ADD10R,0.900000X1.000000*%
%ADD11R,0.600000X0.900000*%
%ADD12R,1.000000X1.100000*%
%ADD13R,1.100000X1.000000*%
%ADD14C,0.115000*%
%ADD15C,0.600000*%
%ADD16C,0.711200*%
%ADD17R,0.990600X0.304800*%
%ADD18R,1.400000X1.200000*%
%ADD19R,0.800000X0.900000*%
%ADD20R,1.400000X1.800000*%
%ADD21R,0.900000X0.800000*%
%ADD22R,0.600000X0.600000*%
%ADD23R,1.800000X1.400000*%
%ADD24C,1.930400*%
%ADD25R,0.500000X2.299997*%
%ADD26R,1.999997X2.499994*%
%ADD27C,0.503200*%
%ADD28C,0.228600*%
%ADD29C,0.406400*%
%ADD30C,0.152400*%
%ADD31C,0.604800*%

G36*
X365986Y-10697D02*
X365986Y-10697D01*
X366004Y-10699D01*
X366186Y-10678D01*
X366369Y-10659D01*
X366386Y-10654D01*
X366403Y-10652D01*
X366578Y-10595D01*
X366754Y-10541D01*
X366769Y-10533D01*
X366786Y-10527D01*
X366946Y-10437D01*
X367108Y-10349D01*
X367121Y-10338D01*
X367137Y-10329D01*
X367276Y-10209D01*
X367417Y-10092D01*
X367428Y-10078D01*
X367442Y-10066D01*
X367554Y-9921D01*
X367669Y-9778D01*
X367677Y-9762D01*
X367688Y-9748D01*
X367770Y-9583D01*
X367855Y-9421D01*
X367860Y-9404D01*
X367868Y-9388D01*
X367915Y-9209D01*
X367966Y-9034D01*
X367968Y-9016D01*
X367972Y-8999D01*
X367999Y-8668D01*
X367999Y130829D01*
X369171Y132001D01*
X416758Y132001D01*
X416776Y132003D01*
X416794Y132001D01*
X416976Y132022D01*
X417159Y132041D01*
X417176Y132046D01*
X417193Y132048D01*
X417368Y132105D01*
X417544Y132159D01*
X417559Y132167D01*
X417576Y132173D01*
X417736Y132263D01*
X417898Y132351D01*
X417911Y132362D01*
X417927Y132371D01*
X418066Y132491D01*
X418207Y132608D01*
X418218Y132622D01*
X418232Y132634D01*
X418344Y132779D01*
X418459Y132922D01*
X418467Y132938D01*
X418478Y132952D01*
X418560Y133117D01*
X418645Y133279D01*
X418650Y133296D01*
X418658Y133312D01*
X418705Y133491D01*
X418756Y133666D01*
X418758Y133684D01*
X418762Y133701D01*
X418789Y134032D01*
X418789Y168331D01*
X418788Y168340D01*
X418789Y168349D01*
X418768Y168540D01*
X418749Y168731D01*
X418747Y168740D01*
X418746Y168749D01*
X418688Y168931D01*
X418631Y169116D01*
X418627Y169124D01*
X418624Y169133D01*
X418531Y169301D01*
X418439Y169470D01*
X418434Y169477D01*
X418429Y169485D01*
X418304Y169633D01*
X418182Y169780D01*
X418175Y169785D01*
X418169Y169792D01*
X418018Y169911D01*
X417868Y170032D01*
X417860Y170036D01*
X417853Y170042D01*
X417682Y170129D01*
X417511Y170217D01*
X417502Y170220D01*
X417494Y170224D01*
X417309Y170276D01*
X417124Y170329D01*
X417115Y170329D01*
X417106Y170332D01*
X416914Y170346D01*
X416722Y170362D01*
X416714Y170361D01*
X416705Y170361D01*
X416514Y170337D01*
X416323Y170315D01*
X416314Y170312D01*
X416305Y170311D01*
X416124Y170250D01*
X415940Y170190D01*
X415932Y170185D01*
X415924Y170183D01*
X415758Y170087D01*
X415589Y169992D01*
X415582Y169986D01*
X415575Y169982D01*
X415322Y169767D01*
X414267Y168712D01*
X403336Y157781D01*
X403319Y157760D01*
X403298Y157743D01*
X403191Y157605D01*
X403081Y157469D01*
X403068Y157446D01*
X403052Y157425D01*
X402974Y157268D01*
X402892Y157114D01*
X402884Y157088D01*
X402872Y157064D01*
X402827Y156895D01*
X402777Y156728D01*
X402775Y156701D01*
X402768Y156675D01*
X402741Y156345D01*
X402741Y148461D01*
X401569Y147289D01*
X393519Y147289D01*
X393373Y147333D01*
X393355Y147334D01*
X393338Y147339D01*
X393155Y147352D01*
X392972Y147369D01*
X392954Y147367D01*
X392936Y147368D01*
X392755Y147346D01*
X392572Y147326D01*
X392555Y147320D01*
X392537Y147318D01*
X392451Y147289D01*
X384019Y147289D01*
X383874Y147333D01*
X383856Y147334D01*
X383838Y147339D01*
X383655Y147353D01*
X383473Y147369D01*
X383455Y147367D01*
X383437Y147368D01*
X383254Y147345D01*
X383072Y147326D01*
X383055Y147320D01*
X383037Y147318D01*
X382951Y147289D01*
X374911Y147289D01*
X373739Y148461D01*
X373739Y156345D01*
X373737Y156371D01*
X373739Y156398D01*
X373717Y156572D01*
X373699Y156745D01*
X373692Y156771D01*
X373688Y156797D01*
X373633Y156963D01*
X373581Y157130D01*
X373568Y157154D01*
X373560Y157179D01*
X373473Y157331D01*
X373389Y157484D01*
X373372Y157505D01*
X373359Y157528D01*
X373144Y157781D01*
X368405Y162520D01*
X368405Y177221D01*
X368404Y177229D01*
X368405Y177238D01*
X368384Y177432D01*
X368365Y177621D01*
X368363Y177630D01*
X368362Y177639D01*
X368304Y177822D01*
X368247Y178006D01*
X368243Y178014D01*
X368240Y178023D01*
X368148Y178190D01*
X368055Y178360D01*
X368050Y178367D01*
X368045Y178375D01*
X367921Y178522D01*
X367798Y178669D01*
X367791Y178675D01*
X367785Y178682D01*
X367633Y178802D01*
X367484Y178922D01*
X367476Y178926D01*
X367469Y178931D01*
X367296Y179019D01*
X367127Y179107D01*
X367118Y179110D01*
X367110Y179114D01*
X366924Y179166D01*
X366740Y179219D01*
X366731Y179219D01*
X366722Y179222D01*
X366529Y179236D01*
X366338Y179252D01*
X366330Y179251D01*
X366321Y179251D01*
X366128Y179227D01*
X365939Y179205D01*
X365930Y179202D01*
X365921Y179201D01*
X365738Y179139D01*
X365556Y179080D01*
X365548Y179075D01*
X365540Y179073D01*
X365373Y178976D01*
X365205Y178882D01*
X365198Y178876D01*
X365191Y178872D01*
X364938Y178657D01*
X355698Y169417D01*
X313359Y169417D01*
X313333Y169415D01*
X313306Y169417D01*
X313132Y169395D01*
X312959Y169377D01*
X312933Y169370D01*
X312907Y169366D01*
X312741Y169311D01*
X312574Y169259D01*
X312550Y169246D01*
X312525Y169238D01*
X312374Y169151D01*
X312220Y169067D01*
X312199Y169050D01*
X312176Y169037D01*
X311923Y168822D01*
X308519Y165418D01*
X308516Y165415D01*
X308513Y165412D01*
X308510Y165409D01*
X308507Y165406D01*
X308386Y165256D01*
X308264Y165107D01*
X308260Y165099D01*
X308254Y165092D01*
X308166Y164922D01*
X308075Y164751D01*
X308073Y164742D01*
X308069Y164735D01*
X308016Y164550D01*
X307961Y164365D01*
X307960Y164356D01*
X307957Y164348D01*
X307942Y164156D01*
X307924Y163964D01*
X307925Y163955D01*
X307924Y163946D01*
X307947Y163757D01*
X307968Y163564D01*
X307970Y163555D01*
X307971Y163547D01*
X308031Y163365D01*
X308089Y163180D01*
X308093Y163172D01*
X308096Y163164D01*
X308192Y162994D01*
X308284Y162828D01*
X308290Y162821D01*
X308294Y162813D01*
X308420Y162667D01*
X308544Y162521D01*
X308551Y162515D01*
X308557Y162508D01*
X308709Y162391D01*
X308860Y162271D01*
X308868Y162267D01*
X308875Y162262D01*
X309047Y162176D01*
X309219Y162089D01*
X309228Y162086D01*
X309236Y162082D01*
X309422Y162032D01*
X309607Y161981D01*
X309616Y161980D01*
X309625Y161978D01*
X309955Y161951D01*
X310559Y161951D01*
X311731Y160779D01*
X311731Y141121D01*
X310559Y139949D01*
X294901Y139949D01*
X293729Y141121D01*
X293729Y141206D01*
X293727Y141224D01*
X293729Y141242D01*
X293708Y141424D01*
X293689Y141607D01*
X293684Y141624D01*
X293682Y141641D01*
X293625Y141816D01*
X293571Y141992D01*
X293563Y142007D01*
X293557Y142024D01*
X293467Y142184D01*
X293379Y142346D01*
X293368Y142359D01*
X293359Y142375D01*
X293239Y142514D01*
X293122Y142655D01*
X293108Y142666D01*
X293096Y142680D01*
X292951Y142792D01*
X292808Y142907D01*
X292792Y142915D01*
X292778Y142926D01*
X292613Y143008D01*
X292451Y143093D01*
X292434Y143098D01*
X292418Y143106D01*
X292239Y143153D01*
X292064Y143204D01*
X292046Y143206D01*
X292029Y143210D01*
X291698Y143237D01*
X290932Y143237D01*
X290914Y143235D01*
X290896Y143237D01*
X290714Y143216D01*
X290531Y143197D01*
X290514Y143192D01*
X290497Y143190D01*
X290322Y143133D01*
X290146Y143079D01*
X290131Y143071D01*
X290114Y143065D01*
X289954Y142975D01*
X289792Y142887D01*
X289779Y142876D01*
X289763Y142867D01*
X289624Y142747D01*
X289483Y142630D01*
X289472Y142616D01*
X289458Y142604D01*
X289346Y142459D01*
X289231Y142316D01*
X289223Y142300D01*
X289212Y142286D01*
X289130Y142121D01*
X289045Y141959D01*
X289040Y141942D01*
X289032Y141926D01*
X288985Y141747D01*
X288934Y141572D01*
X288932Y141554D01*
X288928Y141537D01*
X288901Y141206D01*
X288901Y140711D01*
X287468Y139278D01*
X287462Y139271D01*
X287455Y139266D01*
X287335Y139116D01*
X287213Y138967D01*
X287208Y138959D01*
X287203Y138952D01*
X287114Y138780D01*
X287024Y138611D01*
X287021Y138602D01*
X287017Y138595D01*
X286964Y138410D01*
X286909Y138225D01*
X286908Y138216D01*
X286906Y138208D01*
X286890Y138017D01*
X286873Y137824D01*
X286874Y137815D01*
X286873Y137806D01*
X286895Y137617D01*
X286916Y137424D01*
X286919Y137415D01*
X286920Y137407D01*
X286931Y137374D01*
X286931Y130519D01*
X282139Y130519D01*
X282139Y133605D01*
X282312Y134251D01*
X282647Y134830D01*
X283120Y135303D01*
X283892Y135749D01*
X283952Y135792D01*
X284016Y135827D01*
X284115Y135909D01*
X284219Y135984D01*
X284269Y136037D01*
X284325Y136084D01*
X284406Y136184D01*
X284493Y136278D01*
X284532Y136341D01*
X284578Y136398D01*
X284637Y136512D01*
X284704Y136622D01*
X284729Y136690D01*
X284763Y136755D01*
X284799Y136879D01*
X284843Y136999D01*
X284854Y137072D01*
X284875Y137142D01*
X284885Y137270D01*
X284905Y137397D01*
X284901Y137470D01*
X284907Y137544D01*
X284892Y137671D01*
X284887Y137800D01*
X284869Y137871D01*
X284861Y137943D01*
X284821Y138066D01*
X284790Y138190D01*
X284758Y138257D01*
X284736Y138326D01*
X284673Y138438D01*
X284618Y138554D01*
X284574Y138613D01*
X284538Y138677D01*
X284454Y138774D01*
X284377Y138877D01*
X284323Y138926D01*
X284275Y138982D01*
X284173Y139060D01*
X284078Y139146D01*
X284014Y139183D01*
X283957Y139228D01*
X283841Y139286D01*
X283731Y139351D01*
X283662Y139375D01*
X283596Y139408D01*
X283472Y139441D01*
X283351Y139483D01*
X283278Y139493D01*
X283207Y139512D01*
X283038Y139526D01*
X282952Y139538D01*
X282919Y139536D01*
X282877Y139539D01*
X275071Y139539D01*
X274336Y140274D01*
X274322Y140286D01*
X274311Y140299D01*
X274167Y140413D01*
X274025Y140529D01*
X274009Y140538D01*
X273995Y140549D01*
X273831Y140632D01*
X273669Y140718D01*
X273652Y140723D01*
X273636Y140731D01*
X273459Y140780D01*
X273283Y140833D01*
X273265Y140834D01*
X273248Y140839D01*
X273065Y140853D01*
X272882Y140869D01*
X272864Y140867D01*
X272847Y140868D01*
X272665Y140846D01*
X272482Y140826D01*
X272465Y140820D01*
X272447Y140818D01*
X272273Y140760D01*
X272098Y140704D01*
X272082Y140696D01*
X272066Y140690D01*
X271907Y140598D01*
X271746Y140509D01*
X271732Y140498D01*
X271717Y140489D01*
X271464Y140274D01*
X270729Y139539D01*
X269734Y139539D01*
X269716Y139537D01*
X269698Y139539D01*
X269516Y139518D01*
X269333Y139499D01*
X269316Y139494D01*
X269299Y139492D01*
X269124Y139435D01*
X268948Y139381D01*
X268933Y139373D01*
X268916Y139367D01*
X268756Y139277D01*
X268594Y139189D01*
X268581Y139178D01*
X268565Y139169D01*
X268426Y139049D01*
X268285Y138932D01*
X268274Y138918D01*
X268260Y138906D01*
X268147Y138760D01*
X268033Y138618D01*
X268025Y138602D01*
X268014Y138588D01*
X267932Y138423D01*
X267847Y138261D01*
X267842Y138244D01*
X267834Y138228D01*
X267787Y138049D01*
X267736Y137874D01*
X267734Y137856D01*
X267730Y137839D01*
X267703Y137508D01*
X267703Y131509D01*
X267705Y131483D01*
X267703Y131456D01*
X267725Y131282D01*
X267743Y131109D01*
X267750Y131083D01*
X267754Y131057D01*
X267809Y130891D01*
X267861Y130724D01*
X267874Y130700D01*
X267882Y130675D01*
X267969Y130523D01*
X268053Y130370D01*
X268070Y130349D01*
X268083Y130326D01*
X268298Y130073D01*
X284686Y113685D01*
X284771Y113583D01*
X284778Y113577D01*
X284784Y113571D01*
X284936Y113450D01*
X285085Y113331D01*
X285092Y113327D01*
X285099Y113321D01*
X285272Y113233D01*
X285442Y113145D01*
X285450Y113143D01*
X285458Y113139D01*
X285644Y113087D01*
X285829Y113034D01*
X285838Y113033D01*
X285846Y113031D01*
X286039Y113017D01*
X286230Y113001D01*
X286239Y113002D01*
X286248Y113001D01*
X286439Y113025D01*
X286630Y113048D01*
X286638Y113051D01*
X286647Y113052D01*
X286829Y113113D01*
X287013Y113173D01*
X287020Y113177D01*
X287029Y113180D01*
X287196Y113276D01*
X287363Y113371D01*
X287370Y113376D01*
X287378Y113381D01*
X287631Y113596D01*
X288614Y114579D01*
X291297Y117262D01*
X291303Y117269D01*
X291310Y117274D01*
X291430Y117424D01*
X291552Y117573D01*
X291556Y117581D01*
X291562Y117588D01*
X291650Y117758D01*
X291741Y117929D01*
X291743Y117938D01*
X291747Y117945D01*
X291800Y118128D01*
X291855Y118315D01*
X291856Y118324D01*
X291859Y118332D01*
X291874Y118523D01*
X291892Y118716D01*
X291891Y118725D01*
X291892Y118734D01*
X291869Y118923D01*
X291848Y119116D01*
X291846Y119125D01*
X291845Y119133D01*
X291785Y119315D01*
X291727Y119500D01*
X291723Y119508D01*
X291720Y119516D01*
X291625Y119685D01*
X291532Y119852D01*
X291526Y119859D01*
X291522Y119867D01*
X291429Y119974D01*
X291429Y128052D01*
X291427Y128070D01*
X291429Y128087D01*
X291410Y128251D01*
X291429Y128488D01*
X291429Y135811D01*
X294015Y135811D01*
X294661Y135638D01*
X295240Y135303D01*
X295713Y134830D01*
X295743Y134778D01*
X295791Y134712D01*
X295831Y134640D01*
X295908Y134549D01*
X295978Y134451D01*
X296038Y134396D01*
X296091Y134333D01*
X296185Y134259D01*
X296273Y134177D01*
X296343Y134134D01*
X296407Y134083D01*
X296514Y134029D01*
X296616Y133966D01*
X296693Y133938D01*
X296766Y133901D01*
X296881Y133869D01*
X296993Y133828D01*
X297075Y133815D01*
X297154Y133793D01*
X297273Y133784D01*
X297391Y133766D01*
X297473Y133770D01*
X297555Y133764D01*
X297674Y133779D01*
X297794Y133784D01*
X297873Y133804D01*
X297955Y133814D01*
X298068Y133852D01*
X298184Y133881D01*
X298259Y133916D01*
X298336Y133942D01*
X298440Y134002D01*
X298548Y134053D01*
X298614Y134102D01*
X298685Y134143D01*
X298802Y134242D01*
X298871Y134294D01*
X298898Y134324D01*
X298938Y134358D01*
X299851Y135271D01*
X310509Y135271D01*
X310984Y134796D01*
X310998Y134784D01*
X311009Y134771D01*
X311153Y134657D01*
X311295Y134541D01*
X311311Y134532D01*
X311325Y134521D01*
X311489Y134438D01*
X311651Y134352D01*
X311668Y134347D01*
X311684Y134339D01*
X311861Y134290D01*
X312037Y134237D01*
X312055Y134236D01*
X312072Y134231D01*
X312255Y134218D01*
X312438Y134201D01*
X312456Y134203D01*
X312473Y134202D01*
X312655Y134224D01*
X312838Y134244D01*
X312855Y134250D01*
X312873Y134252D01*
X313046Y134310D01*
X313222Y134366D01*
X313238Y134374D01*
X313254Y134380D01*
X313413Y134472D01*
X313574Y134561D01*
X313588Y134572D01*
X313603Y134581D01*
X313856Y134796D01*
X314331Y135271D01*
X324989Y135271D01*
X325902Y134358D01*
X325965Y134306D01*
X326022Y134247D01*
X326121Y134178D01*
X326213Y134103D01*
X326286Y134064D01*
X326353Y134017D01*
X326463Y133970D01*
X326569Y133914D01*
X326648Y133891D01*
X326723Y133858D01*
X326840Y133833D01*
X326955Y133799D01*
X327037Y133792D01*
X327117Y133775D01*
X327236Y133774D01*
X327356Y133763D01*
X327437Y133772D01*
X327520Y133771D01*
X327637Y133793D01*
X327756Y133806D01*
X327834Y133831D01*
X327915Y133847D01*
X328026Y133892D01*
X328140Y133928D01*
X328212Y133968D01*
X328288Y133999D01*
X328387Y134065D01*
X328492Y134123D01*
X328555Y134176D01*
X328623Y134221D01*
X328708Y134306D01*
X328799Y134383D01*
X328850Y134448D01*
X328908Y134506D01*
X328995Y134631D01*
X329049Y134699D01*
X329067Y134735D01*
X329097Y134778D01*
X329127Y134830D01*
X329600Y135303D01*
X330210Y135655D01*
X330258Y135673D01*
X330373Y135709D01*
X330386Y135716D01*
X330416Y135726D01*
X330457Y135748D01*
X330500Y135765D01*
X330632Y135847D01*
X330698Y135884D01*
X330727Y135901D01*
X330730Y135903D01*
X330767Y135923D01*
X330802Y135954D01*
X330841Y135979D01*
X330954Y136085D01*
X331072Y136187D01*
X331100Y136223D01*
X331134Y136255D01*
X331223Y136382D01*
X331318Y136505D01*
X331339Y136546D01*
X331366Y136584D01*
X331429Y136726D01*
X331498Y136865D01*
X331510Y136910D01*
X331528Y136953D01*
X331562Y137104D01*
X331602Y137254D01*
X331606Y137306D01*
X331615Y137346D01*
X331617Y137432D01*
X331629Y137585D01*
X331629Y147451D01*
X337671Y147451D01*
X337671Y141615D01*
X337498Y140969D01*
X337163Y140390D01*
X336690Y139917D01*
X336143Y139601D01*
X336084Y139558D01*
X336019Y139523D01*
X335921Y139441D01*
X335816Y139366D01*
X335766Y139313D01*
X335710Y139266D01*
X335629Y139166D01*
X335542Y139072D01*
X335503Y139009D01*
X335458Y138952D01*
X335398Y138838D01*
X335331Y138728D01*
X335306Y138659D01*
X335272Y138595D01*
X335237Y138471D01*
X335192Y138351D01*
X335181Y138278D01*
X335161Y138208D01*
X335150Y138080D01*
X335130Y137953D01*
X335134Y137880D01*
X335128Y137806D01*
X335143Y137679D01*
X335148Y137550D01*
X335166Y137479D01*
X335175Y137407D01*
X335214Y137284D01*
X335245Y137160D01*
X335277Y137093D01*
X335299Y137024D01*
X335363Y136912D01*
X335418Y136796D01*
X335461Y136737D01*
X335497Y136673D01*
X335581Y136576D01*
X335658Y136473D01*
X335713Y136424D01*
X335761Y136368D01*
X335862Y136290D01*
X335958Y136204D01*
X336021Y136167D01*
X336079Y136122D01*
X336194Y136064D01*
X336304Y135999D01*
X336374Y135975D01*
X336439Y135942D01*
X336563Y135909D01*
X336685Y135867D01*
X336757Y135857D01*
X336828Y135838D01*
X336997Y135824D01*
X337083Y135812D01*
X337116Y135814D01*
X337159Y135811D01*
X340495Y135811D01*
X341141Y135638D01*
X341720Y135303D01*
X342193Y134830D01*
X342528Y134251D01*
X342701Y133605D01*
X342701Y130519D01*
X335878Y130519D01*
X335860Y130517D01*
X335843Y130519D01*
X335660Y130498D01*
X335478Y130479D01*
X335461Y130474D01*
X335443Y130472D01*
X335268Y130415D01*
X335093Y130361D01*
X335077Y130353D01*
X335060Y130347D01*
X334900Y130257D01*
X334739Y130169D01*
X334725Y130158D01*
X334709Y130149D01*
X334570Y130029D01*
X334429Y129912D01*
X334418Y129898D01*
X334405Y129886D01*
X334292Y129741D01*
X334262Y129703D01*
X334134Y129593D01*
X333993Y129475D01*
X333982Y129462D01*
X333968Y129450D01*
X333856Y129305D01*
X333741Y129162D01*
X333733Y129146D01*
X333722Y129132D01*
X333640Y128967D01*
X333555Y128804D01*
X333550Y128787D01*
X333542Y128771D01*
X333494Y128593D01*
X333444Y128418D01*
X333442Y128400D01*
X333438Y128383D01*
X333411Y128052D01*
X333411Y120729D01*
X330825Y120729D01*
X330179Y120902D01*
X329600Y121237D01*
X329127Y121710D01*
X329097Y121762D01*
X329049Y121828D01*
X329009Y121900D01*
X328932Y121991D01*
X328862Y122089D01*
X328802Y122144D01*
X328749Y122207D01*
X328655Y122281D01*
X328567Y122363D01*
X328497Y122406D01*
X328433Y122457D01*
X328326Y122511D01*
X328224Y122574D01*
X328147Y122602D01*
X328074Y122639D01*
X327959Y122671D01*
X327847Y122712D01*
X327765Y122725D01*
X327686Y122747D01*
X327567Y122756D01*
X327449Y122774D01*
X327367Y122770D01*
X327285Y122776D01*
X327166Y122761D01*
X327046Y122756D01*
X326967Y122736D01*
X326885Y122726D01*
X326772Y122688D01*
X326656Y122659D01*
X326581Y122624D01*
X326504Y122598D01*
X326400Y122538D01*
X326292Y122487D01*
X326226Y122438D01*
X326155Y122397D01*
X326038Y122298D01*
X325969Y122246D01*
X325942Y122216D01*
X325902Y122182D01*
X324989Y121269D01*
X316375Y121269D01*
X316349Y121267D01*
X316322Y121269D01*
X316148Y121247D01*
X315975Y121229D01*
X315949Y121222D01*
X315923Y121218D01*
X315757Y121162D01*
X315590Y121111D01*
X315566Y121098D01*
X315541Y121090D01*
X315389Y121003D01*
X315236Y120919D01*
X315215Y120902D01*
X315192Y120889D01*
X314939Y120674D01*
X299488Y105223D01*
X299471Y105202D01*
X299450Y105185D01*
X299343Y105046D01*
X299233Y104911D01*
X299220Y104888D01*
X299204Y104867D01*
X299126Y104710D01*
X299044Y104556D01*
X299036Y104530D01*
X299024Y104506D01*
X298979Y104337D01*
X298929Y104170D01*
X298927Y104143D01*
X298920Y104117D01*
X298893Y103787D01*
X298893Y72362D01*
X298894Y72344D01*
X298893Y72326D01*
X298914Y72144D01*
X298933Y71961D01*
X298938Y71944D01*
X298940Y71927D01*
X298997Y71752D01*
X299051Y71576D01*
X299059Y71561D01*
X299065Y71544D01*
X299155Y71384D01*
X299242Y71222D01*
X299254Y71209D01*
X299263Y71193D01*
X299383Y71054D01*
X299500Y70913D01*
X299514Y70902D01*
X299526Y70888D01*
X299671Y70776D01*
X299814Y70661D01*
X299830Y70653D01*
X299844Y70642D01*
X300009Y70560D01*
X300171Y70475D01*
X300188Y70470D01*
X300204Y70462D01*
X300383Y70414D01*
X300558Y70364D01*
X300576Y70362D01*
X300593Y70358D01*
X300924Y70331D01*
X308199Y70331D01*
X308362Y70347D01*
X308526Y70357D01*
X308562Y70367D01*
X308600Y70371D01*
X308756Y70419D01*
X308915Y70461D01*
X308953Y70479D01*
X308985Y70489D01*
X309061Y70530D01*
X309215Y70603D01*
X309379Y70698D01*
X310025Y70871D01*
X310828Y70871D01*
X310828Y56830D01*
X310830Y56813D01*
X310828Y56795D01*
X310850Y56612D01*
X310868Y56430D01*
X310873Y56413D01*
X310875Y56395D01*
X310932Y56220D01*
X310986Y56045D01*
X310995Y56029D01*
X311000Y56012D01*
X311091Y55852D01*
X311178Y55691D01*
X311189Y55677D01*
X311198Y55661D01*
X311318Y55522D01*
X311436Y55381D01*
X311450Y55370D01*
X311461Y55357D01*
X311462Y55356D01*
X311607Y55244D01*
X311750Y55129D01*
X311766Y55120D01*
X311780Y55109D01*
X311945Y55027D01*
X312107Y54943D01*
X312124Y54938D01*
X312140Y54930D01*
X312318Y54882D01*
X312494Y54832D01*
X312512Y54830D01*
X312529Y54826D01*
X312860Y54799D01*
X317900Y54799D01*
X317900Y44995D01*
X317727Y44349D01*
X317393Y43770D01*
X316919Y43297D01*
X316376Y42983D01*
X316302Y42930D01*
X316223Y42885D01*
X316139Y42813D01*
X316049Y42748D01*
X315987Y42682D01*
X315918Y42622D01*
X315851Y42535D01*
X315775Y42454D01*
X315727Y42376D01*
X315672Y42304D01*
X315622Y42205D01*
X315564Y42111D01*
X315533Y42025D01*
X315492Y41944D01*
X315464Y41837D01*
X315425Y41733D01*
X315411Y41643D01*
X315388Y41555D01*
X315377Y41418D01*
X315364Y41335D01*
X315366Y41287D01*
X315361Y41224D01*
X315361Y40403D01*
X315362Y40385D01*
X315361Y40367D01*
X315382Y40185D01*
X315401Y40002D01*
X315406Y39985D01*
X315408Y39967D01*
X315465Y39793D01*
X315519Y39617D01*
X315527Y39601D01*
X315533Y39584D01*
X315623Y39424D01*
X315710Y39263D01*
X315722Y39249D01*
X315731Y39234D01*
X315851Y39095D01*
X315968Y38954D01*
X315982Y38943D01*
X315994Y38929D01*
X316139Y38817D01*
X316282Y38701D01*
X316298Y38693D01*
X316312Y38682D01*
X316477Y38600D01*
X316639Y38516D01*
X316656Y38511D01*
X316672Y38503D01*
X316851Y38455D01*
X317026Y38405D01*
X317044Y38403D01*
X317061Y38398D01*
X317392Y38371D01*
X319743Y38371D01*
X322132Y37382D01*
X323961Y35553D01*
X324951Y33164D01*
X324951Y32197D01*
X324952Y32179D01*
X324951Y32161D01*
X324972Y31979D01*
X324991Y31796D01*
X324996Y31779D01*
X324998Y31761D01*
X325055Y31587D01*
X325109Y31411D01*
X325117Y31395D01*
X325123Y31378D01*
X325213Y31218D01*
X325300Y31057D01*
X325312Y31043D01*
X325321Y31028D01*
X325441Y30889D01*
X325558Y30748D01*
X325572Y30737D01*
X325584Y30723D01*
X325729Y30611D01*
X325872Y30495D01*
X325888Y30487D01*
X325902Y30476D01*
X326067Y30394D01*
X326229Y30310D01*
X326246Y30305D01*
X326262Y30297D01*
X326441Y30249D01*
X326616Y30199D01*
X326634Y30197D01*
X326651Y30192D01*
X326982Y30165D01*
X335360Y30165D01*
X335361Y30165D01*
X335361Y18903D01*
X335362Y18886D01*
X335361Y18868D01*
X335382Y18685D01*
X335401Y18503D01*
X335406Y18486D01*
X335408Y18468D01*
X335465Y18293D01*
X335519Y18118D01*
X335527Y18102D01*
X335533Y18085D01*
X335623Y17925D01*
X335710Y17764D01*
X335722Y17750D01*
X335731Y17734D01*
X335851Y17595D01*
X335968Y17454D01*
X335982Y17443D01*
X335994Y17430D01*
X336139Y17317D01*
X336282Y17202D01*
X336297Y17194D01*
X336297Y3863D01*
X336299Y3846D01*
X336297Y3828D01*
X336319Y3646D01*
X336337Y3463D01*
X336342Y3446D01*
X336344Y3428D01*
X336401Y3253D01*
X336455Y3078D01*
X336463Y3062D01*
X336469Y3045D01*
X336559Y2885D01*
X336647Y2724D01*
X336658Y2710D01*
X336667Y2695D01*
X336787Y2555D01*
X336904Y2415D01*
X336918Y2403D01*
X336930Y2390D01*
X337075Y2277D01*
X337218Y2162D01*
X337234Y2154D01*
X337248Y2143D01*
X337413Y2061D01*
X337575Y1977D01*
X337592Y1972D01*
X337609Y1964D01*
X337787Y1916D01*
X337962Y1865D01*
X337980Y1864D01*
X337997Y1859D01*
X338328Y1832D01*
X340361Y1832D01*
X340361Y-201D01*
X340363Y-218D01*
X340361Y-236D01*
X340383Y-418D01*
X340401Y-601D01*
X340406Y-618D01*
X340408Y-636D01*
X340465Y-811D01*
X340519Y-986D01*
X340527Y-1002D01*
X340533Y-1019D01*
X340623Y-1179D01*
X340711Y-1340D01*
X340722Y-1354D01*
X340731Y-1369D01*
X340851Y-1509D01*
X340968Y-1649D01*
X340982Y-1661D01*
X340994Y-1674D01*
X341139Y-1787D01*
X341282Y-1902D01*
X341298Y-1910D01*
X341312Y-1921D01*
X341477Y-2003D01*
X341639Y-2087D01*
X341657Y-2092D01*
X341673Y-2100D01*
X341851Y-2148D01*
X342026Y-2199D01*
X342044Y-2200D01*
X342061Y-2205D01*
X342392Y-2232D01*
X352901Y-2232D01*
X352901Y-8668D01*
X352902Y-8686D01*
X352901Y-8704D01*
X352922Y-8886D01*
X352941Y-9069D01*
X352946Y-9086D01*
X352948Y-9103D01*
X353005Y-9278D01*
X353059Y-9454D01*
X353067Y-9469D01*
X353073Y-9486D01*
X353163Y-9646D01*
X353250Y-9808D01*
X353262Y-9821D01*
X353271Y-9837D01*
X353391Y-9976D01*
X353508Y-10117D01*
X353522Y-10128D01*
X353534Y-10142D01*
X353679Y-10254D01*
X353822Y-10369D01*
X353838Y-10377D01*
X353852Y-10388D01*
X354017Y-10470D01*
X354179Y-10555D01*
X354196Y-10560D01*
X354212Y-10568D01*
X354391Y-10615D01*
X354566Y-10666D01*
X354584Y-10668D01*
X354601Y-10672D01*
X354932Y-10699D01*
X365968Y-10699D01*
X365986Y-10697D01*
G37*
G36*
X416785Y228309D02*
X416785Y228309D01*
X416794Y228308D01*
X416983Y228331D01*
X417176Y228352D01*
X417185Y228354D01*
X417193Y228355D01*
X417376Y228415D01*
X417560Y228473D01*
X417568Y228477D01*
X417576Y228480D01*
X417743Y228574D01*
X417912Y228668D01*
X417919Y228674D01*
X417927Y228678D01*
X418072Y228803D01*
X418219Y228928D01*
X418225Y228935D01*
X418232Y228941D01*
X418349Y229093D01*
X418469Y229244D01*
X418473Y229252D01*
X418478Y229259D01*
X418564Y229431D01*
X418651Y229603D01*
X418654Y229612D01*
X418658Y229620D01*
X418707Y229805D01*
X418759Y229991D01*
X418760Y230000D01*
X418762Y230009D01*
X418789Y230339D01*
X418789Y396222D01*
X418787Y396240D01*
X418789Y396258D01*
X418768Y396440D01*
X418749Y396623D01*
X418744Y396640D01*
X418742Y396657D01*
X418685Y396832D01*
X418631Y397008D01*
X418623Y397023D01*
X418617Y397040D01*
X418527Y397200D01*
X418439Y397362D01*
X418428Y397375D01*
X418419Y397391D01*
X418299Y397530D01*
X418182Y397671D01*
X418168Y397682D01*
X418156Y397696D01*
X418011Y397808D01*
X417868Y397923D01*
X417852Y397931D01*
X417838Y397942D01*
X417673Y398024D01*
X417511Y398109D01*
X417494Y398114D01*
X417478Y398122D01*
X417299Y398169D01*
X417124Y398220D01*
X417106Y398222D01*
X417089Y398226D01*
X416758Y398253D01*
X213743Y398253D01*
X212571Y399425D01*
X212571Y416012D01*
X212569Y416030D01*
X212571Y416048D01*
X212550Y416230D01*
X212531Y416413D01*
X212526Y416430D01*
X212524Y416447D01*
X212467Y416622D01*
X212413Y416798D01*
X212405Y416813D01*
X212399Y416830D01*
X212309Y416990D01*
X212221Y417152D01*
X212210Y417165D01*
X212201Y417181D01*
X212081Y417320D01*
X211964Y417461D01*
X211950Y417472D01*
X211938Y417486D01*
X211793Y417598D01*
X211650Y417713D01*
X211634Y417721D01*
X211620Y417732D01*
X211455Y417814D01*
X211293Y417899D01*
X211276Y417904D01*
X211260Y417912D01*
X211081Y417959D01*
X210906Y418010D01*
X210888Y418012D01*
X210871Y418016D01*
X210540Y418043D01*
X210005Y418043D01*
X207962Y418889D01*
X206399Y420452D01*
X205553Y422495D01*
X205553Y424705D01*
X206399Y426748D01*
X208165Y428514D01*
X208177Y428527D01*
X208190Y428539D01*
X208304Y428683D01*
X208420Y428825D01*
X208429Y428841D01*
X208440Y428855D01*
X208523Y429019D01*
X208609Y429181D01*
X208614Y429198D01*
X208622Y429214D01*
X208671Y429391D01*
X208724Y429567D01*
X208725Y429585D01*
X208730Y429602D01*
X208744Y429785D01*
X208760Y429968D01*
X208758Y429986D01*
X208760Y430003D01*
X208737Y430185D01*
X208717Y430368D01*
X208711Y430385D01*
X208709Y430403D01*
X208651Y430576D01*
X208595Y430752D01*
X208587Y430768D01*
X208581Y430784D01*
X208489Y430943D01*
X208400Y431104D01*
X208389Y431118D01*
X208380Y431133D01*
X208165Y431386D01*
X206399Y433152D01*
X205553Y435195D01*
X205553Y437405D01*
X205555Y437411D01*
X205559Y437423D01*
X205566Y437435D01*
X205617Y437616D01*
X205672Y437796D01*
X205673Y437809D01*
X205677Y437822D01*
X205692Y438010D01*
X205710Y438197D01*
X205709Y438210D01*
X205710Y438224D01*
X205688Y438411D01*
X205668Y438597D01*
X205664Y438610D01*
X205663Y438623D01*
X205605Y438802D01*
X205549Y438982D01*
X205542Y438993D01*
X205538Y439006D01*
X205446Y439170D01*
X205355Y439335D01*
X205347Y439345D01*
X205340Y439357D01*
X205217Y439499D01*
X205096Y439643D01*
X205086Y439651D01*
X205077Y439662D01*
X204929Y439776D01*
X204782Y439894D01*
X204769Y439900D01*
X204759Y439908D01*
X204591Y439992D01*
X204423Y440078D01*
X204410Y440082D01*
X204398Y440088D01*
X204217Y440136D01*
X204036Y440188D01*
X204023Y440189D01*
X204010Y440192D01*
X203679Y440219D01*
X136064Y440219D01*
X136046Y440217D01*
X136028Y440219D01*
X135846Y440198D01*
X135663Y440179D01*
X135646Y440174D01*
X135629Y440172D01*
X135454Y440115D01*
X135278Y440061D01*
X135263Y440053D01*
X135246Y440047D01*
X135086Y439957D01*
X134924Y439869D01*
X134911Y439858D01*
X134895Y439849D01*
X134756Y439729D01*
X134615Y439612D01*
X134604Y439598D01*
X134590Y439586D01*
X134478Y439441D01*
X134363Y439298D01*
X134355Y439282D01*
X134344Y439268D01*
X134262Y439103D01*
X134177Y438941D01*
X134172Y438924D01*
X134164Y438908D01*
X134117Y438729D01*
X134066Y438554D01*
X134064Y438536D01*
X134060Y438519D01*
X134033Y438188D01*
X134033Y431188D01*
X134035Y431170D01*
X134033Y431152D01*
X134054Y430970D01*
X134073Y430787D01*
X134078Y430770D01*
X134080Y430753D01*
X134137Y430578D01*
X134191Y430402D01*
X134199Y430387D01*
X134205Y430370D01*
X134295Y430210D01*
X134383Y430048D01*
X134394Y430035D01*
X134403Y430019D01*
X134523Y429880D01*
X134640Y429739D01*
X134654Y429728D01*
X134666Y429714D01*
X134811Y429602D01*
X134954Y429487D01*
X134970Y429479D01*
X134984Y429468D01*
X135149Y429386D01*
X135311Y429301D01*
X135328Y429296D01*
X135344Y429288D01*
X135523Y429241D01*
X135698Y429190D01*
X135716Y429188D01*
X135733Y429184D01*
X136064Y429157D01*
X136777Y429157D01*
X138820Y428311D01*
X140418Y426713D01*
X140431Y426690D01*
X140515Y426532D01*
X140530Y426515D01*
X140541Y426495D01*
X140658Y426360D01*
X140772Y426221D01*
X140789Y426207D01*
X140804Y426190D01*
X140945Y426081D01*
X141084Y425968D01*
X141104Y425957D01*
X141122Y425944D01*
X141282Y425864D01*
X141441Y425781D01*
X141462Y425774D01*
X141482Y425764D01*
X141656Y425718D01*
X141827Y425668D01*
X141849Y425666D01*
X141871Y425660D01*
X142202Y425633D01*
X166338Y425633D01*
X268043Y323928D01*
X268063Y323911D01*
X268081Y323890D01*
X268219Y323783D01*
X268354Y323673D01*
X268378Y323660D01*
X268399Y323644D01*
X268556Y323566D01*
X268710Y323484D01*
X268735Y323476D01*
X268760Y323464D01*
X268929Y323419D01*
X269096Y323369D01*
X269122Y323367D01*
X269148Y323360D01*
X269479Y323333D01*
X280115Y323333D01*
X280141Y323335D01*
X280168Y323333D01*
X280342Y323355D01*
X280515Y323373D01*
X280541Y323381D01*
X280568Y323384D01*
X280733Y323439D01*
X280900Y323491D01*
X280924Y323504D01*
X280949Y323512D01*
X281100Y323599D01*
X281254Y323683D01*
X281275Y323700D01*
X281298Y323713D01*
X281551Y323928D01*
X282074Y324451D01*
X293884Y324451D01*
X293902Y324453D01*
X293920Y324451D01*
X294102Y324472D01*
X294285Y324491D01*
X294302Y324496D01*
X294319Y324498D01*
X294494Y324555D01*
X294670Y324609D01*
X294685Y324617D01*
X294702Y324623D01*
X294862Y324713D01*
X295024Y324801D01*
X295037Y324812D01*
X295053Y324821D01*
X295192Y324941D01*
X295333Y325058D01*
X295344Y325072D01*
X295358Y325084D01*
X295470Y325229D01*
X295585Y325372D01*
X295593Y325388D01*
X295604Y325402D01*
X295686Y325567D01*
X295771Y325729D01*
X295776Y325746D01*
X295784Y325762D01*
X295831Y325940D01*
X295882Y326116D01*
X295884Y326134D01*
X295888Y326151D01*
X295915Y326482D01*
X295915Y328355D01*
X295913Y328373D01*
X295915Y328391D01*
X295894Y328573D01*
X295875Y328756D01*
X295870Y328773D01*
X295868Y328790D01*
X295811Y328965D01*
X295757Y329141D01*
X295749Y329156D01*
X295743Y329173D01*
X295653Y329333D01*
X295565Y329495D01*
X295554Y329508D01*
X295545Y329524D01*
X295425Y329663D01*
X295308Y329804D01*
X295294Y329815D01*
X295282Y329829D01*
X295137Y329941D01*
X294994Y330056D01*
X294978Y330064D01*
X294964Y330075D01*
X294799Y330157D01*
X294637Y330242D01*
X294620Y330247D01*
X294604Y330255D01*
X294425Y330302D01*
X294250Y330353D01*
X294232Y330355D01*
X294215Y330359D01*
X293884Y330386D01*
X290775Y330386D01*
X282103Y339058D01*
X282083Y339075D01*
X282065Y339096D01*
X281927Y339203D01*
X281792Y339313D01*
X281768Y339326D01*
X281747Y339342D01*
X281590Y339420D01*
X281436Y339502D01*
X281411Y339510D01*
X281386Y339522D01*
X281217Y339567D01*
X281050Y339617D01*
X281024Y339619D01*
X280998Y339626D01*
X280667Y339653D01*
X278502Y339653D01*
X276841Y340341D01*
X275571Y341611D01*
X274883Y343272D01*
X274883Y345437D01*
X274881Y345464D01*
X274883Y345490D01*
X274861Y345664D01*
X274843Y345838D01*
X274836Y345863D01*
X274832Y345890D01*
X274776Y346056D01*
X274725Y346223D01*
X274712Y346246D01*
X274704Y346271D01*
X274617Y346423D01*
X274533Y346577D01*
X274516Y346597D01*
X274503Y346620D01*
X274288Y346873D01*
X266570Y354592D01*
X266516Y354751D01*
X266465Y354917D01*
X266452Y354941D01*
X266444Y354967D01*
X266356Y355118D01*
X266273Y355271D01*
X266256Y355292D01*
X266243Y355316D01*
X266028Y355568D01*
X265952Y355645D01*
X265931Y355661D01*
X265914Y355682D01*
X265776Y355788D01*
X265640Y355900D01*
X265617Y355912D01*
X265596Y355928D01*
X265439Y356006D01*
X265285Y356088D01*
X265259Y356096D01*
X265235Y356108D01*
X265065Y356153D01*
X264899Y356203D01*
X264872Y356205D01*
X264847Y356212D01*
X264516Y356239D01*
X257441Y356239D01*
X256269Y357411D01*
X256269Y368069D01*
X256742Y368542D01*
X256754Y368556D01*
X256767Y368567D01*
X256881Y368711D01*
X256997Y368853D01*
X257006Y368869D01*
X257017Y368883D01*
X257100Y369047D01*
X257186Y369209D01*
X257191Y369226D01*
X257199Y369242D01*
X257249Y369419D01*
X257301Y369595D01*
X257302Y369613D01*
X257307Y369630D01*
X257321Y369813D01*
X257337Y369996D01*
X257335Y370014D01*
X257337Y370031D01*
X257314Y370214D01*
X257294Y370396D01*
X257288Y370413D01*
X257286Y370431D01*
X257228Y370605D01*
X257172Y370780D01*
X257164Y370796D01*
X257158Y370813D01*
X257067Y370971D01*
X256978Y371132D01*
X256966Y371146D01*
X256957Y371161D01*
X256742Y371414D01*
X256237Y371920D01*
X255902Y372499D01*
X255729Y373145D01*
X255729Y375949D01*
X262270Y375949D01*
X262287Y375950D01*
X262305Y375949D01*
X262488Y375970D01*
X262670Y375988D01*
X262687Y375994D01*
X262705Y375996D01*
X262880Y376053D01*
X263055Y376107D01*
X263071Y376115D01*
X263088Y376121D01*
X263248Y376211D01*
X263409Y376298D01*
X263423Y376310D01*
X263438Y376319D01*
X263578Y376439D01*
X263718Y376556D01*
X263719Y376556D01*
X263719Y376557D01*
X263730Y376570D01*
X263743Y376582D01*
X263744Y376582D01*
X263856Y376727D01*
X263971Y376870D01*
X263980Y376886D01*
X263990Y376900D01*
X264072Y377065D01*
X264157Y377228D01*
X264162Y377245D01*
X264170Y377261D01*
X264218Y377439D01*
X264268Y377615D01*
X264270Y377632D01*
X264274Y377650D01*
X264301Y377980D01*
X264301Y385021D01*
X266605Y385021D01*
X267260Y384845D01*
X267378Y384792D01*
X267517Y384721D01*
X267561Y384709D01*
X267604Y384690D01*
X267755Y384655D01*
X267904Y384613D01*
X267951Y384610D01*
X267996Y384600D01*
X268151Y384595D01*
X268306Y384584D01*
X268352Y384590D01*
X268399Y384589D01*
X268551Y384615D01*
X268705Y384634D01*
X268750Y384649D01*
X268795Y384657D01*
X268940Y384713D01*
X269087Y384763D01*
X269127Y384786D01*
X269171Y384803D01*
X269302Y384886D01*
X269436Y384964D01*
X269476Y384998D01*
X269510Y385019D01*
X269572Y385079D01*
X269689Y385178D01*
X271351Y386841D01*
X280426Y386841D01*
X280452Y386843D01*
X280479Y386841D01*
X280653Y386863D01*
X280826Y386881D01*
X280852Y386888D01*
X280879Y386892D01*
X281044Y386947D01*
X281211Y386999D01*
X281235Y387012D01*
X281260Y387020D01*
X281412Y387107D01*
X281565Y387191D01*
X281586Y387208D01*
X281609Y387221D01*
X281862Y387436D01*
X286730Y392304D01*
X333715Y392304D01*
X333741Y392306D01*
X333768Y392304D01*
X333942Y392326D01*
X334115Y392344D01*
X334141Y392351D01*
X334167Y392355D01*
X334333Y392410D01*
X334500Y392462D01*
X334524Y392475D01*
X334549Y392483D01*
X334701Y392570D01*
X334854Y392654D01*
X334875Y392671D01*
X334898Y392684D01*
X335151Y392899D01*
X335581Y393329D01*
X337242Y394017D01*
X339038Y394017D01*
X340699Y393329D01*
X341969Y392059D01*
X342657Y390398D01*
X342657Y388872D01*
X342659Y388854D01*
X342657Y388836D01*
X342678Y388654D01*
X342697Y388471D01*
X342702Y388454D01*
X342704Y388437D01*
X342761Y388262D01*
X342815Y388086D01*
X342823Y388071D01*
X342829Y388054D01*
X342919Y387894D01*
X343007Y387732D01*
X343018Y387719D01*
X343027Y387703D01*
X343147Y387564D01*
X343264Y387423D01*
X343278Y387412D01*
X343290Y387398D01*
X343435Y387286D01*
X343578Y387171D01*
X343594Y387163D01*
X343608Y387152D01*
X343707Y387102D01*
X345141Y385669D01*
X345141Y372649D01*
X345155Y372504D01*
X345162Y372357D01*
X345175Y372303D01*
X345181Y372248D01*
X345224Y372108D01*
X345259Y371967D01*
X345282Y371917D01*
X345299Y371863D01*
X345368Y371735D01*
X345431Y371603D01*
X345464Y371558D01*
X345491Y371509D01*
X345584Y371397D01*
X345672Y371280D01*
X345713Y371243D01*
X345748Y371200D01*
X345862Y371109D01*
X345971Y371011D01*
X346019Y370983D01*
X346062Y370948D01*
X346192Y370881D01*
X346318Y370806D01*
X346370Y370788D01*
X346419Y370762D01*
X346560Y370722D01*
X346698Y370674D01*
X346753Y370666D01*
X346806Y370651D01*
X346952Y370639D01*
X347097Y370619D01*
X347152Y370623D01*
X347208Y370618D01*
X347353Y370635D01*
X347499Y370644D01*
X347552Y370658D01*
X347607Y370665D01*
X347747Y370710D01*
X347888Y370748D01*
X347945Y370775D01*
X347990Y370790D01*
X348063Y370831D01*
X348188Y370890D01*
X348599Y371128D01*
X349245Y371301D01*
X350549Y371301D01*
X350549Y365760D01*
X350550Y365743D01*
X350549Y365725D01*
X350570Y365542D01*
X350588Y365360D01*
X350594Y365343D01*
X350596Y365325D01*
X350653Y365150D01*
X350707Y364975D01*
X350715Y364959D01*
X350721Y364942D01*
X350811Y364782D01*
X350898Y364621D01*
X350910Y364607D01*
X350919Y364592D01*
X351039Y364452D01*
X351156Y364312D01*
X351170Y364300D01*
X351182Y364287D01*
X351327Y364174D01*
X351470Y364059D01*
X351486Y364051D01*
X351500Y364040D01*
X351665Y363958D01*
X351827Y363874D01*
X351844Y363869D01*
X351860Y363861D01*
X352038Y363813D01*
X352214Y363762D01*
X352232Y363761D01*
X352249Y363756D01*
X352580Y363729D01*
X352598Y363731D01*
X352615Y363729D01*
X352616Y363729D01*
X352798Y363751D01*
X352981Y363769D01*
X352998Y363774D01*
X353016Y363776D01*
X353190Y363833D01*
X353366Y363887D01*
X353381Y363896D01*
X353398Y363901D01*
X353559Y363992D01*
X353720Y364079D01*
X353733Y364090D01*
X353749Y364099D01*
X353888Y364219D01*
X354029Y364337D01*
X354040Y364351D01*
X354054Y364362D01*
X354166Y364507D01*
X354281Y364650D01*
X354290Y364666D01*
X354300Y364680D01*
X354382Y364845D01*
X354467Y365008D01*
X354472Y365025D01*
X354480Y365041D01*
X354528Y365219D01*
X354578Y365395D01*
X354580Y365412D01*
X354584Y365430D01*
X354611Y365760D01*
X354611Y371301D01*
X355915Y371301D01*
X356561Y371128D01*
X357140Y370793D01*
X357538Y370396D01*
X357558Y370379D01*
X357576Y370358D01*
X357714Y370251D01*
X357849Y370141D01*
X357873Y370128D01*
X357894Y370112D01*
X358051Y370034D01*
X358205Y369952D01*
X358230Y369944D01*
X358254Y369932D01*
X358424Y369887D01*
X358591Y369837D01*
X358617Y369835D01*
X358643Y369828D01*
X358974Y369801D01*
X367582Y369801D01*
X367600Y369802D01*
X367617Y369801D01*
X367800Y369822D01*
X367982Y369841D01*
X367999Y369846D01*
X368017Y369848D01*
X368192Y369905D01*
X368367Y369959D01*
X368383Y369967D01*
X368400Y369973D01*
X368560Y370063D01*
X368721Y370150D01*
X368735Y370162D01*
X368751Y370171D01*
X368890Y370291D01*
X369031Y370408D01*
X369042Y370422D01*
X369055Y370434D01*
X369168Y370579D01*
X369283Y370722D01*
X369291Y370738D01*
X369302Y370752D01*
X369384Y370917D01*
X369468Y371079D01*
X369473Y371096D01*
X369481Y371112D01*
X369529Y371291D01*
X369580Y371466D01*
X369581Y371484D01*
X369586Y371501D01*
X369606Y371743D01*
X369736Y371759D01*
X369919Y371777D01*
X369936Y371782D01*
X369953Y371784D01*
X370128Y371841D01*
X370304Y371895D01*
X370319Y371903D01*
X370336Y371909D01*
X370496Y371999D01*
X370658Y372087D01*
X370671Y372098D01*
X370687Y372107D01*
X370826Y372227D01*
X370967Y372345D01*
X370978Y372358D01*
X370992Y372370D01*
X371104Y372515D01*
X371219Y372658D01*
X371227Y372674D01*
X371238Y372688D01*
X371320Y372853D01*
X371405Y373016D01*
X371410Y373033D01*
X371418Y373049D01*
X371465Y373227D01*
X371516Y373402D01*
X371518Y373420D01*
X371522Y373437D01*
X371549Y373768D01*
X371549Y381341D01*
X375885Y381341D01*
X376531Y381168D01*
X377110Y380833D01*
X377583Y380360D01*
X377979Y379675D01*
X378027Y379608D01*
X378067Y379536D01*
X378144Y379445D01*
X378214Y379347D01*
X378274Y379292D01*
X378327Y379229D01*
X378421Y379155D01*
X378508Y379073D01*
X378578Y379030D01*
X378643Y378979D01*
X378750Y378925D01*
X378852Y378862D01*
X378929Y378834D01*
X379002Y378797D01*
X379117Y378765D01*
X379229Y378724D01*
X379310Y378711D01*
X379390Y378689D01*
X379509Y378680D01*
X379627Y378662D01*
X379709Y378666D01*
X379791Y378660D01*
X379910Y378675D01*
X380029Y378680D01*
X380109Y378700D01*
X380191Y378710D01*
X380304Y378748D01*
X380420Y378777D01*
X380495Y378812D01*
X380572Y378838D01*
X380676Y378898D01*
X380784Y378949D01*
X380850Y378998D01*
X380921Y379039D01*
X381038Y379138D01*
X381107Y379190D01*
X381134Y379220D01*
X381174Y379254D01*
X382721Y380801D01*
X398379Y380801D01*
X399551Y379629D01*
X399551Y365939D01*
X399443Y365807D01*
X399434Y365791D01*
X399423Y365777D01*
X399340Y365614D01*
X399254Y365451D01*
X399249Y365434D01*
X399241Y365418D01*
X399191Y365241D01*
X399139Y365065D01*
X399138Y365047D01*
X399133Y365030D01*
X399119Y364846D01*
X399103Y364664D01*
X399105Y364646D01*
X399103Y364629D01*
X399126Y364446D01*
X399146Y364264D01*
X399152Y364247D01*
X399154Y364229D01*
X399212Y364055D01*
X399268Y363880D01*
X399276Y363864D01*
X399282Y363847D01*
X399374Y363688D01*
X399462Y363528D01*
X399474Y363514D01*
X399483Y363499D01*
X399546Y363424D01*
X399918Y362781D01*
X400091Y362135D01*
X400091Y358799D01*
X391518Y358799D01*
X391500Y358797D01*
X391483Y358799D01*
X391300Y358778D01*
X391118Y358759D01*
X391101Y358754D01*
X391083Y358752D01*
X390908Y358695D01*
X390733Y358641D01*
X390717Y358633D01*
X390700Y358627D01*
X390540Y358537D01*
X390379Y358449D01*
X390365Y358438D01*
X390349Y358429D01*
X390210Y358309D01*
X390069Y358192D01*
X390058Y358178D01*
X390045Y358166D01*
X389932Y358021D01*
X389817Y357878D01*
X389809Y357862D01*
X389798Y357848D01*
X389716Y357683D01*
X389632Y357521D01*
X389627Y357504D01*
X389619Y357488D01*
X389571Y357309D01*
X389520Y357134D01*
X389519Y357116D01*
X389514Y357099D01*
X389487Y356768D01*
X389487Y354832D01*
X389489Y354814D01*
X389487Y354796D01*
X389509Y354614D01*
X389527Y354431D01*
X389532Y354414D01*
X389534Y354397D01*
X389591Y354222D01*
X389645Y354046D01*
X389653Y354031D01*
X389659Y354014D01*
X389749Y353854D01*
X389837Y353692D01*
X389848Y353679D01*
X389857Y353663D01*
X389977Y353524D01*
X390095Y353383D01*
X390108Y353372D01*
X390120Y353358D01*
X390265Y353246D01*
X390408Y353131D01*
X390424Y353123D01*
X390438Y353112D01*
X390603Y353030D01*
X390766Y352945D01*
X390783Y352940D01*
X390799Y352932D01*
X390977Y352884D01*
X391152Y352834D01*
X391170Y352832D01*
X391187Y352828D01*
X391518Y352801D01*
X400091Y352801D01*
X400091Y349465D01*
X399918Y348819D01*
X399583Y348240D01*
X399110Y347767D01*
X398531Y347432D01*
X397885Y347259D01*
X396064Y347259D01*
X395983Y347251D01*
X395900Y347253D01*
X395783Y347231D01*
X395664Y347219D01*
X395585Y347195D01*
X395504Y347181D01*
X395393Y347136D01*
X395279Y347101D01*
X395207Y347062D01*
X395130Y347032D01*
X395030Y346966D01*
X394925Y346909D01*
X394862Y346857D01*
X394793Y346812D01*
X394707Y346728D01*
X394616Y346652D01*
X394564Y346588D01*
X394505Y346530D01*
X394438Y346431D01*
X394363Y346338D01*
X394325Y346265D01*
X394279Y346197D01*
X394233Y346087D01*
X394178Y345981D01*
X394155Y345902D01*
X394123Y345826D01*
X394099Y345709D01*
X394066Y345594D01*
X394060Y345512D01*
X394043Y345431D01*
X394043Y345312D01*
X394033Y345192D01*
X394043Y345111D01*
X394043Y345029D01*
X394070Y344879D01*
X394080Y344793D01*
X394093Y344754D01*
X394102Y344702D01*
X394161Y344485D01*
X394161Y343181D01*
X388620Y343181D01*
X388603Y343180D01*
X388585Y343181D01*
X388402Y343160D01*
X388220Y343141D01*
X388203Y343136D01*
X388185Y343134D01*
X388010Y343077D01*
X387835Y343023D01*
X387819Y343015D01*
X387802Y343009D01*
X387642Y342919D01*
X387481Y342832D01*
X387467Y342820D01*
X387452Y342811D01*
X387312Y342691D01*
X387172Y342574D01*
X387160Y342560D01*
X387147Y342548D01*
X387034Y342403D01*
X386919Y342260D01*
X386911Y342244D01*
X386900Y342230D01*
X386818Y342065D01*
X386734Y341903D01*
X386729Y341886D01*
X386721Y341870D01*
X386673Y341692D01*
X386622Y341516D01*
X386621Y341498D01*
X386616Y341481D01*
X386589Y341150D01*
X386591Y341132D01*
X386589Y341115D01*
X386589Y341114D01*
X386611Y340932D01*
X386629Y340749D01*
X386634Y340732D01*
X386636Y340714D01*
X386693Y340540D01*
X386747Y340364D01*
X386756Y340349D01*
X386761Y340332D01*
X386852Y340171D01*
X386939Y340010D01*
X386950Y339997D01*
X386959Y339981D01*
X387079Y339842D01*
X387197Y339701D01*
X387211Y339690D01*
X387222Y339676D01*
X387367Y339564D01*
X387510Y339449D01*
X387526Y339440D01*
X387540Y339430D01*
X387705Y339348D01*
X387868Y339263D01*
X387885Y339258D01*
X387901Y339250D01*
X388079Y339202D01*
X388255Y339152D01*
X388272Y339150D01*
X388290Y339146D01*
X388620Y339119D01*
X394161Y339119D01*
X394161Y337815D01*
X393988Y337169D01*
X393653Y336590D01*
X393180Y336117D01*
X392796Y335895D01*
X392722Y335842D01*
X392643Y335798D01*
X392559Y335725D01*
X392469Y335660D01*
X392407Y335594D01*
X392338Y335534D01*
X392271Y335447D01*
X392195Y335366D01*
X392147Y335288D01*
X392092Y335216D01*
X392042Y335117D01*
X391984Y335023D01*
X391953Y334937D01*
X391912Y334856D01*
X391884Y334749D01*
X391845Y334645D01*
X391831Y334555D01*
X391808Y334467D01*
X391797Y334330D01*
X391784Y334247D01*
X391786Y334199D01*
X391781Y334136D01*
X391781Y326879D01*
X383739Y326879D01*
X383739Y330715D01*
X383912Y331361D01*
X384247Y331940D01*
X384775Y332468D01*
X384793Y332479D01*
X384832Y332518D01*
X384878Y332550D01*
X384977Y332657D01*
X385083Y332759D01*
X385114Y332804D01*
X385152Y332845D01*
X385228Y332970D01*
X385312Y333090D01*
X385334Y333141D01*
X385363Y333188D01*
X385413Y333326D01*
X385471Y333460D01*
X385482Y333514D01*
X385502Y333566D01*
X385524Y333711D01*
X385554Y333854D01*
X385555Y333909D01*
X385563Y333964D01*
X385557Y334110D01*
X385558Y334256D01*
X385548Y334311D01*
X385545Y334366D01*
X385510Y334508D01*
X385483Y334652D01*
X385462Y334703D01*
X385448Y334757D01*
X385386Y334889D01*
X385331Y335024D01*
X385300Y335071D01*
X385276Y335121D01*
X385189Y335238D01*
X385108Y335360D01*
X385069Y335399D01*
X385036Y335443D01*
X384927Y335541D01*
X384823Y335645D01*
X384772Y335681D01*
X384736Y335713D01*
X384664Y335755D01*
X384551Y335834D01*
X384266Y335998D01*
X384125Y336062D01*
X383987Y336132D01*
X383942Y336144D01*
X383899Y336164D01*
X383748Y336198D01*
X383599Y336240D01*
X383552Y336243D01*
X383507Y336254D01*
X383352Y336258D01*
X383197Y336269D01*
X383151Y336263D01*
X383105Y336265D01*
X382952Y336238D01*
X382798Y336219D01*
X382754Y336204D01*
X382708Y336196D01*
X382587Y336149D01*
X377175Y336149D01*
X377149Y336147D01*
X377122Y336149D01*
X376948Y336127D01*
X376775Y336109D01*
X376749Y336102D01*
X376723Y336098D01*
X376557Y336043D01*
X376390Y335991D01*
X376366Y335978D01*
X376341Y335970D01*
X376189Y335883D01*
X376036Y335799D01*
X376015Y335782D01*
X375992Y335769D01*
X375739Y335554D01*
X370952Y330767D01*
X359248Y330767D01*
X359230Y330765D01*
X359212Y330767D01*
X359030Y330746D01*
X358847Y330727D01*
X358830Y330722D01*
X358813Y330720D01*
X358638Y330663D01*
X358462Y330609D01*
X358447Y330601D01*
X358430Y330595D01*
X358270Y330505D01*
X358108Y330417D01*
X358095Y330406D01*
X358079Y330397D01*
X357940Y330277D01*
X357799Y330160D01*
X357788Y330146D01*
X357774Y330134D01*
X357662Y329989D01*
X357547Y329846D01*
X357539Y329830D01*
X357528Y329816D01*
X357446Y329651D01*
X357361Y329489D01*
X357356Y329472D01*
X357348Y329456D01*
X357300Y329277D01*
X357250Y329102D01*
X357248Y329084D01*
X357244Y329067D01*
X357217Y328736D01*
X357217Y326696D01*
X357225Y326615D01*
X357223Y326532D01*
X357245Y326415D01*
X357257Y326296D01*
X357281Y326217D01*
X357295Y326136D01*
X357340Y326025D01*
X357375Y325911D01*
X357414Y325839D01*
X357444Y325762D01*
X357510Y325662D01*
X357567Y325557D01*
X357619Y325494D01*
X357664Y325425D01*
X357748Y325339D01*
X357824Y325248D01*
X357888Y325196D01*
X357946Y325137D01*
X358045Y325070D01*
X358138Y324995D01*
X358211Y324957D01*
X358279Y324911D01*
X358389Y324865D01*
X358495Y324810D01*
X358574Y324787D01*
X358650Y324755D01*
X358767Y324731D01*
X358882Y324698D01*
X358964Y324692D01*
X359045Y324675D01*
X359164Y324675D01*
X359284Y324665D01*
X359365Y324675D01*
X359447Y324675D01*
X359597Y324702D01*
X359683Y324712D01*
X359722Y324725D01*
X359774Y324734D01*
X360731Y324991D01*
X363535Y324991D01*
X363535Y321300D01*
X363535Y316482D01*
X363536Y316464D01*
X363535Y316446D01*
X363556Y316264D01*
X363574Y316081D01*
X363580Y316064D01*
X363582Y316047D01*
X363639Y315872D01*
X363693Y315696D01*
X363701Y315681D01*
X363707Y315664D01*
X363797Y315504D01*
X363884Y315342D01*
X363896Y315329D01*
X363905Y315313D01*
X364025Y315174D01*
X364142Y315033D01*
X364156Y315022D01*
X364168Y315008D01*
X364313Y314896D01*
X364456Y314781D01*
X364472Y314773D01*
X364486Y314762D01*
X364651Y314680D01*
X364813Y314595D01*
X364830Y314590D01*
X364846Y314582D01*
X365024Y314535D01*
X365200Y314484D01*
X365218Y314482D01*
X365235Y314478D01*
X365566Y314451D01*
X365584Y314452D01*
X365601Y314451D01*
X365602Y314451D01*
X365784Y314472D01*
X365967Y314491D01*
X365984Y314496D01*
X366002Y314498D01*
X366176Y314555D01*
X366352Y314609D01*
X366367Y314617D01*
X366384Y314623D01*
X366545Y314713D01*
X366706Y314801D01*
X366719Y314812D01*
X366735Y314821D01*
X366874Y314941D01*
X367015Y315058D01*
X367026Y315072D01*
X367040Y315084D01*
X367152Y315229D01*
X367267Y315372D01*
X367276Y315388D01*
X367286Y315402D01*
X367368Y315567D01*
X367453Y315729D01*
X367458Y315746D01*
X367466Y315762D01*
X367514Y315941D01*
X367564Y316116D01*
X367566Y316134D01*
X367570Y316151D01*
X367597Y316482D01*
X367597Y321300D01*
X367597Y324991D01*
X370401Y324991D01*
X371194Y324778D01*
X371904Y324368D01*
X372484Y323788D01*
X372748Y323331D01*
X372620Y323331D01*
X372508Y323320D01*
X372395Y323319D01*
X372308Y323300D01*
X372220Y323291D01*
X372112Y323258D01*
X372001Y323235D01*
X371920Y323199D01*
X371835Y323173D01*
X371735Y323120D01*
X371632Y323075D01*
X371559Y323024D01*
X371481Y322982D01*
X371394Y322909D01*
X371301Y322845D01*
X371240Y322781D01*
X371172Y322724D01*
X371101Y322636D01*
X371023Y322554D01*
X370975Y322479D01*
X370919Y322410D01*
X370867Y322310D01*
X370807Y322215D01*
X370775Y322132D01*
X370734Y322053D01*
X370702Y321944D01*
X370662Y321839D01*
X370647Y321751D01*
X370622Y321666D01*
X370613Y321553D01*
X370594Y321442D01*
X370597Y321353D01*
X370589Y321265D01*
X370603Y321152D01*
X370606Y321040D01*
X370626Y320953D01*
X370636Y320865D01*
X370671Y320757D01*
X370697Y320647D01*
X370734Y320566D01*
X370761Y320482D01*
X370817Y320384D01*
X370863Y320281D01*
X370915Y320209D01*
X370959Y320131D01*
X371033Y320046D01*
X371099Y319954D01*
X371164Y319894D01*
X371222Y319827D01*
X371312Y319757D01*
X371394Y319681D01*
X371483Y319624D01*
X371540Y319580D01*
X371541Y319580D01*
X371598Y319551D01*
X371674Y319503D01*
X371675Y319502D01*
X371790Y319456D01*
X371901Y319400D01*
X371976Y319380D01*
X372048Y319351D01*
X372170Y319328D01*
X372290Y319296D01*
X372380Y319288D01*
X372444Y319276D01*
X372516Y319277D01*
X372621Y319269D01*
X373498Y319269D01*
X373590Y319159D01*
X373714Y319010D01*
X373718Y319007D01*
X373721Y319003D01*
X373876Y318880D01*
X374028Y318757D01*
X374032Y318755D01*
X374036Y318752D01*
X374214Y318661D01*
X374385Y318572D01*
X374390Y318571D01*
X374394Y318569D01*
X374583Y318515D01*
X374772Y318460D01*
X374777Y318460D01*
X374781Y318459D01*
X374973Y318444D01*
X375174Y318428D01*
X375178Y318428D01*
X375182Y318428D01*
X375376Y318451D01*
X375573Y318474D01*
X375578Y318476D01*
X375582Y318476D01*
X375767Y318538D01*
X375956Y318599D01*
X375960Y318602D01*
X375964Y318603D01*
X376133Y318699D01*
X376307Y318797D01*
X376310Y318800D01*
X376314Y318802D01*
X376461Y318930D01*
X376611Y319060D01*
X376614Y319064D01*
X376618Y319067D01*
X376738Y319224D01*
X376858Y319378D01*
X376860Y319382D01*
X376863Y319386D01*
X377015Y319681D01*
X377171Y320059D01*
X378441Y321329D01*
X380102Y322017D01*
X381898Y322017D01*
X383559Y321329D01*
X384412Y320476D01*
X384433Y320459D01*
X384450Y320438D01*
X384588Y320331D01*
X384723Y320221D01*
X384747Y320208D01*
X384768Y320192D01*
X384925Y320113D01*
X385079Y320032D01*
X385105Y320024D01*
X385129Y320012D01*
X385298Y319967D01*
X385465Y319917D01*
X385492Y319915D01*
X385518Y319908D01*
X385848Y319881D01*
X391781Y319881D01*
X391781Y313839D01*
X386795Y313839D01*
X386786Y313838D01*
X386777Y313839D01*
X386584Y313818D01*
X386394Y313799D01*
X386386Y313797D01*
X386377Y313796D01*
X386192Y313737D01*
X386009Y313681D01*
X386001Y313677D01*
X385993Y313674D01*
X385825Y313581D01*
X385655Y313489D01*
X385648Y313484D01*
X385641Y313479D01*
X385493Y313355D01*
X385346Y313232D01*
X385340Y313225D01*
X385334Y313219D01*
X385214Y313067D01*
X385094Y312918D01*
X385089Y312910D01*
X385084Y312903D01*
X384996Y312730D01*
X384908Y312561D01*
X384906Y312552D01*
X384902Y312544D01*
X384850Y312358D01*
X384797Y312174D01*
X384796Y312165D01*
X384794Y312156D01*
X384779Y311963D01*
X384764Y311772D01*
X384765Y311764D01*
X384764Y311755D01*
X384788Y311562D01*
X384811Y311373D01*
X384813Y311364D01*
X384815Y311355D01*
X384876Y311173D01*
X384936Y310990D01*
X384940Y310982D01*
X384943Y310974D01*
X385039Y310807D01*
X385133Y310639D01*
X385139Y310632D01*
X385144Y310625D01*
X385358Y310372D01*
X388154Y307576D01*
X388175Y307559D01*
X388193Y307538D01*
X388331Y307431D01*
X388466Y307321D01*
X388490Y307308D01*
X388511Y307292D01*
X388668Y307214D01*
X388822Y307132D01*
X388847Y307124D01*
X388871Y307112D01*
X389041Y307067D01*
X389208Y307017D01*
X389234Y307015D01*
X389260Y307008D01*
X389591Y306981D01*
X405109Y306981D01*
X406281Y305809D01*
X406281Y290151D01*
X405218Y289088D01*
X405212Y289081D01*
X405205Y289076D01*
X405085Y288926D01*
X404963Y288777D01*
X404958Y288769D01*
X404953Y288762D01*
X404864Y288590D01*
X404774Y288421D01*
X404771Y288412D01*
X404767Y288405D01*
X404714Y288220D01*
X404659Y288035D01*
X404658Y288026D01*
X404656Y288018D01*
X404640Y287827D01*
X404623Y287634D01*
X404624Y287625D01*
X404623Y287616D01*
X404645Y287427D01*
X404666Y287234D01*
X404669Y287225D01*
X404670Y287217D01*
X404679Y287190D01*
X404679Y279080D01*
X404680Y279063D01*
X404679Y279045D01*
X404700Y278862D01*
X404718Y278680D01*
X404724Y278663D01*
X404726Y278645D01*
X404783Y278470D01*
X404837Y278295D01*
X404845Y278279D01*
X404851Y278262D01*
X404941Y278102D01*
X405028Y277941D01*
X405040Y277927D01*
X405049Y277912D01*
X405169Y277772D01*
X405286Y277632D01*
X405286Y277631D01*
X405287Y277631D01*
X405300Y277620D01*
X405312Y277607D01*
X405312Y277606D01*
X405457Y277494D01*
X405600Y277379D01*
X405616Y277370D01*
X405630Y277360D01*
X405795Y277278D01*
X405958Y277193D01*
X405975Y277188D01*
X405991Y277180D01*
X406169Y277132D01*
X406345Y277082D01*
X406362Y277080D01*
X406380Y277076D01*
X406710Y277049D01*
X413751Y277049D01*
X413751Y274745D01*
X413578Y274099D01*
X413243Y273520D01*
X412624Y272901D01*
X412613Y272888D01*
X412600Y272876D01*
X412486Y272732D01*
X412369Y272590D01*
X412361Y272574D01*
X412350Y272560D01*
X412267Y272397D01*
X412181Y272234D01*
X412176Y272217D01*
X412168Y272201D01*
X412118Y272024D01*
X412066Y271848D01*
X412064Y271830D01*
X412060Y271813D01*
X412046Y271630D01*
X412030Y271447D01*
X412032Y271430D01*
X412030Y271412D01*
X412053Y271230D01*
X412073Y271047D01*
X412078Y271030D01*
X412081Y271012D01*
X412139Y270838D01*
X412194Y270663D01*
X412203Y270648D01*
X412209Y270631D01*
X412301Y270471D01*
X412389Y270311D01*
X412401Y270297D01*
X412410Y270282D01*
X412624Y270029D01*
X412933Y269720D01*
X413268Y269141D01*
X413441Y268495D01*
X413441Y266191D01*
X406400Y266191D01*
X406383Y266190D01*
X406365Y266191D01*
X406182Y266170D01*
X406000Y266151D01*
X405983Y266146D01*
X405965Y266144D01*
X405790Y266087D01*
X405615Y266033D01*
X405599Y266025D01*
X405582Y266019D01*
X405422Y265929D01*
X405261Y265842D01*
X405247Y265830D01*
X405232Y265821D01*
X405092Y265701D01*
X404952Y265584D01*
X404951Y265584D01*
X404951Y265583D01*
X404940Y265570D01*
X404927Y265558D01*
X404926Y265558D01*
X404814Y265413D01*
X404699Y265270D01*
X404690Y265254D01*
X404680Y265240D01*
X404598Y265075D01*
X404513Y264912D01*
X404508Y264895D01*
X404500Y264879D01*
X404452Y264701D01*
X404402Y264525D01*
X404400Y264508D01*
X404396Y264490D01*
X404369Y264160D01*
X404369Y250190D01*
X404370Y250173D01*
X404369Y250155D01*
X404390Y249972D01*
X404408Y249790D01*
X404414Y249773D01*
X404416Y249755D01*
X404473Y249580D01*
X404527Y249405D01*
X404535Y249389D01*
X404541Y249372D01*
X404631Y249212D01*
X404718Y249051D01*
X404730Y249037D01*
X404739Y249022D01*
X404859Y248882D01*
X404976Y248742D01*
X404976Y248741D01*
X404977Y248741D01*
X404990Y248730D01*
X405002Y248717D01*
X405002Y248716D01*
X405147Y248604D01*
X405290Y248489D01*
X405306Y248480D01*
X405320Y248470D01*
X405485Y248388D01*
X405648Y248303D01*
X405665Y248298D01*
X405681Y248290D01*
X405859Y248242D01*
X406035Y248192D01*
X406052Y248190D01*
X406070Y248186D01*
X406400Y248159D01*
X413441Y248159D01*
X413441Y245855D01*
X413268Y245209D01*
X412933Y244630D01*
X412460Y244157D01*
X412256Y244039D01*
X412190Y243991D01*
X412118Y243952D01*
X412026Y243874D01*
X411929Y243804D01*
X411873Y243744D01*
X411811Y243691D01*
X411736Y243597D01*
X411655Y243510D01*
X411612Y243440D01*
X411561Y243375D01*
X411507Y243269D01*
X411444Y243167D01*
X411416Y243089D01*
X411379Y243016D01*
X411347Y242901D01*
X411305Y242789D01*
X411293Y242708D01*
X411271Y242628D01*
X411262Y242509D01*
X411244Y242391D01*
X411247Y242309D01*
X411241Y242227D01*
X411256Y242108D01*
X411262Y241989D01*
X411281Y241909D01*
X411292Y241827D01*
X411330Y241714D01*
X411359Y241598D01*
X411394Y241524D01*
X411420Y241446D01*
X411480Y241342D01*
X411531Y241234D01*
X411580Y241168D01*
X411621Y241097D01*
X411720Y240981D01*
X411771Y240911D01*
X411802Y240884D01*
X411836Y240844D01*
X412901Y239779D01*
X412901Y232165D01*
X412903Y232139D01*
X412901Y232112D01*
X412923Y231938D01*
X412941Y231765D01*
X412948Y231739D01*
X412952Y231713D01*
X413007Y231547D01*
X413059Y231380D01*
X413072Y231356D01*
X413080Y231331D01*
X413167Y231179D01*
X413251Y231026D01*
X413268Y231005D01*
X413281Y230982D01*
X413496Y230729D01*
X414267Y229958D01*
X415322Y228903D01*
X415329Y228897D01*
X415334Y228890D01*
X415483Y228771D01*
X415633Y228648D01*
X415641Y228644D01*
X415648Y228638D01*
X415818Y228550D01*
X415989Y228459D01*
X415998Y228457D01*
X416005Y228453D01*
X416190Y228400D01*
X416375Y228345D01*
X416384Y228344D01*
X416392Y228341D01*
X416583Y228326D01*
X416776Y228308D01*
X416785Y228309D01*
G37*
G36*
X238806Y-10697D02*
X238806Y-10697D01*
X238824Y-10699D01*
X239006Y-10678D01*
X239189Y-10659D01*
X239206Y-10654D01*
X239223Y-10652D01*
X239398Y-10595D01*
X239574Y-10541D01*
X239589Y-10533D01*
X239606Y-10527D01*
X239766Y-10437D01*
X239928Y-10349D01*
X239941Y-10338D01*
X239957Y-10329D01*
X240096Y-10209D01*
X240237Y-10092D01*
X240248Y-10078D01*
X240261Y-10066D01*
X240374Y-9921D01*
X240489Y-9778D01*
X240497Y-9762D01*
X240508Y-9748D01*
X240590Y-9583D01*
X240675Y-9421D01*
X240680Y-9404D01*
X240688Y-9388D01*
X240735Y-9209D01*
X240786Y-9034D01*
X240788Y-9016D01*
X240792Y-8999D01*
X240819Y-8668D01*
X240819Y-2232D01*
X251328Y-2232D01*
X251346Y-2230D01*
X251363Y-2232D01*
X251546Y-2210D01*
X251728Y-2192D01*
X251746Y-2187D01*
X251763Y-2185D01*
X251938Y-2128D01*
X252113Y-2074D01*
X252129Y-2065D01*
X252146Y-2060D01*
X252306Y-1969D01*
X252467Y-1882D01*
X252481Y-1871D01*
X252497Y-1862D01*
X252636Y-1742D01*
X252777Y-1624D01*
X252788Y-1610D01*
X252801Y-1599D01*
X252914Y-1454D01*
X253029Y-1311D01*
X253037Y-1295D01*
X253048Y-1281D01*
X253130Y-1116D01*
X253214Y-953D01*
X253219Y-936D01*
X253227Y-920D01*
X253275Y-742D01*
X253326Y-566D01*
X253327Y-549D01*
X253332Y-531D01*
X253359Y-201D01*
X253359Y1832D01*
X255392Y1832D01*
X255410Y1834D01*
X255427Y1833D01*
X255610Y1854D01*
X255792Y1872D01*
X255810Y1877D01*
X255827Y1879D01*
X256002Y1936D01*
X256177Y1990D01*
X256193Y1999D01*
X256210Y2004D01*
X256370Y2095D01*
X256531Y2182D01*
X256545Y2193D01*
X256561Y2202D01*
X256700Y2322D01*
X256841Y2440D01*
X256852Y2454D01*
X256865Y2465D01*
X256978Y2610D01*
X257093Y2753D01*
X257101Y2769D01*
X257112Y2783D01*
X257194Y2948D01*
X257279Y3111D01*
X257283Y3128D01*
X257291Y3144D01*
X257339Y3322D01*
X257390Y3498D01*
X257391Y3515D01*
X257396Y3533D01*
X257423Y3863D01*
X257423Y17198D01*
X257468Y17222D01*
X257481Y17233D01*
X257497Y17242D01*
X257636Y17362D01*
X257777Y17480D01*
X257788Y17493D01*
X257801Y17505D01*
X257914Y17650D01*
X258029Y17793D01*
X258037Y17809D01*
X258048Y17823D01*
X258130Y17988D01*
X258215Y18151D01*
X258220Y18168D01*
X258228Y18184D01*
X258275Y18362D01*
X258326Y18538D01*
X258328Y18555D01*
X258332Y18573D01*
X258359Y18903D01*
X258359Y30165D01*
X258360Y30165D01*
X266738Y30165D01*
X266756Y30167D01*
X266774Y30166D01*
X266956Y30187D01*
X267139Y30205D01*
X267156Y30211D01*
X267173Y30213D01*
X267348Y30270D01*
X267524Y30323D01*
X267539Y30332D01*
X267556Y30337D01*
X267716Y30428D01*
X267878Y30515D01*
X267891Y30527D01*
X267907Y30535D01*
X268046Y30656D01*
X268187Y30773D01*
X268198Y30787D01*
X268211Y30799D01*
X268324Y30944D01*
X268439Y31087D01*
X268447Y31103D01*
X268458Y31117D01*
X268540Y31282D01*
X268625Y31444D01*
X268630Y31461D01*
X268638Y31477D01*
X268685Y31655D01*
X268736Y31831D01*
X268738Y31849D01*
X268742Y31866D01*
X268769Y32197D01*
X268769Y33164D01*
X269759Y35553D01*
X271588Y37382D01*
X273584Y38209D01*
X273977Y38371D01*
X276328Y38371D01*
X276346Y38373D01*
X276364Y38372D01*
X276546Y38393D01*
X276729Y38411D01*
X276746Y38417D01*
X276763Y38419D01*
X276938Y38476D01*
X277114Y38529D01*
X277129Y38538D01*
X277146Y38543D01*
X277306Y38634D01*
X277468Y38721D01*
X277481Y38733D01*
X277497Y38741D01*
X277636Y38862D01*
X277777Y38979D01*
X277788Y38993D01*
X277801Y39005D01*
X277914Y39150D01*
X278029Y39293D01*
X278037Y39309D01*
X278048Y39323D01*
X278130Y39488D01*
X278215Y39650D01*
X278220Y39667D01*
X278228Y39683D01*
X278275Y39861D01*
X278326Y40037D01*
X278328Y40055D01*
X278332Y40072D01*
X278359Y40403D01*
X278359Y41660D01*
X278357Y41687D01*
X278359Y41714D01*
X278337Y41888D01*
X278319Y42061D01*
X278311Y42087D01*
X278308Y42113D01*
X278252Y42279D01*
X278201Y42446D01*
X278188Y42470D01*
X278180Y42495D01*
X278093Y42647D01*
X278009Y42800D01*
X277992Y42820D01*
X277979Y42844D01*
X277764Y43097D01*
X276360Y44501D01*
X276360Y69159D01*
X276963Y69762D01*
X276980Y69782D01*
X277000Y69800D01*
X277107Y69938D01*
X277218Y70073D01*
X277230Y70097D01*
X277247Y70118D01*
X277325Y70275D01*
X277407Y70429D01*
X277414Y70454D01*
X277426Y70479D01*
X277472Y70648D01*
X277521Y70815D01*
X277524Y70841D01*
X277531Y70867D01*
X277558Y71198D01*
X277558Y110630D01*
X277555Y110657D01*
X277557Y110683D01*
X277535Y110857D01*
X277518Y111031D01*
X277510Y111056D01*
X277507Y111083D01*
X277451Y111248D01*
X277400Y111416D01*
X277387Y111439D01*
X277378Y111465D01*
X277291Y111616D01*
X277208Y111770D01*
X277191Y111790D01*
X277178Y111813D01*
X276963Y112066D01*
X261097Y127932D01*
X261097Y137508D01*
X261095Y137526D01*
X261097Y137544D01*
X261076Y137726D01*
X261057Y137909D01*
X261052Y137926D01*
X261050Y137943D01*
X260993Y138118D01*
X260939Y138294D01*
X260931Y138309D01*
X260925Y138326D01*
X260835Y138486D01*
X260747Y138648D01*
X260736Y138661D01*
X260727Y138677D01*
X260607Y138816D01*
X260490Y138957D01*
X260476Y138968D01*
X260464Y138982D01*
X260319Y139094D01*
X260176Y139209D01*
X260160Y139217D01*
X260146Y139228D01*
X259981Y139310D01*
X259819Y139395D01*
X259802Y139400D01*
X259786Y139408D01*
X259607Y139455D01*
X259432Y139506D01*
X259414Y139508D01*
X259397Y139512D01*
X259066Y139539D01*
X258071Y139539D01*
X256899Y140711D01*
X256899Y152369D01*
X258071Y153541D01*
X270729Y153541D01*
X271464Y152806D01*
X271477Y152795D01*
X271489Y152781D01*
X271634Y152667D01*
X271775Y152551D01*
X271791Y152542D01*
X271805Y152531D01*
X271969Y152448D01*
X272131Y152362D01*
X272148Y152357D01*
X272164Y152349D01*
X272341Y152300D01*
X272517Y152247D01*
X272535Y152246D01*
X272552Y152241D01*
X272735Y152228D01*
X272918Y152211D01*
X272936Y152213D01*
X272953Y152212D01*
X273135Y152234D01*
X273318Y152254D01*
X273335Y152260D01*
X273353Y152262D01*
X273526Y152320D01*
X273702Y152376D01*
X273718Y152384D01*
X273734Y152390D01*
X273893Y152482D01*
X274054Y152571D01*
X274068Y152582D01*
X274083Y152591D01*
X274336Y152806D01*
X275071Y153541D01*
X287729Y153541D01*
X288901Y152369D01*
X288901Y151874D01*
X288903Y151856D01*
X288901Y151838D01*
X288922Y151656D01*
X288941Y151473D01*
X288946Y151456D01*
X288948Y151439D01*
X289005Y151264D01*
X289059Y151088D01*
X289067Y151073D01*
X289073Y151056D01*
X289163Y150896D01*
X289251Y150734D01*
X289262Y150721D01*
X289271Y150705D01*
X289391Y150566D01*
X289508Y150425D01*
X289522Y150414D01*
X289534Y150400D01*
X289679Y150288D01*
X289822Y150173D01*
X289838Y150165D01*
X289852Y150154D01*
X290017Y150072D01*
X290179Y149987D01*
X290196Y149982D01*
X290212Y149974D01*
X290391Y149927D01*
X290566Y149876D01*
X290584Y149874D01*
X290601Y149870D01*
X290932Y149843D01*
X291698Y149843D01*
X291716Y149845D01*
X291734Y149843D01*
X291916Y149864D01*
X292099Y149883D01*
X292116Y149888D01*
X292133Y149890D01*
X292308Y149947D01*
X292484Y150001D01*
X292499Y150009D01*
X292516Y150015D01*
X292676Y150105D01*
X292838Y150193D01*
X292851Y150204D01*
X292867Y150213D01*
X293006Y150333D01*
X293147Y150450D01*
X293158Y150464D01*
X293172Y150476D01*
X293284Y150621D01*
X293399Y150764D01*
X293407Y150780D01*
X293418Y150794D01*
X293500Y150959D01*
X293585Y151121D01*
X293590Y151138D01*
X293598Y151154D01*
X293645Y151333D01*
X293696Y151508D01*
X293698Y151526D01*
X293702Y151543D01*
X293729Y151874D01*
X293729Y160779D01*
X294901Y161951D01*
X297396Y161951D01*
X297414Y161953D01*
X297432Y161951D01*
X297614Y161972D01*
X297797Y161991D01*
X297814Y161996D01*
X297831Y161998D01*
X298006Y162055D01*
X298182Y162109D01*
X298197Y162117D01*
X298214Y162123D01*
X298374Y162213D01*
X298536Y162301D01*
X298549Y162312D01*
X298565Y162321D01*
X298704Y162441D01*
X298845Y162558D01*
X298856Y162572D01*
X298870Y162584D01*
X298982Y162729D01*
X299097Y162872D01*
X299105Y162888D01*
X299116Y162902D01*
X299198Y163067D01*
X299283Y163229D01*
X299288Y163246D01*
X299296Y163262D01*
X299343Y163441D01*
X299394Y163616D01*
X299396Y163634D01*
X299400Y163651D01*
X299427Y163982D01*
X299427Y165668D01*
X309782Y176023D01*
X352121Y176023D01*
X352147Y176025D01*
X352174Y176023D01*
X352348Y176045D01*
X352521Y176063D01*
X352547Y176070D01*
X352573Y176074D01*
X352739Y176129D01*
X352906Y176181D01*
X352930Y176194D01*
X352955Y176202D01*
X353106Y176289D01*
X353260Y176373D01*
X353281Y176390D01*
X353304Y176403D01*
X353557Y176618D01*
X358447Y181508D01*
X358453Y181515D01*
X358459Y181520D01*
X358580Y181670D01*
X358702Y181819D01*
X358706Y181827D01*
X358712Y181834D01*
X358800Y182004D01*
X358891Y182175D01*
X358893Y182184D01*
X358897Y182191D01*
X358950Y182376D01*
X359005Y182561D01*
X359006Y182570D01*
X359009Y182578D01*
X359024Y182770D01*
X359042Y182962D01*
X359041Y182971D01*
X359042Y182980D01*
X359019Y183169D01*
X358998Y183362D01*
X358996Y183371D01*
X358995Y183379D01*
X358935Y183561D01*
X358877Y183746D01*
X358873Y183754D01*
X358870Y183762D01*
X358775Y183931D01*
X358682Y184098D01*
X358676Y184105D01*
X358672Y184113D01*
X358546Y184259D01*
X358422Y184405D01*
X358415Y184411D01*
X358409Y184418D01*
X358257Y184535D01*
X358106Y184655D01*
X358098Y184659D01*
X358091Y184664D01*
X357919Y184750D01*
X357747Y184837D01*
X357738Y184840D01*
X357730Y184844D01*
X357544Y184894D01*
X357359Y184945D01*
X357350Y184946D01*
X357341Y184948D01*
X357011Y184975D01*
X348852Y184975D01*
X347955Y185872D01*
X347934Y185889D01*
X347917Y185910D01*
X347779Y186017D01*
X347644Y186127D01*
X347620Y186140D01*
X347599Y186156D01*
X347442Y186234D01*
X347288Y186316D01*
X347262Y186324D01*
X347238Y186336D01*
X347069Y186381D01*
X346902Y186431D01*
X346875Y186433D01*
X346850Y186440D01*
X346519Y186467D01*
X327103Y186467D01*
X327077Y186465D01*
X327050Y186467D01*
X326876Y186445D01*
X326703Y186427D01*
X326677Y186420D01*
X326651Y186416D01*
X326485Y186361D01*
X326318Y186309D01*
X326294Y186296D01*
X326269Y186288D01*
X326117Y186201D01*
X325964Y186117D01*
X325943Y186100D01*
X325920Y186087D01*
X325695Y185896D01*
X324027Y185205D01*
X322231Y185205D01*
X320570Y185893D01*
X319300Y187163D01*
X318612Y188824D01*
X318612Y190936D01*
X318610Y190954D01*
X318612Y190972D01*
X318591Y191154D01*
X318572Y191337D01*
X318567Y191354D01*
X318565Y191371D01*
X318508Y191546D01*
X318454Y191722D01*
X318446Y191737D01*
X318440Y191754D01*
X318350Y191914D01*
X318262Y192076D01*
X318251Y192089D01*
X318242Y192105D01*
X318122Y192244D01*
X318005Y192385D01*
X317991Y192396D01*
X317979Y192410D01*
X317834Y192522D01*
X317691Y192637D01*
X317675Y192645D01*
X317661Y192656D01*
X317496Y192738D01*
X317334Y192823D01*
X317317Y192828D01*
X317301Y192836D01*
X317122Y192883D01*
X316947Y192934D01*
X316929Y192936D01*
X316912Y192940D01*
X316581Y192967D01*
X304263Y192967D01*
X304245Y192965D01*
X304227Y192967D01*
X304045Y192946D01*
X303862Y192927D01*
X303845Y192922D01*
X303828Y192920D01*
X303653Y192863D01*
X303477Y192809D01*
X303462Y192801D01*
X303445Y192795D01*
X303285Y192705D01*
X303123Y192617D01*
X303110Y192606D01*
X303094Y192597D01*
X302955Y192477D01*
X302814Y192360D01*
X302803Y192346D01*
X302789Y192334D01*
X302677Y192189D01*
X302562Y192046D01*
X302554Y192030D01*
X302543Y192016D01*
X302461Y191851D01*
X302376Y191689D01*
X302371Y191672D01*
X302363Y191656D01*
X302316Y191477D01*
X302265Y191302D01*
X302263Y191284D01*
X302259Y191267D01*
X302232Y190936D01*
X302232Y186147D01*
X301060Y184975D01*
X299974Y184975D01*
X299956Y184973D01*
X299938Y184975D01*
X299756Y184954D01*
X299573Y184935D01*
X299556Y184930D01*
X299539Y184928D01*
X299364Y184871D01*
X299188Y184817D01*
X299173Y184809D01*
X299156Y184803D01*
X298996Y184713D01*
X298834Y184625D01*
X298821Y184614D01*
X298805Y184605D01*
X298666Y184485D01*
X298525Y184368D01*
X298514Y184354D01*
X298500Y184342D01*
X298388Y184197D01*
X298273Y184054D01*
X298265Y184038D01*
X298254Y184024D01*
X298171Y183858D01*
X298087Y183697D01*
X298082Y183680D01*
X298074Y183664D01*
X298027Y183485D01*
X297976Y183310D01*
X297974Y183292D01*
X297970Y183275D01*
X297943Y182944D01*
X297943Y181512D01*
X288830Y172399D01*
X288813Y172378D01*
X288792Y172361D01*
X288685Y172223D01*
X288575Y172087D01*
X288562Y172064D01*
X288546Y172043D01*
X288468Y171886D01*
X288386Y171732D01*
X288378Y171706D01*
X288366Y171682D01*
X288321Y171513D01*
X288271Y171346D01*
X288269Y171319D01*
X288262Y171293D01*
X288235Y170963D01*
X288235Y170451D01*
X287470Y168604D01*
X286056Y167190D01*
X284209Y166425D01*
X282211Y166425D01*
X280364Y167190D01*
X278950Y168604D01*
X278185Y170451D01*
X278185Y172449D01*
X278950Y174296D01*
X280364Y175710D01*
X282211Y176475D01*
X282723Y176475D01*
X282749Y176477D01*
X282776Y176475D01*
X282950Y176497D01*
X283123Y176515D01*
X283149Y176522D01*
X283175Y176526D01*
X283341Y176581D01*
X283508Y176633D01*
X283532Y176646D01*
X283557Y176654D01*
X283709Y176741D01*
X283862Y176825D01*
X283883Y176842D01*
X283906Y176855D01*
X284159Y177070D01*
X289344Y182255D01*
X289355Y182269D01*
X289369Y182280D01*
X289483Y182425D01*
X289599Y182566D01*
X289607Y182582D01*
X289619Y182596D01*
X289702Y182760D01*
X289788Y182922D01*
X289793Y182939D01*
X289801Y182955D01*
X289850Y183132D01*
X289903Y183308D01*
X289904Y183326D01*
X289909Y183343D01*
X289922Y183526D01*
X289939Y183709D01*
X289937Y183727D01*
X289938Y183745D01*
X289915Y183927D01*
X289896Y184109D01*
X289890Y184126D01*
X289888Y184144D01*
X289830Y184318D01*
X289774Y184493D01*
X289765Y184509D01*
X289760Y184526D01*
X289668Y184684D01*
X289579Y184845D01*
X289568Y184859D01*
X289559Y184874D01*
X289344Y185127D01*
X288324Y186147D01*
X288324Y187836D01*
X288323Y187845D01*
X288324Y187853D01*
X288303Y188047D01*
X288284Y188236D01*
X288282Y188245D01*
X288281Y188254D01*
X288222Y188438D01*
X288166Y188621D01*
X288162Y188629D01*
X288159Y188638D01*
X288066Y188806D01*
X287974Y188975D01*
X287969Y188982D01*
X287964Y188990D01*
X287840Y189137D01*
X287717Y189285D01*
X287710Y189290D01*
X287704Y189297D01*
X287552Y189417D01*
X287403Y189537D01*
X287395Y189541D01*
X287388Y189547D01*
X287215Y189634D01*
X287046Y189722D01*
X287037Y189725D01*
X287029Y189729D01*
X286843Y189781D01*
X286659Y189834D01*
X286650Y189834D01*
X286641Y189837D01*
X286448Y189851D01*
X286257Y189867D01*
X286249Y189866D01*
X286240Y189866D01*
X286047Y189842D01*
X285858Y189820D01*
X285849Y189817D01*
X285840Y189816D01*
X285658Y189755D01*
X285475Y189695D01*
X285467Y189690D01*
X285459Y189688D01*
X285292Y189592D01*
X285124Y189497D01*
X285117Y189491D01*
X285110Y189487D01*
X284857Y189272D01*
X241388Y145803D01*
X241371Y145782D01*
X241350Y145765D01*
X241243Y145627D01*
X241133Y145491D01*
X241120Y145468D01*
X241104Y145447D01*
X241035Y145309D01*
X239007Y143281D01*
X206114Y110388D01*
X206109Y110381D01*
X206102Y110376D01*
X205982Y110226D01*
X205859Y110077D01*
X205855Y110069D01*
X205850Y110062D01*
X205761Y109891D01*
X205671Y109721D01*
X205668Y109713D01*
X205664Y109705D01*
X205611Y109519D01*
X205556Y109335D01*
X205555Y109326D01*
X205553Y109318D01*
X205537Y109126D01*
X205519Y108934D01*
X205520Y108925D01*
X205520Y108916D01*
X205542Y108727D01*
X205563Y108534D01*
X205566Y108525D01*
X205567Y108517D01*
X205626Y108335D01*
X205684Y108150D01*
X205689Y108142D01*
X205691Y108134D01*
X205787Y107965D01*
X205879Y107798D01*
X205885Y107791D01*
X205889Y107783D01*
X206015Y107637D01*
X206140Y107491D01*
X206147Y107485D01*
X206153Y107478D01*
X206304Y107361D01*
X206456Y107241D01*
X206464Y107237D01*
X206471Y107232D01*
X206643Y107146D01*
X206815Y107059D01*
X206823Y107056D01*
X206831Y107052D01*
X207018Y107002D01*
X207202Y106951D01*
X207211Y106950D01*
X207220Y106948D01*
X207551Y106921D01*
X220829Y106921D01*
X222001Y105749D01*
X222001Y-8668D01*
X222003Y-8686D01*
X222001Y-8704D01*
X222022Y-8886D01*
X222041Y-9069D01*
X222046Y-9086D01*
X222048Y-9103D01*
X222105Y-9278D01*
X222159Y-9454D01*
X222167Y-9469D01*
X222173Y-9486D01*
X222263Y-9646D01*
X222351Y-9808D01*
X222362Y-9821D01*
X222371Y-9837D01*
X222491Y-9976D01*
X222608Y-10117D01*
X222622Y-10128D01*
X222634Y-10142D01*
X222779Y-10254D01*
X222922Y-10369D01*
X222938Y-10377D01*
X222952Y-10388D01*
X223117Y-10470D01*
X223279Y-10555D01*
X223296Y-10560D01*
X223312Y-10568D01*
X223491Y-10615D01*
X223666Y-10666D01*
X223684Y-10668D01*
X223701Y-10672D01*
X224032Y-10699D01*
X238788Y-10699D01*
X238806Y-10697D01*
G37*
G36*
X245376Y167769D02*
X245376Y167769D01*
X245385Y167769D01*
X245578Y167793D01*
X245767Y167815D01*
X245776Y167818D01*
X245785Y167819D01*
X245967Y167880D01*
X246150Y167940D01*
X246158Y167945D01*
X246166Y167947D01*
X246333Y168043D01*
X246501Y168138D01*
X246508Y168144D01*
X246515Y168148D01*
X246768Y168363D01*
X271507Y193102D01*
X271513Y193109D01*
X271520Y193114D01*
X271640Y193264D01*
X271762Y193413D01*
X271766Y193421D01*
X271772Y193428D01*
X271861Y193599D01*
X271951Y193769D01*
X271953Y193777D01*
X271957Y193785D01*
X272011Y193971D01*
X272065Y194155D01*
X272066Y194164D01*
X272069Y194172D01*
X272084Y194364D01*
X272102Y194556D01*
X272101Y194565D01*
X272102Y194574D01*
X272079Y194763D01*
X272058Y194956D01*
X272056Y194965D01*
X272055Y194973D01*
X271995Y195155D01*
X271937Y195340D01*
X271933Y195348D01*
X271930Y195356D01*
X271835Y195525D01*
X271742Y195692D01*
X271736Y195699D01*
X271732Y195707D01*
X271606Y195853D01*
X271482Y195999D01*
X271475Y196005D01*
X271469Y196012D01*
X271317Y196129D01*
X271166Y196249D01*
X271158Y196253D01*
X271151Y196258D01*
X270979Y196344D01*
X270807Y196431D01*
X270798Y196434D01*
X270790Y196438D01*
X270604Y196488D01*
X270419Y196539D01*
X270410Y196540D01*
X270401Y196542D01*
X270071Y196569D01*
X267682Y196569D01*
X263399Y198343D01*
X260121Y201621D01*
X258347Y205904D01*
X258347Y229336D01*
X260121Y233619D01*
X263399Y236897D01*
X267682Y238671D01*
X272318Y238671D01*
X276601Y236897D01*
X280065Y233432D01*
X280079Y233421D01*
X280090Y233407D01*
X280235Y233294D01*
X280377Y233177D01*
X280392Y233169D01*
X280406Y233158D01*
X280570Y233075D01*
X280732Y232989D01*
X280749Y232984D01*
X280765Y232976D01*
X280943Y232926D01*
X281118Y232874D01*
X281136Y232872D01*
X281153Y232868D01*
X281336Y232854D01*
X281519Y232838D01*
X281537Y232839D01*
X281555Y232838D01*
X281737Y232861D01*
X281919Y232881D01*
X281936Y232886D01*
X281954Y232889D01*
X282128Y232947D01*
X282303Y233002D01*
X282319Y233011D01*
X282336Y233017D01*
X282495Y233109D01*
X282656Y233197D01*
X282669Y233209D01*
X282685Y233218D01*
X282938Y233432D01*
X295928Y246423D01*
X295939Y246437D01*
X295953Y246448D01*
X296067Y246592D01*
X296183Y246734D01*
X296191Y246750D01*
X296203Y246764D01*
X296286Y246929D01*
X296372Y247090D01*
X296377Y247107D01*
X296385Y247123D01*
X296434Y247301D01*
X296486Y247476D01*
X296488Y247494D01*
X296493Y247511D01*
X296506Y247694D01*
X296523Y247877D01*
X296521Y247895D01*
X296522Y247912D01*
X296499Y248094D01*
X296479Y248277D01*
X296474Y248294D01*
X296472Y248312D01*
X296414Y248485D01*
X296358Y248661D01*
X296349Y248677D01*
X296344Y248694D01*
X296252Y248853D01*
X296163Y249013D01*
X296152Y249027D01*
X296143Y249042D01*
X295928Y249295D01*
X295915Y249308D01*
X295915Y261118D01*
X295913Y261136D01*
X295915Y261154D01*
X295894Y261336D01*
X295875Y261519D01*
X295870Y261536D01*
X295868Y261553D01*
X295811Y261728D01*
X295757Y261904D01*
X295749Y261919D01*
X295743Y261936D01*
X295653Y262096D01*
X295565Y262258D01*
X295554Y262271D01*
X295545Y262287D01*
X295425Y262426D01*
X295308Y262567D01*
X295294Y262578D01*
X295282Y262592D01*
X295137Y262704D01*
X294994Y262819D01*
X294978Y262827D01*
X294964Y262838D01*
X294799Y262920D01*
X294637Y263005D01*
X294620Y263010D01*
X294604Y263018D01*
X294425Y263065D01*
X294250Y263116D01*
X294232Y263118D01*
X294215Y263122D01*
X293884Y263149D01*
X282074Y263149D01*
X281932Y263291D01*
X281911Y263308D01*
X281894Y263329D01*
X281756Y263436D01*
X281621Y263546D01*
X281597Y263559D01*
X281576Y263575D01*
X281419Y263653D01*
X281265Y263735D01*
X281239Y263743D01*
X281215Y263755D01*
X281046Y263800D01*
X280879Y263850D01*
X280852Y263852D01*
X280826Y263859D01*
X280496Y263886D01*
X278032Y263886D01*
X278014Y263884D01*
X277996Y263886D01*
X277814Y263865D01*
X277631Y263846D01*
X277614Y263841D01*
X277597Y263839D01*
X277422Y263782D01*
X277246Y263728D01*
X277231Y263720D01*
X277214Y263714D01*
X277054Y263624D01*
X276892Y263536D01*
X276879Y263525D01*
X276863Y263516D01*
X276724Y263396D01*
X276583Y263279D01*
X276572Y263265D01*
X276558Y263253D01*
X276446Y263108D01*
X276331Y262965D01*
X276323Y262949D01*
X276312Y262935D01*
X276230Y262770D01*
X276145Y262608D01*
X276140Y262591D01*
X276132Y262575D01*
X276084Y262396D01*
X276034Y262221D01*
X276032Y262203D01*
X276028Y262186D01*
X276001Y261855D01*
X276001Y259751D01*
X275528Y259278D01*
X275516Y259264D01*
X275503Y259253D01*
X275389Y259109D01*
X275273Y258967D01*
X275264Y258951D01*
X275253Y258937D01*
X275170Y258773D01*
X275084Y258611D01*
X275079Y258594D01*
X275071Y258578D01*
X275021Y258401D01*
X274969Y258225D01*
X274968Y258207D01*
X274963Y258190D01*
X274949Y258007D01*
X274933Y257824D01*
X274935Y257806D01*
X274933Y257789D01*
X274956Y257606D01*
X274976Y257424D01*
X274982Y257407D01*
X274984Y257389D01*
X275042Y257215D01*
X275098Y257040D01*
X275106Y257024D01*
X275112Y257007D01*
X275203Y256849D01*
X275292Y256688D01*
X275304Y256674D01*
X275313Y256659D01*
X275528Y256406D01*
X276033Y255900D01*
X276368Y255321D01*
X276541Y254675D01*
X276541Y251871D01*
X270000Y251871D01*
X263459Y251871D01*
X263459Y254675D01*
X263632Y255321D01*
X263967Y255900D01*
X264472Y256406D01*
X264484Y256419D01*
X264497Y256431D01*
X264611Y256575D01*
X264727Y256717D01*
X264736Y256733D01*
X264747Y256747D01*
X264830Y256911D01*
X264916Y257073D01*
X264921Y257090D01*
X264929Y257106D01*
X264979Y257283D01*
X265031Y257459D01*
X265032Y257476D01*
X265037Y257494D01*
X265051Y257677D01*
X265067Y257860D01*
X265065Y257877D01*
X265067Y257895D01*
X265044Y258077D01*
X265024Y258260D01*
X265018Y258277D01*
X265016Y258295D01*
X264958Y258468D01*
X264902Y258644D01*
X264894Y258659D01*
X264888Y258676D01*
X264796Y258835D01*
X264708Y258996D01*
X264696Y259010D01*
X264687Y259025D01*
X264472Y259278D01*
X263999Y259751D01*
X263999Y270409D01*
X265171Y271581D01*
X271961Y271581D01*
X271974Y271582D01*
X271987Y271581D01*
X272174Y271602D01*
X272361Y271621D01*
X272374Y271625D01*
X272388Y271626D01*
X272566Y271684D01*
X272746Y271739D01*
X272758Y271745D01*
X272771Y271749D01*
X272935Y271841D01*
X273100Y271931D01*
X273111Y271939D01*
X273122Y271946D01*
X273265Y272068D01*
X273410Y272188D01*
X273418Y272199D01*
X273428Y272207D01*
X273544Y272356D01*
X273662Y272502D01*
X273668Y272514D01*
X273676Y272524D01*
X273761Y272693D01*
X273847Y272859D01*
X273851Y272872D01*
X273857Y272884D01*
X273907Y273066D01*
X273959Y273246D01*
X273960Y273260D01*
X273963Y273273D01*
X273976Y273459D01*
X273992Y273648D01*
X273990Y273661D01*
X273991Y273674D01*
X273967Y273860D01*
X273945Y274047D01*
X273941Y274060D01*
X273939Y274073D01*
X273837Y274389D01*
X273525Y275143D01*
X273512Y275259D01*
X273493Y275446D01*
X273489Y275459D01*
X273488Y275472D01*
X273431Y275650D01*
X273375Y275831D01*
X273369Y275843D01*
X273365Y275856D01*
X273273Y276020D01*
X273183Y276185D01*
X273175Y276195D01*
X273168Y276207D01*
X273045Y276351D01*
X272926Y276494D01*
X272915Y276503D01*
X272907Y276513D01*
X272758Y276629D01*
X272612Y276747D01*
X272600Y276753D01*
X272590Y276761D01*
X272420Y276846D01*
X272255Y276932D01*
X272242Y276936D01*
X272230Y276942D01*
X272048Y276992D01*
X271868Y277044D01*
X271854Y277045D01*
X271841Y277048D01*
X271655Y277061D01*
X271466Y277076D01*
X271453Y277075D01*
X271440Y277076D01*
X271253Y277051D01*
X271067Y277030D01*
X271054Y277025D01*
X271041Y277024D01*
X270725Y276922D01*
X268868Y276153D01*
X267072Y276153D01*
X265411Y276841D01*
X264141Y278111D01*
X263453Y279772D01*
X263453Y281568D01*
X264141Y283229D01*
X265411Y284499D01*
X267072Y285187D01*
X268471Y285187D01*
X268480Y285188D01*
X268489Y285187D01*
X268682Y285208D01*
X268871Y285227D01*
X268880Y285229D01*
X268889Y285230D01*
X269073Y285289D01*
X269256Y285345D01*
X269264Y285349D01*
X269273Y285352D01*
X269441Y285445D01*
X269610Y285537D01*
X269617Y285542D01*
X269625Y285547D01*
X269772Y285671D01*
X269920Y285794D01*
X269925Y285801D01*
X269932Y285807D01*
X270052Y285959D01*
X270172Y286108D01*
X270176Y286116D01*
X270182Y286123D01*
X270269Y286296D01*
X270357Y286465D01*
X270360Y286474D01*
X270364Y286482D01*
X270416Y286668D01*
X270469Y286852D01*
X270470Y286861D01*
X270472Y286870D01*
X270486Y287063D01*
X270502Y287254D01*
X270501Y287262D01*
X270501Y287271D01*
X270477Y287464D01*
X270455Y287653D01*
X270452Y287662D01*
X270451Y287671D01*
X270390Y287853D01*
X270330Y288036D01*
X270326Y288044D01*
X270323Y288052D01*
X270227Y288219D01*
X270132Y288387D01*
X270126Y288394D01*
X270122Y288401D01*
X269907Y288654D01*
X226489Y332072D01*
X226468Y332089D01*
X226451Y332110D01*
X226313Y332216D01*
X226178Y332327D01*
X226154Y332340D01*
X226133Y332356D01*
X225976Y332434D01*
X225822Y332516D01*
X225796Y332524D01*
X225772Y332536D01*
X225603Y332581D01*
X225436Y332631D01*
X225409Y332633D01*
X225383Y332640D01*
X225053Y332667D01*
X142202Y332667D01*
X142180Y332665D01*
X142157Y332667D01*
X141980Y332645D01*
X141801Y332627D01*
X141780Y332621D01*
X141758Y332618D01*
X141587Y332562D01*
X141416Y332509D01*
X141397Y332499D01*
X141375Y332492D01*
X141220Y332403D01*
X141062Y332317D01*
X141045Y332303D01*
X141026Y332292D01*
X140891Y332174D01*
X140753Y332060D01*
X140739Y332042D01*
X140722Y332028D01*
X140613Y331885D01*
X140501Y331746D01*
X140490Y331726D01*
X140477Y331708D01*
X140411Y331581D01*
X138915Y330085D01*
X138905Y330073D01*
X138893Y330063D01*
X138778Y329917D01*
X138660Y329773D01*
X138653Y329760D01*
X138643Y329747D01*
X138558Y329581D01*
X138472Y329418D01*
X138467Y329403D01*
X138460Y329389D01*
X138410Y329210D01*
X138357Y329032D01*
X138355Y329016D01*
X138351Y329001D01*
X138337Y328817D01*
X138320Y328631D01*
X138322Y328615D01*
X138321Y328600D01*
X138344Y328416D01*
X138364Y328231D01*
X138369Y328216D01*
X138371Y328200D01*
X138429Y328025D01*
X138485Y327847D01*
X138493Y327833D01*
X138498Y327818D01*
X138590Y327657D01*
X138680Y327494D01*
X138690Y327482D01*
X138698Y327469D01*
X138821Y327329D01*
X138941Y327187D01*
X138953Y327178D01*
X138963Y327166D01*
X139223Y326960D01*
X139558Y326736D01*
X140408Y325886D01*
X141075Y324888D01*
X141430Y324031D01*
X136064Y324031D01*
X136046Y324030D01*
X136028Y324031D01*
X135846Y324010D01*
X135663Y323991D01*
X135646Y323986D01*
X135629Y323984D01*
X135454Y323927D01*
X135278Y323873D01*
X135263Y323865D01*
X135246Y323859D01*
X135086Y323769D01*
X134924Y323682D01*
X134911Y323670D01*
X134895Y323661D01*
X134756Y323541D01*
X134615Y323424D01*
X134604Y323410D01*
X134590Y323398D01*
X134478Y323253D01*
X134363Y323110D01*
X134355Y323094D01*
X134344Y323080D01*
X134262Y322915D01*
X134177Y322753D01*
X134172Y322736D01*
X134164Y322720D01*
X134117Y322542D01*
X134066Y322366D01*
X134064Y322348D01*
X134060Y322331D01*
X134033Y322000D01*
X134034Y321982D01*
X134033Y321965D01*
X134033Y321964D01*
X134054Y321782D01*
X134073Y321599D01*
X134078Y321582D01*
X134080Y321564D01*
X134137Y321390D01*
X134191Y321214D01*
X134199Y321199D01*
X134205Y321182D01*
X134296Y321021D01*
X134383Y320860D01*
X134394Y320847D01*
X134403Y320831D01*
X134523Y320692D01*
X134640Y320551D01*
X134654Y320540D01*
X134666Y320526D01*
X134811Y320414D01*
X134954Y320299D01*
X134970Y320290D01*
X134984Y320280D01*
X135149Y320198D01*
X135311Y320113D01*
X135328Y320108D01*
X135344Y320100D01*
X135523Y320052D01*
X135698Y320002D01*
X135716Y320000D01*
X135733Y319996D01*
X136064Y319969D01*
X141612Y319969D01*
X141623Y319857D01*
X141628Y319842D01*
X141629Y319827D01*
X141687Y319649D01*
X141742Y319472D01*
X141749Y319459D01*
X141754Y319444D01*
X141846Y319281D01*
X141934Y319119D01*
X141944Y319107D01*
X141952Y319093D01*
X142074Y318953D01*
X142193Y318810D01*
X142205Y318800D01*
X142215Y318788D01*
X142361Y318675D01*
X142507Y318558D01*
X142521Y318551D01*
X142533Y318542D01*
X142700Y318459D01*
X142865Y318374D01*
X142880Y318369D01*
X142894Y318362D01*
X143074Y318314D01*
X143252Y318263D01*
X143268Y318262D01*
X143283Y318258D01*
X143613Y318231D01*
X229429Y318231D01*
X243301Y304359D01*
X243301Y169799D01*
X243302Y169790D01*
X243301Y169782D01*
X243322Y169588D01*
X243341Y169399D01*
X243343Y169390D01*
X243344Y169381D01*
X243403Y169197D01*
X243459Y169014D01*
X243463Y169006D01*
X243466Y168997D01*
X243559Y168829D01*
X243651Y168660D01*
X243656Y168653D01*
X243661Y168645D01*
X243785Y168498D01*
X243908Y168350D01*
X243915Y168345D01*
X243921Y168338D01*
X244073Y168218D01*
X244222Y168098D01*
X244230Y168094D01*
X244237Y168088D01*
X244410Y168001D01*
X244579Y167913D01*
X244588Y167910D01*
X244596Y167906D01*
X244782Y167854D01*
X244966Y167801D01*
X244975Y167801D01*
X244984Y167798D01*
X245177Y167784D01*
X245368Y167768D01*
X245376Y167769D01*
G37*
G36*
X345667Y216535D02*
X345667Y216535D01*
X345685Y216533D01*
X345867Y216554D01*
X346050Y216573D01*
X346067Y216578D01*
X346084Y216580D01*
X346259Y216637D01*
X346435Y216691D01*
X346450Y216699D01*
X346467Y216705D01*
X346627Y216795D01*
X346789Y216883D01*
X346802Y216894D01*
X346818Y216903D01*
X346957Y217023D01*
X347098Y217140D01*
X347109Y217154D01*
X347123Y217166D01*
X347235Y217311D01*
X347350Y217454D01*
X347358Y217470D01*
X347369Y217484D01*
X347451Y217649D01*
X347536Y217811D01*
X347541Y217828D01*
X347549Y217844D01*
X347596Y218023D01*
X347647Y218198D01*
X347649Y218216D01*
X347653Y218233D01*
X347680Y218564D01*
X347680Y223816D01*
X347664Y223978D01*
X347654Y224142D01*
X347644Y224179D01*
X347640Y224216D01*
X347592Y224373D01*
X347550Y224531D01*
X347532Y224569D01*
X347522Y224601D01*
X347481Y224678D01*
X347408Y224831D01*
X347313Y224995D01*
X347187Y225469D01*
X354634Y225469D01*
X354651Y225470D01*
X354669Y225469D01*
X354852Y225490D01*
X355034Y225508D01*
X355051Y225514D01*
X355069Y225516D01*
X355244Y225573D01*
X355419Y225627D01*
X355435Y225635D01*
X355452Y225641D01*
X355612Y225731D01*
X355773Y225818D01*
X355787Y225830D01*
X355802Y225839D01*
X355942Y225959D01*
X356082Y226076D01*
X356083Y226076D01*
X356083Y226077D01*
X356094Y226090D01*
X356107Y226102D01*
X356108Y226102D01*
X356220Y226247D01*
X356335Y226390D01*
X356344Y226406D01*
X356354Y226420D01*
X356436Y226585D01*
X356521Y226748D01*
X356526Y226765D01*
X356534Y226781D01*
X356581Y226958D01*
X356632Y227135D01*
X356634Y227152D01*
X356638Y227170D01*
X356665Y227500D01*
X356665Y231565D01*
X359156Y231565D01*
X359174Y231567D01*
X359192Y231565D01*
X359374Y231586D01*
X359557Y231605D01*
X359574Y231610D01*
X359591Y231612D01*
X359766Y231669D01*
X359942Y231723D01*
X359957Y231731D01*
X359974Y231737D01*
X360134Y231827D01*
X360296Y231915D01*
X360309Y231926D01*
X360325Y231935D01*
X360464Y232055D01*
X360605Y232172D01*
X360616Y232186D01*
X360630Y232198D01*
X360742Y232342D01*
X360857Y232486D01*
X360865Y232502D01*
X360876Y232516D01*
X360958Y232680D01*
X361043Y232843D01*
X361048Y232861D01*
X361056Y232876D01*
X361103Y233054D01*
X361154Y233230D01*
X361156Y233248D01*
X361160Y233265D01*
X361187Y233596D01*
X361187Y236104D01*
X361185Y236130D01*
X361187Y236157D01*
X361165Y236331D01*
X361147Y236504D01*
X361140Y236530D01*
X361136Y236556D01*
X361081Y236722D01*
X361029Y236889D01*
X361016Y236913D01*
X361008Y236938D01*
X360921Y237090D01*
X360837Y237243D01*
X360820Y237264D01*
X360807Y237287D01*
X360671Y237448D01*
X359973Y239132D01*
X359973Y240928D01*
X360661Y242589D01*
X361931Y243859D01*
X363592Y244547D01*
X365388Y244547D01*
X366582Y244052D01*
X366603Y244046D01*
X366623Y244036D01*
X366795Y243988D01*
X366967Y243936D01*
X366990Y243934D01*
X367011Y243928D01*
X367190Y243915D01*
X367368Y243898D01*
X367390Y243900D01*
X367413Y243898D01*
X367590Y243921D01*
X367769Y243939D01*
X367790Y243946D01*
X367812Y243949D01*
X367982Y244006D01*
X368153Y244059D01*
X368172Y244070D01*
X368194Y244077D01*
X368349Y244167D01*
X368506Y244252D01*
X368523Y244267D01*
X368543Y244278D01*
X368796Y244493D01*
X369193Y244891D01*
X370854Y245578D01*
X372966Y245578D01*
X372984Y245580D01*
X373002Y245579D01*
X373184Y245600D01*
X373367Y245618D01*
X373384Y245623D01*
X373401Y245625D01*
X373576Y245682D01*
X373752Y245736D01*
X373767Y245745D01*
X373784Y245750D01*
X373944Y245841D01*
X374106Y245928D01*
X374119Y245939D01*
X374135Y245948D01*
X374274Y246068D01*
X374415Y246186D01*
X374426Y246200D01*
X374440Y246211D01*
X374552Y246356D01*
X374667Y246500D01*
X374675Y246515D01*
X374686Y246529D01*
X374768Y246694D01*
X374853Y246857D01*
X374858Y246874D01*
X374866Y246890D01*
X374913Y247068D01*
X374964Y247244D01*
X374966Y247262D01*
X374970Y247279D01*
X374997Y247609D01*
X374997Y249127D01*
X374994Y249158D01*
X374996Y249189D01*
X374974Y249359D01*
X374957Y249528D01*
X374948Y249557D01*
X374944Y249588D01*
X374843Y249904D01*
X374387Y251005D01*
X374387Y252802D01*
X375074Y254462D01*
X376345Y255733D01*
X376781Y255913D01*
X376793Y255920D01*
X376806Y255924D01*
X376970Y256014D01*
X377136Y256103D01*
X377146Y256112D01*
X377158Y256118D01*
X377301Y256240D01*
X377447Y256360D01*
X377455Y256370D01*
X377465Y256379D01*
X377581Y256526D01*
X377700Y256673D01*
X377706Y256684D01*
X377715Y256695D01*
X377800Y256863D01*
X377887Y257029D01*
X377891Y257042D01*
X377897Y257054D01*
X377948Y257235D01*
X378000Y257415D01*
X378002Y257429D01*
X378005Y257442D01*
X378019Y257630D01*
X378035Y257817D01*
X378034Y257830D01*
X378035Y257843D01*
X378011Y258031D01*
X377990Y258217D01*
X377986Y258229D01*
X377984Y258243D01*
X377924Y258421D01*
X377867Y258600D01*
X377860Y258612D01*
X377856Y258624D01*
X377762Y258787D01*
X377670Y258951D01*
X377662Y258962D01*
X377655Y258973D01*
X377440Y259226D01*
X373724Y262943D01*
X373712Y262953D01*
X373704Y262962D01*
X373703Y262962D01*
X373698Y262968D01*
X373555Y263081D01*
X373412Y263198D01*
X373396Y263206D01*
X373383Y263217D01*
X373220Y263300D01*
X373057Y263386D01*
X373039Y263391D01*
X373024Y263400D01*
X372847Y263449D01*
X372671Y263501D01*
X372653Y263503D01*
X372636Y263507D01*
X372453Y263521D01*
X372270Y263537D01*
X372252Y263536D01*
X372234Y263537D01*
X372052Y263514D01*
X371869Y263494D01*
X371852Y263489D01*
X371835Y263486D01*
X371660Y263428D01*
X371486Y263373D01*
X371470Y263364D01*
X371453Y263358D01*
X371294Y263267D01*
X371133Y263178D01*
X371120Y263166D01*
X371104Y263157D01*
X371095Y263149D01*
X359462Y263149D01*
X359381Y263141D01*
X359298Y263143D01*
X359181Y263121D01*
X359062Y263109D01*
X358983Y263085D01*
X358902Y263071D01*
X358791Y263026D01*
X358677Y262991D01*
X358605Y262952D01*
X358528Y262922D01*
X358428Y262856D01*
X358323Y262799D01*
X358260Y262747D01*
X358191Y262702D01*
X358105Y262618D01*
X358014Y262542D01*
X357962Y262478D01*
X357903Y262420D01*
X357836Y262321D01*
X357761Y262228D01*
X357723Y262155D01*
X357677Y262087D01*
X357631Y261977D01*
X357576Y261871D01*
X357553Y261792D01*
X357521Y261716D01*
X357497Y261599D01*
X357464Y261484D01*
X357458Y261402D01*
X357441Y261321D01*
X357441Y261202D01*
X357431Y261082D01*
X357441Y261001D01*
X357441Y260919D01*
X357468Y260769D01*
X357478Y260683D01*
X357491Y260644D01*
X357500Y260592D01*
X357757Y259635D01*
X357757Y256831D01*
X354066Y256831D01*
X349248Y256831D01*
X349230Y256830D01*
X349212Y256831D01*
X349030Y256810D01*
X348847Y256791D01*
X348830Y256786D01*
X348813Y256784D01*
X348638Y256727D01*
X348462Y256673D01*
X348447Y256665D01*
X348430Y256659D01*
X348270Y256569D01*
X348108Y256482D01*
X348095Y256470D01*
X348079Y256461D01*
X347940Y256341D01*
X347799Y256224D01*
X347788Y256210D01*
X347774Y256198D01*
X347662Y256053D01*
X347547Y255910D01*
X347539Y255894D01*
X347528Y255880D01*
X347446Y255715D01*
X347361Y255553D01*
X347356Y255536D01*
X347348Y255520D01*
X347301Y255342D01*
X347250Y255166D01*
X347248Y255148D01*
X347244Y255131D01*
X347217Y254800D01*
X347218Y254782D01*
X347217Y254765D01*
X347217Y254764D01*
X347238Y254582D01*
X347257Y254399D01*
X347262Y254382D01*
X347264Y254364D01*
X347321Y254190D01*
X347375Y254014D01*
X347383Y253999D01*
X347389Y253982D01*
X347479Y253821D01*
X347567Y253660D01*
X347578Y253647D01*
X347587Y253631D01*
X347707Y253492D01*
X347824Y253351D01*
X347838Y253340D01*
X347850Y253326D01*
X347995Y253214D01*
X348138Y253099D01*
X348154Y253090D01*
X348168Y253080D01*
X348333Y252998D01*
X348495Y252913D01*
X348512Y252908D01*
X348528Y252900D01*
X348707Y252852D01*
X348882Y252802D01*
X348900Y252800D01*
X348917Y252796D01*
X349248Y252769D01*
X354066Y252769D01*
X357757Y252769D01*
X357757Y249965D01*
X357544Y249172D01*
X357134Y248462D01*
X356554Y247882D01*
X356097Y247618D01*
X356097Y247746D01*
X356086Y247858D01*
X356085Y247971D01*
X356066Y248058D01*
X356057Y248146D01*
X356024Y248254D01*
X356001Y248365D01*
X355965Y248446D01*
X355939Y248531D01*
X355886Y248631D01*
X355841Y248734D01*
X355790Y248807D01*
X355748Y248885D01*
X355675Y248972D01*
X355611Y249065D01*
X355547Y249126D01*
X355490Y249194D01*
X355402Y249265D01*
X355320Y249343D01*
X355245Y249391D01*
X355176Y249447D01*
X355076Y249499D01*
X354981Y249559D01*
X354898Y249591D01*
X354819Y249632D01*
X354710Y249664D01*
X354605Y249704D01*
X354517Y249719D01*
X354432Y249744D01*
X354319Y249753D01*
X354208Y249772D01*
X354119Y249769D01*
X354031Y249777D01*
X353918Y249763D01*
X353806Y249760D01*
X353719Y249740D01*
X353631Y249730D01*
X353523Y249695D01*
X353413Y249669D01*
X353332Y249632D01*
X353248Y249605D01*
X353150Y249549D01*
X353047Y249503D01*
X352975Y249451D01*
X352897Y249407D01*
X352812Y249333D01*
X352720Y249267D01*
X352660Y249202D01*
X352593Y249144D01*
X352523Y249054D01*
X352447Y248972D01*
X352390Y248883D01*
X352346Y248826D01*
X352346Y248825D01*
X352317Y248768D01*
X352269Y248692D01*
X352268Y248691D01*
X352222Y248576D01*
X352166Y248465D01*
X352146Y248390D01*
X352117Y248318D01*
X352094Y248196D01*
X352062Y248076D01*
X352054Y247986D01*
X352042Y247922D01*
X352043Y247850D01*
X352035Y247745D01*
X352035Y247534D01*
X351930Y247551D01*
X351769Y247583D01*
X351732Y247583D01*
X351694Y247589D01*
X351531Y247584D01*
X351367Y247584D01*
X351325Y247576D01*
X351292Y247575D01*
X351207Y247555D01*
X351040Y247524D01*
X350790Y247457D01*
X350649Y247404D01*
X350506Y247358D01*
X350461Y247333D01*
X350413Y247315D01*
X350285Y247235D01*
X350154Y247162D01*
X350115Y247128D01*
X350072Y247101D01*
X349963Y246998D01*
X349848Y246900D01*
X349817Y246859D01*
X349780Y246824D01*
X349693Y246701D01*
X349600Y246583D01*
X349577Y246537D01*
X349548Y246495D01*
X349487Y246357D01*
X349419Y246223D01*
X349406Y246174D01*
X349385Y246127D01*
X349353Y245980D01*
X349313Y245835D01*
X349310Y245784D01*
X349299Y245734D01*
X349296Y245583D01*
X349286Y245433D01*
X349292Y245382D01*
X349291Y245331D01*
X349318Y245183D01*
X349338Y245034D01*
X349355Y244979D01*
X349363Y244935D01*
X349395Y244856D01*
X349439Y244718D01*
X349957Y243468D01*
X349957Y241672D01*
X349269Y240011D01*
X347999Y238741D01*
X346338Y238053D01*
X344542Y238053D01*
X342881Y238741D01*
X341611Y240011D01*
X340923Y241672D01*
X340923Y243468D01*
X341554Y244991D01*
X341558Y245004D01*
X341564Y245015D01*
X341616Y245195D01*
X341670Y245376D01*
X341672Y245389D01*
X341675Y245402D01*
X341691Y245591D01*
X341708Y245777D01*
X341707Y245790D01*
X341708Y245804D01*
X341686Y245990D01*
X341667Y246177D01*
X341663Y246190D01*
X341661Y246203D01*
X341603Y246381D01*
X341547Y246562D01*
X341541Y246573D01*
X341536Y246586D01*
X341444Y246750D01*
X341354Y246915D01*
X341345Y246925D01*
X341338Y246937D01*
X341216Y247079D01*
X341095Y247223D01*
X341084Y247231D01*
X341075Y247242D01*
X340927Y247356D01*
X340780Y247474D01*
X340768Y247480D01*
X340757Y247488D01*
X340589Y247572D01*
X340422Y247658D01*
X340409Y247662D01*
X340397Y247668D01*
X340214Y247717D01*
X340034Y247768D01*
X340021Y247769D01*
X340008Y247772D01*
X339677Y247799D01*
X336732Y247799D01*
X336731Y247799D01*
X336548Y247816D01*
X336529Y247814D01*
X336511Y247815D01*
X336385Y247799D01*
X331732Y247799D01*
X331731Y247799D01*
X331548Y247816D01*
X331529Y247814D01*
X331511Y247815D01*
X331385Y247799D01*
X326732Y247799D01*
X326731Y247799D01*
X326548Y247816D01*
X326529Y247814D01*
X326511Y247815D01*
X326385Y247799D01*
X321732Y247799D01*
X321731Y247799D01*
X321548Y247816D01*
X321529Y247814D01*
X321511Y247815D01*
X321385Y247799D01*
X316732Y247799D01*
X316731Y247799D01*
X316548Y247816D01*
X316529Y247814D01*
X316511Y247815D01*
X316385Y247799D01*
X313130Y247799D01*
X313112Y247797D01*
X313094Y247799D01*
X312912Y247778D01*
X312729Y247759D01*
X312712Y247754D01*
X312695Y247752D01*
X312520Y247695D01*
X312344Y247641D01*
X312329Y247633D01*
X312312Y247627D01*
X312152Y247537D01*
X311990Y247449D01*
X311977Y247438D01*
X311961Y247429D01*
X311822Y247309D01*
X311681Y247192D01*
X311670Y247178D01*
X311656Y247166D01*
X311544Y247021D01*
X311429Y246878D01*
X311421Y246862D01*
X311410Y246848D01*
X311328Y246683D01*
X311243Y246521D01*
X311238Y246504D01*
X311230Y246488D01*
X311183Y246309D01*
X311132Y246134D01*
X311130Y246116D01*
X311126Y246099D01*
X311099Y245768D01*
X311099Y243231D01*
X311101Y243209D01*
X311099Y243187D01*
X311121Y243009D01*
X311139Y242831D01*
X311145Y242809D01*
X311148Y242787D01*
X311204Y242617D01*
X311257Y242446D01*
X311267Y242426D01*
X311274Y242405D01*
X311363Y242249D01*
X311449Y242092D01*
X311463Y242075D01*
X311474Y242055D01*
X311592Y241920D01*
X311706Y241782D01*
X311724Y241769D01*
X311738Y241752D01*
X311880Y241642D01*
X312020Y241530D01*
X312040Y241520D01*
X312058Y241506D01*
X312353Y241355D01*
X312439Y241319D01*
X313709Y240049D01*
X314397Y238388D01*
X314397Y236592D01*
X313709Y234931D01*
X312439Y233661D01*
X311682Y233348D01*
X311670Y233341D01*
X311657Y233337D01*
X311493Y233246D01*
X311327Y233157D01*
X311317Y233149D01*
X311305Y233142D01*
X311161Y233020D01*
X311017Y232901D01*
X311008Y232891D01*
X310998Y232882D01*
X310882Y232735D01*
X310763Y232588D01*
X310757Y232576D01*
X310748Y232566D01*
X310663Y232398D01*
X310576Y232232D01*
X310572Y232219D01*
X310566Y232207D01*
X310516Y232026D01*
X310463Y231845D01*
X310462Y231832D01*
X310458Y231819D01*
X310444Y231631D01*
X310428Y231444D01*
X310430Y231431D01*
X310429Y231418D01*
X310452Y231230D01*
X310473Y231044D01*
X310477Y231031D01*
X310479Y231018D01*
X310539Y230839D01*
X310597Y230661D01*
X310603Y230649D01*
X310607Y230636D01*
X310701Y230474D01*
X310793Y230309D01*
X310802Y230299D01*
X310808Y230288D01*
X311023Y230035D01*
X312439Y228619D01*
X313127Y226958D01*
X313127Y225162D01*
X312439Y223501D01*
X311169Y222231D01*
X309508Y221543D01*
X307809Y221543D01*
X307783Y221541D01*
X307756Y221543D01*
X307582Y221521D01*
X307409Y221503D01*
X307383Y221496D01*
X307357Y221492D01*
X307191Y221436D01*
X307024Y221385D01*
X307000Y221373D01*
X306975Y221364D01*
X306823Y221277D01*
X306670Y221193D01*
X306649Y221176D01*
X306626Y221163D01*
X306373Y220948D01*
X305425Y220000D01*
X305419Y219993D01*
X305412Y219988D01*
X305293Y219839D01*
X305170Y219689D01*
X305166Y219681D01*
X305160Y219674D01*
X305072Y219504D01*
X304981Y219333D01*
X304979Y219324D01*
X304975Y219317D01*
X304922Y219132D01*
X304867Y218947D01*
X304866Y218938D01*
X304863Y218930D01*
X304848Y218739D01*
X304830Y218546D01*
X304831Y218537D01*
X304830Y218528D01*
X304853Y218339D01*
X304874Y218146D01*
X304876Y218137D01*
X304877Y218129D01*
X304937Y217946D01*
X304995Y217762D01*
X304999Y217754D01*
X305002Y217746D01*
X305097Y217578D01*
X305190Y217410D01*
X305196Y217403D01*
X305200Y217395D01*
X305326Y217249D01*
X305450Y217103D01*
X305457Y217097D01*
X305463Y217090D01*
X305616Y216972D01*
X305766Y216853D01*
X305774Y216849D01*
X305781Y216844D01*
X305953Y216758D01*
X306125Y216671D01*
X306134Y216668D01*
X306142Y216664D01*
X306327Y216615D01*
X306513Y216563D01*
X306522Y216562D01*
X306531Y216560D01*
X306861Y216533D01*
X345649Y216533D01*
X345667Y216535D01*
G37*
G36*
X399281Y160293D02*
X399281Y160293D01*
X399308Y160291D01*
X399482Y160313D01*
X399655Y160331D01*
X399681Y160338D01*
X399707Y160342D01*
X399873Y160397D01*
X400040Y160449D01*
X400064Y160462D01*
X400089Y160470D01*
X400241Y160557D01*
X400394Y160641D01*
X400415Y160658D01*
X400438Y160671D01*
X400691Y160886D01*
X411392Y171587D01*
X411409Y171608D01*
X411430Y171625D01*
X411537Y171763D01*
X411647Y171899D01*
X411660Y171922D01*
X411676Y171943D01*
X411754Y172100D01*
X411836Y172254D01*
X411844Y172280D01*
X411856Y172304D01*
X411901Y172473D01*
X411951Y172640D01*
X411953Y172667D01*
X411960Y172693D01*
X411987Y173023D01*
X411987Y212408D01*
X411985Y212426D01*
X411987Y212444D01*
X411966Y212626D01*
X411947Y212809D01*
X411942Y212826D01*
X411940Y212843D01*
X411883Y213018D01*
X411829Y213194D01*
X411821Y213209D01*
X411815Y213226D01*
X411725Y213386D01*
X411637Y213548D01*
X411626Y213561D01*
X411617Y213577D01*
X411497Y213716D01*
X411380Y213857D01*
X411366Y213868D01*
X411354Y213882D01*
X411209Y213994D01*
X411066Y214109D01*
X411050Y214117D01*
X411036Y214128D01*
X410871Y214210D01*
X410709Y214295D01*
X410692Y214300D01*
X410676Y214308D01*
X410497Y214355D01*
X410322Y214406D01*
X410304Y214408D01*
X410287Y214412D01*
X409956Y214439D01*
X408431Y214439D01*
X408431Y220980D01*
X408430Y220997D01*
X408431Y221015D01*
X408410Y221198D01*
X408391Y221380D01*
X408386Y221397D01*
X408384Y221415D01*
X408327Y221590D01*
X408273Y221765D01*
X408265Y221781D01*
X408259Y221798D01*
X408169Y221958D01*
X408082Y222119D01*
X408070Y222133D01*
X408061Y222148D01*
X407941Y222288D01*
X407824Y222428D01*
X407810Y222440D01*
X407798Y222453D01*
X407653Y222566D01*
X407510Y222681D01*
X407494Y222689D01*
X407480Y222700D01*
X407315Y222782D01*
X407153Y222866D01*
X407136Y222871D01*
X407120Y222879D01*
X406942Y222927D01*
X406766Y222978D01*
X406748Y222979D01*
X406731Y222984D01*
X406400Y223011D01*
X406382Y223009D01*
X406365Y223011D01*
X406364Y223011D01*
X406182Y222989D01*
X405999Y222971D01*
X405982Y222966D01*
X405964Y222964D01*
X405790Y222907D01*
X405614Y222853D01*
X405599Y222844D01*
X405582Y222839D01*
X405421Y222748D01*
X405260Y222661D01*
X405247Y222650D01*
X405231Y222641D01*
X405092Y222521D01*
X404951Y222403D01*
X404940Y222389D01*
X404926Y222378D01*
X404814Y222233D01*
X404699Y222090D01*
X404690Y222074D01*
X404680Y222060D01*
X404598Y221895D01*
X404513Y221732D01*
X404508Y221715D01*
X404500Y221699D01*
X404452Y221521D01*
X404402Y221345D01*
X404400Y221328D01*
X404396Y221310D01*
X404369Y220980D01*
X404369Y214439D01*
X401565Y214439D01*
X400919Y214612D01*
X400340Y214947D01*
X399834Y215452D01*
X399821Y215464D01*
X399809Y215477D01*
X399665Y215591D01*
X399523Y215707D01*
X399507Y215716D01*
X399493Y215727D01*
X399329Y215810D01*
X399167Y215896D01*
X399150Y215901D01*
X399134Y215909D01*
X398957Y215959D01*
X398781Y216011D01*
X398764Y216012D01*
X398746Y216017D01*
X398563Y216031D01*
X398380Y216047D01*
X398363Y216045D01*
X398345Y216047D01*
X398163Y216024D01*
X397980Y216004D01*
X397963Y215998D01*
X397945Y215996D01*
X397772Y215938D01*
X397596Y215882D01*
X397581Y215874D01*
X397564Y215868D01*
X397405Y215776D01*
X397244Y215688D01*
X397230Y215676D01*
X397215Y215667D01*
X396962Y215452D01*
X396489Y214979D01*
X385831Y214979D01*
X384659Y216151D01*
X384659Y225809D01*
X385379Y226529D01*
X385390Y226542D01*
X385404Y226554D01*
X385518Y226699D01*
X385634Y226840D01*
X385643Y226856D01*
X385654Y226870D01*
X385737Y227033D01*
X385823Y227196D01*
X385828Y227213D01*
X385836Y227229D01*
X385885Y227406D01*
X385938Y227582D01*
X385939Y227600D01*
X385944Y227617D01*
X385957Y227800D01*
X385974Y227983D01*
X385972Y228001D01*
X385973Y228018D01*
X385951Y228200D01*
X385931Y228383D01*
X385925Y228400D01*
X385923Y228418D01*
X385865Y228591D01*
X385809Y228767D01*
X385801Y228783D01*
X385795Y228799D01*
X385703Y228958D01*
X385614Y229119D01*
X385603Y229133D01*
X385594Y229148D01*
X385379Y229401D01*
X384659Y230121D01*
X384659Y234752D01*
X384657Y234770D01*
X384659Y234788D01*
X384638Y234970D01*
X384619Y235153D01*
X384614Y235170D01*
X384612Y235187D01*
X384555Y235362D01*
X384501Y235538D01*
X384493Y235553D01*
X384487Y235570D01*
X384397Y235730D01*
X384309Y235892D01*
X384298Y235905D01*
X384289Y235921D01*
X384169Y236060D01*
X384052Y236201D01*
X384038Y236212D01*
X384026Y236226D01*
X383881Y236338D01*
X383738Y236453D01*
X383722Y236461D01*
X383708Y236472D01*
X383543Y236554D01*
X383381Y236639D01*
X383364Y236644D01*
X383348Y236652D01*
X383169Y236699D01*
X382994Y236750D01*
X382976Y236752D01*
X382959Y236756D01*
X382628Y236783D01*
X382444Y236783D01*
X381871Y237020D01*
X381859Y237024D01*
X381847Y237030D01*
X381665Y237083D01*
X381486Y237137D01*
X381473Y237138D01*
X381460Y237142D01*
X381271Y237157D01*
X381085Y237175D01*
X381072Y237174D01*
X381058Y237175D01*
X380872Y237153D01*
X380685Y237133D01*
X380672Y237129D01*
X380659Y237128D01*
X380480Y237069D01*
X380300Y237013D01*
X380289Y237007D01*
X380276Y237003D01*
X380111Y236910D01*
X379947Y236820D01*
X379937Y236812D01*
X379925Y236805D01*
X379782Y236682D01*
X379639Y236561D01*
X379631Y236551D01*
X379620Y236542D01*
X379506Y236394D01*
X379388Y236246D01*
X379382Y236234D01*
X379374Y236224D01*
X379290Y236055D01*
X379204Y235888D01*
X379200Y235875D01*
X379194Y235863D01*
X379145Y235680D01*
X379094Y235501D01*
X379093Y235487D01*
X379090Y235474D01*
X379063Y235144D01*
X379063Y206642D01*
X379064Y206625D01*
X379063Y206609D01*
X379063Y206608D01*
X379063Y206606D01*
X379084Y206424D01*
X379103Y206241D01*
X379108Y206224D01*
X379110Y206207D01*
X379167Y206032D01*
X379221Y205856D01*
X379229Y205841D01*
X379235Y205824D01*
X379325Y205664D01*
X379413Y205502D01*
X379424Y205489D01*
X379433Y205473D01*
X379553Y205334D01*
X379670Y205193D01*
X379684Y205182D01*
X379696Y205168D01*
X379841Y205056D01*
X379984Y204941D01*
X380000Y204933D01*
X380014Y204922D01*
X380179Y204840D01*
X380341Y204755D01*
X380358Y204750D01*
X380374Y204742D01*
X380553Y204695D01*
X380728Y204644D01*
X380746Y204642D01*
X380763Y204638D01*
X381094Y204611D01*
X386169Y204611D01*
X387024Y203756D01*
X387038Y203744D01*
X387049Y203731D01*
X387193Y203617D01*
X387335Y203501D01*
X387351Y203492D01*
X387365Y203481D01*
X387529Y203398D01*
X387691Y203312D01*
X387708Y203307D01*
X387724Y203299D01*
X387901Y203250D01*
X388077Y203197D01*
X388095Y203196D01*
X388112Y203191D01*
X388295Y203177D01*
X388478Y203161D01*
X388496Y203163D01*
X388513Y203162D01*
X388695Y203184D01*
X388878Y203204D01*
X388895Y203210D01*
X388913Y203212D01*
X389087Y203270D01*
X389262Y203326D01*
X389278Y203334D01*
X389294Y203340D01*
X389453Y203432D01*
X389614Y203521D01*
X389628Y203532D01*
X389643Y203541D01*
X389896Y203756D01*
X390751Y204611D01*
X401409Y204611D01*
X402581Y203439D01*
X402581Y193781D01*
X401358Y192559D01*
X401194Y192505D01*
X401018Y192451D01*
X401003Y192443D01*
X400986Y192437D01*
X400826Y192347D01*
X400664Y192259D01*
X400651Y192248D01*
X400635Y192239D01*
X400496Y192119D01*
X400355Y192002D01*
X400344Y191988D01*
X400330Y191976D01*
X400218Y191831D01*
X400103Y191688D01*
X400095Y191672D01*
X400084Y191658D01*
X400002Y191493D01*
X399917Y191331D01*
X399912Y191314D01*
X399904Y191298D01*
X399857Y191119D01*
X399806Y190944D01*
X399804Y190926D01*
X399800Y190909D01*
X399773Y190578D01*
X399773Y185322D01*
X399775Y185304D01*
X399773Y185286D01*
X399794Y185104D01*
X399813Y184921D01*
X399818Y184904D01*
X399820Y184887D01*
X399877Y184712D01*
X399931Y184536D01*
X399939Y184521D01*
X399945Y184504D01*
X400036Y184343D01*
X400123Y184182D01*
X400134Y184169D01*
X400143Y184153D01*
X400263Y184014D01*
X400380Y183873D01*
X400394Y183862D01*
X400406Y183848D01*
X400551Y183736D01*
X400694Y183621D01*
X400710Y183613D01*
X400724Y183602D01*
X400889Y183520D01*
X401051Y183435D01*
X401068Y183430D01*
X401084Y183422D01*
X401263Y183375D01*
X401438Y183324D01*
X401456Y183322D01*
X401473Y183318D01*
X401548Y183312D01*
X402741Y182119D01*
X402741Y171461D01*
X401569Y170289D01*
X394251Y170289D01*
X394237Y170288D01*
X394224Y170289D01*
X394037Y170268D01*
X393850Y170249D01*
X393837Y170245D01*
X393824Y170244D01*
X393645Y170187D01*
X393465Y170131D01*
X393453Y170125D01*
X393441Y170121D01*
X393276Y170029D01*
X393111Y169939D01*
X393101Y169931D01*
X393089Y169924D01*
X392945Y169801D01*
X392802Y169682D01*
X392793Y169671D01*
X392783Y169663D01*
X392667Y169514D01*
X392549Y169368D01*
X392543Y169356D01*
X392535Y169346D01*
X392450Y169177D01*
X392364Y169011D01*
X392360Y168998D01*
X392354Y168986D01*
X392304Y168804D01*
X392253Y168624D01*
X392251Y168610D01*
X392248Y168597D01*
X392235Y168411D01*
X392220Y168222D01*
X392221Y168209D01*
X392220Y168196D01*
X392245Y168010D01*
X392267Y167823D01*
X392271Y167810D01*
X392272Y167797D01*
X392374Y167481D01*
X392883Y166252D01*
X392883Y164456D01*
X392321Y163099D01*
X392317Y163086D01*
X392311Y163075D01*
X392259Y162895D01*
X392204Y162714D01*
X392203Y162701D01*
X392200Y162688D01*
X392184Y162500D01*
X392166Y162313D01*
X392168Y162300D01*
X392167Y162286D01*
X392188Y162100D01*
X392208Y161913D01*
X392212Y161900D01*
X392214Y161887D01*
X392272Y161708D01*
X392328Y161528D01*
X392334Y161517D01*
X392338Y161504D01*
X392431Y161340D01*
X392521Y161175D01*
X392530Y161165D01*
X392536Y161153D01*
X392659Y161011D01*
X392780Y160867D01*
X392791Y160859D01*
X392799Y160848D01*
X392947Y160734D01*
X393095Y160616D01*
X393107Y160610D01*
X393118Y160602D01*
X393286Y160518D01*
X393453Y160432D01*
X393466Y160428D01*
X393478Y160422D01*
X393661Y160373D01*
X393841Y160322D01*
X393854Y160321D01*
X393867Y160318D01*
X394198Y160291D01*
X399255Y160291D01*
X399281Y160293D01*
G37*
G36*
X326600Y261786D02*
X326600Y261786D01*
X326619Y261785D01*
X326746Y261801D01*
X328598Y261801D01*
X328616Y261803D01*
X328633Y261801D01*
X328816Y261822D01*
X328999Y261841D01*
X329016Y261846D01*
X329033Y261848D01*
X329208Y261905D01*
X329383Y261959D01*
X329399Y261967D01*
X329416Y261973D01*
X329576Y262063D01*
X329737Y262151D01*
X329751Y262162D01*
X329767Y262171D01*
X329906Y262291D01*
X330047Y262408D01*
X330058Y262422D01*
X330071Y262434D01*
X330184Y262579D01*
X330299Y262722D01*
X330307Y262738D01*
X330318Y262752D01*
X330400Y262917D01*
X330485Y263079D01*
X330489Y263096D01*
X330497Y263112D01*
X330545Y263291D01*
X330596Y263466D01*
X330597Y263484D01*
X330602Y263501D01*
X330629Y263832D01*
X330629Y289737D01*
X355994Y289737D01*
X356012Y289739D01*
X356030Y289737D01*
X356212Y289759D01*
X356395Y289777D01*
X356412Y289782D01*
X356429Y289784D01*
X356604Y289841D01*
X356780Y289895D01*
X356795Y289903D01*
X356812Y289909D01*
X356972Y289999D01*
X357134Y290087D01*
X357147Y290098D01*
X357163Y290107D01*
X357302Y290227D01*
X357443Y290344D01*
X357454Y290358D01*
X357468Y290370D01*
X357580Y290515D01*
X357695Y290658D01*
X357703Y290674D01*
X357714Y290688D01*
X357796Y290853D01*
X357881Y291015D01*
X357886Y291032D01*
X357894Y291049D01*
X357941Y291227D01*
X357992Y291402D01*
X357994Y291420D01*
X357998Y291437D01*
X358025Y291768D01*
X358025Y292285D01*
X358238Y293078D01*
X358293Y293174D01*
X358361Y293323D01*
X358434Y293470D01*
X358443Y293506D01*
X358459Y293541D01*
X358496Y293700D01*
X358538Y293859D01*
X358542Y293901D01*
X358549Y293933D01*
X358551Y294020D01*
X358565Y294189D01*
X358565Y295832D01*
X358563Y295850D01*
X358565Y295867D01*
X358544Y296050D01*
X358525Y296233D01*
X358520Y296250D01*
X358518Y296267D01*
X358461Y296442D01*
X358407Y296617D01*
X358399Y296633D01*
X358393Y296650D01*
X358303Y296810D01*
X358215Y296971D01*
X358204Y296985D01*
X358195Y297001D01*
X358075Y297140D01*
X357958Y297281D01*
X357944Y297292D01*
X357932Y297305D01*
X357787Y297418D01*
X357644Y297533D01*
X357628Y297541D01*
X357614Y297552D01*
X357449Y297634D01*
X357287Y297719D01*
X357270Y297723D01*
X357254Y297731D01*
X357075Y297779D01*
X356900Y297830D01*
X356882Y297831D01*
X356865Y297836D01*
X356534Y297863D01*
X330629Y297863D01*
X330629Y323768D01*
X330627Y323786D01*
X330629Y323804D01*
X330608Y323986D01*
X330589Y324169D01*
X330584Y324186D01*
X330582Y324203D01*
X330525Y324378D01*
X330471Y324554D01*
X330463Y324569D01*
X330457Y324586D01*
X330367Y324746D01*
X330279Y324908D01*
X330268Y324921D01*
X330259Y324937D01*
X330139Y325076D01*
X330022Y325217D01*
X330008Y325228D01*
X329996Y325242D01*
X329851Y325354D01*
X329708Y325469D01*
X329692Y325477D01*
X329678Y325488D01*
X329513Y325570D01*
X329351Y325655D01*
X329334Y325660D01*
X329317Y325668D01*
X329139Y325715D01*
X328964Y325766D01*
X328946Y325768D01*
X328929Y325772D01*
X328598Y325799D01*
X326732Y325799D01*
X326731Y325799D01*
X326550Y325816D01*
X326532Y325814D01*
X326513Y325815D01*
X326386Y325799D01*
X324534Y325799D01*
X324516Y325797D01*
X324499Y325799D01*
X324316Y325778D01*
X324133Y325759D01*
X324116Y325754D01*
X324099Y325752D01*
X323924Y325695D01*
X323749Y325641D01*
X323733Y325633D01*
X323716Y325627D01*
X323556Y325537D01*
X323394Y325449D01*
X323381Y325438D01*
X323365Y325429D01*
X323226Y325309D01*
X323085Y325192D01*
X323074Y325178D01*
X323061Y325166D01*
X322948Y325021D01*
X322833Y324878D01*
X322825Y324862D01*
X322814Y324848D01*
X322732Y324683D01*
X322647Y324521D01*
X322642Y324504D01*
X322634Y324488D01*
X322587Y324309D01*
X322536Y324134D01*
X322535Y324116D01*
X322530Y324099D01*
X322503Y323768D01*
X322503Y297863D01*
X296598Y297863D01*
X296580Y297861D01*
X296562Y297863D01*
X296380Y297841D01*
X296197Y297823D01*
X296180Y297818D01*
X296163Y297816D01*
X295988Y297759D01*
X295812Y297705D01*
X295797Y297697D01*
X295780Y297691D01*
X295620Y297601D01*
X295458Y297513D01*
X295445Y297502D01*
X295429Y297493D01*
X295290Y297373D01*
X295149Y297256D01*
X295138Y297242D01*
X295124Y297230D01*
X295012Y297085D01*
X294897Y296942D01*
X294889Y296926D01*
X294878Y296912D01*
X294796Y296747D01*
X294711Y296585D01*
X294706Y296568D01*
X294698Y296551D01*
X294651Y296373D01*
X294600Y296198D01*
X294598Y296180D01*
X294594Y296163D01*
X294567Y295832D01*
X294567Y291768D01*
X294569Y291750D01*
X294567Y291733D01*
X294588Y291550D01*
X294607Y291367D01*
X294612Y291350D01*
X294614Y291333D01*
X294671Y291158D01*
X294725Y290983D01*
X294733Y290967D01*
X294739Y290950D01*
X294829Y290790D01*
X294917Y290628D01*
X294928Y290615D01*
X294937Y290599D01*
X295057Y290460D01*
X295174Y290319D01*
X295188Y290308D01*
X295200Y290295D01*
X295345Y290182D01*
X295488Y290067D01*
X295504Y290059D01*
X295518Y290048D01*
X295683Y289966D01*
X295845Y289881D01*
X295862Y289876D01*
X295878Y289868D01*
X296057Y289821D01*
X296232Y289770D01*
X296250Y289769D01*
X296267Y289764D01*
X296598Y289737D01*
X322503Y289737D01*
X322503Y263832D01*
X322505Y263814D01*
X322503Y263796D01*
X322525Y263614D01*
X322543Y263431D01*
X322548Y263414D01*
X322550Y263397D01*
X322607Y263222D01*
X322661Y263046D01*
X322669Y263031D01*
X322675Y263014D01*
X322765Y262854D01*
X322853Y262692D01*
X322864Y262679D01*
X322873Y262663D01*
X322993Y262524D01*
X323110Y262383D01*
X323124Y262372D01*
X323136Y262358D01*
X323281Y262246D01*
X323424Y262131D01*
X323440Y262123D01*
X323454Y262112D01*
X323619Y262030D01*
X323781Y261945D01*
X323798Y261940D01*
X323815Y261932D01*
X323993Y261885D01*
X324168Y261834D01*
X324186Y261832D01*
X324203Y261828D01*
X324534Y261801D01*
X326400Y261801D01*
X326401Y261801D01*
X326582Y261784D01*
X326600Y261786D01*
G37*
G36*
X388258Y174761D02*
X388258Y174761D01*
X388275Y174759D01*
X388276Y174759D01*
X388458Y174781D01*
X388641Y174799D01*
X388658Y174804D01*
X388676Y174806D01*
X388850Y174863D01*
X389026Y174917D01*
X389041Y174926D01*
X389058Y174931D01*
X389219Y175022D01*
X389380Y175109D01*
X389393Y175120D01*
X389409Y175129D01*
X389548Y175249D01*
X389689Y175367D01*
X389700Y175381D01*
X389714Y175392D01*
X389826Y175537D01*
X389941Y175680D01*
X389950Y175696D01*
X389960Y175710D01*
X390042Y175875D01*
X390127Y176038D01*
X390132Y176055D01*
X390140Y176071D01*
X390188Y176249D01*
X390238Y176425D01*
X390240Y176442D01*
X390244Y176460D01*
X390271Y176790D01*
X390271Y183831D01*
X391575Y183831D01*
X392221Y183658D01*
X392385Y183563D01*
X392534Y183495D01*
X392681Y183422D01*
X392717Y183413D01*
X392752Y183397D01*
X392911Y183360D01*
X393070Y183318D01*
X393112Y183314D01*
X393144Y183307D01*
X393231Y183305D01*
X393400Y183291D01*
X393676Y183291D01*
X393694Y183293D01*
X393712Y183291D01*
X393894Y183312D01*
X394077Y183331D01*
X394094Y183336D01*
X394111Y183338D01*
X394286Y183395D01*
X394462Y183449D01*
X394477Y183457D01*
X394494Y183463D01*
X394654Y183553D01*
X394816Y183641D01*
X394829Y183652D01*
X394845Y183661D01*
X394984Y183781D01*
X395125Y183898D01*
X395136Y183912D01*
X395150Y183924D01*
X395262Y184069D01*
X395377Y184212D01*
X395385Y184228D01*
X395396Y184242D01*
X395478Y184407D01*
X395563Y184569D01*
X395568Y184586D01*
X395576Y184602D01*
X395623Y184781D01*
X395674Y184956D01*
X395676Y184974D01*
X395680Y184991D01*
X395707Y185322D01*
X395707Y190578D01*
X395705Y190596D01*
X395707Y190614D01*
X395686Y190796D01*
X395667Y190979D01*
X395662Y190996D01*
X395660Y191013D01*
X395603Y191188D01*
X395549Y191364D01*
X395541Y191379D01*
X395535Y191396D01*
X395445Y191556D01*
X395357Y191718D01*
X395346Y191731D01*
X395337Y191747D01*
X395217Y191886D01*
X395100Y192027D01*
X395086Y192038D01*
X395074Y192052D01*
X394929Y192164D01*
X394786Y192279D01*
X394770Y192287D01*
X394756Y192298D01*
X394591Y192380D01*
X394429Y192465D01*
X394412Y192470D01*
X394396Y192478D01*
X394217Y192525D01*
X394042Y192576D01*
X394024Y192578D01*
X394007Y192582D01*
X393676Y192609D01*
X390751Y192609D01*
X389896Y193464D01*
X389883Y193475D01*
X389871Y193489D01*
X389726Y193603D01*
X389585Y193719D01*
X389569Y193728D01*
X389555Y193739D01*
X389391Y193822D01*
X389229Y193908D01*
X389212Y193913D01*
X389196Y193921D01*
X389019Y193970D01*
X388843Y194023D01*
X388825Y194024D01*
X388808Y194029D01*
X388625Y194042D01*
X388442Y194059D01*
X388424Y194057D01*
X388407Y194058D01*
X388225Y194036D01*
X388042Y194016D01*
X388025Y194010D01*
X388007Y194008D01*
X387834Y193950D01*
X387658Y193894D01*
X387642Y193886D01*
X387626Y193880D01*
X387467Y193788D01*
X387306Y193699D01*
X387292Y193688D01*
X387277Y193679D01*
X387024Y193464D01*
X386169Y192609D01*
X382804Y192609D01*
X382786Y192607D01*
X382768Y192609D01*
X382586Y192588D01*
X382403Y192569D01*
X382386Y192564D01*
X382369Y192562D01*
X382194Y192505D01*
X382018Y192451D01*
X382003Y192443D01*
X381986Y192437D01*
X381826Y192347D01*
X381664Y192259D01*
X381651Y192248D01*
X381635Y192239D01*
X381496Y192119D01*
X381355Y192002D01*
X381344Y191988D01*
X381330Y191976D01*
X381218Y191831D01*
X381103Y191688D01*
X381095Y191672D01*
X381084Y191658D01*
X381002Y191493D01*
X380917Y191331D01*
X380912Y191314D01*
X380904Y191298D01*
X380857Y191119D01*
X380806Y190944D01*
X380804Y190926D01*
X380800Y190909D01*
X380773Y190578D01*
X380773Y185322D01*
X380775Y185304D01*
X380773Y185286D01*
X380794Y185104D01*
X380813Y184921D01*
X380818Y184904D01*
X380820Y184887D01*
X380877Y184712D01*
X380931Y184536D01*
X380939Y184521D01*
X380945Y184504D01*
X381036Y184343D01*
X381123Y184182D01*
X381134Y184169D01*
X381143Y184153D01*
X381263Y184014D01*
X381380Y183873D01*
X381394Y183862D01*
X381406Y183848D01*
X381551Y183736D01*
X381694Y183621D01*
X381710Y183613D01*
X381724Y183602D01*
X381889Y183520D01*
X382051Y183435D01*
X382068Y183430D01*
X382084Y183422D01*
X382263Y183375D01*
X382438Y183324D01*
X382456Y183322D01*
X382473Y183318D01*
X382804Y183291D01*
X383080Y183291D01*
X383242Y183307D01*
X383406Y183317D01*
X383443Y183327D01*
X383480Y183331D01*
X383637Y183379D01*
X383795Y183421D01*
X383833Y183439D01*
X383865Y183449D01*
X383942Y183490D01*
X384095Y183563D01*
X384259Y183658D01*
X384905Y183831D01*
X386209Y183831D01*
X386209Y176790D01*
X386210Y176773D01*
X386209Y176755D01*
X386230Y176572D01*
X386248Y176390D01*
X386254Y176373D01*
X386256Y176355D01*
X386313Y176180D01*
X386367Y176005D01*
X386375Y175989D01*
X386381Y175972D01*
X386471Y175812D01*
X386558Y175651D01*
X386570Y175637D01*
X386579Y175622D01*
X386699Y175482D01*
X386816Y175342D01*
X386830Y175330D01*
X386842Y175317D01*
X386987Y175204D01*
X387130Y175089D01*
X387146Y175081D01*
X387160Y175070D01*
X387325Y174988D01*
X387487Y174904D01*
X387504Y174899D01*
X387520Y174891D01*
X387698Y174843D01*
X387874Y174792D01*
X387892Y174791D01*
X387909Y174786D01*
X388240Y174759D01*
X388258Y174761D01*
G37*
%LPC*%
G36*
X344423Y60893D02*
X344423Y60893D01*
X344423Y71871D01*
X350695Y71871D01*
X351341Y71698D01*
X351920Y71363D01*
X352393Y70890D01*
X352728Y70311D01*
X352901Y69664D01*
X352901Y60893D01*
X344423Y60893D01*
G37*
%LPD*%
%LPC*%
G36*
X344423Y5895D02*
X344423Y5895D01*
X344423Y16872D01*
X350695Y16872D01*
X351341Y16699D01*
X351920Y16364D01*
X352393Y15891D01*
X352728Y15312D01*
X352901Y14666D01*
X352901Y5895D01*
X344423Y5895D01*
G37*
%LPD*%
%LPC*%
G36*
X257423Y60893D02*
X257423Y60893D01*
X257423Y71871D01*
X263694Y71871D01*
X264341Y71698D01*
X264920Y71363D01*
X265393Y70890D01*
X265728Y70311D01*
X265901Y69664D01*
X265901Y60893D01*
X257423Y60893D01*
G37*
%LPD*%
%LPC*%
G36*
X327819Y60893D02*
X327819Y60893D01*
X327819Y69664D01*
X327992Y70311D01*
X328327Y70890D01*
X328800Y71363D01*
X329379Y71698D01*
X330025Y71871D01*
X336297Y71871D01*
X336297Y60893D01*
X327819Y60893D01*
G37*
%LPD*%
%LPC*%
G36*
X240819Y60893D02*
X240819Y60893D01*
X240819Y69664D01*
X240992Y70311D01*
X241327Y70890D01*
X241800Y71363D01*
X242379Y71698D01*
X243025Y71871D01*
X249297Y71871D01*
X249297Y60893D01*
X240819Y60893D01*
G37*
%LPD*%
%LPC*%
G36*
X240819Y5895D02*
X240819Y5895D01*
X240819Y14666D01*
X240992Y15312D01*
X241327Y15891D01*
X241800Y16364D01*
X242379Y16699D01*
X243025Y16872D01*
X249297Y16872D01*
X249297Y5895D01*
X240819Y5895D01*
G37*
%LPD*%
%LPC*%
G36*
X344423Y41789D02*
X344423Y41789D01*
X344423Y52767D01*
X352901Y52767D01*
X352901Y43995D01*
X352728Y43349D01*
X352393Y42770D01*
X351920Y42297D01*
X351341Y41962D01*
X350695Y41789D01*
X344423Y41789D01*
G37*
%LPD*%
%LPC*%
G36*
X257423Y41789D02*
X257423Y41789D01*
X257423Y52767D01*
X265901Y52767D01*
X265901Y43995D01*
X265728Y43349D01*
X265393Y42770D01*
X264920Y42297D01*
X264341Y41962D01*
X263694Y41789D01*
X257423Y41789D01*
G37*
%LPD*%
%LPC*%
G36*
X330025Y41789D02*
X330025Y41789D01*
X329379Y41962D01*
X328800Y42297D01*
X328327Y42770D01*
X327992Y43349D01*
X327819Y43995D01*
X327819Y52767D01*
X336297Y52767D01*
X336297Y41789D01*
X330025Y41789D01*
G37*
%LPD*%
%LPC*%
G36*
X243025Y41789D02*
X243025Y41789D01*
X242379Y41962D01*
X241800Y42297D01*
X241327Y42770D01*
X240992Y43349D01*
X240819Y43995D01*
X240819Y52767D01*
X249297Y52767D01*
X249297Y41789D01*
X243025Y41789D01*
G37*
%LPD*%
G36*
X292420Y376429D02*
X292420Y376429D01*
X299218Y376429D01*
X299236Y376430D01*
X299254Y376429D01*
X299436Y376450D01*
X299619Y376468D01*
X299636Y376474D01*
X299653Y376476D01*
X299828Y376533D01*
X300004Y376587D01*
X300019Y376595D01*
X300036Y376601D01*
X300196Y376691D01*
X300358Y376778D01*
X300371Y376790D01*
X300387Y376799D01*
X300526Y376919D01*
X300667Y377036D01*
X300678Y377050D01*
X300692Y377062D01*
X300804Y377207D01*
X300919Y377350D01*
X300927Y377366D01*
X300938Y377380D01*
X301020Y377544D01*
X301105Y377707D01*
X301110Y377724D01*
X301118Y377740D01*
X301165Y377918D01*
X301216Y378094D01*
X301218Y378112D01*
X301222Y378129D01*
X301249Y378460D01*
X301248Y378478D01*
X301249Y378495D01*
X301249Y378496D01*
X301228Y378678D01*
X301209Y378861D01*
X301204Y378878D01*
X301202Y378896D01*
X301145Y379070D01*
X301091Y379246D01*
X301083Y379261D01*
X301077Y379278D01*
X300987Y379439D01*
X300899Y379600D01*
X300888Y379613D01*
X300879Y379629D01*
X300759Y379768D01*
X300642Y379909D01*
X300628Y379920D01*
X300616Y379934D01*
X300471Y380046D01*
X300328Y380161D01*
X300312Y380170D01*
X300298Y380180D01*
X300133Y380262D01*
X299971Y380347D01*
X299954Y380352D01*
X299938Y380360D01*
X299759Y380408D01*
X299584Y380458D01*
X299566Y380460D01*
X299549Y380464D01*
X299218Y380491D01*
X292420Y380491D01*
X286212Y380491D01*
X286194Y380490D01*
X286176Y380491D01*
X285994Y380470D01*
X285811Y380451D01*
X285794Y380446D01*
X285777Y380444D01*
X285602Y380387D01*
X285426Y380333D01*
X285411Y380325D01*
X285394Y380319D01*
X285234Y380229D01*
X285072Y380142D01*
X285059Y380130D01*
X285043Y380121D01*
X284904Y380001D01*
X284763Y379884D01*
X284752Y379870D01*
X284738Y379858D01*
X284626Y379713D01*
X284511Y379570D01*
X284503Y379554D01*
X284492Y379540D01*
X284410Y379375D01*
X284325Y379213D01*
X284320Y379196D01*
X284312Y379180D01*
X284265Y379002D01*
X284214Y378826D01*
X284212Y378808D01*
X284208Y378791D01*
X284181Y378460D01*
X284182Y378442D01*
X284181Y378425D01*
X284181Y378424D01*
X284202Y378242D01*
X284221Y378059D01*
X284226Y378042D01*
X284228Y378024D01*
X284285Y377850D01*
X284339Y377674D01*
X284347Y377659D01*
X284353Y377642D01*
X284443Y377481D01*
X284531Y377320D01*
X284542Y377307D01*
X284551Y377291D01*
X284671Y377152D01*
X284788Y377011D01*
X284802Y377000D01*
X284814Y376986D01*
X284959Y376874D01*
X285102Y376759D01*
X285118Y376750D01*
X285132Y376740D01*
X285297Y376658D01*
X285459Y376573D01*
X285476Y376568D01*
X285492Y376560D01*
X285671Y376512D01*
X285846Y376462D01*
X285864Y376460D01*
X285881Y376456D01*
X286212Y376429D01*
X292420Y376429D01*
X292420Y376429D01*
G37*
G36*
X309066Y330769D02*
X309066Y330769D01*
X313884Y330769D01*
X313902Y330770D01*
X313920Y330769D01*
X314102Y330790D01*
X314285Y330808D01*
X314302Y330814D01*
X314319Y330816D01*
X314494Y330873D01*
X314670Y330927D01*
X314685Y330935D01*
X314702Y330941D01*
X314862Y331031D01*
X315024Y331118D01*
X315037Y331130D01*
X315053Y331139D01*
X315192Y331259D01*
X315333Y331376D01*
X315344Y331390D01*
X315358Y331402D01*
X315470Y331547D01*
X315585Y331690D01*
X315593Y331706D01*
X315604Y331720D01*
X315686Y331885D01*
X315771Y332047D01*
X315776Y332064D01*
X315784Y332080D01*
X315831Y332258D01*
X315882Y332434D01*
X315884Y332452D01*
X315888Y332469D01*
X315915Y332800D01*
X315914Y332818D01*
X315915Y332835D01*
X315915Y332836D01*
X315894Y333018D01*
X315875Y333201D01*
X315870Y333218D01*
X315868Y333236D01*
X315811Y333410D01*
X315757Y333586D01*
X315749Y333601D01*
X315743Y333618D01*
X315653Y333779D01*
X315565Y333940D01*
X315554Y333953D01*
X315545Y333969D01*
X315425Y334108D01*
X315308Y334249D01*
X315294Y334260D01*
X315282Y334274D01*
X315137Y334386D01*
X314994Y334501D01*
X314978Y334510D01*
X314964Y334520D01*
X314799Y334602D01*
X314637Y334687D01*
X314620Y334692D01*
X314604Y334700D01*
X314425Y334748D01*
X314250Y334798D01*
X314232Y334800D01*
X314215Y334804D01*
X313884Y334831D01*
X309066Y334831D01*
X304248Y334831D01*
X304230Y334830D01*
X304212Y334831D01*
X304030Y334810D01*
X303847Y334791D01*
X303830Y334786D01*
X303813Y334784D01*
X303638Y334727D01*
X303462Y334673D01*
X303447Y334665D01*
X303430Y334659D01*
X303270Y334569D01*
X303108Y334482D01*
X303095Y334470D01*
X303079Y334461D01*
X302940Y334341D01*
X302799Y334224D01*
X302788Y334210D01*
X302774Y334198D01*
X302662Y334053D01*
X302547Y333910D01*
X302539Y333894D01*
X302528Y333880D01*
X302446Y333715D01*
X302361Y333553D01*
X302356Y333536D01*
X302348Y333520D01*
X302301Y333342D01*
X302250Y333166D01*
X302248Y333148D01*
X302244Y333131D01*
X302217Y332800D01*
X302218Y332782D01*
X302217Y332765D01*
X302217Y332764D01*
X302238Y332582D01*
X302257Y332399D01*
X302262Y332382D01*
X302264Y332364D01*
X302321Y332190D01*
X302375Y332014D01*
X302383Y331999D01*
X302389Y331982D01*
X302479Y331821D01*
X302567Y331660D01*
X302578Y331647D01*
X302587Y331631D01*
X302707Y331492D01*
X302824Y331351D01*
X302838Y331340D01*
X302850Y331326D01*
X302995Y331214D01*
X303138Y331099D01*
X303154Y331090D01*
X303168Y331080D01*
X303333Y330998D01*
X303495Y330913D01*
X303512Y330908D01*
X303528Y330900D01*
X303707Y330852D01*
X303882Y330802D01*
X303900Y330800D01*
X303917Y330796D01*
X304248Y330769D01*
X309066Y330769D01*
X309066Y330769D01*
G37*
%LPC*%
G36*
X398779Y326879D02*
X398779Y326879D01*
X398779Y332921D01*
X404615Y332921D01*
X405261Y332748D01*
X405840Y332413D01*
X406313Y331940D01*
X406648Y331361D01*
X406821Y330715D01*
X406821Y326879D01*
X398779Y326879D01*
G37*
%LPD*%
%LPC*%
G36*
X331629Y154449D02*
X331629Y154449D01*
X331629Y162491D01*
X335465Y162491D01*
X336111Y162318D01*
X336690Y161983D01*
X337163Y161510D01*
X337498Y160931D01*
X337671Y160285D01*
X337671Y154449D01*
X331629Y154449D01*
G37*
%LPD*%
%LPC*%
G36*
X398779Y313839D02*
X398779Y313839D01*
X398779Y319881D01*
X406821Y319881D01*
X406821Y316045D01*
X406648Y315399D01*
X406313Y314820D01*
X405840Y314347D01*
X405261Y314012D01*
X404615Y313839D01*
X398779Y313839D01*
G37*
%LPD*%
%LPC*%
G36*
X318589Y154449D02*
X318589Y154449D01*
X318589Y160285D01*
X318762Y160931D01*
X319097Y161510D01*
X319570Y161983D01*
X320149Y162318D01*
X320795Y162491D01*
X324631Y162491D01*
X324631Y154449D01*
X318589Y154449D01*
G37*
%LPD*%
%LPC*%
G36*
X320795Y139409D02*
X320795Y139409D01*
X320149Y139582D01*
X319570Y139917D01*
X319097Y140390D01*
X318762Y140969D01*
X318589Y141615D01*
X318589Y147451D01*
X324631Y147451D01*
X324631Y139409D01*
X320795Y139409D01*
G37*
%LPD*%
%LPC*%
G36*
X408431Y252221D02*
X408431Y252221D01*
X408431Y262129D01*
X413441Y262129D01*
X413441Y259825D01*
X413268Y259179D01*
X412930Y258595D01*
X412919Y258586D01*
X412806Y258442D01*
X412689Y258300D01*
X412681Y258284D01*
X412670Y258270D01*
X412586Y258106D01*
X412501Y257944D01*
X412496Y257927D01*
X412488Y257911D01*
X412438Y257732D01*
X412386Y257558D01*
X412384Y257540D01*
X412380Y257523D01*
X412366Y257341D01*
X412350Y257157D01*
X412352Y257139D01*
X412350Y257121D01*
X412373Y256940D01*
X412393Y256757D01*
X412398Y256740D01*
X412401Y256722D01*
X412459Y256549D01*
X412514Y256373D01*
X412523Y256357D01*
X412529Y256340D01*
X412620Y256181D01*
X412709Y256021D01*
X412721Y256007D01*
X412730Y255992D01*
X412929Y255756D01*
X413268Y255171D01*
X413441Y254525D01*
X413441Y252221D01*
X408431Y252221D01*
G37*
%LPD*%
%LPC*%
G36*
X359009Y375799D02*
X359009Y375799D01*
X359009Y379135D01*
X359182Y379781D01*
X359517Y380360D01*
X359990Y380833D01*
X360569Y381168D01*
X361215Y381341D01*
X365551Y381341D01*
X365551Y375799D01*
X359009Y375799D01*
G37*
%LPD*%
%LPC*%
G36*
X314891Y58861D02*
X314891Y58861D01*
X314891Y70871D01*
X315694Y70871D01*
X316340Y70698D01*
X316920Y70363D01*
X317393Y69890D01*
X317727Y69311D01*
X317900Y68664D01*
X317900Y58861D01*
X314891Y58861D01*
G37*
%LPD*%
G36*
X365584Y284452D02*
X365584Y284452D01*
X365601Y284451D01*
X365602Y284451D01*
X365784Y284472D01*
X365967Y284491D01*
X365984Y284496D01*
X366002Y284498D01*
X366176Y284555D01*
X366352Y284609D01*
X366367Y284617D01*
X366384Y284623D01*
X366545Y284713D01*
X366706Y284801D01*
X366719Y284812D01*
X366735Y284821D01*
X366874Y284941D01*
X367015Y285058D01*
X367026Y285072D01*
X367040Y285084D01*
X367152Y285229D01*
X367267Y285372D01*
X367276Y285388D01*
X367286Y285402D01*
X367368Y285567D01*
X367453Y285729D01*
X367458Y285746D01*
X367466Y285762D01*
X367514Y285941D01*
X367564Y286116D01*
X367566Y286134D01*
X367570Y286151D01*
X367597Y286482D01*
X367597Y291118D01*
X367596Y291136D01*
X367597Y291154D01*
X367576Y291336D01*
X367557Y291519D01*
X367552Y291536D01*
X367550Y291553D01*
X367493Y291728D01*
X367439Y291904D01*
X367431Y291919D01*
X367425Y291936D01*
X367335Y292096D01*
X367248Y292258D01*
X367236Y292271D01*
X367227Y292287D01*
X367107Y292426D01*
X366990Y292567D01*
X366976Y292578D01*
X366964Y292592D01*
X366819Y292704D01*
X366676Y292819D01*
X366660Y292827D01*
X366646Y292838D01*
X366481Y292920D01*
X366319Y293005D01*
X366302Y293010D01*
X366286Y293018D01*
X366108Y293065D01*
X365932Y293116D01*
X365914Y293118D01*
X365897Y293122D01*
X365566Y293149D01*
X365548Y293148D01*
X365531Y293149D01*
X365530Y293149D01*
X365348Y293128D01*
X365165Y293109D01*
X365148Y293104D01*
X365130Y293102D01*
X364956Y293045D01*
X364780Y292991D01*
X364765Y292983D01*
X364748Y292977D01*
X364587Y292887D01*
X364426Y292799D01*
X364413Y292788D01*
X364397Y292779D01*
X364258Y292659D01*
X364117Y292542D01*
X364106Y292528D01*
X364092Y292516D01*
X363980Y292371D01*
X363865Y292228D01*
X363856Y292212D01*
X363846Y292198D01*
X363764Y292033D01*
X363679Y291871D01*
X363674Y291854D01*
X363666Y291838D01*
X363618Y291659D01*
X363568Y291484D01*
X363566Y291466D01*
X363562Y291449D01*
X363535Y291118D01*
X363535Y286482D01*
X363536Y286464D01*
X363535Y286446D01*
X363556Y286264D01*
X363574Y286081D01*
X363580Y286064D01*
X363582Y286047D01*
X363639Y285872D01*
X363693Y285696D01*
X363701Y285681D01*
X363707Y285664D01*
X363797Y285504D01*
X363884Y285342D01*
X363896Y285329D01*
X363905Y285313D01*
X364025Y285174D01*
X364142Y285033D01*
X364156Y285022D01*
X364168Y285008D01*
X364313Y284896D01*
X364456Y284781D01*
X364472Y284773D01*
X364486Y284762D01*
X364651Y284680D01*
X364813Y284595D01*
X364830Y284590D01*
X364846Y284582D01*
X365024Y284535D01*
X365200Y284484D01*
X365218Y284482D01*
X365235Y284478D01*
X365566Y284451D01*
X365584Y284452D01*
G37*
G36*
X287584Y269452D02*
X287584Y269452D01*
X287601Y269451D01*
X287602Y269451D01*
X287784Y269472D01*
X287967Y269491D01*
X287984Y269496D01*
X288002Y269498D01*
X288176Y269555D01*
X288352Y269609D01*
X288367Y269617D01*
X288384Y269623D01*
X288545Y269713D01*
X288706Y269801D01*
X288719Y269812D01*
X288735Y269821D01*
X288874Y269941D01*
X289015Y270058D01*
X289026Y270072D01*
X289040Y270084D01*
X289152Y270229D01*
X289267Y270372D01*
X289276Y270388D01*
X289286Y270402D01*
X289368Y270567D01*
X289453Y270729D01*
X289458Y270746D01*
X289466Y270762D01*
X289514Y270940D01*
X289564Y271116D01*
X289566Y271134D01*
X289570Y271151D01*
X289597Y271482D01*
X289597Y276118D01*
X289596Y276136D01*
X289597Y276154D01*
X289576Y276336D01*
X289557Y276519D01*
X289552Y276536D01*
X289550Y276553D01*
X289493Y276728D01*
X289439Y276904D01*
X289431Y276919D01*
X289425Y276936D01*
X289335Y277096D01*
X289248Y277258D01*
X289236Y277271D01*
X289227Y277287D01*
X289107Y277426D01*
X288990Y277567D01*
X288976Y277578D01*
X288964Y277592D01*
X288819Y277704D01*
X288676Y277819D01*
X288660Y277827D01*
X288646Y277838D01*
X288481Y277920D01*
X288319Y278005D01*
X288302Y278010D01*
X288286Y278018D01*
X288108Y278065D01*
X287932Y278116D01*
X287914Y278118D01*
X287897Y278122D01*
X287566Y278149D01*
X287548Y278148D01*
X287531Y278149D01*
X287530Y278149D01*
X287348Y278128D01*
X287165Y278109D01*
X287148Y278104D01*
X287130Y278102D01*
X286956Y278045D01*
X286780Y277991D01*
X286765Y277983D01*
X286748Y277977D01*
X286587Y277887D01*
X286426Y277799D01*
X286413Y277788D01*
X286397Y277779D01*
X286258Y277659D01*
X286117Y277542D01*
X286106Y277528D01*
X286092Y277516D01*
X285980Y277371D01*
X285865Y277228D01*
X285856Y277212D01*
X285846Y277198D01*
X285764Y277033D01*
X285679Y276871D01*
X285674Y276854D01*
X285666Y276838D01*
X285618Y276659D01*
X285568Y276484D01*
X285566Y276466D01*
X285562Y276449D01*
X285535Y276118D01*
X285535Y271482D01*
X285536Y271464D01*
X285535Y271446D01*
X285556Y271264D01*
X285574Y271081D01*
X285580Y271064D01*
X285582Y271047D01*
X285639Y270872D01*
X285693Y270696D01*
X285701Y270681D01*
X285707Y270664D01*
X285797Y270504D01*
X285884Y270342D01*
X285896Y270329D01*
X285905Y270313D01*
X286025Y270174D01*
X286142Y270033D01*
X286156Y270022D01*
X286168Y270008D01*
X286313Y269896D01*
X286456Y269781D01*
X286472Y269773D01*
X286486Y269762D01*
X286651Y269680D01*
X286813Y269595D01*
X286830Y269590D01*
X286846Y269582D01*
X287024Y269535D01*
X287200Y269484D01*
X287218Y269482D01*
X287235Y269478D01*
X287566Y269451D01*
X287584Y269452D01*
G37*
%LPC*%
G36*
X337909Y120729D02*
X337909Y120729D01*
X337909Y126021D01*
X342701Y126021D01*
X342701Y122935D01*
X342528Y122289D01*
X342193Y121710D01*
X341720Y121237D01*
X341141Y120902D01*
X340495Y120729D01*
X337909Y120729D01*
G37*
%LPD*%
%LPC*%
G36*
X284345Y120729D02*
X284345Y120729D01*
X283699Y120902D01*
X283120Y121237D01*
X282647Y121710D01*
X282312Y122289D01*
X282139Y122935D01*
X282139Y126021D01*
X286931Y126021D01*
X286931Y120729D01*
X284345Y120729D01*
G37*
%LPD*%
%LPC*%
G36*
X408741Y281111D02*
X408741Y281111D01*
X408741Y285621D01*
X411545Y285621D01*
X412191Y285448D01*
X412770Y285113D01*
X413243Y284640D01*
X413578Y284061D01*
X413751Y283415D01*
X413751Y281111D01*
X408741Y281111D01*
G37*
%LPD*%
%LPC*%
G36*
X272031Y247809D02*
X272031Y247809D01*
X276541Y247809D01*
X276541Y245005D01*
X276368Y244359D01*
X276033Y243780D01*
X275560Y243307D01*
X274981Y242972D01*
X274335Y242799D01*
X272031Y242799D01*
X272031Y247809D01*
G37*
%LPD*%
%LPC*%
G36*
X255729Y380011D02*
X255729Y380011D01*
X255729Y382815D01*
X255902Y383461D01*
X256237Y384040D01*
X256710Y384513D01*
X257289Y384848D01*
X257935Y385021D01*
X260239Y385021D01*
X260239Y380011D01*
X255729Y380011D01*
G37*
%LPD*%
%LPC*%
G36*
X265665Y242799D02*
X265665Y242799D01*
X265019Y242972D01*
X264440Y243307D01*
X263967Y243780D01*
X263632Y244359D01*
X263459Y245005D01*
X263459Y247809D01*
X267969Y247809D01*
X267969Y242799D01*
X265665Y242799D01*
G37*
%LPD*%
%LPC*%
G36*
X347187Y229531D02*
X347187Y229531D01*
X347313Y230005D01*
X347648Y230584D01*
X348121Y231057D01*
X348700Y231392D01*
X349346Y231565D01*
X352603Y231565D01*
X352603Y229531D01*
X347187Y229531D01*
G37*
%LPD*%
%LPC*%
G36*
X326565Y293799D02*
X326565Y293799D01*
X326565Y293801D01*
X326567Y293801D01*
X326567Y293799D01*
X326565Y293799D01*
G37*
%LPD*%
%LPC*%
G36*
X340359Y56829D02*
X340359Y56829D01*
X340359Y56831D01*
X340361Y56831D01*
X340361Y56829D01*
X340359Y56829D01*
G37*
%LPD*%
%LPC*%
G36*
X253359Y56829D02*
X253359Y56829D01*
X253359Y56831D01*
X253361Y56831D01*
X253361Y56829D01*
X253359Y56829D01*
G37*
%LPD*%
D10*
X319660Y128270D03*
X335660Y128270D03*
X305180Y128270D03*
X289180Y128270D03*
D11*
X397740Y176790D03*
X388240Y176790D03*
X378740Y176790D03*
X378740Y153790D03*
X388240Y153790D03*
X397740Y153790D03*
D12*
X277180Y379340D03*
X277180Y362340D03*
X338140Y379340D03*
X338140Y362340D03*
D13*
X264400Y146540D03*
X281400Y146540D03*
D14*
X353491Y328375D02*
X354641Y328375D01*
X353491Y328375D02*
X353491Y337225D01*
X354641Y337225D01*
X354641Y328375D01*
X354641Y329467D02*
X353491Y329467D01*
X353491Y330559D02*
X354641Y330559D01*
X354641Y331651D02*
X353491Y331651D01*
X353491Y332743D02*
X354641Y332743D01*
X354641Y333835D02*
X353491Y333835D01*
X353491Y334927D02*
X354641Y334927D01*
X354641Y336019D02*
X353491Y336019D01*
X353491Y337111D02*
X354641Y337111D01*
X349641Y328375D02*
X348491Y328375D01*
X348491Y337225D01*
X349641Y337225D01*
X349641Y328375D01*
X349641Y329467D02*
X348491Y329467D01*
X348491Y330559D02*
X349641Y330559D01*
X349641Y331651D02*
X348491Y331651D01*
X348491Y332743D02*
X349641Y332743D01*
X349641Y333835D02*
X348491Y333835D01*
X348491Y334927D02*
X349641Y334927D01*
X349641Y336019D02*
X348491Y336019D01*
X348491Y337111D02*
X349641Y337111D01*
X344641Y328375D02*
X343491Y328375D01*
X343491Y337225D01*
X344641Y337225D01*
X344641Y328375D01*
X344641Y329467D02*
X343491Y329467D01*
X343491Y330559D02*
X344641Y330559D01*
X344641Y331651D02*
X343491Y331651D01*
X343491Y332743D02*
X344641Y332743D01*
X344641Y333835D02*
X343491Y333835D01*
X343491Y334927D02*
X344641Y334927D01*
X344641Y336019D02*
X343491Y336019D01*
X343491Y337111D02*
X344641Y337111D01*
X339641Y328375D02*
X338491Y328375D01*
X338491Y337225D01*
X339641Y337225D01*
X339641Y328375D01*
X339641Y329467D02*
X338491Y329467D01*
X338491Y330559D02*
X339641Y330559D01*
X339641Y331651D02*
X338491Y331651D01*
X338491Y332743D02*
X339641Y332743D01*
X339641Y333835D02*
X338491Y333835D01*
X338491Y334927D02*
X339641Y334927D01*
X339641Y336019D02*
X338491Y336019D01*
X338491Y337111D02*
X339641Y337111D01*
X334641Y328375D02*
X333491Y328375D01*
X333491Y337225D01*
X334641Y337225D01*
X334641Y328375D01*
X334641Y329467D02*
X333491Y329467D01*
X333491Y330559D02*
X334641Y330559D01*
X334641Y331651D02*
X333491Y331651D01*
X333491Y332743D02*
X334641Y332743D01*
X334641Y333835D02*
X333491Y333835D01*
X333491Y334927D02*
X334641Y334927D01*
X334641Y336019D02*
X333491Y336019D01*
X333491Y337111D02*
X334641Y337111D01*
X329641Y328375D02*
X328491Y328375D01*
X328491Y337225D01*
X329641Y337225D01*
X329641Y328375D01*
X329641Y329467D02*
X328491Y329467D01*
X328491Y330559D02*
X329641Y330559D01*
X329641Y331651D02*
X328491Y331651D01*
X328491Y332743D02*
X329641Y332743D01*
X329641Y333835D02*
X328491Y333835D01*
X328491Y334927D02*
X329641Y334927D01*
X329641Y336019D02*
X328491Y336019D01*
X328491Y337111D02*
X329641Y337111D01*
X324641Y328375D02*
X323491Y328375D01*
X323491Y337225D01*
X324641Y337225D01*
X324641Y328375D01*
X324641Y329467D02*
X323491Y329467D01*
X323491Y330559D02*
X324641Y330559D01*
X324641Y331651D02*
X323491Y331651D01*
X323491Y332743D02*
X324641Y332743D01*
X324641Y333835D02*
X323491Y333835D01*
X323491Y334927D02*
X324641Y334927D01*
X324641Y336019D02*
X323491Y336019D01*
X323491Y337111D02*
X324641Y337111D01*
X319641Y328375D02*
X318491Y328375D01*
X318491Y337225D01*
X319641Y337225D01*
X319641Y328375D01*
X319641Y329467D02*
X318491Y329467D01*
X318491Y330559D02*
X319641Y330559D01*
X319641Y331651D02*
X318491Y331651D01*
X318491Y332743D02*
X319641Y332743D01*
X319641Y333835D02*
X318491Y333835D01*
X318491Y334927D02*
X319641Y334927D01*
X319641Y336019D02*
X318491Y336019D01*
X318491Y337111D02*
X319641Y337111D01*
X314641Y328375D02*
X313491Y328375D01*
X313491Y337225D01*
X314641Y337225D01*
X314641Y328375D01*
X314641Y329467D02*
X313491Y329467D01*
X313491Y330559D02*
X314641Y330559D01*
X314641Y331651D02*
X313491Y331651D01*
X313491Y332743D02*
X314641Y332743D01*
X314641Y333835D02*
X313491Y333835D01*
X313491Y334927D02*
X314641Y334927D01*
X314641Y336019D02*
X313491Y336019D01*
X313491Y337111D02*
X314641Y337111D01*
X309641Y328375D02*
X308491Y328375D01*
X308491Y337225D01*
X309641Y337225D01*
X309641Y328375D01*
X309641Y329467D02*
X308491Y329467D01*
X308491Y330559D02*
X309641Y330559D01*
X309641Y331651D02*
X308491Y331651D01*
X308491Y332743D02*
X309641Y332743D01*
X309641Y333835D02*
X308491Y333835D01*
X308491Y334927D02*
X309641Y334927D01*
X309641Y336019D02*
X308491Y336019D01*
X308491Y337111D02*
X309641Y337111D01*
X304641Y328375D02*
X303491Y328375D01*
X303491Y337225D01*
X304641Y337225D01*
X304641Y328375D01*
X304641Y329467D02*
X303491Y329467D01*
X303491Y330559D02*
X304641Y330559D01*
X304641Y331651D02*
X303491Y331651D01*
X303491Y332743D02*
X304641Y332743D01*
X304641Y333835D02*
X303491Y333835D01*
X303491Y334927D02*
X304641Y334927D01*
X304641Y336019D02*
X303491Y336019D01*
X303491Y337111D02*
X304641Y337111D01*
X299641Y328375D02*
X298491Y328375D01*
X298491Y337225D01*
X299641Y337225D01*
X299641Y328375D01*
X299641Y329467D02*
X298491Y329467D01*
X298491Y330559D02*
X299641Y330559D01*
X299641Y331651D02*
X298491Y331651D01*
X298491Y332743D02*
X299641Y332743D01*
X299641Y333835D02*
X298491Y333835D01*
X298491Y334927D02*
X299641Y334927D01*
X299641Y336019D02*
X298491Y336019D01*
X298491Y337111D02*
X299641Y337111D01*
X291991Y321875D02*
X291991Y320725D01*
X283141Y320725D01*
X283141Y321875D01*
X291991Y321875D01*
X291991Y321817D02*
X283141Y321817D01*
X291991Y316875D02*
X291991Y315725D01*
X283141Y315725D01*
X283141Y316875D01*
X291991Y316875D01*
X291991Y316817D02*
X283141Y316817D01*
X291991Y311875D02*
X291991Y310725D01*
X283141Y310725D01*
X283141Y311875D01*
X291991Y311875D01*
X291991Y311817D02*
X283141Y311817D01*
X291991Y306875D02*
X291991Y305725D01*
X283141Y305725D01*
X283141Y306875D01*
X291991Y306875D01*
X291991Y306817D02*
X283141Y306817D01*
X291991Y301875D02*
X291991Y300725D01*
X283141Y300725D01*
X283141Y301875D01*
X291991Y301875D01*
X291991Y301817D02*
X283141Y301817D01*
X291991Y296875D02*
X291991Y295725D01*
X283141Y295725D01*
X283141Y296875D01*
X291991Y296875D01*
X291991Y296817D02*
X283141Y296817D01*
X291991Y292375D02*
X291991Y291225D01*
X283141Y291225D01*
X283141Y292375D01*
X291991Y292375D01*
X291991Y292317D02*
X283141Y292317D01*
X291991Y286875D02*
X291991Y285725D01*
X283141Y285725D01*
X283141Y286875D01*
X291991Y286875D01*
X291991Y286817D02*
X283141Y286817D01*
X291991Y281875D02*
X291991Y280725D01*
X283141Y280725D01*
X283141Y281875D01*
X291991Y281875D01*
X291991Y281817D02*
X283141Y281817D01*
X291991Y276875D02*
X291991Y275725D01*
X283141Y275725D01*
X283141Y276875D01*
X291991Y276875D01*
X291991Y276817D02*
X283141Y276817D01*
X291991Y271875D02*
X291991Y270725D01*
X283141Y270725D01*
X283141Y271875D01*
X291991Y271875D01*
X291991Y271817D02*
X283141Y271817D01*
X291991Y266875D02*
X291991Y265725D01*
X283141Y265725D01*
X283141Y266875D01*
X291991Y266875D01*
X291991Y266817D02*
X283141Y266817D01*
X298491Y259225D02*
X299641Y259225D01*
X299641Y250375D01*
X298491Y250375D01*
X298491Y259225D01*
X298491Y251467D02*
X299641Y251467D01*
X299641Y252559D02*
X298491Y252559D01*
X298491Y253651D02*
X299641Y253651D01*
X299641Y254743D02*
X298491Y254743D01*
X298491Y255835D02*
X299641Y255835D01*
X299641Y256927D02*
X298491Y256927D01*
X298491Y258019D02*
X299641Y258019D01*
X299641Y259111D02*
X298491Y259111D01*
X303491Y259225D02*
X304641Y259225D01*
X304641Y250375D01*
X303491Y250375D01*
X303491Y259225D01*
X303491Y251467D02*
X304641Y251467D01*
X304641Y252559D02*
X303491Y252559D01*
X303491Y253651D02*
X304641Y253651D01*
X304641Y254743D02*
X303491Y254743D01*
X303491Y255835D02*
X304641Y255835D01*
X304641Y256927D02*
X303491Y256927D01*
X303491Y258019D02*
X304641Y258019D01*
X304641Y259111D02*
X303491Y259111D01*
X308491Y259225D02*
X309641Y259225D01*
X309641Y250375D01*
X308491Y250375D01*
X308491Y259225D01*
X308491Y251467D02*
X309641Y251467D01*
X309641Y252559D02*
X308491Y252559D01*
X308491Y253651D02*
X309641Y253651D01*
X309641Y254743D02*
X308491Y254743D01*
X308491Y255835D02*
X309641Y255835D01*
X309641Y256927D02*
X308491Y256927D01*
X308491Y258019D02*
X309641Y258019D01*
X309641Y259111D02*
X308491Y259111D01*
X313491Y259225D02*
X314641Y259225D01*
X314641Y250375D01*
X313491Y250375D01*
X313491Y259225D01*
X313491Y251467D02*
X314641Y251467D01*
X314641Y252559D02*
X313491Y252559D01*
X313491Y253651D02*
X314641Y253651D01*
X314641Y254743D02*
X313491Y254743D01*
X313491Y255835D02*
X314641Y255835D01*
X314641Y256927D02*
X313491Y256927D01*
X313491Y258019D02*
X314641Y258019D01*
X314641Y259111D02*
X313491Y259111D01*
X318491Y259225D02*
X319641Y259225D01*
X319641Y250375D01*
X318491Y250375D01*
X318491Y259225D01*
X318491Y251467D02*
X319641Y251467D01*
X319641Y252559D02*
X318491Y252559D01*
X318491Y253651D02*
X319641Y253651D01*
X319641Y254743D02*
X318491Y254743D01*
X318491Y255835D02*
X319641Y255835D01*
X319641Y256927D02*
X318491Y256927D01*
X318491Y258019D02*
X319641Y258019D01*
X319641Y259111D02*
X318491Y259111D01*
X323491Y259225D02*
X324641Y259225D01*
X324641Y250375D01*
X323491Y250375D01*
X323491Y259225D01*
X323491Y251467D02*
X324641Y251467D01*
X324641Y252559D02*
X323491Y252559D01*
X323491Y253651D02*
X324641Y253651D01*
X324641Y254743D02*
X323491Y254743D01*
X323491Y255835D02*
X324641Y255835D01*
X324641Y256927D02*
X323491Y256927D01*
X323491Y258019D02*
X324641Y258019D01*
X324641Y259111D02*
X323491Y259111D01*
X328491Y259225D02*
X329641Y259225D01*
X329641Y250375D01*
X328491Y250375D01*
X328491Y259225D01*
X328491Y251467D02*
X329641Y251467D01*
X329641Y252559D02*
X328491Y252559D01*
X328491Y253651D02*
X329641Y253651D01*
X329641Y254743D02*
X328491Y254743D01*
X328491Y255835D02*
X329641Y255835D01*
X329641Y256927D02*
X328491Y256927D01*
X328491Y258019D02*
X329641Y258019D01*
X329641Y259111D02*
X328491Y259111D01*
X333491Y259225D02*
X334641Y259225D01*
X334641Y250375D01*
X333491Y250375D01*
X333491Y259225D01*
X333491Y251467D02*
X334641Y251467D01*
X334641Y252559D02*
X333491Y252559D01*
X333491Y253651D02*
X334641Y253651D01*
X334641Y254743D02*
X333491Y254743D01*
X333491Y255835D02*
X334641Y255835D01*
X334641Y256927D02*
X333491Y256927D01*
X333491Y258019D02*
X334641Y258019D01*
X334641Y259111D02*
X333491Y259111D01*
X338491Y259225D02*
X339641Y259225D01*
X339641Y250375D01*
X338491Y250375D01*
X338491Y259225D01*
X338491Y251467D02*
X339641Y251467D01*
X339641Y252559D02*
X338491Y252559D01*
X338491Y253651D02*
X339641Y253651D01*
X339641Y254743D02*
X338491Y254743D01*
X338491Y255835D02*
X339641Y255835D01*
X339641Y256927D02*
X338491Y256927D01*
X338491Y258019D02*
X339641Y258019D01*
X339641Y259111D02*
X338491Y259111D01*
X343491Y259225D02*
X344641Y259225D01*
X344641Y250375D01*
X343491Y250375D01*
X343491Y259225D01*
X343491Y251467D02*
X344641Y251467D01*
X344641Y252559D02*
X343491Y252559D01*
X343491Y253651D02*
X344641Y253651D01*
X344641Y254743D02*
X343491Y254743D01*
X343491Y255835D02*
X344641Y255835D01*
X344641Y256927D02*
X343491Y256927D01*
X343491Y258019D02*
X344641Y258019D01*
X344641Y259111D02*
X343491Y259111D01*
X348491Y259225D02*
X349641Y259225D01*
X349641Y250375D01*
X348491Y250375D01*
X348491Y259225D01*
X348491Y251467D02*
X349641Y251467D01*
X349641Y252559D02*
X348491Y252559D01*
X348491Y253651D02*
X349641Y253651D01*
X349641Y254743D02*
X348491Y254743D01*
X348491Y255835D02*
X349641Y255835D01*
X349641Y256927D02*
X348491Y256927D01*
X348491Y258019D02*
X349641Y258019D01*
X349641Y259111D02*
X348491Y259111D01*
X353491Y259225D02*
X354641Y259225D01*
X354641Y250375D01*
X353491Y250375D01*
X353491Y259225D01*
X353491Y251467D02*
X354641Y251467D01*
X354641Y252559D02*
X353491Y252559D01*
X353491Y253651D02*
X354641Y253651D01*
X354641Y254743D02*
X353491Y254743D01*
X353491Y255835D02*
X354641Y255835D01*
X354641Y256927D02*
X353491Y256927D01*
X353491Y258019D02*
X354641Y258019D01*
X354641Y259111D02*
X353491Y259111D01*
X361141Y265725D02*
X361141Y266875D01*
X369991Y266875D01*
X369991Y265725D01*
X361141Y265725D01*
X361141Y266817D02*
X369991Y266817D01*
X361141Y270725D02*
X361141Y271875D01*
X369991Y271875D01*
X369991Y270725D01*
X361141Y270725D01*
X361141Y271817D02*
X369991Y271817D01*
X361141Y275725D02*
X361141Y276875D01*
X369991Y276875D01*
X369991Y275725D01*
X361141Y275725D01*
X361141Y276817D02*
X369991Y276817D01*
X361141Y280725D02*
X361141Y281875D01*
X369991Y281875D01*
X369991Y280725D01*
X361141Y280725D01*
X361141Y281817D02*
X369991Y281817D01*
X361141Y285725D02*
X361141Y286875D01*
X369991Y286875D01*
X369991Y285725D01*
X361141Y285725D01*
X361141Y286817D02*
X369991Y286817D01*
X361141Y290725D02*
X361141Y291875D01*
X369991Y291875D01*
X369991Y290725D01*
X361141Y290725D01*
X361141Y291817D02*
X369991Y291817D01*
X361141Y295725D02*
X361141Y296875D01*
X369991Y296875D01*
X369991Y295725D01*
X361141Y295725D01*
X361141Y296817D02*
X369991Y296817D01*
X361141Y300725D02*
X361141Y301875D01*
X369991Y301875D01*
X369991Y300725D01*
X361141Y300725D01*
X361141Y301817D02*
X369991Y301817D01*
X361141Y305725D02*
X361141Y306875D01*
X369991Y306875D01*
X369991Y305725D01*
X361141Y305725D01*
X361141Y306817D02*
X369991Y306817D01*
X361141Y310725D02*
X361141Y311875D01*
X369991Y311875D01*
X369991Y310725D01*
X361141Y310725D01*
X361141Y311817D02*
X369991Y311817D01*
X361141Y315725D02*
X361141Y316875D01*
X369991Y316875D01*
X369991Y315725D01*
X361141Y315725D01*
X361141Y316817D02*
X369991Y316817D01*
X361141Y320725D02*
X361141Y321875D01*
X369991Y321875D01*
X369991Y320725D01*
X361141Y320725D01*
X361141Y321817D02*
X369991Y321817D01*
D15*
X299566Y320800D02*
X299566Y266800D01*
X299566Y320800D02*
X353566Y320800D01*
X353566Y266800D01*
X299566Y266800D01*
X299566Y272500D02*
X353566Y272500D01*
X353566Y278200D02*
X299566Y278200D01*
X299566Y283900D02*
X353566Y283900D01*
X353566Y289600D02*
X299566Y289600D01*
X299566Y295300D02*
X353566Y295300D01*
X353566Y301000D02*
X299566Y301000D01*
X299566Y306700D02*
X353566Y306700D01*
X353566Y312400D02*
X299566Y312400D01*
X299566Y318100D02*
X353566Y318100D01*
D16*
X135672Y423600D02*
X128560Y423600D01*
X128560Y410900D02*
X135672Y410900D01*
X135672Y398200D02*
X128560Y398200D01*
X128560Y385500D02*
X135672Y385500D01*
X135672Y372800D02*
X128560Y372800D01*
X128560Y360100D02*
X135672Y360100D01*
X135672Y347400D02*
X128560Y347400D01*
X128560Y334700D02*
X135672Y334700D01*
X135672Y322000D02*
X128560Y322000D01*
X211110Y423600D02*
X218222Y423600D01*
X218222Y436300D02*
X211110Y436300D01*
D17*
X354634Y188500D03*
X354634Y195000D03*
X354634Y201500D03*
X354634Y208000D03*
X354634Y214500D03*
X354634Y221000D03*
X354634Y227500D03*
X295278Y188500D03*
X295278Y195000D03*
X295278Y201500D03*
X295278Y208000D03*
X295278Y214500D03*
X295278Y221000D03*
X295278Y227500D03*
D16*
X196916Y111600D02*
X189804Y111600D01*
X170500Y130904D02*
X170500Y138016D01*
D18*
X390550Y372800D03*
X368550Y372800D03*
X368550Y355800D03*
X390550Y355800D03*
D19*
X292420Y363220D03*
X292420Y378460D03*
X322970Y363400D03*
X322970Y378640D03*
D20*
X302730Y150950D03*
X328130Y150950D03*
D21*
X396080Y198610D03*
X380840Y198610D03*
X406400Y234950D03*
X391160Y234950D03*
D19*
X307790Y378820D03*
X307790Y363580D03*
D22*
X378460Y341150D03*
X388620Y341150D03*
X352580Y355600D03*
X352580Y365760D03*
D21*
X391160Y250190D03*
X406400Y250190D03*
X391160Y264160D03*
X406400Y264160D03*
X391160Y220980D03*
X406400Y220980D03*
D23*
X395280Y297980D03*
X395280Y323380D03*
D19*
X262270Y362740D03*
X262270Y377980D03*
D21*
X391470Y279080D03*
X406710Y279080D03*
D19*
X270000Y265080D03*
X270000Y249840D03*
D24*
X270000Y227018D02*
X270000Y208222D01*
D25*
X280861Y56830D03*
X288862Y56830D03*
X296860Y56830D03*
X304861Y56830D03*
X312859Y56830D03*
D26*
X340360Y56830D03*
X340360Y1831D03*
X253360Y1831D03*
X253360Y56830D03*
D27*
X355600Y152400D03*
X355600Y146050D03*
X355600Y139700D03*
X355600Y133350D03*
X387350Y187960D03*
X407670Y208280D03*
X340360Y223520D03*
D28*
X329066Y291300D02*
X365566Y291300D01*
D29*
X329066Y291300D02*
X326566Y293800D01*
D28*
X304800Y276300D02*
X287566Y276300D01*
D29*
X304800Y276300D02*
X314400Y276300D01*
X326566Y288466D02*
X326566Y292100D01*
X326566Y293800D01*
X326566Y288466D02*
X314400Y276300D01*
D28*
X355766Y321300D02*
X365566Y321300D01*
X355766Y321300D02*
X339066Y304600D01*
D29*
X328383Y293917D01*
X326566Y292100D01*
D28*
X339066Y317500D02*
X339066Y332800D01*
X339066Y317500D02*
X339066Y304600D01*
X309066Y309066D02*
X309066Y332800D01*
D29*
X309066Y309066D02*
X304800Y304800D01*
X315683Y293917D01*
X328383Y293917D01*
D28*
X354066Y268234D02*
X354066Y254800D01*
X330200Y292100D02*
X326566Y292100D01*
X330200Y292100D02*
X354066Y268234D01*
X365566Y286300D02*
X328732Y286300D01*
X326566Y288466D01*
X340266Y316300D02*
X365566Y316300D01*
X340266Y316300D02*
X339066Y317500D01*
X314066Y320934D02*
X314066Y332800D01*
X328383Y306617D02*
X328383Y293917D01*
X328383Y306617D02*
X314066Y320934D01*
X304066Y316300D02*
X304066Y332800D01*
X304066Y316300D02*
X329066Y291300D01*
X299800Y271300D02*
X287566Y271300D01*
X299800Y271300D02*
X304800Y276300D01*
D27*
X292100Y259080D03*
X165100Y431800D03*
X171450Y431800D03*
X177800Y431800D03*
X165100Y326390D03*
X171450Y326390D03*
X177800Y326390D03*
X292100Y378460D03*
X307340Y378460D03*
X322580Y378460D03*
D30*
X322790Y378460D02*
X322970Y378640D01*
X322790Y378460D02*
X322580Y378460D01*
X307790Y378820D02*
X307430Y378460D01*
X307340Y378460D01*
D27*
X247650Y374650D03*
X247650Y368300D03*
X247650Y381000D03*
X406400Y355600D03*
X406400Y342900D03*
X387350Y209550D03*
X304800Y304800D03*
X304800Y279400D03*
X349250Y279400D03*
X349250Y304800D03*
X241300Y127000D03*
X241300Y120650D03*
X241300Y114300D03*
X241300Y107950D03*
X406400Y349250D03*
D30*
X377859Y306300D02*
X365566Y306300D01*
X377859Y306300D02*
X379224Y304935D01*
D27*
X379224Y304935D03*
X388366Y165354D03*
D30*
X388240Y165228D01*
X388240Y153790D01*
X374184Y301300D02*
X365566Y301300D01*
X374184Y301300D02*
X377622Y297862D01*
D27*
X377622Y297862D03*
X371752Y241062D03*
D30*
X370438Y239748D01*
X370438Y163362D01*
X378740Y155060D02*
X378740Y153790D01*
X378740Y155060D02*
X370438Y163362D01*
X378740Y176790D02*
X378740Y196510D01*
X380840Y198610D01*
X377030Y202420D01*
X377030Y250030D01*
X378903Y251903D01*
D27*
X378903Y251903D03*
X377190Y290830D03*
D30*
X371720Y296300D01*
X365566Y296300D01*
X397740Y196950D02*
X397740Y176790D01*
X397740Y196950D02*
X396080Y198610D01*
D28*
X334066Y332800D02*
X334066Y349194D01*
X330200Y353060D01*
X317500Y353060D01*
X307790Y362770D01*
X307790Y363580D01*
D30*
X391160Y234950D02*
X391160Y220980D01*
X391160Y234950D02*
X389890Y234950D01*
X383540Y241300D01*
X383342Y241300D01*
D27*
X383342Y241300D03*
X345440Y242570D03*
D30*
X344066Y243944D01*
X344066Y254800D01*
D28*
X319066Y332800D02*
X319066Y338794D01*
X294640Y363220D01*
X292420Y363220D01*
X291540Y362340D02*
X277180Y362340D01*
X291540Y362340D02*
X292420Y363220D01*
X344066Y355704D02*
X344066Y332800D01*
X338140Y361630D02*
X338140Y362340D01*
X338140Y361630D02*
X344066Y355704D01*
X324030Y362340D02*
X322970Y363400D01*
X324030Y362340D02*
X338140Y362340D01*
D30*
X329066Y345444D02*
X329066Y332800D01*
X329066Y345444D02*
X328407Y346103D01*
D27*
X328407Y346103D03*
X305180Y128270D03*
D30*
X288862Y111952D01*
X288862Y56830D01*
X324066Y332800D02*
X324066Y342980D01*
X320915Y346131D01*
D27*
X320915Y346131D03*
X319660Y128270D03*
D30*
X296860Y105470D01*
X296860Y56830D01*
D29*
X280861Y56830D02*
X280861Y112840D01*
X264400Y129300D02*
X264400Y146540D01*
X264400Y129300D02*
X280861Y112840D01*
X281400Y146540D02*
X298320Y146540D01*
X302730Y150950D01*
X302730Y164300D01*
X311150Y172720D02*
X354330Y172720D01*
X364490Y182880D01*
D27*
X364490Y240030D03*
D29*
X311150Y172720D02*
X302730Y164300D01*
X364490Y182880D02*
X364490Y240030D01*
D28*
X365566Y281300D02*
X372740Y281300D01*
X374650Y283210D01*
D27*
X374650Y283210D03*
D30*
X354634Y195000D02*
X295278Y195000D01*
X354634Y195000D02*
X354634Y201500D01*
X354634Y214500D02*
X295278Y214500D01*
X354634Y214500D02*
X354634Y221000D01*
D31*
X283210Y171450D03*
D29*
X294640Y187862D02*
X295278Y188500D01*
X294640Y187862D02*
X294640Y182880D01*
X283210Y171450D01*
D27*
X267970Y280670D03*
D30*
X268600Y281300D01*
X287566Y281300D01*
X308610Y226060D02*
X303550Y221000D01*
D27*
X308610Y226060D03*
X308610Y208280D03*
D30*
X308330Y208000D01*
X295278Y208000D01*
X295278Y221000D02*
X303550Y221000D01*
X324351Y208000D02*
X354634Y208000D01*
X324351Y208000D02*
X323129Y209222D01*
D27*
X323129Y209222D03*
X303788Y242570D03*
D30*
X304066Y242848D01*
X304066Y254800D01*
X324351Y188500D02*
X354634Y188500D01*
X324351Y188500D02*
X323129Y189722D01*
D27*
X323129Y189722D03*
X309880Y237490D03*
D30*
X309066Y238304D01*
X309066Y254800D01*
X165496Y423600D02*
X132116Y423600D01*
X267796Y321300D02*
X287566Y321300D01*
X267796Y321300D02*
X165496Y423600D01*
X174244Y410900D02*
X132116Y410900D01*
X268844Y316300D02*
X287566Y316300D01*
X268844Y316300D02*
X174244Y410900D01*
X182993Y398200D02*
X132116Y398200D01*
X269893Y311300D02*
X287566Y311300D01*
X269893Y311300D02*
X182993Y398200D01*
X191742Y385500D02*
X132116Y385500D01*
X270942Y306300D02*
X287566Y306300D01*
X270942Y306300D02*
X191742Y385500D01*
X200490Y372800D02*
X132116Y372800D01*
X271990Y301300D02*
X287566Y301300D01*
X271990Y301300D02*
X200490Y372800D01*
X209239Y360100D02*
X132116Y360100D01*
X273039Y296300D02*
X287566Y296300D01*
X273039Y296300D02*
X209239Y360100D01*
X217987Y347400D02*
X132116Y347400D01*
X273587Y291800D02*
X287566Y291800D01*
X273587Y291800D02*
X217987Y347400D01*
X275136Y286300D02*
X287566Y286300D01*
X275136Y286300D02*
X226736Y334700D01*
X132116Y334700D01*
X193360Y111600D02*
X204451Y111600D01*
X238760Y145909D01*
X238760Y146050D01*
X287563Y194853D01*
X290400Y201500D02*
X295278Y201500D01*
X287563Y198663D02*
X287563Y194853D01*
X287563Y198663D02*
X290400Y201500D01*
X284954Y203674D02*
X284954Y221454D01*
X284954Y203674D02*
X233680Y152400D01*
X291000Y227500D02*
X295278Y227500D01*
X291000Y227500D02*
X284954Y221454D01*
X170500Y144620D02*
X170500Y134460D01*
X170500Y144620D02*
X178280Y152400D01*
X233680Y152400D01*
X352580Y355600D02*
X352780Y355800D01*
X368550Y355800D01*
X349066Y351606D02*
X349066Y332800D01*
X352580Y355120D02*
X352580Y355600D01*
X352580Y355120D02*
X349066Y351606D01*
X354066Y332800D02*
X370110Y332800D01*
X378460Y341150D01*
X379730Y342420D01*
X379730Y361980D01*
X390550Y372800D01*
D28*
X373780Y266300D02*
X365566Y266300D01*
X389890Y250190D02*
X391160Y250190D01*
X389890Y250190D02*
X373780Y266300D01*
X365566Y271300D02*
X384020Y271300D01*
X391160Y264160D01*
D30*
X299066Y246686D02*
X270000Y217620D01*
X299066Y246686D02*
X299066Y254800D01*
D28*
X381000Y311300D02*
X381017Y311300D01*
X393700Y297980D02*
X395280Y297980D01*
X394337Y297980D01*
X381017Y311300D01*
X269037Y355538D02*
X269037Y355973D01*
X262270Y362740D01*
X291775Y332800D02*
X299066Y332800D01*
X291775Y332800D02*
X279268Y345308D01*
X269037Y355538D01*
X262270Y362740D02*
X262270Y363160D01*
X277180Y378070D02*
X277180Y379340D01*
X277180Y378070D02*
X262270Y363160D01*
X277180Y379340D02*
X287730Y389890D01*
X337750Y389890D02*
X338140Y389500D01*
X337750Y389890D02*
X287730Y389890D01*
X365566Y276300D02*
X388690Y276300D01*
X391470Y279080D01*
X391470Y279400D01*
X391470Y295750D01*
X393700Y297980D01*
X287566Y266300D02*
X271220Y266300D01*
X270000Y265080D01*
D30*
X398780Y242570D02*
X406400Y234950D01*
X398780Y272090D02*
X391470Y279400D01*
X398780Y272090D02*
X398780Y242570D01*
X406400Y234950D02*
X414020Y227330D01*
X414020Y171340D02*
X397740Y155060D01*
X397740Y153790D01*
X414020Y171340D02*
X414020Y227330D01*
D28*
X381000Y311300D02*
X381000Y317500D01*
D27*
X381000Y317500D03*
X338140Y389500D03*
D28*
X278050Y273130D02*
X270000Y265080D01*
X278050Y273130D02*
X278050Y276022D01*
D27*
X278050Y276022D03*
X279400Y344170D03*
D28*
X279268Y344302D01*
X279268Y345308D01*
X338140Y379340D02*
X338140Y389500D01*
X365566Y311300D02*
X381000Y311300D01*
M02*
