G04 EAGLE Gerber RS-274X export*
G75*
%MOMM*%
%FSLAX34Y34*%
%LPD*%
%INSolderpaste Top*%
%IPPOS*%
%AMOC8*
5,1,8,0,0,1.08239X$1,22.5*%
G01*
%ADD10R,0.900000X1.000000*%
%ADD11R,0.600000X0.900000*%
%ADD12R,1.000000X1.100000*%
%ADD13R,1.100000X1.000000*%
%ADD14R,1.500000X1.500000*%
%ADD15C,0.115000*%
%ADD16R,0.990600X0.304800*%
%ADD17R,1.400000X1.200000*%
%ADD18R,0.800000X0.900000*%
%ADD19R,1.400000X1.800000*%
%ADD20R,0.900000X0.800000*%
%ADD21R,0.600000X0.600000*%
%ADD22R,1.800000X1.400000*%
%ADD23C,1.930400*%
%ADD24R,0.500000X2.299997*%
%ADD25R,1.999997X2.499994*%


D10*
X319660Y128270D03*
X335660Y128270D03*
X305180Y128270D03*
X289180Y128270D03*
D11*
X397740Y176790D03*
X388240Y176790D03*
X378740Y176790D03*
X378740Y153790D03*
X388240Y153790D03*
X397740Y153790D03*
D12*
X277180Y379340D03*
X277180Y362340D03*
X338140Y379340D03*
X338140Y362340D03*
D13*
X264400Y146540D03*
X281400Y146540D03*
D14*
X339066Y306300D03*
X339066Y281300D03*
X314066Y281300D03*
X314066Y306300D03*
D15*
X353491Y328375D02*
X354641Y328375D01*
X353491Y328375D02*
X353491Y337225D01*
X354641Y337225D01*
X354641Y328375D01*
X354641Y329467D02*
X353491Y329467D01*
X353491Y330559D02*
X354641Y330559D01*
X354641Y331651D02*
X353491Y331651D01*
X353491Y332743D02*
X354641Y332743D01*
X354641Y333835D02*
X353491Y333835D01*
X353491Y334927D02*
X354641Y334927D01*
X354641Y336019D02*
X353491Y336019D01*
X353491Y337111D02*
X354641Y337111D01*
X349641Y328375D02*
X348491Y328375D01*
X348491Y337225D01*
X349641Y337225D01*
X349641Y328375D01*
X349641Y329467D02*
X348491Y329467D01*
X348491Y330559D02*
X349641Y330559D01*
X349641Y331651D02*
X348491Y331651D01*
X348491Y332743D02*
X349641Y332743D01*
X349641Y333835D02*
X348491Y333835D01*
X348491Y334927D02*
X349641Y334927D01*
X349641Y336019D02*
X348491Y336019D01*
X348491Y337111D02*
X349641Y337111D01*
X344641Y328375D02*
X343491Y328375D01*
X343491Y337225D01*
X344641Y337225D01*
X344641Y328375D01*
X344641Y329467D02*
X343491Y329467D01*
X343491Y330559D02*
X344641Y330559D01*
X344641Y331651D02*
X343491Y331651D01*
X343491Y332743D02*
X344641Y332743D01*
X344641Y333835D02*
X343491Y333835D01*
X343491Y334927D02*
X344641Y334927D01*
X344641Y336019D02*
X343491Y336019D01*
X343491Y337111D02*
X344641Y337111D01*
X339641Y328375D02*
X338491Y328375D01*
X338491Y337225D01*
X339641Y337225D01*
X339641Y328375D01*
X339641Y329467D02*
X338491Y329467D01*
X338491Y330559D02*
X339641Y330559D01*
X339641Y331651D02*
X338491Y331651D01*
X338491Y332743D02*
X339641Y332743D01*
X339641Y333835D02*
X338491Y333835D01*
X338491Y334927D02*
X339641Y334927D01*
X339641Y336019D02*
X338491Y336019D01*
X338491Y337111D02*
X339641Y337111D01*
X334641Y328375D02*
X333491Y328375D01*
X333491Y337225D01*
X334641Y337225D01*
X334641Y328375D01*
X334641Y329467D02*
X333491Y329467D01*
X333491Y330559D02*
X334641Y330559D01*
X334641Y331651D02*
X333491Y331651D01*
X333491Y332743D02*
X334641Y332743D01*
X334641Y333835D02*
X333491Y333835D01*
X333491Y334927D02*
X334641Y334927D01*
X334641Y336019D02*
X333491Y336019D01*
X333491Y337111D02*
X334641Y337111D01*
X329641Y328375D02*
X328491Y328375D01*
X328491Y337225D01*
X329641Y337225D01*
X329641Y328375D01*
X329641Y329467D02*
X328491Y329467D01*
X328491Y330559D02*
X329641Y330559D01*
X329641Y331651D02*
X328491Y331651D01*
X328491Y332743D02*
X329641Y332743D01*
X329641Y333835D02*
X328491Y333835D01*
X328491Y334927D02*
X329641Y334927D01*
X329641Y336019D02*
X328491Y336019D01*
X328491Y337111D02*
X329641Y337111D01*
X324641Y328375D02*
X323491Y328375D01*
X323491Y337225D01*
X324641Y337225D01*
X324641Y328375D01*
X324641Y329467D02*
X323491Y329467D01*
X323491Y330559D02*
X324641Y330559D01*
X324641Y331651D02*
X323491Y331651D01*
X323491Y332743D02*
X324641Y332743D01*
X324641Y333835D02*
X323491Y333835D01*
X323491Y334927D02*
X324641Y334927D01*
X324641Y336019D02*
X323491Y336019D01*
X323491Y337111D02*
X324641Y337111D01*
X319641Y328375D02*
X318491Y328375D01*
X318491Y337225D01*
X319641Y337225D01*
X319641Y328375D01*
X319641Y329467D02*
X318491Y329467D01*
X318491Y330559D02*
X319641Y330559D01*
X319641Y331651D02*
X318491Y331651D01*
X318491Y332743D02*
X319641Y332743D01*
X319641Y333835D02*
X318491Y333835D01*
X318491Y334927D02*
X319641Y334927D01*
X319641Y336019D02*
X318491Y336019D01*
X318491Y337111D02*
X319641Y337111D01*
X314641Y328375D02*
X313491Y328375D01*
X313491Y337225D01*
X314641Y337225D01*
X314641Y328375D01*
X314641Y329467D02*
X313491Y329467D01*
X313491Y330559D02*
X314641Y330559D01*
X314641Y331651D02*
X313491Y331651D01*
X313491Y332743D02*
X314641Y332743D01*
X314641Y333835D02*
X313491Y333835D01*
X313491Y334927D02*
X314641Y334927D01*
X314641Y336019D02*
X313491Y336019D01*
X313491Y337111D02*
X314641Y337111D01*
X309641Y328375D02*
X308491Y328375D01*
X308491Y337225D01*
X309641Y337225D01*
X309641Y328375D01*
X309641Y329467D02*
X308491Y329467D01*
X308491Y330559D02*
X309641Y330559D01*
X309641Y331651D02*
X308491Y331651D01*
X308491Y332743D02*
X309641Y332743D01*
X309641Y333835D02*
X308491Y333835D01*
X308491Y334927D02*
X309641Y334927D01*
X309641Y336019D02*
X308491Y336019D01*
X308491Y337111D02*
X309641Y337111D01*
X304641Y328375D02*
X303491Y328375D01*
X303491Y337225D01*
X304641Y337225D01*
X304641Y328375D01*
X304641Y329467D02*
X303491Y329467D01*
X303491Y330559D02*
X304641Y330559D01*
X304641Y331651D02*
X303491Y331651D01*
X303491Y332743D02*
X304641Y332743D01*
X304641Y333835D02*
X303491Y333835D01*
X303491Y334927D02*
X304641Y334927D01*
X304641Y336019D02*
X303491Y336019D01*
X303491Y337111D02*
X304641Y337111D01*
X299641Y328375D02*
X298491Y328375D01*
X298491Y337225D01*
X299641Y337225D01*
X299641Y328375D01*
X299641Y329467D02*
X298491Y329467D01*
X298491Y330559D02*
X299641Y330559D01*
X299641Y331651D02*
X298491Y331651D01*
X298491Y332743D02*
X299641Y332743D01*
X299641Y333835D02*
X298491Y333835D01*
X298491Y334927D02*
X299641Y334927D01*
X299641Y336019D02*
X298491Y336019D01*
X298491Y337111D02*
X299641Y337111D01*
X291991Y321875D02*
X291991Y320725D01*
X283141Y320725D01*
X283141Y321875D01*
X291991Y321875D01*
X291991Y321817D02*
X283141Y321817D01*
X291991Y316875D02*
X291991Y315725D01*
X283141Y315725D01*
X283141Y316875D01*
X291991Y316875D01*
X291991Y316817D02*
X283141Y316817D01*
X291991Y311875D02*
X291991Y310725D01*
X283141Y310725D01*
X283141Y311875D01*
X291991Y311875D01*
X291991Y311817D02*
X283141Y311817D01*
X291991Y306875D02*
X291991Y305725D01*
X283141Y305725D01*
X283141Y306875D01*
X291991Y306875D01*
X291991Y306817D02*
X283141Y306817D01*
X291991Y301875D02*
X291991Y300725D01*
X283141Y300725D01*
X283141Y301875D01*
X291991Y301875D01*
X291991Y301817D02*
X283141Y301817D01*
X291991Y296875D02*
X291991Y295725D01*
X283141Y295725D01*
X283141Y296875D01*
X291991Y296875D01*
X291991Y296817D02*
X283141Y296817D01*
X291991Y292375D02*
X291991Y291225D01*
X283141Y291225D01*
X283141Y292375D01*
X291991Y292375D01*
X291991Y292317D02*
X283141Y292317D01*
X291991Y286875D02*
X291991Y285725D01*
X283141Y285725D01*
X283141Y286875D01*
X291991Y286875D01*
X291991Y286817D02*
X283141Y286817D01*
X291991Y281875D02*
X291991Y280725D01*
X283141Y280725D01*
X283141Y281875D01*
X291991Y281875D01*
X291991Y281817D02*
X283141Y281817D01*
X291991Y276875D02*
X291991Y275725D01*
X283141Y275725D01*
X283141Y276875D01*
X291991Y276875D01*
X291991Y276817D02*
X283141Y276817D01*
X291991Y271875D02*
X291991Y270725D01*
X283141Y270725D01*
X283141Y271875D01*
X291991Y271875D01*
X291991Y271817D02*
X283141Y271817D01*
X291991Y266875D02*
X291991Y265725D01*
X283141Y265725D01*
X283141Y266875D01*
X291991Y266875D01*
X291991Y266817D02*
X283141Y266817D01*
X298491Y259225D02*
X299641Y259225D01*
X299641Y250375D01*
X298491Y250375D01*
X298491Y259225D01*
X298491Y251467D02*
X299641Y251467D01*
X299641Y252559D02*
X298491Y252559D01*
X298491Y253651D02*
X299641Y253651D01*
X299641Y254743D02*
X298491Y254743D01*
X298491Y255835D02*
X299641Y255835D01*
X299641Y256927D02*
X298491Y256927D01*
X298491Y258019D02*
X299641Y258019D01*
X299641Y259111D02*
X298491Y259111D01*
X303491Y259225D02*
X304641Y259225D01*
X304641Y250375D01*
X303491Y250375D01*
X303491Y259225D01*
X303491Y251467D02*
X304641Y251467D01*
X304641Y252559D02*
X303491Y252559D01*
X303491Y253651D02*
X304641Y253651D01*
X304641Y254743D02*
X303491Y254743D01*
X303491Y255835D02*
X304641Y255835D01*
X304641Y256927D02*
X303491Y256927D01*
X303491Y258019D02*
X304641Y258019D01*
X304641Y259111D02*
X303491Y259111D01*
X308491Y259225D02*
X309641Y259225D01*
X309641Y250375D01*
X308491Y250375D01*
X308491Y259225D01*
X308491Y251467D02*
X309641Y251467D01*
X309641Y252559D02*
X308491Y252559D01*
X308491Y253651D02*
X309641Y253651D01*
X309641Y254743D02*
X308491Y254743D01*
X308491Y255835D02*
X309641Y255835D01*
X309641Y256927D02*
X308491Y256927D01*
X308491Y258019D02*
X309641Y258019D01*
X309641Y259111D02*
X308491Y259111D01*
X313491Y259225D02*
X314641Y259225D01*
X314641Y250375D01*
X313491Y250375D01*
X313491Y259225D01*
X313491Y251467D02*
X314641Y251467D01*
X314641Y252559D02*
X313491Y252559D01*
X313491Y253651D02*
X314641Y253651D01*
X314641Y254743D02*
X313491Y254743D01*
X313491Y255835D02*
X314641Y255835D01*
X314641Y256927D02*
X313491Y256927D01*
X313491Y258019D02*
X314641Y258019D01*
X314641Y259111D02*
X313491Y259111D01*
X318491Y259225D02*
X319641Y259225D01*
X319641Y250375D01*
X318491Y250375D01*
X318491Y259225D01*
X318491Y251467D02*
X319641Y251467D01*
X319641Y252559D02*
X318491Y252559D01*
X318491Y253651D02*
X319641Y253651D01*
X319641Y254743D02*
X318491Y254743D01*
X318491Y255835D02*
X319641Y255835D01*
X319641Y256927D02*
X318491Y256927D01*
X318491Y258019D02*
X319641Y258019D01*
X319641Y259111D02*
X318491Y259111D01*
X323491Y259225D02*
X324641Y259225D01*
X324641Y250375D01*
X323491Y250375D01*
X323491Y259225D01*
X323491Y251467D02*
X324641Y251467D01*
X324641Y252559D02*
X323491Y252559D01*
X323491Y253651D02*
X324641Y253651D01*
X324641Y254743D02*
X323491Y254743D01*
X323491Y255835D02*
X324641Y255835D01*
X324641Y256927D02*
X323491Y256927D01*
X323491Y258019D02*
X324641Y258019D01*
X324641Y259111D02*
X323491Y259111D01*
X328491Y259225D02*
X329641Y259225D01*
X329641Y250375D01*
X328491Y250375D01*
X328491Y259225D01*
X328491Y251467D02*
X329641Y251467D01*
X329641Y252559D02*
X328491Y252559D01*
X328491Y253651D02*
X329641Y253651D01*
X329641Y254743D02*
X328491Y254743D01*
X328491Y255835D02*
X329641Y255835D01*
X329641Y256927D02*
X328491Y256927D01*
X328491Y258019D02*
X329641Y258019D01*
X329641Y259111D02*
X328491Y259111D01*
X333491Y259225D02*
X334641Y259225D01*
X334641Y250375D01*
X333491Y250375D01*
X333491Y259225D01*
X333491Y251467D02*
X334641Y251467D01*
X334641Y252559D02*
X333491Y252559D01*
X333491Y253651D02*
X334641Y253651D01*
X334641Y254743D02*
X333491Y254743D01*
X333491Y255835D02*
X334641Y255835D01*
X334641Y256927D02*
X333491Y256927D01*
X333491Y258019D02*
X334641Y258019D01*
X334641Y259111D02*
X333491Y259111D01*
X338491Y259225D02*
X339641Y259225D01*
X339641Y250375D01*
X338491Y250375D01*
X338491Y259225D01*
X338491Y251467D02*
X339641Y251467D01*
X339641Y252559D02*
X338491Y252559D01*
X338491Y253651D02*
X339641Y253651D01*
X339641Y254743D02*
X338491Y254743D01*
X338491Y255835D02*
X339641Y255835D01*
X339641Y256927D02*
X338491Y256927D01*
X338491Y258019D02*
X339641Y258019D01*
X339641Y259111D02*
X338491Y259111D01*
X343491Y259225D02*
X344641Y259225D01*
X344641Y250375D01*
X343491Y250375D01*
X343491Y259225D01*
X343491Y251467D02*
X344641Y251467D01*
X344641Y252559D02*
X343491Y252559D01*
X343491Y253651D02*
X344641Y253651D01*
X344641Y254743D02*
X343491Y254743D01*
X343491Y255835D02*
X344641Y255835D01*
X344641Y256927D02*
X343491Y256927D01*
X343491Y258019D02*
X344641Y258019D01*
X344641Y259111D02*
X343491Y259111D01*
X348491Y259225D02*
X349641Y259225D01*
X349641Y250375D01*
X348491Y250375D01*
X348491Y259225D01*
X348491Y251467D02*
X349641Y251467D01*
X349641Y252559D02*
X348491Y252559D01*
X348491Y253651D02*
X349641Y253651D01*
X349641Y254743D02*
X348491Y254743D01*
X348491Y255835D02*
X349641Y255835D01*
X349641Y256927D02*
X348491Y256927D01*
X348491Y258019D02*
X349641Y258019D01*
X349641Y259111D02*
X348491Y259111D01*
X353491Y259225D02*
X354641Y259225D01*
X354641Y250375D01*
X353491Y250375D01*
X353491Y259225D01*
X353491Y251467D02*
X354641Y251467D01*
X354641Y252559D02*
X353491Y252559D01*
X353491Y253651D02*
X354641Y253651D01*
X354641Y254743D02*
X353491Y254743D01*
X353491Y255835D02*
X354641Y255835D01*
X354641Y256927D02*
X353491Y256927D01*
X353491Y258019D02*
X354641Y258019D01*
X354641Y259111D02*
X353491Y259111D01*
X361141Y265725D02*
X361141Y266875D01*
X369991Y266875D01*
X369991Y265725D01*
X361141Y265725D01*
X361141Y266817D02*
X369991Y266817D01*
X361141Y270725D02*
X361141Y271875D01*
X369991Y271875D01*
X369991Y270725D01*
X361141Y270725D01*
X361141Y271817D02*
X369991Y271817D01*
X361141Y275725D02*
X361141Y276875D01*
X369991Y276875D01*
X369991Y275725D01*
X361141Y275725D01*
X361141Y276817D02*
X369991Y276817D01*
X361141Y280725D02*
X361141Y281875D01*
X369991Y281875D01*
X369991Y280725D01*
X361141Y280725D01*
X361141Y281817D02*
X369991Y281817D01*
X361141Y285725D02*
X361141Y286875D01*
X369991Y286875D01*
X369991Y285725D01*
X361141Y285725D01*
X361141Y286817D02*
X369991Y286817D01*
X361141Y290725D02*
X361141Y291875D01*
X369991Y291875D01*
X369991Y290725D01*
X361141Y290725D01*
X361141Y291817D02*
X369991Y291817D01*
X361141Y295725D02*
X361141Y296875D01*
X369991Y296875D01*
X369991Y295725D01*
X361141Y295725D01*
X361141Y296817D02*
X369991Y296817D01*
X361141Y300725D02*
X361141Y301875D01*
X369991Y301875D01*
X369991Y300725D01*
X361141Y300725D01*
X361141Y301817D02*
X369991Y301817D01*
X361141Y305725D02*
X361141Y306875D01*
X369991Y306875D01*
X369991Y305725D01*
X361141Y305725D01*
X361141Y306817D02*
X369991Y306817D01*
X361141Y310725D02*
X361141Y311875D01*
X369991Y311875D01*
X369991Y310725D01*
X361141Y310725D01*
X361141Y311817D02*
X369991Y311817D01*
X361141Y315725D02*
X361141Y316875D01*
X369991Y316875D01*
X369991Y315725D01*
X361141Y315725D01*
X361141Y316817D02*
X369991Y316817D01*
X361141Y320725D02*
X361141Y321875D01*
X369991Y321875D01*
X369991Y320725D01*
X361141Y320725D01*
X361141Y321817D02*
X369991Y321817D01*
D16*
X354634Y188500D03*
X354634Y195000D03*
X354634Y201500D03*
X354634Y208000D03*
X354634Y214500D03*
X354634Y221000D03*
X354634Y227500D03*
X295278Y188500D03*
X295278Y195000D03*
X295278Y201500D03*
X295278Y208000D03*
X295278Y214500D03*
X295278Y221000D03*
X295278Y227500D03*
D17*
X390550Y372800D03*
X368550Y372800D03*
X368550Y355800D03*
X390550Y355800D03*
D18*
X292420Y363220D03*
X292420Y378460D03*
X322970Y363400D03*
X322970Y378640D03*
D19*
X302730Y150950D03*
X328130Y150950D03*
D20*
X396080Y198610D03*
X380840Y198610D03*
X406400Y234950D03*
X391160Y234950D03*
D18*
X307790Y378820D03*
X307790Y363580D03*
D21*
X378460Y341150D03*
X388620Y341150D03*
X352580Y355600D03*
X352580Y365760D03*
D20*
X391160Y250190D03*
X406400Y250190D03*
X391160Y264160D03*
X406400Y264160D03*
X391160Y220980D03*
X406400Y220980D03*
D22*
X395280Y297980D03*
X395280Y323380D03*
D18*
X262270Y362740D03*
X262270Y377980D03*
D20*
X391470Y279080D03*
X406710Y279080D03*
D18*
X270000Y265080D03*
X270000Y249840D03*
D23*
X270000Y227018D02*
X270000Y208222D01*
D24*
X280861Y56830D03*
X288862Y56830D03*
X296860Y56830D03*
X304861Y56830D03*
X312859Y56830D03*
D25*
X340360Y56830D03*
X340360Y1831D03*
X253360Y1831D03*
X253360Y56830D03*
M02*
