G04 EAGLE Gerber RS-274X export*
G75*
%MOMM*%
%FSLAX34Y34*%
%LPD*%
%INBottom Copper*%
%IPPOS*%
%AMOC8*
5,1,8,0,0,1.08239X$1,22.5*%
G01*
%ADD10C,1.006400*%
%ADD11C,1.306400*%
%ADD12P,1.539592X8X202.500000*%
%ADD13C,0.503200*%
%ADD14C,0.152400*%
%ADD15C,0.528600*%
%ADD16C,0.406400*%
%ADD17C,0.228600*%
%ADD18C,0.304800*%
%ADD19C,0.650000*%

G36*
X344291Y2012D02*
X344291Y2012D01*
X344362Y2014D01*
X344411Y2032D01*
X344463Y2040D01*
X344526Y2074D01*
X344594Y2099D01*
X344634Y2131D01*
X344680Y2156D01*
X344729Y2207D01*
X344786Y2252D01*
X344814Y2296D01*
X344850Y2334D01*
X344880Y2399D01*
X344919Y2459D01*
X344931Y2510D01*
X344953Y2557D01*
X344961Y2628D01*
X344979Y2698D01*
X344975Y2750D01*
X344980Y2801D01*
X344965Y2872D01*
X344959Y2943D01*
X344939Y2991D01*
X344928Y3042D01*
X344891Y3103D01*
X344863Y3169D01*
X344818Y3225D01*
X344802Y3253D01*
X344784Y3268D01*
X344758Y3300D01*
X344618Y3441D01*
X343789Y4681D01*
X343218Y6059D01*
X342927Y7522D01*
X342927Y11801D01*
X349762Y11801D01*
X349781Y11804D01*
X349801Y11802D01*
X349903Y11824D01*
X350005Y11840D01*
X350022Y11850D01*
X350042Y11854D01*
X350131Y11907D01*
X350222Y11956D01*
X350236Y11970D01*
X350253Y11980D01*
X350320Y12059D01*
X350391Y12134D01*
X350400Y12152D01*
X350413Y12167D01*
X350451Y12263D01*
X350495Y12357D01*
X350497Y12377D01*
X350504Y12395D01*
X350517Y12319D01*
X350526Y12302D01*
X350530Y12282D01*
X350583Y12193D01*
X350632Y12102D01*
X350646Y12088D01*
X350656Y12071D01*
X350735Y12004D01*
X350810Y11932D01*
X350828Y11924D01*
X350843Y11911D01*
X350940Y11872D01*
X351033Y11829D01*
X351053Y11827D01*
X351071Y11819D01*
X351238Y11801D01*
X358073Y11801D01*
X358073Y7522D01*
X357782Y6059D01*
X357211Y4681D01*
X356382Y3441D01*
X356242Y3300D01*
X356200Y3242D01*
X356150Y3190D01*
X356129Y3143D01*
X356098Y3101D01*
X356077Y3032D01*
X356047Y2967D01*
X356041Y2915D01*
X356026Y2866D01*
X356028Y2794D01*
X356020Y2723D01*
X356031Y2672D01*
X356032Y2620D01*
X356057Y2552D01*
X356072Y2482D01*
X356099Y2437D01*
X356117Y2389D01*
X356161Y2333D01*
X356198Y2271D01*
X356238Y2237D01*
X356270Y2197D01*
X356331Y2158D01*
X356385Y2111D01*
X356433Y2092D01*
X356477Y2064D01*
X356547Y2046D01*
X356613Y2019D01*
X356685Y2011D01*
X356716Y2003D01*
X356739Y2005D01*
X356780Y2001D01*
X430620Y2001D01*
X430691Y2012D01*
X430762Y2014D01*
X430811Y2032D01*
X430863Y2040D01*
X430926Y2074D01*
X430994Y2099D01*
X431034Y2131D01*
X431080Y2156D01*
X431129Y2207D01*
X431186Y2252D01*
X431214Y2296D01*
X431250Y2334D01*
X431280Y2399D01*
X431319Y2459D01*
X431331Y2510D01*
X431353Y2557D01*
X431361Y2628D01*
X431379Y2698D01*
X431375Y2750D01*
X431380Y2801D01*
X431365Y2872D01*
X431359Y2943D01*
X431339Y2991D01*
X431328Y3042D01*
X431291Y3103D01*
X431263Y3169D01*
X431218Y3225D01*
X431202Y3253D01*
X431184Y3268D01*
X431158Y3300D01*
X431018Y3441D01*
X430189Y4681D01*
X429618Y6059D01*
X429327Y7522D01*
X429327Y11801D01*
X436162Y11801D01*
X436181Y11804D01*
X436201Y11802D01*
X436303Y11824D01*
X436405Y11840D01*
X436422Y11850D01*
X436442Y11854D01*
X436531Y11907D01*
X436622Y11956D01*
X436636Y11970D01*
X436653Y11980D01*
X436720Y12059D01*
X436791Y12134D01*
X436800Y12152D01*
X436813Y12167D01*
X436851Y12263D01*
X436895Y12357D01*
X436897Y12377D01*
X436904Y12395D01*
X436917Y12319D01*
X436926Y12302D01*
X436930Y12282D01*
X436983Y12193D01*
X437032Y12102D01*
X437046Y12088D01*
X437056Y12071D01*
X437135Y12004D01*
X437210Y11932D01*
X437228Y11924D01*
X437243Y11911D01*
X437340Y11872D01*
X437433Y11829D01*
X437453Y11827D01*
X437471Y11819D01*
X437638Y11801D01*
X444473Y11801D01*
X444473Y7522D01*
X444182Y6059D01*
X443611Y4681D01*
X442782Y3441D01*
X442642Y3300D01*
X442600Y3242D01*
X442550Y3190D01*
X442529Y3143D01*
X442498Y3101D01*
X442477Y3032D01*
X442447Y2967D01*
X442441Y2915D01*
X442426Y2866D01*
X442428Y2794D01*
X442420Y2723D01*
X442431Y2672D01*
X442432Y2620D01*
X442457Y2552D01*
X442472Y2482D01*
X442499Y2437D01*
X442517Y2389D01*
X442561Y2333D01*
X442598Y2271D01*
X442638Y2237D01*
X442670Y2197D01*
X442731Y2158D01*
X442785Y2111D01*
X442833Y2092D01*
X442877Y2064D01*
X442947Y2046D01*
X443013Y2019D01*
X443085Y2011D01*
X443116Y2003D01*
X443139Y2005D01*
X443180Y2001D01*
X632238Y2001D01*
X632258Y2004D01*
X632277Y2002D01*
X632379Y2024D01*
X632481Y2040D01*
X632498Y2050D01*
X632518Y2054D01*
X632607Y2107D01*
X632698Y2156D01*
X632712Y2170D01*
X632729Y2180D01*
X632796Y2259D01*
X632868Y2334D01*
X632876Y2352D01*
X632889Y2367D01*
X632928Y2463D01*
X632971Y2557D01*
X632973Y2577D01*
X632981Y2595D01*
X632999Y2762D01*
X632999Y632238D01*
X632996Y632258D01*
X632998Y632277D01*
X632976Y632379D01*
X632960Y632481D01*
X632950Y632498D01*
X632946Y632518D01*
X632893Y632607D01*
X632844Y632698D01*
X632830Y632712D01*
X632820Y632729D01*
X632741Y632796D01*
X632666Y632868D01*
X632648Y632876D01*
X632633Y632889D01*
X632537Y632928D01*
X632443Y632971D01*
X632423Y632973D01*
X632405Y632981D01*
X632238Y632999D01*
X2762Y632999D01*
X2742Y632996D01*
X2723Y632998D01*
X2621Y632976D01*
X2519Y632960D01*
X2502Y632950D01*
X2482Y632946D01*
X2393Y632893D01*
X2302Y632844D01*
X2288Y632830D01*
X2271Y632820D01*
X2204Y632741D01*
X2132Y632666D01*
X2124Y632648D01*
X2111Y632633D01*
X2072Y632537D01*
X2029Y632443D01*
X2027Y632423D01*
X2019Y632405D01*
X2001Y632238D01*
X2001Y2762D01*
X2004Y2742D01*
X2002Y2723D01*
X2024Y2621D01*
X2040Y2519D01*
X2050Y2502D01*
X2054Y2482D01*
X2107Y2393D01*
X2156Y2302D01*
X2170Y2288D01*
X2180Y2271D01*
X2259Y2204D01*
X2334Y2132D01*
X2352Y2124D01*
X2367Y2111D01*
X2463Y2072D01*
X2557Y2029D01*
X2577Y2027D01*
X2595Y2019D01*
X2762Y2001D01*
X344220Y2001D01*
X344291Y2012D01*
G37*
%LPC*%
G36*
X58633Y137517D02*
X58633Y137517D01*
X55497Y138816D01*
X53096Y141217D01*
X51797Y144353D01*
X51797Y147747D01*
X53096Y150883D01*
X55497Y153284D01*
X58633Y154583D01*
X62027Y154583D01*
X63212Y154092D01*
X63307Y154070D01*
X63400Y154041D01*
X63426Y154042D01*
X63452Y154036D01*
X63548Y154045D01*
X63646Y154047D01*
X63670Y154056D01*
X63697Y154059D01*
X63786Y154098D01*
X63877Y154132D01*
X63897Y154148D01*
X63921Y154159D01*
X63993Y154225D01*
X64069Y154286D01*
X64083Y154308D01*
X64102Y154325D01*
X64149Y154411D01*
X64202Y154493D01*
X64208Y154518D01*
X64221Y154541D01*
X64238Y154637D01*
X64262Y154731D01*
X64260Y154757D01*
X64265Y154783D01*
X64250Y154879D01*
X64243Y154976D01*
X64233Y155000D01*
X64229Y155026D01*
X64185Y155113D01*
X64147Y155203D01*
X64126Y155228D01*
X64117Y155245D01*
X64094Y155269D01*
X64042Y155334D01*
X62881Y156494D01*
X62807Y156547D01*
X62738Y156607D01*
X62707Y156619D01*
X62681Y156638D01*
X62594Y156665D01*
X62509Y156699D01*
X62468Y156703D01*
X62446Y156710D01*
X62414Y156709D01*
X62343Y156717D01*
X50132Y156717D01*
X50018Y156698D01*
X49901Y156681D01*
X49896Y156679D01*
X49890Y156678D01*
X49787Y156623D01*
X49682Y156570D01*
X49678Y156565D01*
X49672Y156562D01*
X49592Y156478D01*
X49510Y156394D01*
X49506Y156388D01*
X49503Y156384D01*
X49495Y156367D01*
X49429Y156247D01*
X48464Y153917D01*
X46063Y151516D01*
X42927Y150217D01*
X39533Y150217D01*
X36397Y151516D01*
X33996Y153917D01*
X32697Y157053D01*
X32697Y160447D01*
X33996Y163583D01*
X36397Y165984D01*
X39533Y167283D01*
X42927Y167283D01*
X46063Y165984D01*
X48464Y163583D01*
X49429Y161253D01*
X49491Y161153D01*
X49551Y161053D01*
X49555Y161049D01*
X49559Y161044D01*
X49648Y160969D01*
X49738Y160893D01*
X49743Y160891D01*
X49748Y160887D01*
X49856Y160845D01*
X49966Y160801D01*
X49973Y160800D01*
X49978Y160799D01*
X49996Y160798D01*
X50132Y160783D01*
X64342Y160783D01*
X70189Y154936D01*
X70268Y154879D01*
X70343Y154817D01*
X70367Y154808D01*
X70389Y154792D01*
X70482Y154764D01*
X70573Y154729D01*
X70599Y154728D01*
X70624Y154720D01*
X70721Y154722D01*
X70818Y154718D01*
X70843Y154726D01*
X70870Y154726D01*
X70961Y154760D01*
X71055Y154787D01*
X71076Y154802D01*
X71101Y154811D01*
X71177Y154872D01*
X71257Y154927D01*
X71272Y154948D01*
X71293Y154964D01*
X71345Y155046D01*
X71403Y155124D01*
X71412Y155149D01*
X71426Y155171D01*
X71449Y155266D01*
X71480Y155358D01*
X71479Y155385D01*
X71486Y155410D01*
X71478Y155507D01*
X71477Y155604D01*
X71468Y155636D01*
X71467Y155655D01*
X71454Y155685D01*
X71431Y155765D01*
X70897Y157053D01*
X70897Y160447D01*
X72196Y163583D01*
X74597Y165984D01*
X77733Y167283D01*
X81127Y167283D01*
X84263Y165984D01*
X86664Y163583D01*
X87629Y161253D01*
X87691Y161153D01*
X87751Y161053D01*
X87755Y161049D01*
X87759Y161044D01*
X87848Y160969D01*
X87938Y160893D01*
X87943Y160891D01*
X87948Y160887D01*
X88056Y160845D01*
X88166Y160801D01*
X88173Y160800D01*
X88178Y160799D01*
X88196Y160798D01*
X88332Y160783D01*
X203313Y160783D01*
X203403Y160797D01*
X203494Y160805D01*
X203523Y160817D01*
X203555Y160822D01*
X203636Y160865D01*
X203720Y160901D01*
X203752Y160927D01*
X203773Y160938D01*
X203795Y160961D01*
X203851Y161006D01*
X262073Y219228D01*
X262115Y219286D01*
X262164Y219338D01*
X262186Y219385D01*
X262217Y219427D01*
X262238Y219496D01*
X262268Y219561D01*
X262274Y219613D01*
X262289Y219663D01*
X262287Y219734D01*
X262295Y219805D01*
X262284Y219856D01*
X262283Y219908D01*
X262258Y219976D01*
X262243Y220046D01*
X262216Y220090D01*
X262198Y220139D01*
X262153Y220195D01*
X262117Y220257D01*
X262077Y220291D01*
X262044Y220331D01*
X261984Y220370D01*
X261930Y220417D01*
X261881Y220436D01*
X261837Y220464D01*
X261768Y220482D01*
X261701Y220509D01*
X261630Y220517D01*
X261599Y220525D01*
X261576Y220523D01*
X261535Y220527D01*
X259495Y220527D01*
X256849Y223173D01*
X256849Y225764D01*
X256838Y225835D01*
X256836Y225906D01*
X256818Y225955D01*
X256810Y226007D01*
X256776Y226070D01*
X256751Y226137D01*
X256719Y226178D01*
X256694Y226224D01*
X256642Y226273D01*
X256598Y226329D01*
X256554Y226357D01*
X256516Y226393D01*
X256451Y226424D01*
X256391Y226462D01*
X256340Y226475D01*
X256293Y226497D01*
X256222Y226505D01*
X256152Y226522D01*
X256100Y226518D01*
X256049Y226524D01*
X255978Y226509D01*
X255907Y226503D01*
X255859Y226483D01*
X255808Y226472D01*
X255747Y226435D01*
X255681Y226407D01*
X255625Y226362D01*
X255597Y226346D01*
X255582Y226328D01*
X255550Y226302D01*
X253331Y224083D01*
X249589Y224083D01*
X246943Y226729D01*
X246943Y229927D01*
X246929Y230017D01*
X246921Y230108D01*
X246909Y230137D01*
X246904Y230169D01*
X246861Y230250D01*
X246825Y230334D01*
X246799Y230366D01*
X246788Y230387D01*
X246765Y230409D01*
X246720Y230465D01*
X236727Y240458D01*
X236727Y344283D01*
X236713Y344373D01*
X236705Y344464D01*
X236693Y344493D01*
X236688Y344525D01*
X236645Y344606D01*
X236609Y344690D01*
X236583Y344722D01*
X236572Y344743D01*
X236549Y344765D01*
X236504Y344821D01*
X193832Y387493D01*
X193774Y387535D01*
X193722Y387584D01*
X193675Y387606D01*
X193633Y387637D01*
X193564Y387658D01*
X193499Y387688D01*
X193447Y387694D01*
X193397Y387709D01*
X193326Y387707D01*
X193255Y387715D01*
X193204Y387704D01*
X193152Y387703D01*
X193084Y387678D01*
X193014Y387663D01*
X192969Y387636D01*
X192921Y387618D01*
X192865Y387573D01*
X192803Y387537D01*
X192769Y387497D01*
X192729Y387464D01*
X192690Y387404D01*
X192643Y387350D01*
X192624Y387301D01*
X192596Y387257D01*
X192578Y387188D01*
X192551Y387121D01*
X192543Y387050D01*
X192535Y387019D01*
X192537Y386996D01*
X192533Y386955D01*
X192533Y173580D01*
X192547Y173490D01*
X192555Y173399D01*
X192567Y173369D01*
X192572Y173337D01*
X192615Y173257D01*
X192651Y173173D01*
X192677Y173141D01*
X192688Y173120D01*
X192711Y173098D01*
X192756Y173042D01*
X195017Y170781D01*
X195017Y167039D01*
X192371Y164393D01*
X188629Y164393D01*
X185983Y167039D01*
X185983Y170781D01*
X188244Y173042D01*
X188297Y173116D01*
X188357Y173185D01*
X188369Y173216D01*
X188388Y173242D01*
X188415Y173329D01*
X188449Y173414D01*
X188453Y173454D01*
X188460Y173477D01*
X188459Y173509D01*
X188467Y173580D01*
X188467Y382426D01*
X188456Y382497D01*
X188454Y382568D01*
X188436Y382617D01*
X188428Y382669D01*
X188394Y382732D01*
X188369Y382799D01*
X188337Y382840D01*
X188312Y382886D01*
X188260Y382935D01*
X188216Y382991D01*
X188172Y383019D01*
X188134Y383055D01*
X188069Y383086D01*
X188009Y383124D01*
X187958Y383137D01*
X187911Y383159D01*
X187840Y383167D01*
X187770Y383184D01*
X187718Y383180D01*
X187667Y383186D01*
X187596Y383171D01*
X187525Y383165D01*
X187477Y383145D01*
X187426Y383134D01*
X187365Y383097D01*
X187299Y383069D01*
X187243Y383024D01*
X187215Y383008D01*
X187200Y382990D01*
X187168Y382964D01*
X186021Y381817D01*
X182823Y381817D01*
X182733Y381803D01*
X182642Y381795D01*
X182613Y381783D01*
X182581Y381778D01*
X182500Y381735D01*
X182416Y381699D01*
X182384Y381673D01*
X182363Y381662D01*
X182341Y381639D01*
X182285Y381594D01*
X116556Y315865D01*
X116503Y315791D01*
X116443Y315722D01*
X116431Y315691D01*
X116412Y315665D01*
X116385Y315578D01*
X116351Y315493D01*
X116347Y315452D01*
X116340Y315430D01*
X116341Y315398D01*
X116333Y315327D01*
X116333Y227758D01*
X105458Y216883D01*
X86002Y216883D01*
X85931Y216872D01*
X85859Y216870D01*
X85810Y216852D01*
X85759Y216844D01*
X85696Y216810D01*
X85628Y216785D01*
X85588Y216753D01*
X85542Y216728D01*
X85492Y216676D01*
X85436Y216632D01*
X85408Y216588D01*
X85372Y216550D01*
X85342Y216485D01*
X85303Y216425D01*
X85290Y216374D01*
X85269Y216327D01*
X85261Y216256D01*
X85243Y216186D01*
X85247Y216134D01*
X85241Y216083D01*
X85257Y216012D01*
X85262Y215941D01*
X85283Y215893D01*
X85294Y215842D01*
X85330Y215781D01*
X85359Y215715D01*
X85403Y215659D01*
X85420Y215631D01*
X85438Y215616D01*
X85463Y215584D01*
X86664Y214383D01*
X87963Y211247D01*
X87963Y207853D01*
X86664Y204717D01*
X84263Y202316D01*
X81127Y201017D01*
X77733Y201017D01*
X74597Y202316D01*
X72196Y204717D01*
X70897Y207853D01*
X70897Y211247D01*
X71431Y212535D01*
X71453Y212630D01*
X71481Y212722D01*
X71481Y212749D01*
X71487Y212774D01*
X71478Y212871D01*
X71475Y212968D01*
X71466Y212993D01*
X71464Y213019D01*
X71424Y213108D01*
X71391Y213199D01*
X71374Y213220D01*
X71364Y213244D01*
X71298Y213315D01*
X71237Y213391D01*
X71215Y213405D01*
X71197Y213425D01*
X71112Y213472D01*
X71030Y213524D01*
X71005Y213531D01*
X70982Y213543D01*
X70886Y213561D01*
X70791Y213584D01*
X70765Y213582D01*
X70740Y213587D01*
X70643Y213573D01*
X70546Y213565D01*
X70522Y213555D01*
X70496Y213551D01*
X70409Y213507D01*
X70320Y213469D01*
X70294Y213449D01*
X70277Y213440D01*
X70254Y213416D01*
X70189Y213364D01*
X64342Y207517D01*
X50132Y207517D01*
X50018Y207498D01*
X49901Y207481D01*
X49896Y207479D01*
X49890Y207478D01*
X49787Y207423D01*
X49682Y207370D01*
X49678Y207365D01*
X49672Y207362D01*
X49592Y207278D01*
X49510Y207194D01*
X49506Y207188D01*
X49503Y207184D01*
X49495Y207167D01*
X49429Y207047D01*
X48464Y204717D01*
X46063Y202316D01*
X42927Y201017D01*
X39533Y201017D01*
X36397Y202316D01*
X33996Y204717D01*
X32697Y207853D01*
X32697Y211247D01*
X33996Y214383D01*
X36397Y216784D01*
X39533Y218083D01*
X42927Y218083D01*
X46063Y216784D01*
X48464Y214383D01*
X49429Y212053D01*
X49491Y211953D01*
X49551Y211853D01*
X49555Y211849D01*
X49559Y211844D01*
X49648Y211769D01*
X49738Y211693D01*
X49743Y211691D01*
X49748Y211687D01*
X49856Y211645D01*
X49966Y211601D01*
X49973Y211600D01*
X49978Y211599D01*
X49996Y211598D01*
X50132Y211583D01*
X62343Y211583D01*
X62433Y211597D01*
X62524Y211605D01*
X62554Y211617D01*
X62585Y211622D01*
X62666Y211665D01*
X62750Y211701D01*
X62782Y211727D01*
X62803Y211738D01*
X62825Y211761D01*
X62881Y211806D01*
X64042Y212966D01*
X64099Y213046D01*
X64161Y213121D01*
X64170Y213145D01*
X64185Y213166D01*
X64214Y213259D01*
X64249Y213350D01*
X64250Y213376D01*
X64258Y213401D01*
X64255Y213499D01*
X64259Y213596D01*
X64252Y213621D01*
X64251Y213647D01*
X64218Y213739D01*
X64191Y213832D01*
X64176Y213854D01*
X64167Y213878D01*
X64106Y213954D01*
X64050Y214034D01*
X64029Y214050D01*
X64013Y214070D01*
X63931Y214123D01*
X63853Y214181D01*
X63828Y214189D01*
X63806Y214203D01*
X63712Y214227D01*
X63619Y214257D01*
X63593Y214257D01*
X63568Y214263D01*
X63471Y214256D01*
X63373Y214255D01*
X63342Y214246D01*
X63322Y214244D01*
X63292Y214231D01*
X63212Y214208D01*
X62027Y213717D01*
X58633Y213717D01*
X55497Y215016D01*
X53096Y217417D01*
X51797Y220553D01*
X51797Y223947D01*
X53096Y227083D01*
X55497Y229484D01*
X58633Y230783D01*
X62027Y230783D01*
X65163Y229484D01*
X67564Y227083D01*
X68863Y223947D01*
X68863Y220553D01*
X68372Y219368D01*
X68350Y219273D01*
X68321Y219180D01*
X68322Y219154D01*
X68316Y219128D01*
X68325Y219032D01*
X68327Y218934D01*
X68336Y218910D01*
X68339Y218883D01*
X68378Y218794D01*
X68412Y218703D01*
X68428Y218683D01*
X68439Y218659D01*
X68505Y218587D01*
X68566Y218511D01*
X68588Y218497D01*
X68605Y218478D01*
X68691Y218431D01*
X68772Y218378D01*
X68798Y218372D01*
X68821Y218359D01*
X68917Y218342D01*
X69011Y218318D01*
X69037Y218320D01*
X69063Y218315D01*
X69159Y218330D01*
X69256Y218337D01*
X69280Y218347D01*
X69306Y218351D01*
X69393Y218395D01*
X69483Y218433D01*
X69508Y218454D01*
X69525Y218463D01*
X69549Y218486D01*
X69614Y218538D01*
X72024Y220949D01*
X103459Y220949D01*
X103549Y220963D01*
X103640Y220971D01*
X103669Y220983D01*
X103701Y220988D01*
X103782Y221031D01*
X103866Y221067D01*
X103898Y221093D01*
X103919Y221104D01*
X103941Y221127D01*
X103997Y221172D01*
X112044Y229219D01*
X112097Y229293D01*
X112157Y229362D01*
X112169Y229393D01*
X112188Y229419D01*
X112215Y229506D01*
X112249Y229591D01*
X112253Y229632D01*
X112260Y229654D01*
X112259Y229686D01*
X112267Y229757D01*
X112267Y317326D01*
X179410Y384469D01*
X179463Y384543D01*
X179523Y384612D01*
X179535Y384643D01*
X179554Y384669D01*
X179581Y384756D01*
X179615Y384841D01*
X179619Y384882D01*
X179626Y384904D01*
X179625Y384936D01*
X179633Y385007D01*
X179633Y388205D01*
X182279Y390851D01*
X184247Y390851D01*
X184317Y390862D01*
X184389Y390864D01*
X184438Y390882D01*
X184489Y390890D01*
X184553Y390924D01*
X184620Y390949D01*
X184661Y390981D01*
X184707Y391006D01*
X184756Y391057D01*
X184812Y391102D01*
X184840Y391146D01*
X184876Y391184D01*
X184906Y391249D01*
X184945Y391309D01*
X184958Y391360D01*
X184980Y391407D01*
X184988Y391478D01*
X185005Y391548D01*
X185001Y391600D01*
X185007Y391651D01*
X184992Y391722D01*
X184986Y391793D01*
X184966Y391841D01*
X184955Y391892D01*
X184918Y391953D01*
X184890Y392019D01*
X184845Y392075D01*
X184829Y392103D01*
X184811Y392118D01*
X184785Y392150D01*
X103070Y473865D01*
X103012Y473907D01*
X102960Y473956D01*
X102913Y473978D01*
X102871Y474009D01*
X102802Y474030D01*
X102737Y474060D01*
X102685Y474066D01*
X102635Y474081D01*
X102564Y474079D01*
X102493Y474087D01*
X102442Y474076D01*
X102390Y474075D01*
X102322Y474050D01*
X102252Y474035D01*
X102208Y474008D01*
X102159Y473990D01*
X102103Y473945D01*
X102041Y473909D01*
X102007Y473869D01*
X101967Y473836D01*
X101928Y473776D01*
X101881Y473722D01*
X101862Y473673D01*
X101834Y473629D01*
X101816Y473560D01*
X101789Y473493D01*
X101781Y473422D01*
X101773Y473391D01*
X101775Y473368D01*
X101771Y473327D01*
X101771Y470265D01*
X98776Y467270D01*
X98723Y467196D01*
X98663Y467127D01*
X98651Y467096D01*
X98632Y467070D01*
X98605Y466983D01*
X98571Y466898D01*
X98567Y466858D01*
X98560Y466835D01*
X98561Y466803D01*
X98553Y466732D01*
X98553Y325602D01*
X96395Y323444D01*
X87688Y314738D01*
X87620Y314642D01*
X87550Y314549D01*
X87548Y314543D01*
X87545Y314538D01*
X87510Y314426D01*
X87474Y314315D01*
X87474Y314309D01*
X87472Y314303D01*
X87475Y314186D01*
X87477Y314069D01*
X87479Y314062D01*
X87479Y314057D01*
X87485Y314040D01*
X87523Y313908D01*
X87963Y312847D01*
X87963Y309453D01*
X86664Y306317D01*
X84263Y303916D01*
X81127Y302617D01*
X77733Y302617D01*
X74597Y303916D01*
X72196Y306317D01*
X71757Y307377D01*
X71695Y307477D01*
X71635Y307577D01*
X71631Y307581D01*
X71627Y307586D01*
X71537Y307661D01*
X71449Y307737D01*
X71443Y307739D01*
X71438Y307743D01*
X71329Y307785D01*
X71220Y307829D01*
X71213Y307830D01*
X71208Y307831D01*
X71190Y307832D01*
X71054Y307847D01*
X65106Y307847D01*
X65083Y307844D01*
X65060Y307846D01*
X64962Y307824D01*
X64863Y307808D01*
X64843Y307797D01*
X64820Y307792D01*
X64734Y307739D01*
X64646Y307692D01*
X64630Y307676D01*
X64610Y307664D01*
X64546Y307587D01*
X64476Y307514D01*
X64467Y307493D01*
X64452Y307476D01*
X64415Y307382D01*
X64373Y307291D01*
X64370Y307268D01*
X64362Y307247D01*
X64357Y307146D01*
X64346Y307047D01*
X64351Y307024D01*
X64349Y307001D01*
X64377Y306904D01*
X64398Y306806D01*
X64410Y306786D01*
X64416Y306764D01*
X64473Y306681D01*
X64524Y306595D01*
X64542Y306580D01*
X64555Y306561D01*
X64683Y306453D01*
X66114Y305497D01*
X67377Y304234D01*
X68370Y302748D01*
X69054Y301096D01*
X69278Y299973D01*
X61092Y299973D01*
X61072Y299970D01*
X61053Y299972D01*
X60951Y299950D01*
X60849Y299933D01*
X60832Y299924D01*
X60812Y299920D01*
X60723Y299867D01*
X60632Y299818D01*
X60618Y299804D01*
X60601Y299794D01*
X60534Y299715D01*
X60463Y299640D01*
X60454Y299622D01*
X60441Y299607D01*
X60403Y299511D01*
X60359Y299417D01*
X60357Y299397D01*
X60349Y299379D01*
X60331Y299212D01*
X60331Y298449D01*
X60329Y298449D01*
X60329Y299212D01*
X60326Y299232D01*
X60328Y299251D01*
X60306Y299353D01*
X60289Y299455D01*
X60280Y299472D01*
X60276Y299492D01*
X60223Y299581D01*
X60174Y299672D01*
X60160Y299686D01*
X60150Y299703D01*
X60071Y299770D01*
X59996Y299841D01*
X59978Y299850D01*
X59963Y299863D01*
X59867Y299902D01*
X59773Y299945D01*
X59753Y299947D01*
X59735Y299955D01*
X59568Y299973D01*
X51382Y299973D01*
X51606Y301096D01*
X52290Y302748D01*
X53283Y304234D01*
X54546Y305497D01*
X55977Y306453D01*
X55994Y306469D01*
X56014Y306480D01*
X56083Y306552D01*
X56157Y306621D01*
X56168Y306641D01*
X56184Y306658D01*
X56226Y306749D01*
X56274Y306837D01*
X56277Y306860D01*
X56287Y306881D01*
X56298Y306981D01*
X56315Y307080D01*
X56312Y307103D01*
X56314Y307125D01*
X56293Y307224D01*
X56278Y307323D01*
X56267Y307343D01*
X56262Y307366D01*
X56210Y307452D01*
X56164Y307541D01*
X56148Y307557D01*
X56136Y307577D01*
X56059Y307642D01*
X55987Y307712D01*
X55966Y307722D01*
X55949Y307737D01*
X55856Y307774D01*
X55765Y307817D01*
X55742Y307820D01*
X55721Y307829D01*
X55554Y307847D01*
X49606Y307847D01*
X49492Y307828D01*
X49375Y307811D01*
X49370Y307809D01*
X49364Y307808D01*
X49261Y307753D01*
X49156Y307700D01*
X49152Y307695D01*
X49146Y307692D01*
X49066Y307608D01*
X48984Y307524D01*
X48980Y307518D01*
X48977Y307514D01*
X48969Y307497D01*
X48903Y307377D01*
X48464Y306317D01*
X46063Y303916D01*
X42927Y302617D01*
X39533Y302617D01*
X36397Y303916D01*
X33996Y306317D01*
X32697Y309453D01*
X32697Y312847D01*
X33996Y315983D01*
X36397Y318384D01*
X39311Y319591D01*
X39393Y319642D01*
X39479Y319688D01*
X39497Y319707D01*
X39520Y319720D01*
X39582Y319795D01*
X39649Y319866D01*
X39660Y319890D01*
X39676Y319910D01*
X39711Y320001D01*
X39752Y320089D01*
X39755Y320115D01*
X39765Y320139D01*
X39769Y320237D01*
X39780Y320333D01*
X39774Y320359D01*
X39775Y320385D01*
X39748Y320479D01*
X39727Y320574D01*
X39714Y320596D01*
X39707Y320621D01*
X39651Y320701D01*
X39601Y320785D01*
X39581Y320802D01*
X39566Y320823D01*
X39488Y320882D01*
X39414Y320945D01*
X39390Y320955D01*
X39369Y320970D01*
X39276Y321000D01*
X39186Y321037D01*
X39154Y321040D01*
X39135Y321046D01*
X39102Y321046D01*
X39019Y321055D01*
X30717Y321055D01*
X30602Y321036D01*
X30486Y321019D01*
X30480Y321017D01*
X30474Y321016D01*
X30371Y320961D01*
X30267Y320908D01*
X30262Y320903D01*
X30257Y320900D01*
X30177Y320816D01*
X30094Y320732D01*
X30091Y320726D01*
X30087Y320722D01*
X30079Y320705D01*
X30013Y320585D01*
X29364Y319017D01*
X26963Y316616D01*
X23827Y315317D01*
X20433Y315317D01*
X17297Y316616D01*
X14896Y319017D01*
X13597Y322153D01*
X13597Y325547D01*
X14896Y328683D01*
X17297Y331084D01*
X20433Y332383D01*
X23827Y332383D01*
X26963Y331084D01*
X29364Y328683D01*
X30013Y327115D01*
X30075Y327015D01*
X30135Y326915D01*
X30140Y326911D01*
X30143Y326906D01*
X30233Y326831D01*
X30322Y326755D01*
X30328Y326753D01*
X30333Y326749D01*
X30441Y326707D01*
X30550Y326663D01*
X30558Y326662D01*
X30562Y326661D01*
X30580Y326660D01*
X30717Y326645D01*
X37608Y326645D01*
X37704Y326660D01*
X37801Y326670D01*
X37825Y326680D01*
X37851Y326684D01*
X37937Y326730D01*
X38026Y326770D01*
X38045Y326787D01*
X38068Y326800D01*
X38135Y326870D01*
X38207Y326936D01*
X38220Y326959D01*
X38238Y326978D01*
X38279Y327066D01*
X38326Y327152D01*
X38330Y327177D01*
X38341Y327201D01*
X38352Y327298D01*
X38369Y327394D01*
X38366Y327420D01*
X38368Y327445D01*
X38348Y327541D01*
X38334Y327637D01*
X38322Y327660D01*
X38316Y327686D01*
X38266Y327769D01*
X38222Y327856D01*
X38203Y327875D01*
X38190Y327897D01*
X38116Y327960D01*
X38046Y328028D01*
X38018Y328044D01*
X38003Y328057D01*
X37972Y328069D01*
X37900Y328109D01*
X36932Y328510D01*
X35446Y329503D01*
X34183Y330766D01*
X33190Y332252D01*
X32506Y333904D01*
X32283Y335027D01*
X40468Y335027D01*
X40488Y335030D01*
X40507Y335028D01*
X40609Y335050D01*
X40711Y335067D01*
X40728Y335076D01*
X40748Y335080D01*
X40837Y335133D01*
X40928Y335182D01*
X40942Y335196D01*
X40959Y335206D01*
X41026Y335285D01*
X41097Y335360D01*
X41106Y335378D01*
X41119Y335393D01*
X41157Y335489D01*
X41201Y335583D01*
X41203Y335603D01*
X41211Y335621D01*
X41229Y335788D01*
X41229Y336551D01*
X41231Y336551D01*
X41231Y335788D01*
X41234Y335768D01*
X41232Y335749D01*
X41254Y335647D01*
X41271Y335545D01*
X41280Y335528D01*
X41284Y335508D01*
X41337Y335419D01*
X41386Y335328D01*
X41400Y335314D01*
X41410Y335297D01*
X41489Y335230D01*
X41564Y335159D01*
X41582Y335150D01*
X41597Y335137D01*
X41693Y335098D01*
X41787Y335055D01*
X41807Y335053D01*
X41825Y335045D01*
X41992Y335027D01*
X50177Y335027D01*
X49954Y333904D01*
X49270Y332252D01*
X48277Y330766D01*
X47014Y329503D01*
X45528Y328510D01*
X44560Y328109D01*
X44477Y328058D01*
X44392Y328012D01*
X44374Y327994D01*
X44351Y327980D01*
X44289Y327904D01*
X44222Y327834D01*
X44211Y327810D01*
X44195Y327790D01*
X44160Y327699D01*
X44119Y327611D01*
X44116Y327585D01*
X44106Y327561D01*
X44102Y327463D01*
X44092Y327367D01*
X44097Y327341D01*
X44096Y327315D01*
X44123Y327221D01*
X44144Y327126D01*
X44157Y327104D01*
X44165Y327079D01*
X44220Y326999D01*
X44270Y326915D01*
X44290Y326898D01*
X44305Y326877D01*
X44383Y326818D01*
X44457Y326755D01*
X44481Y326745D01*
X44502Y326730D01*
X44595Y326700D01*
X44685Y326663D01*
X44718Y326660D01*
X44736Y326654D01*
X44769Y326654D01*
X44852Y326645D01*
X51743Y326645D01*
X51858Y326664D01*
X51974Y326681D01*
X51980Y326683D01*
X51986Y326684D01*
X52089Y326739D01*
X52193Y326792D01*
X52198Y326797D01*
X52203Y326800D01*
X52283Y326884D01*
X52366Y326968D01*
X52369Y326974D01*
X52373Y326978D01*
X52381Y326995D01*
X52447Y327115D01*
X53096Y328683D01*
X55497Y331084D01*
X58633Y332383D01*
X62027Y332383D01*
X65163Y331084D01*
X67564Y328683D01*
X68863Y325547D01*
X68863Y322153D01*
X67564Y319017D01*
X65163Y316616D01*
X63476Y315917D01*
X63393Y315866D01*
X63307Y315820D01*
X63289Y315802D01*
X63267Y315788D01*
X63204Y315712D01*
X63138Y315642D01*
X63127Y315618D01*
X63110Y315598D01*
X63075Y315507D01*
X63034Y315419D01*
X63031Y315393D01*
X63022Y315369D01*
X63018Y315271D01*
X63007Y315175D01*
X63012Y315149D01*
X63011Y315123D01*
X63038Y315029D01*
X63059Y314934D01*
X63073Y314912D01*
X63080Y314887D01*
X63135Y314807D01*
X63185Y314723D01*
X63205Y314706D01*
X63220Y314685D01*
X63298Y314626D01*
X63372Y314563D01*
X63397Y314553D01*
X63417Y314538D01*
X63510Y314508D01*
X63600Y314471D01*
X63633Y314468D01*
X63651Y314462D01*
X63684Y314462D01*
X63767Y314453D01*
X71054Y314453D01*
X71168Y314472D01*
X71285Y314489D01*
X71290Y314491D01*
X71296Y314492D01*
X71399Y314547D01*
X71504Y314600D01*
X71508Y314605D01*
X71514Y314608D01*
X71594Y314692D01*
X71676Y314776D01*
X71680Y314782D01*
X71683Y314786D01*
X71691Y314803D01*
X71757Y314923D01*
X72196Y315983D01*
X74597Y318384D01*
X77733Y319683D01*
X81127Y319683D01*
X82188Y319243D01*
X82302Y319217D01*
X82415Y319188D01*
X82421Y319189D01*
X82427Y319187D01*
X82544Y319198D01*
X82660Y319207D01*
X82666Y319210D01*
X82672Y319210D01*
X82780Y319258D01*
X82887Y319304D01*
X82892Y319308D01*
X82897Y319310D01*
X82911Y319323D01*
X83018Y319408D01*
X91724Y328115D01*
X91777Y328189D01*
X91837Y328258D01*
X91849Y328289D01*
X91868Y328315D01*
X91895Y328402D01*
X91929Y328487D01*
X91933Y328528D01*
X91940Y328550D01*
X91939Y328582D01*
X91947Y328653D01*
X91947Y469272D01*
X91933Y469362D01*
X91925Y469453D01*
X91913Y469483D01*
X91908Y469514D01*
X91865Y469595D01*
X91829Y469679D01*
X91803Y469711D01*
X91792Y469732D01*
X91769Y469754D01*
X91724Y469810D01*
X91269Y470265D01*
X91269Y474615D01*
X94345Y477691D01*
X97407Y477691D01*
X97477Y477702D01*
X97549Y477704D01*
X97598Y477722D01*
X97649Y477730D01*
X97713Y477764D01*
X97780Y477789D01*
X97821Y477821D01*
X97867Y477846D01*
X97916Y477897D01*
X97972Y477942D01*
X98000Y477986D01*
X98036Y478024D01*
X98066Y478089D01*
X98105Y478149D01*
X98118Y478200D01*
X98140Y478247D01*
X98148Y478318D01*
X98165Y478388D01*
X98161Y478440D01*
X98167Y478491D01*
X98152Y478562D01*
X98146Y478633D01*
X98126Y478681D01*
X98115Y478732D01*
X98078Y478793D01*
X98050Y478859D01*
X98005Y478915D01*
X97989Y478943D01*
X97971Y478958D01*
X97945Y478990D01*
X90241Y486694D01*
X90167Y486747D01*
X90098Y486807D01*
X90067Y486819D01*
X90041Y486838D01*
X89954Y486865D01*
X89869Y486899D01*
X89828Y486903D01*
X89806Y486910D01*
X89774Y486909D01*
X89703Y486917D01*
X88332Y486917D01*
X88218Y486898D01*
X88101Y486881D01*
X88096Y486879D01*
X88090Y486878D01*
X87987Y486823D01*
X87882Y486770D01*
X87878Y486765D01*
X87872Y486762D01*
X87792Y486678D01*
X87710Y486594D01*
X87706Y486588D01*
X87703Y486584D01*
X87695Y486567D01*
X87629Y486447D01*
X86664Y484117D01*
X84263Y481716D01*
X81127Y480417D01*
X77733Y480417D01*
X74597Y481716D01*
X73182Y483131D01*
X73124Y483172D01*
X73072Y483222D01*
X73025Y483244D01*
X72983Y483274D01*
X72914Y483295D01*
X72849Y483325D01*
X72797Y483331D01*
X72747Y483347D01*
X72676Y483345D01*
X72605Y483353D01*
X72554Y483342D01*
X72502Y483340D01*
X72434Y483316D01*
X72364Y483300D01*
X72319Y483274D01*
X72271Y483256D01*
X72215Y483211D01*
X72153Y483174D01*
X72119Y483135D01*
X72079Y483102D01*
X72040Y483042D01*
X71993Y482987D01*
X71974Y482939D01*
X71946Y482895D01*
X71928Y482826D01*
X71901Y482759D01*
X71893Y482688D01*
X71885Y482657D01*
X71887Y482633D01*
X71883Y482592D01*
X71883Y469908D01*
X71894Y469837D01*
X71896Y469765D01*
X71914Y469716D01*
X71922Y469665D01*
X71956Y469602D01*
X71981Y469534D01*
X72013Y469494D01*
X72038Y469448D01*
X72090Y469398D01*
X72134Y469342D01*
X72178Y469314D01*
X72216Y469278D01*
X72281Y469248D01*
X72341Y469209D01*
X72392Y469196D01*
X72439Y469175D01*
X72510Y469167D01*
X72580Y469149D01*
X72632Y469153D01*
X72683Y469147D01*
X72754Y469163D01*
X72825Y469168D01*
X72873Y469189D01*
X72924Y469200D01*
X72985Y469236D01*
X73051Y469265D01*
X73107Y469309D01*
X73135Y469326D01*
X73150Y469344D01*
X73182Y469369D01*
X74597Y470784D01*
X77733Y472083D01*
X81127Y472083D01*
X84263Y470784D01*
X86664Y468383D01*
X87963Y465247D01*
X87963Y461853D01*
X86664Y458717D01*
X84263Y456316D01*
X81127Y455017D01*
X77733Y455017D01*
X74597Y456316D01*
X73182Y457731D01*
X73124Y457772D01*
X73072Y457822D01*
X73025Y457844D01*
X72983Y457874D01*
X72914Y457895D01*
X72849Y457925D01*
X72797Y457931D01*
X72747Y457947D01*
X72676Y457945D01*
X72605Y457953D01*
X72554Y457942D01*
X72502Y457940D01*
X72434Y457916D01*
X72364Y457900D01*
X72319Y457874D01*
X72271Y457856D01*
X72215Y457811D01*
X72153Y457774D01*
X72119Y457735D01*
X72079Y457702D01*
X72040Y457642D01*
X71993Y457587D01*
X71974Y457539D01*
X71946Y457495D01*
X71928Y457426D01*
X71901Y457359D01*
X71893Y457288D01*
X71885Y457257D01*
X71887Y457233D01*
X71883Y457192D01*
X71883Y444508D01*
X71894Y444437D01*
X71896Y444365D01*
X71914Y444316D01*
X71922Y444265D01*
X71956Y444202D01*
X71981Y444134D01*
X72013Y444094D01*
X72038Y444048D01*
X72090Y443998D01*
X72134Y443942D01*
X72178Y443914D01*
X72216Y443878D01*
X72281Y443848D01*
X72341Y443809D01*
X72392Y443796D01*
X72439Y443775D01*
X72510Y443767D01*
X72580Y443749D01*
X72632Y443753D01*
X72683Y443747D01*
X72754Y443763D01*
X72825Y443768D01*
X72873Y443789D01*
X72924Y443800D01*
X72985Y443836D01*
X73051Y443865D01*
X73107Y443909D01*
X73135Y443926D01*
X73150Y443944D01*
X73182Y443969D01*
X74597Y445384D01*
X77733Y446683D01*
X81127Y446683D01*
X84263Y445384D01*
X86664Y442983D01*
X87963Y439847D01*
X87963Y436453D01*
X86664Y433317D01*
X84263Y430916D01*
X81127Y429617D01*
X77733Y429617D01*
X74597Y430916D01*
X73182Y432331D01*
X73124Y432372D01*
X73072Y432422D01*
X73025Y432444D01*
X72983Y432474D01*
X72914Y432495D01*
X72849Y432525D01*
X72797Y432531D01*
X72747Y432547D01*
X72676Y432545D01*
X72605Y432553D01*
X72554Y432542D01*
X72502Y432540D01*
X72434Y432516D01*
X72364Y432500D01*
X72319Y432474D01*
X72271Y432456D01*
X72215Y432411D01*
X72153Y432374D01*
X72119Y432335D01*
X72079Y432302D01*
X72040Y432242D01*
X71993Y432187D01*
X71974Y432139D01*
X71946Y432095D01*
X71928Y432026D01*
X71901Y431959D01*
X71893Y431888D01*
X71885Y431857D01*
X71887Y431833D01*
X71883Y431792D01*
X71883Y419108D01*
X71894Y419037D01*
X71896Y418965D01*
X71914Y418916D01*
X71922Y418865D01*
X71956Y418802D01*
X71981Y418734D01*
X72013Y418694D01*
X72038Y418648D01*
X72090Y418598D01*
X72134Y418542D01*
X72178Y418514D01*
X72216Y418478D01*
X72281Y418448D01*
X72341Y418409D01*
X72392Y418396D01*
X72439Y418375D01*
X72510Y418367D01*
X72580Y418349D01*
X72632Y418353D01*
X72683Y418347D01*
X72754Y418363D01*
X72825Y418368D01*
X72873Y418389D01*
X72924Y418400D01*
X72985Y418436D01*
X73051Y418465D01*
X73107Y418509D01*
X73135Y418526D01*
X73150Y418544D01*
X73182Y418569D01*
X74597Y419984D01*
X77733Y421283D01*
X81127Y421283D01*
X84263Y419984D01*
X86664Y417583D01*
X87963Y414447D01*
X87963Y411053D01*
X86664Y407917D01*
X84263Y405516D01*
X81127Y404217D01*
X77733Y404217D01*
X74597Y405516D01*
X73182Y406931D01*
X73124Y406972D01*
X73072Y407022D01*
X73025Y407044D01*
X72983Y407074D01*
X72914Y407095D01*
X72849Y407125D01*
X72797Y407131D01*
X72747Y407147D01*
X72676Y407145D01*
X72605Y407153D01*
X72554Y407142D01*
X72502Y407140D01*
X72434Y407116D01*
X72364Y407100D01*
X72319Y407074D01*
X72271Y407056D01*
X72215Y407011D01*
X72153Y406974D01*
X72119Y406935D01*
X72079Y406902D01*
X72040Y406842D01*
X71993Y406787D01*
X71974Y406739D01*
X71946Y406695D01*
X71928Y406626D01*
X71901Y406559D01*
X71893Y406488D01*
X71885Y406457D01*
X71887Y406433D01*
X71883Y406392D01*
X71883Y393708D01*
X71894Y393637D01*
X71896Y393565D01*
X71914Y393516D01*
X71922Y393465D01*
X71956Y393402D01*
X71981Y393334D01*
X72013Y393294D01*
X72038Y393248D01*
X72090Y393198D01*
X72134Y393142D01*
X72178Y393114D01*
X72216Y393078D01*
X72281Y393048D01*
X72341Y393009D01*
X72392Y392996D01*
X72439Y392975D01*
X72510Y392967D01*
X72580Y392949D01*
X72632Y392953D01*
X72683Y392947D01*
X72754Y392963D01*
X72825Y392968D01*
X72873Y392989D01*
X72924Y393000D01*
X72985Y393036D01*
X73051Y393065D01*
X73107Y393109D01*
X73135Y393126D01*
X73150Y393144D01*
X73182Y393169D01*
X74597Y394584D01*
X77733Y395883D01*
X81127Y395883D01*
X84263Y394584D01*
X86664Y392183D01*
X87963Y389047D01*
X87963Y385653D01*
X86664Y382517D01*
X84263Y380116D01*
X81127Y378817D01*
X77733Y378817D01*
X74597Y380116D01*
X73182Y381531D01*
X73124Y381572D01*
X73072Y381622D01*
X73025Y381644D01*
X72983Y381674D01*
X72914Y381695D01*
X72849Y381725D01*
X72797Y381731D01*
X72747Y381747D01*
X72676Y381745D01*
X72605Y381753D01*
X72554Y381742D01*
X72502Y381740D01*
X72434Y381716D01*
X72364Y381700D01*
X72319Y381674D01*
X72271Y381656D01*
X72215Y381611D01*
X72153Y381574D01*
X72119Y381535D01*
X72079Y381502D01*
X72040Y381442D01*
X71993Y381387D01*
X71974Y381339D01*
X71946Y381295D01*
X71928Y381226D01*
X71901Y381159D01*
X71893Y381088D01*
X71885Y381057D01*
X71887Y381033D01*
X71883Y380992D01*
X71883Y372687D01*
X71897Y372597D01*
X71905Y372506D01*
X71917Y372477D01*
X71922Y372445D01*
X71965Y372364D01*
X72001Y372280D01*
X72027Y372248D01*
X72038Y372227D01*
X72061Y372205D01*
X72106Y372149D01*
X74572Y369682D01*
X74667Y369614D01*
X74761Y369544D01*
X74767Y369542D01*
X74772Y369539D01*
X74883Y369505D01*
X74995Y369468D01*
X75001Y369468D01*
X75007Y369466D01*
X75124Y369469D01*
X75241Y369471D01*
X75248Y369473D01*
X75253Y369473D01*
X75271Y369479D01*
X75402Y369517D01*
X77733Y370483D01*
X81127Y370483D01*
X84263Y369184D01*
X86664Y366783D01*
X87963Y363647D01*
X87963Y360253D01*
X86664Y357117D01*
X84263Y354716D01*
X81127Y353417D01*
X77733Y353417D01*
X74597Y354716D01*
X72196Y357117D01*
X70897Y360253D01*
X70897Y363647D01*
X71863Y365978D01*
X71889Y366092D01*
X71918Y366205D01*
X71917Y366211D01*
X71919Y366217D01*
X71908Y366334D01*
X71899Y366450D01*
X71896Y366456D01*
X71896Y366462D01*
X71848Y366570D01*
X71802Y366677D01*
X71798Y366683D01*
X71796Y366687D01*
X71783Y366701D01*
X71698Y366808D01*
X69231Y369274D01*
X68664Y369841D01*
X68648Y369852D01*
X68636Y369868D01*
X68548Y369924D01*
X68465Y369984D01*
X68446Y369990D01*
X68429Y370001D01*
X68328Y370026D01*
X68230Y370057D01*
X68210Y370056D01*
X68190Y370061D01*
X68087Y370053D01*
X67984Y370050D01*
X67965Y370043D01*
X67945Y370042D01*
X67850Y370002D01*
X67753Y369966D01*
X67737Y369953D01*
X67719Y369946D01*
X67588Y369841D01*
X65163Y367416D01*
X62027Y366117D01*
X58633Y366117D01*
X55497Y367416D01*
X53096Y369817D01*
X51797Y372953D01*
X51797Y376347D01*
X53096Y379483D01*
X55497Y381884D01*
X58633Y383183D01*
X62027Y383183D01*
X65163Y381884D01*
X66518Y380529D01*
X66576Y380488D01*
X66628Y380438D01*
X66675Y380416D01*
X66717Y380386D01*
X66786Y380365D01*
X66851Y380335D01*
X66903Y380329D01*
X66953Y380313D01*
X67024Y380315D01*
X67095Y380307D01*
X67146Y380318D01*
X67198Y380320D01*
X67266Y380344D01*
X67336Y380360D01*
X67381Y380386D01*
X67429Y380404D01*
X67485Y380449D01*
X67547Y380486D01*
X67581Y380525D01*
X67621Y380558D01*
X67660Y380618D01*
X67707Y380673D01*
X67726Y380721D01*
X67754Y380765D01*
X67772Y380834D01*
X67799Y380901D01*
X67807Y380972D01*
X67815Y381003D01*
X67813Y381027D01*
X67817Y381068D01*
X67817Y393632D01*
X67806Y393703D01*
X67804Y393775D01*
X67786Y393824D01*
X67778Y393875D01*
X67744Y393938D01*
X67719Y394006D01*
X67687Y394046D01*
X67662Y394092D01*
X67610Y394142D01*
X67566Y394198D01*
X67522Y394226D01*
X67484Y394262D01*
X67419Y394292D01*
X67359Y394331D01*
X67308Y394344D01*
X67261Y394365D01*
X67190Y394373D01*
X67120Y394391D01*
X67068Y394387D01*
X67017Y394393D01*
X66946Y394377D01*
X66875Y394372D01*
X66827Y394351D01*
X66776Y394340D01*
X66715Y394304D01*
X66649Y394275D01*
X66593Y394231D01*
X66565Y394214D01*
X66550Y394196D01*
X66518Y394171D01*
X65163Y392816D01*
X62027Y391517D01*
X58633Y391517D01*
X55497Y392816D01*
X53096Y395217D01*
X51797Y398353D01*
X51797Y401747D01*
X53096Y404883D01*
X55497Y407284D01*
X58633Y408583D01*
X62027Y408583D01*
X65163Y407284D01*
X66518Y405929D01*
X66576Y405888D01*
X66628Y405838D01*
X66675Y405816D01*
X66717Y405786D01*
X66786Y405765D01*
X66851Y405735D01*
X66903Y405729D01*
X66953Y405713D01*
X67024Y405715D01*
X67095Y405707D01*
X67146Y405718D01*
X67198Y405720D01*
X67266Y405744D01*
X67336Y405760D01*
X67381Y405786D01*
X67429Y405804D01*
X67485Y405849D01*
X67547Y405886D01*
X67581Y405925D01*
X67621Y405958D01*
X67660Y406018D01*
X67707Y406073D01*
X67726Y406121D01*
X67754Y406165D01*
X67772Y406234D01*
X67799Y406301D01*
X67807Y406372D01*
X67815Y406403D01*
X67813Y406427D01*
X67817Y406468D01*
X67817Y419032D01*
X67806Y419103D01*
X67804Y419175D01*
X67786Y419224D01*
X67778Y419275D01*
X67744Y419338D01*
X67719Y419406D01*
X67687Y419446D01*
X67662Y419492D01*
X67610Y419542D01*
X67566Y419598D01*
X67522Y419626D01*
X67484Y419662D01*
X67419Y419692D01*
X67359Y419731D01*
X67308Y419744D01*
X67261Y419765D01*
X67190Y419773D01*
X67120Y419791D01*
X67068Y419787D01*
X67017Y419793D01*
X66946Y419777D01*
X66875Y419772D01*
X66827Y419751D01*
X66776Y419740D01*
X66715Y419704D01*
X66649Y419675D01*
X66593Y419631D01*
X66565Y419614D01*
X66550Y419596D01*
X66518Y419571D01*
X65163Y418216D01*
X62027Y416917D01*
X58633Y416917D01*
X55497Y418216D01*
X53096Y420617D01*
X51797Y423753D01*
X51797Y427147D01*
X53096Y430283D01*
X55497Y432684D01*
X58633Y433983D01*
X62027Y433983D01*
X65163Y432684D01*
X66518Y431329D01*
X66576Y431288D01*
X66628Y431238D01*
X66675Y431216D01*
X66717Y431186D01*
X66786Y431165D01*
X66851Y431135D01*
X66903Y431129D01*
X66953Y431113D01*
X67024Y431115D01*
X67095Y431107D01*
X67146Y431118D01*
X67198Y431120D01*
X67266Y431144D01*
X67336Y431160D01*
X67381Y431186D01*
X67429Y431204D01*
X67485Y431249D01*
X67547Y431286D01*
X67581Y431325D01*
X67621Y431358D01*
X67660Y431418D01*
X67707Y431473D01*
X67726Y431521D01*
X67754Y431565D01*
X67772Y431634D01*
X67799Y431701D01*
X67807Y431772D01*
X67815Y431803D01*
X67813Y431827D01*
X67817Y431868D01*
X67817Y444432D01*
X67806Y444503D01*
X67804Y444575D01*
X67786Y444624D01*
X67778Y444675D01*
X67744Y444738D01*
X67719Y444806D01*
X67687Y444846D01*
X67662Y444892D01*
X67610Y444942D01*
X67566Y444998D01*
X67522Y445026D01*
X67484Y445062D01*
X67419Y445092D01*
X67359Y445131D01*
X67308Y445144D01*
X67261Y445165D01*
X67190Y445173D01*
X67120Y445191D01*
X67068Y445187D01*
X67017Y445193D01*
X66946Y445177D01*
X66875Y445172D01*
X66827Y445151D01*
X66776Y445140D01*
X66715Y445104D01*
X66649Y445075D01*
X66593Y445031D01*
X66565Y445014D01*
X66550Y444996D01*
X66518Y444971D01*
X65163Y443616D01*
X62027Y442317D01*
X58633Y442317D01*
X55497Y443616D01*
X53096Y446017D01*
X51797Y449153D01*
X51797Y452547D01*
X53096Y455683D01*
X55497Y458084D01*
X58633Y459383D01*
X62027Y459383D01*
X65163Y458084D01*
X66518Y456729D01*
X66576Y456688D01*
X66628Y456638D01*
X66675Y456616D01*
X66717Y456586D01*
X66786Y456565D01*
X66851Y456535D01*
X66903Y456529D01*
X66953Y456513D01*
X67024Y456515D01*
X67095Y456507D01*
X67146Y456518D01*
X67198Y456520D01*
X67266Y456544D01*
X67336Y456560D01*
X67381Y456586D01*
X67429Y456604D01*
X67485Y456649D01*
X67547Y456686D01*
X67581Y456725D01*
X67621Y456758D01*
X67660Y456818D01*
X67707Y456873D01*
X67726Y456921D01*
X67754Y456965D01*
X67772Y457034D01*
X67799Y457101D01*
X67807Y457172D01*
X67815Y457203D01*
X67813Y457227D01*
X67817Y457268D01*
X67817Y469832D01*
X67806Y469903D01*
X67804Y469975D01*
X67786Y470024D01*
X67778Y470075D01*
X67744Y470138D01*
X67719Y470206D01*
X67687Y470246D01*
X67662Y470292D01*
X67610Y470342D01*
X67566Y470398D01*
X67522Y470426D01*
X67484Y470462D01*
X67419Y470492D01*
X67359Y470531D01*
X67308Y470544D01*
X67261Y470565D01*
X67190Y470573D01*
X67120Y470591D01*
X67068Y470587D01*
X67017Y470593D01*
X66946Y470577D01*
X66875Y470572D01*
X66827Y470551D01*
X66776Y470540D01*
X66715Y470504D01*
X66649Y470475D01*
X66593Y470431D01*
X66565Y470414D01*
X66550Y470396D01*
X66518Y470371D01*
X65163Y469016D01*
X62027Y467717D01*
X58633Y467717D01*
X55497Y469016D01*
X53096Y471417D01*
X51797Y474553D01*
X51797Y477947D01*
X53096Y481083D01*
X55497Y483484D01*
X58633Y484783D01*
X62027Y484783D01*
X65163Y483484D01*
X66518Y482129D01*
X66576Y482088D01*
X66628Y482038D01*
X66675Y482016D01*
X66717Y481986D01*
X66786Y481965D01*
X66851Y481935D01*
X66903Y481929D01*
X66953Y481913D01*
X67024Y481915D01*
X67095Y481907D01*
X67146Y481918D01*
X67198Y481920D01*
X67266Y481944D01*
X67336Y481960D01*
X67381Y481986D01*
X67429Y482004D01*
X67485Y482049D01*
X67547Y482086D01*
X67581Y482125D01*
X67621Y482158D01*
X67660Y482218D01*
X67707Y482273D01*
X67726Y482321D01*
X67754Y482365D01*
X67772Y482434D01*
X67799Y482501D01*
X67807Y482572D01*
X67815Y482603D01*
X67813Y482627D01*
X67817Y482668D01*
X67817Y495232D01*
X67806Y495303D01*
X67804Y495375D01*
X67786Y495424D01*
X67778Y495475D01*
X67744Y495538D01*
X67719Y495606D01*
X67687Y495646D01*
X67662Y495692D01*
X67610Y495742D01*
X67566Y495798D01*
X67522Y495826D01*
X67484Y495862D01*
X67419Y495892D01*
X67359Y495931D01*
X67308Y495944D01*
X67261Y495965D01*
X67190Y495973D01*
X67120Y495991D01*
X67068Y495987D01*
X67017Y495993D01*
X66946Y495977D01*
X66875Y495972D01*
X66827Y495951D01*
X66776Y495940D01*
X66715Y495904D01*
X66649Y495875D01*
X66593Y495831D01*
X66565Y495814D01*
X66550Y495796D01*
X66518Y495771D01*
X65163Y494416D01*
X62027Y493117D01*
X58633Y493117D01*
X55497Y494416D01*
X53096Y496817D01*
X51797Y499953D01*
X51797Y503347D01*
X53096Y506483D01*
X55497Y508884D01*
X58633Y510183D01*
X62027Y510183D01*
X65163Y508884D01*
X66518Y507529D01*
X66576Y507488D01*
X66628Y507438D01*
X66675Y507416D01*
X66717Y507386D01*
X66786Y507365D01*
X66851Y507335D01*
X66903Y507329D01*
X66953Y507313D01*
X67024Y507315D01*
X67095Y507307D01*
X67146Y507318D01*
X67198Y507320D01*
X67266Y507344D01*
X67336Y507360D01*
X67381Y507386D01*
X67429Y507404D01*
X67485Y507449D01*
X67547Y507486D01*
X67581Y507525D01*
X67621Y507558D01*
X67660Y507618D01*
X67707Y507673D01*
X67726Y507721D01*
X67754Y507765D01*
X67772Y507834D01*
X67799Y507901D01*
X67807Y507972D01*
X67815Y508003D01*
X67813Y508027D01*
X67817Y508068D01*
X67817Y519869D01*
X67806Y519939D01*
X67804Y520011D01*
X67786Y520060D01*
X67778Y520111D01*
X67744Y520175D01*
X67719Y520242D01*
X67687Y520283D01*
X67662Y520329D01*
X67610Y520378D01*
X67566Y520434D01*
X67522Y520462D01*
X67484Y520498D01*
X67419Y520528D01*
X67359Y520567D01*
X67308Y520580D01*
X67261Y520602D01*
X67190Y520610D01*
X67120Y520627D01*
X67068Y520623D01*
X67017Y520629D01*
X66946Y520614D01*
X66875Y520608D01*
X66827Y520588D01*
X66776Y520577D01*
X66715Y520540D01*
X66649Y520512D01*
X66593Y520467D01*
X66565Y520450D01*
X66550Y520433D01*
X66518Y520407D01*
X66114Y520003D01*
X64628Y519010D01*
X62976Y518326D01*
X61853Y518102D01*
X61853Y526288D01*
X61850Y526308D01*
X61852Y526327D01*
X61830Y526429D01*
X61813Y526531D01*
X61804Y526548D01*
X61800Y526568D01*
X61747Y526657D01*
X61698Y526748D01*
X61684Y526762D01*
X61674Y526779D01*
X61595Y526846D01*
X61520Y526917D01*
X61502Y526926D01*
X61487Y526939D01*
X61391Y526977D01*
X61297Y527021D01*
X61277Y527023D01*
X61259Y527031D01*
X61092Y527049D01*
X60329Y527049D01*
X60329Y527051D01*
X61092Y527051D01*
X61112Y527054D01*
X61131Y527052D01*
X61233Y527074D01*
X61335Y527091D01*
X61352Y527100D01*
X61372Y527104D01*
X61461Y527157D01*
X61552Y527206D01*
X61566Y527220D01*
X61583Y527230D01*
X61650Y527309D01*
X61721Y527384D01*
X61730Y527402D01*
X61743Y527417D01*
X61782Y527513D01*
X61825Y527607D01*
X61827Y527627D01*
X61835Y527645D01*
X61853Y527812D01*
X61853Y535998D01*
X62976Y535774D01*
X64628Y535090D01*
X66114Y534097D01*
X67377Y532834D01*
X68370Y531348D01*
X68784Y530348D01*
X68809Y530309D01*
X68824Y530265D01*
X68873Y530205D01*
X68914Y530139D01*
X68949Y530109D01*
X68978Y530073D01*
X69043Y530031D01*
X69103Y529982D01*
X69146Y529965D01*
X69185Y529940D01*
X69260Y529921D01*
X69333Y529894D01*
X69379Y529892D01*
X69423Y529880D01*
X69501Y529886D01*
X69579Y529883D01*
X69623Y529896D01*
X69669Y529900D01*
X69740Y529930D01*
X69815Y529952D01*
X69853Y529978D01*
X69895Y529996D01*
X70002Y530081D01*
X70017Y530092D01*
X70020Y530096D01*
X70026Y530101D01*
X113458Y573533D01*
X392543Y573533D01*
X392633Y573547D01*
X392724Y573555D01*
X392753Y573567D01*
X392785Y573572D01*
X392866Y573615D01*
X392950Y573651D01*
X392982Y573677D01*
X393003Y573688D01*
X393025Y573711D01*
X393081Y573756D01*
X397981Y578655D01*
X397992Y578672D01*
X398008Y578684D01*
X398064Y578771D01*
X398124Y578855D01*
X398130Y578874D01*
X398141Y578891D01*
X398166Y578991D01*
X398197Y579090D01*
X398196Y579110D01*
X398201Y579129D01*
X398193Y579232D01*
X398190Y579336D01*
X398183Y579355D01*
X398182Y579375D01*
X398141Y579470D01*
X398106Y579567D01*
X398093Y579583D01*
X398086Y579601D01*
X397981Y579732D01*
X397287Y580425D01*
X397287Y587975D01*
X402625Y593313D01*
X410175Y593313D01*
X415513Y587975D01*
X415513Y580425D01*
X410175Y575087D01*
X402625Y575087D01*
X401932Y575781D01*
X401916Y575792D01*
X401903Y575808D01*
X401829Y575856D01*
X401809Y575873D01*
X401797Y575878D01*
X401732Y575924D01*
X401713Y575930D01*
X401696Y575941D01*
X401596Y575966D01*
X401497Y575997D01*
X401477Y575996D01*
X401458Y576001D01*
X401355Y575993D01*
X401251Y575990D01*
X401233Y575983D01*
X401213Y575982D01*
X401118Y575941D01*
X401020Y575906D01*
X401005Y575893D01*
X400986Y575886D01*
X400919Y575831D01*
X400913Y575828D01*
X400907Y575822D01*
X400855Y575781D01*
X395956Y570881D01*
X394542Y569467D01*
X115457Y569467D01*
X115367Y569453D01*
X115276Y569445D01*
X115247Y569433D01*
X115215Y569428D01*
X115134Y569385D01*
X115050Y569349D01*
X115018Y569323D01*
X114997Y569312D01*
X114975Y569289D01*
X114919Y569244D01*
X72106Y526431D01*
X72053Y526357D01*
X71993Y526288D01*
X71981Y526257D01*
X71962Y526231D01*
X71935Y526144D01*
X71901Y526059D01*
X71897Y526018D01*
X71890Y525996D01*
X71891Y525964D01*
X71883Y525893D01*
X71883Y520708D01*
X71894Y520637D01*
X71896Y520565D01*
X71914Y520516D01*
X71922Y520465D01*
X71956Y520402D01*
X71981Y520334D01*
X72013Y520294D01*
X72038Y520248D01*
X72090Y520198D01*
X72134Y520142D01*
X72178Y520114D01*
X72216Y520078D01*
X72281Y520048D01*
X72341Y520009D01*
X72392Y519996D01*
X72439Y519975D01*
X72510Y519967D01*
X72580Y519949D01*
X72632Y519953D01*
X72683Y519947D01*
X72754Y519963D01*
X72825Y519968D01*
X72873Y519989D01*
X72924Y520000D01*
X72985Y520036D01*
X73051Y520065D01*
X73107Y520109D01*
X73135Y520126D01*
X73150Y520144D01*
X73182Y520169D01*
X74597Y521584D01*
X77733Y522883D01*
X81127Y522883D01*
X84263Y521584D01*
X86664Y519183D01*
X87963Y516047D01*
X87963Y512653D01*
X86664Y509517D01*
X84263Y507116D01*
X82272Y506291D01*
X82233Y506267D01*
X82190Y506251D01*
X82129Y506203D01*
X82063Y506162D01*
X82034Y506126D01*
X81998Y506098D01*
X81956Y506032D01*
X81906Y505972D01*
X81890Y505929D01*
X81865Y505891D01*
X81846Y505815D01*
X81818Y505743D01*
X81816Y505697D01*
X81805Y505652D01*
X81811Y505575D01*
X81807Y505497D01*
X81820Y505453D01*
X81824Y505407D01*
X81854Y505336D01*
X81876Y505261D01*
X81902Y505223D01*
X81920Y505181D01*
X82005Y505074D01*
X82016Y505059D01*
X82020Y505056D01*
X82025Y505050D01*
X185446Y401629D01*
X185504Y401587D01*
X185556Y401538D01*
X185603Y401516D01*
X185645Y401485D01*
X185714Y401464D01*
X185779Y401434D01*
X185831Y401428D01*
X185881Y401413D01*
X185952Y401415D01*
X186023Y401407D01*
X186074Y401418D01*
X186126Y401419D01*
X186194Y401444D01*
X186264Y401459D01*
X186308Y401486D01*
X186357Y401504D01*
X186413Y401549D01*
X186475Y401585D01*
X186509Y401625D01*
X186549Y401658D01*
X186588Y401718D01*
X186635Y401772D01*
X186654Y401821D01*
X186682Y401865D01*
X186700Y401934D01*
X186727Y402001D01*
X186735Y402072D01*
X186743Y402103D01*
X186741Y402126D01*
X186745Y402167D01*
X186745Y403445D01*
X189391Y406091D01*
X192589Y406091D01*
X192679Y406105D01*
X192770Y406113D01*
X192799Y406125D01*
X192831Y406130D01*
X192912Y406173D01*
X192996Y406209D01*
X193028Y406235D01*
X193049Y406246D01*
X193071Y406269D01*
X193127Y406314D01*
X195500Y408687D01*
X302340Y408687D01*
X303697Y407330D01*
X303771Y407277D01*
X303840Y407217D01*
X303871Y407205D01*
X303897Y407186D01*
X303984Y407159D01*
X304069Y407125D01*
X304110Y407121D01*
X304132Y407114D01*
X304164Y407115D01*
X304235Y407107D01*
X307941Y407107D01*
X310587Y404461D01*
X310587Y400719D01*
X307941Y398073D01*
X304199Y398073D01*
X301553Y400719D01*
X301553Y403409D01*
X301539Y403499D01*
X301531Y403590D01*
X301519Y403619D01*
X301514Y403651D01*
X301471Y403732D01*
X301435Y403816D01*
X301409Y403848D01*
X301398Y403869D01*
X301375Y403891D01*
X301330Y403947D01*
X300879Y404398D01*
X300805Y404451D01*
X300736Y404511D01*
X300705Y404523D01*
X300679Y404542D01*
X300592Y404569D01*
X300507Y404603D01*
X300466Y404607D01*
X300444Y404614D01*
X300412Y404613D01*
X300341Y404621D01*
X256702Y404621D01*
X256631Y404610D01*
X256560Y404608D01*
X256511Y404590D01*
X256459Y404582D01*
X256396Y404548D01*
X256329Y404523D01*
X256288Y404491D01*
X256242Y404466D01*
X256193Y404415D01*
X256137Y404370D01*
X256109Y404326D01*
X256073Y404288D01*
X256042Y404223D01*
X256004Y404163D01*
X255991Y404112D01*
X255969Y404065D01*
X255961Y403994D01*
X255944Y403924D01*
X255948Y403872D01*
X255942Y403821D01*
X255957Y403750D01*
X255963Y403679D01*
X255983Y403631D01*
X255994Y403580D01*
X256031Y403519D01*
X256059Y403453D01*
X256104Y403397D01*
X256120Y403369D01*
X256138Y403354D01*
X256164Y403322D01*
X256295Y403191D01*
X256295Y399449D01*
X254415Y397569D01*
X254362Y397495D01*
X254302Y397426D01*
X254290Y397395D01*
X254271Y397369D01*
X254244Y397282D01*
X254210Y397197D01*
X254206Y397157D01*
X254199Y397134D01*
X254200Y397102D01*
X254192Y397031D01*
X254192Y278013D01*
X254206Y277923D01*
X254214Y277832D01*
X254226Y277802D01*
X254231Y277770D01*
X254274Y277689D01*
X254310Y277606D01*
X254336Y277573D01*
X254347Y277553D01*
X254370Y277531D01*
X254415Y277475D01*
X259998Y271892D01*
X260072Y271839D01*
X260141Y271779D01*
X260171Y271767D01*
X260197Y271748D01*
X260284Y271721D01*
X260369Y271687D01*
X260410Y271683D01*
X260432Y271676D01*
X260465Y271677D01*
X260536Y271669D01*
X263195Y271669D01*
X265840Y269023D01*
X265840Y265281D01*
X263960Y263401D01*
X263907Y263327D01*
X263848Y263258D01*
X263836Y263227D01*
X263817Y263201D01*
X263790Y263114D01*
X263756Y263029D01*
X263751Y262989D01*
X263745Y262966D01*
X263745Y262934D01*
X263737Y262863D01*
X263737Y232907D01*
X263752Y232817D01*
X263759Y232726D01*
X263772Y232696D01*
X263777Y232664D01*
X263780Y232660D01*
X263780Y229333D01*
X263794Y229243D01*
X263802Y229152D01*
X263814Y229122D01*
X263819Y229090D01*
X263862Y229010D01*
X263898Y228926D01*
X263924Y228894D01*
X263935Y228873D01*
X263958Y228851D01*
X264003Y228795D01*
X265883Y226915D01*
X265883Y224875D01*
X265894Y224805D01*
X265896Y224733D01*
X265914Y224684D01*
X265922Y224633D01*
X265956Y224569D01*
X265981Y224502D01*
X266013Y224461D01*
X266038Y224415D01*
X266089Y224366D01*
X266134Y224310D01*
X266178Y224282D01*
X266216Y224246D01*
X266281Y224216D01*
X266341Y224177D01*
X266392Y224164D01*
X266439Y224142D01*
X266510Y224134D01*
X266580Y224117D01*
X266632Y224121D01*
X266683Y224115D01*
X266754Y224130D01*
X266825Y224136D01*
X266873Y224156D01*
X266924Y224167D01*
X266985Y224204D01*
X267051Y224232D01*
X267107Y224277D01*
X267135Y224293D01*
X267150Y224311D01*
X267182Y224337D01*
X294044Y251199D01*
X295458Y252613D01*
X329514Y252613D01*
X329585Y252624D01*
X329656Y252626D01*
X329705Y252644D01*
X329757Y252652D01*
X329820Y252686D01*
X329887Y252711D01*
X329928Y252743D01*
X329974Y252768D01*
X330023Y252820D01*
X330079Y252864D01*
X330107Y252908D01*
X330143Y252946D01*
X330174Y253011D01*
X330212Y253071D01*
X330225Y253122D01*
X330247Y253169D01*
X330255Y253240D01*
X330272Y253310D01*
X330268Y253362D01*
X330274Y253413D01*
X330259Y253484D01*
X330253Y253555D01*
X330233Y253603D01*
X330222Y253654D01*
X330185Y253715D01*
X330157Y253781D01*
X330112Y253837D01*
X330096Y253865D01*
X330078Y253880D01*
X330052Y253912D01*
X328025Y255939D01*
X328025Y259681D01*
X330671Y262327D01*
X334413Y262327D01*
X336674Y260066D01*
X336748Y260013D01*
X336817Y259953D01*
X336848Y259941D01*
X336874Y259922D01*
X336961Y259895D01*
X337046Y259861D01*
X337086Y259857D01*
X337109Y259850D01*
X337141Y259851D01*
X337212Y259843D01*
X369175Y259843D01*
X369245Y259854D01*
X369317Y259856D01*
X369366Y259874D01*
X369417Y259882D01*
X369481Y259916D01*
X369548Y259941D01*
X369589Y259973D01*
X369635Y259998D01*
X369684Y260050D01*
X369740Y260094D01*
X369768Y260138D01*
X369804Y260176D01*
X369834Y260241D01*
X369873Y260301D01*
X369886Y260352D01*
X369908Y260399D01*
X369916Y260470D01*
X369933Y260540D01*
X369929Y260592D01*
X369935Y260643D01*
X369920Y260714D01*
X369914Y260785D01*
X369894Y260833D01*
X369883Y260884D01*
X369846Y260945D01*
X369818Y261011D01*
X369773Y261067D01*
X369757Y261095D01*
X369739Y261110D01*
X369713Y261142D01*
X368386Y262469D01*
X355066Y275789D01*
X355008Y275831D01*
X354956Y275880D01*
X354909Y275902D01*
X354867Y275933D01*
X354798Y275954D01*
X354733Y275984D01*
X354681Y275990D01*
X354631Y276005D01*
X354560Y276003D01*
X354489Y276011D01*
X354438Y276000D01*
X354386Y275999D01*
X354318Y275974D01*
X354248Y275959D01*
X354203Y275932D01*
X354155Y275914D01*
X354099Y275869D01*
X354037Y275833D01*
X354003Y275793D01*
X353963Y275760D01*
X353924Y275700D01*
X353877Y275646D01*
X353858Y275597D01*
X353830Y275553D01*
X353812Y275484D01*
X353785Y275417D01*
X353777Y275346D01*
X353769Y275315D01*
X353771Y275292D01*
X353767Y275251D01*
X353767Y273719D01*
X351121Y271073D01*
X347379Y271073D01*
X344733Y273719D01*
X344733Y276917D01*
X344719Y277007D01*
X344711Y277098D01*
X344699Y277127D01*
X344694Y277159D01*
X344651Y277240D01*
X344615Y277324D01*
X344589Y277356D01*
X344578Y277377D01*
X344555Y277399D01*
X344510Y277455D01*
X304037Y317928D01*
X304037Y363630D01*
X304023Y363720D01*
X304015Y363811D01*
X304003Y363841D01*
X303998Y363873D01*
X303955Y363953D01*
X303919Y364037D01*
X303893Y364069D01*
X303882Y364090D01*
X303859Y364112D01*
X303814Y364168D01*
X301553Y366429D01*
X301553Y370171D01*
X304199Y372817D01*
X307941Y372817D01*
X310587Y370171D01*
X310587Y366429D01*
X308326Y364168D01*
X308273Y364094D01*
X308213Y364025D01*
X308201Y363994D01*
X308182Y363968D01*
X308155Y363881D01*
X308121Y363796D01*
X308117Y363756D01*
X308110Y363733D01*
X308111Y363701D01*
X308103Y363630D01*
X308103Y342998D01*
X308114Y342927D01*
X308116Y342856D01*
X308134Y342807D01*
X308142Y342755D01*
X308176Y342692D01*
X308201Y342625D01*
X308233Y342584D01*
X308258Y342538D01*
X308310Y342489D01*
X308354Y342433D01*
X308398Y342405D01*
X308436Y342369D01*
X308501Y342338D01*
X308561Y342300D01*
X308612Y342287D01*
X308659Y342265D01*
X308730Y342257D01*
X308800Y342240D01*
X308852Y342244D01*
X308903Y342238D01*
X308974Y342253D01*
X309045Y342259D01*
X309093Y342279D01*
X309144Y342290D01*
X309205Y342327D01*
X309271Y342355D01*
X309327Y342400D01*
X309355Y342416D01*
X309370Y342434D01*
X309402Y342460D01*
X311819Y344877D01*
X315561Y344877D01*
X318207Y342231D01*
X318207Y338489D01*
X315946Y336228D01*
X315893Y336154D01*
X315833Y336085D01*
X315821Y336054D01*
X315802Y336028D01*
X315775Y335941D01*
X315741Y335856D01*
X315737Y335816D01*
X315730Y335793D01*
X315731Y335761D01*
X315723Y335690D01*
X315723Y321197D01*
X315737Y321107D01*
X315745Y321016D01*
X315757Y320987D01*
X315762Y320955D01*
X315805Y320874D01*
X315841Y320790D01*
X315867Y320758D01*
X315878Y320737D01*
X315901Y320715D01*
X315946Y320659D01*
X371261Y265344D01*
X371335Y265291D01*
X371404Y265231D01*
X371435Y265219D01*
X371461Y265200D01*
X371548Y265173D01*
X371633Y265139D01*
X371674Y265135D01*
X371696Y265128D01*
X371728Y265129D01*
X371799Y265121D01*
X385487Y265121D01*
X385557Y265132D01*
X385629Y265134D01*
X385678Y265152D01*
X385729Y265160D01*
X385793Y265194D01*
X385860Y265219D01*
X385901Y265251D01*
X385947Y265276D01*
X385996Y265328D01*
X386052Y265372D01*
X386080Y265416D01*
X386116Y265454D01*
X386146Y265519D01*
X386185Y265579D01*
X386198Y265630D01*
X386220Y265677D01*
X386228Y265748D01*
X386245Y265818D01*
X386241Y265870D01*
X386247Y265921D01*
X386232Y265992D01*
X386226Y266063D01*
X386206Y266111D01*
X386195Y266162D01*
X386158Y266223D01*
X386130Y266289D01*
X386085Y266345D01*
X386069Y266373D01*
X386051Y266388D01*
X386025Y266420D01*
X385461Y266984D01*
X385387Y267038D01*
X385318Y267097D01*
X385287Y267109D01*
X385261Y267128D01*
X385174Y267155D01*
X385089Y267189D01*
X385048Y267193D01*
X385026Y267200D01*
X384994Y267199D01*
X384923Y267207D01*
X373808Y267207D01*
X340867Y300148D01*
X340867Y338230D01*
X340853Y338320D01*
X340845Y338411D01*
X340833Y338441D01*
X340828Y338473D01*
X340785Y338553D01*
X340749Y338637D01*
X340723Y338669D01*
X340712Y338690D01*
X340689Y338712D01*
X340644Y338768D01*
X338383Y341029D01*
X338383Y344771D01*
X341029Y347417D01*
X344771Y347417D01*
X347417Y344771D01*
X347417Y341029D01*
X345156Y338768D01*
X345103Y338694D01*
X345043Y338625D01*
X345031Y338594D01*
X345012Y338568D01*
X344985Y338481D01*
X344951Y338396D01*
X344947Y338356D01*
X344940Y338333D01*
X344941Y338301D01*
X344933Y338230D01*
X344933Y302147D01*
X344947Y302057D01*
X344955Y301966D01*
X344967Y301937D01*
X344972Y301905D01*
X345015Y301824D01*
X345051Y301740D01*
X345077Y301708D01*
X345088Y301687D01*
X345111Y301665D01*
X345156Y301609D01*
X375269Y271496D01*
X375343Y271443D01*
X375412Y271383D01*
X375443Y271371D01*
X375469Y271352D01*
X375556Y271325D01*
X375641Y271291D01*
X375682Y271287D01*
X375704Y271280D01*
X375736Y271281D01*
X375807Y271273D01*
X386922Y271273D01*
X400813Y257382D01*
X400813Y245538D01*
X398440Y243165D01*
X398387Y243091D01*
X398327Y243022D01*
X398315Y242991D01*
X398296Y242965D01*
X398269Y242878D01*
X398235Y242793D01*
X398231Y242752D01*
X398224Y242730D01*
X398225Y242698D01*
X398217Y242627D01*
X398217Y239429D01*
X395571Y236783D01*
X391829Y236783D01*
X389568Y239044D01*
X389494Y239097D01*
X389425Y239157D01*
X389394Y239169D01*
X389368Y239188D01*
X389281Y239215D01*
X389196Y239249D01*
X389156Y239253D01*
X389133Y239260D01*
X389101Y239259D01*
X389030Y239267D01*
X299691Y239267D01*
X299601Y239253D01*
X299510Y239245D01*
X299481Y239233D01*
X299449Y239228D01*
X299368Y239185D01*
X299284Y239149D01*
X299252Y239123D01*
X299231Y239112D01*
X299209Y239089D01*
X299153Y239044D01*
X246040Y185931D01*
X245987Y185857D01*
X245927Y185788D01*
X245915Y185757D01*
X245896Y185731D01*
X245869Y185644D01*
X245835Y185559D01*
X245831Y185518D01*
X245824Y185496D01*
X245825Y185464D01*
X245817Y185393D01*
X245817Y182195D01*
X243171Y179549D01*
X239551Y179549D01*
X239461Y179535D01*
X239370Y179527D01*
X239341Y179515D01*
X239309Y179510D01*
X239228Y179467D01*
X239144Y179431D01*
X239112Y179405D01*
X239091Y179394D01*
X239069Y179371D01*
X239013Y179326D01*
X206244Y146557D01*
X72818Y146557D01*
X69614Y149762D01*
X69534Y149819D01*
X69459Y149881D01*
X69435Y149890D01*
X69414Y149905D01*
X69321Y149934D01*
X69230Y149969D01*
X69204Y149970D01*
X69179Y149978D01*
X69081Y149975D01*
X68984Y149979D01*
X68959Y149972D01*
X68933Y149971D01*
X68841Y149938D01*
X68748Y149911D01*
X68726Y149896D01*
X68702Y149887D01*
X68626Y149826D01*
X68546Y149770D01*
X68530Y149749D01*
X68510Y149733D01*
X68457Y149651D01*
X68399Y149573D01*
X68391Y149548D01*
X68377Y149526D01*
X68353Y149432D01*
X68323Y149339D01*
X68323Y149313D01*
X68317Y149288D01*
X68324Y149191D01*
X68325Y149093D01*
X68334Y149062D01*
X68336Y149042D01*
X68349Y149012D01*
X68372Y148932D01*
X68863Y147747D01*
X68863Y144353D01*
X67564Y141217D01*
X65163Y138816D01*
X62027Y137517D01*
X58633Y137517D01*
G37*
%LPD*%
%LPC*%
G36*
X175929Y414583D02*
X175929Y414583D01*
X173283Y417229D01*
X173283Y420971D01*
X175544Y423232D01*
X175592Y423298D01*
X175599Y423305D01*
X175601Y423310D01*
X175657Y423375D01*
X175669Y423406D01*
X175688Y423432D01*
X175715Y423519D01*
X175749Y423604D01*
X175753Y423644D01*
X175760Y423667D01*
X175759Y423699D01*
X175767Y423770D01*
X175767Y450000D01*
X220560Y494793D01*
X263003Y494793D01*
X263093Y494807D01*
X263184Y494815D01*
X263213Y494827D01*
X263245Y494832D01*
X263326Y494875D01*
X263410Y494911D01*
X263442Y494937D01*
X263463Y494948D01*
X263485Y494971D01*
X263541Y495016D01*
X321781Y553255D01*
X321792Y553272D01*
X321808Y553284D01*
X321864Y553371D01*
X321924Y553455D01*
X321930Y553474D01*
X321941Y553491D01*
X321966Y553591D01*
X321997Y553690D01*
X321996Y553710D01*
X322001Y553729D01*
X321993Y553832D01*
X321990Y553936D01*
X321983Y553955D01*
X321982Y553975D01*
X321941Y554070D01*
X321906Y554167D01*
X321893Y554183D01*
X321886Y554201D01*
X321781Y554332D01*
X321087Y555025D01*
X321087Y562575D01*
X326425Y567913D01*
X333975Y567913D01*
X339313Y562575D01*
X339313Y555025D01*
X333975Y549687D01*
X326425Y549687D01*
X325732Y550381D01*
X325716Y550392D01*
X325703Y550408D01*
X325616Y550464D01*
X325532Y550524D01*
X325513Y550530D01*
X325496Y550541D01*
X325396Y550566D01*
X325297Y550597D01*
X325277Y550596D01*
X325258Y550601D01*
X325155Y550593D01*
X325051Y550590D01*
X325033Y550583D01*
X325013Y550582D01*
X324918Y550541D01*
X324820Y550506D01*
X324805Y550493D01*
X324786Y550486D01*
X324655Y550381D01*
X266557Y492282D01*
X266515Y492224D01*
X266466Y492172D01*
X266444Y492125D01*
X266413Y492083D01*
X266392Y492014D01*
X266362Y491949D01*
X266356Y491897D01*
X266341Y491847D01*
X266343Y491776D01*
X266335Y491705D01*
X266346Y491654D01*
X266347Y491602D01*
X266372Y491534D01*
X266387Y491464D01*
X266414Y491420D01*
X266432Y491371D01*
X266477Y491315D01*
X266513Y491253D01*
X266553Y491219D01*
X266586Y491179D01*
X266646Y491140D01*
X266700Y491093D01*
X266749Y491074D01*
X266793Y491046D01*
X266862Y491028D01*
X266929Y491001D01*
X267000Y490993D01*
X267031Y490985D01*
X267054Y490987D01*
X267095Y490983D01*
X284593Y490983D01*
X284683Y490997D01*
X284774Y491005D01*
X284803Y491017D01*
X284835Y491022D01*
X284916Y491065D01*
X285000Y491101D01*
X285032Y491127D01*
X285053Y491138D01*
X285075Y491161D01*
X285131Y491206D01*
X347181Y553255D01*
X347192Y553272D01*
X347208Y553284D01*
X347264Y553371D01*
X347324Y553455D01*
X347330Y553474D01*
X347341Y553491D01*
X347366Y553591D01*
X347397Y553690D01*
X347396Y553710D01*
X347401Y553729D01*
X347393Y553832D01*
X347390Y553936D01*
X347383Y553955D01*
X347382Y553975D01*
X347341Y554070D01*
X347306Y554167D01*
X347293Y554183D01*
X347286Y554201D01*
X347181Y554332D01*
X346487Y555025D01*
X346487Y562575D01*
X351825Y567913D01*
X359375Y567913D01*
X364713Y562575D01*
X364713Y555025D01*
X359375Y549687D01*
X351825Y549687D01*
X351132Y550381D01*
X351116Y550392D01*
X351103Y550408D01*
X351016Y550464D01*
X350932Y550524D01*
X350913Y550530D01*
X350896Y550541D01*
X350796Y550566D01*
X350697Y550597D01*
X350677Y550596D01*
X350658Y550601D01*
X350555Y550593D01*
X350451Y550590D01*
X350433Y550583D01*
X350413Y550582D01*
X350318Y550541D01*
X350220Y550506D01*
X350205Y550493D01*
X350186Y550486D01*
X350055Y550381D01*
X288147Y488472D01*
X288105Y488414D01*
X288056Y488362D01*
X288034Y488315D01*
X288003Y488273D01*
X287982Y488204D01*
X287952Y488139D01*
X287946Y488087D01*
X287931Y488037D01*
X287933Y487966D01*
X287925Y487895D01*
X287936Y487844D01*
X287937Y487792D01*
X287962Y487724D01*
X287977Y487654D01*
X288004Y487610D01*
X288022Y487561D01*
X288067Y487505D01*
X288103Y487443D01*
X288143Y487409D01*
X288176Y487369D01*
X288236Y487330D01*
X288290Y487283D01*
X288339Y487264D01*
X288383Y487236D01*
X288452Y487218D01*
X288519Y487191D01*
X288590Y487183D01*
X288621Y487175D01*
X288644Y487177D01*
X288685Y487173D01*
X306183Y487173D01*
X306273Y487187D01*
X306364Y487195D01*
X306393Y487207D01*
X306425Y487212D01*
X306506Y487255D01*
X306590Y487291D01*
X306622Y487317D01*
X306643Y487328D01*
X306665Y487351D01*
X306721Y487396D01*
X372581Y553255D01*
X372592Y553272D01*
X372608Y553284D01*
X372664Y553371D01*
X372724Y553455D01*
X372730Y553474D01*
X372741Y553491D01*
X372766Y553591D01*
X372797Y553690D01*
X372796Y553710D01*
X372801Y553729D01*
X372793Y553832D01*
X372790Y553936D01*
X372783Y553955D01*
X372782Y553975D01*
X372741Y554070D01*
X372706Y554167D01*
X372693Y554183D01*
X372686Y554201D01*
X372581Y554332D01*
X371887Y555025D01*
X371887Y562575D01*
X377225Y567913D01*
X384775Y567913D01*
X390113Y562575D01*
X390113Y555025D01*
X384775Y549687D01*
X377225Y549687D01*
X376532Y550381D01*
X376516Y550392D01*
X376503Y550408D01*
X376416Y550464D01*
X376332Y550524D01*
X376313Y550530D01*
X376296Y550541D01*
X376196Y550566D01*
X376097Y550597D01*
X376077Y550596D01*
X376058Y550601D01*
X375955Y550593D01*
X375851Y550590D01*
X375833Y550583D01*
X375813Y550582D01*
X375718Y550541D01*
X375620Y550506D01*
X375605Y550493D01*
X375586Y550486D01*
X375455Y550381D01*
X309737Y484662D01*
X309695Y484604D01*
X309646Y484552D01*
X309624Y484505D01*
X309593Y484463D01*
X309572Y484394D01*
X309542Y484329D01*
X309536Y484277D01*
X309521Y484227D01*
X309523Y484156D01*
X309515Y484085D01*
X309526Y484034D01*
X309527Y483982D01*
X309552Y483914D01*
X309567Y483844D01*
X309594Y483800D01*
X309612Y483751D01*
X309657Y483695D01*
X309693Y483633D01*
X309733Y483599D01*
X309766Y483559D01*
X309826Y483520D01*
X309880Y483473D01*
X309929Y483454D01*
X309973Y483426D01*
X310042Y483408D01*
X310109Y483381D01*
X310180Y483373D01*
X310211Y483365D01*
X310234Y483367D01*
X310275Y483363D01*
X327773Y483363D01*
X327863Y483377D01*
X327954Y483385D01*
X327983Y483397D01*
X328015Y483402D01*
X328096Y483445D01*
X328180Y483481D01*
X328212Y483507D01*
X328233Y483518D01*
X328255Y483541D01*
X328311Y483586D01*
X397981Y553255D01*
X397992Y553272D01*
X398008Y553284D01*
X398064Y553371D01*
X398124Y553455D01*
X398130Y553474D01*
X398141Y553491D01*
X398166Y553591D01*
X398197Y553690D01*
X398196Y553710D01*
X398201Y553729D01*
X398193Y553832D01*
X398190Y553936D01*
X398183Y553955D01*
X398182Y553975D01*
X398141Y554070D01*
X398106Y554167D01*
X398093Y554183D01*
X398086Y554201D01*
X397981Y554332D01*
X397287Y555025D01*
X397287Y562575D01*
X402625Y567913D01*
X410175Y567913D01*
X415513Y562575D01*
X415513Y555025D01*
X410175Y549687D01*
X402625Y549687D01*
X401932Y550381D01*
X401916Y550392D01*
X401903Y550408D01*
X401816Y550464D01*
X401732Y550524D01*
X401713Y550530D01*
X401696Y550541D01*
X401596Y550566D01*
X401497Y550597D01*
X401477Y550596D01*
X401458Y550601D01*
X401355Y550593D01*
X401251Y550590D01*
X401233Y550583D01*
X401213Y550582D01*
X401118Y550541D01*
X401020Y550506D01*
X401005Y550493D01*
X400986Y550486D01*
X400855Y550381D01*
X331327Y480852D01*
X331285Y480794D01*
X331236Y480742D01*
X331214Y480695D01*
X331183Y480653D01*
X331162Y480584D01*
X331132Y480519D01*
X331126Y480467D01*
X331111Y480417D01*
X331113Y480346D01*
X331105Y480275D01*
X331116Y480224D01*
X331117Y480172D01*
X331142Y480104D01*
X331157Y480034D01*
X331184Y479990D01*
X331202Y479941D01*
X331247Y479885D01*
X331283Y479823D01*
X331323Y479789D01*
X331356Y479749D01*
X331416Y479710D01*
X331470Y479663D01*
X331519Y479644D01*
X331563Y479616D01*
X331632Y479598D01*
X331699Y479571D01*
X331770Y479563D01*
X331801Y479555D01*
X331824Y479557D01*
X331865Y479553D01*
X349363Y479553D01*
X349453Y479567D01*
X349544Y479575D01*
X349573Y479587D01*
X349605Y479592D01*
X349686Y479635D01*
X349770Y479671D01*
X349802Y479697D01*
X349823Y479708D01*
X349845Y479731D01*
X349901Y479776D01*
X423381Y553255D01*
X423392Y553272D01*
X423408Y553284D01*
X423464Y553371D01*
X423524Y553455D01*
X423530Y553474D01*
X423541Y553491D01*
X423566Y553591D01*
X423597Y553690D01*
X423596Y553710D01*
X423601Y553729D01*
X423593Y553832D01*
X423590Y553936D01*
X423583Y553955D01*
X423582Y553975D01*
X423541Y554070D01*
X423506Y554167D01*
X423493Y554183D01*
X423486Y554201D01*
X423381Y554332D01*
X422687Y555025D01*
X422687Y562575D01*
X428025Y567913D01*
X435575Y567913D01*
X440913Y562575D01*
X440913Y555025D01*
X435575Y549687D01*
X428025Y549687D01*
X427332Y550381D01*
X427316Y550392D01*
X427303Y550408D01*
X427216Y550464D01*
X427132Y550524D01*
X427113Y550530D01*
X427096Y550541D01*
X426996Y550566D01*
X426897Y550597D01*
X426877Y550596D01*
X426858Y550601D01*
X426755Y550593D01*
X426651Y550590D01*
X426633Y550583D01*
X426613Y550582D01*
X426518Y550541D01*
X426420Y550506D01*
X426405Y550493D01*
X426386Y550486D01*
X426255Y550381D01*
X352917Y477042D01*
X352875Y476984D01*
X352826Y476932D01*
X352804Y476885D01*
X352773Y476843D01*
X352752Y476774D01*
X352722Y476709D01*
X352716Y476657D01*
X352701Y476607D01*
X352703Y476536D01*
X352695Y476465D01*
X352706Y476414D01*
X352707Y476362D01*
X352732Y476294D01*
X352747Y476224D01*
X352774Y476180D01*
X352792Y476131D01*
X352837Y476075D01*
X352873Y476013D01*
X352913Y475979D01*
X352946Y475939D01*
X353006Y475900D01*
X353060Y475853D01*
X353109Y475834D01*
X353153Y475806D01*
X353222Y475788D01*
X353289Y475761D01*
X353360Y475753D01*
X353391Y475745D01*
X353414Y475747D01*
X353455Y475743D01*
X370953Y475743D01*
X371043Y475757D01*
X371134Y475765D01*
X371163Y475777D01*
X371195Y475782D01*
X371276Y475825D01*
X371360Y475861D01*
X371392Y475887D01*
X371413Y475898D01*
X371435Y475921D01*
X371491Y475966D01*
X448781Y553255D01*
X448792Y553272D01*
X448808Y553284D01*
X448864Y553371D01*
X448924Y553455D01*
X448930Y553474D01*
X448941Y553491D01*
X448966Y553591D01*
X448997Y553690D01*
X448996Y553710D01*
X449001Y553729D01*
X448993Y553832D01*
X448990Y553936D01*
X448983Y553955D01*
X448982Y553975D01*
X448941Y554070D01*
X448906Y554167D01*
X448893Y554183D01*
X448886Y554201D01*
X448781Y554332D01*
X448087Y555025D01*
X448087Y562575D01*
X453425Y567913D01*
X460975Y567913D01*
X466313Y562575D01*
X466313Y555025D01*
X460975Y549687D01*
X453425Y549687D01*
X452732Y550381D01*
X452716Y550392D01*
X452703Y550408D01*
X452616Y550464D01*
X452532Y550524D01*
X452513Y550530D01*
X452496Y550541D01*
X452396Y550566D01*
X452297Y550597D01*
X452277Y550596D01*
X452258Y550601D01*
X452155Y550593D01*
X452051Y550590D01*
X452033Y550583D01*
X452013Y550582D01*
X451918Y550541D01*
X451820Y550506D01*
X451805Y550493D01*
X451786Y550486D01*
X451655Y550381D01*
X374507Y473232D01*
X374465Y473174D01*
X374416Y473122D01*
X374394Y473075D01*
X374363Y473033D01*
X374342Y472964D01*
X374312Y472899D01*
X374306Y472847D01*
X374291Y472797D01*
X374293Y472726D01*
X374285Y472655D01*
X374296Y472604D01*
X374297Y472552D01*
X374322Y472484D01*
X374337Y472414D01*
X374364Y472370D01*
X374382Y472321D01*
X374427Y472265D01*
X374463Y472203D01*
X374503Y472169D01*
X374536Y472129D01*
X374596Y472090D01*
X374650Y472043D01*
X374699Y472024D01*
X374743Y471996D01*
X374812Y471978D01*
X374879Y471951D01*
X374950Y471943D01*
X374981Y471935D01*
X375004Y471937D01*
X375045Y471933D01*
X392543Y471933D01*
X392633Y471947D01*
X392724Y471955D01*
X392753Y471967D01*
X392785Y471972D01*
X392866Y472015D01*
X392950Y472051D01*
X392982Y472077D01*
X393003Y472088D01*
X393025Y472111D01*
X393081Y472156D01*
X474181Y553255D01*
X474192Y553272D01*
X474208Y553284D01*
X474264Y553371D01*
X474324Y553455D01*
X474330Y553474D01*
X474341Y553491D01*
X474366Y553591D01*
X474397Y553690D01*
X474396Y553710D01*
X474401Y553729D01*
X474393Y553832D01*
X474390Y553936D01*
X474383Y553955D01*
X474382Y553975D01*
X474341Y554070D01*
X474306Y554167D01*
X474293Y554183D01*
X474286Y554201D01*
X474181Y554332D01*
X473487Y555025D01*
X473487Y562575D01*
X478825Y567913D01*
X486375Y567913D01*
X491713Y562575D01*
X491713Y555025D01*
X486375Y549687D01*
X478825Y549687D01*
X478132Y550381D01*
X478116Y550392D01*
X478103Y550408D01*
X478016Y550464D01*
X477932Y550524D01*
X477913Y550530D01*
X477896Y550541D01*
X477796Y550566D01*
X477697Y550597D01*
X477677Y550596D01*
X477658Y550601D01*
X477555Y550593D01*
X477451Y550590D01*
X477433Y550583D01*
X477413Y550582D01*
X477318Y550541D01*
X477220Y550506D01*
X477205Y550493D01*
X477186Y550486D01*
X477055Y550381D01*
X396097Y469422D01*
X396055Y469364D01*
X396006Y469312D01*
X395984Y469265D01*
X395953Y469223D01*
X395932Y469154D01*
X395902Y469089D01*
X395896Y469037D01*
X395881Y468987D01*
X395883Y468916D01*
X395875Y468845D01*
X395886Y468794D01*
X395887Y468742D01*
X395912Y468674D01*
X395927Y468604D01*
X395954Y468560D01*
X395972Y468511D01*
X396017Y468455D01*
X396053Y468393D01*
X396093Y468359D01*
X396126Y468319D01*
X396186Y468280D01*
X396240Y468233D01*
X396289Y468214D01*
X396333Y468186D01*
X396402Y468168D01*
X396469Y468141D01*
X396540Y468133D01*
X396571Y468125D01*
X396594Y468127D01*
X396635Y468123D01*
X414133Y468123D01*
X414223Y468137D01*
X414314Y468145D01*
X414343Y468157D01*
X414375Y468162D01*
X414456Y468205D01*
X414540Y468241D01*
X414572Y468267D01*
X414593Y468278D01*
X414615Y468301D01*
X414671Y468346D01*
X499581Y553255D01*
X499592Y553272D01*
X499608Y553284D01*
X499664Y553371D01*
X499724Y553455D01*
X499730Y553474D01*
X499741Y553491D01*
X499766Y553591D01*
X499797Y553690D01*
X499796Y553710D01*
X499801Y553729D01*
X499793Y553832D01*
X499790Y553936D01*
X499783Y553955D01*
X499782Y553975D01*
X499741Y554070D01*
X499706Y554167D01*
X499693Y554183D01*
X499686Y554201D01*
X499581Y554332D01*
X498887Y555025D01*
X498887Y562575D01*
X504225Y567913D01*
X511775Y567913D01*
X517113Y562575D01*
X517113Y555025D01*
X511775Y549687D01*
X504225Y549687D01*
X503532Y550381D01*
X503516Y550392D01*
X503503Y550408D01*
X503416Y550464D01*
X503332Y550524D01*
X503313Y550530D01*
X503296Y550541D01*
X503196Y550566D01*
X503097Y550597D01*
X503077Y550596D01*
X503058Y550601D01*
X502955Y550593D01*
X502851Y550590D01*
X502833Y550583D01*
X502813Y550582D01*
X502718Y550541D01*
X502620Y550506D01*
X502605Y550493D01*
X502586Y550486D01*
X502455Y550381D01*
X417546Y465471D01*
X416132Y464057D01*
X228798Y464057D01*
X228778Y464054D01*
X228759Y464056D01*
X228657Y464034D01*
X228555Y464018D01*
X228538Y464008D01*
X228518Y464004D01*
X228429Y463951D01*
X228338Y463902D01*
X228324Y463888D01*
X228307Y463878D01*
X228240Y463799D01*
X228168Y463724D01*
X228160Y463706D01*
X228147Y463691D01*
X228108Y463595D01*
X228065Y463501D01*
X228063Y463481D01*
X228055Y463463D01*
X228037Y463296D01*
X228037Y461679D01*
X225391Y459033D01*
X222448Y459033D01*
X222428Y459030D01*
X222409Y459032D01*
X222307Y459010D01*
X222205Y458994D01*
X222188Y458984D01*
X222168Y458980D01*
X222079Y458927D01*
X221988Y458878D01*
X221974Y458864D01*
X221957Y458854D01*
X221890Y458775D01*
X221818Y458700D01*
X221810Y458682D01*
X221797Y458667D01*
X221758Y458571D01*
X221715Y458477D01*
X221713Y458457D01*
X221705Y458439D01*
X221687Y458272D01*
X221687Y455329D01*
X219041Y452683D01*
X216098Y452683D01*
X216078Y452680D01*
X216059Y452682D01*
X215957Y452660D01*
X215855Y452644D01*
X215838Y452634D01*
X215818Y452630D01*
X215729Y452577D01*
X215638Y452528D01*
X215624Y452514D01*
X215607Y452504D01*
X215540Y452425D01*
X215468Y452350D01*
X215460Y452332D01*
X215447Y452317D01*
X215408Y452221D01*
X215365Y452127D01*
X215363Y452107D01*
X215355Y452089D01*
X215337Y451922D01*
X215337Y448979D01*
X212691Y446333D01*
X209748Y446333D01*
X209728Y446330D01*
X209709Y446332D01*
X209607Y446310D01*
X209505Y446294D01*
X209488Y446284D01*
X209468Y446280D01*
X209379Y446227D01*
X209288Y446178D01*
X209274Y446164D01*
X209257Y446154D01*
X209190Y446075D01*
X209118Y446000D01*
X209110Y445982D01*
X209097Y445967D01*
X209058Y445871D01*
X209015Y445777D01*
X209013Y445757D01*
X209005Y445739D01*
X208987Y445572D01*
X208987Y442629D01*
X206341Y439983D01*
X203398Y439983D01*
X203378Y439980D01*
X203359Y439982D01*
X203257Y439960D01*
X203155Y439944D01*
X203138Y439934D01*
X203118Y439930D01*
X203029Y439877D01*
X202938Y439828D01*
X202924Y439814D01*
X202907Y439804D01*
X202840Y439725D01*
X202768Y439650D01*
X202760Y439632D01*
X202747Y439617D01*
X202708Y439521D01*
X202665Y439427D01*
X202663Y439407D01*
X202655Y439389D01*
X202637Y439222D01*
X202637Y436279D01*
X199991Y433633D01*
X197048Y433633D01*
X197028Y433630D01*
X197009Y433632D01*
X196907Y433610D01*
X196805Y433594D01*
X196788Y433584D01*
X196768Y433580D01*
X196679Y433527D01*
X196588Y433478D01*
X196574Y433464D01*
X196557Y433454D01*
X196490Y433375D01*
X196418Y433300D01*
X196410Y433282D01*
X196397Y433267D01*
X196358Y433171D01*
X196315Y433077D01*
X196313Y433057D01*
X196305Y433039D01*
X196287Y432872D01*
X196287Y429929D01*
X193641Y427283D01*
X190698Y427283D01*
X190678Y427280D01*
X190659Y427282D01*
X190557Y427260D01*
X190455Y427244D01*
X190438Y427234D01*
X190418Y427230D01*
X190329Y427177D01*
X190238Y427128D01*
X190224Y427114D01*
X190207Y427104D01*
X190140Y427025D01*
X190068Y426950D01*
X190060Y426932D01*
X190047Y426917D01*
X190008Y426821D01*
X189965Y426727D01*
X189963Y426707D01*
X189955Y426689D01*
X189937Y426522D01*
X189937Y423579D01*
X187291Y420933D01*
X183531Y420933D01*
X183506Y420957D01*
X183459Y420979D01*
X183417Y421010D01*
X183348Y421031D01*
X183283Y421061D01*
X183231Y421067D01*
X183182Y421082D01*
X183110Y421080D01*
X183039Y421088D01*
X182988Y421077D01*
X182936Y421076D01*
X182868Y421051D01*
X182798Y421036D01*
X182753Y421009D01*
X182705Y420991D01*
X182649Y420946D01*
X182587Y420910D01*
X182553Y420870D01*
X182513Y420838D01*
X182474Y420777D01*
X182427Y420723D01*
X182408Y420674D01*
X182380Y420631D01*
X182362Y420561D01*
X182335Y420495D01*
X182327Y420423D01*
X182319Y420392D01*
X182321Y420369D01*
X182317Y420328D01*
X182317Y417229D01*
X179671Y414583D01*
X175929Y414583D01*
G37*
%LPD*%
%LPC*%
G36*
X488095Y173537D02*
X488095Y173537D01*
X485449Y176183D01*
X485449Y179925D01*
X488095Y182571D01*
X491293Y182571D01*
X491383Y182585D01*
X491474Y182593D01*
X491503Y182605D01*
X491535Y182610D01*
X491616Y182653D01*
X491700Y182689D01*
X491732Y182715D01*
X491753Y182726D01*
X491775Y182749D01*
X491831Y182794D01*
X494314Y185277D01*
X494367Y185351D01*
X494427Y185420D01*
X494439Y185451D01*
X494458Y185477D01*
X494485Y185564D01*
X494519Y185649D01*
X494523Y185690D01*
X494530Y185712D01*
X494529Y185744D01*
X494537Y185815D01*
X494537Y302373D01*
X494523Y302463D01*
X494515Y302554D01*
X494503Y302583D01*
X494498Y302615D01*
X494455Y302696D01*
X494419Y302780D01*
X494393Y302812D01*
X494382Y302833D01*
X494359Y302855D01*
X494314Y302911D01*
X485039Y312187D01*
X484980Y312229D01*
X484928Y312278D01*
X484881Y312300D01*
X484839Y312330D01*
X484770Y312351D01*
X484705Y312382D01*
X484653Y312387D01*
X484604Y312403D01*
X484532Y312401D01*
X484461Y312409D01*
X484410Y312398D01*
X484358Y312396D01*
X484290Y312372D01*
X484220Y312356D01*
X484176Y312330D01*
X484127Y312312D01*
X484071Y312267D01*
X484009Y312230D01*
X483975Y312191D01*
X483935Y312158D01*
X483896Y312098D01*
X483849Y312043D01*
X483830Y311995D01*
X483802Y311951D01*
X483784Y311882D01*
X483757Y311815D01*
X483750Y311744D01*
X483742Y311713D01*
X483744Y311689D01*
X483739Y311648D01*
X483739Y309235D01*
X483754Y309145D01*
X483761Y309054D01*
X483773Y309025D01*
X483779Y308993D01*
X483821Y308912D01*
X483857Y308828D01*
X483883Y308796D01*
X483894Y308775D01*
X483917Y308753D01*
X483962Y308697D01*
X487814Y304845D01*
X487814Y261575D01*
X486055Y259816D01*
X486013Y259758D01*
X485964Y259706D01*
X485942Y259659D01*
X485912Y259617D01*
X485891Y259548D01*
X485860Y259483D01*
X485855Y259431D01*
X485839Y259381D01*
X485841Y259310D01*
X485833Y259239D01*
X485844Y259188D01*
X485846Y259136D01*
X485870Y259068D01*
X485886Y258998D01*
X485912Y258953D01*
X485930Y258905D01*
X485975Y258849D01*
X486012Y258787D01*
X486051Y258753D01*
X486084Y258713D01*
X486144Y258674D01*
X486199Y258627D01*
X486247Y258608D01*
X486291Y258580D01*
X486360Y258562D01*
X486427Y258535D01*
X486498Y258527D01*
X486529Y258519D01*
X486553Y258521D01*
X486594Y258517D01*
X486813Y258517D01*
X489459Y255871D01*
X489459Y252129D01*
X486813Y249483D01*
X483615Y249483D01*
X483525Y249469D01*
X483434Y249461D01*
X483405Y249449D01*
X483373Y249444D01*
X483292Y249401D01*
X483208Y249365D01*
X483176Y249339D01*
X483155Y249328D01*
X483133Y249305D01*
X483077Y249260D01*
X479236Y245419D01*
X454016Y245419D01*
X448905Y250530D01*
X448831Y250583D01*
X448762Y250643D01*
X448731Y250655D01*
X448705Y250674D01*
X448618Y250701D01*
X448533Y250735D01*
X448492Y250739D01*
X448470Y250746D01*
X448438Y250745D01*
X448367Y250753D01*
X445169Y250753D01*
X442523Y253399D01*
X442523Y257141D01*
X445169Y259787D01*
X448911Y259787D01*
X451557Y257141D01*
X451557Y253943D01*
X451558Y253936D01*
X451558Y253935D01*
X451559Y253929D01*
X451571Y253853D01*
X451579Y253762D01*
X451591Y253733D01*
X451596Y253701D01*
X451639Y253620D01*
X451675Y253536D01*
X451701Y253504D01*
X451712Y253483D01*
X451735Y253461D01*
X451780Y253405D01*
X455477Y249708D01*
X455551Y249655D01*
X455620Y249595D01*
X455651Y249583D01*
X455677Y249564D01*
X455764Y249537D01*
X455849Y249503D01*
X455890Y249499D01*
X455912Y249492D01*
X455944Y249493D01*
X456015Y249485D01*
X461110Y249485D01*
X461181Y249496D01*
X461252Y249498D01*
X461301Y249516D01*
X461353Y249524D01*
X461416Y249558D01*
X461483Y249583D01*
X461524Y249615D01*
X461570Y249640D01*
X461619Y249691D01*
X461675Y249736D01*
X461703Y249780D01*
X461739Y249818D01*
X461770Y249883D01*
X461808Y249943D01*
X461821Y249994D01*
X461843Y250041D01*
X461851Y250112D01*
X461868Y250182D01*
X461864Y250234D01*
X461870Y250285D01*
X461855Y250356D01*
X461849Y250427D01*
X461829Y250475D01*
X461818Y250526D01*
X461781Y250587D01*
X461753Y250653D01*
X461708Y250709D01*
X461692Y250737D01*
X461674Y250752D01*
X461648Y250784D01*
X461573Y250859D01*
X461573Y254601D01*
X462564Y255592D01*
X462617Y255666D01*
X462677Y255735D01*
X462689Y255766D01*
X462708Y255792D01*
X462735Y255879D01*
X462769Y255964D01*
X462773Y256004D01*
X462780Y256027D01*
X462779Y256059D01*
X462787Y256130D01*
X462787Y287118D01*
X471510Y295841D01*
X471563Y295915D01*
X471623Y295984D01*
X471635Y296015D01*
X471654Y296041D01*
X471681Y296128D01*
X471715Y296213D01*
X471719Y296254D01*
X471726Y296276D01*
X471725Y296308D01*
X471733Y296379D01*
X471733Y297781D01*
X474404Y300452D01*
X474416Y300468D01*
X474431Y300480D01*
X474487Y300568D01*
X474548Y300651D01*
X474553Y300670D01*
X474564Y300687D01*
X474590Y300788D01*
X474620Y300887D01*
X474619Y300906D01*
X474624Y300926D01*
X474616Y301029D01*
X474614Y301132D01*
X474607Y301151D01*
X474605Y301171D01*
X474565Y301266D01*
X474529Y301363D01*
X474517Y301379D01*
X474509Y301397D01*
X474404Y301528D01*
X474273Y301659D01*
X474273Y305401D01*
X475596Y306724D01*
X475608Y306740D01*
X475623Y306752D01*
X475652Y306796D01*
X475687Y306834D01*
X475709Y306881D01*
X475740Y306924D01*
X475746Y306943D01*
X475756Y306959D01*
X475769Y307010D01*
X475791Y307057D01*
X475797Y307108D01*
X475812Y307159D01*
X475812Y307179D01*
X475816Y307198D01*
X475812Y307251D01*
X475818Y307301D01*
X475807Y307351D01*
X475806Y307405D01*
X475799Y307423D01*
X475797Y307443D01*
X475777Y307492D01*
X475766Y307542D01*
X475740Y307586D01*
X475721Y307636D01*
X475709Y307651D01*
X475701Y307669D01*
X475655Y307727D01*
X475640Y307753D01*
X475623Y307767D01*
X475596Y307800D01*
X474706Y308691D01*
X474706Y312433D01*
X476634Y314361D01*
X476645Y314377D01*
X476661Y314390D01*
X476692Y314438D01*
X476700Y314446D01*
X476707Y314462D01*
X476717Y314477D01*
X476777Y314561D01*
X476783Y314580D01*
X476794Y314597D01*
X476819Y314697D01*
X476850Y314796D01*
X476849Y314816D01*
X476854Y314835D01*
X476846Y314938D01*
X476843Y315042D01*
X476836Y315061D01*
X476835Y315080D01*
X476794Y315175D01*
X476759Y315273D01*
X476746Y315288D01*
X476739Y315307D01*
X476634Y315438D01*
X476307Y315764D01*
X476307Y319506D01*
X478953Y322152D01*
X482695Y322152D01*
X485341Y319506D01*
X485341Y317949D01*
X485355Y317859D01*
X485363Y317768D01*
X485375Y317739D01*
X485380Y317707D01*
X485423Y317626D01*
X485459Y317542D01*
X485485Y317510D01*
X485496Y317489D01*
X485519Y317467D01*
X485564Y317411D01*
X498603Y304372D01*
X498603Y183816D01*
X494706Y179919D01*
X494653Y179845D01*
X494593Y179776D01*
X494581Y179745D01*
X494562Y179719D01*
X494535Y179632D01*
X494528Y179614D01*
X494511Y179577D01*
X494510Y179569D01*
X494501Y179547D01*
X494497Y179506D01*
X494490Y179484D01*
X494491Y179452D01*
X494483Y179381D01*
X494483Y176183D01*
X491837Y173537D01*
X488095Y173537D01*
G37*
%LPD*%
%LPC*%
G36*
X404909Y136453D02*
X404909Y136453D01*
X402263Y139099D01*
X402263Y142841D01*
X404909Y145487D01*
X408107Y145487D01*
X408197Y145501D01*
X408288Y145509D01*
X408317Y145521D01*
X408349Y145526D01*
X408430Y145569D01*
X408514Y145605D01*
X408546Y145631D01*
X408567Y145642D01*
X408589Y145665D01*
X408645Y145710D01*
X427751Y164816D01*
X427804Y164890D01*
X427864Y164959D01*
X427876Y164990D01*
X427895Y165016D01*
X427922Y165103D01*
X427956Y165188D01*
X427960Y165229D01*
X427967Y165251D01*
X427966Y165283D01*
X427974Y165354D01*
X427974Y354133D01*
X427960Y354223D01*
X427952Y354314D01*
X427940Y354344D01*
X427935Y354376D01*
X427892Y354456D01*
X427856Y354540D01*
X427830Y354572D01*
X427819Y354593D01*
X427796Y354615D01*
X427751Y354671D01*
X426785Y355637D01*
X426769Y355649D01*
X426757Y355664D01*
X426669Y355721D01*
X426586Y355781D01*
X426567Y355787D01*
X426550Y355797D01*
X426449Y355823D01*
X426351Y355853D01*
X426331Y355853D01*
X426311Y355857D01*
X426208Y355849D01*
X426105Y355847D01*
X426086Y355840D01*
X426066Y355838D01*
X425971Y355798D01*
X425874Y355762D01*
X425858Y355750D01*
X425840Y355742D01*
X425709Y355637D01*
X424386Y354314D01*
X420644Y354314D01*
X417998Y356960D01*
X417998Y360702D01*
X420644Y363348D01*
X423897Y363348D01*
X423987Y363362D01*
X424078Y363370D01*
X424108Y363382D01*
X424140Y363387D01*
X424221Y363430D01*
X424304Y363466D01*
X424337Y363492D01*
X424357Y363503D01*
X424379Y363526D01*
X424435Y363571D01*
X426979Y366114D01*
X433035Y366114D01*
X436229Y362920D01*
X437643Y361507D01*
X437643Y154478D01*
X426000Y142835D01*
X425947Y142761D01*
X425887Y142692D01*
X425875Y142661D01*
X425856Y142635D01*
X425829Y142548D01*
X425795Y142463D01*
X425791Y142422D01*
X425784Y142400D01*
X425785Y142368D01*
X425777Y142297D01*
X425777Y139099D01*
X423131Y136453D01*
X419389Y136453D01*
X416743Y139099D01*
X416743Y142841D01*
X419389Y145487D01*
X422587Y145487D01*
X422677Y145501D01*
X422768Y145509D01*
X422797Y145521D01*
X422829Y145526D01*
X422910Y145569D01*
X422994Y145605D01*
X423026Y145631D01*
X423047Y145642D01*
X423069Y145665D01*
X423125Y145710D01*
X433354Y155939D01*
X433407Y156013D01*
X433467Y156082D01*
X433479Y156113D01*
X433498Y156139D01*
X433525Y156226D01*
X433559Y156311D01*
X433563Y156352D01*
X433570Y156374D01*
X433569Y156406D01*
X433577Y156477D01*
X433577Y354148D01*
X433566Y354219D01*
X433564Y354291D01*
X433546Y354340D01*
X433538Y354391D01*
X433504Y354455D01*
X433479Y354522D01*
X433447Y354563D01*
X433422Y354608D01*
X433370Y354658D01*
X433325Y354714D01*
X433282Y354742D01*
X433244Y354778D01*
X433179Y354808D01*
X433118Y354847D01*
X433068Y354859D01*
X433021Y354881D01*
X432949Y354889D01*
X432879Y354907D01*
X432828Y354903D01*
X432777Y354908D01*
X432706Y354893D01*
X432634Y354887D01*
X432587Y354867D01*
X432536Y354856D01*
X432474Y354819D01*
X432408Y354791D01*
X432353Y354746D01*
X432325Y354730D01*
X432314Y354717D01*
X432310Y354715D01*
X432303Y354706D01*
X432277Y354686D01*
X432262Y354671D01*
X432209Y354597D01*
X432150Y354528D01*
X432138Y354497D01*
X432119Y354471D01*
X432092Y354384D01*
X432058Y354300D01*
X432054Y354258D01*
X432047Y354236D01*
X432048Y354204D01*
X432040Y354133D01*
X432040Y163355D01*
X411520Y142835D01*
X411467Y142761D01*
X411407Y142692D01*
X411395Y142661D01*
X411376Y142635D01*
X411349Y142548D01*
X411315Y142463D01*
X411311Y142422D01*
X411304Y142400D01*
X411305Y142368D01*
X411297Y142297D01*
X411297Y139099D01*
X408651Y136453D01*
X404909Y136453D01*
G37*
%LPD*%
%LPC*%
G36*
X47617Y591049D02*
X47617Y591049D01*
X41736Y593485D01*
X37235Y597986D01*
X34799Y603867D01*
X34799Y610233D01*
X37235Y616114D01*
X41736Y620615D01*
X47617Y623051D01*
X53983Y623051D01*
X59864Y620615D01*
X64365Y616114D01*
X66801Y610233D01*
X66801Y603867D01*
X64365Y597986D01*
X59864Y593485D01*
X53983Y591049D01*
X47617Y591049D01*
G37*
%LPD*%
%LPC*%
G36*
X47617Y11949D02*
X47617Y11949D01*
X41736Y14385D01*
X37235Y18886D01*
X34799Y24767D01*
X34799Y31133D01*
X37235Y37014D01*
X41736Y41515D01*
X47617Y43951D01*
X53983Y43951D01*
X59864Y41515D01*
X64365Y37014D01*
X66801Y31133D01*
X66801Y24767D01*
X64365Y18886D01*
X59864Y14385D01*
X53983Y11949D01*
X47617Y11949D01*
G37*
%LPD*%
%LPC*%
G36*
X581023Y591089D02*
X581023Y591089D01*
X575153Y593521D01*
X570661Y598013D01*
X568229Y603883D01*
X568229Y610237D01*
X570661Y616107D01*
X575153Y620599D01*
X581023Y623031D01*
X587377Y623031D01*
X593247Y620599D01*
X597739Y616107D01*
X600171Y610237D01*
X600171Y603883D01*
X597739Y598013D01*
X593247Y593521D01*
X587377Y591089D01*
X581023Y591089D01*
G37*
%LPD*%
%LPC*%
G36*
X136523Y591089D02*
X136523Y591089D01*
X130653Y593521D01*
X126161Y598013D01*
X123729Y603883D01*
X123729Y610237D01*
X126161Y616107D01*
X130653Y620599D01*
X136523Y623031D01*
X142877Y623031D01*
X148747Y620599D01*
X153239Y616107D01*
X155671Y610237D01*
X155671Y603883D01*
X153239Y598013D01*
X148747Y593521D01*
X142877Y591089D01*
X136523Y591089D01*
G37*
%LPD*%
%LPC*%
G36*
X136523Y11969D02*
X136523Y11969D01*
X130653Y14401D01*
X126161Y18893D01*
X123729Y24763D01*
X123729Y31117D01*
X126161Y36987D01*
X130653Y41479D01*
X136523Y43911D01*
X142877Y43911D01*
X148747Y41479D01*
X153239Y36987D01*
X155671Y31117D01*
X155671Y24763D01*
X153239Y18893D01*
X148747Y14401D01*
X142877Y11969D01*
X136523Y11969D01*
G37*
%LPD*%
%LPC*%
G36*
X581023Y11969D02*
X581023Y11969D01*
X575153Y14401D01*
X570661Y18893D01*
X568229Y24763D01*
X568229Y31117D01*
X570661Y36987D01*
X575153Y41479D01*
X581023Y43911D01*
X587377Y43911D01*
X593247Y41479D01*
X597739Y36987D01*
X600171Y31117D01*
X600171Y24763D01*
X597739Y18893D01*
X593247Y14401D01*
X587377Y11969D01*
X581023Y11969D01*
G37*
%LPD*%
%LPC*%
G36*
X417229Y249483D02*
X417229Y249483D01*
X414583Y252129D01*
X414583Y255327D01*
X414569Y255417D01*
X414561Y255508D01*
X414549Y255537D01*
X414544Y255569D01*
X414501Y255650D01*
X414465Y255734D01*
X414439Y255766D01*
X414428Y255787D01*
X414405Y255809D01*
X414360Y255865D01*
X384309Y285917D01*
X384293Y285928D01*
X384280Y285944D01*
X384193Y286000D01*
X384109Y286060D01*
X384090Y286066D01*
X384073Y286077D01*
X383973Y286102D01*
X383874Y286132D01*
X383854Y286132D01*
X383835Y286137D01*
X383732Y286129D01*
X383628Y286126D01*
X383609Y286119D01*
X383589Y286118D01*
X383495Y286077D01*
X383397Y286042D01*
X383381Y286029D01*
X383363Y286021D01*
X383232Y285917D01*
X381521Y284205D01*
X377779Y284205D01*
X375133Y286851D01*
X375133Y290593D01*
X377093Y292553D01*
X377146Y292627D01*
X377206Y292696D01*
X377218Y292727D01*
X377237Y292753D01*
X377264Y292840D01*
X377298Y292925D01*
X377302Y292965D01*
X377309Y292988D01*
X377308Y293020D01*
X377316Y293091D01*
X377316Y353851D01*
X377302Y353941D01*
X377294Y354032D01*
X377282Y354062D01*
X377277Y354094D01*
X377234Y354174D01*
X377198Y354258D01*
X377172Y354290D01*
X377161Y354311D01*
X377138Y354333D01*
X377093Y354389D01*
X376483Y354999D01*
X376483Y358741D01*
X379129Y361387D01*
X382871Y361387D01*
X385517Y358741D01*
X385517Y354999D01*
X382869Y352352D01*
X382866Y352352D01*
X382764Y352330D01*
X382662Y352314D01*
X382645Y352304D01*
X382625Y352300D01*
X382536Y352247D01*
X382445Y352198D01*
X382431Y352184D01*
X382414Y352174D01*
X382347Y352095D01*
X382275Y352020D01*
X382267Y352002D01*
X382254Y351987D01*
X382215Y351891D01*
X382172Y351797D01*
X382170Y351777D01*
X382162Y351759D01*
X382144Y351592D01*
X382144Y292931D01*
X382158Y292841D01*
X382166Y292750D01*
X382178Y292720D01*
X382183Y292688D01*
X382226Y292608D01*
X382262Y292524D01*
X382288Y292492D01*
X382299Y292471D01*
X382322Y292449D01*
X382367Y292393D01*
X383702Y291058D01*
X383776Y291005D01*
X383845Y290945D01*
X383876Y290933D01*
X383902Y290914D01*
X383989Y290887D01*
X384074Y290853D01*
X384114Y290849D01*
X384137Y290842D01*
X384169Y290843D01*
X384240Y290835D01*
X385140Y290835D01*
X417235Y258740D01*
X417309Y258687D01*
X417378Y258627D01*
X417409Y258615D01*
X417435Y258596D01*
X417522Y258569D01*
X417607Y258535D01*
X417648Y258531D01*
X417670Y258524D01*
X417702Y258525D01*
X417773Y258517D01*
X420971Y258517D01*
X423617Y255871D01*
X423617Y252129D01*
X420971Y249483D01*
X417229Y249483D01*
G37*
%LPD*%
%LPC*%
G36*
X77733Y175617D02*
X77733Y175617D01*
X74597Y176916D01*
X72196Y179317D01*
X70897Y182453D01*
X70897Y185847D01*
X72196Y188983D01*
X74597Y191384D01*
X77733Y192683D01*
X81127Y192683D01*
X84263Y191384D01*
X86701Y188946D01*
X86775Y188893D01*
X86845Y188833D01*
X86875Y188821D01*
X86901Y188802D01*
X86988Y188775D01*
X87073Y188741D01*
X87114Y188737D01*
X87136Y188730D01*
X87168Y188731D01*
X87240Y188723D01*
X176940Y188723D01*
X177030Y188737D01*
X177121Y188745D01*
X177151Y188757D01*
X177183Y188762D01*
X177263Y188805D01*
X177347Y188841D01*
X177379Y188867D01*
X177400Y188878D01*
X177422Y188901D01*
X177478Y188946D01*
X179739Y191207D01*
X183481Y191207D01*
X186127Y188561D01*
X186127Y184819D01*
X183481Y182173D01*
X179739Y182173D01*
X177478Y184434D01*
X177404Y184487D01*
X177335Y184547D01*
X177304Y184559D01*
X177278Y184578D01*
X177191Y184605D01*
X177106Y184639D01*
X177066Y184643D01*
X177043Y184650D01*
X177011Y184649D01*
X176940Y184657D01*
X88724Y184657D01*
X88704Y184654D01*
X88685Y184656D01*
X88583Y184634D01*
X88481Y184618D01*
X88464Y184608D01*
X88444Y184604D01*
X88355Y184551D01*
X88264Y184502D01*
X88250Y184488D01*
X88233Y184478D01*
X88166Y184399D01*
X88094Y184324D01*
X88086Y184306D01*
X88073Y184291D01*
X88034Y184195D01*
X87991Y184101D01*
X87989Y184081D01*
X87981Y184063D01*
X87963Y183896D01*
X87963Y182453D01*
X86664Y179317D01*
X84263Y176916D01*
X81127Y175617D01*
X77733Y175617D01*
G37*
%LPD*%
%LPC*%
G36*
X366705Y284205D02*
X366705Y284205D01*
X364060Y286851D01*
X364060Y290593D01*
X366321Y292854D01*
X366374Y292928D01*
X366433Y292997D01*
X366445Y293028D01*
X366464Y293054D01*
X366491Y293141D01*
X366525Y293226D01*
X366530Y293266D01*
X366536Y293289D01*
X366536Y293321D01*
X366544Y293392D01*
X366544Y414154D01*
X366529Y414244D01*
X366522Y414335D01*
X366509Y414364D01*
X366504Y414396D01*
X366461Y414477D01*
X366425Y414561D01*
X366400Y414593D01*
X366389Y414614D01*
X366365Y414636D01*
X366321Y414692D01*
X363783Y417229D01*
X363783Y420971D01*
X366429Y423617D01*
X370171Y423617D01*
X372817Y420971D01*
X372817Y417229D01*
X370832Y415244D01*
X370779Y415170D01*
X370719Y415101D01*
X370707Y415071D01*
X370688Y415045D01*
X370662Y414958D01*
X370627Y414873D01*
X370623Y414832D01*
X370616Y414809D01*
X370617Y414777D01*
X370609Y414706D01*
X370609Y293392D01*
X370624Y293302D01*
X370631Y293211D01*
X370643Y293181D01*
X370649Y293149D01*
X370691Y293069D01*
X370727Y292985D01*
X370753Y292953D01*
X370764Y292932D01*
X370787Y292910D01*
X370832Y292854D01*
X373093Y290593D01*
X373093Y286851D01*
X370447Y284205D01*
X366705Y284205D01*
G37*
%LPD*%
%LPC*%
G36*
X480729Y325683D02*
X480729Y325683D01*
X478083Y328329D01*
X478083Y330988D01*
X478069Y331078D01*
X478061Y331169D01*
X478049Y331199D01*
X478044Y331231D01*
X478001Y331311D01*
X477965Y331395D01*
X477939Y331427D01*
X477928Y331448D01*
X477905Y331470D01*
X477860Y331526D01*
X437326Y372060D01*
X437326Y397911D01*
X437312Y398001D01*
X437304Y398092D01*
X437292Y398122D01*
X437287Y398154D01*
X437244Y398234D01*
X437208Y398318D01*
X437182Y398350D01*
X437171Y398371D01*
X437148Y398393D01*
X437103Y398449D01*
X435223Y400329D01*
X435223Y404071D01*
X437869Y406717D01*
X441611Y406717D01*
X444257Y404071D01*
X444257Y400329D01*
X442377Y398449D01*
X442324Y398375D01*
X442264Y398306D01*
X442252Y398275D01*
X442233Y398249D01*
X442206Y398162D01*
X442172Y398077D01*
X442168Y398037D01*
X442161Y398014D01*
X442162Y397982D01*
X442154Y397911D01*
X442154Y374375D01*
X442168Y374285D01*
X442176Y374194D01*
X442188Y374164D01*
X442193Y374132D01*
X442236Y374052D01*
X442272Y373968D01*
X442298Y373936D01*
X442309Y373915D01*
X442332Y373893D01*
X442377Y373837D01*
X481274Y334940D01*
X481348Y334887D01*
X481417Y334827D01*
X481447Y334815D01*
X481474Y334796D01*
X481561Y334769D01*
X481645Y334735D01*
X481686Y334731D01*
X481709Y334724D01*
X481741Y334725D01*
X481812Y334717D01*
X484471Y334717D01*
X487117Y332071D01*
X487117Y328329D01*
X484471Y325683D01*
X480729Y325683D01*
G37*
%LPD*%
%LPC*%
G36*
X366376Y71556D02*
X366376Y71556D01*
X363656Y74276D01*
X363656Y78124D01*
X366376Y80844D01*
X370224Y80844D01*
X371342Y79726D01*
X371415Y79673D01*
X371485Y79613D01*
X371515Y79601D01*
X371541Y79582D01*
X371628Y79555D01*
X371713Y79521D01*
X371754Y79517D01*
X371776Y79510D01*
X371809Y79511D01*
X371880Y79503D01*
X412980Y79503D01*
X413070Y79517D01*
X413161Y79525D01*
X413191Y79537D01*
X413223Y79542D01*
X413304Y79585D01*
X413387Y79621D01*
X413420Y79647D01*
X413440Y79658D01*
X413462Y79681D01*
X413518Y79726D01*
X414636Y80844D01*
X418484Y80844D01*
X421204Y78124D01*
X421204Y74276D01*
X418484Y71556D01*
X414636Y71556D01*
X413518Y72674D01*
X413445Y72727D01*
X413375Y72787D01*
X413345Y72799D01*
X413319Y72818D01*
X413232Y72845D01*
X413147Y72879D01*
X413106Y72883D01*
X413084Y72890D01*
X413051Y72889D01*
X412980Y72897D01*
X371880Y72897D01*
X371790Y72883D01*
X371699Y72875D01*
X371669Y72863D01*
X371637Y72858D01*
X371556Y72815D01*
X371473Y72779D01*
X371440Y72753D01*
X371420Y72742D01*
X371398Y72719D01*
X371342Y72674D01*
X370224Y71556D01*
X366376Y71556D01*
G37*
%LPD*%
%LPC*%
G36*
X351825Y575087D02*
X351825Y575087D01*
X346487Y580425D01*
X346487Y587975D01*
X351825Y593313D01*
X359375Y593313D01*
X364713Y587975D01*
X364713Y580425D01*
X359375Y575087D01*
X351825Y575087D01*
G37*
%LPD*%
%LPC*%
G36*
X428025Y575087D02*
X428025Y575087D01*
X422687Y580425D01*
X422687Y587975D01*
X428025Y593313D01*
X435575Y593313D01*
X440913Y587975D01*
X440913Y580425D01*
X435575Y575087D01*
X428025Y575087D01*
G37*
%LPD*%
%LPC*%
G36*
X326425Y575087D02*
X326425Y575087D01*
X321087Y580425D01*
X321087Y587975D01*
X326425Y593313D01*
X333975Y593313D01*
X339313Y587975D01*
X339313Y580425D01*
X333975Y575087D01*
X326425Y575087D01*
G37*
%LPD*%
%LPC*%
G36*
X377225Y575087D02*
X377225Y575087D01*
X371887Y580425D01*
X371887Y587975D01*
X377225Y593313D01*
X384775Y593313D01*
X390113Y587975D01*
X390113Y580425D01*
X384775Y575087D01*
X377225Y575087D01*
G37*
%LPD*%
%LPC*%
G36*
X453425Y575087D02*
X453425Y575087D01*
X448087Y580425D01*
X448087Y587975D01*
X453425Y593313D01*
X460975Y593313D01*
X466313Y587975D01*
X466313Y580425D01*
X460975Y575087D01*
X453425Y575087D01*
G37*
%LPD*%
%LPC*%
G36*
X77733Y277217D02*
X77733Y277217D01*
X74597Y278516D01*
X72196Y280917D01*
X70897Y284053D01*
X70897Y287447D01*
X72196Y290583D01*
X74597Y292984D01*
X77733Y294283D01*
X81127Y294283D01*
X84263Y292984D01*
X86664Y290583D01*
X87963Y287447D01*
X87963Y284053D01*
X86664Y280917D01*
X84263Y278516D01*
X81127Y277217D01*
X77733Y277217D01*
G37*
%LPD*%
%LPC*%
G36*
X20433Y264517D02*
X20433Y264517D01*
X17297Y265816D01*
X14896Y268217D01*
X13597Y271353D01*
X13597Y274747D01*
X14896Y277883D01*
X17297Y280284D01*
X20433Y281583D01*
X23827Y281583D01*
X26963Y280284D01*
X29364Y277883D01*
X30663Y274747D01*
X30663Y271353D01*
X29364Y268217D01*
X26963Y265816D01*
X23827Y264517D01*
X20433Y264517D01*
G37*
%LPD*%
%LPC*%
G36*
X58633Y264517D02*
X58633Y264517D01*
X55497Y265816D01*
X53096Y268217D01*
X51797Y271353D01*
X51797Y274747D01*
X53096Y277883D01*
X55497Y280284D01*
X58633Y281583D01*
X62027Y281583D01*
X65163Y280284D01*
X67564Y277883D01*
X68863Y274747D01*
X68863Y271353D01*
X67564Y268217D01*
X65163Y265816D01*
X62027Y264517D01*
X58633Y264517D01*
G37*
%LPD*%
%LPC*%
G36*
X77733Y251817D02*
X77733Y251817D01*
X74597Y253116D01*
X72196Y255517D01*
X70897Y258653D01*
X70897Y262047D01*
X72196Y265183D01*
X74597Y267584D01*
X77733Y268883D01*
X81127Y268883D01*
X84263Y267584D01*
X86664Y265183D01*
X87963Y262047D01*
X87963Y258653D01*
X86664Y255517D01*
X84263Y253116D01*
X81127Y251817D01*
X77733Y251817D01*
G37*
%LPD*%
%LPC*%
G36*
X39533Y251817D02*
X39533Y251817D01*
X36397Y253116D01*
X33996Y255517D01*
X32697Y258653D01*
X32697Y262047D01*
X33996Y265183D01*
X36397Y267584D01*
X39533Y268883D01*
X42927Y268883D01*
X46063Y267584D01*
X48464Y265183D01*
X49763Y262047D01*
X49763Y258653D01*
X48464Y255517D01*
X46063Y253116D01*
X42927Y251817D01*
X39533Y251817D01*
G37*
%LPD*%
%LPC*%
G36*
X58633Y239117D02*
X58633Y239117D01*
X55497Y240416D01*
X53096Y242817D01*
X51797Y245953D01*
X51797Y249347D01*
X53096Y252483D01*
X55497Y254884D01*
X58633Y256183D01*
X62027Y256183D01*
X65163Y254884D01*
X67564Y252483D01*
X68863Y249347D01*
X68863Y245953D01*
X67564Y242817D01*
X65163Y240416D01*
X62027Y239117D01*
X58633Y239117D01*
G37*
%LPD*%
%LPC*%
G36*
X39533Y226417D02*
X39533Y226417D01*
X36397Y227716D01*
X33996Y230117D01*
X32697Y233253D01*
X32697Y236647D01*
X33996Y239783D01*
X36397Y242184D01*
X39533Y243483D01*
X42927Y243483D01*
X46063Y242184D01*
X48464Y239783D01*
X49763Y236647D01*
X49763Y233253D01*
X48464Y230117D01*
X46063Y227716D01*
X42927Y226417D01*
X39533Y226417D01*
G37*
%LPD*%
%LPC*%
G36*
X77733Y226417D02*
X77733Y226417D01*
X74597Y227716D01*
X72196Y230117D01*
X70897Y233253D01*
X70897Y236647D01*
X72196Y239783D01*
X74597Y242184D01*
X77733Y243483D01*
X81127Y243483D01*
X84263Y242184D01*
X86664Y239783D01*
X87963Y236647D01*
X87963Y233253D01*
X86664Y230117D01*
X84263Y227716D01*
X81127Y226417D01*
X77733Y226417D01*
G37*
%LPD*%
%LPC*%
G36*
X20433Y213717D02*
X20433Y213717D01*
X17297Y215016D01*
X14896Y217417D01*
X13597Y220553D01*
X13597Y223947D01*
X14896Y227083D01*
X17297Y229484D01*
X20433Y230783D01*
X23827Y230783D01*
X26963Y229484D01*
X29364Y227083D01*
X30663Y223947D01*
X30663Y220553D01*
X29364Y217417D01*
X26963Y215016D01*
X23827Y213717D01*
X20433Y213717D01*
G37*
%LPD*%
%LPC*%
G36*
X20433Y188317D02*
X20433Y188317D01*
X17297Y189616D01*
X14896Y192017D01*
X13597Y195153D01*
X13597Y198547D01*
X14896Y201683D01*
X17297Y204084D01*
X20433Y205383D01*
X23827Y205383D01*
X26963Y204084D01*
X29364Y201683D01*
X30663Y198547D01*
X30663Y195153D01*
X29364Y192017D01*
X26963Y189616D01*
X23827Y188317D01*
X20433Y188317D01*
G37*
%LPD*%
%LPC*%
G36*
X58633Y188317D02*
X58633Y188317D01*
X55497Y189616D01*
X53096Y192017D01*
X51797Y195153D01*
X51797Y198547D01*
X53096Y201683D01*
X55497Y204084D01*
X58633Y205383D01*
X62027Y205383D01*
X65163Y204084D01*
X67564Y201683D01*
X68863Y198547D01*
X68863Y195153D01*
X67564Y192017D01*
X65163Y189616D01*
X62027Y188317D01*
X58633Y188317D01*
G37*
%LPD*%
%LPC*%
G36*
X39533Y175617D02*
X39533Y175617D01*
X36397Y176916D01*
X33996Y179317D01*
X32697Y182453D01*
X32697Y185847D01*
X33996Y188983D01*
X36397Y191384D01*
X39533Y192683D01*
X42927Y192683D01*
X46063Y191384D01*
X48464Y188983D01*
X49763Y185847D01*
X49763Y182453D01*
X48464Y179317D01*
X46063Y176916D01*
X42927Y175617D01*
X39533Y175617D01*
G37*
%LPD*%
%LPC*%
G36*
X58633Y162917D02*
X58633Y162917D01*
X55497Y164216D01*
X53096Y166617D01*
X51797Y169753D01*
X51797Y173147D01*
X53096Y176283D01*
X55497Y178684D01*
X58633Y179983D01*
X62027Y179983D01*
X65163Y178684D01*
X67564Y176283D01*
X68863Y173147D01*
X68863Y169753D01*
X67564Y166617D01*
X65163Y164216D01*
X62027Y162917D01*
X58633Y162917D01*
G37*
%LPD*%
%LPC*%
G36*
X20433Y162917D02*
X20433Y162917D01*
X17297Y164216D01*
X14896Y166617D01*
X13597Y169753D01*
X13597Y173147D01*
X14896Y176283D01*
X17297Y178684D01*
X20433Y179983D01*
X23827Y179983D01*
X26963Y178684D01*
X29364Y176283D01*
X30663Y173147D01*
X30663Y169753D01*
X29364Y166617D01*
X26963Y164216D01*
X23827Y162917D01*
X20433Y162917D01*
G37*
%LPD*%
%LPC*%
G36*
X20433Y137517D02*
X20433Y137517D01*
X17297Y138816D01*
X14896Y141217D01*
X13597Y144353D01*
X13597Y147747D01*
X14896Y150883D01*
X17297Y153284D01*
X20433Y154583D01*
X23827Y154583D01*
X26963Y153284D01*
X29364Y150883D01*
X30663Y147747D01*
X30663Y144353D01*
X29364Y141217D01*
X26963Y138816D01*
X23827Y137517D01*
X20433Y137517D01*
G37*
%LPD*%
%LPC*%
G36*
X39533Y124817D02*
X39533Y124817D01*
X36397Y126116D01*
X33996Y128517D01*
X32697Y131653D01*
X32697Y135047D01*
X33996Y138183D01*
X36397Y140584D01*
X39533Y141883D01*
X42927Y141883D01*
X46063Y140584D01*
X48464Y138183D01*
X49763Y135047D01*
X49763Y131653D01*
X48464Y128517D01*
X46063Y126116D01*
X42927Y124817D01*
X39533Y124817D01*
G37*
%LPD*%
%LPC*%
G36*
X77733Y124817D02*
X77733Y124817D01*
X74597Y126116D01*
X72196Y128517D01*
X70897Y131653D01*
X70897Y135047D01*
X72196Y138183D01*
X74597Y140584D01*
X77733Y141883D01*
X81127Y141883D01*
X84263Y140584D01*
X86664Y138183D01*
X87963Y135047D01*
X87963Y131653D01*
X86664Y128517D01*
X84263Y126116D01*
X81127Y124817D01*
X77733Y124817D01*
G37*
%LPD*%
%LPC*%
G36*
X39533Y505817D02*
X39533Y505817D01*
X36397Y507116D01*
X33996Y509517D01*
X32697Y512653D01*
X32697Y516047D01*
X33996Y519183D01*
X36397Y521584D01*
X39533Y522883D01*
X42927Y522883D01*
X46063Y521584D01*
X48464Y519183D01*
X49763Y516047D01*
X49763Y512653D01*
X48464Y509517D01*
X46063Y507116D01*
X42927Y505817D01*
X39533Y505817D01*
G37*
%LPD*%
%LPC*%
G36*
X20433Y493117D02*
X20433Y493117D01*
X17297Y494416D01*
X14896Y496817D01*
X13597Y499953D01*
X13597Y503347D01*
X14896Y506483D01*
X17297Y508884D01*
X20433Y510183D01*
X23827Y510183D01*
X26963Y508884D01*
X29364Y506483D01*
X30663Y503347D01*
X30663Y499953D01*
X29364Y496817D01*
X26963Y494416D01*
X23827Y493117D01*
X20433Y493117D01*
G37*
%LPD*%
%LPC*%
G36*
X39533Y480417D02*
X39533Y480417D01*
X36397Y481716D01*
X33996Y484117D01*
X32697Y487253D01*
X32697Y490647D01*
X33996Y493783D01*
X36397Y496184D01*
X39533Y497483D01*
X42927Y497483D01*
X46063Y496184D01*
X48464Y493783D01*
X49763Y490647D01*
X49763Y487253D01*
X48464Y484117D01*
X46063Y481716D01*
X42927Y480417D01*
X39533Y480417D01*
G37*
%LPD*%
%LPC*%
G36*
X20433Y467717D02*
X20433Y467717D01*
X17297Y469016D01*
X14896Y471417D01*
X13597Y474553D01*
X13597Y477947D01*
X14896Y481083D01*
X17297Y483484D01*
X20433Y484783D01*
X23827Y484783D01*
X26963Y483484D01*
X29364Y481083D01*
X30663Y477947D01*
X30663Y474553D01*
X29364Y471417D01*
X26963Y469016D01*
X23827Y467717D01*
X20433Y467717D01*
G37*
%LPD*%
%LPC*%
G36*
X39533Y455017D02*
X39533Y455017D01*
X36397Y456316D01*
X33996Y458717D01*
X32697Y461853D01*
X32697Y465247D01*
X33996Y468383D01*
X36397Y470784D01*
X39533Y472083D01*
X42927Y472083D01*
X46063Y470784D01*
X48464Y468383D01*
X49763Y465247D01*
X49763Y461853D01*
X48464Y458717D01*
X46063Y456316D01*
X42927Y455017D01*
X39533Y455017D01*
G37*
%LPD*%
%LPC*%
G36*
X20433Y442317D02*
X20433Y442317D01*
X17297Y443616D01*
X14896Y446017D01*
X13597Y449153D01*
X13597Y452547D01*
X14896Y455683D01*
X17297Y458084D01*
X20433Y459383D01*
X23827Y459383D01*
X26963Y458084D01*
X29364Y455683D01*
X30663Y452547D01*
X30663Y449153D01*
X29364Y446017D01*
X26963Y443616D01*
X23827Y442317D01*
X20433Y442317D01*
G37*
%LPD*%
%LPC*%
G36*
X39533Y429617D02*
X39533Y429617D01*
X36397Y430916D01*
X33996Y433317D01*
X32697Y436453D01*
X32697Y439847D01*
X33996Y442983D01*
X36397Y445384D01*
X39533Y446683D01*
X42927Y446683D01*
X46063Y445384D01*
X48464Y442983D01*
X49763Y439847D01*
X49763Y436453D01*
X48464Y433317D01*
X46063Y430916D01*
X42927Y429617D01*
X39533Y429617D01*
G37*
%LPD*%
%LPC*%
G36*
X20433Y416917D02*
X20433Y416917D01*
X17297Y418216D01*
X14896Y420617D01*
X13597Y423753D01*
X13597Y427147D01*
X14896Y430283D01*
X17297Y432684D01*
X20433Y433983D01*
X23827Y433983D01*
X26963Y432684D01*
X29364Y430283D01*
X30663Y427147D01*
X30663Y423753D01*
X29364Y420617D01*
X26963Y418216D01*
X23827Y416917D01*
X20433Y416917D01*
G37*
%LPD*%
%LPC*%
G36*
X39533Y404217D02*
X39533Y404217D01*
X36397Y405516D01*
X33996Y407917D01*
X32697Y411053D01*
X32697Y414447D01*
X33996Y417583D01*
X36397Y419984D01*
X39533Y421283D01*
X42927Y421283D01*
X46063Y419984D01*
X48464Y417583D01*
X49763Y414447D01*
X49763Y411053D01*
X48464Y407917D01*
X46063Y405516D01*
X42927Y404217D01*
X39533Y404217D01*
G37*
%LPD*%
%LPC*%
G36*
X20433Y391517D02*
X20433Y391517D01*
X17297Y392816D01*
X14896Y395217D01*
X13597Y398353D01*
X13597Y401747D01*
X14896Y404883D01*
X17297Y407284D01*
X20433Y408583D01*
X23827Y408583D01*
X26963Y407284D01*
X29364Y404883D01*
X30663Y401747D01*
X30663Y398353D01*
X29364Y395217D01*
X26963Y392816D01*
X23827Y391517D01*
X20433Y391517D01*
G37*
%LPD*%
%LPC*%
G36*
X39533Y378817D02*
X39533Y378817D01*
X36397Y380116D01*
X33996Y382517D01*
X32697Y385653D01*
X32697Y389047D01*
X33996Y392183D01*
X36397Y394584D01*
X39533Y395883D01*
X42927Y395883D01*
X46063Y394584D01*
X48464Y392183D01*
X49763Y389047D01*
X49763Y385653D01*
X48464Y382517D01*
X46063Y380116D01*
X42927Y378817D01*
X39533Y378817D01*
G37*
%LPD*%
%LPC*%
G36*
X20433Y366117D02*
X20433Y366117D01*
X17297Y367416D01*
X14896Y369817D01*
X13597Y372953D01*
X13597Y376347D01*
X14896Y379483D01*
X17297Y381884D01*
X20433Y383183D01*
X23827Y383183D01*
X26963Y381884D01*
X29364Y379483D01*
X30663Y376347D01*
X30663Y372953D01*
X29364Y369817D01*
X26963Y367416D01*
X23827Y366117D01*
X20433Y366117D01*
G37*
%LPD*%
%LPC*%
G36*
X39533Y353417D02*
X39533Y353417D01*
X36397Y354716D01*
X33996Y357117D01*
X32697Y360253D01*
X32697Y363647D01*
X33996Y366783D01*
X36397Y369184D01*
X39533Y370483D01*
X42927Y370483D01*
X46063Y369184D01*
X48464Y366783D01*
X49763Y363647D01*
X49763Y360253D01*
X48464Y357117D01*
X46063Y354716D01*
X42927Y353417D01*
X39533Y353417D01*
G37*
%LPD*%
%LPC*%
G36*
X20433Y340717D02*
X20433Y340717D01*
X17297Y342016D01*
X14896Y344417D01*
X13597Y347553D01*
X13597Y350947D01*
X14896Y354083D01*
X17297Y356484D01*
X20433Y357783D01*
X23827Y357783D01*
X26963Y356484D01*
X29364Y354083D01*
X30663Y350947D01*
X30663Y347553D01*
X29364Y344417D01*
X26963Y342016D01*
X23827Y340717D01*
X20433Y340717D01*
G37*
%LPD*%
%LPC*%
G36*
X58633Y340717D02*
X58633Y340717D01*
X55497Y342016D01*
X53096Y344417D01*
X51797Y347553D01*
X51797Y350947D01*
X53096Y354083D01*
X55497Y356484D01*
X58633Y357783D01*
X62027Y357783D01*
X65163Y356484D01*
X67564Y354083D01*
X68863Y350947D01*
X68863Y347553D01*
X67564Y344417D01*
X65163Y342016D01*
X62027Y340717D01*
X58633Y340717D01*
G37*
%LPD*%
%LPC*%
G36*
X58633Y112117D02*
X58633Y112117D01*
X55497Y113416D01*
X53096Y115817D01*
X51797Y118953D01*
X51797Y122347D01*
X53096Y125483D01*
X55497Y127884D01*
X58633Y129183D01*
X62027Y129183D01*
X65163Y127884D01*
X67564Y125483D01*
X68863Y122347D01*
X68863Y118953D01*
X67564Y115817D01*
X65163Y113416D01*
X62027Y112117D01*
X58633Y112117D01*
G37*
%LPD*%
%LPC*%
G36*
X20433Y112117D02*
X20433Y112117D01*
X17297Y113416D01*
X14896Y115817D01*
X13597Y118953D01*
X13597Y122347D01*
X14896Y125483D01*
X17297Y127884D01*
X20433Y129183D01*
X23827Y129183D01*
X26963Y127884D01*
X29364Y125483D01*
X30663Y122347D01*
X30663Y118953D01*
X29364Y115817D01*
X26963Y113416D01*
X23827Y112117D01*
X20433Y112117D01*
G37*
%LPD*%
%LPC*%
G36*
X20433Y239117D02*
X20433Y239117D01*
X17297Y240416D01*
X14896Y242817D01*
X13597Y245953D01*
X13597Y249347D01*
X14896Y252483D01*
X17297Y254884D01*
X20433Y256183D01*
X23827Y256183D01*
X26963Y254884D01*
X29364Y252483D01*
X30663Y249347D01*
X30663Y245953D01*
X29364Y242817D01*
X26963Y240416D01*
X23827Y239117D01*
X20433Y239117D01*
G37*
%LPD*%
%LPC*%
G36*
X39533Y277217D02*
X39533Y277217D01*
X36397Y278516D01*
X33996Y280917D01*
X32697Y284053D01*
X32697Y287447D01*
X33996Y290583D01*
X36397Y292984D01*
X39533Y294283D01*
X42927Y294283D01*
X46063Y292984D01*
X48464Y290583D01*
X49763Y287447D01*
X49763Y284053D01*
X48464Y280917D01*
X46063Y278516D01*
X42927Y277217D01*
X39533Y277217D01*
G37*
%LPD*%
%LPC*%
G36*
X351999Y53601D02*
X351999Y53601D01*
X358073Y53601D01*
X358073Y52636D01*
X358084Y52565D01*
X358086Y52494D01*
X358104Y52445D01*
X358112Y52393D01*
X358146Y52330D01*
X358171Y52263D01*
X358203Y52222D01*
X358228Y52176D01*
X358280Y52127D01*
X358324Y52071D01*
X358368Y52043D01*
X358406Y52007D01*
X358471Y51977D01*
X358531Y51938D01*
X358582Y51925D01*
X358629Y51903D01*
X358700Y51895D01*
X358770Y51878D01*
X358822Y51882D01*
X358873Y51876D01*
X358944Y51891D01*
X359015Y51897D01*
X359063Y51917D01*
X359114Y51928D01*
X359175Y51965D01*
X359241Y51993D01*
X359297Y52038D01*
X359325Y52054D01*
X359340Y52072D01*
X359372Y52098D01*
X362625Y55351D01*
X366975Y55351D01*
X370051Y52275D01*
X370051Y47925D01*
X366975Y44849D01*
X362625Y44849D01*
X359549Y47925D01*
X359549Y49016D01*
X359541Y49065D01*
X359543Y49114D01*
X359522Y49185D01*
X359510Y49259D01*
X359487Y49302D01*
X359473Y49349D01*
X359429Y49410D01*
X359394Y49476D01*
X359359Y49510D01*
X359331Y49550D01*
X359270Y49594D01*
X359216Y49646D01*
X359172Y49666D01*
X359132Y49695D01*
X359061Y49718D01*
X358993Y49749D01*
X358944Y49755D01*
X358898Y49770D01*
X358823Y49768D01*
X358749Y49776D01*
X358701Y49766D01*
X358652Y49765D01*
X358581Y49740D01*
X358508Y49724D01*
X358466Y49699D01*
X358420Y49683D01*
X358361Y49636D01*
X358297Y49598D01*
X358265Y49561D01*
X358227Y49530D01*
X358186Y49468D01*
X358137Y49411D01*
X358119Y49366D01*
X358092Y49325D01*
X358054Y49205D01*
X358045Y49183D01*
X358044Y49174D01*
X358041Y49165D01*
X357782Y47859D01*
X357211Y46481D01*
X356382Y45241D01*
X355327Y44186D01*
X354087Y43357D01*
X352709Y42786D01*
X351999Y42645D01*
X351999Y53601D01*
G37*
%LPD*%
%LPC*%
G36*
X434691Y42786D02*
X434691Y42786D01*
X433313Y43357D01*
X432073Y44186D01*
X431018Y45241D01*
X430189Y46481D01*
X429618Y47859D01*
X429359Y49165D01*
X429341Y49211D01*
X429333Y49259D01*
X429298Y49325D01*
X429272Y49395D01*
X429241Y49433D01*
X429218Y49476D01*
X429164Y49528D01*
X429117Y49586D01*
X429076Y49612D01*
X429040Y49646D01*
X428972Y49677D01*
X428909Y49717D01*
X428861Y49729D01*
X428817Y49749D01*
X428743Y49758D01*
X428670Y49775D01*
X428621Y49771D01*
X428573Y49776D01*
X428499Y49760D01*
X428425Y49754D01*
X428380Y49735D01*
X428332Y49724D01*
X428268Y49686D01*
X428199Y49656D01*
X428163Y49623D01*
X428121Y49598D01*
X428072Y49541D01*
X428017Y49491D01*
X427993Y49448D01*
X427961Y49411D01*
X427933Y49342D01*
X427897Y49276D01*
X427888Y49228D01*
X427869Y49183D01*
X427855Y49058D01*
X427851Y49035D01*
X427852Y49025D01*
X427851Y49016D01*
X427851Y47925D01*
X424775Y44849D01*
X420425Y44849D01*
X417349Y47925D01*
X417349Y52275D01*
X420425Y55351D01*
X424775Y55351D01*
X428028Y52098D01*
X428086Y52056D01*
X428138Y52007D01*
X428185Y51985D01*
X428227Y51954D01*
X428296Y51933D01*
X428361Y51903D01*
X428413Y51897D01*
X428463Y51882D01*
X428534Y51884D01*
X428605Y51876D01*
X428656Y51887D01*
X428708Y51888D01*
X428776Y51913D01*
X428846Y51928D01*
X428891Y51955D01*
X428939Y51973D01*
X428995Y52018D01*
X429057Y52054D01*
X429091Y52094D01*
X429131Y52127D01*
X429170Y52187D01*
X429217Y52241D01*
X429236Y52290D01*
X429264Y52333D01*
X429282Y52403D01*
X429309Y52469D01*
X429317Y52541D01*
X429325Y52572D01*
X429323Y52595D01*
X429327Y52636D01*
X429327Y53601D01*
X435401Y53601D01*
X435401Y42645D01*
X434691Y42786D01*
G37*
%LPD*%
%LPC*%
G36*
X438399Y56599D02*
X438399Y56599D01*
X438399Y67555D01*
X439109Y67414D01*
X440487Y66843D01*
X441727Y66014D01*
X442782Y64959D01*
X443611Y63719D01*
X444182Y62341D01*
X444473Y60878D01*
X444473Y56599D01*
X438399Y56599D01*
G37*
%LPD*%
%LPC*%
G36*
X351999Y56599D02*
X351999Y56599D01*
X351999Y67555D01*
X352709Y67414D01*
X354087Y66843D01*
X355327Y66014D01*
X356382Y64959D01*
X357211Y63719D01*
X357782Y62341D01*
X358073Y60878D01*
X358073Y56599D01*
X351999Y56599D01*
G37*
%LPD*%
%LPC*%
G36*
X438399Y14799D02*
X438399Y14799D01*
X438399Y25755D01*
X439109Y25614D01*
X440487Y25043D01*
X441727Y24214D01*
X442782Y23159D01*
X443611Y21919D01*
X444182Y20541D01*
X444473Y19078D01*
X444473Y14799D01*
X438399Y14799D01*
G37*
%LPD*%
%LPC*%
G36*
X351999Y14799D02*
X351999Y14799D01*
X351999Y25755D01*
X352709Y25614D01*
X354087Y25043D01*
X355327Y24214D01*
X356382Y23159D01*
X357211Y21919D01*
X357782Y20541D01*
X358073Y19078D01*
X358073Y14799D01*
X351999Y14799D01*
G37*
%LPD*%
%LPC*%
G36*
X438399Y53601D02*
X438399Y53601D01*
X444473Y53601D01*
X444473Y49322D01*
X444182Y47859D01*
X443611Y46481D01*
X442782Y45241D01*
X441727Y44186D01*
X440487Y43357D01*
X439109Y42786D01*
X438399Y42645D01*
X438399Y53601D01*
G37*
%LPD*%
%LPC*%
G36*
X429327Y14799D02*
X429327Y14799D01*
X429327Y19078D01*
X429618Y20541D01*
X430189Y21919D01*
X431018Y23159D01*
X432073Y24214D01*
X433313Y25043D01*
X434691Y25614D01*
X435401Y25755D01*
X435401Y14799D01*
X429327Y14799D01*
G37*
%LPD*%
%LPC*%
G36*
X342927Y56599D02*
X342927Y56599D01*
X342927Y60878D01*
X343218Y62341D01*
X343789Y63719D01*
X344618Y64959D01*
X345673Y66014D01*
X346913Y66843D01*
X348291Y67414D01*
X349001Y67555D01*
X349001Y56599D01*
X342927Y56599D01*
G37*
%LPD*%
%LPC*%
G36*
X429327Y56599D02*
X429327Y56599D01*
X429327Y60878D01*
X429618Y62341D01*
X430189Y63719D01*
X431018Y64959D01*
X432073Y66014D01*
X433313Y66843D01*
X434691Y67414D01*
X435401Y67555D01*
X435401Y56599D01*
X429327Y56599D01*
G37*
%LPD*%
%LPC*%
G36*
X342927Y14799D02*
X342927Y14799D01*
X342927Y19078D01*
X343218Y20541D01*
X343789Y21919D01*
X344618Y23159D01*
X345673Y24214D01*
X346913Y25043D01*
X348291Y25614D01*
X349001Y25755D01*
X349001Y14799D01*
X342927Y14799D01*
G37*
%LPD*%
%LPC*%
G36*
X348291Y42786D02*
X348291Y42786D01*
X346913Y43357D01*
X345673Y44186D01*
X344618Y45241D01*
X343789Y46481D01*
X343218Y47859D01*
X342927Y49322D01*
X342927Y53601D01*
X349001Y53601D01*
X349001Y42645D01*
X348291Y42786D01*
G37*
%LPD*%
%LPC*%
G36*
X509523Y585723D02*
X509523Y585723D01*
X509523Y593853D01*
X511998Y593853D01*
X517653Y588198D01*
X517653Y585723D01*
X509523Y585723D01*
G37*
%LPD*%
%LPC*%
G36*
X484123Y585723D02*
X484123Y585723D01*
X484123Y593853D01*
X486598Y593853D01*
X492253Y588198D01*
X492253Y585723D01*
X484123Y585723D01*
G37*
%LPD*%
%LPC*%
G36*
X498347Y585723D02*
X498347Y585723D01*
X498347Y588198D01*
X504002Y593853D01*
X506477Y593853D01*
X506477Y585723D01*
X498347Y585723D01*
G37*
%LPD*%
%LPC*%
G36*
X472947Y585723D02*
X472947Y585723D01*
X472947Y588198D01*
X478602Y593853D01*
X481077Y593853D01*
X481077Y585723D01*
X472947Y585723D01*
G37*
%LPD*%
%LPC*%
G36*
X484123Y574547D02*
X484123Y574547D01*
X484123Y582677D01*
X492253Y582677D01*
X492253Y580202D01*
X486598Y574547D01*
X484123Y574547D01*
G37*
%LPD*%
%LPC*%
G36*
X509523Y574547D02*
X509523Y574547D01*
X509523Y582677D01*
X517653Y582677D01*
X517653Y580202D01*
X511998Y574547D01*
X509523Y574547D01*
G37*
%LPD*%
%LPC*%
G36*
X478602Y574547D02*
X478602Y574547D01*
X472947Y580202D01*
X472947Y582677D01*
X481077Y582677D01*
X481077Y574547D01*
X478602Y574547D01*
G37*
%LPD*%
%LPC*%
G36*
X504002Y574547D02*
X504002Y574547D01*
X498347Y580202D01*
X498347Y582677D01*
X506477Y582677D01*
X506477Y574547D01*
X504002Y574547D01*
G37*
%LPD*%
%LPC*%
G36*
X23653Y528573D02*
X23653Y528573D01*
X23653Y535998D01*
X24776Y535774D01*
X26428Y535090D01*
X27914Y534097D01*
X29177Y532834D01*
X30170Y531348D01*
X30854Y529696D01*
X31078Y528573D01*
X23653Y528573D01*
G37*
%LPD*%
%LPC*%
G36*
X80953Y109473D02*
X80953Y109473D01*
X80953Y116898D01*
X82076Y116674D01*
X83728Y115990D01*
X85214Y114997D01*
X86477Y113734D01*
X87470Y112248D01*
X88154Y110596D01*
X88378Y109473D01*
X80953Y109473D01*
G37*
%LPD*%
%LPC*%
G36*
X42753Y109473D02*
X42753Y109473D01*
X42753Y116898D01*
X43876Y116674D01*
X45528Y115990D01*
X47014Y114997D01*
X48277Y113734D01*
X49270Y112248D01*
X49954Y110596D01*
X50178Y109473D01*
X42753Y109473D01*
G37*
%LPD*%
%LPC*%
G36*
X23653Y299973D02*
X23653Y299973D01*
X23653Y307398D01*
X24776Y307174D01*
X26428Y306490D01*
X27914Y305497D01*
X29177Y304234D01*
X30170Y302748D01*
X30854Y301096D01*
X31078Y299973D01*
X23653Y299973D01*
G37*
%LPD*%
%LPC*%
G36*
X80953Y338073D02*
X80953Y338073D01*
X80953Y345498D01*
X82076Y345274D01*
X83728Y344590D01*
X85214Y343597D01*
X86477Y342334D01*
X87470Y340848D01*
X88154Y339196D01*
X88378Y338073D01*
X80953Y338073D01*
G37*
%LPD*%
%LPC*%
G36*
X42753Y338073D02*
X42753Y338073D01*
X42753Y345498D01*
X43876Y345274D01*
X45528Y344590D01*
X47014Y343597D01*
X48277Y342334D01*
X49270Y340848D01*
X49954Y339196D01*
X50178Y338073D01*
X42753Y338073D01*
G37*
%LPD*%
%LPC*%
G36*
X42753Y106427D02*
X42753Y106427D01*
X50177Y106427D01*
X49954Y105304D01*
X49270Y103652D01*
X48277Y102166D01*
X47014Y100903D01*
X45528Y99910D01*
X43876Y99226D01*
X42753Y99002D01*
X42753Y106427D01*
G37*
%LPD*%
%LPC*%
G36*
X13182Y528573D02*
X13182Y528573D01*
X13406Y529696D01*
X14090Y531348D01*
X15083Y532834D01*
X16346Y534097D01*
X17832Y535090D01*
X19484Y535774D01*
X20607Y535997D01*
X20607Y528573D01*
X13182Y528573D01*
G37*
%LPD*%
%LPC*%
G36*
X51382Y528573D02*
X51382Y528573D01*
X51606Y529696D01*
X52290Y531348D01*
X53283Y532834D01*
X54546Y534097D01*
X56032Y535090D01*
X57684Y535774D01*
X58807Y535997D01*
X58807Y528573D01*
X51382Y528573D01*
G37*
%LPD*%
%LPC*%
G36*
X80953Y106427D02*
X80953Y106427D01*
X88377Y106427D01*
X88154Y105304D01*
X87470Y103652D01*
X86477Y102166D01*
X85214Y100903D01*
X83728Y99910D01*
X82076Y99226D01*
X80953Y99002D01*
X80953Y106427D01*
G37*
%LPD*%
%LPC*%
G36*
X32282Y109473D02*
X32282Y109473D01*
X32506Y110596D01*
X33190Y112248D01*
X34183Y113734D01*
X35446Y114997D01*
X36932Y115990D01*
X38584Y116674D01*
X39707Y116897D01*
X39707Y109473D01*
X32282Y109473D01*
G37*
%LPD*%
%LPC*%
G36*
X70482Y109473D02*
X70482Y109473D01*
X70706Y110596D01*
X71390Y112248D01*
X72383Y113734D01*
X73646Y114997D01*
X75132Y115990D01*
X76784Y116674D01*
X77907Y116897D01*
X77907Y109473D01*
X70482Y109473D01*
G37*
%LPD*%
%LPC*%
G36*
X23653Y296927D02*
X23653Y296927D01*
X31077Y296927D01*
X30854Y295804D01*
X30170Y294152D01*
X29177Y292666D01*
X27914Y291403D01*
X26428Y290410D01*
X24776Y289726D01*
X23653Y289502D01*
X23653Y296927D01*
G37*
%LPD*%
%LPC*%
G36*
X61853Y296927D02*
X61853Y296927D01*
X69277Y296927D01*
X69054Y295804D01*
X68370Y294152D01*
X67377Y292666D01*
X66114Y291403D01*
X64628Y290410D01*
X62976Y289726D01*
X61853Y289502D01*
X61853Y296927D01*
G37*
%LPD*%
%LPC*%
G36*
X13182Y299973D02*
X13182Y299973D01*
X13406Y301096D01*
X14090Y302748D01*
X15083Y304234D01*
X16346Y305497D01*
X17832Y306490D01*
X19484Y307174D01*
X20607Y307397D01*
X20607Y299973D01*
X13182Y299973D01*
G37*
%LPD*%
%LPC*%
G36*
X80953Y335027D02*
X80953Y335027D01*
X88377Y335027D01*
X88154Y333904D01*
X87470Y332252D01*
X86477Y330766D01*
X85214Y329503D01*
X83728Y328510D01*
X82076Y327826D01*
X80953Y327602D01*
X80953Y335027D01*
G37*
%LPD*%
%LPC*%
G36*
X70482Y338073D02*
X70482Y338073D01*
X70706Y339196D01*
X71390Y340848D01*
X72383Y342334D01*
X73646Y343597D01*
X75132Y344590D01*
X76784Y345274D01*
X77907Y345497D01*
X77907Y338073D01*
X70482Y338073D01*
G37*
%LPD*%
%LPC*%
G36*
X32282Y338073D02*
X32282Y338073D01*
X32506Y339196D01*
X33190Y340848D01*
X34183Y342334D01*
X35446Y343597D01*
X36932Y344590D01*
X38584Y345274D01*
X39707Y345497D01*
X39707Y338073D01*
X32282Y338073D01*
G37*
%LPD*%
%LPC*%
G36*
X23653Y525527D02*
X23653Y525527D01*
X31077Y525527D01*
X30854Y524404D01*
X30170Y522752D01*
X29177Y521266D01*
X27914Y520003D01*
X26428Y519010D01*
X24776Y518326D01*
X23653Y518102D01*
X23653Y525527D01*
G37*
%LPD*%
%LPC*%
G36*
X38584Y99226D02*
X38584Y99226D01*
X36932Y99910D01*
X35446Y100903D01*
X34183Y102166D01*
X33190Y103652D01*
X32506Y105304D01*
X32283Y106427D01*
X39707Y106427D01*
X39707Y99003D01*
X38584Y99226D01*
G37*
%LPD*%
%LPC*%
G36*
X19484Y518326D02*
X19484Y518326D01*
X17832Y519010D01*
X16346Y520003D01*
X15083Y521266D01*
X14090Y522752D01*
X13406Y524404D01*
X13183Y525527D01*
X20607Y525527D01*
X20607Y518103D01*
X19484Y518326D01*
G37*
%LPD*%
%LPC*%
G36*
X76784Y99226D02*
X76784Y99226D01*
X75132Y99910D01*
X73646Y100903D01*
X72383Y102166D01*
X71390Y103652D01*
X70706Y105304D01*
X70483Y106427D01*
X77907Y106427D01*
X77907Y99003D01*
X76784Y99226D01*
G37*
%LPD*%
%LPC*%
G36*
X76784Y327826D02*
X76784Y327826D01*
X75132Y328510D01*
X73646Y329503D01*
X72383Y330766D01*
X71390Y332252D01*
X70706Y333904D01*
X70483Y335027D01*
X77907Y335027D01*
X77907Y327603D01*
X76784Y327826D01*
G37*
%LPD*%
%LPC*%
G36*
X57684Y289726D02*
X57684Y289726D01*
X56032Y290410D01*
X54546Y291403D01*
X53283Y292666D01*
X52290Y294152D01*
X51606Y295804D01*
X51383Y296927D01*
X58807Y296927D01*
X58807Y289503D01*
X57684Y289726D01*
G37*
%LPD*%
%LPC*%
G36*
X19484Y289726D02*
X19484Y289726D01*
X17832Y290410D01*
X16346Y291403D01*
X15083Y292666D01*
X14090Y294152D01*
X13406Y295804D01*
X13183Y296927D01*
X20607Y296927D01*
X20607Y289503D01*
X19484Y289726D01*
G37*
%LPD*%
%LPC*%
G36*
X57684Y518326D02*
X57684Y518326D01*
X56032Y519010D01*
X54546Y520003D01*
X53283Y521266D01*
X52290Y522752D01*
X51606Y524404D01*
X51383Y525527D01*
X58807Y525527D01*
X58807Y518103D01*
X57684Y518326D01*
G37*
%LPD*%
%LPC*%
G36*
X41229Y107949D02*
X41229Y107949D01*
X41229Y107951D01*
X41231Y107951D01*
X41231Y107949D01*
X41229Y107949D01*
G37*
%LPD*%
%LPC*%
G36*
X482599Y584199D02*
X482599Y584199D01*
X482599Y584201D01*
X482601Y584201D01*
X482601Y584199D01*
X482599Y584199D01*
G37*
%LPD*%
%LPC*%
G36*
X22129Y298449D02*
X22129Y298449D01*
X22129Y298451D01*
X22131Y298451D01*
X22131Y298449D01*
X22129Y298449D01*
G37*
%LPD*%
%LPC*%
G36*
X507999Y584199D02*
X507999Y584199D01*
X507999Y584201D01*
X508001Y584201D01*
X508001Y584199D01*
X507999Y584199D01*
G37*
%LPD*%
%LPC*%
G36*
X22129Y527049D02*
X22129Y527049D01*
X22129Y527051D01*
X22131Y527051D01*
X22131Y527049D01*
X22129Y527049D01*
G37*
%LPD*%
%LPC*%
G36*
X79429Y107949D02*
X79429Y107949D01*
X79429Y107951D01*
X79431Y107951D01*
X79431Y107949D01*
X79429Y107949D01*
G37*
%LPD*%
%LPC*%
G36*
X79429Y336549D02*
X79429Y336549D01*
X79429Y336551D01*
X79431Y336551D01*
X79431Y336549D01*
X79429Y336549D01*
G37*
%LPD*%
D10*
X350500Y50068D02*
X350500Y60132D01*
X436900Y60132D02*
X436900Y50068D01*
X350500Y18332D02*
X350500Y8268D01*
X436900Y8268D02*
X436900Y18332D01*
D11*
X60330Y527050D03*
X79430Y514350D03*
X60330Y501650D03*
X79430Y488950D03*
X60330Y476250D03*
X79430Y463550D03*
X60330Y450850D03*
X79430Y438150D03*
X60330Y425450D03*
X79430Y412750D03*
X60330Y400050D03*
X79430Y387350D03*
X60330Y374650D03*
X79430Y361950D03*
X60330Y349250D03*
X79430Y336550D03*
X60330Y323850D03*
X79430Y311150D03*
X60330Y298450D03*
X79430Y285750D03*
X60330Y273050D03*
X79430Y260350D03*
X60330Y247650D03*
X79430Y234950D03*
X60330Y222250D03*
X79430Y209550D03*
X60330Y196850D03*
X79430Y184150D03*
X60330Y171450D03*
X79430Y158750D03*
X60330Y146050D03*
X79430Y133350D03*
X60330Y120650D03*
X79430Y107950D03*
X22130Y527050D03*
X41230Y514350D03*
X22130Y501650D03*
X41230Y488950D03*
X22130Y476250D03*
X41230Y463550D03*
X22130Y450850D03*
X41230Y438150D03*
X22130Y425450D03*
X41230Y412750D03*
X22130Y400050D03*
X41230Y387350D03*
X22130Y374650D03*
X41230Y361950D03*
X22130Y349250D03*
X41230Y336550D03*
X22130Y323850D03*
X41230Y311150D03*
X22130Y298450D03*
X41230Y285750D03*
X22130Y273050D03*
X41230Y260350D03*
X22130Y247650D03*
X41230Y234950D03*
X22130Y222250D03*
X41230Y209550D03*
X22130Y196850D03*
X41230Y184150D03*
X22130Y171450D03*
X41230Y158750D03*
X22130Y146050D03*
X41230Y133350D03*
X22130Y120650D03*
X41230Y107950D03*
D12*
X508000Y584200D03*
X508000Y558800D03*
X482600Y584200D03*
X482600Y558800D03*
X457200Y584200D03*
X457200Y558800D03*
X431800Y584200D03*
X431800Y558800D03*
X406400Y584200D03*
X406400Y558800D03*
X381000Y584200D03*
X381000Y558800D03*
X355600Y584200D03*
X355600Y558800D03*
X330200Y584200D03*
X330200Y558800D03*
D13*
X393700Y271780D03*
X393700Y391160D03*
X424180Y391160D03*
X406400Y292100D03*
X450850Y292100D03*
X450850Y317500D03*
X408940Y391160D03*
X406400Y317500D03*
X224790Y433070D03*
X508000Y203200D03*
X508000Y215900D03*
X508000Y190500D03*
X533400Y177800D03*
X520700Y165100D03*
X508000Y152400D03*
X480824Y317635D03*
D14*
X482465Y317635D01*
X496570Y303530D01*
X496570Y184658D01*
X489966Y178054D01*
D13*
X489966Y178054D03*
X479222Y310562D03*
D14*
X485782Y304003D01*
X485782Y262417D01*
X477126Y253762D01*
X473352Y253762D01*
D13*
X473352Y253762D03*
X480503Y264603D03*
D14*
X481773Y300547D02*
X478790Y303530D01*
X481773Y300547D02*
X481773Y265873D01*
X480503Y264603D01*
D13*
X478790Y303530D03*
X484942Y254000D03*
D14*
X478394Y247452D01*
X454858Y247452D01*
D13*
X447040Y255270D03*
D14*
X454858Y247452D01*
D13*
X430007Y358803D03*
D14*
X430007Y164197D01*
X406780Y140970D01*
D13*
X406780Y140970D03*
X422515Y358831D03*
D14*
X427821Y364081D02*
X432193Y364081D01*
X422571Y358831D02*
X422515Y358831D01*
X422571Y358831D02*
X427821Y364081D01*
X432193Y364081D02*
X435610Y360665D01*
X435610Y155320D02*
X421260Y140970D01*
D13*
X421260Y140970D03*
D14*
X435610Y155320D02*
X435610Y360665D01*
D15*
X416560Y76200D03*
D16*
X368300Y76200D01*
D15*
X368300Y76200D03*
D13*
X466090Y252730D03*
X476250Y295910D03*
D16*
X466090Y285750D01*
X466090Y252730D01*
D14*
X415290Y466090D02*
X508000Y558800D01*
X415290Y466090D02*
X226060Y466090D01*
X223520Y463550D01*
D13*
X223520Y463550D03*
D14*
X393700Y469900D02*
X482600Y558800D01*
X393700Y469900D02*
X222250Y469900D01*
X217170Y464820D01*
X217170Y457200D01*
D13*
X217170Y457200D03*
D14*
X372110Y473710D02*
X457200Y558800D01*
X210820Y462421D02*
X210820Y450850D01*
D13*
X210820Y450850D03*
D14*
X222109Y473710D02*
X372110Y473710D01*
X222109Y473710D02*
X210820Y462421D01*
X350520Y477520D02*
X431800Y558800D01*
X204470Y460023D02*
X204470Y444500D01*
D13*
X204470Y444500D03*
D14*
X221967Y477520D02*
X350520Y477520D01*
X221967Y477520D02*
X204470Y460023D01*
X328930Y481330D02*
X406400Y558800D01*
D13*
X198120Y438150D03*
D14*
X221826Y481330D02*
X328930Y481330D01*
X198120Y457624D02*
X198120Y438150D01*
X198120Y457624D02*
X221826Y481330D01*
D13*
X191770Y431800D03*
D14*
X307340Y485140D02*
X381000Y558800D01*
X307340Y485140D02*
X221685Y485140D01*
X191770Y455226D02*
X191770Y431800D01*
X191770Y455226D02*
X221685Y485140D01*
X285750Y488950D02*
X355600Y558800D01*
X185420Y452827D02*
X185420Y425450D01*
D13*
X185420Y425450D03*
D14*
X221543Y488950D02*
X285750Y488950D01*
X221543Y488950D02*
X185420Y452827D01*
X264160Y492760D02*
X330200Y558800D01*
X177800Y449158D02*
X177800Y419100D01*
D13*
X177800Y419100D03*
D14*
X221402Y492760D02*
X264160Y492760D01*
X221402Y492760D02*
X177800Y449158D01*
D13*
X482600Y330200D03*
D17*
X439740Y373060D01*
X439740Y402200D01*
D13*
X439740Y402200D03*
X379650Y288722D03*
D17*
X379730Y288802D01*
X379730Y356870D02*
X381000Y356870D01*
X379730Y356870D02*
X379730Y288802D01*
D13*
X381000Y356870D03*
X419100Y254000D03*
D14*
X384298Y288802D01*
X379730Y288802D01*
D13*
X251778Y401320D03*
X261324Y267152D03*
D17*
X261324Y231592D02*
X261366Y231550D01*
X261324Y231592D02*
X261324Y267152D01*
X261366Y231550D02*
X261366Y225044D01*
D13*
X261366Y225044D03*
D17*
X261324Y267152D02*
X251778Y276698D01*
X251778Y401320D01*
D18*
X59690Y323850D02*
X22352Y323850D01*
D13*
X382270Y257810D03*
X332542Y257810D03*
D14*
X382270Y257810D01*
X393700Y571500D02*
X406400Y584200D01*
X79430Y361950D02*
X69850Y371530D01*
X114300Y571500D02*
X393700Y571500D01*
X114300Y571500D02*
X69850Y527050D01*
X69850Y371530D01*
D13*
X191262Y401574D03*
D14*
X305562Y402590D02*
X306070Y402590D01*
X305562Y402590D02*
X301498Y406654D01*
X196342Y406654D01*
X191262Y401574D01*
D13*
X306070Y402590D03*
X184150Y386334D03*
D14*
X114300Y316484D01*
X114300Y228600D01*
X104616Y218916D01*
X63500Y209550D02*
X41230Y209550D01*
X72866Y218916D02*
X104616Y218916D01*
X72866Y218916D02*
X63500Y209550D01*
D13*
X181610Y186690D03*
D14*
X81970Y186690D02*
X79430Y184150D01*
X81970Y186690D02*
X181610Y186690D01*
D13*
X349250Y275590D03*
D14*
X306070Y318770D01*
X306070Y368300D01*
D13*
X306070Y368300D03*
X391160Y250580D03*
X313690Y340360D03*
D14*
X313690Y320040D01*
X296300Y250580D02*
X391160Y250580D01*
X296300Y250580D02*
X204470Y158750D01*
X79430Y158750D01*
X384456Y263088D02*
X391160Y256384D01*
X391160Y250580D01*
X370642Y263088D02*
X313690Y320040D01*
X370642Y263088D02*
X384456Y263088D01*
D13*
X241300Y184066D03*
D14*
X298534Y241300D01*
X393700Y241300D01*
D13*
X393700Y241300D03*
D14*
X241300Y184066D02*
X240878Y184066D01*
X205402Y148590D01*
X63500Y158750D02*
X41230Y158750D01*
X73660Y148590D02*
X205402Y148590D01*
X73660Y148590D02*
X63500Y158750D01*
D13*
X342900Y342900D03*
D14*
X342900Y300990D01*
X374650Y269240D02*
X386080Y269240D01*
X398780Y256540D01*
X398780Y246380D01*
X393700Y241300D01*
X374650Y269240D02*
X342900Y300990D01*
X238760Y345440D02*
X238760Y241300D01*
X251460Y228600D01*
D13*
X251460Y228600D03*
D14*
X79430Y504770D02*
X79430Y514350D01*
X79430Y504770D02*
X238760Y345440D01*
D13*
X368576Y288722D03*
D14*
X368576Y418824D01*
X368300Y419100D01*
D13*
X368300Y419100D03*
D16*
X95250Y326970D02*
X79430Y311150D01*
D18*
X95250Y471170D02*
X96520Y472440D01*
D19*
X96520Y472440D03*
D16*
X95250Y471170D02*
X95250Y326970D01*
X79248Y311150D02*
X41656Y311150D01*
D14*
X190500Y389310D02*
X90860Y488950D01*
X79430Y488950D01*
X190500Y389310D02*
X190500Y168910D01*
D13*
X190500Y168910D03*
M02*
