M48
;GenerationSoftware,Autodesk,EAGLE,9.6.2*%
;CreationDate,2025-05-18T02:46:12Z*%
FMAT,2
ICI,OFF
METRIC,TZ,000.000
T9C0.203
T8C0.229
T7C0.350
T6C0.600
T5C0.650
T4C0.900
T3C1.016
T2C2.794
T1C2.800
%
G90
M71
T1
X5080Y2795
X5080Y60705
T2
X58420Y60706
X58420Y2794
X13970Y60706
X13970Y2794
T3
X48260Y55880
X48260Y58420
X50800Y55880
X50800Y58420
X33020Y58420
X35560Y55880
X35560Y58420
X38100Y55880
X38100Y58420
X40640Y55880
X33020Y55880
X40640Y58420
X43180Y55880
X43180Y58420
X45720Y55880
X45720Y58420
T4
X7943Y36195
X6033Y34925
X7943Y33655
X6033Y32385
X7943Y31115
X6033Y29845
X7943Y28575
X6033Y27305
X7943Y26035
X6033Y24765
X6033Y22225
X7943Y20955
X6033Y19685
X7943Y18415
X6033Y17145
X7943Y15875
X6033Y14605
X7943Y13335
X6033Y12065
X7943Y10795
X7943Y23495
X2213Y52705
X4123Y51435
X2213Y50165
X4123Y48895
X2213Y47625
X4123Y46355
X2213Y45085
X4123Y43815
X2213Y42545
X2213Y40005
X4123Y38735
X2213Y37465
X4123Y36195
X2213Y34925
X4123Y33655
X2213Y32385
X4123Y31115
X2213Y29845
X4123Y28575
X2213Y27305
X4123Y26035
X2213Y24765
X4123Y23495
X2213Y22225
X4123Y20955
X2213Y19685
X4123Y18415
X2213Y17145
X2213Y14605
X4123Y13335
X2213Y12065
X4123Y10795
X4123Y15875
X7943Y48895
X6033Y52705
X7943Y51435
X6033Y50165
X4123Y41275
X6033Y47625
X7943Y46355
X6033Y45085
X7943Y43815
X6033Y42545
X7943Y41275
X6033Y40005
X7943Y38735
X6033Y37465
T5
X36480Y5010
X42260Y5010
T6
X43690Y1330
X35050Y1330
X43690Y5510
X35050Y5510
T7
X9652Y47244
T8
X41656Y7620
X36830Y7620
T9
X40640Y31750
X22479Y43307
X50800Y20320
X50800Y21590
X50800Y19050
X53340Y17780
X52070Y16510
X50800Y15240
X48082Y31763
X48997Y17805
X47922Y31056
X47335Y25376
X48050Y26460
X48494Y25400
X44704Y25527
X43001Y35880
X40678Y14097
X42252Y35883
X42126Y14097
X46609Y25273
X47625Y29591
X22352Y46355
X21717Y45720
X21082Y45085
X20447Y44450
X19812Y43815
X19177Y43180
X18542Y42545
X17780Y41910
X48260Y33020
X43974Y40220
X37965Y28872
X38100Y35687
X41910Y25400
X25178Y40132
X26132Y26715
X26137Y22504
X38227Y25781
X33254Y25781
X19126Y40157
X30607Y40259
X18415Y38633
X18161Y18669
X34925Y27559
X47879Y30353
X39370Y27178
X39370Y39116
X42418Y39116
X40640Y29210
X45085Y29210
X45085Y31750
X19050Y16891
X40894Y39116
X36830Y41910
X36858Y28872
X34290Y34290
X39370Y24130
X24130Y18407
X31369Y34036
X39116Y25058
X30607Y36830
X25146Y22860
M30