G04 EAGLE Gerber RS-274X export*
G75*
%MOMM*%
%FSLAX34Y34*%
%LPD*%
%IN*%
%IPPOS*%
%AMOC8*
5,1,8,0,0,1.08239X$1,22.5*%
G01*
%ADD10C,0.254000*%


D10*
X0Y0D02*
X635000Y0D01*
X635000Y635000D01*
X0Y635000D01*
X0Y0D01*
X347500Y49600D02*
X347511Y49339D01*
X347546Y49079D01*
X347602Y48824D01*
X347681Y48574D01*
X347781Y48332D01*
X347902Y48100D01*
X348043Y47879D01*
X348202Y47672D01*
X348379Y47479D01*
X348572Y47302D01*
X348779Y47143D01*
X349000Y47002D01*
X349232Y46881D01*
X349474Y46781D01*
X349724Y46702D01*
X349979Y46646D01*
X350239Y46611D01*
X350500Y46600D01*
X350761Y46611D01*
X351021Y46646D01*
X351276Y46702D01*
X351526Y46781D01*
X351768Y46881D01*
X352000Y47002D01*
X352221Y47143D01*
X352428Y47302D01*
X352621Y47479D01*
X352798Y47672D01*
X352957Y47879D01*
X353098Y48100D01*
X353219Y48332D01*
X353319Y48574D01*
X353398Y48824D01*
X353454Y49079D01*
X353489Y49339D01*
X353500Y49600D01*
X353500Y60600D01*
X353489Y60861D01*
X353454Y61121D01*
X353398Y61376D01*
X353319Y61626D01*
X353219Y61868D01*
X353098Y62100D01*
X352957Y62321D01*
X352798Y62528D01*
X352621Y62721D01*
X352428Y62898D01*
X352221Y63057D01*
X352000Y63198D01*
X351768Y63319D01*
X351526Y63419D01*
X351276Y63498D01*
X351021Y63554D01*
X350761Y63589D01*
X350500Y63600D01*
X350239Y63589D01*
X349979Y63554D01*
X349724Y63498D01*
X349474Y63419D01*
X349232Y63319D01*
X349000Y63198D01*
X348779Y63057D01*
X348572Y62898D01*
X348379Y62721D01*
X348202Y62528D01*
X348043Y62321D01*
X347902Y62100D01*
X347781Y61868D01*
X347681Y61626D01*
X347602Y61376D01*
X347546Y61121D01*
X347511Y60861D01*
X347500Y60600D01*
X347500Y49600D01*
X433900Y49600D02*
X433911Y49339D01*
X433946Y49079D01*
X434002Y48824D01*
X434081Y48574D01*
X434181Y48332D01*
X434302Y48100D01*
X434443Y47879D01*
X434602Y47672D01*
X434779Y47479D01*
X434972Y47302D01*
X435179Y47143D01*
X435400Y47002D01*
X435632Y46881D01*
X435874Y46781D01*
X436124Y46702D01*
X436379Y46646D01*
X436639Y46611D01*
X436900Y46600D01*
X437161Y46611D01*
X437421Y46646D01*
X437676Y46702D01*
X437926Y46781D01*
X438168Y46881D01*
X438400Y47002D01*
X438621Y47143D01*
X438828Y47302D01*
X439021Y47479D01*
X439198Y47672D01*
X439357Y47879D01*
X439498Y48100D01*
X439619Y48332D01*
X439719Y48574D01*
X439798Y48824D01*
X439854Y49079D01*
X439889Y49339D01*
X439900Y49600D01*
X439900Y60600D01*
X439889Y60861D01*
X439854Y61121D01*
X439798Y61376D01*
X439719Y61626D01*
X439619Y61868D01*
X439498Y62100D01*
X439357Y62321D01*
X439198Y62528D01*
X439021Y62721D01*
X438828Y62898D01*
X438621Y63057D01*
X438400Y63198D01*
X438168Y63319D01*
X437926Y63419D01*
X437676Y63498D01*
X437421Y63554D01*
X437161Y63589D01*
X436900Y63600D01*
X436639Y63589D01*
X436379Y63554D01*
X436124Y63498D01*
X435874Y63419D01*
X435632Y63319D01*
X435400Y63198D01*
X435179Y63057D01*
X434972Y62898D01*
X434779Y62721D01*
X434602Y62528D01*
X434443Y62321D01*
X434302Y62100D01*
X434181Y61868D01*
X434081Y61626D01*
X434002Y61376D01*
X433946Y61121D01*
X433911Y60861D01*
X433900Y60600D01*
X433900Y49600D01*
X433900Y10300D02*
X433911Y10039D01*
X433946Y9779D01*
X434002Y9524D01*
X434081Y9274D01*
X434181Y9032D01*
X434302Y8800D01*
X434443Y8579D01*
X434602Y8372D01*
X434779Y8179D01*
X434972Y8002D01*
X435179Y7843D01*
X435400Y7702D01*
X435632Y7581D01*
X435874Y7481D01*
X436124Y7402D01*
X436379Y7346D01*
X436639Y7311D01*
X436900Y7300D01*
X437161Y7311D01*
X437421Y7346D01*
X437676Y7402D01*
X437926Y7481D01*
X438168Y7581D01*
X438400Y7702D01*
X438621Y7843D01*
X438828Y8002D01*
X439021Y8179D01*
X439198Y8372D01*
X439357Y8579D01*
X439498Y8800D01*
X439619Y9032D01*
X439719Y9274D01*
X439798Y9524D01*
X439854Y9779D01*
X439889Y10039D01*
X439900Y10300D01*
X439900Y16300D01*
X439889Y16561D01*
X439854Y16821D01*
X439798Y17076D01*
X439719Y17326D01*
X439619Y17568D01*
X439498Y17800D01*
X439357Y18021D01*
X439198Y18228D01*
X439021Y18421D01*
X438828Y18598D01*
X438621Y18757D01*
X438400Y18898D01*
X438168Y19019D01*
X437926Y19119D01*
X437676Y19198D01*
X437421Y19254D01*
X437161Y19289D01*
X436900Y19300D01*
X436639Y19289D01*
X436379Y19254D01*
X436124Y19198D01*
X435874Y19119D01*
X435632Y19019D01*
X435400Y18898D01*
X435179Y18757D01*
X434972Y18598D01*
X434779Y18421D01*
X434602Y18228D01*
X434443Y18021D01*
X434302Y17800D01*
X434181Y17568D01*
X434081Y17326D01*
X434002Y17076D01*
X433946Y16821D01*
X433911Y16561D01*
X433900Y16300D01*
X433900Y10300D01*
X347500Y10300D02*
X347511Y10039D01*
X347546Y9779D01*
X347602Y9524D01*
X347681Y9274D01*
X347781Y9032D01*
X347902Y8800D01*
X348043Y8579D01*
X348202Y8372D01*
X348379Y8179D01*
X348572Y8002D01*
X348779Y7843D01*
X349000Y7702D01*
X349232Y7581D01*
X349474Y7481D01*
X349724Y7402D01*
X349979Y7346D01*
X350239Y7311D01*
X350500Y7300D01*
X350761Y7311D01*
X351021Y7346D01*
X351276Y7402D01*
X351526Y7481D01*
X351768Y7581D01*
X352000Y7702D01*
X352221Y7843D01*
X352428Y8002D01*
X352621Y8179D01*
X352798Y8372D01*
X352957Y8579D01*
X353098Y8800D01*
X353219Y9032D01*
X353319Y9274D01*
X353398Y9524D01*
X353454Y9779D01*
X353489Y10039D01*
X353500Y10300D01*
X353500Y16300D01*
X353489Y16561D01*
X353454Y16821D01*
X353398Y17076D01*
X353319Y17326D01*
X353219Y17568D01*
X353098Y17800D01*
X352957Y18021D01*
X352798Y18228D01*
X352621Y18421D01*
X352428Y18598D01*
X352221Y18757D01*
X352000Y18898D01*
X351768Y19019D01*
X351526Y19119D01*
X351276Y19198D01*
X351021Y19254D01*
X350761Y19289D01*
X350500Y19300D01*
X350239Y19289D01*
X349979Y19254D01*
X349724Y19198D01*
X349474Y19119D01*
X349232Y19019D01*
X349000Y18898D01*
X348779Y18757D01*
X348572Y18598D01*
X348379Y18421D01*
X348202Y18228D01*
X348043Y18021D01*
X347902Y17800D01*
X347781Y17568D01*
X347681Y17326D01*
X347602Y17076D01*
X347546Y16821D01*
X347511Y16561D01*
X347500Y16300D01*
X347500Y10300D01*
X598170Y606561D02*
X598099Y605566D01*
X597957Y604578D01*
X597745Y603603D01*
X597464Y602645D01*
X597115Y601711D01*
X596700Y600803D01*
X596222Y599927D01*
X595683Y599088D01*
X595085Y598289D01*
X594431Y597535D01*
X593725Y596829D01*
X592971Y596175D01*
X592173Y595577D01*
X591333Y595038D01*
X590457Y594560D01*
X589550Y594145D01*
X588615Y593796D01*
X587657Y593515D01*
X586682Y593303D01*
X585694Y593161D01*
X584699Y593090D01*
X583701Y593090D01*
X582706Y593161D01*
X581718Y593303D01*
X580743Y593515D01*
X579785Y593796D01*
X578851Y594145D01*
X577943Y594560D01*
X577067Y595038D01*
X576228Y595577D01*
X575429Y596175D01*
X574675Y596829D01*
X573969Y597535D01*
X573315Y598289D01*
X572717Y599088D01*
X572178Y599927D01*
X571700Y600803D01*
X571285Y601711D01*
X570936Y602645D01*
X570655Y603603D01*
X570443Y604578D01*
X570301Y605566D01*
X570230Y606561D01*
X570230Y607559D01*
X570301Y608554D01*
X570443Y609542D01*
X570655Y610517D01*
X570936Y611475D01*
X571285Y612410D01*
X571700Y613317D01*
X572178Y614193D01*
X572717Y615033D01*
X573315Y615831D01*
X573969Y616585D01*
X574675Y617291D01*
X575429Y617945D01*
X576228Y618543D01*
X577067Y619082D01*
X577943Y619560D01*
X578851Y619975D01*
X579785Y620324D01*
X580743Y620605D01*
X581718Y620817D01*
X582706Y620959D01*
X583701Y621030D01*
X584699Y621030D01*
X585694Y620959D01*
X586682Y620817D01*
X587657Y620605D01*
X588615Y620324D01*
X589550Y619975D01*
X590457Y619560D01*
X591333Y619082D01*
X592173Y618543D01*
X592971Y617945D01*
X593725Y617291D01*
X594431Y616585D01*
X595085Y615831D01*
X595683Y615033D01*
X596222Y614193D01*
X596700Y613317D01*
X597115Y612410D01*
X597464Y611475D01*
X597745Y610517D01*
X597957Y609542D01*
X598099Y608554D01*
X598170Y607559D01*
X598170Y606561D01*
X598170Y27441D02*
X598099Y26446D01*
X597957Y25458D01*
X597745Y24483D01*
X597464Y23525D01*
X597115Y22591D01*
X596700Y21683D01*
X596222Y20807D01*
X595683Y19968D01*
X595085Y19169D01*
X594431Y18415D01*
X593725Y17709D01*
X592971Y17055D01*
X592173Y16457D01*
X591333Y15918D01*
X590457Y15440D01*
X589550Y15025D01*
X588615Y14676D01*
X587657Y14395D01*
X586682Y14183D01*
X585694Y14041D01*
X584699Y13970D01*
X583701Y13970D01*
X582706Y14041D01*
X581718Y14183D01*
X580743Y14395D01*
X579785Y14676D01*
X578851Y15025D01*
X577943Y15440D01*
X577067Y15918D01*
X576228Y16457D01*
X575429Y17055D01*
X574675Y17709D01*
X573969Y18415D01*
X573315Y19169D01*
X572717Y19968D01*
X572178Y20807D01*
X571700Y21683D01*
X571285Y22591D01*
X570936Y23525D01*
X570655Y24483D01*
X570443Y25458D01*
X570301Y26446D01*
X570230Y27441D01*
X570230Y28439D01*
X570301Y29434D01*
X570443Y30422D01*
X570655Y31397D01*
X570936Y32355D01*
X571285Y33290D01*
X571700Y34197D01*
X572178Y35073D01*
X572717Y35913D01*
X573315Y36711D01*
X573969Y37465D01*
X574675Y38171D01*
X575429Y38825D01*
X576228Y39423D01*
X577067Y39962D01*
X577943Y40440D01*
X578851Y40855D01*
X579785Y41204D01*
X580743Y41485D01*
X581718Y41697D01*
X582706Y41839D01*
X583701Y41910D01*
X584699Y41910D01*
X585694Y41839D01*
X586682Y41697D01*
X587657Y41485D01*
X588615Y41204D01*
X589550Y40855D01*
X590457Y40440D01*
X591333Y39962D01*
X592173Y39423D01*
X592971Y38825D01*
X593725Y38171D01*
X594431Y37465D01*
X595085Y36711D01*
X595683Y35913D01*
X596222Y35073D01*
X596700Y34197D01*
X597115Y33290D01*
X597464Y32355D01*
X597745Y31397D01*
X597957Y30422D01*
X598099Y29434D01*
X598170Y28439D01*
X598170Y27441D01*
X153670Y606561D02*
X153599Y605566D01*
X153457Y604578D01*
X153245Y603603D01*
X152964Y602645D01*
X152615Y601711D01*
X152200Y600803D01*
X151722Y599927D01*
X151183Y599088D01*
X150585Y598289D01*
X149931Y597535D01*
X149225Y596829D01*
X148471Y596175D01*
X147673Y595577D01*
X146833Y595038D01*
X145957Y594560D01*
X145050Y594145D01*
X144115Y593796D01*
X143157Y593515D01*
X142182Y593303D01*
X141194Y593161D01*
X140199Y593090D01*
X139201Y593090D01*
X138206Y593161D01*
X137218Y593303D01*
X136243Y593515D01*
X135285Y593796D01*
X134351Y594145D01*
X133443Y594560D01*
X132567Y595038D01*
X131728Y595577D01*
X130929Y596175D01*
X130175Y596829D01*
X129469Y597535D01*
X128815Y598289D01*
X128217Y599088D01*
X127678Y599927D01*
X127200Y600803D01*
X126785Y601711D01*
X126436Y602645D01*
X126155Y603603D01*
X125943Y604578D01*
X125801Y605566D01*
X125730Y606561D01*
X125730Y607559D01*
X125801Y608554D01*
X125943Y609542D01*
X126155Y610517D01*
X126436Y611475D01*
X126785Y612410D01*
X127200Y613317D01*
X127678Y614193D01*
X128217Y615033D01*
X128815Y615831D01*
X129469Y616585D01*
X130175Y617291D01*
X130929Y617945D01*
X131728Y618543D01*
X132567Y619082D01*
X133443Y619560D01*
X134351Y619975D01*
X135285Y620324D01*
X136243Y620605D01*
X137218Y620817D01*
X138206Y620959D01*
X139201Y621030D01*
X140199Y621030D01*
X141194Y620959D01*
X142182Y620817D01*
X143157Y620605D01*
X144115Y620324D01*
X145050Y619975D01*
X145957Y619560D01*
X146833Y619082D01*
X147673Y618543D01*
X148471Y617945D01*
X149225Y617291D01*
X149931Y616585D01*
X150585Y615831D01*
X151183Y615033D01*
X151722Y614193D01*
X152200Y613317D01*
X152615Y612410D01*
X152964Y611475D01*
X153245Y610517D01*
X153457Y609542D01*
X153599Y608554D01*
X153670Y607559D01*
X153670Y606561D01*
X153670Y27441D02*
X153599Y26446D01*
X153457Y25458D01*
X153245Y24483D01*
X152964Y23525D01*
X152615Y22591D01*
X152200Y21683D01*
X151722Y20807D01*
X151183Y19968D01*
X150585Y19169D01*
X149931Y18415D01*
X149225Y17709D01*
X148471Y17055D01*
X147673Y16457D01*
X146833Y15918D01*
X145957Y15440D01*
X145050Y15025D01*
X144115Y14676D01*
X143157Y14395D01*
X142182Y14183D01*
X141194Y14041D01*
X140199Y13970D01*
X139201Y13970D01*
X138206Y14041D01*
X137218Y14183D01*
X136243Y14395D01*
X135285Y14676D01*
X134351Y15025D01*
X133443Y15440D01*
X132567Y15918D01*
X131728Y16457D01*
X130929Y17055D01*
X130175Y17709D01*
X129469Y18415D01*
X128815Y19169D01*
X128217Y19968D01*
X127678Y20807D01*
X127200Y21683D01*
X126785Y22591D01*
X126436Y23525D01*
X126155Y24483D01*
X125943Y25458D01*
X125801Y26446D01*
X125730Y27441D01*
X125730Y28439D01*
X125801Y29434D01*
X125943Y30422D01*
X126155Y31397D01*
X126436Y32355D01*
X126785Y33290D01*
X127200Y34197D01*
X127678Y35073D01*
X128217Y35913D01*
X128815Y36711D01*
X129469Y37465D01*
X130175Y38171D01*
X130929Y38825D01*
X131728Y39423D01*
X132567Y39962D01*
X133443Y40440D01*
X134351Y40855D01*
X135285Y41204D01*
X136243Y41485D01*
X137218Y41697D01*
X138206Y41839D01*
X139201Y41910D01*
X140199Y41910D01*
X141194Y41839D01*
X142182Y41697D01*
X143157Y41485D01*
X144115Y41204D01*
X145050Y40855D01*
X145957Y40440D01*
X146833Y39962D01*
X147673Y39423D01*
X148471Y38825D01*
X149225Y38171D01*
X149931Y37465D01*
X150585Y36711D01*
X151183Y35913D01*
X151722Y35073D01*
X152200Y34197D01*
X152615Y33290D01*
X152964Y32355D01*
X153245Y31397D01*
X153457Y30422D01*
X153599Y29434D01*
X153670Y28439D01*
X153670Y27441D01*
X425850Y49887D02*
X425794Y49465D01*
X425684Y49053D01*
X425521Y48659D01*
X425308Y48291D01*
X425049Y47953D01*
X424747Y47651D01*
X424409Y47392D01*
X424041Y47179D01*
X423647Y47016D01*
X423235Y46906D01*
X422813Y46850D01*
X422387Y46850D01*
X421965Y46906D01*
X421553Y47016D01*
X421159Y47179D01*
X420791Y47392D01*
X420453Y47651D01*
X420151Y47953D01*
X419892Y48291D01*
X419679Y48659D01*
X419516Y49053D01*
X419406Y49465D01*
X419350Y49887D01*
X419350Y50313D01*
X419406Y50735D01*
X419516Y51147D01*
X419679Y51541D01*
X419892Y51909D01*
X420151Y52247D01*
X420453Y52549D01*
X420791Y52808D01*
X421159Y53021D01*
X421553Y53184D01*
X421965Y53294D01*
X422387Y53350D01*
X422813Y53350D01*
X423235Y53294D01*
X423647Y53184D01*
X424041Y53021D01*
X424409Y52808D01*
X424747Y52549D01*
X425049Y52247D01*
X425308Y51909D01*
X425521Y51541D01*
X425684Y51147D01*
X425794Y50735D01*
X425850Y50313D01*
X425850Y49887D01*
X368050Y49887D02*
X367994Y49465D01*
X367884Y49053D01*
X367721Y48659D01*
X367508Y48291D01*
X367249Y47953D01*
X366947Y47651D01*
X366609Y47392D01*
X366241Y47179D01*
X365847Y47016D01*
X365435Y46906D01*
X365013Y46850D01*
X364587Y46850D01*
X364165Y46906D01*
X363753Y47016D01*
X363359Y47179D01*
X362991Y47392D01*
X362653Y47651D01*
X362351Y47953D01*
X362092Y48291D01*
X361879Y48659D01*
X361716Y49053D01*
X361606Y49465D01*
X361550Y49887D01*
X361550Y50313D01*
X361606Y50735D01*
X361716Y51147D01*
X361879Y51541D01*
X362092Y51909D01*
X362351Y52247D01*
X362653Y52549D01*
X362991Y52808D01*
X363359Y53021D01*
X363753Y53184D01*
X364165Y53294D01*
X364587Y53350D01*
X365013Y53350D01*
X365435Y53294D01*
X365847Y53184D01*
X366241Y53021D01*
X366609Y52808D01*
X366947Y52549D01*
X367249Y52247D01*
X367508Y51909D01*
X367721Y51541D01*
X367884Y51147D01*
X367994Y50735D01*
X368050Y50313D01*
X368050Y49887D01*
X50300Y41950D02*
X49303Y41879D01*
X48313Y41736D01*
X47336Y41524D01*
X46376Y41242D01*
X45439Y40893D01*
X44529Y40477D01*
X43652Y39998D01*
X42810Y39457D01*
X42010Y38858D01*
X41254Y38203D01*
X40547Y37496D01*
X39892Y36740D01*
X39293Y35940D01*
X38752Y35098D01*
X38273Y34221D01*
X37857Y33311D01*
X37508Y32374D01*
X37226Y31415D01*
X37014Y30437D01*
X36871Y29448D01*
X36800Y28450D01*
X36800Y27450D01*
X36871Y26453D01*
X37014Y25463D01*
X37226Y24486D01*
X37508Y23526D01*
X37857Y22589D01*
X38273Y21679D01*
X38752Y20802D01*
X39293Y19960D01*
X39892Y19160D01*
X40547Y18404D01*
X41254Y17697D01*
X42010Y17042D01*
X42810Y16443D01*
X43652Y15902D01*
X44529Y15423D01*
X45439Y15007D01*
X46376Y14658D01*
X47336Y14376D01*
X48313Y14164D01*
X49303Y14021D01*
X50300Y13950D01*
X51300Y13950D01*
X52298Y14021D01*
X53287Y14164D01*
X54265Y14376D01*
X55224Y14658D01*
X56161Y15007D01*
X57071Y15423D01*
X57948Y15902D01*
X58790Y16443D01*
X59590Y17042D01*
X60346Y17697D01*
X61053Y18404D01*
X61708Y19160D01*
X62307Y19960D01*
X62848Y20802D01*
X63327Y21679D01*
X63743Y22589D01*
X64092Y23526D01*
X64374Y24486D01*
X64586Y25463D01*
X64729Y26453D01*
X64800Y27450D01*
X64800Y28450D01*
X64729Y29448D01*
X64586Y30437D01*
X64374Y31415D01*
X64092Y32374D01*
X63743Y33311D01*
X63327Y34221D01*
X62848Y35098D01*
X62307Y35940D01*
X61708Y36740D01*
X61053Y37496D01*
X60346Y38203D01*
X59590Y38858D01*
X58790Y39457D01*
X57948Y39998D01*
X57071Y40477D01*
X56161Y40893D01*
X55224Y41242D01*
X54265Y41524D01*
X53287Y41736D01*
X52298Y41879D01*
X51300Y41950D01*
X50300Y41950D01*
X50300Y621050D02*
X49303Y620979D01*
X48313Y620836D01*
X47336Y620624D01*
X46376Y620342D01*
X45439Y619993D01*
X44529Y619577D01*
X43652Y619098D01*
X42810Y618557D01*
X42010Y617958D01*
X41254Y617303D01*
X40547Y616596D01*
X39892Y615840D01*
X39293Y615040D01*
X38752Y614198D01*
X38273Y613321D01*
X37857Y612411D01*
X37508Y611474D01*
X37226Y610515D01*
X37014Y609537D01*
X36871Y608548D01*
X36800Y607550D01*
X36800Y606550D01*
X36871Y605553D01*
X37014Y604563D01*
X37226Y603586D01*
X37508Y602626D01*
X37857Y601689D01*
X38273Y600779D01*
X38752Y599902D01*
X39293Y599060D01*
X39892Y598260D01*
X40547Y597504D01*
X41254Y596797D01*
X42010Y596142D01*
X42810Y595543D01*
X43652Y595002D01*
X44529Y594523D01*
X45439Y594107D01*
X46376Y593758D01*
X47336Y593476D01*
X48313Y593264D01*
X49303Y593121D01*
X50300Y593050D01*
X51300Y593050D01*
X52298Y593121D01*
X53287Y593264D01*
X54265Y593476D01*
X55224Y593758D01*
X56161Y594107D01*
X57071Y594523D01*
X57948Y595002D01*
X58790Y595543D01*
X59590Y596142D01*
X60346Y596797D01*
X61053Y597504D01*
X61708Y598260D01*
X62307Y599060D01*
X62848Y599902D01*
X63327Y600779D01*
X63743Y601689D01*
X64092Y602626D01*
X64374Y603586D01*
X64586Y604563D01*
X64729Y605553D01*
X64800Y606550D01*
X64800Y607550D01*
X64729Y608548D01*
X64586Y609537D01*
X64374Y610515D01*
X64092Y611474D01*
X63743Y612411D01*
X63327Y613321D01*
X62848Y614198D01*
X62307Y615040D01*
X61708Y615840D01*
X61053Y616596D01*
X60346Y617303D01*
X59590Y617958D01*
X58790Y618557D01*
X57948Y619098D01*
X57071Y619577D01*
X56161Y619993D01*
X55224Y620342D01*
X54265Y620624D01*
X53287Y620836D01*
X52298Y620979D01*
X51300Y621050D01*
X50300Y621050D01*
M02*
