G04 EAGLE Gerber RS-274X export*
G75*
%MOMM*%
%FSLAX34Y34*%
%LPD*%
%INSilkscreen Top*%
%IPPOS*%
%AMOC8*
5,1,8,0,0,1.08239X$1,22.5*%
G01*
%ADD10C,0.076200*%
%ADD11C,0.050800*%
%ADD12C,0.152400*%
%ADD13C,0.200000*%
%ADD14C,0.200000*%
%ADD15C,0.304800*%
%ADD16C,0.127000*%
%ADD17C,0.203200*%
%ADD18C,0.101600*%
%ADD19C,0.270000*%
%ADD20C,0.025400*%


D10*
X502174Y529717D02*
X502174Y537083D01*
X504220Y537083D01*
X504309Y537081D01*
X504398Y537075D01*
X504487Y537065D01*
X504575Y537052D01*
X504663Y537035D01*
X504750Y537013D01*
X504835Y536988D01*
X504920Y536960D01*
X505003Y536927D01*
X505085Y536891D01*
X505165Y536852D01*
X505243Y536809D01*
X505319Y536763D01*
X505394Y536713D01*
X505466Y536660D01*
X505535Y536604D01*
X505602Y536545D01*
X505667Y536484D01*
X505728Y536419D01*
X505787Y536352D01*
X505843Y536283D01*
X505896Y536211D01*
X505946Y536136D01*
X505992Y536060D01*
X506035Y535982D01*
X506074Y535902D01*
X506110Y535820D01*
X506143Y535737D01*
X506171Y535652D01*
X506196Y535567D01*
X506218Y535480D01*
X506235Y535392D01*
X506248Y535304D01*
X506258Y535215D01*
X506264Y535126D01*
X506266Y535037D01*
X506267Y535037D02*
X506267Y531763D01*
X506265Y531674D01*
X506259Y531585D01*
X506249Y531496D01*
X506236Y531408D01*
X506219Y531320D01*
X506197Y531233D01*
X506172Y531148D01*
X506144Y531063D01*
X506111Y530980D01*
X506075Y530898D01*
X506036Y530818D01*
X505993Y530740D01*
X505947Y530664D01*
X505897Y530589D01*
X505844Y530517D01*
X505788Y530448D01*
X505729Y530381D01*
X505668Y530316D01*
X505603Y530255D01*
X505536Y530196D01*
X505467Y530140D01*
X505395Y530087D01*
X505320Y530037D01*
X505244Y529991D01*
X505166Y529948D01*
X505086Y529909D01*
X505004Y529873D01*
X504921Y529840D01*
X504836Y529812D01*
X504751Y529787D01*
X504664Y529765D01*
X504576Y529748D01*
X504488Y529735D01*
X504399Y529725D01*
X504310Y529719D01*
X504221Y529717D01*
X504220Y529717D02*
X502174Y529717D01*
X509734Y533400D02*
X509736Y533553D01*
X509742Y533706D01*
X509751Y533858D01*
X509765Y534011D01*
X509782Y534163D01*
X509803Y534314D01*
X509828Y534465D01*
X509857Y534615D01*
X509889Y534765D01*
X509926Y534913D01*
X509966Y535061D01*
X510009Y535208D01*
X510057Y535353D01*
X510108Y535497D01*
X510162Y535640D01*
X510221Y535782D01*
X510282Y535921D01*
X510348Y536060D01*
X510374Y536130D01*
X510404Y536200D01*
X510437Y536267D01*
X510473Y536333D01*
X510512Y536397D01*
X510555Y536459D01*
X510601Y536518D01*
X510649Y536576D01*
X510700Y536630D01*
X510754Y536683D01*
X510811Y536732D01*
X510870Y536779D01*
X510931Y536822D01*
X510994Y536863D01*
X511059Y536900D01*
X511126Y536935D01*
X511195Y536965D01*
X511265Y536993D01*
X511336Y537016D01*
X511408Y537037D01*
X511481Y537053D01*
X511555Y537066D01*
X511630Y537076D01*
X511705Y537081D01*
X511780Y537083D01*
X511855Y537081D01*
X511930Y537076D01*
X512005Y537066D01*
X512079Y537053D01*
X512152Y537037D01*
X512224Y537016D01*
X512295Y536993D01*
X512365Y536965D01*
X512434Y536935D01*
X512501Y536900D01*
X512566Y536863D01*
X512629Y536822D01*
X512690Y536779D01*
X512749Y536732D01*
X512806Y536683D01*
X512860Y536630D01*
X512911Y536576D01*
X512960Y536518D01*
X513005Y536459D01*
X513048Y536397D01*
X513087Y536333D01*
X513124Y536267D01*
X513156Y536199D01*
X513186Y536130D01*
X513212Y536060D01*
X513277Y535922D01*
X513339Y535782D01*
X513397Y535640D01*
X513452Y535497D01*
X513503Y535353D01*
X513551Y535208D01*
X513594Y535061D01*
X513634Y534914D01*
X513671Y534765D01*
X513703Y534615D01*
X513732Y534465D01*
X513757Y534314D01*
X513778Y534163D01*
X513795Y534011D01*
X513809Y533858D01*
X513818Y533706D01*
X513824Y533553D01*
X513826Y533400D01*
X509733Y533400D02*
X509735Y533247D01*
X509741Y533094D01*
X509750Y532941D01*
X509764Y532789D01*
X509781Y532637D01*
X509802Y532486D01*
X509827Y532335D01*
X509856Y532184D01*
X509888Y532035D01*
X509925Y531886D01*
X509965Y531739D01*
X510008Y531592D01*
X510056Y531447D01*
X510107Y531302D01*
X510162Y531160D01*
X510220Y531018D01*
X510282Y530878D01*
X510347Y530740D01*
X510348Y530740D02*
X510374Y530669D01*
X510404Y530600D01*
X510437Y530533D01*
X510473Y530467D01*
X510512Y530403D01*
X510555Y530341D01*
X510601Y530282D01*
X510649Y530224D01*
X510700Y530170D01*
X510754Y530117D01*
X510811Y530068D01*
X510870Y530021D01*
X510931Y529978D01*
X510994Y529937D01*
X511059Y529900D01*
X511126Y529865D01*
X511195Y529835D01*
X511265Y529807D01*
X511336Y529784D01*
X511408Y529763D01*
X511481Y529747D01*
X511555Y529734D01*
X511630Y529724D01*
X511705Y529719D01*
X511780Y529717D01*
X513211Y530740D02*
X513276Y530878D01*
X513338Y531018D01*
X513396Y531160D01*
X513451Y531303D01*
X513502Y531447D01*
X513550Y531592D01*
X513593Y531739D01*
X513633Y531887D01*
X513670Y532035D01*
X513702Y532185D01*
X513731Y532335D01*
X513756Y532486D01*
X513777Y532637D01*
X513794Y532789D01*
X513808Y532942D01*
X513817Y533094D01*
X513823Y533247D01*
X513825Y533400D01*
X513212Y530740D02*
X513186Y530670D01*
X513156Y530600D01*
X513124Y530533D01*
X513087Y530467D01*
X513048Y530403D01*
X513005Y530341D01*
X512959Y530282D01*
X512911Y530224D01*
X512860Y530170D01*
X512806Y530117D01*
X512749Y530068D01*
X512690Y530021D01*
X512629Y529978D01*
X512566Y529937D01*
X512501Y529900D01*
X512434Y529865D01*
X512365Y529835D01*
X512295Y529807D01*
X512224Y529784D01*
X512152Y529763D01*
X512079Y529747D01*
X512005Y529734D01*
X511930Y529724D01*
X511855Y529719D01*
X511780Y529717D01*
X510143Y531354D02*
X513416Y535446D01*
X476774Y537083D02*
X476774Y529717D01*
X476774Y537083D02*
X478820Y537083D01*
X478909Y537081D01*
X478998Y537075D01*
X479087Y537065D01*
X479175Y537052D01*
X479263Y537035D01*
X479350Y537013D01*
X479435Y536988D01*
X479520Y536960D01*
X479603Y536927D01*
X479685Y536891D01*
X479765Y536852D01*
X479843Y536809D01*
X479919Y536763D01*
X479994Y536713D01*
X480066Y536660D01*
X480135Y536604D01*
X480202Y536545D01*
X480267Y536484D01*
X480328Y536419D01*
X480387Y536352D01*
X480443Y536283D01*
X480496Y536211D01*
X480546Y536136D01*
X480592Y536060D01*
X480635Y535982D01*
X480674Y535902D01*
X480710Y535820D01*
X480743Y535737D01*
X480771Y535652D01*
X480796Y535567D01*
X480818Y535480D01*
X480835Y535392D01*
X480848Y535304D01*
X480858Y535215D01*
X480864Y535126D01*
X480866Y535037D01*
X480867Y535037D02*
X480867Y531763D01*
X480865Y531674D01*
X480859Y531585D01*
X480849Y531496D01*
X480836Y531408D01*
X480819Y531320D01*
X480797Y531233D01*
X480772Y531148D01*
X480744Y531063D01*
X480711Y530980D01*
X480675Y530898D01*
X480636Y530818D01*
X480593Y530740D01*
X480547Y530664D01*
X480497Y530589D01*
X480444Y530517D01*
X480388Y530448D01*
X480329Y530381D01*
X480268Y530316D01*
X480203Y530255D01*
X480136Y530196D01*
X480067Y530140D01*
X479995Y530087D01*
X479920Y530037D01*
X479844Y529991D01*
X479766Y529948D01*
X479686Y529909D01*
X479604Y529873D01*
X479521Y529840D01*
X479436Y529812D01*
X479351Y529787D01*
X479264Y529765D01*
X479176Y529748D01*
X479088Y529735D01*
X478999Y529725D01*
X478910Y529719D01*
X478821Y529717D01*
X478820Y529717D02*
X476774Y529717D01*
X484333Y535446D02*
X486380Y537083D01*
X486380Y529717D01*
X488426Y529717D02*
X484333Y529717D01*
X451374Y529717D02*
X451374Y537083D01*
X453420Y537083D01*
X453509Y537081D01*
X453598Y537075D01*
X453687Y537065D01*
X453775Y537052D01*
X453863Y537035D01*
X453950Y537013D01*
X454035Y536988D01*
X454120Y536960D01*
X454203Y536927D01*
X454285Y536891D01*
X454365Y536852D01*
X454443Y536809D01*
X454519Y536763D01*
X454594Y536713D01*
X454666Y536660D01*
X454735Y536604D01*
X454802Y536545D01*
X454867Y536484D01*
X454928Y536419D01*
X454987Y536352D01*
X455043Y536283D01*
X455096Y536211D01*
X455146Y536136D01*
X455192Y536060D01*
X455235Y535982D01*
X455274Y535902D01*
X455310Y535820D01*
X455343Y535737D01*
X455371Y535652D01*
X455396Y535567D01*
X455418Y535480D01*
X455435Y535392D01*
X455448Y535304D01*
X455458Y535215D01*
X455464Y535126D01*
X455466Y535037D01*
X455467Y535037D02*
X455467Y531763D01*
X455465Y531674D01*
X455459Y531585D01*
X455449Y531496D01*
X455436Y531408D01*
X455419Y531320D01*
X455397Y531233D01*
X455372Y531148D01*
X455344Y531063D01*
X455311Y530980D01*
X455275Y530898D01*
X455236Y530818D01*
X455193Y530740D01*
X455147Y530664D01*
X455097Y530589D01*
X455044Y530517D01*
X454988Y530448D01*
X454929Y530381D01*
X454868Y530316D01*
X454803Y530255D01*
X454736Y530196D01*
X454667Y530140D01*
X454595Y530087D01*
X454520Y530037D01*
X454444Y529991D01*
X454366Y529948D01*
X454286Y529909D01*
X454204Y529873D01*
X454121Y529840D01*
X454036Y529812D01*
X453951Y529787D01*
X453864Y529765D01*
X453776Y529748D01*
X453688Y529735D01*
X453599Y529725D01*
X453510Y529719D01*
X453421Y529717D01*
X453420Y529717D02*
X451374Y529717D01*
X461184Y537084D02*
X461269Y537082D01*
X461354Y537076D01*
X461438Y537066D01*
X461522Y537053D01*
X461606Y537035D01*
X461688Y537014D01*
X461769Y536989D01*
X461849Y536960D01*
X461928Y536927D01*
X462005Y536891D01*
X462080Y536851D01*
X462154Y536808D01*
X462225Y536762D01*
X462294Y536712D01*
X462361Y536659D01*
X462425Y536603D01*
X462486Y536544D01*
X462545Y536483D01*
X462601Y536419D01*
X462654Y536352D01*
X462704Y536283D01*
X462750Y536212D01*
X462793Y536138D01*
X462833Y536063D01*
X462869Y535986D01*
X462902Y535907D01*
X462931Y535827D01*
X462956Y535746D01*
X462977Y535664D01*
X462995Y535580D01*
X463008Y535496D01*
X463018Y535412D01*
X463024Y535327D01*
X463026Y535242D01*
X461184Y537083D02*
X461088Y537081D01*
X460992Y537075D01*
X460897Y537065D01*
X460802Y537052D01*
X460707Y537034D01*
X460614Y537013D01*
X460521Y536988D01*
X460430Y536959D01*
X460339Y536927D01*
X460250Y536891D01*
X460163Y536851D01*
X460077Y536808D01*
X459993Y536762D01*
X459911Y536712D01*
X459831Y536658D01*
X459754Y536602D01*
X459679Y536542D01*
X459606Y536480D01*
X459536Y536414D01*
X459468Y536346D01*
X459403Y536275D01*
X459342Y536202D01*
X459283Y536126D01*
X459227Y536047D01*
X459175Y535967D01*
X459126Y535884D01*
X459080Y535800D01*
X459038Y535714D01*
X459000Y535626D01*
X458965Y535537D01*
X458933Y535446D01*
X462412Y533810D02*
X462472Y533869D01*
X462529Y533931D01*
X462584Y533995D01*
X462635Y534062D01*
X462684Y534131D01*
X462730Y534201D01*
X462773Y534274D01*
X462813Y534348D01*
X462849Y534424D01*
X462882Y534502D01*
X462912Y534581D01*
X462939Y534661D01*
X462962Y534742D01*
X462981Y534824D01*
X462997Y534906D01*
X463010Y534990D01*
X463019Y535074D01*
X463024Y535158D01*
X463026Y535242D01*
X462412Y533809D02*
X458933Y529717D01*
X463026Y529717D01*
X425974Y529717D02*
X425974Y537083D01*
X428020Y537083D01*
X428109Y537081D01*
X428198Y537075D01*
X428287Y537065D01*
X428375Y537052D01*
X428463Y537035D01*
X428550Y537013D01*
X428635Y536988D01*
X428720Y536960D01*
X428803Y536927D01*
X428885Y536891D01*
X428965Y536852D01*
X429043Y536809D01*
X429119Y536763D01*
X429194Y536713D01*
X429266Y536660D01*
X429335Y536604D01*
X429402Y536545D01*
X429467Y536484D01*
X429528Y536419D01*
X429587Y536352D01*
X429643Y536283D01*
X429696Y536211D01*
X429746Y536136D01*
X429792Y536060D01*
X429835Y535982D01*
X429874Y535902D01*
X429910Y535820D01*
X429943Y535737D01*
X429971Y535652D01*
X429996Y535567D01*
X430018Y535480D01*
X430035Y535392D01*
X430048Y535304D01*
X430058Y535215D01*
X430064Y535126D01*
X430066Y535037D01*
X430067Y535037D02*
X430067Y531763D01*
X430065Y531674D01*
X430059Y531585D01*
X430049Y531496D01*
X430036Y531408D01*
X430019Y531320D01*
X429997Y531233D01*
X429972Y531148D01*
X429944Y531063D01*
X429911Y530980D01*
X429875Y530898D01*
X429836Y530818D01*
X429793Y530740D01*
X429747Y530664D01*
X429697Y530589D01*
X429644Y530517D01*
X429588Y530448D01*
X429529Y530381D01*
X429468Y530316D01*
X429403Y530255D01*
X429336Y530196D01*
X429267Y530140D01*
X429195Y530087D01*
X429120Y530037D01*
X429044Y529991D01*
X428966Y529948D01*
X428886Y529909D01*
X428804Y529873D01*
X428721Y529840D01*
X428636Y529812D01*
X428551Y529787D01*
X428464Y529765D01*
X428376Y529748D01*
X428288Y529735D01*
X428199Y529725D01*
X428110Y529719D01*
X428021Y529717D01*
X428020Y529717D02*
X425974Y529717D01*
X433533Y529717D02*
X435580Y529717D01*
X435669Y529719D01*
X435758Y529725D01*
X435847Y529735D01*
X435935Y529748D01*
X436023Y529765D01*
X436110Y529787D01*
X436195Y529812D01*
X436280Y529840D01*
X436363Y529873D01*
X436445Y529909D01*
X436525Y529948D01*
X436603Y529991D01*
X436679Y530037D01*
X436754Y530087D01*
X436826Y530140D01*
X436895Y530196D01*
X436962Y530255D01*
X437027Y530316D01*
X437088Y530381D01*
X437147Y530448D01*
X437203Y530517D01*
X437256Y530589D01*
X437306Y530664D01*
X437352Y530740D01*
X437395Y530818D01*
X437434Y530898D01*
X437470Y530980D01*
X437503Y531063D01*
X437531Y531148D01*
X437556Y531233D01*
X437578Y531320D01*
X437595Y531408D01*
X437608Y531496D01*
X437618Y531585D01*
X437624Y531674D01*
X437626Y531763D01*
X437624Y531852D01*
X437618Y531941D01*
X437608Y532030D01*
X437595Y532118D01*
X437578Y532206D01*
X437556Y532293D01*
X437531Y532378D01*
X437503Y532463D01*
X437470Y532546D01*
X437434Y532628D01*
X437395Y532708D01*
X437352Y532786D01*
X437306Y532862D01*
X437256Y532937D01*
X437203Y533009D01*
X437147Y533078D01*
X437088Y533145D01*
X437027Y533210D01*
X436962Y533271D01*
X436895Y533330D01*
X436826Y533386D01*
X436754Y533439D01*
X436679Y533489D01*
X436603Y533535D01*
X436525Y533578D01*
X436445Y533617D01*
X436363Y533653D01*
X436280Y533686D01*
X436195Y533714D01*
X436110Y533739D01*
X436023Y533761D01*
X435935Y533778D01*
X435847Y533791D01*
X435758Y533801D01*
X435669Y533807D01*
X435580Y533809D01*
X435989Y537083D02*
X433533Y537083D01*
X435989Y537083D02*
X436068Y537081D01*
X436147Y537075D01*
X436226Y537066D01*
X436304Y537053D01*
X436381Y537035D01*
X436457Y537015D01*
X436532Y536990D01*
X436606Y536962D01*
X436679Y536931D01*
X436750Y536895D01*
X436819Y536857D01*
X436886Y536815D01*
X436951Y536770D01*
X437014Y536722D01*
X437075Y536671D01*
X437132Y536617D01*
X437188Y536561D01*
X437240Y536502D01*
X437290Y536440D01*
X437336Y536376D01*
X437380Y536310D01*
X437420Y536242D01*
X437456Y536172D01*
X437490Y536100D01*
X437520Y536026D01*
X437546Y535952D01*
X437569Y535876D01*
X437587Y535799D01*
X437603Y535722D01*
X437614Y535643D01*
X437622Y535565D01*
X437626Y535486D01*
X437626Y535406D01*
X437622Y535327D01*
X437614Y535249D01*
X437603Y535170D01*
X437587Y535093D01*
X437569Y535016D01*
X437546Y534940D01*
X437520Y534866D01*
X437490Y534792D01*
X437456Y534720D01*
X437420Y534650D01*
X437380Y534582D01*
X437336Y534516D01*
X437290Y534452D01*
X437240Y534390D01*
X437188Y534331D01*
X437132Y534275D01*
X437075Y534221D01*
X437014Y534170D01*
X436951Y534122D01*
X436886Y534077D01*
X436819Y534035D01*
X436750Y533997D01*
X436679Y533961D01*
X436606Y533930D01*
X436532Y533902D01*
X436457Y533877D01*
X436381Y533857D01*
X436304Y533839D01*
X436226Y533826D01*
X436147Y533817D01*
X436068Y533811D01*
X435989Y533809D01*
X434352Y533809D01*
X400574Y537083D02*
X400574Y529717D01*
X400574Y537083D02*
X402620Y537083D01*
X402709Y537081D01*
X402798Y537075D01*
X402887Y537065D01*
X402975Y537052D01*
X403063Y537035D01*
X403150Y537013D01*
X403235Y536988D01*
X403320Y536960D01*
X403403Y536927D01*
X403485Y536891D01*
X403565Y536852D01*
X403643Y536809D01*
X403719Y536763D01*
X403794Y536713D01*
X403866Y536660D01*
X403935Y536604D01*
X404002Y536545D01*
X404067Y536484D01*
X404128Y536419D01*
X404187Y536352D01*
X404243Y536283D01*
X404296Y536211D01*
X404346Y536136D01*
X404392Y536060D01*
X404435Y535982D01*
X404474Y535902D01*
X404510Y535820D01*
X404543Y535737D01*
X404571Y535652D01*
X404596Y535567D01*
X404618Y535480D01*
X404635Y535392D01*
X404648Y535304D01*
X404658Y535215D01*
X404664Y535126D01*
X404666Y535037D01*
X404667Y535037D02*
X404667Y531763D01*
X404665Y531674D01*
X404659Y531585D01*
X404649Y531496D01*
X404636Y531408D01*
X404619Y531320D01*
X404597Y531233D01*
X404572Y531148D01*
X404544Y531063D01*
X404511Y530980D01*
X404475Y530898D01*
X404436Y530818D01*
X404393Y530740D01*
X404347Y530664D01*
X404297Y530589D01*
X404244Y530517D01*
X404188Y530448D01*
X404129Y530381D01*
X404068Y530316D01*
X404003Y530255D01*
X403936Y530196D01*
X403867Y530140D01*
X403795Y530087D01*
X403720Y530037D01*
X403644Y529991D01*
X403566Y529948D01*
X403486Y529909D01*
X403404Y529873D01*
X403321Y529840D01*
X403236Y529812D01*
X403151Y529787D01*
X403064Y529765D01*
X402976Y529748D01*
X402888Y529735D01*
X402799Y529725D01*
X402710Y529719D01*
X402621Y529717D01*
X402620Y529717D02*
X400574Y529717D01*
X408133Y531354D02*
X409770Y537083D01*
X408133Y531354D02*
X412226Y531354D01*
X410998Y532991D02*
X410998Y529717D01*
X375174Y529717D02*
X375174Y537083D01*
X377220Y537083D01*
X377309Y537081D01*
X377398Y537075D01*
X377487Y537065D01*
X377575Y537052D01*
X377663Y537035D01*
X377750Y537013D01*
X377835Y536988D01*
X377920Y536960D01*
X378003Y536927D01*
X378085Y536891D01*
X378165Y536852D01*
X378243Y536809D01*
X378319Y536763D01*
X378394Y536713D01*
X378466Y536660D01*
X378535Y536604D01*
X378602Y536545D01*
X378667Y536484D01*
X378728Y536419D01*
X378787Y536352D01*
X378843Y536283D01*
X378896Y536211D01*
X378946Y536136D01*
X378992Y536060D01*
X379035Y535982D01*
X379074Y535902D01*
X379110Y535820D01*
X379143Y535737D01*
X379171Y535652D01*
X379196Y535567D01*
X379218Y535480D01*
X379235Y535392D01*
X379248Y535304D01*
X379258Y535215D01*
X379264Y535126D01*
X379266Y535037D01*
X379267Y535037D02*
X379267Y531763D01*
X379265Y531674D01*
X379259Y531585D01*
X379249Y531496D01*
X379236Y531408D01*
X379219Y531320D01*
X379197Y531233D01*
X379172Y531148D01*
X379144Y531063D01*
X379111Y530980D01*
X379075Y530898D01*
X379036Y530818D01*
X378993Y530740D01*
X378947Y530664D01*
X378897Y530589D01*
X378844Y530517D01*
X378788Y530448D01*
X378729Y530381D01*
X378668Y530316D01*
X378603Y530255D01*
X378536Y530196D01*
X378467Y530140D01*
X378395Y530087D01*
X378320Y530037D01*
X378244Y529991D01*
X378166Y529948D01*
X378086Y529909D01*
X378004Y529873D01*
X377921Y529840D01*
X377836Y529812D01*
X377751Y529787D01*
X377664Y529765D01*
X377576Y529748D01*
X377488Y529735D01*
X377399Y529725D01*
X377310Y529719D01*
X377221Y529717D01*
X377220Y529717D02*
X375174Y529717D01*
X382733Y529717D02*
X385189Y529717D01*
X385267Y529719D01*
X385345Y529724D01*
X385422Y529734D01*
X385499Y529747D01*
X385575Y529763D01*
X385650Y529783D01*
X385724Y529807D01*
X385797Y529834D01*
X385869Y529865D01*
X385939Y529899D01*
X386008Y529936D01*
X386074Y529977D01*
X386139Y530021D01*
X386201Y530067D01*
X386261Y530117D01*
X386319Y530169D01*
X386374Y530224D01*
X386426Y530282D01*
X386476Y530342D01*
X386522Y530404D01*
X386566Y530469D01*
X386607Y530536D01*
X386644Y530604D01*
X386678Y530674D01*
X386709Y530746D01*
X386736Y530819D01*
X386760Y530893D01*
X386780Y530968D01*
X386796Y531044D01*
X386809Y531121D01*
X386819Y531198D01*
X386824Y531276D01*
X386826Y531354D01*
X386826Y532172D01*
X386824Y532250D01*
X386819Y532328D01*
X386809Y532405D01*
X386796Y532482D01*
X386780Y532558D01*
X386760Y532633D01*
X386736Y532707D01*
X386709Y532780D01*
X386678Y532852D01*
X386644Y532922D01*
X386607Y532991D01*
X386566Y533057D01*
X386522Y533122D01*
X386476Y533184D01*
X386426Y533244D01*
X386374Y533302D01*
X386319Y533357D01*
X386261Y533409D01*
X386201Y533459D01*
X386139Y533505D01*
X386074Y533549D01*
X386008Y533590D01*
X385939Y533627D01*
X385869Y533661D01*
X385797Y533692D01*
X385724Y533719D01*
X385650Y533743D01*
X385575Y533763D01*
X385499Y533779D01*
X385422Y533792D01*
X385345Y533802D01*
X385267Y533807D01*
X385189Y533809D01*
X382733Y533809D01*
X382733Y537083D01*
X386826Y537083D01*
X349774Y537083D02*
X349774Y529717D01*
X349774Y537083D02*
X351820Y537083D01*
X351909Y537081D01*
X351998Y537075D01*
X352087Y537065D01*
X352175Y537052D01*
X352263Y537035D01*
X352350Y537013D01*
X352435Y536988D01*
X352520Y536960D01*
X352603Y536927D01*
X352685Y536891D01*
X352765Y536852D01*
X352843Y536809D01*
X352919Y536763D01*
X352994Y536713D01*
X353066Y536660D01*
X353135Y536604D01*
X353202Y536545D01*
X353267Y536484D01*
X353328Y536419D01*
X353387Y536352D01*
X353443Y536283D01*
X353496Y536211D01*
X353546Y536136D01*
X353592Y536060D01*
X353635Y535982D01*
X353674Y535902D01*
X353710Y535820D01*
X353743Y535737D01*
X353771Y535652D01*
X353796Y535567D01*
X353818Y535480D01*
X353835Y535392D01*
X353848Y535304D01*
X353858Y535215D01*
X353864Y535126D01*
X353866Y535037D01*
X353867Y535037D02*
X353867Y531763D01*
X353865Y531674D01*
X353859Y531585D01*
X353849Y531496D01*
X353836Y531408D01*
X353819Y531320D01*
X353797Y531233D01*
X353772Y531148D01*
X353744Y531063D01*
X353711Y530980D01*
X353675Y530898D01*
X353636Y530818D01*
X353593Y530740D01*
X353547Y530664D01*
X353497Y530589D01*
X353444Y530517D01*
X353388Y530448D01*
X353329Y530381D01*
X353268Y530316D01*
X353203Y530255D01*
X353136Y530196D01*
X353067Y530140D01*
X352995Y530087D01*
X352920Y530037D01*
X352844Y529991D01*
X352766Y529948D01*
X352686Y529909D01*
X352604Y529873D01*
X352521Y529840D01*
X352436Y529812D01*
X352351Y529787D01*
X352264Y529765D01*
X352176Y529748D01*
X352088Y529735D01*
X351999Y529725D01*
X351910Y529719D01*
X351821Y529717D01*
X351820Y529717D02*
X349774Y529717D01*
X357333Y533809D02*
X359789Y533809D01*
X359867Y533807D01*
X359945Y533802D01*
X360022Y533792D01*
X360099Y533779D01*
X360175Y533763D01*
X360250Y533743D01*
X360324Y533719D01*
X360397Y533692D01*
X360469Y533661D01*
X360539Y533627D01*
X360608Y533590D01*
X360674Y533549D01*
X360739Y533505D01*
X360801Y533459D01*
X360861Y533409D01*
X360919Y533357D01*
X360974Y533302D01*
X361026Y533244D01*
X361076Y533184D01*
X361122Y533122D01*
X361166Y533057D01*
X361207Y532991D01*
X361244Y532922D01*
X361278Y532852D01*
X361309Y532780D01*
X361336Y532707D01*
X361360Y532633D01*
X361380Y532558D01*
X361396Y532482D01*
X361409Y532405D01*
X361419Y532328D01*
X361424Y532250D01*
X361426Y532172D01*
X361426Y531763D01*
X361424Y531674D01*
X361418Y531585D01*
X361408Y531496D01*
X361395Y531408D01*
X361378Y531320D01*
X361356Y531233D01*
X361331Y531148D01*
X361303Y531063D01*
X361270Y530980D01*
X361234Y530898D01*
X361195Y530818D01*
X361152Y530740D01*
X361106Y530664D01*
X361056Y530589D01*
X361003Y530517D01*
X360947Y530448D01*
X360888Y530381D01*
X360827Y530316D01*
X360762Y530255D01*
X360695Y530196D01*
X360626Y530140D01*
X360554Y530087D01*
X360479Y530037D01*
X360403Y529991D01*
X360325Y529948D01*
X360245Y529909D01*
X360163Y529873D01*
X360080Y529840D01*
X359995Y529812D01*
X359910Y529787D01*
X359823Y529765D01*
X359735Y529748D01*
X359647Y529735D01*
X359558Y529725D01*
X359469Y529719D01*
X359380Y529717D01*
X359291Y529719D01*
X359202Y529725D01*
X359113Y529735D01*
X359025Y529748D01*
X358937Y529765D01*
X358850Y529787D01*
X358765Y529812D01*
X358680Y529840D01*
X358597Y529873D01*
X358515Y529909D01*
X358435Y529948D01*
X358357Y529991D01*
X358281Y530037D01*
X358206Y530087D01*
X358134Y530140D01*
X358065Y530196D01*
X357998Y530255D01*
X357933Y530316D01*
X357872Y530381D01*
X357813Y530448D01*
X357757Y530517D01*
X357704Y530589D01*
X357654Y530664D01*
X357608Y530740D01*
X357565Y530818D01*
X357526Y530898D01*
X357490Y530980D01*
X357457Y531063D01*
X357429Y531148D01*
X357404Y531233D01*
X357382Y531320D01*
X357365Y531408D01*
X357352Y531496D01*
X357342Y531585D01*
X357336Y531674D01*
X357334Y531763D01*
X357333Y531763D02*
X357333Y533809D01*
X357335Y533923D01*
X357341Y534037D01*
X357351Y534151D01*
X357365Y534265D01*
X357383Y534378D01*
X357405Y534490D01*
X357430Y534601D01*
X357460Y534711D01*
X357493Y534821D01*
X357530Y534929D01*
X357571Y535035D01*
X357616Y535141D01*
X357664Y535244D01*
X357716Y535346D01*
X357772Y535446D01*
X357830Y535544D01*
X357893Y535640D01*
X357958Y535733D01*
X358027Y535825D01*
X358099Y535913D01*
X358174Y536000D01*
X358252Y536083D01*
X358333Y536164D01*
X358416Y536242D01*
X358503Y536317D01*
X358591Y536389D01*
X358683Y536458D01*
X358776Y536523D01*
X358872Y536585D01*
X358970Y536644D01*
X359070Y536700D01*
X359172Y536752D01*
X359275Y536800D01*
X359381Y536845D01*
X359487Y536886D01*
X359595Y536923D01*
X359705Y536956D01*
X359815Y536986D01*
X359926Y537011D01*
X360038Y537033D01*
X360151Y537051D01*
X360265Y537065D01*
X360379Y537075D01*
X360493Y537081D01*
X360607Y537083D01*
X324374Y537083D02*
X324374Y529717D01*
X324374Y537083D02*
X326420Y537083D01*
X326509Y537081D01*
X326598Y537075D01*
X326687Y537065D01*
X326775Y537052D01*
X326863Y537035D01*
X326950Y537013D01*
X327035Y536988D01*
X327120Y536960D01*
X327203Y536927D01*
X327285Y536891D01*
X327365Y536852D01*
X327443Y536809D01*
X327519Y536763D01*
X327594Y536713D01*
X327666Y536660D01*
X327735Y536604D01*
X327802Y536545D01*
X327867Y536484D01*
X327928Y536419D01*
X327987Y536352D01*
X328043Y536283D01*
X328096Y536211D01*
X328146Y536136D01*
X328192Y536060D01*
X328235Y535982D01*
X328274Y535902D01*
X328310Y535820D01*
X328343Y535737D01*
X328371Y535652D01*
X328396Y535567D01*
X328418Y535480D01*
X328435Y535392D01*
X328448Y535304D01*
X328458Y535215D01*
X328464Y535126D01*
X328466Y535037D01*
X328467Y535037D02*
X328467Y531763D01*
X328465Y531674D01*
X328459Y531585D01*
X328449Y531496D01*
X328436Y531408D01*
X328419Y531320D01*
X328397Y531233D01*
X328372Y531148D01*
X328344Y531063D01*
X328311Y530980D01*
X328275Y530898D01*
X328236Y530818D01*
X328193Y530740D01*
X328147Y530664D01*
X328097Y530589D01*
X328044Y530517D01*
X327988Y530448D01*
X327929Y530381D01*
X327868Y530316D01*
X327803Y530255D01*
X327736Y530196D01*
X327667Y530140D01*
X327595Y530087D01*
X327520Y530037D01*
X327444Y529991D01*
X327366Y529948D01*
X327286Y529909D01*
X327204Y529873D01*
X327121Y529840D01*
X327036Y529812D01*
X326951Y529787D01*
X326864Y529765D01*
X326776Y529748D01*
X326688Y529735D01*
X326599Y529725D01*
X326510Y529719D01*
X326421Y529717D01*
X326420Y529717D02*
X324374Y529717D01*
X331933Y536265D02*
X331933Y537083D01*
X336026Y537083D01*
X333980Y529717D01*
X501016Y610009D02*
X502243Y610009D01*
X502243Y605917D01*
X499788Y605917D01*
X499710Y605919D01*
X499632Y605924D01*
X499555Y605934D01*
X499478Y605947D01*
X499402Y605963D01*
X499327Y605983D01*
X499253Y606007D01*
X499180Y606034D01*
X499108Y606065D01*
X499038Y606099D01*
X498970Y606136D01*
X498903Y606177D01*
X498838Y606221D01*
X498776Y606267D01*
X498716Y606317D01*
X498658Y606369D01*
X498603Y606424D01*
X498551Y606482D01*
X498501Y606542D01*
X498455Y606604D01*
X498411Y606669D01*
X498370Y606736D01*
X498333Y606804D01*
X498299Y606874D01*
X498268Y606946D01*
X498241Y607019D01*
X498217Y607093D01*
X498197Y607168D01*
X498181Y607244D01*
X498168Y607321D01*
X498158Y607398D01*
X498153Y607476D01*
X498151Y607554D01*
X498151Y611646D01*
X498153Y611726D01*
X498159Y611806D01*
X498169Y611886D01*
X498182Y611965D01*
X498200Y612044D01*
X498221Y612121D01*
X498247Y612197D01*
X498276Y612272D01*
X498308Y612346D01*
X498344Y612418D01*
X498384Y612488D01*
X498427Y612555D01*
X498473Y612621D01*
X498523Y612684D01*
X498575Y612745D01*
X498630Y612804D01*
X498689Y612859D01*
X498749Y612911D01*
X498813Y612961D01*
X498879Y613007D01*
X498946Y613050D01*
X499016Y613090D01*
X499088Y613126D01*
X499162Y613158D01*
X499236Y613187D01*
X499313Y613213D01*
X499390Y613234D01*
X499469Y613252D01*
X499548Y613265D01*
X499628Y613275D01*
X499708Y613281D01*
X499788Y613283D01*
X502243Y613283D01*
X505954Y613283D02*
X505954Y605917D01*
X510046Y605917D02*
X505954Y613283D01*
X510046Y613283D02*
X510046Y605917D01*
X513757Y605917D02*
X513757Y613283D01*
X515803Y613283D01*
X515892Y613281D01*
X515981Y613275D01*
X516070Y613265D01*
X516158Y613252D01*
X516246Y613235D01*
X516333Y613213D01*
X516418Y613188D01*
X516503Y613160D01*
X516586Y613127D01*
X516668Y613091D01*
X516748Y613052D01*
X516826Y613009D01*
X516902Y612963D01*
X516977Y612913D01*
X517049Y612860D01*
X517118Y612804D01*
X517185Y612745D01*
X517250Y612684D01*
X517311Y612619D01*
X517370Y612552D01*
X517426Y612483D01*
X517479Y612411D01*
X517529Y612336D01*
X517575Y612260D01*
X517618Y612182D01*
X517657Y612102D01*
X517693Y612020D01*
X517726Y611937D01*
X517754Y611852D01*
X517779Y611767D01*
X517801Y611680D01*
X517818Y611592D01*
X517831Y611504D01*
X517841Y611415D01*
X517847Y611326D01*
X517849Y611237D01*
X517849Y607963D01*
X517847Y607874D01*
X517841Y607785D01*
X517831Y607696D01*
X517818Y607608D01*
X517801Y607520D01*
X517779Y607433D01*
X517754Y607348D01*
X517726Y607263D01*
X517693Y607180D01*
X517657Y607098D01*
X517618Y607018D01*
X517575Y606940D01*
X517529Y606864D01*
X517479Y606789D01*
X517426Y606717D01*
X517370Y606648D01*
X517311Y606581D01*
X517250Y606516D01*
X517185Y606455D01*
X517118Y606396D01*
X517049Y606340D01*
X516977Y606287D01*
X516902Y606237D01*
X516826Y606191D01*
X516748Y606148D01*
X516668Y606109D01*
X516586Y606073D01*
X516503Y606040D01*
X516418Y606012D01*
X516333Y605987D01*
X516246Y605965D01*
X516158Y605948D01*
X516070Y605935D01*
X515981Y605925D01*
X515892Y605919D01*
X515803Y605917D01*
X513757Y605917D01*
X476843Y610009D02*
X475616Y610009D01*
X476843Y610009D02*
X476843Y605917D01*
X474388Y605917D01*
X474310Y605919D01*
X474232Y605924D01*
X474155Y605934D01*
X474078Y605947D01*
X474002Y605963D01*
X473927Y605983D01*
X473853Y606007D01*
X473780Y606034D01*
X473708Y606065D01*
X473638Y606099D01*
X473570Y606136D01*
X473503Y606177D01*
X473438Y606221D01*
X473376Y606267D01*
X473316Y606317D01*
X473258Y606369D01*
X473203Y606424D01*
X473151Y606482D01*
X473101Y606542D01*
X473055Y606604D01*
X473011Y606669D01*
X472970Y606736D01*
X472933Y606804D01*
X472899Y606874D01*
X472868Y606946D01*
X472841Y607019D01*
X472817Y607093D01*
X472797Y607168D01*
X472781Y607244D01*
X472768Y607321D01*
X472758Y607398D01*
X472753Y607476D01*
X472751Y607554D01*
X472751Y611646D01*
X472753Y611726D01*
X472759Y611806D01*
X472769Y611886D01*
X472782Y611965D01*
X472800Y612044D01*
X472821Y612121D01*
X472847Y612197D01*
X472876Y612272D01*
X472908Y612346D01*
X472944Y612418D01*
X472984Y612488D01*
X473027Y612555D01*
X473073Y612621D01*
X473123Y612684D01*
X473175Y612745D01*
X473230Y612804D01*
X473289Y612859D01*
X473349Y612911D01*
X473413Y612961D01*
X473479Y613007D01*
X473546Y613050D01*
X473616Y613090D01*
X473688Y613126D01*
X473762Y613158D01*
X473836Y613187D01*
X473913Y613213D01*
X473990Y613234D01*
X474069Y613252D01*
X474148Y613265D01*
X474228Y613275D01*
X474308Y613281D01*
X474388Y613283D01*
X476843Y613283D01*
X480554Y613283D02*
X480554Y605917D01*
X484646Y605917D02*
X480554Y613283D01*
X484646Y613283D02*
X484646Y605917D01*
X488357Y605917D02*
X488357Y613283D01*
X490403Y613283D01*
X490492Y613281D01*
X490581Y613275D01*
X490670Y613265D01*
X490758Y613252D01*
X490846Y613235D01*
X490933Y613213D01*
X491018Y613188D01*
X491103Y613160D01*
X491186Y613127D01*
X491268Y613091D01*
X491348Y613052D01*
X491426Y613009D01*
X491502Y612963D01*
X491577Y612913D01*
X491649Y612860D01*
X491718Y612804D01*
X491785Y612745D01*
X491850Y612684D01*
X491911Y612619D01*
X491970Y612552D01*
X492026Y612483D01*
X492079Y612411D01*
X492129Y612336D01*
X492175Y612260D01*
X492218Y612182D01*
X492257Y612102D01*
X492293Y612020D01*
X492326Y611937D01*
X492354Y611852D01*
X492379Y611767D01*
X492401Y611680D01*
X492418Y611592D01*
X492431Y611504D01*
X492441Y611415D01*
X492447Y611326D01*
X492449Y611237D01*
X492449Y607963D01*
X492447Y607874D01*
X492441Y607785D01*
X492431Y607696D01*
X492418Y607608D01*
X492401Y607520D01*
X492379Y607433D01*
X492354Y607348D01*
X492326Y607263D01*
X492293Y607180D01*
X492257Y607098D01*
X492218Y607018D01*
X492175Y606940D01*
X492129Y606864D01*
X492079Y606789D01*
X492026Y606717D01*
X491970Y606648D01*
X491911Y606581D01*
X491850Y606516D01*
X491785Y606455D01*
X491718Y606396D01*
X491649Y606340D01*
X491577Y606287D01*
X491502Y606237D01*
X491426Y606191D01*
X491348Y606148D01*
X491268Y606109D01*
X491186Y606073D01*
X491103Y606040D01*
X491018Y606012D01*
X490933Y605987D01*
X490846Y605965D01*
X490758Y605948D01*
X490670Y605935D01*
X490581Y605925D01*
X490492Y605919D01*
X490403Y605917D01*
X488357Y605917D01*
X453747Y605917D02*
X451292Y605917D01*
X453747Y605917D02*
X453825Y605919D01*
X453903Y605924D01*
X453980Y605934D01*
X454057Y605947D01*
X454133Y605963D01*
X454208Y605983D01*
X454282Y606007D01*
X454355Y606034D01*
X454427Y606065D01*
X454497Y606099D01*
X454566Y606136D01*
X454632Y606177D01*
X454697Y606221D01*
X454759Y606267D01*
X454819Y606317D01*
X454877Y606369D01*
X454932Y606424D01*
X454984Y606482D01*
X455034Y606542D01*
X455080Y606604D01*
X455124Y606669D01*
X455165Y606736D01*
X455202Y606804D01*
X455236Y606874D01*
X455267Y606946D01*
X455294Y607019D01*
X455318Y607093D01*
X455338Y607168D01*
X455354Y607244D01*
X455367Y607321D01*
X455377Y607398D01*
X455382Y607476D01*
X455384Y607554D01*
X455384Y608372D01*
X455382Y608450D01*
X455377Y608528D01*
X455367Y608605D01*
X455354Y608682D01*
X455338Y608758D01*
X455318Y608833D01*
X455294Y608907D01*
X455267Y608980D01*
X455236Y609052D01*
X455202Y609122D01*
X455165Y609191D01*
X455124Y609257D01*
X455080Y609322D01*
X455034Y609384D01*
X454984Y609444D01*
X454932Y609502D01*
X454877Y609557D01*
X454819Y609609D01*
X454759Y609659D01*
X454697Y609705D01*
X454632Y609749D01*
X454566Y609790D01*
X454497Y609827D01*
X454427Y609861D01*
X454355Y609892D01*
X454282Y609919D01*
X454208Y609943D01*
X454133Y609963D01*
X454057Y609979D01*
X453980Y609992D01*
X453903Y610002D01*
X453825Y610007D01*
X453747Y610009D01*
X451292Y610009D01*
X451292Y613283D01*
X455384Y613283D01*
X458198Y613283D02*
X460653Y605917D01*
X463108Y613283D01*
X424603Y613283D02*
X424603Y605917D01*
X425421Y605917D02*
X423784Y605917D01*
X423784Y613283D02*
X425421Y613283D01*
X428652Y613283D02*
X428652Y605917D01*
X432745Y605917D02*
X428652Y613283D01*
X432745Y613283D02*
X432745Y605917D01*
X437770Y605917D02*
X437770Y613283D01*
X435724Y613283D02*
X439816Y613283D01*
X402947Y613283D02*
X400492Y605917D01*
X405402Y605917D02*
X402947Y613283D01*
X401106Y607759D02*
X404789Y607759D01*
X408216Y609600D02*
X408218Y609753D01*
X408224Y609906D01*
X408233Y610058D01*
X408247Y610211D01*
X408264Y610363D01*
X408285Y610514D01*
X408310Y610665D01*
X408339Y610815D01*
X408371Y610965D01*
X408408Y611113D01*
X408448Y611261D01*
X408491Y611408D01*
X408539Y611553D01*
X408590Y611697D01*
X408644Y611840D01*
X408703Y611982D01*
X408764Y612121D01*
X408830Y612260D01*
X408856Y612330D01*
X408886Y612400D01*
X408919Y612467D01*
X408955Y612533D01*
X408994Y612597D01*
X409037Y612659D01*
X409083Y612718D01*
X409131Y612776D01*
X409182Y612830D01*
X409236Y612883D01*
X409293Y612932D01*
X409352Y612979D01*
X409413Y613022D01*
X409476Y613063D01*
X409541Y613100D01*
X409608Y613135D01*
X409677Y613165D01*
X409747Y613193D01*
X409818Y613216D01*
X409890Y613237D01*
X409963Y613253D01*
X410037Y613266D01*
X410112Y613276D01*
X410187Y613281D01*
X410262Y613283D01*
X410337Y613281D01*
X410412Y613276D01*
X410487Y613266D01*
X410561Y613253D01*
X410634Y613237D01*
X410706Y613216D01*
X410777Y613193D01*
X410847Y613165D01*
X410916Y613135D01*
X410983Y613100D01*
X411048Y613063D01*
X411111Y613022D01*
X411172Y612979D01*
X411231Y612932D01*
X411288Y612883D01*
X411342Y612830D01*
X411393Y612776D01*
X411442Y612718D01*
X411487Y612659D01*
X411530Y612597D01*
X411569Y612533D01*
X411606Y612467D01*
X411638Y612399D01*
X411668Y612330D01*
X411694Y612260D01*
X411759Y612122D01*
X411821Y611982D01*
X411879Y611840D01*
X411934Y611697D01*
X411985Y611553D01*
X412033Y611408D01*
X412076Y611261D01*
X412116Y611114D01*
X412153Y610965D01*
X412185Y610815D01*
X412214Y610665D01*
X412239Y610514D01*
X412260Y610363D01*
X412277Y610211D01*
X412291Y610058D01*
X412300Y609906D01*
X412306Y609753D01*
X412308Y609600D01*
X408216Y609600D02*
X408218Y609447D01*
X408224Y609294D01*
X408233Y609141D01*
X408247Y608989D01*
X408264Y608837D01*
X408285Y608686D01*
X408310Y608535D01*
X408339Y608384D01*
X408371Y608235D01*
X408408Y608086D01*
X408448Y607939D01*
X408491Y607792D01*
X408539Y607647D01*
X408590Y607502D01*
X408645Y607360D01*
X408703Y607218D01*
X408765Y607078D01*
X408830Y606940D01*
X408856Y606869D01*
X408886Y606800D01*
X408919Y606733D01*
X408955Y606667D01*
X408994Y606603D01*
X409037Y606541D01*
X409083Y606482D01*
X409131Y606424D01*
X409182Y606370D01*
X409236Y606317D01*
X409293Y606268D01*
X409352Y606221D01*
X409413Y606178D01*
X409476Y606137D01*
X409541Y606100D01*
X409608Y606065D01*
X409677Y606035D01*
X409747Y606007D01*
X409818Y605984D01*
X409890Y605963D01*
X409963Y605947D01*
X410037Y605934D01*
X410112Y605924D01*
X410187Y605919D01*
X410262Y605917D01*
X411694Y606940D02*
X411759Y607078D01*
X411821Y607218D01*
X411879Y607360D01*
X411934Y607503D01*
X411985Y607647D01*
X412033Y607792D01*
X412076Y607939D01*
X412116Y608087D01*
X412153Y608235D01*
X412185Y608385D01*
X412214Y608535D01*
X412239Y608686D01*
X412260Y608837D01*
X412277Y608989D01*
X412291Y609142D01*
X412300Y609294D01*
X412306Y609447D01*
X412308Y609600D01*
X411694Y606940D02*
X411668Y606870D01*
X411638Y606800D01*
X411606Y606733D01*
X411569Y606667D01*
X411530Y606603D01*
X411487Y606541D01*
X411441Y606482D01*
X411393Y606424D01*
X411342Y606370D01*
X411288Y606317D01*
X411231Y606268D01*
X411172Y606221D01*
X411111Y606178D01*
X411048Y606137D01*
X410983Y606100D01*
X410916Y606065D01*
X410847Y606035D01*
X410777Y606007D01*
X410706Y605984D01*
X410634Y605963D01*
X410561Y605947D01*
X410487Y605934D01*
X410412Y605924D01*
X410337Y605919D01*
X410262Y605917D01*
X408625Y607554D02*
X411899Y611646D01*
X386365Y614807D02*
X375635Y614807D01*
X377653Y605917D02*
X379290Y605917D01*
X377653Y605917D02*
X377575Y605919D01*
X377497Y605924D01*
X377420Y605934D01*
X377343Y605947D01*
X377267Y605963D01*
X377192Y605983D01*
X377118Y606007D01*
X377045Y606034D01*
X376973Y606065D01*
X376903Y606099D01*
X376835Y606136D01*
X376768Y606177D01*
X376703Y606221D01*
X376641Y606267D01*
X376581Y606317D01*
X376523Y606369D01*
X376468Y606424D01*
X376416Y606482D01*
X376366Y606542D01*
X376320Y606604D01*
X376276Y606669D01*
X376235Y606736D01*
X376198Y606804D01*
X376164Y606874D01*
X376133Y606946D01*
X376106Y607019D01*
X376082Y607093D01*
X376062Y607168D01*
X376046Y607244D01*
X376033Y607321D01*
X376023Y607398D01*
X376018Y607476D01*
X376016Y607554D01*
X376016Y611646D01*
X376018Y611726D01*
X376024Y611806D01*
X376034Y611886D01*
X376047Y611965D01*
X376065Y612044D01*
X376086Y612121D01*
X376112Y612197D01*
X376141Y612272D01*
X376173Y612346D01*
X376209Y612418D01*
X376249Y612488D01*
X376292Y612555D01*
X376338Y612621D01*
X376388Y612684D01*
X376440Y612745D01*
X376495Y612804D01*
X376554Y612859D01*
X376614Y612911D01*
X376678Y612961D01*
X376744Y613007D01*
X376811Y613050D01*
X376881Y613090D01*
X376953Y613126D01*
X377027Y613158D01*
X377101Y613187D01*
X377178Y613213D01*
X377255Y613234D01*
X377334Y613252D01*
X377413Y613265D01*
X377493Y613275D01*
X377573Y613281D01*
X377653Y613283D01*
X379290Y613283D01*
X385984Y607554D02*
X385982Y607476D01*
X385977Y607398D01*
X385967Y607321D01*
X385954Y607244D01*
X385938Y607168D01*
X385918Y607093D01*
X385894Y607019D01*
X385867Y606946D01*
X385836Y606874D01*
X385802Y606804D01*
X385765Y606736D01*
X385724Y606669D01*
X385680Y606604D01*
X385634Y606542D01*
X385584Y606482D01*
X385532Y606424D01*
X385477Y606369D01*
X385419Y606317D01*
X385359Y606267D01*
X385297Y606221D01*
X385232Y606177D01*
X385166Y606136D01*
X385097Y606099D01*
X385027Y606065D01*
X384955Y606034D01*
X384882Y606007D01*
X384808Y605983D01*
X384733Y605963D01*
X384657Y605947D01*
X384580Y605934D01*
X384503Y605924D01*
X384425Y605919D01*
X384347Y605917D01*
X384233Y605919D01*
X384120Y605924D01*
X384006Y605934D01*
X383893Y605947D01*
X383781Y605964D01*
X383669Y605984D01*
X383558Y606008D01*
X383447Y606036D01*
X383338Y606067D01*
X383230Y606102D01*
X383123Y606141D01*
X383017Y606183D01*
X382913Y606228D01*
X382810Y606277D01*
X382709Y606330D01*
X382610Y606385D01*
X382512Y606444D01*
X382417Y606506D01*
X382324Y606571D01*
X382232Y606639D01*
X382144Y606710D01*
X382057Y606784D01*
X381973Y606861D01*
X381892Y606940D01*
X382096Y611646D02*
X382098Y611724D01*
X382103Y611802D01*
X382113Y611879D01*
X382126Y611956D01*
X382142Y612032D01*
X382162Y612107D01*
X382186Y612181D01*
X382213Y612254D01*
X382244Y612326D01*
X382278Y612396D01*
X382315Y612465D01*
X382356Y612531D01*
X382400Y612596D01*
X382446Y612658D01*
X382496Y612718D01*
X382548Y612776D01*
X382603Y612831D01*
X382661Y612883D01*
X382721Y612933D01*
X382783Y612979D01*
X382848Y613023D01*
X382915Y613064D01*
X382983Y613101D01*
X383053Y613135D01*
X383125Y613166D01*
X383198Y613193D01*
X383272Y613217D01*
X383347Y613237D01*
X383423Y613253D01*
X383500Y613266D01*
X383577Y613276D01*
X383655Y613281D01*
X383733Y613283D01*
X383843Y613281D01*
X383952Y613275D01*
X384062Y613265D01*
X384170Y613252D01*
X384279Y613234D01*
X384386Y613213D01*
X384493Y613187D01*
X384599Y613158D01*
X384704Y613126D01*
X384807Y613089D01*
X384909Y613049D01*
X385010Y613005D01*
X385109Y612957D01*
X385206Y612907D01*
X385301Y612852D01*
X385394Y612794D01*
X385485Y612733D01*
X385574Y612669D01*
X382915Y610213D02*
X382848Y610255D01*
X382783Y610299D01*
X382721Y610347D01*
X382661Y610397D01*
X382603Y610450D01*
X382548Y610506D01*
X382496Y610565D01*
X382446Y610625D01*
X382399Y610689D01*
X382356Y610754D01*
X382315Y610821D01*
X382278Y610890D01*
X382244Y610961D01*
X382213Y611033D01*
X382186Y611107D01*
X382162Y611181D01*
X382142Y611257D01*
X382126Y611334D01*
X382113Y611411D01*
X382103Y611489D01*
X382098Y611568D01*
X382096Y611646D01*
X385165Y608986D02*
X385231Y608944D01*
X385296Y608900D01*
X385358Y608853D01*
X385418Y608802D01*
X385476Y608749D01*
X385531Y608693D01*
X385584Y608635D01*
X385633Y608574D01*
X385680Y608511D01*
X385723Y608446D01*
X385764Y608379D01*
X385801Y608310D01*
X385835Y608239D01*
X385866Y608167D01*
X385893Y608093D01*
X385917Y608018D01*
X385937Y607943D01*
X385953Y607866D01*
X385966Y607789D01*
X385976Y607711D01*
X385981Y607632D01*
X385983Y607554D01*
X385165Y608986D02*
X382915Y610214D01*
X361781Y614807D02*
X349419Y614807D01*
X349800Y613283D02*
X349800Y605917D01*
X349800Y613283D02*
X351846Y613283D01*
X351935Y613281D01*
X352024Y613275D01*
X352113Y613265D01*
X352201Y613252D01*
X352289Y613235D01*
X352376Y613213D01*
X352461Y613188D01*
X352546Y613160D01*
X352629Y613127D01*
X352711Y613091D01*
X352791Y613052D01*
X352869Y613009D01*
X352945Y612963D01*
X353020Y612913D01*
X353092Y612860D01*
X353161Y612804D01*
X353228Y612745D01*
X353293Y612684D01*
X353354Y612619D01*
X353413Y612552D01*
X353469Y612483D01*
X353522Y612411D01*
X353572Y612336D01*
X353618Y612260D01*
X353661Y612182D01*
X353700Y612102D01*
X353736Y612020D01*
X353769Y611937D01*
X353797Y611852D01*
X353822Y611767D01*
X353844Y611680D01*
X353861Y611592D01*
X353874Y611504D01*
X353884Y611415D01*
X353890Y611326D01*
X353892Y611237D01*
X353890Y611148D01*
X353884Y611059D01*
X353874Y610970D01*
X353861Y610882D01*
X353844Y610794D01*
X353822Y610707D01*
X353797Y610622D01*
X353769Y610537D01*
X353736Y610454D01*
X353700Y610372D01*
X353661Y610292D01*
X353618Y610214D01*
X353572Y610138D01*
X353522Y610063D01*
X353469Y609991D01*
X353413Y609922D01*
X353354Y609855D01*
X353293Y609790D01*
X353228Y609729D01*
X353161Y609670D01*
X353092Y609614D01*
X353020Y609561D01*
X352945Y609511D01*
X352869Y609465D01*
X352791Y609422D01*
X352711Y609383D01*
X352629Y609347D01*
X352546Y609314D01*
X352461Y609286D01*
X352376Y609261D01*
X352289Y609239D01*
X352201Y609222D01*
X352113Y609209D01*
X352024Y609199D01*
X351935Y609193D01*
X351846Y609191D01*
X349800Y609191D01*
X352255Y609191D02*
X353892Y605917D01*
X357308Y605917D02*
X357308Y613283D01*
X359354Y613283D01*
X359443Y613281D01*
X359532Y613275D01*
X359621Y613265D01*
X359709Y613252D01*
X359797Y613235D01*
X359884Y613213D01*
X359969Y613188D01*
X360054Y613160D01*
X360137Y613127D01*
X360219Y613091D01*
X360299Y613052D01*
X360377Y613009D01*
X360453Y612963D01*
X360528Y612913D01*
X360600Y612860D01*
X360669Y612804D01*
X360736Y612745D01*
X360801Y612684D01*
X360862Y612619D01*
X360921Y612552D01*
X360977Y612483D01*
X361030Y612411D01*
X361080Y612336D01*
X361126Y612260D01*
X361169Y612182D01*
X361208Y612102D01*
X361244Y612020D01*
X361277Y611937D01*
X361305Y611852D01*
X361330Y611767D01*
X361352Y611680D01*
X361369Y611592D01*
X361382Y611504D01*
X361392Y611415D01*
X361398Y611326D01*
X361400Y611237D01*
X361400Y607963D01*
X361398Y607874D01*
X361392Y607785D01*
X361382Y607696D01*
X361369Y607608D01*
X361352Y607520D01*
X361330Y607433D01*
X361305Y607348D01*
X361277Y607263D01*
X361244Y607180D01*
X361208Y607098D01*
X361169Y607018D01*
X361126Y606940D01*
X361080Y606864D01*
X361030Y606789D01*
X360977Y606717D01*
X360921Y606648D01*
X360862Y606581D01*
X360801Y606516D01*
X360736Y606455D01*
X360669Y606396D01*
X360600Y606340D01*
X360528Y606287D01*
X360453Y606237D01*
X360377Y606191D01*
X360299Y606148D01*
X360219Y606109D01*
X360137Y606073D01*
X360054Y606040D01*
X359969Y606012D01*
X359884Y605987D01*
X359797Y605965D01*
X359709Y605948D01*
X359621Y605935D01*
X359532Y605925D01*
X359443Y605919D01*
X359354Y605917D01*
X357308Y605917D01*
X337534Y614807D02*
X322866Y614807D01*
X323247Y613283D02*
X324884Y605917D01*
X326521Y610828D01*
X328158Y605917D01*
X329795Y613283D01*
X333061Y613283D02*
X333061Y605917D01*
X333061Y613283D02*
X335107Y613283D01*
X335196Y613281D01*
X335285Y613275D01*
X335374Y613265D01*
X335462Y613252D01*
X335550Y613235D01*
X335637Y613213D01*
X335722Y613188D01*
X335807Y613160D01*
X335890Y613127D01*
X335972Y613091D01*
X336052Y613052D01*
X336130Y613009D01*
X336206Y612963D01*
X336281Y612913D01*
X336353Y612860D01*
X336422Y612804D01*
X336489Y612745D01*
X336554Y612684D01*
X336615Y612619D01*
X336674Y612552D01*
X336730Y612483D01*
X336783Y612411D01*
X336833Y612336D01*
X336879Y612260D01*
X336922Y612182D01*
X336961Y612102D01*
X336997Y612020D01*
X337030Y611937D01*
X337058Y611852D01*
X337083Y611767D01*
X337105Y611680D01*
X337122Y611592D01*
X337135Y611504D01*
X337145Y611415D01*
X337151Y611326D01*
X337153Y611237D01*
X337151Y611148D01*
X337145Y611059D01*
X337135Y610970D01*
X337122Y610882D01*
X337105Y610794D01*
X337083Y610707D01*
X337058Y610622D01*
X337030Y610537D01*
X336997Y610454D01*
X336961Y610372D01*
X336922Y610292D01*
X336879Y610214D01*
X336833Y610138D01*
X336783Y610063D01*
X336730Y609991D01*
X336674Y609922D01*
X336615Y609855D01*
X336554Y609790D01*
X336489Y609729D01*
X336422Y609670D01*
X336353Y609614D01*
X336281Y609561D01*
X336206Y609511D01*
X336130Y609465D01*
X336052Y609422D01*
X335972Y609383D01*
X335890Y609347D01*
X335807Y609314D01*
X335722Y609286D01*
X335637Y609261D01*
X335550Y609239D01*
X335462Y609222D01*
X335374Y609209D01*
X335285Y609199D01*
X335196Y609193D01*
X335107Y609191D01*
X333061Y609191D01*
X335516Y609191D02*
X337153Y605917D01*
X205461Y617030D02*
X205459Y617125D01*
X205453Y617219D01*
X205444Y617313D01*
X205431Y617407D01*
X205414Y617500D01*
X205393Y617592D01*
X205368Y617684D01*
X205340Y617774D01*
X205308Y617863D01*
X205273Y617951D01*
X205234Y618037D01*
X205192Y618122D01*
X205146Y618205D01*
X205097Y618286D01*
X205045Y618365D01*
X204990Y618442D01*
X204931Y618516D01*
X204870Y618588D01*
X204806Y618658D01*
X204739Y618725D01*
X204669Y618789D01*
X204597Y618850D01*
X204523Y618909D01*
X204446Y618964D01*
X204367Y619016D01*
X204286Y619065D01*
X204203Y619111D01*
X204118Y619153D01*
X204032Y619192D01*
X203944Y619227D01*
X203855Y619259D01*
X203765Y619287D01*
X203673Y619312D01*
X203581Y619333D01*
X203488Y619350D01*
X203394Y619363D01*
X203300Y619372D01*
X203206Y619378D01*
X203111Y619380D01*
X203111Y619379D02*
X203003Y619377D01*
X202894Y619371D01*
X202786Y619361D01*
X202679Y619348D01*
X202572Y619330D01*
X202465Y619309D01*
X202360Y619284D01*
X202255Y619255D01*
X202152Y619223D01*
X202050Y619186D01*
X201949Y619146D01*
X201850Y619103D01*
X201752Y619056D01*
X201656Y619005D01*
X201562Y618951D01*
X201470Y618894D01*
X201380Y618833D01*
X201292Y618769D01*
X201207Y618703D01*
X201124Y618633D01*
X201044Y618560D01*
X200966Y618484D01*
X200891Y618406D01*
X200819Y618325D01*
X200750Y618241D01*
X200684Y618155D01*
X200621Y618067D01*
X200562Y617976D01*
X200505Y617884D01*
X200452Y617789D01*
X200403Y617693D01*
X200357Y617594D01*
X200314Y617495D01*
X200275Y617393D01*
X200240Y617291D01*
X204678Y615202D02*
X204747Y615271D01*
X204813Y615342D01*
X204877Y615415D01*
X204938Y615491D01*
X204996Y615570D01*
X205050Y615650D01*
X205102Y615733D01*
X205150Y615817D01*
X205196Y615903D01*
X205237Y615991D01*
X205276Y616081D01*
X205311Y616172D01*
X205342Y616264D01*
X205370Y616357D01*
X205394Y616451D01*
X205414Y616546D01*
X205431Y616642D01*
X205444Y616739D01*
X205453Y616836D01*
X205459Y616933D01*
X205461Y617030D01*
X204677Y615202D02*
X200239Y609981D01*
X205460Y609981D01*
X214605Y617030D02*
X214603Y617125D01*
X214597Y617219D01*
X214588Y617313D01*
X214575Y617407D01*
X214558Y617500D01*
X214537Y617592D01*
X214512Y617684D01*
X214484Y617774D01*
X214452Y617863D01*
X214417Y617951D01*
X214378Y618037D01*
X214336Y618122D01*
X214290Y618205D01*
X214241Y618286D01*
X214189Y618365D01*
X214134Y618442D01*
X214075Y618516D01*
X214014Y618588D01*
X213950Y618658D01*
X213883Y618725D01*
X213813Y618789D01*
X213741Y618850D01*
X213667Y618909D01*
X213590Y618964D01*
X213511Y619016D01*
X213430Y619065D01*
X213347Y619111D01*
X213262Y619153D01*
X213176Y619192D01*
X213088Y619227D01*
X212999Y619259D01*
X212909Y619287D01*
X212817Y619312D01*
X212725Y619333D01*
X212632Y619350D01*
X212538Y619363D01*
X212444Y619372D01*
X212350Y619378D01*
X212255Y619380D01*
X212255Y619379D02*
X212147Y619377D01*
X212038Y619371D01*
X211930Y619361D01*
X211823Y619348D01*
X211716Y619330D01*
X211609Y619309D01*
X211504Y619284D01*
X211399Y619255D01*
X211296Y619223D01*
X211194Y619186D01*
X211093Y619146D01*
X210994Y619103D01*
X210896Y619056D01*
X210800Y619005D01*
X210706Y618951D01*
X210614Y618894D01*
X210524Y618833D01*
X210436Y618769D01*
X210351Y618703D01*
X210268Y618633D01*
X210188Y618560D01*
X210110Y618484D01*
X210035Y618406D01*
X209963Y618325D01*
X209894Y618241D01*
X209828Y618155D01*
X209765Y618067D01*
X209706Y617976D01*
X209649Y617884D01*
X209596Y617789D01*
X209547Y617693D01*
X209501Y617594D01*
X209458Y617495D01*
X209419Y617393D01*
X209384Y617291D01*
X213822Y615202D02*
X213891Y615271D01*
X213957Y615342D01*
X214021Y615415D01*
X214082Y615491D01*
X214140Y615570D01*
X214194Y615650D01*
X214246Y615733D01*
X214294Y615817D01*
X214340Y615903D01*
X214381Y615991D01*
X214420Y616081D01*
X214455Y616172D01*
X214486Y616264D01*
X214514Y616357D01*
X214538Y616451D01*
X214558Y616546D01*
X214575Y616642D01*
X214588Y616739D01*
X214597Y616836D01*
X214603Y616933D01*
X214605Y617030D01*
X213821Y615202D02*
X209383Y609981D01*
X214604Y609981D01*
X218745Y611547D02*
X218745Y616246D01*
X218745Y611547D02*
X218747Y611470D01*
X218753Y611394D01*
X218762Y611317D01*
X218775Y611241D01*
X218792Y611166D01*
X218812Y611092D01*
X218837Y611019D01*
X218864Y610948D01*
X218895Y610877D01*
X218930Y610809D01*
X218968Y610742D01*
X219009Y610677D01*
X219053Y610614D01*
X219100Y610554D01*
X219151Y610495D01*
X219204Y610440D01*
X219259Y610387D01*
X219318Y610336D01*
X219378Y610289D01*
X219441Y610245D01*
X219506Y610204D01*
X219573Y610166D01*
X219641Y610131D01*
X219712Y610100D01*
X219783Y610073D01*
X219856Y610048D01*
X219930Y610028D01*
X220005Y610011D01*
X220081Y609998D01*
X220158Y609989D01*
X220234Y609983D01*
X220311Y609981D01*
X222921Y609981D01*
X222921Y616246D01*
X227384Y619379D02*
X227384Y609981D01*
X227384Y619379D02*
X231561Y619379D01*
X231561Y615202D02*
X227384Y615202D01*
X116998Y530479D02*
X114387Y528391D01*
X116998Y530479D02*
X116998Y521081D01*
X119608Y521081D02*
X114387Y521081D01*
X123531Y525780D02*
X123533Y525965D01*
X123540Y526150D01*
X123551Y526334D01*
X123566Y526518D01*
X123586Y526702D01*
X123610Y526886D01*
X123639Y527068D01*
X123672Y527250D01*
X123709Y527431D01*
X123751Y527611D01*
X123797Y527791D01*
X123847Y527969D01*
X123901Y528145D01*
X123960Y528321D01*
X124022Y528495D01*
X124089Y528667D01*
X124160Y528838D01*
X124235Y529007D01*
X124314Y529174D01*
X124344Y529254D01*
X124377Y529333D01*
X124414Y529410D01*
X124454Y529486D01*
X124497Y529560D01*
X124543Y529632D01*
X124593Y529701D01*
X124645Y529769D01*
X124701Y529834D01*
X124759Y529897D01*
X124821Y529956D01*
X124884Y530014D01*
X124951Y530068D01*
X125019Y530119D01*
X125090Y530167D01*
X125163Y530212D01*
X125237Y530254D01*
X125314Y530292D01*
X125392Y530327D01*
X125471Y530359D01*
X125552Y530387D01*
X125634Y530411D01*
X125718Y530432D01*
X125801Y530449D01*
X125886Y530462D01*
X125971Y530471D01*
X126056Y530477D01*
X126142Y530479D01*
X126228Y530477D01*
X126313Y530471D01*
X126398Y530462D01*
X126483Y530449D01*
X126566Y530432D01*
X126650Y530411D01*
X126732Y530387D01*
X126813Y530359D01*
X126892Y530327D01*
X126970Y530292D01*
X127047Y530254D01*
X127121Y530212D01*
X127194Y530167D01*
X127265Y530119D01*
X127333Y530068D01*
X127400Y530014D01*
X127463Y529956D01*
X127525Y529897D01*
X127583Y529834D01*
X127639Y529769D01*
X127691Y529701D01*
X127741Y529632D01*
X127787Y529560D01*
X127830Y529486D01*
X127870Y529410D01*
X127907Y529333D01*
X127940Y529254D01*
X127970Y529174D01*
X128049Y529007D01*
X128124Y528838D01*
X128195Y528667D01*
X128262Y528495D01*
X128324Y528321D01*
X128383Y528145D01*
X128437Y527969D01*
X128487Y527791D01*
X128533Y527611D01*
X128575Y527431D01*
X128612Y527250D01*
X128645Y527068D01*
X128674Y526886D01*
X128698Y526702D01*
X128718Y526518D01*
X128733Y526334D01*
X128744Y526150D01*
X128751Y525965D01*
X128753Y525780D01*
X123531Y525780D02*
X123533Y525595D01*
X123540Y525410D01*
X123551Y525226D01*
X123566Y525042D01*
X123586Y524858D01*
X123610Y524674D01*
X123639Y524492D01*
X123672Y524310D01*
X123709Y524129D01*
X123751Y523949D01*
X123797Y523769D01*
X123847Y523591D01*
X123901Y523415D01*
X123960Y523239D01*
X124022Y523065D01*
X124089Y522893D01*
X124160Y522722D01*
X124235Y522553D01*
X124314Y522386D01*
X124344Y522306D01*
X124377Y522227D01*
X124414Y522150D01*
X124454Y522074D01*
X124497Y522000D01*
X124543Y521928D01*
X124593Y521859D01*
X124646Y521791D01*
X124701Y521726D01*
X124760Y521663D01*
X124821Y521604D01*
X124884Y521546D01*
X124951Y521492D01*
X125019Y521441D01*
X125090Y521393D01*
X125163Y521348D01*
X125237Y521306D01*
X125314Y521268D01*
X125392Y521233D01*
X125471Y521201D01*
X125552Y521173D01*
X125634Y521149D01*
X125718Y521128D01*
X125801Y521111D01*
X125886Y521098D01*
X125971Y521089D01*
X126056Y521083D01*
X126142Y521081D01*
X127969Y522386D02*
X128048Y522553D01*
X128123Y522722D01*
X128194Y522893D01*
X128261Y523065D01*
X128323Y523239D01*
X128382Y523415D01*
X128436Y523591D01*
X128486Y523769D01*
X128532Y523949D01*
X128574Y524129D01*
X128611Y524310D01*
X128644Y524492D01*
X128673Y524674D01*
X128697Y524858D01*
X128717Y525042D01*
X128732Y525226D01*
X128743Y525410D01*
X128750Y525595D01*
X128752Y525780D01*
X127970Y522386D02*
X127940Y522306D01*
X127907Y522227D01*
X127870Y522150D01*
X127830Y522074D01*
X127787Y522000D01*
X127741Y521928D01*
X127691Y521859D01*
X127639Y521791D01*
X127583Y521726D01*
X127525Y521663D01*
X127463Y521604D01*
X127400Y521546D01*
X127333Y521492D01*
X127265Y521441D01*
X127194Y521393D01*
X127121Y521348D01*
X127047Y521306D01*
X126970Y521268D01*
X126892Y521233D01*
X126813Y521201D01*
X126732Y521173D01*
X126650Y521149D01*
X126566Y521128D01*
X126483Y521111D01*
X126398Y521098D01*
X126313Y521089D01*
X126228Y521083D01*
X126142Y521081D01*
X124053Y523169D02*
X128230Y528391D01*
X132675Y525780D02*
X132677Y525965D01*
X132684Y526150D01*
X132695Y526334D01*
X132710Y526518D01*
X132730Y526702D01*
X132754Y526886D01*
X132783Y527068D01*
X132816Y527250D01*
X132853Y527431D01*
X132895Y527611D01*
X132941Y527791D01*
X132991Y527969D01*
X133045Y528145D01*
X133104Y528321D01*
X133166Y528495D01*
X133233Y528667D01*
X133304Y528838D01*
X133379Y529007D01*
X133458Y529174D01*
X133488Y529254D01*
X133521Y529333D01*
X133558Y529410D01*
X133598Y529486D01*
X133641Y529560D01*
X133687Y529632D01*
X133737Y529701D01*
X133789Y529769D01*
X133845Y529834D01*
X133903Y529897D01*
X133965Y529956D01*
X134028Y530014D01*
X134095Y530068D01*
X134163Y530119D01*
X134234Y530167D01*
X134307Y530212D01*
X134381Y530254D01*
X134458Y530292D01*
X134536Y530327D01*
X134615Y530359D01*
X134696Y530387D01*
X134778Y530411D01*
X134862Y530432D01*
X134945Y530449D01*
X135030Y530462D01*
X135115Y530471D01*
X135200Y530477D01*
X135286Y530479D01*
X135372Y530477D01*
X135457Y530471D01*
X135542Y530462D01*
X135627Y530449D01*
X135710Y530432D01*
X135794Y530411D01*
X135876Y530387D01*
X135957Y530359D01*
X136036Y530327D01*
X136114Y530292D01*
X136191Y530254D01*
X136265Y530212D01*
X136338Y530167D01*
X136409Y530119D01*
X136477Y530068D01*
X136544Y530014D01*
X136607Y529956D01*
X136669Y529897D01*
X136727Y529834D01*
X136783Y529769D01*
X136835Y529701D01*
X136885Y529632D01*
X136931Y529560D01*
X136974Y529486D01*
X137014Y529410D01*
X137051Y529333D01*
X137084Y529254D01*
X137114Y529174D01*
X137193Y529007D01*
X137268Y528838D01*
X137339Y528667D01*
X137406Y528495D01*
X137468Y528321D01*
X137527Y528145D01*
X137581Y527969D01*
X137631Y527791D01*
X137677Y527611D01*
X137719Y527431D01*
X137756Y527250D01*
X137789Y527068D01*
X137818Y526886D01*
X137842Y526702D01*
X137862Y526518D01*
X137877Y526334D01*
X137888Y526150D01*
X137895Y525965D01*
X137897Y525780D01*
X132675Y525780D02*
X132677Y525595D01*
X132684Y525410D01*
X132695Y525226D01*
X132710Y525042D01*
X132730Y524858D01*
X132754Y524674D01*
X132783Y524492D01*
X132816Y524310D01*
X132853Y524129D01*
X132895Y523949D01*
X132941Y523769D01*
X132991Y523591D01*
X133045Y523415D01*
X133104Y523239D01*
X133166Y523065D01*
X133233Y522893D01*
X133304Y522722D01*
X133379Y522553D01*
X133458Y522386D01*
X133488Y522306D01*
X133521Y522227D01*
X133558Y522150D01*
X133598Y522074D01*
X133641Y522000D01*
X133687Y521928D01*
X133737Y521859D01*
X133790Y521791D01*
X133845Y521726D01*
X133904Y521663D01*
X133965Y521604D01*
X134028Y521546D01*
X134095Y521492D01*
X134163Y521441D01*
X134234Y521393D01*
X134307Y521348D01*
X134381Y521306D01*
X134458Y521268D01*
X134536Y521233D01*
X134615Y521201D01*
X134696Y521173D01*
X134778Y521149D01*
X134862Y521128D01*
X134945Y521111D01*
X135030Y521098D01*
X135115Y521089D01*
X135200Y521083D01*
X135286Y521081D01*
X137113Y522386D02*
X137192Y522553D01*
X137267Y522722D01*
X137338Y522893D01*
X137405Y523065D01*
X137467Y523239D01*
X137526Y523415D01*
X137580Y523591D01*
X137630Y523769D01*
X137676Y523949D01*
X137718Y524129D01*
X137755Y524310D01*
X137788Y524492D01*
X137817Y524674D01*
X137841Y524858D01*
X137861Y525042D01*
X137876Y525226D01*
X137887Y525410D01*
X137894Y525595D01*
X137896Y525780D01*
X137114Y522386D02*
X137084Y522306D01*
X137051Y522227D01*
X137014Y522150D01*
X136974Y522074D01*
X136931Y522000D01*
X136885Y521928D01*
X136835Y521859D01*
X136783Y521791D01*
X136727Y521726D01*
X136669Y521663D01*
X136607Y521604D01*
X136544Y521546D01*
X136477Y521492D01*
X136409Y521441D01*
X136338Y521393D01*
X136265Y521348D01*
X136191Y521306D01*
X136114Y521268D01*
X136036Y521233D01*
X135957Y521201D01*
X135876Y521173D01*
X135794Y521149D01*
X135710Y521128D01*
X135627Y521111D01*
X135542Y521098D01*
X135457Y521089D01*
X135372Y521083D01*
X135286Y521081D01*
X133197Y523169D02*
X137374Y528391D01*
X142037Y527346D02*
X142037Y521081D01*
X142037Y527346D02*
X144647Y527346D01*
X144724Y527344D01*
X144800Y527338D01*
X144877Y527329D01*
X144953Y527316D01*
X145028Y527299D01*
X145102Y527279D01*
X145175Y527254D01*
X145246Y527227D01*
X145317Y527196D01*
X145385Y527161D01*
X145452Y527123D01*
X145517Y527082D01*
X145580Y527038D01*
X145640Y526991D01*
X145699Y526940D01*
X145754Y526887D01*
X145807Y526832D01*
X145858Y526773D01*
X145905Y526713D01*
X145949Y526650D01*
X145990Y526585D01*
X146028Y526518D01*
X146063Y526450D01*
X146094Y526379D01*
X146121Y526308D01*
X146146Y526235D01*
X146166Y526161D01*
X146183Y526086D01*
X146196Y526010D01*
X146205Y525934D01*
X146211Y525857D01*
X146213Y525780D01*
X146213Y521081D01*
X150676Y521081D02*
X150676Y530479D01*
X154853Y530479D01*
X154853Y526302D02*
X150676Y526302D01*
X138080Y469519D02*
X135469Y467431D01*
X138080Y469519D02*
X138080Y460121D01*
X140690Y460121D02*
X135469Y460121D01*
X144613Y464820D02*
X144615Y465005D01*
X144622Y465190D01*
X144633Y465374D01*
X144648Y465558D01*
X144668Y465742D01*
X144692Y465926D01*
X144721Y466108D01*
X144754Y466290D01*
X144791Y466471D01*
X144833Y466651D01*
X144879Y466831D01*
X144929Y467009D01*
X144983Y467185D01*
X145042Y467361D01*
X145104Y467535D01*
X145171Y467707D01*
X145242Y467878D01*
X145317Y468047D01*
X145396Y468214D01*
X145426Y468294D01*
X145459Y468373D01*
X145496Y468450D01*
X145536Y468526D01*
X145579Y468600D01*
X145625Y468672D01*
X145675Y468741D01*
X145727Y468809D01*
X145783Y468874D01*
X145841Y468937D01*
X145903Y468996D01*
X145966Y469054D01*
X146033Y469108D01*
X146101Y469159D01*
X146172Y469207D01*
X146245Y469252D01*
X146319Y469294D01*
X146396Y469332D01*
X146474Y469367D01*
X146553Y469399D01*
X146634Y469427D01*
X146716Y469451D01*
X146800Y469472D01*
X146883Y469489D01*
X146968Y469502D01*
X147053Y469511D01*
X147138Y469517D01*
X147224Y469519D01*
X147310Y469517D01*
X147395Y469511D01*
X147480Y469502D01*
X147565Y469489D01*
X147648Y469472D01*
X147732Y469451D01*
X147814Y469427D01*
X147895Y469399D01*
X147974Y469367D01*
X148052Y469332D01*
X148129Y469294D01*
X148203Y469252D01*
X148276Y469207D01*
X148347Y469159D01*
X148415Y469108D01*
X148482Y469054D01*
X148545Y468996D01*
X148607Y468937D01*
X148665Y468874D01*
X148721Y468809D01*
X148773Y468741D01*
X148823Y468672D01*
X148869Y468600D01*
X148912Y468526D01*
X148952Y468450D01*
X148989Y468373D01*
X149022Y468294D01*
X149052Y468214D01*
X149131Y468047D01*
X149206Y467878D01*
X149277Y467707D01*
X149344Y467535D01*
X149406Y467361D01*
X149465Y467185D01*
X149519Y467009D01*
X149569Y466831D01*
X149615Y466651D01*
X149657Y466471D01*
X149694Y466290D01*
X149727Y466108D01*
X149756Y465926D01*
X149780Y465742D01*
X149800Y465558D01*
X149815Y465374D01*
X149826Y465190D01*
X149833Y465005D01*
X149835Y464820D01*
X144613Y464820D02*
X144615Y464635D01*
X144622Y464450D01*
X144633Y464266D01*
X144648Y464082D01*
X144668Y463898D01*
X144692Y463714D01*
X144721Y463532D01*
X144754Y463350D01*
X144791Y463169D01*
X144833Y462989D01*
X144879Y462809D01*
X144929Y462631D01*
X144983Y462455D01*
X145042Y462279D01*
X145104Y462105D01*
X145171Y461933D01*
X145242Y461762D01*
X145317Y461593D01*
X145396Y461426D01*
X145426Y461346D01*
X145459Y461267D01*
X145496Y461190D01*
X145536Y461114D01*
X145579Y461040D01*
X145625Y460968D01*
X145675Y460899D01*
X145728Y460831D01*
X145783Y460766D01*
X145842Y460703D01*
X145903Y460644D01*
X145966Y460586D01*
X146033Y460532D01*
X146101Y460481D01*
X146172Y460433D01*
X146245Y460388D01*
X146319Y460346D01*
X146396Y460308D01*
X146474Y460273D01*
X146553Y460241D01*
X146634Y460213D01*
X146716Y460189D01*
X146800Y460168D01*
X146883Y460151D01*
X146968Y460138D01*
X147053Y460129D01*
X147138Y460123D01*
X147224Y460121D01*
X149051Y461426D02*
X149130Y461593D01*
X149205Y461762D01*
X149276Y461933D01*
X149343Y462105D01*
X149405Y462279D01*
X149464Y462455D01*
X149518Y462631D01*
X149568Y462809D01*
X149614Y462989D01*
X149656Y463169D01*
X149693Y463350D01*
X149726Y463532D01*
X149755Y463714D01*
X149779Y463898D01*
X149799Y464082D01*
X149814Y464266D01*
X149825Y464450D01*
X149832Y464635D01*
X149834Y464820D01*
X149052Y461426D02*
X149022Y461346D01*
X148989Y461267D01*
X148952Y461190D01*
X148912Y461114D01*
X148869Y461040D01*
X148823Y460968D01*
X148773Y460899D01*
X148721Y460831D01*
X148665Y460766D01*
X148607Y460703D01*
X148545Y460644D01*
X148482Y460586D01*
X148415Y460532D01*
X148347Y460481D01*
X148276Y460433D01*
X148203Y460388D01*
X148129Y460346D01*
X148052Y460308D01*
X147974Y460273D01*
X147895Y460241D01*
X147814Y460213D01*
X147732Y460189D01*
X147648Y460168D01*
X147565Y460151D01*
X147480Y460138D01*
X147395Y460129D01*
X147310Y460123D01*
X147224Y460121D01*
X145135Y462209D02*
X149312Y467431D01*
X153975Y466386D02*
X153975Y461687D01*
X153977Y461610D01*
X153983Y461534D01*
X153992Y461457D01*
X154005Y461381D01*
X154022Y461306D01*
X154042Y461232D01*
X154067Y461159D01*
X154094Y461088D01*
X154125Y461017D01*
X154160Y460949D01*
X154198Y460882D01*
X154239Y460817D01*
X154283Y460754D01*
X154330Y460694D01*
X154381Y460635D01*
X154434Y460580D01*
X154489Y460527D01*
X154548Y460476D01*
X154608Y460429D01*
X154671Y460385D01*
X154736Y460344D01*
X154803Y460306D01*
X154871Y460271D01*
X154942Y460240D01*
X155013Y460213D01*
X155086Y460188D01*
X155160Y460168D01*
X155235Y460151D01*
X155311Y460138D01*
X155388Y460129D01*
X155464Y460123D01*
X155541Y460121D01*
X158151Y460121D01*
X158151Y466386D01*
X162614Y469519D02*
X162614Y460121D01*
X162614Y469519D02*
X166791Y469519D01*
X166791Y465342D02*
X162614Y465342D01*
X198501Y544689D02*
X207899Y544689D01*
X198501Y544689D02*
X198501Y540512D01*
X198501Y536781D02*
X207899Y536781D01*
X207899Y534171D01*
X207897Y534071D01*
X207891Y533971D01*
X207882Y533872D01*
X207868Y533772D01*
X207851Y533674D01*
X207830Y533576D01*
X207806Y533479D01*
X207777Y533383D01*
X207745Y533288D01*
X207710Y533195D01*
X207671Y533103D01*
X207628Y533012D01*
X207582Y532924D01*
X207532Y532837D01*
X207480Y532752D01*
X207424Y532669D01*
X207365Y532588D01*
X207302Y532510D01*
X207237Y532434D01*
X207169Y532360D01*
X207099Y532290D01*
X207025Y532222D01*
X206949Y532157D01*
X206871Y532094D01*
X206790Y532035D01*
X206707Y531979D01*
X206622Y531927D01*
X206535Y531877D01*
X206447Y531831D01*
X206356Y531788D01*
X206264Y531749D01*
X206171Y531714D01*
X206076Y531682D01*
X205980Y531653D01*
X205883Y531629D01*
X205785Y531608D01*
X205687Y531591D01*
X205587Y531577D01*
X205488Y531568D01*
X205388Y531562D01*
X205288Y531560D01*
X201112Y531560D01*
X201012Y531562D01*
X200912Y531568D01*
X200813Y531577D01*
X200713Y531591D01*
X200615Y531608D01*
X200517Y531629D01*
X200420Y531653D01*
X200324Y531682D01*
X200229Y531714D01*
X200136Y531749D01*
X200044Y531788D01*
X199953Y531831D01*
X199865Y531877D01*
X199778Y531927D01*
X199693Y531979D01*
X199610Y532035D01*
X199529Y532094D01*
X199451Y532157D01*
X199375Y532222D01*
X199301Y532290D01*
X199231Y532360D01*
X199163Y532434D01*
X199098Y532510D01*
X199035Y532588D01*
X198976Y532669D01*
X198920Y532752D01*
X198868Y532837D01*
X198818Y532924D01*
X198772Y533012D01*
X198729Y533103D01*
X198690Y533195D01*
X198655Y533288D01*
X198623Y533383D01*
X198594Y533479D01*
X198570Y533576D01*
X198549Y533674D01*
X198532Y533772D01*
X198518Y533872D01*
X198509Y533971D01*
X198503Y534071D01*
X198501Y534171D01*
X198501Y536781D01*
X201112Y527333D02*
X205288Y527333D01*
X205389Y527331D01*
X205490Y527325D01*
X205591Y527315D01*
X205691Y527302D01*
X205791Y527284D01*
X205890Y527263D01*
X205988Y527237D01*
X206085Y527208D01*
X206181Y527176D01*
X206275Y527139D01*
X206368Y527099D01*
X206460Y527055D01*
X206549Y527008D01*
X206637Y526957D01*
X206723Y526903D01*
X206806Y526846D01*
X206888Y526786D01*
X206966Y526722D01*
X207043Y526656D01*
X207116Y526586D01*
X207187Y526514D01*
X207255Y526439D01*
X207320Y526361D01*
X207382Y526281D01*
X207441Y526199D01*
X207497Y526114D01*
X207549Y526028D01*
X207598Y525939D01*
X207644Y525848D01*
X207685Y525756D01*
X207724Y525662D01*
X207758Y525567D01*
X207789Y525471D01*
X207816Y525373D01*
X207840Y525275D01*
X207859Y525175D01*
X207875Y525075D01*
X207887Y524975D01*
X207895Y524874D01*
X207899Y524773D01*
X207899Y524671D01*
X207895Y524570D01*
X207887Y524469D01*
X207875Y524369D01*
X207859Y524269D01*
X207840Y524169D01*
X207816Y524071D01*
X207789Y523973D01*
X207758Y523877D01*
X207724Y523782D01*
X207685Y523688D01*
X207644Y523596D01*
X207598Y523505D01*
X207549Y523417D01*
X207497Y523330D01*
X207441Y523245D01*
X207382Y523163D01*
X207320Y523083D01*
X207255Y523005D01*
X207187Y522930D01*
X207116Y522858D01*
X207043Y522788D01*
X206966Y522722D01*
X206888Y522658D01*
X206806Y522598D01*
X206723Y522541D01*
X206637Y522487D01*
X206549Y522436D01*
X206460Y522389D01*
X206368Y522345D01*
X206275Y522305D01*
X206181Y522268D01*
X206085Y522236D01*
X205988Y522207D01*
X205890Y522181D01*
X205791Y522160D01*
X205691Y522142D01*
X205591Y522129D01*
X205490Y522119D01*
X205389Y522113D01*
X205288Y522111D01*
X201112Y522111D01*
X201011Y522113D01*
X200910Y522119D01*
X200809Y522129D01*
X200709Y522142D01*
X200609Y522160D01*
X200510Y522181D01*
X200412Y522207D01*
X200315Y522236D01*
X200219Y522268D01*
X200125Y522305D01*
X200032Y522345D01*
X199940Y522389D01*
X199851Y522436D01*
X199763Y522487D01*
X199677Y522541D01*
X199594Y522598D01*
X199512Y522658D01*
X199434Y522722D01*
X199357Y522788D01*
X199284Y522858D01*
X199213Y522930D01*
X199145Y523005D01*
X199080Y523083D01*
X199018Y523163D01*
X198959Y523245D01*
X198903Y523330D01*
X198851Y523417D01*
X198802Y523505D01*
X198756Y523596D01*
X198715Y523688D01*
X198676Y523782D01*
X198642Y523877D01*
X198611Y523973D01*
X198584Y524071D01*
X198560Y524169D01*
X198541Y524269D01*
X198525Y524369D01*
X198513Y524469D01*
X198505Y524570D01*
X198501Y524671D01*
X198501Y524773D01*
X198505Y524874D01*
X198513Y524975D01*
X198525Y525075D01*
X198541Y525175D01*
X198560Y525275D01*
X198584Y525373D01*
X198611Y525471D01*
X198642Y525567D01*
X198676Y525662D01*
X198715Y525756D01*
X198756Y525848D01*
X198802Y525939D01*
X198851Y526028D01*
X198903Y526114D01*
X198959Y526199D01*
X199018Y526281D01*
X199080Y526361D01*
X199145Y526439D01*
X199213Y526514D01*
X199284Y526586D01*
X199357Y526656D01*
X199434Y526722D01*
X199512Y526786D01*
X199594Y526846D01*
X199677Y526903D01*
X199763Y526957D01*
X199851Y527008D01*
X199940Y527055D01*
X200032Y527099D01*
X200125Y527139D01*
X200219Y527176D01*
X200315Y527208D01*
X200412Y527237D01*
X200510Y527263D01*
X200609Y527284D01*
X200709Y527302D01*
X200809Y527315D01*
X200910Y527325D01*
X201011Y527331D01*
X201112Y527333D01*
D11*
X298196Y181057D02*
X303784Y182299D01*
X301921Y179815D02*
X298196Y181057D01*
X298196Y178573D02*
X301921Y179815D01*
X303784Y177331D02*
X298196Y178573D01*
X298196Y175022D02*
X303784Y175022D01*
X301921Y175022D02*
X301921Y173470D01*
X301919Y173412D01*
X301914Y173353D01*
X301905Y173296D01*
X301892Y173238D01*
X301875Y173182D01*
X301856Y173127D01*
X301832Y173074D01*
X301806Y173021D01*
X301776Y172971D01*
X301743Y172923D01*
X301707Y172877D01*
X301669Y172833D01*
X301627Y172791D01*
X301583Y172753D01*
X301537Y172717D01*
X301489Y172684D01*
X301439Y172654D01*
X301386Y172628D01*
X301333Y172604D01*
X301278Y172585D01*
X301222Y172568D01*
X301164Y172555D01*
X301107Y172546D01*
X301048Y172541D01*
X300990Y172539D01*
X300990Y172538D02*
X298196Y172538D01*
X298196Y169153D02*
X298196Y167600D01*
X298196Y169153D02*
X298198Y169211D01*
X298203Y169270D01*
X298212Y169327D01*
X298225Y169385D01*
X298242Y169441D01*
X298261Y169496D01*
X298285Y169549D01*
X298311Y169602D01*
X298341Y169652D01*
X298374Y169700D01*
X298410Y169746D01*
X298448Y169790D01*
X298490Y169832D01*
X298534Y169870D01*
X298580Y169906D01*
X298628Y169939D01*
X298678Y169969D01*
X298731Y169995D01*
X298784Y170019D01*
X298839Y170038D01*
X298895Y170055D01*
X298953Y170068D01*
X299010Y170077D01*
X299069Y170082D01*
X299127Y170084D01*
X300680Y170084D01*
X300750Y170082D01*
X300819Y170076D01*
X300888Y170066D01*
X300956Y170053D01*
X301024Y170035D01*
X301090Y170014D01*
X301155Y169989D01*
X301219Y169961D01*
X301281Y169929D01*
X301341Y169894D01*
X301399Y169855D01*
X301454Y169813D01*
X301508Y169768D01*
X301558Y169720D01*
X301606Y169670D01*
X301651Y169616D01*
X301693Y169561D01*
X301732Y169503D01*
X301767Y169443D01*
X301799Y169381D01*
X301827Y169317D01*
X301852Y169252D01*
X301873Y169186D01*
X301891Y169118D01*
X301904Y169050D01*
X301914Y168981D01*
X301920Y168912D01*
X301922Y168842D01*
X301920Y168772D01*
X301914Y168703D01*
X301904Y168634D01*
X301891Y168566D01*
X301873Y168498D01*
X301852Y168432D01*
X301827Y168367D01*
X301799Y168303D01*
X301767Y168241D01*
X301732Y168181D01*
X301693Y168123D01*
X301651Y168068D01*
X301606Y168014D01*
X301558Y167964D01*
X301508Y167916D01*
X301454Y167871D01*
X301399Y167829D01*
X301341Y167790D01*
X301281Y167755D01*
X301219Y167723D01*
X301155Y167695D01*
X301090Y167670D01*
X301024Y167649D01*
X300956Y167631D01*
X300888Y167618D01*
X300819Y167608D01*
X300750Y167602D01*
X300680Y167600D01*
X300059Y167600D01*
X300059Y170084D01*
X298196Y165146D02*
X301921Y165146D01*
X301921Y163594D01*
X301919Y163536D01*
X301914Y163477D01*
X301905Y163420D01*
X301892Y163362D01*
X301875Y163306D01*
X301856Y163251D01*
X301832Y163198D01*
X301806Y163145D01*
X301776Y163095D01*
X301743Y163047D01*
X301707Y163001D01*
X301669Y162957D01*
X301627Y162915D01*
X301583Y162877D01*
X301537Y162841D01*
X301489Y162808D01*
X301439Y162778D01*
X301386Y162752D01*
X301333Y162728D01*
X301278Y162709D01*
X301222Y162692D01*
X301164Y162679D01*
X301107Y162670D01*
X301048Y162665D01*
X300990Y162663D01*
X298196Y162663D01*
X299438Y157283D02*
X300680Y157283D01*
X300750Y157281D01*
X300819Y157275D01*
X300888Y157265D01*
X300956Y157252D01*
X301024Y157234D01*
X301090Y157213D01*
X301155Y157188D01*
X301219Y157160D01*
X301281Y157128D01*
X301341Y157093D01*
X301399Y157054D01*
X301454Y157012D01*
X301508Y156967D01*
X301558Y156919D01*
X301606Y156869D01*
X301651Y156815D01*
X301693Y156760D01*
X301732Y156702D01*
X301767Y156642D01*
X301799Y156580D01*
X301827Y156516D01*
X301852Y156451D01*
X301873Y156385D01*
X301891Y156317D01*
X301904Y156249D01*
X301914Y156180D01*
X301920Y156111D01*
X301922Y156041D01*
X301920Y155971D01*
X301914Y155902D01*
X301904Y155833D01*
X301891Y155765D01*
X301873Y155697D01*
X301852Y155631D01*
X301827Y155566D01*
X301799Y155502D01*
X301767Y155440D01*
X301732Y155380D01*
X301693Y155322D01*
X301651Y155267D01*
X301606Y155213D01*
X301558Y155163D01*
X301508Y155115D01*
X301454Y155070D01*
X301399Y155028D01*
X301341Y154989D01*
X301281Y154954D01*
X301219Y154922D01*
X301155Y154894D01*
X301090Y154869D01*
X301024Y154848D01*
X300956Y154830D01*
X300888Y154817D01*
X300819Y154807D01*
X300750Y154801D01*
X300680Y154799D01*
X299438Y154799D01*
X299368Y154801D01*
X299299Y154807D01*
X299230Y154817D01*
X299162Y154830D01*
X299094Y154848D01*
X299028Y154869D01*
X298963Y154894D01*
X298899Y154922D01*
X298837Y154954D01*
X298777Y154989D01*
X298719Y155028D01*
X298664Y155070D01*
X298610Y155115D01*
X298560Y155163D01*
X298512Y155213D01*
X298467Y155267D01*
X298425Y155322D01*
X298386Y155380D01*
X298351Y155440D01*
X298319Y155502D01*
X298291Y155566D01*
X298266Y155631D01*
X298245Y155697D01*
X298227Y155765D01*
X298214Y155833D01*
X298204Y155902D01*
X298198Y155971D01*
X298196Y156041D01*
X298198Y156111D01*
X298204Y156180D01*
X298214Y156249D01*
X298227Y156317D01*
X298245Y156385D01*
X298266Y156451D01*
X298291Y156516D01*
X298319Y156580D01*
X298351Y156642D01*
X298386Y156702D01*
X298425Y156760D01*
X298467Y156815D01*
X298512Y156869D01*
X298560Y156919D01*
X298610Y156967D01*
X298664Y157012D01*
X298719Y157054D01*
X298777Y157093D01*
X298837Y157128D01*
X298899Y157160D01*
X298963Y157188D01*
X299028Y157213D01*
X299094Y157234D01*
X299162Y157252D01*
X299230Y157265D01*
X299299Y157275D01*
X299368Y157281D01*
X299438Y157283D01*
X298196Y152345D02*
X301921Y152345D01*
X301921Y150793D01*
X301919Y150735D01*
X301914Y150676D01*
X301905Y150619D01*
X301892Y150561D01*
X301875Y150505D01*
X301856Y150450D01*
X301832Y150397D01*
X301806Y150344D01*
X301776Y150294D01*
X301743Y150246D01*
X301707Y150200D01*
X301669Y150156D01*
X301627Y150114D01*
X301583Y150076D01*
X301537Y150040D01*
X301489Y150007D01*
X301439Y149977D01*
X301386Y149951D01*
X301333Y149927D01*
X301278Y149908D01*
X301222Y149891D01*
X301164Y149878D01*
X301107Y149869D01*
X301048Y149864D01*
X300990Y149862D01*
X300990Y149861D02*
X298196Y149861D01*
X299127Y147338D02*
X303784Y147338D01*
X299127Y147337D02*
X299069Y147335D01*
X299010Y147330D01*
X298953Y147321D01*
X298895Y147308D01*
X298839Y147291D01*
X298784Y147272D01*
X298731Y147248D01*
X298678Y147222D01*
X298628Y147192D01*
X298580Y147159D01*
X298534Y147123D01*
X298490Y147085D01*
X298448Y147043D01*
X298410Y146999D01*
X298374Y146953D01*
X298341Y146905D01*
X298311Y146855D01*
X298285Y146802D01*
X298261Y146749D01*
X298242Y146694D01*
X298225Y146638D01*
X298212Y146580D01*
X298203Y146523D01*
X298198Y146464D01*
X298196Y146406D01*
X296333Y144664D02*
X296333Y144043D01*
X301921Y142180D01*
X301921Y144664D02*
X298196Y143422D01*
X301921Y137632D02*
X301921Y135770D01*
X303784Y137011D02*
X299127Y137011D01*
X299069Y137009D01*
X299010Y137004D01*
X298953Y136995D01*
X298895Y136982D01*
X298839Y136965D01*
X298784Y136946D01*
X298731Y136922D01*
X298678Y136896D01*
X298628Y136866D01*
X298580Y136833D01*
X298534Y136797D01*
X298490Y136759D01*
X298448Y136717D01*
X298410Y136673D01*
X298374Y136627D01*
X298341Y136579D01*
X298311Y136529D01*
X298285Y136476D01*
X298261Y136423D01*
X298242Y136368D01*
X298225Y136312D01*
X298212Y136254D01*
X298203Y136197D01*
X298198Y136138D01*
X298196Y136080D01*
X298196Y135770D01*
X298196Y133508D02*
X303784Y133508D01*
X301921Y133508D02*
X301921Y131956D01*
X301919Y131898D01*
X301914Y131839D01*
X301905Y131782D01*
X301892Y131724D01*
X301875Y131668D01*
X301856Y131613D01*
X301832Y131560D01*
X301806Y131507D01*
X301776Y131457D01*
X301743Y131409D01*
X301707Y131363D01*
X301669Y131319D01*
X301627Y131277D01*
X301583Y131239D01*
X301537Y131203D01*
X301489Y131170D01*
X301439Y131140D01*
X301386Y131114D01*
X301333Y131090D01*
X301278Y131071D01*
X301222Y131054D01*
X301164Y131041D01*
X301107Y131032D01*
X301048Y131027D01*
X300990Y131025D01*
X298196Y131025D01*
X298196Y127639D02*
X298196Y126087D01*
X298196Y127639D02*
X298198Y127697D01*
X298203Y127756D01*
X298212Y127813D01*
X298225Y127871D01*
X298242Y127927D01*
X298261Y127982D01*
X298285Y128035D01*
X298311Y128088D01*
X298341Y128138D01*
X298374Y128186D01*
X298410Y128232D01*
X298448Y128276D01*
X298490Y128318D01*
X298534Y128356D01*
X298580Y128392D01*
X298628Y128425D01*
X298678Y128455D01*
X298731Y128481D01*
X298784Y128505D01*
X298839Y128524D01*
X298895Y128541D01*
X298953Y128554D01*
X299010Y128563D01*
X299069Y128568D01*
X299127Y128570D01*
X299127Y128571D02*
X300680Y128571D01*
X300750Y128569D01*
X300819Y128563D01*
X300888Y128553D01*
X300956Y128540D01*
X301024Y128522D01*
X301090Y128501D01*
X301155Y128476D01*
X301219Y128448D01*
X301281Y128416D01*
X301341Y128381D01*
X301399Y128342D01*
X301454Y128300D01*
X301508Y128255D01*
X301558Y128207D01*
X301606Y128157D01*
X301651Y128103D01*
X301693Y128048D01*
X301732Y127990D01*
X301767Y127930D01*
X301799Y127868D01*
X301827Y127804D01*
X301852Y127739D01*
X301873Y127673D01*
X301891Y127605D01*
X301904Y127537D01*
X301914Y127468D01*
X301920Y127399D01*
X301922Y127329D01*
X301920Y127259D01*
X301914Y127190D01*
X301904Y127121D01*
X301891Y127053D01*
X301873Y126985D01*
X301852Y126919D01*
X301827Y126854D01*
X301799Y126790D01*
X301767Y126728D01*
X301732Y126668D01*
X301693Y126610D01*
X301651Y126555D01*
X301606Y126501D01*
X301558Y126451D01*
X301508Y126403D01*
X301454Y126358D01*
X301399Y126316D01*
X301341Y126277D01*
X301281Y126242D01*
X301219Y126210D01*
X301155Y126182D01*
X301090Y126157D01*
X301024Y126136D01*
X300956Y126118D01*
X300888Y126105D01*
X300819Y126095D01*
X300750Y126089D01*
X300680Y126087D01*
X300059Y126087D01*
X300059Y128571D01*
X298196Y120590D02*
X302853Y120590D01*
X302911Y120588D01*
X302970Y120583D01*
X303027Y120574D01*
X303085Y120561D01*
X303141Y120544D01*
X303196Y120525D01*
X303249Y120501D01*
X303302Y120475D01*
X303352Y120445D01*
X303400Y120412D01*
X303446Y120376D01*
X303490Y120338D01*
X303532Y120296D01*
X303570Y120252D01*
X303606Y120206D01*
X303639Y120158D01*
X303669Y120108D01*
X303695Y120055D01*
X303719Y120002D01*
X303738Y119947D01*
X303755Y119891D01*
X303768Y119833D01*
X303777Y119776D01*
X303782Y119717D01*
X303784Y119659D01*
X303784Y119349D01*
X301921Y119349D02*
X301921Y121211D01*
X303784Y117711D02*
X299127Y117711D01*
X299069Y117709D01*
X299010Y117704D01*
X298953Y117695D01*
X298895Y117682D01*
X298839Y117665D01*
X298784Y117646D01*
X298731Y117622D01*
X298678Y117596D01*
X298628Y117566D01*
X298580Y117533D01*
X298534Y117497D01*
X298490Y117459D01*
X298448Y117417D01*
X298410Y117373D01*
X298374Y117327D01*
X298341Y117279D01*
X298311Y117229D01*
X298285Y117176D01*
X298261Y117123D01*
X298242Y117068D01*
X298225Y117012D01*
X298212Y116954D01*
X298203Y116897D01*
X298198Y116838D01*
X298196Y116780D01*
X300369Y113797D02*
X300369Y112400D01*
X300370Y113797D02*
X300368Y113861D01*
X300362Y113926D01*
X300353Y113989D01*
X300340Y114052D01*
X300323Y114114D01*
X300302Y114175D01*
X300278Y114235D01*
X300250Y114293D01*
X300219Y114350D01*
X300185Y114404D01*
X300147Y114457D01*
X300106Y114507D01*
X300063Y114554D01*
X300017Y114599D01*
X299968Y114641D01*
X299917Y114680D01*
X299863Y114716D01*
X299808Y114749D01*
X299750Y114778D01*
X299692Y114804D01*
X299631Y114827D01*
X299570Y114846D01*
X299507Y114861D01*
X299443Y114872D01*
X299380Y114880D01*
X299315Y114884D01*
X299251Y114884D01*
X299186Y114880D01*
X299123Y114872D01*
X299059Y114861D01*
X298996Y114846D01*
X298935Y114827D01*
X298874Y114804D01*
X298816Y114778D01*
X298758Y114749D01*
X298703Y114716D01*
X298649Y114680D01*
X298598Y114641D01*
X298549Y114599D01*
X298503Y114554D01*
X298460Y114507D01*
X298419Y114457D01*
X298381Y114404D01*
X298347Y114350D01*
X298316Y114293D01*
X298288Y114235D01*
X298264Y114175D01*
X298243Y114114D01*
X298226Y114052D01*
X298213Y113989D01*
X298204Y113926D01*
X298198Y113861D01*
X298196Y113797D01*
X298196Y112400D01*
X300990Y112400D01*
X301048Y112402D01*
X301107Y112407D01*
X301164Y112416D01*
X301222Y112429D01*
X301278Y112446D01*
X301333Y112465D01*
X301386Y112489D01*
X301439Y112515D01*
X301489Y112545D01*
X301537Y112578D01*
X301583Y112614D01*
X301627Y112652D01*
X301669Y112694D01*
X301707Y112738D01*
X301743Y112784D01*
X301776Y112832D01*
X301806Y112882D01*
X301832Y112935D01*
X301856Y112988D01*
X301875Y113043D01*
X301892Y113099D01*
X301905Y113157D01*
X301914Y113214D01*
X301919Y113273D01*
X301921Y113331D01*
X301921Y114573D01*
X300369Y109451D02*
X299748Y107899D01*
X300369Y109451D02*
X300391Y109502D01*
X300417Y109551D01*
X300446Y109599D01*
X300479Y109644D01*
X300515Y109687D01*
X300553Y109728D01*
X300595Y109765D01*
X300638Y109800D01*
X300684Y109832D01*
X300733Y109860D01*
X300783Y109885D01*
X300834Y109906D01*
X300887Y109924D01*
X300941Y109938D01*
X300996Y109948D01*
X301052Y109954D01*
X301107Y109957D01*
X301163Y109956D01*
X301219Y109950D01*
X301274Y109941D01*
X301328Y109929D01*
X301382Y109912D01*
X301434Y109892D01*
X301484Y109868D01*
X301533Y109841D01*
X301580Y109810D01*
X301624Y109776D01*
X301666Y109740D01*
X301706Y109700D01*
X301742Y109658D01*
X301776Y109613D01*
X301806Y109566D01*
X301833Y109518D01*
X301857Y109467D01*
X301877Y109415D01*
X301893Y109361D01*
X301906Y109307D01*
X301915Y109252D01*
X301920Y109196D01*
X301921Y109140D01*
X301922Y109141D02*
X301918Y109030D01*
X301912Y108919D01*
X301901Y108809D01*
X301887Y108699D01*
X301870Y108589D01*
X301850Y108480D01*
X301826Y108372D01*
X301798Y108265D01*
X301767Y108158D01*
X301733Y108053D01*
X301696Y107948D01*
X301655Y107845D01*
X301611Y107743D01*
X299748Y107899D02*
X299726Y107848D01*
X299700Y107799D01*
X299671Y107751D01*
X299638Y107706D01*
X299602Y107663D01*
X299564Y107622D01*
X299522Y107585D01*
X299479Y107550D01*
X299433Y107518D01*
X299384Y107490D01*
X299334Y107465D01*
X299283Y107444D01*
X299230Y107426D01*
X299176Y107412D01*
X299121Y107402D01*
X299065Y107396D01*
X299010Y107393D01*
X298954Y107394D01*
X298898Y107400D01*
X298843Y107409D01*
X298789Y107421D01*
X298735Y107438D01*
X298683Y107458D01*
X298633Y107482D01*
X298584Y107509D01*
X298537Y107540D01*
X298493Y107574D01*
X298451Y107610D01*
X298411Y107650D01*
X298375Y107692D01*
X298341Y107737D01*
X298311Y107784D01*
X298284Y107832D01*
X298260Y107883D01*
X298240Y107935D01*
X298224Y107989D01*
X298211Y108043D01*
X298202Y108098D01*
X298197Y108154D01*
X298196Y108210D01*
X298196Y108209D02*
X298199Y108343D01*
X298206Y108477D01*
X298217Y108611D01*
X298230Y108744D01*
X298248Y108877D01*
X298268Y109010D01*
X298292Y109142D01*
X298320Y109273D01*
X298350Y109404D01*
X298384Y109533D01*
X298422Y109662D01*
X298462Y109790D01*
X298506Y109917D01*
X298196Y104979D02*
X303784Y104979D01*
X301921Y104979D02*
X301921Y103427D01*
X301919Y103369D01*
X301914Y103310D01*
X301905Y103253D01*
X301892Y103195D01*
X301875Y103139D01*
X301856Y103084D01*
X301832Y103031D01*
X301806Y102978D01*
X301776Y102928D01*
X301743Y102880D01*
X301707Y102834D01*
X301669Y102790D01*
X301627Y102748D01*
X301583Y102710D01*
X301537Y102674D01*
X301489Y102641D01*
X301439Y102611D01*
X301386Y102585D01*
X301333Y102561D01*
X301278Y102542D01*
X301222Y102525D01*
X301164Y102512D01*
X301107Y102503D01*
X301048Y102498D01*
X300990Y102496D01*
X298196Y102496D01*
X298196Y97154D02*
X301921Y97154D01*
X303474Y97309D02*
X303784Y97309D01*
X303784Y96999D01*
X303474Y96999D01*
X303474Y97309D01*
X300369Y94455D02*
X299748Y92903D01*
X300369Y94455D02*
X300391Y94506D01*
X300417Y94555D01*
X300446Y94603D01*
X300479Y94648D01*
X300515Y94691D01*
X300553Y94732D01*
X300595Y94769D01*
X300638Y94804D01*
X300684Y94836D01*
X300733Y94864D01*
X300783Y94889D01*
X300834Y94910D01*
X300887Y94928D01*
X300941Y94942D01*
X300996Y94952D01*
X301052Y94958D01*
X301107Y94961D01*
X301163Y94960D01*
X301219Y94954D01*
X301274Y94945D01*
X301328Y94933D01*
X301382Y94916D01*
X301434Y94896D01*
X301484Y94872D01*
X301533Y94845D01*
X301580Y94814D01*
X301624Y94780D01*
X301666Y94744D01*
X301706Y94704D01*
X301742Y94662D01*
X301776Y94617D01*
X301806Y94570D01*
X301833Y94522D01*
X301857Y94471D01*
X301877Y94419D01*
X301893Y94365D01*
X301906Y94311D01*
X301915Y94256D01*
X301920Y94200D01*
X301921Y94144D01*
X301922Y94145D02*
X301918Y94034D01*
X301912Y93923D01*
X301901Y93813D01*
X301887Y93703D01*
X301870Y93593D01*
X301850Y93484D01*
X301826Y93376D01*
X301798Y93269D01*
X301767Y93162D01*
X301733Y93057D01*
X301696Y92952D01*
X301655Y92849D01*
X301611Y92747D01*
X299748Y92903D02*
X299726Y92852D01*
X299700Y92803D01*
X299671Y92755D01*
X299638Y92710D01*
X299602Y92667D01*
X299564Y92626D01*
X299522Y92589D01*
X299479Y92554D01*
X299433Y92522D01*
X299384Y92494D01*
X299334Y92469D01*
X299283Y92448D01*
X299230Y92430D01*
X299176Y92416D01*
X299121Y92406D01*
X299065Y92400D01*
X299010Y92397D01*
X298954Y92398D01*
X298898Y92404D01*
X298843Y92413D01*
X298789Y92425D01*
X298735Y92442D01*
X298683Y92462D01*
X298633Y92486D01*
X298584Y92513D01*
X298537Y92544D01*
X298493Y92578D01*
X298451Y92614D01*
X298411Y92654D01*
X298375Y92696D01*
X298341Y92741D01*
X298311Y92788D01*
X298284Y92836D01*
X298260Y92887D01*
X298240Y92939D01*
X298224Y92993D01*
X298211Y93047D01*
X298202Y93102D01*
X298197Y93158D01*
X298196Y93214D01*
X298196Y93213D02*
X298199Y93347D01*
X298206Y93481D01*
X298217Y93615D01*
X298230Y93748D01*
X298248Y93881D01*
X298268Y94014D01*
X298292Y94146D01*
X298320Y94277D01*
X298350Y94408D01*
X298384Y94537D01*
X298422Y94666D01*
X298462Y94794D01*
X298506Y94921D01*
X298196Y86947D02*
X301921Y86947D01*
X301921Y84153D01*
X301919Y84095D01*
X301914Y84036D01*
X301905Y83979D01*
X301892Y83921D01*
X301875Y83865D01*
X301856Y83810D01*
X301832Y83757D01*
X301806Y83704D01*
X301776Y83654D01*
X301743Y83606D01*
X301707Y83560D01*
X301669Y83516D01*
X301627Y83474D01*
X301583Y83436D01*
X301537Y83400D01*
X301489Y83367D01*
X301439Y83337D01*
X301386Y83311D01*
X301333Y83287D01*
X301278Y83268D01*
X301222Y83251D01*
X301164Y83238D01*
X301107Y83229D01*
X301048Y83224D01*
X300990Y83222D01*
X300990Y83221D02*
X298196Y83221D01*
X298196Y85084D02*
X301921Y85084D01*
X300680Y80656D02*
X299438Y80656D01*
X300680Y80657D02*
X300750Y80655D01*
X300819Y80649D01*
X300888Y80639D01*
X300956Y80626D01*
X301024Y80608D01*
X301090Y80587D01*
X301155Y80562D01*
X301219Y80534D01*
X301281Y80502D01*
X301341Y80467D01*
X301399Y80428D01*
X301454Y80386D01*
X301508Y80341D01*
X301558Y80293D01*
X301606Y80243D01*
X301651Y80189D01*
X301693Y80134D01*
X301732Y80076D01*
X301767Y80016D01*
X301799Y79954D01*
X301827Y79890D01*
X301852Y79825D01*
X301873Y79759D01*
X301891Y79691D01*
X301904Y79623D01*
X301914Y79554D01*
X301920Y79485D01*
X301922Y79415D01*
X301920Y79345D01*
X301914Y79276D01*
X301904Y79207D01*
X301891Y79139D01*
X301873Y79071D01*
X301852Y79005D01*
X301827Y78940D01*
X301799Y78876D01*
X301767Y78814D01*
X301732Y78754D01*
X301693Y78696D01*
X301651Y78641D01*
X301606Y78587D01*
X301558Y78537D01*
X301508Y78489D01*
X301454Y78444D01*
X301399Y78402D01*
X301341Y78363D01*
X301281Y78328D01*
X301219Y78296D01*
X301155Y78268D01*
X301090Y78243D01*
X301024Y78222D01*
X300956Y78204D01*
X300888Y78191D01*
X300819Y78181D01*
X300750Y78175D01*
X300680Y78173D01*
X299438Y78173D01*
X299368Y78175D01*
X299299Y78181D01*
X299230Y78191D01*
X299162Y78204D01*
X299094Y78222D01*
X299028Y78243D01*
X298963Y78268D01*
X298899Y78296D01*
X298837Y78328D01*
X298777Y78363D01*
X298719Y78402D01*
X298664Y78444D01*
X298610Y78489D01*
X298560Y78537D01*
X298512Y78587D01*
X298467Y78641D01*
X298425Y78696D01*
X298386Y78754D01*
X298351Y78814D01*
X298319Y78876D01*
X298291Y78940D01*
X298266Y79005D01*
X298245Y79071D01*
X298227Y79139D01*
X298214Y79207D01*
X298204Y79276D01*
X298198Y79345D01*
X298196Y79415D01*
X298198Y79485D01*
X298204Y79554D01*
X298214Y79623D01*
X298227Y79691D01*
X298245Y79759D01*
X298266Y79825D01*
X298291Y79890D01*
X298319Y79954D01*
X298351Y80016D01*
X298386Y80076D01*
X298425Y80134D01*
X298467Y80189D01*
X298512Y80243D01*
X298560Y80293D01*
X298610Y80341D01*
X298664Y80386D01*
X298719Y80428D01*
X298777Y80467D01*
X298837Y80502D01*
X298899Y80534D01*
X298963Y80562D01*
X299028Y80587D01*
X299094Y80608D01*
X299162Y80626D01*
X299230Y80639D01*
X299299Y80649D01*
X299368Y80655D01*
X299438Y80657D01*
X299127Y75719D02*
X301921Y75719D01*
X299127Y75718D02*
X299069Y75716D01*
X299010Y75711D01*
X298953Y75702D01*
X298895Y75689D01*
X298839Y75672D01*
X298784Y75653D01*
X298731Y75629D01*
X298678Y75603D01*
X298628Y75573D01*
X298580Y75540D01*
X298534Y75504D01*
X298490Y75466D01*
X298448Y75424D01*
X298410Y75380D01*
X298374Y75334D01*
X298341Y75286D01*
X298311Y75236D01*
X298285Y75183D01*
X298261Y75130D01*
X298242Y75075D01*
X298225Y75019D01*
X298212Y74961D01*
X298203Y74904D01*
X298198Y74845D01*
X298196Y74787D01*
X298196Y73235D01*
X301921Y73235D01*
X301921Y70598D02*
X298196Y70598D01*
X301921Y70598D02*
X301921Y69046D01*
X301919Y68988D01*
X301914Y68929D01*
X301905Y68872D01*
X301892Y68814D01*
X301875Y68758D01*
X301856Y68703D01*
X301832Y68650D01*
X301806Y68597D01*
X301776Y68547D01*
X301743Y68499D01*
X301707Y68453D01*
X301669Y68409D01*
X301627Y68367D01*
X301583Y68329D01*
X301537Y68293D01*
X301489Y68260D01*
X301439Y68230D01*
X301386Y68204D01*
X301333Y68180D01*
X301278Y68161D01*
X301222Y68144D01*
X301164Y68131D01*
X301107Y68122D01*
X301048Y68117D01*
X300990Y68115D01*
X298196Y68115D01*
X301921Y66127D02*
X301921Y64264D01*
X303784Y65506D02*
X299127Y65506D01*
X299069Y65504D01*
X299010Y65499D01*
X298953Y65490D01*
X298895Y65477D01*
X298839Y65460D01*
X298784Y65441D01*
X298731Y65417D01*
X298678Y65391D01*
X298628Y65361D01*
X298580Y65328D01*
X298534Y65292D01*
X298490Y65254D01*
X298448Y65212D01*
X298410Y65168D01*
X298374Y65122D01*
X298341Y65074D01*
X298311Y65024D01*
X298285Y64971D01*
X298261Y64918D01*
X298242Y64863D01*
X298225Y64807D01*
X298212Y64749D01*
X298203Y64692D01*
X298198Y64633D01*
X298196Y64575D01*
X298196Y64264D01*
X298196Y61254D02*
X298196Y59702D01*
X298196Y61254D02*
X298198Y61312D01*
X298203Y61371D01*
X298212Y61428D01*
X298225Y61486D01*
X298242Y61542D01*
X298261Y61597D01*
X298285Y61650D01*
X298311Y61703D01*
X298341Y61753D01*
X298374Y61801D01*
X298410Y61847D01*
X298448Y61891D01*
X298490Y61933D01*
X298534Y61971D01*
X298580Y62007D01*
X298628Y62040D01*
X298678Y62070D01*
X298731Y62096D01*
X298784Y62120D01*
X298839Y62139D01*
X298895Y62156D01*
X298953Y62169D01*
X299010Y62178D01*
X299069Y62183D01*
X299127Y62185D01*
X299127Y62186D02*
X300680Y62186D01*
X300750Y62184D01*
X300819Y62178D01*
X300888Y62168D01*
X300956Y62155D01*
X301024Y62137D01*
X301090Y62116D01*
X301155Y62091D01*
X301219Y62063D01*
X301281Y62031D01*
X301341Y61996D01*
X301399Y61957D01*
X301454Y61915D01*
X301508Y61870D01*
X301558Y61822D01*
X301606Y61772D01*
X301651Y61718D01*
X301693Y61663D01*
X301732Y61605D01*
X301767Y61545D01*
X301799Y61483D01*
X301827Y61419D01*
X301852Y61354D01*
X301873Y61288D01*
X301891Y61220D01*
X301904Y61152D01*
X301914Y61083D01*
X301920Y61014D01*
X301922Y60944D01*
X301920Y60874D01*
X301914Y60805D01*
X301904Y60736D01*
X301891Y60668D01*
X301873Y60600D01*
X301852Y60534D01*
X301827Y60469D01*
X301799Y60405D01*
X301767Y60343D01*
X301732Y60283D01*
X301693Y60225D01*
X301651Y60170D01*
X301606Y60116D01*
X301558Y60066D01*
X301508Y60018D01*
X301454Y59973D01*
X301399Y59931D01*
X301341Y59892D01*
X301281Y59857D01*
X301219Y59825D01*
X301155Y59797D01*
X301090Y59772D01*
X301024Y59751D01*
X300956Y59733D01*
X300888Y59720D01*
X300819Y59710D01*
X300750Y59704D01*
X300680Y59702D01*
X300059Y59702D01*
X300059Y62186D01*
X298196Y54976D02*
X303784Y54976D01*
X298196Y54976D02*
X298196Y56528D01*
X298198Y56586D01*
X298203Y56645D01*
X298212Y56702D01*
X298225Y56760D01*
X298242Y56816D01*
X298261Y56871D01*
X298285Y56924D01*
X298311Y56977D01*
X298341Y57027D01*
X298374Y57075D01*
X298410Y57121D01*
X298448Y57165D01*
X298490Y57207D01*
X298534Y57245D01*
X298580Y57281D01*
X298628Y57314D01*
X298678Y57344D01*
X298731Y57370D01*
X298784Y57394D01*
X298839Y57413D01*
X298895Y57430D01*
X298953Y57443D01*
X299010Y57452D01*
X299069Y57457D01*
X299127Y57459D01*
X299127Y57460D02*
X300990Y57460D01*
X300990Y57459D02*
X301048Y57457D01*
X301107Y57452D01*
X301164Y57443D01*
X301222Y57430D01*
X301278Y57413D01*
X301333Y57394D01*
X301386Y57370D01*
X301439Y57344D01*
X301489Y57314D01*
X301537Y57281D01*
X301583Y57245D01*
X301627Y57207D01*
X301669Y57165D01*
X301707Y57121D01*
X301743Y57075D01*
X301776Y57027D01*
X301806Y56977D01*
X301832Y56924D01*
X301856Y56871D01*
X301875Y56816D01*
X301892Y56760D01*
X301905Y56702D01*
X301914Y56645D01*
X301919Y56586D01*
X301921Y56528D01*
X301921Y54976D01*
X298196Y52708D02*
X298196Y52398D01*
X298196Y52708D02*
X298506Y52708D01*
X298506Y52398D01*
X298196Y52398D01*
X296954Y52863D01*
X291225Y170970D02*
X291225Y172367D01*
X291226Y172367D02*
X291224Y172431D01*
X291218Y172496D01*
X291209Y172559D01*
X291196Y172622D01*
X291179Y172684D01*
X291158Y172745D01*
X291134Y172805D01*
X291106Y172863D01*
X291075Y172920D01*
X291041Y172974D01*
X291003Y173027D01*
X290962Y173077D01*
X290919Y173124D01*
X290873Y173169D01*
X290824Y173211D01*
X290773Y173250D01*
X290719Y173286D01*
X290664Y173319D01*
X290606Y173348D01*
X290548Y173374D01*
X290487Y173397D01*
X290426Y173416D01*
X290363Y173431D01*
X290299Y173442D01*
X290236Y173450D01*
X290171Y173454D01*
X290107Y173454D01*
X290042Y173450D01*
X289979Y173442D01*
X289915Y173431D01*
X289852Y173416D01*
X289791Y173397D01*
X289730Y173374D01*
X289672Y173348D01*
X289614Y173319D01*
X289559Y173286D01*
X289505Y173250D01*
X289454Y173211D01*
X289405Y173169D01*
X289359Y173124D01*
X289316Y173077D01*
X289275Y173027D01*
X289237Y172974D01*
X289203Y172920D01*
X289172Y172863D01*
X289144Y172805D01*
X289120Y172745D01*
X289099Y172684D01*
X289082Y172622D01*
X289069Y172559D01*
X289060Y172496D01*
X289054Y172431D01*
X289052Y172367D01*
X289052Y170970D01*
X291846Y170970D01*
X291846Y170971D02*
X291904Y170973D01*
X291963Y170978D01*
X292020Y170987D01*
X292078Y171000D01*
X292134Y171017D01*
X292189Y171036D01*
X292242Y171060D01*
X292295Y171086D01*
X292345Y171116D01*
X292393Y171149D01*
X292439Y171185D01*
X292483Y171223D01*
X292525Y171265D01*
X292563Y171309D01*
X292599Y171355D01*
X292632Y171403D01*
X292662Y171453D01*
X292688Y171506D01*
X292712Y171559D01*
X292731Y171614D01*
X292748Y171670D01*
X292761Y171728D01*
X292770Y171785D01*
X292775Y171844D01*
X292777Y171902D01*
X292777Y173143D01*
X292777Y168304D02*
X289052Y168304D01*
X292777Y168304D02*
X292777Y166752D01*
X292775Y166694D01*
X292770Y166635D01*
X292761Y166578D01*
X292748Y166520D01*
X292731Y166464D01*
X292712Y166409D01*
X292688Y166356D01*
X292662Y166303D01*
X292632Y166253D01*
X292599Y166205D01*
X292563Y166159D01*
X292525Y166115D01*
X292483Y166073D01*
X292439Y166035D01*
X292393Y165999D01*
X292345Y165966D01*
X292295Y165936D01*
X292242Y165910D01*
X292189Y165886D01*
X292134Y165867D01*
X292078Y165850D01*
X292020Y165837D01*
X291963Y165828D01*
X291904Y165823D01*
X291846Y165821D01*
X289052Y165821D01*
X289052Y160912D02*
X294640Y160912D01*
X289052Y160912D02*
X289052Y162464D01*
X289054Y162522D01*
X289059Y162581D01*
X289068Y162638D01*
X289081Y162696D01*
X289098Y162752D01*
X289117Y162807D01*
X289141Y162860D01*
X289167Y162913D01*
X289197Y162963D01*
X289230Y163011D01*
X289266Y163057D01*
X289304Y163101D01*
X289346Y163143D01*
X289390Y163181D01*
X289436Y163217D01*
X289484Y163250D01*
X289534Y163280D01*
X289587Y163306D01*
X289640Y163330D01*
X289695Y163349D01*
X289751Y163366D01*
X289809Y163379D01*
X289866Y163388D01*
X289925Y163393D01*
X289983Y163395D01*
X289983Y163396D02*
X291846Y163396D01*
X291846Y163395D02*
X291904Y163393D01*
X291963Y163388D01*
X292020Y163379D01*
X292078Y163366D01*
X292134Y163349D01*
X292189Y163330D01*
X292242Y163306D01*
X292295Y163280D01*
X292345Y163250D01*
X292393Y163217D01*
X292439Y163181D01*
X292483Y163143D01*
X292525Y163101D01*
X292563Y163057D01*
X292599Y163011D01*
X292632Y162963D01*
X292662Y162913D01*
X292688Y162860D01*
X292712Y162807D01*
X292731Y162752D01*
X292748Y162696D01*
X292761Y162638D01*
X292770Y162581D01*
X292775Y162522D01*
X292777Y162464D01*
X292777Y160912D01*
X292777Y155320D02*
X289052Y155320D01*
X292777Y155320D02*
X292777Y153768D01*
X292775Y153710D01*
X292770Y153651D01*
X292761Y153594D01*
X292748Y153536D01*
X292731Y153480D01*
X292712Y153425D01*
X292688Y153372D01*
X292662Y153319D01*
X292632Y153269D01*
X292599Y153221D01*
X292563Y153175D01*
X292525Y153131D01*
X292483Y153089D01*
X292439Y153051D01*
X292393Y153015D01*
X292345Y152982D01*
X292295Y152952D01*
X292242Y152926D01*
X292189Y152902D01*
X292134Y152883D01*
X292078Y152866D01*
X292020Y152853D01*
X291963Y152844D01*
X291904Y152839D01*
X291846Y152837D01*
X289052Y152837D01*
X290294Y150382D02*
X291536Y150382D01*
X291536Y150383D02*
X291606Y150381D01*
X291675Y150375D01*
X291744Y150365D01*
X291812Y150352D01*
X291880Y150334D01*
X291946Y150313D01*
X292011Y150288D01*
X292075Y150260D01*
X292137Y150228D01*
X292197Y150193D01*
X292255Y150154D01*
X292310Y150112D01*
X292364Y150067D01*
X292414Y150019D01*
X292462Y149969D01*
X292507Y149915D01*
X292549Y149860D01*
X292588Y149802D01*
X292623Y149742D01*
X292655Y149680D01*
X292683Y149616D01*
X292708Y149551D01*
X292729Y149485D01*
X292747Y149417D01*
X292760Y149349D01*
X292770Y149280D01*
X292776Y149211D01*
X292778Y149141D01*
X292776Y149071D01*
X292770Y149002D01*
X292760Y148933D01*
X292747Y148865D01*
X292729Y148797D01*
X292708Y148731D01*
X292683Y148666D01*
X292655Y148602D01*
X292623Y148540D01*
X292588Y148480D01*
X292549Y148422D01*
X292507Y148367D01*
X292462Y148313D01*
X292414Y148263D01*
X292364Y148215D01*
X292310Y148170D01*
X292255Y148128D01*
X292197Y148089D01*
X292137Y148054D01*
X292075Y148022D01*
X292011Y147994D01*
X291946Y147969D01*
X291880Y147948D01*
X291812Y147930D01*
X291744Y147917D01*
X291675Y147907D01*
X291606Y147901D01*
X291536Y147899D01*
X290294Y147899D01*
X290224Y147901D01*
X290155Y147907D01*
X290086Y147917D01*
X290018Y147930D01*
X289950Y147948D01*
X289884Y147969D01*
X289819Y147994D01*
X289755Y148022D01*
X289693Y148054D01*
X289633Y148089D01*
X289575Y148128D01*
X289520Y148170D01*
X289466Y148215D01*
X289416Y148263D01*
X289368Y148313D01*
X289323Y148367D01*
X289281Y148422D01*
X289242Y148480D01*
X289207Y148540D01*
X289175Y148602D01*
X289147Y148666D01*
X289122Y148731D01*
X289101Y148797D01*
X289083Y148865D01*
X289070Y148933D01*
X289060Y149002D01*
X289054Y149071D01*
X289052Y149141D01*
X289054Y149211D01*
X289060Y149280D01*
X289070Y149349D01*
X289083Y149417D01*
X289101Y149485D01*
X289122Y149551D01*
X289147Y149616D01*
X289175Y149680D01*
X289207Y149742D01*
X289242Y149802D01*
X289281Y149860D01*
X289323Y149915D01*
X289368Y149969D01*
X289416Y150019D01*
X289466Y150067D01*
X289520Y150112D01*
X289575Y150154D01*
X289633Y150193D01*
X289693Y150228D01*
X289755Y150260D01*
X289819Y150288D01*
X289884Y150313D01*
X289950Y150334D01*
X290018Y150352D01*
X290086Y150365D01*
X290155Y150375D01*
X290224Y150381D01*
X290294Y150383D01*
X292777Y146094D02*
X292777Y144231D01*
X294640Y145473D02*
X289983Y145473D01*
X289925Y145471D01*
X289866Y145466D01*
X289809Y145457D01*
X289751Y145444D01*
X289695Y145427D01*
X289640Y145408D01*
X289587Y145384D01*
X289534Y145358D01*
X289484Y145328D01*
X289436Y145295D01*
X289390Y145259D01*
X289346Y145221D01*
X289304Y145179D01*
X289266Y145135D01*
X289230Y145089D01*
X289197Y145041D01*
X289167Y144991D01*
X289141Y144938D01*
X289117Y144885D01*
X289098Y144830D01*
X289081Y144774D01*
X289068Y144716D01*
X289059Y144659D01*
X289054Y144600D01*
X289052Y144542D01*
X289052Y144231D01*
X289052Y141970D02*
X294640Y141970D01*
X292777Y141970D02*
X292777Y140418D01*
X292775Y140360D01*
X292770Y140301D01*
X292761Y140244D01*
X292748Y140186D01*
X292731Y140130D01*
X292712Y140075D01*
X292688Y140022D01*
X292662Y139969D01*
X292632Y139919D01*
X292599Y139871D01*
X292563Y139825D01*
X292525Y139781D01*
X292483Y139739D01*
X292439Y139701D01*
X292393Y139665D01*
X292345Y139632D01*
X292295Y139602D01*
X292242Y139576D01*
X292189Y139552D01*
X292134Y139533D01*
X292078Y139516D01*
X292020Y139503D01*
X291963Y139494D01*
X291904Y139489D01*
X291846Y139487D01*
X291846Y139486D02*
X289052Y139486D01*
X289052Y137071D02*
X292777Y137071D01*
X294330Y137226D02*
X294640Y137226D01*
X294640Y136915D01*
X294330Y136915D01*
X294330Y137226D01*
X292777Y134655D02*
X289052Y134655D01*
X292777Y134655D02*
X292777Y133103D01*
X292775Y133045D01*
X292770Y132986D01*
X292761Y132929D01*
X292748Y132871D01*
X292731Y132815D01*
X292712Y132760D01*
X292688Y132707D01*
X292662Y132654D01*
X292632Y132604D01*
X292599Y132556D01*
X292563Y132510D01*
X292525Y132466D01*
X292483Y132424D01*
X292439Y132386D01*
X292393Y132350D01*
X292345Y132317D01*
X292295Y132287D01*
X292242Y132261D01*
X292189Y132237D01*
X292134Y132218D01*
X292078Y132201D01*
X292020Y132188D01*
X291963Y132179D01*
X291904Y132174D01*
X291846Y132172D01*
X291846Y132171D02*
X289052Y132171D01*
X289052Y128815D02*
X289052Y127262D01*
X289052Y128815D02*
X289054Y128873D01*
X289059Y128932D01*
X289068Y128989D01*
X289081Y129047D01*
X289098Y129103D01*
X289117Y129158D01*
X289141Y129211D01*
X289167Y129264D01*
X289197Y129314D01*
X289230Y129362D01*
X289266Y129408D01*
X289304Y129452D01*
X289346Y129494D01*
X289390Y129532D01*
X289436Y129568D01*
X289484Y129601D01*
X289534Y129631D01*
X289587Y129657D01*
X289640Y129681D01*
X289695Y129700D01*
X289751Y129717D01*
X289809Y129730D01*
X289866Y129739D01*
X289925Y129744D01*
X289983Y129746D01*
X291846Y129746D01*
X291904Y129744D01*
X291963Y129739D01*
X292020Y129730D01*
X292078Y129717D01*
X292134Y129700D01*
X292189Y129681D01*
X292242Y129657D01*
X292295Y129631D01*
X292345Y129601D01*
X292393Y129568D01*
X292439Y129532D01*
X292483Y129494D01*
X292525Y129452D01*
X292563Y129408D01*
X292599Y129362D01*
X292632Y129314D01*
X292662Y129264D01*
X292688Y129211D01*
X292712Y129158D01*
X292731Y129103D01*
X292748Y129047D01*
X292761Y128989D01*
X292770Y128932D01*
X292775Y128873D01*
X292777Y128815D01*
X292777Y127262D01*
X288121Y127262D01*
X288121Y127263D02*
X288060Y127265D01*
X287999Y127271D01*
X287939Y127281D01*
X287880Y127295D01*
X287822Y127312D01*
X287765Y127334D01*
X287709Y127359D01*
X287656Y127388D01*
X287604Y127420D01*
X287554Y127455D01*
X287507Y127494D01*
X287463Y127536D01*
X287421Y127580D01*
X287382Y127627D01*
X287347Y127677D01*
X287315Y127728D01*
X287286Y127782D01*
X287261Y127838D01*
X287239Y127895D01*
X287222Y127953D01*
X287208Y128012D01*
X287198Y128072D01*
X287192Y128133D01*
X287190Y128194D01*
X287189Y128194D02*
X287189Y129436D01*
X289052Y120922D02*
X289052Y119370D01*
X289052Y120922D02*
X289054Y120980D01*
X289059Y121039D01*
X289068Y121096D01*
X289081Y121154D01*
X289098Y121210D01*
X289117Y121265D01*
X289141Y121318D01*
X289167Y121371D01*
X289197Y121421D01*
X289230Y121469D01*
X289266Y121515D01*
X289304Y121559D01*
X289346Y121601D01*
X289390Y121639D01*
X289436Y121675D01*
X289484Y121708D01*
X289534Y121738D01*
X289587Y121764D01*
X289640Y121788D01*
X289695Y121807D01*
X289751Y121824D01*
X289809Y121837D01*
X289866Y121846D01*
X289925Y121851D01*
X289983Y121853D01*
X291536Y121853D01*
X291536Y121854D02*
X291606Y121852D01*
X291675Y121846D01*
X291744Y121836D01*
X291812Y121823D01*
X291880Y121805D01*
X291946Y121784D01*
X292011Y121759D01*
X292075Y121731D01*
X292137Y121699D01*
X292197Y121664D01*
X292255Y121625D01*
X292310Y121583D01*
X292364Y121538D01*
X292414Y121490D01*
X292462Y121440D01*
X292507Y121386D01*
X292549Y121331D01*
X292588Y121273D01*
X292623Y121213D01*
X292655Y121151D01*
X292683Y121087D01*
X292708Y121022D01*
X292729Y120956D01*
X292747Y120888D01*
X292760Y120820D01*
X292770Y120751D01*
X292776Y120682D01*
X292778Y120612D01*
X292776Y120542D01*
X292770Y120473D01*
X292760Y120404D01*
X292747Y120336D01*
X292729Y120268D01*
X292708Y120202D01*
X292683Y120137D01*
X292655Y120073D01*
X292623Y120011D01*
X292588Y119951D01*
X292549Y119893D01*
X292507Y119838D01*
X292462Y119784D01*
X292414Y119734D01*
X292364Y119686D01*
X292310Y119641D01*
X292255Y119599D01*
X292197Y119560D01*
X292137Y119525D01*
X292075Y119493D01*
X292011Y119465D01*
X291946Y119440D01*
X291880Y119419D01*
X291812Y119401D01*
X291744Y119388D01*
X291675Y119378D01*
X291606Y119372D01*
X291536Y119370D01*
X290915Y119370D01*
X290915Y121853D01*
X289983Y117029D02*
X294640Y117029D01*
X289983Y117029D02*
X289925Y117027D01*
X289866Y117022D01*
X289809Y117013D01*
X289751Y117000D01*
X289695Y116983D01*
X289640Y116964D01*
X289587Y116940D01*
X289534Y116914D01*
X289484Y116884D01*
X289436Y116851D01*
X289390Y116815D01*
X289346Y116777D01*
X289304Y116735D01*
X289266Y116691D01*
X289230Y116645D01*
X289197Y116597D01*
X289167Y116547D01*
X289141Y116494D01*
X289117Y116441D01*
X289098Y116386D01*
X289081Y116330D01*
X289068Y116272D01*
X289059Y116215D01*
X289054Y116156D01*
X289052Y116098D01*
X291225Y113707D02*
X290604Y112155D01*
X291225Y113707D02*
X291247Y113758D01*
X291273Y113807D01*
X291302Y113855D01*
X291335Y113900D01*
X291371Y113943D01*
X291409Y113984D01*
X291451Y114021D01*
X291494Y114056D01*
X291540Y114088D01*
X291589Y114116D01*
X291639Y114141D01*
X291690Y114162D01*
X291743Y114180D01*
X291797Y114194D01*
X291852Y114204D01*
X291908Y114210D01*
X291963Y114213D01*
X292019Y114212D01*
X292075Y114206D01*
X292130Y114197D01*
X292184Y114185D01*
X292238Y114168D01*
X292290Y114148D01*
X292340Y114124D01*
X292389Y114097D01*
X292436Y114066D01*
X292480Y114032D01*
X292522Y113996D01*
X292562Y113956D01*
X292598Y113914D01*
X292632Y113869D01*
X292662Y113822D01*
X292689Y113774D01*
X292713Y113723D01*
X292733Y113671D01*
X292749Y113617D01*
X292762Y113563D01*
X292771Y113508D01*
X292776Y113452D01*
X292777Y113396D01*
X292778Y113397D02*
X292774Y113286D01*
X292768Y113175D01*
X292757Y113065D01*
X292743Y112955D01*
X292726Y112845D01*
X292706Y112736D01*
X292682Y112628D01*
X292654Y112521D01*
X292623Y112414D01*
X292589Y112309D01*
X292552Y112204D01*
X292511Y112101D01*
X292467Y111999D01*
X290604Y112155D02*
X290582Y112104D01*
X290556Y112055D01*
X290527Y112007D01*
X290494Y111962D01*
X290458Y111919D01*
X290420Y111878D01*
X290378Y111841D01*
X290335Y111806D01*
X290289Y111774D01*
X290240Y111746D01*
X290190Y111721D01*
X290139Y111700D01*
X290086Y111682D01*
X290032Y111668D01*
X289977Y111658D01*
X289921Y111652D01*
X289866Y111649D01*
X289810Y111650D01*
X289754Y111656D01*
X289699Y111665D01*
X289645Y111677D01*
X289591Y111694D01*
X289539Y111714D01*
X289489Y111738D01*
X289440Y111765D01*
X289393Y111796D01*
X289349Y111830D01*
X289307Y111866D01*
X289267Y111906D01*
X289231Y111948D01*
X289197Y111993D01*
X289167Y112040D01*
X289140Y112088D01*
X289116Y112139D01*
X289096Y112191D01*
X289080Y112245D01*
X289067Y112299D01*
X289058Y112354D01*
X289053Y112410D01*
X289052Y112466D01*
X289052Y112465D02*
X289055Y112599D01*
X289062Y112733D01*
X289073Y112867D01*
X289086Y113000D01*
X289104Y113133D01*
X289124Y113266D01*
X289148Y113398D01*
X289176Y113529D01*
X289206Y113660D01*
X289240Y113789D01*
X289278Y113918D01*
X289318Y114046D01*
X289362Y114173D01*
X289052Y108486D02*
X289052Y106934D01*
X289052Y108486D02*
X289054Y108544D01*
X289059Y108603D01*
X289068Y108660D01*
X289081Y108718D01*
X289098Y108774D01*
X289117Y108829D01*
X289141Y108882D01*
X289167Y108935D01*
X289197Y108985D01*
X289230Y109033D01*
X289266Y109079D01*
X289304Y109123D01*
X289346Y109165D01*
X289390Y109203D01*
X289436Y109239D01*
X289484Y109272D01*
X289534Y109302D01*
X289587Y109328D01*
X289640Y109352D01*
X289695Y109371D01*
X289751Y109388D01*
X289809Y109401D01*
X289866Y109410D01*
X289925Y109415D01*
X289983Y109417D01*
X289983Y109418D02*
X291536Y109418D01*
X291606Y109416D01*
X291675Y109410D01*
X291744Y109400D01*
X291812Y109387D01*
X291880Y109369D01*
X291946Y109348D01*
X292011Y109323D01*
X292075Y109295D01*
X292137Y109263D01*
X292197Y109228D01*
X292255Y109189D01*
X292310Y109147D01*
X292364Y109102D01*
X292414Y109054D01*
X292462Y109004D01*
X292507Y108950D01*
X292549Y108895D01*
X292588Y108837D01*
X292623Y108777D01*
X292655Y108715D01*
X292683Y108651D01*
X292708Y108586D01*
X292729Y108520D01*
X292747Y108452D01*
X292760Y108384D01*
X292770Y108315D01*
X292776Y108246D01*
X292778Y108176D01*
X292776Y108106D01*
X292770Y108037D01*
X292760Y107968D01*
X292747Y107900D01*
X292729Y107832D01*
X292708Y107766D01*
X292683Y107701D01*
X292655Y107637D01*
X292623Y107575D01*
X292588Y107515D01*
X292549Y107457D01*
X292507Y107402D01*
X292462Y107348D01*
X292414Y107298D01*
X292364Y107250D01*
X292310Y107205D01*
X292255Y107163D01*
X292197Y107124D01*
X292137Y107089D01*
X292075Y107057D01*
X292011Y107029D01*
X291946Y107004D01*
X291880Y106983D01*
X291812Y106965D01*
X291744Y106952D01*
X291675Y106942D01*
X291606Y106936D01*
X291536Y106934D01*
X290915Y106934D01*
X290915Y109418D01*
X289052Y104878D02*
X289052Y104567D01*
X289052Y104878D02*
X289362Y104878D01*
X289362Y104567D01*
X289052Y104567D01*
X287810Y105033D01*
X291225Y99077D02*
X290604Y97524D01*
X291225Y99077D02*
X291247Y99128D01*
X291273Y99177D01*
X291302Y99225D01*
X291335Y99270D01*
X291371Y99313D01*
X291409Y99354D01*
X291451Y99391D01*
X291494Y99426D01*
X291540Y99458D01*
X291589Y99486D01*
X291639Y99511D01*
X291690Y99532D01*
X291743Y99550D01*
X291797Y99564D01*
X291852Y99574D01*
X291908Y99580D01*
X291963Y99583D01*
X292019Y99582D01*
X292075Y99576D01*
X292130Y99567D01*
X292184Y99555D01*
X292238Y99538D01*
X292290Y99518D01*
X292340Y99494D01*
X292389Y99467D01*
X292436Y99436D01*
X292480Y99402D01*
X292522Y99366D01*
X292562Y99326D01*
X292598Y99284D01*
X292632Y99239D01*
X292662Y99192D01*
X292689Y99144D01*
X292713Y99093D01*
X292733Y99041D01*
X292749Y98987D01*
X292762Y98933D01*
X292771Y98878D01*
X292776Y98822D01*
X292777Y98766D01*
X292778Y98766D02*
X292774Y98655D01*
X292768Y98544D01*
X292757Y98434D01*
X292743Y98324D01*
X292726Y98214D01*
X292706Y98105D01*
X292682Y97997D01*
X292654Y97890D01*
X292623Y97783D01*
X292589Y97678D01*
X292552Y97573D01*
X292511Y97470D01*
X292467Y97368D01*
X290604Y97524D02*
X290582Y97473D01*
X290556Y97424D01*
X290527Y97376D01*
X290494Y97331D01*
X290458Y97288D01*
X290420Y97247D01*
X290378Y97210D01*
X290335Y97175D01*
X290289Y97143D01*
X290240Y97115D01*
X290190Y97090D01*
X290139Y97069D01*
X290086Y97051D01*
X290032Y97037D01*
X289977Y97027D01*
X289921Y97021D01*
X289866Y97018D01*
X289810Y97019D01*
X289754Y97025D01*
X289699Y97034D01*
X289645Y97046D01*
X289591Y97063D01*
X289539Y97083D01*
X289489Y97107D01*
X289440Y97134D01*
X289393Y97165D01*
X289349Y97199D01*
X289307Y97235D01*
X289267Y97275D01*
X289231Y97317D01*
X289197Y97362D01*
X289167Y97409D01*
X289140Y97457D01*
X289116Y97508D01*
X289096Y97560D01*
X289080Y97614D01*
X289067Y97668D01*
X289058Y97723D01*
X289053Y97779D01*
X289052Y97835D01*
X289055Y97969D01*
X289062Y98103D01*
X289073Y98237D01*
X289086Y98370D01*
X289104Y98503D01*
X289124Y98636D01*
X289148Y98768D01*
X289176Y98899D01*
X289206Y99030D01*
X289240Y99159D01*
X289278Y99288D01*
X289318Y99416D01*
X289362Y99543D01*
X289052Y94604D02*
X294640Y94604D01*
X292777Y94604D02*
X292777Y93052D01*
X292775Y92994D01*
X292770Y92935D01*
X292761Y92878D01*
X292748Y92820D01*
X292731Y92764D01*
X292712Y92709D01*
X292688Y92656D01*
X292662Y92603D01*
X292632Y92553D01*
X292599Y92505D01*
X292563Y92459D01*
X292525Y92415D01*
X292483Y92373D01*
X292439Y92335D01*
X292393Y92299D01*
X292345Y92266D01*
X292295Y92236D01*
X292242Y92210D01*
X292189Y92186D01*
X292134Y92167D01*
X292078Y92150D01*
X292020Y92137D01*
X291963Y92128D01*
X291904Y92123D01*
X291846Y92121D01*
X289052Y92121D01*
X290294Y89667D02*
X291536Y89667D01*
X291606Y89665D01*
X291675Y89659D01*
X291744Y89649D01*
X291812Y89636D01*
X291880Y89618D01*
X291946Y89597D01*
X292011Y89572D01*
X292075Y89544D01*
X292137Y89512D01*
X292197Y89477D01*
X292255Y89438D01*
X292310Y89396D01*
X292364Y89351D01*
X292414Y89303D01*
X292462Y89253D01*
X292507Y89199D01*
X292549Y89144D01*
X292588Y89086D01*
X292623Y89026D01*
X292655Y88964D01*
X292683Y88900D01*
X292708Y88835D01*
X292729Y88769D01*
X292747Y88701D01*
X292760Y88633D01*
X292770Y88564D01*
X292776Y88495D01*
X292778Y88425D01*
X292776Y88355D01*
X292770Y88286D01*
X292760Y88217D01*
X292747Y88149D01*
X292729Y88081D01*
X292708Y88015D01*
X292683Y87950D01*
X292655Y87886D01*
X292623Y87824D01*
X292588Y87764D01*
X292549Y87706D01*
X292507Y87651D01*
X292462Y87597D01*
X292414Y87547D01*
X292364Y87499D01*
X292310Y87454D01*
X292255Y87412D01*
X292197Y87373D01*
X292137Y87338D01*
X292075Y87306D01*
X292011Y87278D01*
X291946Y87253D01*
X291880Y87232D01*
X291812Y87214D01*
X291744Y87201D01*
X291675Y87191D01*
X291606Y87185D01*
X291536Y87183D01*
X290294Y87183D01*
X290224Y87185D01*
X290155Y87191D01*
X290086Y87201D01*
X290018Y87214D01*
X289950Y87232D01*
X289884Y87253D01*
X289819Y87278D01*
X289755Y87306D01*
X289693Y87338D01*
X289633Y87373D01*
X289575Y87412D01*
X289520Y87454D01*
X289466Y87499D01*
X289416Y87547D01*
X289368Y87597D01*
X289323Y87651D01*
X289281Y87706D01*
X289242Y87764D01*
X289207Y87824D01*
X289175Y87886D01*
X289147Y87950D01*
X289122Y88015D01*
X289101Y88081D01*
X289083Y88149D01*
X289070Y88217D01*
X289060Y88286D01*
X289054Y88355D01*
X289052Y88425D01*
X289054Y88495D01*
X289060Y88564D01*
X289070Y88633D01*
X289083Y88701D01*
X289101Y88769D01*
X289122Y88835D01*
X289147Y88900D01*
X289175Y88964D01*
X289207Y89026D01*
X289242Y89086D01*
X289281Y89144D01*
X289323Y89199D01*
X289368Y89253D01*
X289416Y89303D01*
X289466Y89351D01*
X289520Y89396D01*
X289575Y89438D01*
X289633Y89477D01*
X289693Y89512D01*
X289755Y89544D01*
X289819Y89572D01*
X289884Y89597D01*
X289950Y89618D01*
X290018Y89636D01*
X290086Y89649D01*
X290155Y89659D01*
X290224Y89665D01*
X290294Y89667D01*
X289052Y84696D02*
X292777Y84696D01*
X292777Y82834D01*
X292156Y82834D01*
X292777Y81538D02*
X292777Y79675D01*
X294640Y80917D02*
X289983Y80917D01*
X289925Y80915D01*
X289866Y80910D01*
X289809Y80901D01*
X289751Y80888D01*
X289695Y80871D01*
X289640Y80852D01*
X289587Y80828D01*
X289534Y80802D01*
X289484Y80772D01*
X289436Y80739D01*
X289390Y80703D01*
X289346Y80665D01*
X289304Y80623D01*
X289266Y80579D01*
X289230Y80533D01*
X289197Y80485D01*
X289167Y80435D01*
X289141Y80382D01*
X289117Y80329D01*
X289098Y80274D01*
X289081Y80218D01*
X289068Y80160D01*
X289059Y80103D01*
X289054Y80044D01*
X289052Y79986D01*
X289052Y79675D01*
X292777Y75137D02*
X292777Y73274D01*
X294640Y74516D02*
X289983Y74516D01*
X289925Y74514D01*
X289866Y74509D01*
X289809Y74500D01*
X289751Y74487D01*
X289695Y74470D01*
X289640Y74451D01*
X289587Y74427D01*
X289534Y74401D01*
X289484Y74371D01*
X289436Y74338D01*
X289390Y74302D01*
X289346Y74264D01*
X289304Y74222D01*
X289266Y74178D01*
X289230Y74132D01*
X289197Y74084D01*
X289167Y74034D01*
X289141Y73981D01*
X289117Y73928D01*
X289098Y73873D01*
X289081Y73817D01*
X289068Y73759D01*
X289059Y73702D01*
X289054Y73643D01*
X289052Y73585D01*
X289052Y73274D01*
X289052Y71013D02*
X294640Y71013D01*
X292777Y71013D02*
X292777Y69461D01*
X292775Y69403D01*
X292770Y69344D01*
X292761Y69287D01*
X292748Y69229D01*
X292731Y69173D01*
X292712Y69118D01*
X292688Y69065D01*
X292662Y69012D01*
X292632Y68962D01*
X292599Y68914D01*
X292563Y68868D01*
X292525Y68824D01*
X292483Y68782D01*
X292439Y68744D01*
X292393Y68708D01*
X292345Y68675D01*
X292295Y68645D01*
X292242Y68619D01*
X292189Y68595D01*
X292134Y68576D01*
X292078Y68559D01*
X292020Y68546D01*
X291963Y68537D01*
X291904Y68532D01*
X291846Y68530D01*
X289052Y68530D01*
X289052Y66114D02*
X292777Y66114D01*
X294330Y66269D02*
X294640Y66269D01*
X294640Y65959D01*
X294330Y65959D01*
X294330Y66269D01*
X291225Y63415D02*
X290604Y61863D01*
X291225Y63415D02*
X291247Y63466D01*
X291273Y63515D01*
X291302Y63563D01*
X291335Y63608D01*
X291371Y63651D01*
X291409Y63692D01*
X291451Y63729D01*
X291494Y63764D01*
X291540Y63796D01*
X291589Y63824D01*
X291639Y63849D01*
X291690Y63870D01*
X291743Y63888D01*
X291797Y63902D01*
X291852Y63912D01*
X291908Y63918D01*
X291963Y63921D01*
X292019Y63920D01*
X292075Y63914D01*
X292130Y63905D01*
X292184Y63893D01*
X292238Y63876D01*
X292290Y63856D01*
X292340Y63832D01*
X292389Y63805D01*
X292436Y63774D01*
X292480Y63740D01*
X292522Y63704D01*
X292562Y63664D01*
X292598Y63622D01*
X292632Y63577D01*
X292662Y63530D01*
X292689Y63482D01*
X292713Y63431D01*
X292733Y63379D01*
X292749Y63325D01*
X292762Y63271D01*
X292771Y63216D01*
X292776Y63160D01*
X292777Y63104D01*
X292778Y63105D02*
X292774Y62994D01*
X292768Y62883D01*
X292757Y62773D01*
X292743Y62663D01*
X292726Y62553D01*
X292706Y62444D01*
X292682Y62336D01*
X292654Y62229D01*
X292623Y62122D01*
X292589Y62017D01*
X292552Y61912D01*
X292511Y61809D01*
X292467Y61707D01*
X290604Y61863D02*
X290582Y61812D01*
X290556Y61763D01*
X290527Y61715D01*
X290494Y61670D01*
X290458Y61627D01*
X290420Y61586D01*
X290378Y61549D01*
X290335Y61514D01*
X290289Y61482D01*
X290240Y61454D01*
X290190Y61429D01*
X290139Y61408D01*
X290086Y61390D01*
X290032Y61376D01*
X289977Y61366D01*
X289921Y61360D01*
X289866Y61357D01*
X289810Y61358D01*
X289754Y61364D01*
X289699Y61373D01*
X289645Y61385D01*
X289591Y61402D01*
X289539Y61422D01*
X289489Y61446D01*
X289440Y61473D01*
X289393Y61504D01*
X289349Y61538D01*
X289307Y61574D01*
X289267Y61614D01*
X289231Y61656D01*
X289197Y61701D01*
X289167Y61748D01*
X289140Y61796D01*
X289116Y61847D01*
X289096Y61899D01*
X289080Y61953D01*
X289067Y62007D01*
X289058Y62062D01*
X289053Y62118D01*
X289052Y62174D01*
X289052Y62173D02*
X289055Y62307D01*
X289062Y62441D01*
X289073Y62575D01*
X289086Y62708D01*
X289104Y62841D01*
X289124Y62974D01*
X289148Y63106D01*
X289176Y63237D01*
X289206Y63368D01*
X289240Y63497D01*
X289278Y63626D01*
X289318Y63754D01*
X289362Y63881D01*
D12*
X267970Y136144D02*
X267815Y136295D01*
X267656Y136443D01*
X267493Y136587D01*
X267327Y136727D01*
X267158Y136863D01*
X266986Y136995D01*
X266810Y137122D01*
X266632Y137245D01*
X266450Y137364D01*
X266266Y137479D01*
X266079Y137589D01*
X265889Y137694D01*
X265697Y137795D01*
X265502Y137891D01*
X265306Y137983D01*
X265107Y138070D01*
X264906Y138151D01*
X264703Y138228D01*
X264498Y138300D01*
X264292Y138367D01*
X264084Y138429D01*
X263874Y138486D01*
X263664Y138538D01*
X263452Y138585D01*
X263239Y138627D01*
X263025Y138663D01*
X262810Y138695D01*
X262595Y138721D01*
X262379Y138742D01*
X262162Y138758D01*
X261945Y138768D01*
X261729Y138773D01*
X261511Y138773D01*
X261295Y138768D01*
X261078Y138758D01*
X260861Y138742D01*
X260645Y138721D01*
X260430Y138695D01*
X260215Y138663D01*
X260001Y138627D01*
X259788Y138585D01*
X259576Y138538D01*
X259366Y138486D01*
X259156Y138429D01*
X258948Y138367D01*
X258742Y138300D01*
X258537Y138228D01*
X258334Y138151D01*
X258133Y138070D01*
X257934Y137983D01*
X257738Y137891D01*
X257543Y137795D01*
X257351Y137694D01*
X257161Y137589D01*
X256974Y137479D01*
X256790Y137364D01*
X256608Y137245D01*
X256430Y137122D01*
X256254Y136995D01*
X256082Y136863D01*
X255913Y136727D01*
X255747Y136587D01*
X255584Y136443D01*
X255425Y136295D01*
X255270Y136144D01*
X267970Y136144D02*
X268125Y135993D01*
X268284Y135845D01*
X268447Y135701D01*
X268613Y135561D01*
X268782Y135425D01*
X268954Y135293D01*
X269130Y135166D01*
X269308Y135043D01*
X269490Y134924D01*
X269674Y134809D01*
X269861Y134699D01*
X270051Y134594D01*
X270243Y134493D01*
X270438Y134397D01*
X270634Y134305D01*
X270833Y134218D01*
X271034Y134137D01*
X271237Y134060D01*
X271442Y133988D01*
X271648Y133921D01*
X271856Y133859D01*
X272066Y133802D01*
X272276Y133750D01*
X272488Y133703D01*
X272701Y133661D01*
X272915Y133625D01*
X273130Y133593D01*
X273345Y133567D01*
X273561Y133546D01*
X273778Y133530D01*
X273995Y133520D01*
X274211Y133515D01*
X274429Y133515D01*
X274645Y133520D01*
X274862Y133530D01*
X275079Y133546D01*
X275295Y133567D01*
X275510Y133593D01*
X275725Y133625D01*
X275939Y133661D01*
X276152Y133703D01*
X276364Y133750D01*
X276574Y133802D01*
X276784Y133859D01*
X276992Y133921D01*
X277198Y133988D01*
X277403Y134060D01*
X277606Y134137D01*
X277807Y134218D01*
X278006Y134305D01*
X278202Y134397D01*
X278397Y134493D01*
X278589Y134594D01*
X278779Y134699D01*
X278966Y134809D01*
X279150Y134924D01*
X279332Y135043D01*
X279510Y135166D01*
X279686Y135293D01*
X279858Y135425D01*
X280027Y135561D01*
X280193Y135701D01*
X280356Y135845D01*
X280515Y135993D01*
X280670Y136144D01*
X259588Y141986D02*
X255270Y136144D01*
X261620Y136398D01*
D13*
X428760Y145970D02*
X429760Y145970D01*
X429760Y135970D02*
X428760Y135970D01*
X399280Y135970D02*
X398280Y135970D01*
X398280Y145970D02*
X399280Y145970D01*
D12*
X504070Y170180D02*
X504070Y185800D01*
X475620Y185800D02*
X475620Y170180D01*
D14*
X501340Y182990D03*
D15*
X465166Y352500D02*
X465168Y352563D01*
X465174Y352625D01*
X465184Y352687D01*
X465197Y352749D01*
X465215Y352809D01*
X465236Y352868D01*
X465261Y352926D01*
X465290Y352982D01*
X465322Y353036D01*
X465357Y353088D01*
X465395Y353137D01*
X465437Y353185D01*
X465481Y353229D01*
X465529Y353271D01*
X465578Y353309D01*
X465630Y353344D01*
X465684Y353376D01*
X465740Y353405D01*
X465798Y353430D01*
X465857Y353451D01*
X465917Y353469D01*
X465979Y353482D01*
X466041Y353492D01*
X466103Y353498D01*
X466166Y353500D01*
X466229Y353498D01*
X466291Y353492D01*
X466353Y353482D01*
X466415Y353469D01*
X466475Y353451D01*
X466534Y353430D01*
X466592Y353405D01*
X466648Y353376D01*
X466702Y353344D01*
X466754Y353309D01*
X466803Y353271D01*
X466851Y353229D01*
X466895Y353185D01*
X466937Y353137D01*
X466975Y353088D01*
X467010Y353036D01*
X467042Y352982D01*
X467071Y352926D01*
X467096Y352868D01*
X467117Y352809D01*
X467135Y352749D01*
X467148Y352687D01*
X467158Y352625D01*
X467164Y352563D01*
X467166Y352500D01*
X467164Y352437D01*
X467158Y352375D01*
X467148Y352313D01*
X467135Y352251D01*
X467117Y352191D01*
X467096Y352132D01*
X467071Y352074D01*
X467042Y352018D01*
X467010Y351964D01*
X466975Y351912D01*
X466937Y351863D01*
X466895Y351815D01*
X466851Y351771D01*
X466803Y351729D01*
X466754Y351691D01*
X466702Y351656D01*
X466648Y351624D01*
X466592Y351595D01*
X466534Y351570D01*
X466475Y351549D01*
X466415Y351531D01*
X466353Y351518D01*
X466291Y351508D01*
X466229Y351502D01*
X466166Y351500D01*
X466103Y351502D01*
X466041Y351508D01*
X465979Y351518D01*
X465917Y351531D01*
X465857Y351549D01*
X465798Y351570D01*
X465740Y351595D01*
X465684Y351624D01*
X465630Y351656D01*
X465578Y351691D01*
X465529Y351729D01*
X465481Y351771D01*
X465437Y351815D01*
X465395Y351863D01*
X465357Y351912D01*
X465322Y351964D01*
X465290Y352018D01*
X465261Y352074D01*
X465236Y352132D01*
X465215Y352191D01*
X465197Y352251D01*
X465184Y352313D01*
X465174Y352375D01*
X465168Y352437D01*
X465166Y352500D01*
D16*
X469166Y347500D02*
X469166Y341500D01*
X469166Y347500D02*
X463166Y347500D01*
X469166Y271500D02*
X469166Y265500D01*
X463166Y265500D01*
X393166Y347500D02*
X387166Y347500D01*
X387166Y341500D01*
X387166Y265500D02*
X393166Y265500D01*
X387166Y265500D02*
X387166Y271500D01*
X465150Y364500D02*
X497150Y364500D01*
X465150Y364500D02*
X465150Y389500D01*
X497150Y389500D01*
X497150Y364500D01*
X505550Y389700D02*
X505552Y389763D01*
X505558Y389825D01*
X505568Y389887D01*
X505581Y389949D01*
X505599Y390009D01*
X505620Y390068D01*
X505645Y390126D01*
X505674Y390182D01*
X505706Y390236D01*
X505741Y390288D01*
X505779Y390337D01*
X505821Y390385D01*
X505865Y390429D01*
X505913Y390471D01*
X505962Y390509D01*
X506014Y390544D01*
X506068Y390576D01*
X506124Y390605D01*
X506182Y390630D01*
X506241Y390651D01*
X506301Y390669D01*
X506363Y390682D01*
X506425Y390692D01*
X506487Y390698D01*
X506550Y390700D01*
X506613Y390698D01*
X506675Y390692D01*
X506737Y390682D01*
X506799Y390669D01*
X506859Y390651D01*
X506918Y390630D01*
X506976Y390605D01*
X507032Y390576D01*
X507086Y390544D01*
X507138Y390509D01*
X507187Y390471D01*
X507235Y390429D01*
X507279Y390385D01*
X507321Y390337D01*
X507359Y390288D01*
X507394Y390236D01*
X507426Y390182D01*
X507455Y390126D01*
X507480Y390068D01*
X507501Y390009D01*
X507519Y389949D01*
X507532Y389887D01*
X507542Y389825D01*
X507548Y389763D01*
X507550Y389700D01*
X507548Y389637D01*
X507542Y389575D01*
X507532Y389513D01*
X507519Y389451D01*
X507501Y389391D01*
X507480Y389332D01*
X507455Y389274D01*
X507426Y389218D01*
X507394Y389164D01*
X507359Y389112D01*
X507321Y389063D01*
X507279Y389015D01*
X507235Y388971D01*
X507187Y388929D01*
X507138Y388891D01*
X507086Y388856D01*
X507032Y388824D01*
X506976Y388795D01*
X506918Y388770D01*
X506859Y388749D01*
X506799Y388731D01*
X506737Y388718D01*
X506675Y388708D01*
X506613Y388702D01*
X506550Y388700D01*
X506487Y388702D01*
X506425Y388708D01*
X506363Y388718D01*
X506301Y388731D01*
X506241Y388749D01*
X506182Y388770D01*
X506124Y388795D01*
X506068Y388824D01*
X506014Y388856D01*
X505962Y388891D01*
X505913Y388929D01*
X505865Y388971D01*
X505821Y389015D01*
X505779Y389063D01*
X505741Y389112D01*
X505706Y389164D01*
X505674Y389218D01*
X505645Y389274D01*
X505620Y389332D01*
X505599Y389391D01*
X505581Y389451D01*
X505568Y389513D01*
X505558Y389575D01*
X505552Y389637D01*
X505550Y389700D01*
D17*
X387670Y398145D02*
X387670Y368935D01*
X387670Y398145D02*
X400370Y398145D01*
X400370Y368935D01*
X387670Y368935D01*
X418220Y369115D02*
X418220Y398325D01*
X430920Y398325D01*
X430920Y369115D01*
X418220Y369115D01*
X439890Y175080D02*
X394170Y175080D01*
X439890Y175080D02*
X439890Y152220D01*
X394170Y152220D01*
X394170Y175080D01*
X475455Y204960D02*
X504665Y204960D01*
X475455Y204960D02*
X475455Y217660D01*
X504665Y217660D01*
X504665Y204960D01*
X514985Y241300D02*
X485775Y241300D01*
X485775Y254000D01*
X514985Y254000D01*
X514985Y241300D01*
X415740Y369295D02*
X415740Y398505D01*
X415740Y369295D02*
X403040Y369295D01*
X403040Y398505D01*
X415740Y398505D01*
X474567Y359407D02*
X495713Y359407D01*
X495713Y348294D01*
X474567Y348293D01*
X474567Y359407D01*
X448623Y362807D02*
X448623Y383953D01*
X459736Y383953D01*
X459737Y362807D01*
X448623Y362807D01*
X485775Y269240D02*
X514985Y269240D01*
X514985Y256540D01*
X485775Y256540D01*
X485775Y269240D01*
X485775Y283210D02*
X514985Y283210D01*
X514985Y270510D01*
X485775Y270510D01*
X485775Y283210D01*
X485775Y240030D02*
X514985Y240030D01*
X514985Y227330D01*
X485775Y227330D01*
X485775Y240030D01*
X485450Y300520D02*
X485450Y346240D01*
X508310Y346240D01*
X508310Y300520D01*
X485450Y300520D01*
X357520Y368455D02*
X357520Y397665D01*
X370220Y397665D01*
X370220Y368455D01*
X357520Y368455D01*
X486085Y298130D02*
X515295Y298130D01*
X515295Y285430D01*
X486085Y285430D01*
X486085Y298130D01*
X377950Y284765D02*
X377950Y255555D01*
X365250Y255555D01*
X365250Y284765D01*
X377950Y284765D01*
D18*
X349000Y40800D02*
X349000Y27300D01*
X438400Y27300D02*
X438400Y40800D01*
X438400Y-12700D02*
X349000Y-12700D01*
X349000Y800D01*
X438400Y800D02*
X438400Y-12700D01*
D17*
X391573Y83343D02*
X370427Y83343D01*
X370427Y94456D01*
X391573Y94457D01*
X391573Y83343D01*
X405987Y94457D02*
X427133Y94457D01*
X427133Y83344D01*
X405987Y83343D01*
X405987Y94457D01*
X195000Y201100D02*
X195000Y383100D01*
X313000Y383100D01*
X313000Y201100D01*
X195000Y201100D01*
D19*
X201929Y217100D02*
X201931Y217274D01*
X201938Y217447D01*
X201948Y217620D01*
X201963Y217793D01*
X201982Y217966D01*
X202006Y218138D01*
X202033Y218309D01*
X202065Y218479D01*
X202101Y218649D01*
X202141Y218818D01*
X202185Y218986D01*
X202233Y219153D01*
X202286Y219318D01*
X202342Y219482D01*
X202403Y219645D01*
X202467Y219806D01*
X202536Y219965D01*
X202608Y220123D01*
X202684Y220279D01*
X202764Y220433D01*
X202848Y220585D01*
X202935Y220735D01*
X203026Y220883D01*
X203121Y221028D01*
X203219Y221172D01*
X203321Y221312D01*
X203426Y221450D01*
X203534Y221586D01*
X203646Y221719D01*
X203761Y221849D01*
X203879Y221976D01*
X204000Y222100D01*
X204124Y222221D01*
X204251Y222339D01*
X204381Y222454D01*
X204514Y222566D01*
X204650Y222674D01*
X204788Y222779D01*
X204928Y222881D01*
X205072Y222979D01*
X205217Y223074D01*
X205365Y223165D01*
X205515Y223252D01*
X205667Y223336D01*
X205821Y223416D01*
X205977Y223492D01*
X206135Y223564D01*
X206294Y223633D01*
X206455Y223697D01*
X206618Y223758D01*
X206782Y223814D01*
X206947Y223867D01*
X207114Y223915D01*
X207282Y223959D01*
X207451Y223999D01*
X207621Y224035D01*
X207791Y224067D01*
X207962Y224094D01*
X208134Y224118D01*
X208307Y224137D01*
X208480Y224152D01*
X208653Y224162D01*
X208826Y224169D01*
X209000Y224171D01*
X209174Y224169D01*
X209347Y224162D01*
X209520Y224152D01*
X209693Y224137D01*
X209866Y224118D01*
X210038Y224094D01*
X210209Y224067D01*
X210379Y224035D01*
X210549Y223999D01*
X210718Y223959D01*
X210886Y223915D01*
X211053Y223867D01*
X211218Y223814D01*
X211382Y223758D01*
X211545Y223697D01*
X211706Y223633D01*
X211865Y223564D01*
X212023Y223492D01*
X212179Y223416D01*
X212333Y223336D01*
X212485Y223252D01*
X212635Y223165D01*
X212783Y223074D01*
X212928Y222979D01*
X213072Y222881D01*
X213212Y222779D01*
X213350Y222674D01*
X213486Y222566D01*
X213619Y222454D01*
X213749Y222339D01*
X213876Y222221D01*
X214000Y222100D01*
X214121Y221976D01*
X214239Y221849D01*
X214354Y221719D01*
X214466Y221586D01*
X214574Y221450D01*
X214679Y221312D01*
X214781Y221172D01*
X214879Y221028D01*
X214974Y220883D01*
X215065Y220735D01*
X215152Y220585D01*
X215236Y220433D01*
X215316Y220279D01*
X215392Y220123D01*
X215464Y219965D01*
X215533Y219806D01*
X215597Y219645D01*
X215658Y219482D01*
X215714Y219318D01*
X215767Y219153D01*
X215815Y218986D01*
X215859Y218818D01*
X215899Y218649D01*
X215935Y218479D01*
X215967Y218309D01*
X215994Y218138D01*
X216018Y217966D01*
X216037Y217793D01*
X216052Y217620D01*
X216062Y217447D01*
X216069Y217274D01*
X216071Y217100D01*
X216069Y216926D01*
X216062Y216753D01*
X216052Y216580D01*
X216037Y216407D01*
X216018Y216234D01*
X215994Y216062D01*
X215967Y215891D01*
X215935Y215721D01*
X215899Y215551D01*
X215859Y215382D01*
X215815Y215214D01*
X215767Y215047D01*
X215714Y214882D01*
X215658Y214718D01*
X215597Y214555D01*
X215533Y214394D01*
X215464Y214235D01*
X215392Y214077D01*
X215316Y213921D01*
X215236Y213767D01*
X215152Y213615D01*
X215065Y213465D01*
X214974Y213317D01*
X214879Y213172D01*
X214781Y213028D01*
X214679Y212888D01*
X214574Y212750D01*
X214466Y212614D01*
X214354Y212481D01*
X214239Y212351D01*
X214121Y212224D01*
X214000Y212100D01*
X213876Y211979D01*
X213749Y211861D01*
X213619Y211746D01*
X213486Y211634D01*
X213350Y211526D01*
X213212Y211421D01*
X213072Y211319D01*
X212928Y211221D01*
X212783Y211126D01*
X212635Y211035D01*
X212485Y210948D01*
X212333Y210864D01*
X212179Y210784D01*
X212023Y210708D01*
X211865Y210636D01*
X211706Y210567D01*
X211545Y210503D01*
X211382Y210442D01*
X211218Y210386D01*
X211053Y210333D01*
X210886Y210285D01*
X210718Y210241D01*
X210549Y210201D01*
X210379Y210165D01*
X210209Y210133D01*
X210038Y210106D01*
X209866Y210082D01*
X209693Y210063D01*
X209520Y210048D01*
X209347Y210038D01*
X209174Y210031D01*
X209000Y210029D01*
X208826Y210031D01*
X208653Y210038D01*
X208480Y210048D01*
X208307Y210063D01*
X208134Y210082D01*
X207962Y210106D01*
X207791Y210133D01*
X207621Y210165D01*
X207451Y210201D01*
X207282Y210241D01*
X207114Y210285D01*
X206947Y210333D01*
X206782Y210386D01*
X206618Y210442D01*
X206455Y210503D01*
X206294Y210567D01*
X206135Y210636D01*
X205977Y210708D01*
X205821Y210784D01*
X205667Y210864D01*
X205515Y210948D01*
X205365Y211035D01*
X205217Y211126D01*
X205072Y211221D01*
X204928Y211319D01*
X204788Y211421D01*
X204650Y211526D01*
X204514Y211634D01*
X204381Y211746D01*
X204251Y211861D01*
X204124Y211979D01*
X204000Y212100D01*
X203879Y212224D01*
X203761Y212351D01*
X203646Y212481D01*
X203534Y212614D01*
X203426Y212750D01*
X203321Y212888D01*
X203219Y213028D01*
X203121Y213172D01*
X203026Y213317D01*
X202935Y213465D01*
X202848Y213615D01*
X202764Y213767D01*
X202684Y213921D01*
X202608Y214077D01*
X202536Y214235D01*
X202467Y214394D01*
X202403Y214555D01*
X202342Y214718D01*
X202286Y214882D01*
X202233Y215047D01*
X202185Y215214D01*
X202141Y215382D01*
X202101Y215551D01*
X202065Y215721D01*
X202033Y215891D01*
X202006Y216062D01*
X201982Y216234D01*
X201963Y216407D01*
X201948Y216580D01*
X201938Y216753D01*
X201931Y216926D01*
X201929Y217100D01*
D17*
X244597Y404283D02*
X223943Y424937D01*
X232923Y433917D01*
X253577Y413263D01*
X244597Y404283D01*
D12*
X193072Y101346D02*
X193072Y51054D01*
X238728Y51054D01*
X238728Y101346D01*
X193072Y101346D01*
D11*
X195358Y99060D02*
X195358Y53340D01*
X236442Y53340D01*
X236442Y99060D01*
X195358Y99060D01*
D12*
X199136Y92456D02*
X199138Y92591D01*
X199144Y92726D01*
X199154Y92860D01*
X199168Y92994D01*
X199186Y93128D01*
X199207Y93261D01*
X199233Y93393D01*
X199263Y93525D01*
X199296Y93656D01*
X199333Y93785D01*
X199375Y93914D01*
X199419Y94041D01*
X199468Y94167D01*
X199520Y94291D01*
X199576Y94414D01*
X199636Y94535D01*
X199699Y94654D01*
X199765Y94771D01*
X199835Y94886D01*
X199909Y95000D01*
X199986Y95111D01*
X200065Y95219D01*
X200149Y95325D01*
X200235Y95429D01*
X200324Y95530D01*
X200416Y95629D01*
X200511Y95724D01*
X200609Y95817D01*
X200709Y95907D01*
X200812Y95994D01*
X200918Y96078D01*
X201026Y96159D01*
X201136Y96236D01*
X201249Y96310D01*
X201364Y96381D01*
X201481Y96449D01*
X201599Y96513D01*
X201720Y96573D01*
X201842Y96630D01*
X201966Y96683D01*
X202092Y96733D01*
X202218Y96779D01*
X202347Y96821D01*
X202476Y96859D01*
X202606Y96893D01*
X202738Y96924D01*
X202870Y96951D01*
X203003Y96973D01*
X203136Y96992D01*
X203270Y97007D01*
X203405Y97018D01*
X203539Y97025D01*
X203674Y97028D01*
X203809Y97027D01*
X203944Y97022D01*
X204078Y97013D01*
X204213Y97000D01*
X204347Y96983D01*
X204480Y96962D01*
X204612Y96938D01*
X204744Y96909D01*
X204875Y96877D01*
X205005Y96840D01*
X205134Y96800D01*
X205261Y96756D01*
X205387Y96708D01*
X205512Y96657D01*
X205635Y96602D01*
X205757Y96543D01*
X205876Y96481D01*
X205994Y96415D01*
X206110Y96346D01*
X206223Y96274D01*
X206335Y96198D01*
X206444Y96119D01*
X206551Y96037D01*
X206655Y95951D01*
X206757Y95863D01*
X206856Y95771D01*
X206953Y95677D01*
X207046Y95580D01*
X207137Y95480D01*
X207225Y95378D01*
X207309Y95273D01*
X207391Y95165D01*
X207469Y95055D01*
X207544Y94943D01*
X207616Y94829D01*
X207684Y94713D01*
X207749Y94594D01*
X207810Y94474D01*
X207868Y94352D01*
X207922Y94229D01*
X207973Y94104D01*
X208019Y93977D01*
X208062Y93850D01*
X208102Y93721D01*
X208137Y93590D01*
X208169Y93459D01*
X208196Y93327D01*
X208220Y93195D01*
X208240Y93061D01*
X208256Y92927D01*
X208268Y92793D01*
X208276Y92658D01*
X208280Y92523D01*
X208280Y92389D01*
X208276Y92254D01*
X208268Y92119D01*
X208256Y91985D01*
X208240Y91851D01*
X208220Y91717D01*
X208196Y91585D01*
X208169Y91453D01*
X208137Y91322D01*
X208102Y91191D01*
X208062Y91062D01*
X208019Y90935D01*
X207973Y90808D01*
X207922Y90683D01*
X207868Y90560D01*
X207810Y90438D01*
X207749Y90318D01*
X207684Y90199D01*
X207616Y90083D01*
X207544Y89969D01*
X207469Y89857D01*
X207391Y89747D01*
X207309Y89639D01*
X207225Y89534D01*
X207137Y89432D01*
X207046Y89332D01*
X206953Y89235D01*
X206856Y89141D01*
X206757Y89049D01*
X206655Y88961D01*
X206551Y88875D01*
X206444Y88793D01*
X206335Y88714D01*
X206223Y88638D01*
X206110Y88566D01*
X205994Y88497D01*
X205876Y88431D01*
X205757Y88369D01*
X205635Y88310D01*
X205512Y88255D01*
X205387Y88204D01*
X205261Y88156D01*
X205134Y88112D01*
X205005Y88072D01*
X204875Y88035D01*
X204744Y88003D01*
X204612Y87974D01*
X204480Y87950D01*
X204347Y87929D01*
X204213Y87912D01*
X204078Y87899D01*
X203944Y87890D01*
X203809Y87885D01*
X203674Y87884D01*
X203539Y87887D01*
X203405Y87894D01*
X203270Y87905D01*
X203136Y87920D01*
X203003Y87939D01*
X202870Y87961D01*
X202738Y87988D01*
X202606Y88019D01*
X202476Y88053D01*
X202347Y88091D01*
X202218Y88133D01*
X202092Y88179D01*
X201966Y88229D01*
X201842Y88282D01*
X201720Y88339D01*
X201599Y88399D01*
X201481Y88463D01*
X201364Y88531D01*
X201249Y88602D01*
X201136Y88676D01*
X201026Y88753D01*
X200918Y88834D01*
X200812Y88918D01*
X200709Y89005D01*
X200609Y89095D01*
X200511Y89188D01*
X200416Y89283D01*
X200324Y89382D01*
X200235Y89483D01*
X200149Y89587D01*
X200065Y89693D01*
X199986Y89801D01*
X199909Y89912D01*
X199835Y90026D01*
X199765Y90141D01*
X199699Y90258D01*
X199636Y90377D01*
X199576Y90498D01*
X199520Y90621D01*
X199468Y90745D01*
X199419Y90871D01*
X199375Y90998D01*
X199333Y91127D01*
X199296Y91256D01*
X199263Y91387D01*
X199233Y91519D01*
X199207Y91651D01*
X199186Y91784D01*
X199168Y91918D01*
X199154Y92052D01*
X199144Y92186D01*
X199138Y92321D01*
X199136Y92456D01*
X520700Y590550D02*
X514350Y596900D01*
X501650Y596900D02*
X495300Y590550D01*
X488950Y596900D01*
X476250Y596900D02*
X469900Y590550D01*
X463550Y596900D01*
X450850Y596900D02*
X444500Y590550D01*
X438150Y596900D01*
X425450Y596900D02*
X419100Y590550D01*
X412750Y596900D01*
X400050Y596900D02*
X393700Y590550D01*
X387350Y596900D01*
X374650Y596900D02*
X368300Y590550D01*
X520700Y590550D02*
X520700Y552450D01*
X514350Y546100D01*
X501650Y546100D01*
X495300Y552450D01*
X488950Y546100D01*
X476250Y546100D01*
X469900Y552450D01*
X463550Y546100D01*
X450850Y546100D01*
X444500Y552450D01*
X438150Y546100D01*
X425450Y546100D01*
X419100Y552450D01*
X412750Y546100D01*
X400050Y546100D01*
X393700Y552450D01*
X387350Y546100D01*
X374650Y546100D01*
X368300Y552450D01*
X361950Y546100D01*
X349250Y546100D01*
X342900Y552450D01*
X342900Y590550D02*
X349250Y596900D01*
X361950Y596900D02*
X368300Y590550D01*
X495300Y590550D02*
X495300Y552450D01*
X469900Y552450D02*
X469900Y590550D01*
X444500Y590550D02*
X444500Y552450D01*
X419100Y552450D02*
X419100Y590550D01*
X393700Y590550D02*
X393700Y552450D01*
X368300Y552450D02*
X368300Y590550D01*
X342900Y590550D02*
X342900Y552450D01*
X349250Y596900D02*
X361950Y596900D01*
X374650Y596900D02*
X387350Y596900D01*
X400050Y596900D02*
X412750Y596900D01*
X425450Y596900D02*
X438150Y596900D01*
X450850Y596900D02*
X463550Y596900D01*
X476250Y596900D02*
X488950Y596900D01*
X501650Y596900D02*
X514350Y596900D01*
X342900Y552450D02*
X336550Y546100D01*
X323850Y546100D01*
X317500Y552450D01*
X317500Y590550D02*
X323850Y596900D01*
X336550Y596900D02*
X342900Y590550D01*
X317500Y590550D02*
X317500Y552450D01*
X323850Y596900D02*
X336550Y596900D01*
D17*
X220980Y500630D02*
X185420Y500630D01*
X185420Y566170D01*
X220980Y566170D01*
X220980Y500630D01*
D16*
X236220Y133350D02*
X246380Y133350D01*
X246449Y133348D01*
X246517Y133343D01*
X246585Y133333D01*
X246653Y133320D01*
X246720Y133304D01*
X246786Y133284D01*
X246850Y133260D01*
X246913Y133233D01*
X246975Y133202D01*
X247035Y133168D01*
X247093Y133131D01*
X247149Y133091D01*
X247202Y133048D01*
X247253Y133002D01*
X247302Y132953D01*
X247348Y132902D01*
X247391Y132849D01*
X247431Y132793D01*
X247468Y132735D01*
X247502Y132675D01*
X247533Y132613D01*
X247560Y132550D01*
X247584Y132486D01*
X247604Y132420D01*
X247620Y132353D01*
X247633Y132285D01*
X247643Y132217D01*
X247648Y132149D01*
X247650Y132080D01*
X247650Y121920D01*
X247648Y121851D01*
X247643Y121783D01*
X247633Y121715D01*
X247620Y121647D01*
X247604Y121580D01*
X247584Y121514D01*
X247560Y121450D01*
X247533Y121387D01*
X247502Y121325D01*
X247468Y121265D01*
X247431Y121207D01*
X247391Y121151D01*
X247348Y121098D01*
X247302Y121047D01*
X247253Y120998D01*
X247202Y120952D01*
X247149Y120909D01*
X247093Y120869D01*
X247035Y120832D01*
X246975Y120798D01*
X246913Y120767D01*
X246850Y120740D01*
X246786Y120716D01*
X246720Y120696D01*
X246653Y120680D01*
X246585Y120667D01*
X246517Y120657D01*
X246449Y120652D01*
X246380Y120650D01*
X236220Y120650D01*
X236151Y120652D01*
X236083Y120657D01*
X236015Y120667D01*
X235947Y120680D01*
X235880Y120696D01*
X235814Y120716D01*
X235750Y120740D01*
X235687Y120767D01*
X235625Y120798D01*
X235565Y120832D01*
X235507Y120869D01*
X235451Y120909D01*
X235398Y120952D01*
X235347Y120998D01*
X235298Y121047D01*
X235252Y121098D01*
X235209Y121151D01*
X235169Y121207D01*
X235132Y121265D01*
X235098Y121325D01*
X235067Y121387D01*
X235040Y121450D01*
X235016Y121514D01*
X234996Y121580D01*
X234980Y121647D01*
X234967Y121715D01*
X234957Y121783D01*
X234952Y121851D01*
X234950Y121920D01*
X234950Y132080D01*
X234952Y132149D01*
X234957Y132217D01*
X234967Y132285D01*
X234980Y132353D01*
X234996Y132420D01*
X235016Y132486D01*
X235040Y132550D01*
X235067Y132613D01*
X235098Y132675D01*
X235132Y132735D01*
X235169Y132793D01*
X235209Y132849D01*
X235252Y132902D01*
X235298Y132953D01*
X235347Y133002D01*
X235398Y133048D01*
X235451Y133091D01*
X235507Y133131D01*
X235565Y133168D01*
X235625Y133202D01*
X235687Y133233D01*
X235750Y133260D01*
X235814Y133284D01*
X235880Y133304D01*
X235947Y133320D01*
X236015Y133333D01*
X236083Y133343D01*
X236151Y133348D01*
X236220Y133350D01*
D20*
X232780Y137287D02*
X232780Y141097D01*
X234897Y137287D01*
X234897Y141097D01*
X236560Y140039D02*
X236560Y138345D01*
X236560Y140039D02*
X236562Y140103D01*
X236568Y140167D01*
X236577Y140230D01*
X236591Y140292D01*
X236608Y140354D01*
X236629Y140414D01*
X236653Y140473D01*
X236681Y140531D01*
X236713Y140586D01*
X236747Y140640D01*
X236785Y140691D01*
X236826Y140741D01*
X236870Y140787D01*
X236916Y140831D01*
X236966Y140872D01*
X237017Y140910D01*
X237071Y140944D01*
X237126Y140976D01*
X237184Y141004D01*
X237243Y141028D01*
X237303Y141049D01*
X237365Y141066D01*
X237427Y141080D01*
X237490Y141089D01*
X237554Y141095D01*
X237618Y141097D01*
X237682Y141095D01*
X237746Y141089D01*
X237809Y141080D01*
X237871Y141066D01*
X237933Y141049D01*
X237993Y141028D01*
X238052Y141004D01*
X238110Y140976D01*
X238165Y140944D01*
X238219Y140910D01*
X238270Y140872D01*
X238320Y140831D01*
X238366Y140787D01*
X238410Y140741D01*
X238451Y140691D01*
X238489Y140640D01*
X238523Y140586D01*
X238555Y140531D01*
X238583Y140473D01*
X238607Y140414D01*
X238628Y140354D01*
X238645Y140292D01*
X238659Y140230D01*
X238668Y140167D01*
X238674Y140103D01*
X238676Y140039D01*
X238677Y140039D02*
X238677Y138345D01*
X238676Y138345D02*
X238674Y138281D01*
X238668Y138217D01*
X238659Y138154D01*
X238645Y138092D01*
X238628Y138030D01*
X238607Y137970D01*
X238583Y137911D01*
X238555Y137853D01*
X238523Y137798D01*
X238489Y137744D01*
X238451Y137693D01*
X238410Y137643D01*
X238366Y137597D01*
X238320Y137553D01*
X238270Y137512D01*
X238219Y137474D01*
X238165Y137440D01*
X238110Y137408D01*
X238052Y137380D01*
X237993Y137356D01*
X237933Y137335D01*
X237871Y137318D01*
X237809Y137304D01*
X237746Y137295D01*
X237682Y137289D01*
X237618Y137287D01*
X237554Y137289D01*
X237490Y137295D01*
X237427Y137304D01*
X237365Y137318D01*
X237303Y137335D01*
X237243Y137356D01*
X237184Y137380D01*
X237126Y137408D01*
X237071Y137440D01*
X237017Y137474D01*
X236966Y137512D01*
X236916Y137553D01*
X236870Y137597D01*
X236826Y137643D01*
X236785Y137693D01*
X236747Y137744D01*
X236713Y137798D01*
X236681Y137853D01*
X236653Y137911D01*
X236629Y137970D01*
X236608Y138030D01*
X236591Y138092D01*
X236577Y138154D01*
X236568Y138217D01*
X236562Y138281D01*
X236560Y138345D01*
X240339Y138345D02*
X240339Y141097D01*
X240340Y138345D02*
X240342Y138281D01*
X240348Y138217D01*
X240357Y138154D01*
X240371Y138092D01*
X240388Y138030D01*
X240409Y137970D01*
X240433Y137911D01*
X240461Y137853D01*
X240493Y137798D01*
X240527Y137744D01*
X240565Y137693D01*
X240606Y137643D01*
X240650Y137597D01*
X240696Y137553D01*
X240746Y137512D01*
X240797Y137474D01*
X240851Y137440D01*
X240906Y137408D01*
X240964Y137380D01*
X241023Y137356D01*
X241083Y137335D01*
X241145Y137318D01*
X241207Y137304D01*
X241270Y137295D01*
X241334Y137289D01*
X241398Y137287D01*
X241462Y137289D01*
X241526Y137295D01*
X241589Y137304D01*
X241651Y137318D01*
X241713Y137335D01*
X241773Y137356D01*
X241832Y137380D01*
X241890Y137408D01*
X241945Y137440D01*
X241999Y137474D01*
X242050Y137512D01*
X242100Y137553D01*
X242146Y137597D01*
X242190Y137643D01*
X242231Y137693D01*
X242269Y137744D01*
X242303Y137798D01*
X242335Y137853D01*
X242363Y137911D01*
X242387Y137970D01*
X242408Y138030D01*
X242425Y138092D01*
X242439Y138154D01*
X242448Y138217D01*
X242454Y138281D01*
X242456Y138345D01*
X242456Y141097D01*
X246114Y138134D02*
X246112Y138076D01*
X246106Y138019D01*
X246096Y137962D01*
X246083Y137905D01*
X246065Y137850D01*
X246044Y137797D01*
X246019Y137744D01*
X245991Y137694D01*
X245959Y137646D01*
X245924Y137599D01*
X245886Y137556D01*
X245845Y137515D01*
X245802Y137477D01*
X245755Y137442D01*
X245707Y137410D01*
X245657Y137382D01*
X245604Y137357D01*
X245551Y137336D01*
X245496Y137318D01*
X245439Y137305D01*
X245382Y137295D01*
X245325Y137289D01*
X245267Y137287D01*
X245184Y137289D01*
X245101Y137295D01*
X245019Y137304D01*
X244937Y137318D01*
X244856Y137335D01*
X244775Y137356D01*
X244696Y137381D01*
X244618Y137409D01*
X244541Y137441D01*
X244466Y137476D01*
X244393Y137515D01*
X244321Y137558D01*
X244252Y137603D01*
X244185Y137652D01*
X244120Y137704D01*
X244057Y137758D01*
X243997Y137816D01*
X244103Y140250D02*
X244105Y140305D01*
X244110Y140361D01*
X244119Y140415D01*
X244132Y140469D01*
X244148Y140522D01*
X244167Y140574D01*
X244190Y140625D01*
X244216Y140674D01*
X244246Y140721D01*
X244278Y140766D01*
X244313Y140808D01*
X244351Y140849D01*
X244392Y140887D01*
X244434Y140922D01*
X244479Y140954D01*
X244527Y140984D01*
X244575Y141010D01*
X244626Y141033D01*
X244678Y141052D01*
X244731Y141068D01*
X244785Y141081D01*
X244839Y141090D01*
X244895Y141095D01*
X244950Y141097D01*
X244950Y141098D02*
X245029Y141096D01*
X245107Y141090D01*
X245185Y141081D01*
X245262Y141067D01*
X245339Y141050D01*
X245415Y141028D01*
X245489Y141004D01*
X245563Y140975D01*
X245634Y140943D01*
X245704Y140907D01*
X245773Y140868D01*
X245839Y140826D01*
X245903Y140780D01*
X244526Y139509D02*
X244479Y139539D01*
X244434Y139572D01*
X244391Y139608D01*
X244351Y139646D01*
X244313Y139687D01*
X244278Y139730D01*
X244246Y139776D01*
X244216Y139823D01*
X244190Y139873D01*
X244167Y139924D01*
X244148Y139976D01*
X244132Y140029D01*
X244119Y140084D01*
X244110Y140139D01*
X244105Y140194D01*
X244103Y140250D01*
X245691Y138875D02*
X245738Y138845D01*
X245783Y138812D01*
X245826Y138776D01*
X245866Y138738D01*
X245904Y138697D01*
X245939Y138654D01*
X245971Y138608D01*
X246001Y138561D01*
X246027Y138511D01*
X246050Y138460D01*
X246069Y138408D01*
X246085Y138355D01*
X246098Y138300D01*
X246107Y138245D01*
X246112Y138190D01*
X246114Y138134D01*
X245690Y138875D02*
X244526Y139510D01*
X247703Y139404D02*
X248761Y139404D01*
X248761Y139403D02*
X248825Y139401D01*
X248889Y139395D01*
X248952Y139386D01*
X249014Y139372D01*
X249076Y139355D01*
X249136Y139334D01*
X249195Y139310D01*
X249253Y139282D01*
X249308Y139250D01*
X249362Y139216D01*
X249413Y139178D01*
X249463Y139137D01*
X249509Y139093D01*
X249553Y139047D01*
X249594Y138997D01*
X249632Y138946D01*
X249666Y138892D01*
X249698Y138837D01*
X249726Y138779D01*
X249750Y138720D01*
X249771Y138660D01*
X249788Y138598D01*
X249802Y138536D01*
X249811Y138473D01*
X249817Y138409D01*
X249819Y138345D01*
X249817Y138281D01*
X249811Y138217D01*
X249802Y138154D01*
X249788Y138092D01*
X249771Y138030D01*
X249750Y137970D01*
X249726Y137911D01*
X249698Y137853D01*
X249666Y137798D01*
X249632Y137744D01*
X249594Y137693D01*
X249553Y137643D01*
X249509Y137597D01*
X249463Y137553D01*
X249413Y137512D01*
X249362Y137474D01*
X249308Y137440D01*
X249253Y137408D01*
X249195Y137380D01*
X249136Y137356D01*
X249076Y137335D01*
X249014Y137318D01*
X248952Y137304D01*
X248889Y137295D01*
X248825Y137289D01*
X248761Y137287D01*
X247703Y137287D01*
X247703Y141097D01*
X248761Y141097D01*
X248818Y141095D01*
X248874Y141089D01*
X248930Y141080D01*
X248985Y141067D01*
X249039Y141050D01*
X249092Y141030D01*
X249143Y141006D01*
X249193Y140979D01*
X249240Y140948D01*
X249286Y140915D01*
X249329Y140878D01*
X249370Y140839D01*
X249408Y140797D01*
X249443Y140752D01*
X249475Y140706D01*
X249504Y140657D01*
X249529Y140607D01*
X249551Y140554D01*
X249570Y140501D01*
X249585Y140446D01*
X249596Y140391D01*
X249604Y140335D01*
X249608Y140278D01*
X249608Y140222D01*
X249604Y140165D01*
X249596Y140109D01*
X249585Y140054D01*
X249570Y139999D01*
X249551Y139946D01*
X249529Y139893D01*
X249504Y139843D01*
X249475Y139794D01*
X249443Y139748D01*
X249408Y139703D01*
X249370Y139661D01*
X249329Y139622D01*
X249286Y139585D01*
X249240Y139552D01*
X249193Y139521D01*
X249143Y139494D01*
X249092Y139470D01*
X249039Y139450D01*
X248985Y139433D01*
X248930Y139420D01*
X248874Y139411D01*
X248818Y139405D01*
X248761Y139403D01*
M02*
