G04 EAGLE Gerber RS-274X export*
G75*
%MOMM*%
%FSLAX34Y34*%
%LPD*%
%INSilkscreen Bottom*%
%IPPOS*%
%AMOC8*
5,1,8,0,0,1.08239X$1,22.5*%
G01*
%ADD10C,0.203200*%
%ADD11C,0.076200*%


D10*
X576776Y187002D02*
X600144Y187002D01*
X600144Y193493D01*
X600142Y193652D01*
X600136Y193811D01*
X600126Y193971D01*
X600113Y194129D01*
X600095Y194288D01*
X600074Y194445D01*
X600048Y194603D01*
X600019Y194759D01*
X599986Y194915D01*
X599949Y195070D01*
X599909Y195224D01*
X599864Y195377D01*
X599816Y195529D01*
X599765Y195680D01*
X599709Y195829D01*
X599650Y195977D01*
X599587Y196123D01*
X599521Y196268D01*
X599451Y196411D01*
X599378Y196553D01*
X599301Y196692D01*
X599221Y196830D01*
X599137Y196966D01*
X599050Y197099D01*
X598960Y197231D01*
X598867Y197360D01*
X598770Y197486D01*
X598671Y197611D01*
X598568Y197733D01*
X598463Y197852D01*
X598354Y197969D01*
X598243Y198083D01*
X598129Y198194D01*
X598012Y198303D01*
X597893Y198408D01*
X597771Y198511D01*
X597646Y198610D01*
X597520Y198707D01*
X597391Y198800D01*
X597259Y198890D01*
X597126Y198977D01*
X596990Y199061D01*
X596852Y199141D01*
X596713Y199218D01*
X596571Y199291D01*
X596428Y199361D01*
X596283Y199427D01*
X596137Y199490D01*
X595989Y199549D01*
X595840Y199605D01*
X595689Y199656D01*
X595537Y199704D01*
X595384Y199749D01*
X595230Y199789D01*
X595075Y199826D01*
X594919Y199859D01*
X594763Y199888D01*
X594605Y199914D01*
X594448Y199935D01*
X594289Y199953D01*
X594131Y199966D01*
X593971Y199976D01*
X593812Y199982D01*
X593653Y199984D01*
X593494Y199982D01*
X593335Y199976D01*
X593175Y199966D01*
X593017Y199953D01*
X592858Y199935D01*
X592701Y199914D01*
X592543Y199888D01*
X592387Y199859D01*
X592231Y199826D01*
X592076Y199789D01*
X591922Y199749D01*
X591769Y199704D01*
X591617Y199656D01*
X591466Y199605D01*
X591317Y199549D01*
X591169Y199490D01*
X591023Y199427D01*
X590878Y199361D01*
X590735Y199291D01*
X590593Y199218D01*
X590454Y199141D01*
X590316Y199061D01*
X590180Y198977D01*
X590047Y198890D01*
X589915Y198800D01*
X589786Y198707D01*
X589660Y198610D01*
X589535Y198511D01*
X589413Y198408D01*
X589294Y198303D01*
X589177Y198194D01*
X589063Y198083D01*
X588952Y197969D01*
X588843Y197852D01*
X588738Y197733D01*
X588635Y197611D01*
X588536Y197486D01*
X588439Y197360D01*
X588346Y197231D01*
X588256Y197099D01*
X588169Y196966D01*
X588085Y196830D01*
X588005Y196692D01*
X587928Y196553D01*
X587855Y196411D01*
X587785Y196268D01*
X587719Y196123D01*
X587656Y195977D01*
X587597Y195829D01*
X587541Y195680D01*
X587490Y195529D01*
X587442Y195377D01*
X587397Y195224D01*
X587357Y195070D01*
X587320Y194915D01*
X587287Y194759D01*
X587258Y194603D01*
X587232Y194445D01*
X587211Y194288D01*
X587193Y194129D01*
X587180Y193971D01*
X587170Y193811D01*
X587164Y193652D01*
X587162Y193493D01*
X587162Y187002D01*
X576776Y209353D02*
X600144Y209353D01*
X576776Y206756D02*
X576776Y211949D01*
X600144Y211949D02*
X600144Y206756D01*
X593653Y219565D02*
X583267Y219565D01*
X593653Y219565D02*
X593812Y219567D01*
X593971Y219573D01*
X594131Y219583D01*
X594289Y219596D01*
X594448Y219614D01*
X594605Y219635D01*
X594763Y219661D01*
X594919Y219690D01*
X595075Y219723D01*
X595230Y219760D01*
X595384Y219800D01*
X595537Y219845D01*
X595689Y219893D01*
X595840Y219944D01*
X595989Y220000D01*
X596137Y220059D01*
X596283Y220122D01*
X596428Y220188D01*
X596571Y220258D01*
X596713Y220331D01*
X596852Y220408D01*
X596990Y220488D01*
X597126Y220572D01*
X597259Y220659D01*
X597391Y220749D01*
X597520Y220842D01*
X597646Y220939D01*
X597771Y221038D01*
X597893Y221141D01*
X598012Y221246D01*
X598129Y221355D01*
X598243Y221466D01*
X598354Y221580D01*
X598463Y221697D01*
X598568Y221816D01*
X598671Y221938D01*
X598770Y222063D01*
X598867Y222189D01*
X598960Y222318D01*
X599050Y222450D01*
X599137Y222583D01*
X599221Y222719D01*
X599301Y222857D01*
X599378Y222996D01*
X599451Y223138D01*
X599521Y223281D01*
X599587Y223426D01*
X599650Y223572D01*
X599709Y223720D01*
X599765Y223869D01*
X599816Y224020D01*
X599864Y224172D01*
X599909Y224325D01*
X599949Y224479D01*
X599986Y224634D01*
X600019Y224790D01*
X600048Y224946D01*
X600074Y225104D01*
X600095Y225261D01*
X600113Y225420D01*
X600126Y225578D01*
X600136Y225738D01*
X600142Y225897D01*
X600144Y226056D01*
X600142Y226215D01*
X600136Y226374D01*
X600126Y226534D01*
X600113Y226692D01*
X600095Y226851D01*
X600074Y227008D01*
X600048Y227166D01*
X600019Y227322D01*
X599986Y227478D01*
X599949Y227633D01*
X599909Y227787D01*
X599864Y227940D01*
X599816Y228092D01*
X599765Y228243D01*
X599709Y228392D01*
X599650Y228540D01*
X599587Y228686D01*
X599521Y228831D01*
X599451Y228974D01*
X599378Y229116D01*
X599301Y229255D01*
X599221Y229393D01*
X599137Y229529D01*
X599050Y229662D01*
X598960Y229794D01*
X598867Y229923D01*
X598770Y230049D01*
X598671Y230174D01*
X598568Y230296D01*
X598463Y230415D01*
X598354Y230532D01*
X598243Y230646D01*
X598129Y230757D01*
X598012Y230866D01*
X597893Y230971D01*
X597771Y231074D01*
X597646Y231173D01*
X597520Y231270D01*
X597391Y231363D01*
X597259Y231453D01*
X597126Y231540D01*
X596990Y231624D01*
X596852Y231704D01*
X596713Y231781D01*
X596571Y231854D01*
X596428Y231924D01*
X596283Y231990D01*
X596137Y232053D01*
X595989Y232112D01*
X595840Y232168D01*
X595689Y232219D01*
X595537Y232267D01*
X595384Y232312D01*
X595230Y232352D01*
X595075Y232389D01*
X594919Y232422D01*
X594763Y232451D01*
X594605Y232477D01*
X594448Y232498D01*
X594289Y232516D01*
X594131Y232529D01*
X593971Y232539D01*
X593812Y232545D01*
X593653Y232547D01*
X583267Y232547D01*
X583108Y232545D01*
X582949Y232539D01*
X582789Y232529D01*
X582631Y232516D01*
X582472Y232498D01*
X582315Y232477D01*
X582157Y232451D01*
X582001Y232422D01*
X581845Y232389D01*
X581690Y232352D01*
X581536Y232312D01*
X581383Y232267D01*
X581231Y232219D01*
X581080Y232168D01*
X580931Y232112D01*
X580783Y232053D01*
X580637Y231990D01*
X580492Y231924D01*
X580349Y231854D01*
X580207Y231781D01*
X580068Y231704D01*
X579930Y231624D01*
X579794Y231540D01*
X579661Y231453D01*
X579529Y231363D01*
X579400Y231270D01*
X579274Y231173D01*
X579149Y231074D01*
X579027Y230971D01*
X578908Y230866D01*
X578791Y230757D01*
X578677Y230646D01*
X578566Y230532D01*
X578457Y230415D01*
X578352Y230296D01*
X578249Y230174D01*
X578150Y230049D01*
X578053Y229923D01*
X577960Y229794D01*
X577870Y229662D01*
X577783Y229529D01*
X577699Y229393D01*
X577619Y229255D01*
X577542Y229116D01*
X577469Y228974D01*
X577399Y228831D01*
X577333Y228686D01*
X577270Y228540D01*
X577211Y228392D01*
X577155Y228243D01*
X577104Y228092D01*
X577056Y227940D01*
X577011Y227787D01*
X576971Y227633D01*
X576934Y227478D01*
X576901Y227322D01*
X576872Y227166D01*
X576846Y227008D01*
X576825Y226851D01*
X576807Y226692D01*
X576794Y226534D01*
X576784Y226374D01*
X576778Y226215D01*
X576776Y226056D01*
X576778Y225897D01*
X576784Y225738D01*
X576794Y225578D01*
X576807Y225420D01*
X576825Y225261D01*
X576846Y225104D01*
X576872Y224946D01*
X576901Y224790D01*
X576934Y224634D01*
X576971Y224479D01*
X577011Y224325D01*
X577056Y224172D01*
X577104Y224020D01*
X577155Y223869D01*
X577211Y223720D01*
X577270Y223572D01*
X577333Y223426D01*
X577399Y223281D01*
X577469Y223138D01*
X577542Y222996D01*
X577619Y222857D01*
X577699Y222719D01*
X577783Y222583D01*
X577870Y222450D01*
X577960Y222318D01*
X578053Y222189D01*
X578150Y222063D01*
X578249Y221938D01*
X578352Y221816D01*
X578457Y221697D01*
X578566Y221580D01*
X578677Y221466D01*
X578791Y221355D01*
X578908Y221246D01*
X579027Y221141D01*
X579149Y221038D01*
X579274Y220939D01*
X579400Y220842D01*
X579529Y220749D01*
X579661Y220659D01*
X579794Y220572D01*
X579930Y220488D01*
X580068Y220408D01*
X580207Y220331D01*
X580349Y220258D01*
X580492Y220188D01*
X580637Y220122D01*
X580783Y220059D01*
X580931Y220000D01*
X581080Y219944D01*
X581231Y219893D01*
X581383Y219845D01*
X581536Y219800D01*
X581690Y219760D01*
X581845Y219723D01*
X582001Y219690D01*
X582157Y219661D01*
X582315Y219635D01*
X582472Y219614D01*
X582631Y219596D01*
X582789Y219583D01*
X582949Y219573D01*
X583108Y219567D01*
X583267Y219565D01*
X585864Y240537D02*
X585864Y256116D01*
X576776Y264802D02*
X600144Y264802D01*
X600144Y271293D01*
X600142Y271452D01*
X600136Y271611D01*
X600126Y271771D01*
X600113Y271929D01*
X600095Y272088D01*
X600074Y272245D01*
X600048Y272403D01*
X600019Y272559D01*
X599986Y272715D01*
X599949Y272870D01*
X599909Y273024D01*
X599864Y273177D01*
X599816Y273329D01*
X599765Y273480D01*
X599709Y273629D01*
X599650Y273777D01*
X599587Y273923D01*
X599521Y274068D01*
X599451Y274211D01*
X599378Y274353D01*
X599301Y274492D01*
X599221Y274630D01*
X599137Y274766D01*
X599050Y274899D01*
X598960Y275031D01*
X598867Y275160D01*
X598770Y275286D01*
X598671Y275411D01*
X598568Y275533D01*
X598463Y275652D01*
X598354Y275769D01*
X598243Y275883D01*
X598129Y275994D01*
X598012Y276103D01*
X597893Y276208D01*
X597771Y276311D01*
X597646Y276410D01*
X597520Y276507D01*
X597391Y276600D01*
X597259Y276690D01*
X597126Y276777D01*
X596990Y276861D01*
X596852Y276941D01*
X596713Y277018D01*
X596571Y277091D01*
X596428Y277161D01*
X596283Y277227D01*
X596137Y277290D01*
X595989Y277349D01*
X595840Y277405D01*
X595689Y277456D01*
X595537Y277504D01*
X595384Y277549D01*
X595230Y277589D01*
X595075Y277626D01*
X594919Y277659D01*
X594763Y277688D01*
X594605Y277714D01*
X594448Y277735D01*
X594289Y277753D01*
X594131Y277766D01*
X593971Y277776D01*
X593812Y277782D01*
X593653Y277784D01*
X583267Y277784D01*
X583108Y277782D01*
X582949Y277776D01*
X582789Y277766D01*
X582631Y277753D01*
X582472Y277735D01*
X582315Y277714D01*
X582157Y277688D01*
X582001Y277659D01*
X581845Y277626D01*
X581690Y277589D01*
X581536Y277549D01*
X581383Y277504D01*
X581231Y277456D01*
X581080Y277405D01*
X580931Y277349D01*
X580783Y277290D01*
X580637Y277227D01*
X580492Y277161D01*
X580349Y277091D01*
X580207Y277018D01*
X580068Y276941D01*
X579930Y276861D01*
X579794Y276777D01*
X579661Y276690D01*
X579529Y276600D01*
X579400Y276507D01*
X579274Y276410D01*
X579149Y276311D01*
X579027Y276208D01*
X578908Y276103D01*
X578791Y275994D01*
X578677Y275883D01*
X578566Y275769D01*
X578457Y275652D01*
X578352Y275533D01*
X578249Y275411D01*
X578150Y275286D01*
X578053Y275160D01*
X577960Y275031D01*
X577870Y274899D01*
X577783Y274766D01*
X577699Y274630D01*
X577619Y274492D01*
X577542Y274353D01*
X577469Y274211D01*
X577399Y274068D01*
X577333Y273923D01*
X577270Y273777D01*
X577211Y273629D01*
X577155Y273480D01*
X577104Y273329D01*
X577056Y273177D01*
X577011Y273024D01*
X576971Y272870D01*
X576934Y272715D01*
X576901Y272559D01*
X576872Y272403D01*
X576846Y272245D01*
X576825Y272088D01*
X576807Y271929D01*
X576794Y271771D01*
X576784Y271611D01*
X576778Y271452D01*
X576776Y271293D01*
X576776Y264802D01*
X576776Y290178D02*
X576776Y296669D01*
X576776Y290178D02*
X576778Y290056D01*
X576784Y289933D01*
X576793Y289811D01*
X576807Y289690D01*
X576824Y289569D01*
X576845Y289448D01*
X576870Y289328D01*
X576898Y289209D01*
X576931Y289091D01*
X576967Y288974D01*
X577006Y288859D01*
X577050Y288744D01*
X577096Y288631D01*
X577147Y288520D01*
X577201Y288410D01*
X577258Y288302D01*
X577318Y288195D01*
X577382Y288091D01*
X577450Y287989D01*
X577520Y287889D01*
X577593Y287791D01*
X577670Y287695D01*
X577749Y287602D01*
X577832Y287512D01*
X577917Y287424D01*
X578005Y287339D01*
X578095Y287256D01*
X578188Y287177D01*
X578284Y287100D01*
X578382Y287027D01*
X578482Y286957D01*
X578584Y286889D01*
X578688Y286825D01*
X578795Y286765D01*
X578903Y286708D01*
X579013Y286654D01*
X579124Y286603D01*
X579237Y286557D01*
X579352Y286513D01*
X579467Y286474D01*
X579584Y286438D01*
X579702Y286405D01*
X579821Y286377D01*
X579941Y286352D01*
X580062Y286331D01*
X580183Y286314D01*
X580304Y286300D01*
X580426Y286291D01*
X580549Y286285D01*
X580671Y286283D01*
X587162Y286283D01*
X587305Y286285D01*
X587448Y286291D01*
X587591Y286301D01*
X587733Y286315D01*
X587875Y286332D01*
X588017Y286354D01*
X588158Y286379D01*
X588298Y286409D01*
X588437Y286442D01*
X588575Y286479D01*
X588712Y286520D01*
X588848Y286564D01*
X588983Y286613D01*
X589116Y286665D01*
X589248Y286720D01*
X589378Y286780D01*
X589507Y286843D01*
X589634Y286909D01*
X589759Y286979D01*
X589881Y287052D01*
X590002Y287129D01*
X590121Y287209D01*
X590237Y287292D01*
X590352Y287378D01*
X590463Y287467D01*
X590573Y287560D01*
X590679Y287655D01*
X590783Y287754D01*
X590884Y287855D01*
X590983Y287959D01*
X591078Y288065D01*
X591171Y288175D01*
X591260Y288286D01*
X591346Y288401D01*
X591429Y288517D01*
X591509Y288636D01*
X591586Y288757D01*
X591659Y288879D01*
X591729Y289004D01*
X591795Y289131D01*
X591858Y289260D01*
X591918Y289390D01*
X591973Y289522D01*
X592025Y289655D01*
X592074Y289790D01*
X592118Y289926D01*
X592159Y290063D01*
X592196Y290201D01*
X592229Y290340D01*
X592259Y290480D01*
X592284Y290621D01*
X592306Y290763D01*
X592323Y290905D01*
X592337Y291047D01*
X592347Y291190D01*
X592353Y291333D01*
X592355Y291476D01*
X592353Y291619D01*
X592347Y291762D01*
X592337Y291905D01*
X592323Y292047D01*
X592306Y292189D01*
X592284Y292331D01*
X592259Y292472D01*
X592229Y292612D01*
X592196Y292751D01*
X592159Y292889D01*
X592118Y293026D01*
X592074Y293162D01*
X592025Y293297D01*
X591973Y293430D01*
X591918Y293562D01*
X591858Y293692D01*
X591795Y293821D01*
X591729Y293948D01*
X591659Y294072D01*
X591586Y294195D01*
X591509Y294316D01*
X591429Y294435D01*
X591346Y294551D01*
X591260Y294666D01*
X591171Y294777D01*
X591078Y294887D01*
X590983Y294993D01*
X590884Y295097D01*
X590783Y295198D01*
X590679Y295297D01*
X590573Y295392D01*
X590463Y295485D01*
X590352Y295574D01*
X590237Y295660D01*
X590121Y295743D01*
X590002Y295823D01*
X589881Y295900D01*
X589759Y295973D01*
X589634Y296043D01*
X589507Y296109D01*
X589378Y296172D01*
X589248Y296232D01*
X589116Y296287D01*
X588983Y296339D01*
X588848Y296388D01*
X588712Y296432D01*
X588575Y296473D01*
X588437Y296510D01*
X588298Y296543D01*
X588158Y296573D01*
X588017Y296598D01*
X587875Y296620D01*
X587733Y296637D01*
X587591Y296651D01*
X587448Y296661D01*
X587305Y296667D01*
X587162Y296669D01*
X584565Y296669D01*
X584565Y286283D01*
X592355Y303682D02*
X576776Y308875D01*
X592355Y314068D01*
X585864Y321268D02*
X585864Y336847D01*
X589758Y345681D02*
X589758Y352172D01*
X589756Y352331D01*
X589750Y352490D01*
X589740Y352650D01*
X589727Y352808D01*
X589709Y352967D01*
X589688Y353124D01*
X589662Y353282D01*
X589633Y353438D01*
X589600Y353594D01*
X589563Y353749D01*
X589523Y353903D01*
X589478Y354056D01*
X589430Y354208D01*
X589379Y354359D01*
X589323Y354508D01*
X589264Y354656D01*
X589201Y354802D01*
X589135Y354947D01*
X589065Y355090D01*
X588992Y355232D01*
X588915Y355371D01*
X588835Y355509D01*
X588751Y355645D01*
X588664Y355778D01*
X588574Y355910D01*
X588481Y356039D01*
X588384Y356165D01*
X588285Y356290D01*
X588182Y356412D01*
X588077Y356531D01*
X587968Y356648D01*
X587857Y356762D01*
X587743Y356873D01*
X587626Y356982D01*
X587507Y357087D01*
X587385Y357190D01*
X587260Y357289D01*
X587134Y357386D01*
X587005Y357479D01*
X586873Y357569D01*
X586740Y357656D01*
X586604Y357740D01*
X586466Y357820D01*
X586327Y357897D01*
X586185Y357970D01*
X586042Y358040D01*
X585897Y358106D01*
X585751Y358169D01*
X585603Y358228D01*
X585454Y358284D01*
X585303Y358335D01*
X585151Y358383D01*
X584998Y358428D01*
X584844Y358468D01*
X584689Y358505D01*
X584533Y358538D01*
X584377Y358567D01*
X584219Y358593D01*
X584062Y358614D01*
X583903Y358632D01*
X583745Y358645D01*
X583585Y358655D01*
X583426Y358661D01*
X583267Y358663D01*
X583108Y358661D01*
X582949Y358655D01*
X582789Y358645D01*
X582631Y358632D01*
X582472Y358614D01*
X582315Y358593D01*
X582157Y358567D01*
X582001Y358538D01*
X581845Y358505D01*
X581690Y358468D01*
X581536Y358428D01*
X581383Y358383D01*
X581231Y358335D01*
X581080Y358284D01*
X580931Y358228D01*
X580783Y358169D01*
X580637Y358106D01*
X580492Y358040D01*
X580349Y357970D01*
X580207Y357897D01*
X580068Y357820D01*
X579930Y357740D01*
X579794Y357656D01*
X579661Y357569D01*
X579529Y357479D01*
X579400Y357386D01*
X579274Y357289D01*
X579149Y357190D01*
X579027Y357087D01*
X578908Y356982D01*
X578791Y356873D01*
X578677Y356762D01*
X578566Y356648D01*
X578457Y356531D01*
X578352Y356412D01*
X578249Y356290D01*
X578150Y356165D01*
X578053Y356039D01*
X577960Y355910D01*
X577870Y355778D01*
X577783Y355645D01*
X577699Y355509D01*
X577619Y355371D01*
X577542Y355232D01*
X577469Y355090D01*
X577399Y354947D01*
X577333Y354802D01*
X577270Y354656D01*
X577211Y354508D01*
X577155Y354359D01*
X577104Y354208D01*
X577056Y354056D01*
X577011Y353903D01*
X576971Y353749D01*
X576934Y353594D01*
X576901Y353438D01*
X576872Y353282D01*
X576846Y353124D01*
X576825Y352967D01*
X576807Y352808D01*
X576794Y352650D01*
X576784Y352490D01*
X576778Y352331D01*
X576776Y352172D01*
X576776Y345681D01*
X600144Y345681D01*
X600144Y352172D01*
X600142Y352315D01*
X600136Y352458D01*
X600126Y352601D01*
X600112Y352743D01*
X600095Y352885D01*
X600073Y353027D01*
X600048Y353168D01*
X600018Y353308D01*
X599985Y353447D01*
X599948Y353585D01*
X599907Y353722D01*
X599863Y353858D01*
X599814Y353993D01*
X599762Y354126D01*
X599707Y354258D01*
X599647Y354388D01*
X599584Y354517D01*
X599518Y354644D01*
X599448Y354769D01*
X599375Y354891D01*
X599298Y355012D01*
X599218Y355131D01*
X599135Y355247D01*
X599049Y355362D01*
X598960Y355473D01*
X598867Y355583D01*
X598772Y355689D01*
X598673Y355793D01*
X598572Y355894D01*
X598468Y355993D01*
X598362Y356088D01*
X598252Y356181D01*
X598141Y356270D01*
X598026Y356356D01*
X597910Y356439D01*
X597791Y356519D01*
X597670Y356596D01*
X597548Y356669D01*
X597423Y356739D01*
X597296Y356805D01*
X597167Y356868D01*
X597037Y356928D01*
X596905Y356983D01*
X596772Y357035D01*
X596637Y357084D01*
X596501Y357128D01*
X596364Y357169D01*
X596226Y357206D01*
X596087Y357239D01*
X595947Y357269D01*
X595806Y357294D01*
X595664Y357316D01*
X595522Y357333D01*
X595380Y357347D01*
X595237Y357357D01*
X595094Y357363D01*
X594951Y357365D01*
X594808Y357363D01*
X594665Y357357D01*
X594522Y357347D01*
X594380Y357333D01*
X594238Y357316D01*
X594096Y357294D01*
X593955Y357269D01*
X593815Y357239D01*
X593676Y357206D01*
X593538Y357169D01*
X593401Y357128D01*
X593265Y357084D01*
X593130Y357035D01*
X592997Y356983D01*
X592865Y356928D01*
X592735Y356868D01*
X592606Y356805D01*
X592479Y356739D01*
X592355Y356669D01*
X592232Y356596D01*
X592111Y356519D01*
X591992Y356439D01*
X591876Y356356D01*
X591761Y356270D01*
X591650Y356181D01*
X591540Y356088D01*
X591434Y355993D01*
X591330Y355894D01*
X591229Y355793D01*
X591130Y355689D01*
X591035Y355583D01*
X590942Y355473D01*
X590853Y355362D01*
X590767Y355247D01*
X590684Y355131D01*
X590604Y355012D01*
X590527Y354891D01*
X590454Y354769D01*
X590384Y354644D01*
X590318Y354517D01*
X590255Y354388D01*
X590195Y354258D01*
X590140Y354126D01*
X590088Y353993D01*
X590039Y353858D01*
X589995Y353722D01*
X589954Y353585D01*
X589917Y353447D01*
X589884Y353308D01*
X589854Y353168D01*
X589829Y353027D01*
X589807Y352885D01*
X589790Y352743D01*
X589776Y352601D01*
X589766Y352458D01*
X589760Y352315D01*
X589758Y352172D01*
X587162Y365622D02*
X581969Y365622D01*
X587162Y365622D02*
X587305Y365624D01*
X587448Y365630D01*
X587591Y365640D01*
X587733Y365654D01*
X587875Y365671D01*
X588017Y365693D01*
X588158Y365718D01*
X588298Y365748D01*
X588437Y365781D01*
X588575Y365818D01*
X588712Y365859D01*
X588848Y365903D01*
X588983Y365952D01*
X589116Y366004D01*
X589248Y366059D01*
X589378Y366119D01*
X589507Y366182D01*
X589634Y366248D01*
X589759Y366318D01*
X589881Y366391D01*
X590002Y366468D01*
X590121Y366548D01*
X590237Y366631D01*
X590352Y366717D01*
X590463Y366806D01*
X590573Y366899D01*
X590679Y366994D01*
X590783Y367093D01*
X590884Y367194D01*
X590983Y367298D01*
X591078Y367404D01*
X591171Y367514D01*
X591260Y367625D01*
X591346Y367740D01*
X591429Y367856D01*
X591509Y367975D01*
X591586Y368096D01*
X591659Y368218D01*
X591729Y368343D01*
X591795Y368470D01*
X591858Y368599D01*
X591918Y368729D01*
X591973Y368861D01*
X592025Y368994D01*
X592074Y369129D01*
X592118Y369265D01*
X592159Y369402D01*
X592196Y369540D01*
X592229Y369679D01*
X592259Y369819D01*
X592284Y369960D01*
X592306Y370102D01*
X592323Y370244D01*
X592337Y370386D01*
X592347Y370529D01*
X592353Y370672D01*
X592355Y370815D01*
X592353Y370958D01*
X592347Y371101D01*
X592337Y371244D01*
X592323Y371386D01*
X592306Y371528D01*
X592284Y371670D01*
X592259Y371811D01*
X592229Y371951D01*
X592196Y372090D01*
X592159Y372228D01*
X592118Y372365D01*
X592074Y372501D01*
X592025Y372636D01*
X591973Y372769D01*
X591918Y372901D01*
X591858Y373031D01*
X591795Y373160D01*
X591729Y373287D01*
X591659Y373411D01*
X591586Y373534D01*
X591509Y373655D01*
X591429Y373774D01*
X591346Y373890D01*
X591260Y374005D01*
X591171Y374116D01*
X591078Y374226D01*
X590983Y374332D01*
X590884Y374436D01*
X590783Y374537D01*
X590679Y374636D01*
X590573Y374731D01*
X590463Y374824D01*
X590352Y374913D01*
X590237Y374999D01*
X590121Y375082D01*
X590002Y375162D01*
X589881Y375239D01*
X589759Y375312D01*
X589634Y375382D01*
X589507Y375448D01*
X589378Y375511D01*
X589248Y375571D01*
X589116Y375626D01*
X588983Y375678D01*
X588848Y375727D01*
X588712Y375771D01*
X588575Y375812D01*
X588437Y375849D01*
X588298Y375882D01*
X588158Y375912D01*
X588017Y375937D01*
X587875Y375959D01*
X587733Y375976D01*
X587591Y375990D01*
X587448Y376000D01*
X587305Y376006D01*
X587162Y376008D01*
X581969Y376008D01*
X581826Y376006D01*
X581683Y376000D01*
X581540Y375990D01*
X581398Y375976D01*
X581256Y375959D01*
X581114Y375937D01*
X580973Y375912D01*
X580833Y375882D01*
X580694Y375849D01*
X580556Y375812D01*
X580419Y375771D01*
X580283Y375727D01*
X580148Y375678D01*
X580015Y375626D01*
X579883Y375571D01*
X579753Y375511D01*
X579624Y375448D01*
X579497Y375382D01*
X579373Y375312D01*
X579250Y375239D01*
X579129Y375162D01*
X579010Y375082D01*
X578894Y374999D01*
X578779Y374913D01*
X578668Y374824D01*
X578558Y374731D01*
X578452Y374636D01*
X578348Y374537D01*
X578247Y374436D01*
X578148Y374332D01*
X578053Y374226D01*
X577960Y374116D01*
X577871Y374005D01*
X577785Y373890D01*
X577702Y373774D01*
X577622Y373655D01*
X577545Y373534D01*
X577472Y373412D01*
X577402Y373287D01*
X577336Y373160D01*
X577273Y373031D01*
X577213Y372901D01*
X577158Y372769D01*
X577106Y372636D01*
X577057Y372501D01*
X577013Y372365D01*
X576972Y372228D01*
X576935Y372090D01*
X576902Y371951D01*
X576872Y371811D01*
X576847Y371670D01*
X576825Y371528D01*
X576808Y371386D01*
X576794Y371244D01*
X576784Y371101D01*
X576778Y370958D01*
X576776Y370815D01*
X576778Y370672D01*
X576784Y370529D01*
X576794Y370386D01*
X576808Y370244D01*
X576825Y370102D01*
X576847Y369960D01*
X576872Y369819D01*
X576902Y369679D01*
X576935Y369540D01*
X576972Y369402D01*
X577013Y369265D01*
X577057Y369129D01*
X577106Y368994D01*
X577158Y368861D01*
X577213Y368729D01*
X577273Y368599D01*
X577336Y368470D01*
X577402Y368343D01*
X577472Y368219D01*
X577545Y368096D01*
X577622Y367975D01*
X577702Y367856D01*
X577785Y367740D01*
X577871Y367625D01*
X577960Y367514D01*
X578053Y367404D01*
X578148Y367298D01*
X578247Y367194D01*
X578348Y367093D01*
X578452Y366994D01*
X578558Y366899D01*
X578668Y366806D01*
X578779Y366717D01*
X578894Y366631D01*
X579010Y366548D01*
X579129Y366468D01*
X579250Y366391D01*
X579372Y366318D01*
X579497Y366248D01*
X579624Y366182D01*
X579753Y366119D01*
X579883Y366059D01*
X580015Y366004D01*
X580148Y365952D01*
X580283Y365903D01*
X580419Y365859D01*
X580556Y365818D01*
X580694Y365781D01*
X580833Y365748D01*
X580973Y365718D01*
X581114Y365693D01*
X581256Y365671D01*
X581398Y365654D01*
X581540Y365640D01*
X581683Y365630D01*
X581826Y365624D01*
X581969Y365622D01*
X585864Y388210D02*
X585864Y394052D01*
X585864Y388210D02*
X585862Y388077D01*
X585856Y387943D01*
X585846Y387810D01*
X585833Y387678D01*
X585815Y387545D01*
X585794Y387414D01*
X585768Y387283D01*
X585739Y387152D01*
X585706Y387023D01*
X585670Y386895D01*
X585629Y386768D01*
X585585Y386642D01*
X585537Y386517D01*
X585485Y386394D01*
X585430Y386273D01*
X585372Y386153D01*
X585310Y386035D01*
X585244Y385919D01*
X585175Y385805D01*
X585103Y385692D01*
X585027Y385582D01*
X584949Y385475D01*
X584867Y385369D01*
X584782Y385267D01*
X584694Y385166D01*
X584603Y385068D01*
X584509Y384973D01*
X584413Y384881D01*
X584314Y384792D01*
X584212Y384705D01*
X584108Y384622D01*
X584002Y384542D01*
X583893Y384465D01*
X583782Y384391D01*
X583669Y384320D01*
X583553Y384253D01*
X583436Y384189D01*
X583317Y384128D01*
X583197Y384072D01*
X583074Y384018D01*
X582950Y383969D01*
X582825Y383923D01*
X582699Y383880D01*
X582571Y383842D01*
X582442Y383807D01*
X582313Y383776D01*
X582182Y383748D01*
X582051Y383725D01*
X581919Y383706D01*
X581786Y383690D01*
X581653Y383678D01*
X581520Y383670D01*
X581387Y383666D01*
X581253Y383666D01*
X581120Y383670D01*
X580987Y383678D01*
X580854Y383690D01*
X580721Y383706D01*
X580589Y383725D01*
X580458Y383748D01*
X580327Y383776D01*
X580198Y383807D01*
X580069Y383842D01*
X579941Y383880D01*
X579815Y383923D01*
X579690Y383969D01*
X579566Y384018D01*
X579443Y384072D01*
X579323Y384128D01*
X579204Y384189D01*
X579087Y384253D01*
X578971Y384320D01*
X578858Y384391D01*
X578747Y384465D01*
X578638Y384542D01*
X578532Y384622D01*
X578428Y384705D01*
X578326Y384792D01*
X578227Y384881D01*
X578131Y384973D01*
X578037Y385068D01*
X577946Y385166D01*
X577858Y385267D01*
X577773Y385369D01*
X577691Y385475D01*
X577613Y385582D01*
X577537Y385692D01*
X577465Y385805D01*
X577396Y385919D01*
X577330Y386035D01*
X577268Y386153D01*
X577210Y386273D01*
X577155Y386394D01*
X577103Y386517D01*
X577055Y386642D01*
X577011Y386768D01*
X576970Y386895D01*
X576934Y387023D01*
X576901Y387152D01*
X576872Y387283D01*
X576846Y387414D01*
X576825Y387545D01*
X576807Y387678D01*
X576794Y387810D01*
X576784Y387943D01*
X576778Y388077D01*
X576776Y388210D01*
X576776Y394052D01*
X588460Y394052D01*
X588582Y394050D01*
X588705Y394044D01*
X588827Y394035D01*
X588948Y394021D01*
X589069Y394004D01*
X589190Y393983D01*
X589310Y393958D01*
X589429Y393930D01*
X589547Y393897D01*
X589664Y393861D01*
X589779Y393822D01*
X589894Y393778D01*
X590007Y393732D01*
X590118Y393681D01*
X590228Y393627D01*
X590336Y393570D01*
X590443Y393510D01*
X590547Y393446D01*
X590649Y393378D01*
X590749Y393308D01*
X590847Y393235D01*
X590943Y393158D01*
X591036Y393079D01*
X591126Y392996D01*
X591214Y392911D01*
X591299Y392823D01*
X591382Y392733D01*
X591461Y392640D01*
X591538Y392544D01*
X591611Y392446D01*
X591681Y392346D01*
X591749Y392244D01*
X591813Y392140D01*
X591873Y392033D01*
X591930Y391925D01*
X591984Y391815D01*
X592035Y391704D01*
X592081Y391591D01*
X592125Y391476D01*
X592164Y391361D01*
X592200Y391244D01*
X592233Y391126D01*
X592261Y391007D01*
X592286Y390887D01*
X592307Y390766D01*
X592324Y390645D01*
X592338Y390524D01*
X592347Y390402D01*
X592353Y390279D01*
X592355Y390157D01*
X592355Y384964D01*
X592355Y403268D02*
X576776Y403268D01*
X592355Y403268D02*
X592355Y411057D01*
X589758Y411057D01*
X600144Y427458D02*
X576776Y427458D01*
X576776Y420967D01*
X576778Y420845D01*
X576784Y420722D01*
X576793Y420600D01*
X576807Y420479D01*
X576824Y420358D01*
X576845Y420237D01*
X576870Y420117D01*
X576898Y419998D01*
X576931Y419880D01*
X576967Y419763D01*
X577006Y419648D01*
X577050Y419533D01*
X577096Y419420D01*
X577147Y419309D01*
X577201Y419199D01*
X577258Y419091D01*
X577318Y418984D01*
X577382Y418880D01*
X577450Y418778D01*
X577520Y418678D01*
X577593Y418580D01*
X577670Y418484D01*
X577749Y418391D01*
X577832Y418301D01*
X577917Y418213D01*
X578005Y418128D01*
X578095Y418045D01*
X578188Y417966D01*
X578284Y417889D01*
X578382Y417816D01*
X578482Y417746D01*
X578584Y417678D01*
X578688Y417614D01*
X578795Y417554D01*
X578903Y417497D01*
X579013Y417443D01*
X579124Y417392D01*
X579237Y417346D01*
X579352Y417302D01*
X579467Y417263D01*
X579584Y417227D01*
X579702Y417194D01*
X579821Y417166D01*
X579941Y417141D01*
X580062Y417120D01*
X580183Y417103D01*
X580304Y417089D01*
X580426Y417080D01*
X580549Y417074D01*
X580671Y417072D01*
X588460Y417072D01*
X588582Y417074D01*
X588705Y417080D01*
X588827Y417089D01*
X588948Y417103D01*
X589069Y417120D01*
X589190Y417141D01*
X589310Y417166D01*
X589429Y417194D01*
X589547Y417227D01*
X589664Y417263D01*
X589779Y417302D01*
X589894Y417346D01*
X590007Y417392D01*
X590118Y417443D01*
X590228Y417497D01*
X590336Y417554D01*
X590443Y417614D01*
X590547Y417678D01*
X590649Y417746D01*
X590749Y417816D01*
X590847Y417889D01*
X590943Y417966D01*
X591036Y418045D01*
X591126Y418128D01*
X591214Y418213D01*
X591299Y418301D01*
X591382Y418391D01*
X591461Y418484D01*
X591538Y418580D01*
X591611Y418678D01*
X591681Y418778D01*
X591749Y418880D01*
X591813Y418984D01*
X591873Y419091D01*
X591930Y419199D01*
X591984Y419309D01*
X592035Y419420D01*
X592081Y419533D01*
X592125Y419648D01*
X592164Y419763D01*
X592200Y419880D01*
X592233Y419998D01*
X592261Y420117D01*
X592286Y420237D01*
X592307Y420358D01*
X592324Y420479D01*
X592338Y420600D01*
X592347Y420722D01*
X592353Y420845D01*
X592355Y420967D01*
X592355Y427458D01*
X562044Y220669D02*
X538676Y220669D01*
X538676Y231055D01*
X538676Y238271D02*
X554255Y238271D01*
X560746Y237622D02*
X562044Y237622D01*
X562044Y238920D01*
X560746Y238920D01*
X560746Y237622D01*
X554255Y244732D02*
X554255Y252521D01*
X562044Y247328D02*
X542571Y247328D01*
X542449Y247330D01*
X542326Y247336D01*
X542204Y247345D01*
X542083Y247359D01*
X541962Y247376D01*
X541841Y247397D01*
X541721Y247422D01*
X541602Y247450D01*
X541484Y247483D01*
X541367Y247519D01*
X541252Y247558D01*
X541137Y247602D01*
X541024Y247648D01*
X540913Y247699D01*
X540803Y247753D01*
X540695Y247810D01*
X540588Y247870D01*
X540484Y247934D01*
X540382Y248002D01*
X540282Y248072D01*
X540184Y248145D01*
X540088Y248222D01*
X539995Y248301D01*
X539905Y248384D01*
X539817Y248469D01*
X539732Y248557D01*
X539649Y248647D01*
X539570Y248740D01*
X539493Y248836D01*
X539420Y248934D01*
X539350Y249034D01*
X539282Y249136D01*
X539218Y249240D01*
X539158Y249347D01*
X539101Y249455D01*
X539047Y249565D01*
X538996Y249676D01*
X538950Y249789D01*
X538906Y249904D01*
X538867Y250019D01*
X538831Y250136D01*
X538798Y250254D01*
X538770Y250373D01*
X538745Y250493D01*
X538724Y250614D01*
X538707Y250735D01*
X538693Y250856D01*
X538684Y250978D01*
X538678Y251101D01*
X538676Y251223D01*
X538676Y252521D01*
X538676Y263419D02*
X538676Y269910D01*
X538676Y263419D02*
X538678Y263297D01*
X538684Y263174D01*
X538693Y263052D01*
X538707Y262931D01*
X538724Y262810D01*
X538745Y262689D01*
X538770Y262569D01*
X538798Y262450D01*
X538831Y262332D01*
X538867Y262215D01*
X538906Y262100D01*
X538950Y261985D01*
X538996Y261872D01*
X539047Y261761D01*
X539101Y261651D01*
X539158Y261543D01*
X539218Y261436D01*
X539282Y261332D01*
X539350Y261230D01*
X539420Y261130D01*
X539493Y261032D01*
X539570Y260936D01*
X539649Y260843D01*
X539732Y260753D01*
X539817Y260665D01*
X539905Y260580D01*
X539995Y260497D01*
X540088Y260418D01*
X540184Y260341D01*
X540282Y260268D01*
X540382Y260198D01*
X540484Y260130D01*
X540588Y260066D01*
X540695Y260006D01*
X540803Y259949D01*
X540913Y259895D01*
X541024Y259844D01*
X541137Y259798D01*
X541252Y259754D01*
X541367Y259715D01*
X541484Y259679D01*
X541602Y259646D01*
X541721Y259618D01*
X541841Y259593D01*
X541962Y259572D01*
X542083Y259555D01*
X542204Y259541D01*
X542326Y259532D01*
X542449Y259526D01*
X542571Y259524D01*
X542571Y259525D02*
X549062Y259525D01*
X549205Y259527D01*
X549348Y259533D01*
X549491Y259543D01*
X549633Y259557D01*
X549775Y259574D01*
X549917Y259596D01*
X550058Y259621D01*
X550198Y259651D01*
X550337Y259684D01*
X550475Y259721D01*
X550612Y259762D01*
X550748Y259806D01*
X550883Y259855D01*
X551016Y259907D01*
X551148Y259962D01*
X551278Y260022D01*
X551407Y260085D01*
X551534Y260151D01*
X551659Y260221D01*
X551781Y260294D01*
X551902Y260371D01*
X552021Y260451D01*
X552137Y260534D01*
X552252Y260620D01*
X552363Y260709D01*
X552473Y260802D01*
X552579Y260897D01*
X552683Y260996D01*
X552784Y261097D01*
X552883Y261201D01*
X552978Y261307D01*
X553071Y261417D01*
X553160Y261528D01*
X553246Y261643D01*
X553329Y261759D01*
X553409Y261878D01*
X553486Y261999D01*
X553559Y262121D01*
X553629Y262246D01*
X553695Y262373D01*
X553758Y262502D01*
X553818Y262632D01*
X553873Y262764D01*
X553925Y262897D01*
X553974Y263032D01*
X554018Y263168D01*
X554059Y263305D01*
X554096Y263443D01*
X554129Y263582D01*
X554159Y263722D01*
X554184Y263863D01*
X554206Y264005D01*
X554223Y264147D01*
X554237Y264289D01*
X554247Y264432D01*
X554253Y264575D01*
X554255Y264718D01*
X554253Y264861D01*
X554247Y265004D01*
X554237Y265147D01*
X554223Y265289D01*
X554206Y265431D01*
X554184Y265573D01*
X554159Y265714D01*
X554129Y265854D01*
X554096Y265993D01*
X554059Y266131D01*
X554018Y266268D01*
X553974Y266404D01*
X553925Y266539D01*
X553873Y266672D01*
X553818Y266804D01*
X553758Y266934D01*
X553695Y267063D01*
X553629Y267190D01*
X553559Y267314D01*
X553486Y267437D01*
X553409Y267558D01*
X553329Y267677D01*
X553246Y267793D01*
X553160Y267908D01*
X553071Y268019D01*
X552978Y268129D01*
X552883Y268235D01*
X552784Y268339D01*
X552683Y268440D01*
X552579Y268539D01*
X552473Y268634D01*
X552363Y268727D01*
X552252Y268816D01*
X552137Y268902D01*
X552021Y268985D01*
X551902Y269065D01*
X551781Y269142D01*
X551659Y269215D01*
X551534Y269285D01*
X551407Y269351D01*
X551278Y269414D01*
X551148Y269474D01*
X551016Y269529D01*
X550883Y269581D01*
X550748Y269630D01*
X550612Y269674D01*
X550475Y269715D01*
X550337Y269752D01*
X550198Y269785D01*
X550058Y269815D01*
X549917Y269840D01*
X549775Y269862D01*
X549633Y269879D01*
X549491Y269893D01*
X549348Y269903D01*
X549205Y269909D01*
X549062Y269911D01*
X549062Y269910D02*
X546465Y269910D01*
X546465Y259525D01*
X554255Y288059D02*
X538676Y293252D01*
X554255Y298445D01*
X538676Y309353D02*
X538676Y315844D01*
X538676Y309353D02*
X538678Y309231D01*
X538684Y309108D01*
X538693Y308986D01*
X538707Y308865D01*
X538724Y308744D01*
X538745Y308623D01*
X538770Y308503D01*
X538798Y308384D01*
X538831Y308266D01*
X538867Y308149D01*
X538906Y308034D01*
X538950Y307919D01*
X538996Y307806D01*
X539047Y307695D01*
X539101Y307585D01*
X539158Y307477D01*
X539218Y307370D01*
X539282Y307266D01*
X539350Y307164D01*
X539420Y307064D01*
X539493Y306966D01*
X539570Y306870D01*
X539649Y306777D01*
X539732Y306687D01*
X539817Y306599D01*
X539905Y306514D01*
X539995Y306431D01*
X540088Y306352D01*
X540184Y306275D01*
X540282Y306202D01*
X540382Y306132D01*
X540484Y306064D01*
X540588Y306000D01*
X540695Y305940D01*
X540803Y305883D01*
X540913Y305829D01*
X541024Y305778D01*
X541137Y305732D01*
X541252Y305688D01*
X541367Y305649D01*
X541484Y305613D01*
X541602Y305580D01*
X541721Y305552D01*
X541841Y305527D01*
X541962Y305506D01*
X542083Y305489D01*
X542204Y305475D01*
X542326Y305466D01*
X542449Y305460D01*
X542571Y305458D01*
X549062Y305458D01*
X549205Y305460D01*
X549348Y305466D01*
X549491Y305476D01*
X549633Y305490D01*
X549775Y305507D01*
X549917Y305529D01*
X550058Y305554D01*
X550198Y305584D01*
X550337Y305617D01*
X550475Y305654D01*
X550612Y305695D01*
X550748Y305739D01*
X550883Y305788D01*
X551016Y305840D01*
X551148Y305895D01*
X551278Y305955D01*
X551407Y306018D01*
X551534Y306084D01*
X551659Y306154D01*
X551781Y306227D01*
X551902Y306304D01*
X552021Y306384D01*
X552137Y306467D01*
X552252Y306553D01*
X552363Y306642D01*
X552473Y306735D01*
X552579Y306830D01*
X552683Y306929D01*
X552784Y307030D01*
X552883Y307134D01*
X552978Y307240D01*
X553071Y307350D01*
X553160Y307461D01*
X553246Y307576D01*
X553329Y307692D01*
X553409Y307811D01*
X553486Y307932D01*
X553559Y308054D01*
X553629Y308179D01*
X553695Y308306D01*
X553758Y308435D01*
X553818Y308565D01*
X553873Y308697D01*
X553925Y308830D01*
X553974Y308965D01*
X554018Y309101D01*
X554059Y309238D01*
X554096Y309376D01*
X554129Y309515D01*
X554159Y309655D01*
X554184Y309796D01*
X554206Y309938D01*
X554223Y310080D01*
X554237Y310222D01*
X554247Y310365D01*
X554253Y310508D01*
X554255Y310651D01*
X554253Y310794D01*
X554247Y310937D01*
X554237Y311080D01*
X554223Y311222D01*
X554206Y311364D01*
X554184Y311506D01*
X554159Y311647D01*
X554129Y311787D01*
X554096Y311926D01*
X554059Y312064D01*
X554018Y312201D01*
X553974Y312337D01*
X553925Y312472D01*
X553873Y312605D01*
X553818Y312737D01*
X553758Y312867D01*
X553695Y312996D01*
X553629Y313123D01*
X553559Y313247D01*
X553486Y313370D01*
X553409Y313491D01*
X553329Y313610D01*
X553246Y313726D01*
X553160Y313841D01*
X553071Y313952D01*
X552978Y314062D01*
X552883Y314168D01*
X552784Y314272D01*
X552683Y314373D01*
X552579Y314472D01*
X552473Y314567D01*
X552363Y314660D01*
X552252Y314749D01*
X552137Y314835D01*
X552021Y314918D01*
X551902Y314998D01*
X551781Y315075D01*
X551659Y315148D01*
X551534Y315218D01*
X551407Y315284D01*
X551278Y315347D01*
X551148Y315407D01*
X551016Y315462D01*
X550883Y315514D01*
X550748Y315563D01*
X550612Y315607D01*
X550475Y315648D01*
X550337Y315685D01*
X550198Y315718D01*
X550058Y315748D01*
X549917Y315773D01*
X549775Y315795D01*
X549633Y315812D01*
X549491Y315826D01*
X549348Y315836D01*
X549205Y315842D01*
X549062Y315844D01*
X546465Y315844D01*
X546465Y305458D01*
X538676Y324313D02*
X554255Y324313D01*
X554255Y332102D01*
X551658Y332102D01*
X547764Y340115D02*
X545167Y346606D01*
X547764Y340115D02*
X547808Y340009D01*
X547857Y339904D01*
X547909Y339801D01*
X547964Y339700D01*
X548023Y339600D01*
X548085Y339503D01*
X548150Y339408D01*
X548219Y339316D01*
X548291Y339225D01*
X548365Y339138D01*
X548443Y339052D01*
X548524Y338970D01*
X548607Y338890D01*
X548693Y338814D01*
X548782Y338740D01*
X548873Y338669D01*
X548967Y338602D01*
X549063Y338538D01*
X549161Y338477D01*
X549260Y338419D01*
X549362Y338365D01*
X549466Y338315D01*
X549571Y338268D01*
X549678Y338224D01*
X549787Y338185D01*
X549896Y338149D01*
X550007Y338117D01*
X550119Y338088D01*
X550231Y338064D01*
X550345Y338043D01*
X550459Y338027D01*
X550574Y338014D01*
X550689Y338005D01*
X550804Y338000D01*
X550919Y337999D01*
X551034Y338002D01*
X551150Y338009D01*
X551264Y338020D01*
X551379Y338035D01*
X551492Y338054D01*
X551606Y338076D01*
X551718Y338103D01*
X551829Y338133D01*
X551939Y338167D01*
X552048Y338205D01*
X552156Y338246D01*
X552262Y338292D01*
X552366Y338341D01*
X552469Y338393D01*
X552570Y338449D01*
X552669Y338508D01*
X552766Y338571D01*
X552860Y338637D01*
X552953Y338706D01*
X553043Y338778D01*
X553130Y338853D01*
X553215Y338932D01*
X553297Y339013D01*
X553376Y339097D01*
X553452Y339183D01*
X553525Y339272D01*
X553595Y339364D01*
X553662Y339458D01*
X553726Y339554D01*
X553786Y339652D01*
X553843Y339752D01*
X553897Y339854D01*
X553947Y339958D01*
X553993Y340064D01*
X554036Y340171D01*
X554075Y340280D01*
X554110Y340389D01*
X554142Y340500D01*
X554170Y340612D01*
X554194Y340725D01*
X554214Y340839D01*
X554230Y340953D01*
X554242Y341067D01*
X554250Y341182D01*
X554254Y341298D01*
X554255Y341413D01*
X554254Y341413D02*
X554245Y341768D01*
X554227Y342122D01*
X554201Y342475D01*
X554166Y342828D01*
X554123Y343180D01*
X554071Y343531D01*
X554011Y343880D01*
X553942Y344228D01*
X553865Y344574D01*
X553780Y344918D01*
X553687Y345260D01*
X553585Y345599D01*
X553475Y345936D01*
X553358Y346271D01*
X553232Y346602D01*
X553098Y346930D01*
X552956Y347255D01*
X545167Y346606D02*
X545123Y346712D01*
X545074Y346817D01*
X545022Y346920D01*
X544967Y347021D01*
X544908Y347121D01*
X544846Y347218D01*
X544781Y347313D01*
X544712Y347405D01*
X544640Y347496D01*
X544566Y347583D01*
X544488Y347669D01*
X544407Y347751D01*
X544324Y347831D01*
X544238Y347907D01*
X544149Y347981D01*
X544058Y348052D01*
X543964Y348119D01*
X543868Y348183D01*
X543770Y348244D01*
X543671Y348302D01*
X543569Y348356D01*
X543465Y348406D01*
X543360Y348453D01*
X543253Y348497D01*
X543144Y348536D01*
X543035Y348572D01*
X542924Y348604D01*
X542812Y348633D01*
X542700Y348657D01*
X542586Y348678D01*
X542472Y348694D01*
X542357Y348707D01*
X542242Y348716D01*
X542127Y348721D01*
X542012Y348722D01*
X541897Y348719D01*
X541781Y348712D01*
X541667Y348701D01*
X541552Y348686D01*
X541439Y348667D01*
X541325Y348645D01*
X541213Y348618D01*
X541102Y348588D01*
X540992Y348554D01*
X540883Y348516D01*
X540775Y348475D01*
X540669Y348429D01*
X540565Y348380D01*
X540462Y348328D01*
X540361Y348272D01*
X540262Y348213D01*
X540165Y348150D01*
X540071Y348084D01*
X539978Y348015D01*
X539888Y347943D01*
X539801Y347868D01*
X539716Y347789D01*
X539634Y347708D01*
X539555Y347624D01*
X539479Y347538D01*
X539406Y347449D01*
X539336Y347357D01*
X539269Y347263D01*
X539205Y347167D01*
X539145Y347069D01*
X539088Y346969D01*
X539034Y346867D01*
X538984Y346763D01*
X538938Y346657D01*
X538895Y346550D01*
X538856Y346441D01*
X538821Y346332D01*
X538789Y346221D01*
X538761Y346109D01*
X538737Y345996D01*
X538717Y345882D01*
X538701Y345768D01*
X538689Y345654D01*
X538681Y345539D01*
X538677Y345423D01*
X538676Y345308D01*
X538690Y344787D01*
X538716Y344267D01*
X538754Y343748D01*
X538804Y343229D01*
X538867Y342712D01*
X538942Y342197D01*
X539029Y341684D01*
X539128Y341172D01*
X539240Y340664D01*
X539363Y340158D01*
X539498Y339655D01*
X539645Y339155D01*
X539804Y338659D01*
X539974Y338167D01*
X538676Y356584D02*
X554255Y356584D01*
X560746Y355935D02*
X562044Y355935D01*
X562044Y357233D01*
X560746Y357233D01*
X560746Y355935D01*
X549062Y364614D02*
X543869Y364614D01*
X549062Y364614D02*
X549205Y364616D01*
X549348Y364622D01*
X549491Y364632D01*
X549633Y364646D01*
X549775Y364663D01*
X549917Y364685D01*
X550058Y364710D01*
X550198Y364740D01*
X550337Y364773D01*
X550475Y364810D01*
X550612Y364851D01*
X550748Y364895D01*
X550883Y364944D01*
X551016Y364996D01*
X551148Y365051D01*
X551278Y365111D01*
X551407Y365174D01*
X551534Y365240D01*
X551659Y365310D01*
X551781Y365383D01*
X551902Y365460D01*
X552021Y365540D01*
X552137Y365623D01*
X552252Y365709D01*
X552363Y365798D01*
X552473Y365891D01*
X552579Y365986D01*
X552683Y366085D01*
X552784Y366186D01*
X552883Y366290D01*
X552978Y366396D01*
X553071Y366506D01*
X553160Y366617D01*
X553246Y366732D01*
X553329Y366848D01*
X553409Y366967D01*
X553486Y367088D01*
X553559Y367210D01*
X553629Y367335D01*
X553695Y367462D01*
X553758Y367591D01*
X553818Y367721D01*
X553873Y367853D01*
X553925Y367986D01*
X553974Y368121D01*
X554018Y368257D01*
X554059Y368394D01*
X554096Y368532D01*
X554129Y368671D01*
X554159Y368811D01*
X554184Y368952D01*
X554206Y369094D01*
X554223Y369236D01*
X554237Y369378D01*
X554247Y369521D01*
X554253Y369664D01*
X554255Y369807D01*
X554253Y369950D01*
X554247Y370093D01*
X554237Y370236D01*
X554223Y370378D01*
X554206Y370520D01*
X554184Y370662D01*
X554159Y370803D01*
X554129Y370943D01*
X554096Y371082D01*
X554059Y371220D01*
X554018Y371357D01*
X553974Y371493D01*
X553925Y371628D01*
X553873Y371761D01*
X553818Y371893D01*
X553758Y372023D01*
X553695Y372152D01*
X553629Y372279D01*
X553559Y372403D01*
X553486Y372526D01*
X553409Y372647D01*
X553329Y372766D01*
X553246Y372882D01*
X553160Y372997D01*
X553071Y373108D01*
X552978Y373218D01*
X552883Y373324D01*
X552784Y373428D01*
X552683Y373529D01*
X552579Y373628D01*
X552473Y373723D01*
X552363Y373816D01*
X552252Y373905D01*
X552137Y373991D01*
X552021Y374074D01*
X551902Y374154D01*
X551781Y374231D01*
X551659Y374304D01*
X551534Y374374D01*
X551407Y374440D01*
X551278Y374503D01*
X551148Y374563D01*
X551016Y374618D01*
X550883Y374670D01*
X550748Y374719D01*
X550612Y374763D01*
X550475Y374804D01*
X550337Y374841D01*
X550198Y374874D01*
X550058Y374904D01*
X549917Y374929D01*
X549775Y374951D01*
X549633Y374968D01*
X549491Y374982D01*
X549348Y374992D01*
X549205Y374998D01*
X549062Y375000D01*
X543869Y375000D01*
X543726Y374998D01*
X543583Y374992D01*
X543440Y374982D01*
X543298Y374968D01*
X543156Y374951D01*
X543014Y374929D01*
X542873Y374904D01*
X542733Y374874D01*
X542594Y374841D01*
X542456Y374804D01*
X542319Y374763D01*
X542183Y374719D01*
X542048Y374670D01*
X541915Y374618D01*
X541783Y374563D01*
X541653Y374503D01*
X541524Y374440D01*
X541397Y374374D01*
X541273Y374304D01*
X541150Y374231D01*
X541029Y374154D01*
X540910Y374074D01*
X540794Y373991D01*
X540679Y373905D01*
X540568Y373816D01*
X540458Y373723D01*
X540352Y373628D01*
X540248Y373529D01*
X540147Y373428D01*
X540048Y373324D01*
X539953Y373218D01*
X539860Y373108D01*
X539771Y372997D01*
X539685Y372882D01*
X539602Y372766D01*
X539522Y372647D01*
X539445Y372526D01*
X539372Y372404D01*
X539302Y372279D01*
X539236Y372152D01*
X539173Y372023D01*
X539113Y371893D01*
X539058Y371761D01*
X539006Y371628D01*
X538957Y371493D01*
X538913Y371357D01*
X538872Y371220D01*
X538835Y371082D01*
X538802Y370943D01*
X538772Y370803D01*
X538747Y370662D01*
X538725Y370520D01*
X538708Y370378D01*
X538694Y370236D01*
X538684Y370093D01*
X538678Y369950D01*
X538676Y369807D01*
X538678Y369664D01*
X538684Y369521D01*
X538694Y369378D01*
X538708Y369236D01*
X538725Y369094D01*
X538747Y368952D01*
X538772Y368811D01*
X538802Y368671D01*
X538835Y368532D01*
X538872Y368394D01*
X538913Y368257D01*
X538957Y368121D01*
X539006Y367986D01*
X539058Y367853D01*
X539113Y367721D01*
X539173Y367591D01*
X539236Y367462D01*
X539302Y367335D01*
X539372Y367211D01*
X539445Y367088D01*
X539522Y366967D01*
X539602Y366848D01*
X539685Y366732D01*
X539771Y366617D01*
X539860Y366506D01*
X539953Y366396D01*
X540048Y366290D01*
X540147Y366186D01*
X540248Y366085D01*
X540352Y365986D01*
X540458Y365891D01*
X540568Y365798D01*
X540679Y365709D01*
X540794Y365623D01*
X540910Y365540D01*
X541029Y365460D01*
X541150Y365383D01*
X541272Y365310D01*
X541397Y365240D01*
X541524Y365174D01*
X541653Y365111D01*
X541783Y365051D01*
X541915Y364996D01*
X542048Y364944D01*
X542183Y364895D01*
X542319Y364851D01*
X542456Y364810D01*
X542594Y364773D01*
X542733Y364740D01*
X542873Y364710D01*
X543014Y364685D01*
X543156Y364663D01*
X543298Y364646D01*
X543440Y364632D01*
X543583Y364622D01*
X543726Y364616D01*
X543869Y364614D01*
X538676Y383405D02*
X554255Y383405D01*
X554255Y389896D01*
X554253Y390018D01*
X554247Y390141D01*
X554238Y390263D01*
X554224Y390384D01*
X554207Y390505D01*
X554186Y390626D01*
X554161Y390746D01*
X554133Y390865D01*
X554100Y390983D01*
X554064Y391100D01*
X554025Y391215D01*
X553981Y391330D01*
X553935Y391443D01*
X553884Y391554D01*
X553830Y391664D01*
X553773Y391772D01*
X553713Y391879D01*
X553649Y391983D01*
X553581Y392085D01*
X553511Y392185D01*
X553438Y392283D01*
X553361Y392379D01*
X553282Y392472D01*
X553199Y392562D01*
X553114Y392650D01*
X553026Y392735D01*
X552936Y392818D01*
X552843Y392897D01*
X552747Y392974D01*
X552649Y393047D01*
X552549Y393117D01*
X552447Y393185D01*
X552343Y393249D01*
X552236Y393309D01*
X552128Y393366D01*
X552018Y393420D01*
X551907Y393471D01*
X551794Y393517D01*
X551679Y393561D01*
X551564Y393600D01*
X551447Y393636D01*
X551329Y393669D01*
X551210Y393697D01*
X551090Y393722D01*
X550969Y393743D01*
X550848Y393760D01*
X550727Y393774D01*
X550605Y393783D01*
X550482Y393789D01*
X550360Y393791D01*
X538676Y393791D01*
X485844Y110997D02*
X462476Y110997D01*
X478055Y110997D02*
X478055Y117488D01*
X478053Y117610D01*
X478047Y117733D01*
X478038Y117855D01*
X478024Y117976D01*
X478007Y118097D01*
X477986Y118218D01*
X477961Y118338D01*
X477933Y118457D01*
X477900Y118575D01*
X477864Y118692D01*
X477825Y118807D01*
X477781Y118922D01*
X477735Y119035D01*
X477684Y119146D01*
X477630Y119256D01*
X477573Y119364D01*
X477513Y119471D01*
X477449Y119575D01*
X477381Y119677D01*
X477311Y119777D01*
X477238Y119875D01*
X477161Y119971D01*
X477082Y120064D01*
X476999Y120154D01*
X476914Y120242D01*
X476826Y120327D01*
X476736Y120410D01*
X476643Y120489D01*
X476547Y120566D01*
X476449Y120639D01*
X476349Y120709D01*
X476247Y120777D01*
X476143Y120841D01*
X476036Y120901D01*
X475928Y120958D01*
X475818Y121012D01*
X475707Y121063D01*
X475594Y121109D01*
X475479Y121153D01*
X475364Y121192D01*
X475247Y121228D01*
X475129Y121261D01*
X475010Y121289D01*
X474890Y121314D01*
X474769Y121335D01*
X474648Y121352D01*
X474527Y121366D01*
X474405Y121375D01*
X474282Y121381D01*
X474160Y121383D01*
X474160Y121382D02*
X462476Y121382D01*
X478055Y128218D02*
X478055Y136007D01*
X485844Y130815D02*
X466371Y130815D01*
X466371Y130814D02*
X466249Y130816D01*
X466126Y130822D01*
X466004Y130831D01*
X465883Y130845D01*
X465762Y130862D01*
X465641Y130883D01*
X465521Y130908D01*
X465402Y130936D01*
X465284Y130969D01*
X465167Y131005D01*
X465052Y131044D01*
X464937Y131088D01*
X464824Y131134D01*
X464713Y131185D01*
X464603Y131239D01*
X464495Y131296D01*
X464388Y131356D01*
X464284Y131420D01*
X464182Y131488D01*
X464082Y131558D01*
X463984Y131631D01*
X463888Y131708D01*
X463795Y131787D01*
X463705Y131870D01*
X463617Y131955D01*
X463532Y132043D01*
X463449Y132133D01*
X463370Y132226D01*
X463293Y132322D01*
X463220Y132420D01*
X463150Y132520D01*
X463082Y132622D01*
X463018Y132726D01*
X462958Y132833D01*
X462901Y132941D01*
X462847Y133051D01*
X462796Y133162D01*
X462750Y133275D01*
X462706Y133390D01*
X462667Y133505D01*
X462631Y133622D01*
X462598Y133740D01*
X462570Y133859D01*
X462545Y133979D01*
X462524Y134100D01*
X462507Y134221D01*
X462493Y134342D01*
X462484Y134464D01*
X462478Y134587D01*
X462476Y134709D01*
X462476Y136007D01*
X478055Y141441D02*
X478055Y149231D01*
X485844Y144038D02*
X466371Y144038D01*
X466371Y144037D02*
X466249Y144039D01*
X466126Y144045D01*
X466004Y144054D01*
X465883Y144068D01*
X465762Y144085D01*
X465641Y144106D01*
X465521Y144131D01*
X465402Y144159D01*
X465284Y144192D01*
X465167Y144228D01*
X465052Y144267D01*
X464937Y144311D01*
X464824Y144357D01*
X464713Y144408D01*
X464603Y144462D01*
X464495Y144519D01*
X464388Y144579D01*
X464284Y144643D01*
X464182Y144711D01*
X464082Y144781D01*
X463984Y144854D01*
X463888Y144931D01*
X463795Y145010D01*
X463705Y145093D01*
X463617Y145178D01*
X463532Y145266D01*
X463449Y145356D01*
X463370Y145449D01*
X463293Y145545D01*
X463220Y145643D01*
X463150Y145743D01*
X463082Y145845D01*
X463018Y145949D01*
X462958Y146056D01*
X462901Y146164D01*
X462847Y146274D01*
X462796Y146385D01*
X462750Y146498D01*
X462706Y146613D01*
X462667Y146728D01*
X462631Y146845D01*
X462598Y146963D01*
X462570Y147082D01*
X462545Y147202D01*
X462524Y147323D01*
X462507Y147444D01*
X462493Y147565D01*
X462484Y147687D01*
X462478Y147810D01*
X462476Y147932D01*
X462476Y149231D01*
X454687Y156981D02*
X478055Y156981D01*
X478055Y163472D01*
X478053Y163594D01*
X478047Y163717D01*
X478038Y163839D01*
X478024Y163960D01*
X478007Y164081D01*
X477986Y164202D01*
X477961Y164322D01*
X477933Y164441D01*
X477900Y164559D01*
X477864Y164676D01*
X477825Y164791D01*
X477781Y164906D01*
X477735Y165019D01*
X477684Y165130D01*
X477630Y165240D01*
X477573Y165348D01*
X477513Y165455D01*
X477449Y165559D01*
X477381Y165661D01*
X477311Y165761D01*
X477238Y165859D01*
X477161Y165955D01*
X477082Y166048D01*
X476999Y166138D01*
X476914Y166226D01*
X476826Y166311D01*
X476736Y166394D01*
X476643Y166473D01*
X476547Y166550D01*
X476449Y166623D01*
X476349Y166693D01*
X476247Y166761D01*
X476143Y166825D01*
X476036Y166885D01*
X475928Y166942D01*
X475818Y166996D01*
X475707Y167047D01*
X475594Y167093D01*
X475479Y167137D01*
X475364Y167176D01*
X475247Y167212D01*
X475129Y167245D01*
X475010Y167273D01*
X474890Y167298D01*
X474769Y167319D01*
X474648Y167336D01*
X474527Y167350D01*
X474405Y167359D01*
X474282Y167365D01*
X474160Y167367D01*
X466371Y167367D01*
X466249Y167365D01*
X466126Y167359D01*
X466004Y167350D01*
X465883Y167336D01*
X465762Y167319D01*
X465641Y167298D01*
X465521Y167273D01*
X465402Y167245D01*
X465284Y167212D01*
X465167Y167176D01*
X465052Y167137D01*
X464937Y167093D01*
X464824Y167047D01*
X464713Y166996D01*
X464603Y166942D01*
X464495Y166885D01*
X464388Y166825D01*
X464284Y166761D01*
X464182Y166693D01*
X464082Y166623D01*
X463984Y166550D01*
X463888Y166473D01*
X463795Y166394D01*
X463705Y166311D01*
X463617Y166226D01*
X463532Y166138D01*
X463449Y166048D01*
X463370Y165955D01*
X463293Y165859D01*
X463220Y165761D01*
X463150Y165661D01*
X463082Y165559D01*
X463018Y165455D01*
X462958Y165348D01*
X462901Y165240D01*
X462847Y165130D01*
X462796Y165019D01*
X462750Y164906D01*
X462706Y164791D01*
X462667Y164676D01*
X462631Y164559D01*
X462598Y164441D01*
X462570Y164322D01*
X462545Y164202D01*
X462524Y164081D01*
X462507Y163960D01*
X462493Y163839D01*
X462484Y163717D01*
X462478Y163594D01*
X462476Y163472D01*
X462476Y156981D01*
X471564Y176972D02*
X468967Y183463D01*
X471564Y176972D02*
X471608Y176866D01*
X471657Y176761D01*
X471709Y176658D01*
X471764Y176557D01*
X471823Y176457D01*
X471885Y176360D01*
X471950Y176265D01*
X472019Y176173D01*
X472091Y176082D01*
X472165Y175995D01*
X472243Y175909D01*
X472324Y175827D01*
X472407Y175747D01*
X472493Y175671D01*
X472582Y175597D01*
X472673Y175526D01*
X472767Y175459D01*
X472863Y175395D01*
X472961Y175334D01*
X473060Y175276D01*
X473162Y175222D01*
X473266Y175172D01*
X473371Y175125D01*
X473478Y175081D01*
X473587Y175042D01*
X473696Y175006D01*
X473807Y174974D01*
X473919Y174945D01*
X474031Y174921D01*
X474145Y174900D01*
X474259Y174884D01*
X474374Y174871D01*
X474489Y174862D01*
X474604Y174857D01*
X474719Y174856D01*
X474834Y174859D01*
X474950Y174866D01*
X475064Y174877D01*
X475179Y174892D01*
X475292Y174911D01*
X475406Y174933D01*
X475518Y174960D01*
X475629Y174990D01*
X475739Y175024D01*
X475848Y175062D01*
X475956Y175103D01*
X476062Y175149D01*
X476166Y175198D01*
X476269Y175250D01*
X476370Y175306D01*
X476469Y175365D01*
X476566Y175428D01*
X476660Y175494D01*
X476753Y175563D01*
X476843Y175635D01*
X476930Y175710D01*
X477015Y175789D01*
X477097Y175870D01*
X477176Y175954D01*
X477252Y176040D01*
X477325Y176129D01*
X477395Y176221D01*
X477462Y176315D01*
X477526Y176411D01*
X477586Y176509D01*
X477643Y176609D01*
X477697Y176711D01*
X477747Y176815D01*
X477793Y176921D01*
X477836Y177028D01*
X477875Y177137D01*
X477910Y177246D01*
X477942Y177357D01*
X477970Y177469D01*
X477994Y177582D01*
X478014Y177696D01*
X478030Y177810D01*
X478042Y177924D01*
X478050Y178039D01*
X478054Y178155D01*
X478055Y178270D01*
X478054Y178270D02*
X478045Y178625D01*
X478027Y178979D01*
X478001Y179332D01*
X477966Y179685D01*
X477923Y180037D01*
X477871Y180388D01*
X477811Y180737D01*
X477742Y181085D01*
X477665Y181431D01*
X477580Y181775D01*
X477487Y182117D01*
X477385Y182456D01*
X477275Y182793D01*
X477158Y183128D01*
X477032Y183459D01*
X476898Y183787D01*
X476756Y184112D01*
X468967Y183463D02*
X468923Y183569D01*
X468874Y183674D01*
X468822Y183777D01*
X468767Y183878D01*
X468708Y183978D01*
X468646Y184075D01*
X468581Y184170D01*
X468512Y184262D01*
X468440Y184353D01*
X468366Y184440D01*
X468288Y184526D01*
X468207Y184608D01*
X468124Y184688D01*
X468038Y184764D01*
X467949Y184838D01*
X467858Y184909D01*
X467764Y184976D01*
X467668Y185040D01*
X467570Y185101D01*
X467471Y185159D01*
X467369Y185213D01*
X467265Y185263D01*
X467160Y185310D01*
X467053Y185354D01*
X466944Y185393D01*
X466835Y185429D01*
X466724Y185461D01*
X466612Y185490D01*
X466500Y185514D01*
X466386Y185535D01*
X466272Y185551D01*
X466157Y185564D01*
X466042Y185573D01*
X465927Y185578D01*
X465812Y185579D01*
X465697Y185576D01*
X465581Y185569D01*
X465467Y185558D01*
X465352Y185543D01*
X465239Y185524D01*
X465125Y185502D01*
X465013Y185475D01*
X464902Y185445D01*
X464792Y185411D01*
X464683Y185373D01*
X464575Y185332D01*
X464469Y185286D01*
X464365Y185237D01*
X464262Y185185D01*
X464161Y185129D01*
X464062Y185070D01*
X463965Y185007D01*
X463871Y184941D01*
X463778Y184872D01*
X463688Y184800D01*
X463601Y184725D01*
X463516Y184646D01*
X463434Y184565D01*
X463355Y184481D01*
X463279Y184395D01*
X463206Y184306D01*
X463136Y184214D01*
X463069Y184120D01*
X463005Y184024D01*
X462945Y183926D01*
X462888Y183826D01*
X462834Y183724D01*
X462784Y183620D01*
X462738Y183514D01*
X462695Y183407D01*
X462656Y183298D01*
X462621Y183189D01*
X462589Y183078D01*
X462561Y182966D01*
X462537Y182853D01*
X462517Y182739D01*
X462501Y182625D01*
X462489Y182511D01*
X462481Y182396D01*
X462477Y182280D01*
X462476Y182165D01*
X462490Y181644D01*
X462516Y181124D01*
X462554Y180605D01*
X462604Y180086D01*
X462667Y179569D01*
X462742Y179054D01*
X462829Y178541D01*
X462928Y178029D01*
X463040Y177521D01*
X463163Y177015D01*
X463298Y176512D01*
X463445Y176012D01*
X463604Y175516D01*
X463774Y175024D01*
X464423Y193488D02*
X465722Y193488D01*
X465722Y194786D01*
X464423Y194786D01*
X464423Y193488D01*
X474809Y193488D02*
X476107Y193488D01*
X476107Y194786D01*
X474809Y194786D01*
X474809Y193488D01*
X459880Y202167D02*
X488440Y212553D01*
X488440Y229256D02*
X459880Y218870D01*
X462476Y237016D02*
X485844Y237016D01*
X462476Y237016D02*
X462476Y243507D01*
X462478Y243629D01*
X462484Y243752D01*
X462493Y243874D01*
X462507Y243995D01*
X462524Y244116D01*
X462545Y244237D01*
X462570Y244357D01*
X462598Y244476D01*
X462631Y244594D01*
X462667Y244711D01*
X462706Y244826D01*
X462750Y244941D01*
X462796Y245054D01*
X462847Y245165D01*
X462901Y245275D01*
X462958Y245383D01*
X463018Y245490D01*
X463082Y245594D01*
X463150Y245696D01*
X463220Y245796D01*
X463293Y245894D01*
X463370Y245990D01*
X463449Y246083D01*
X463532Y246173D01*
X463617Y246261D01*
X463705Y246346D01*
X463795Y246429D01*
X463888Y246508D01*
X463984Y246585D01*
X464082Y246658D01*
X464182Y246728D01*
X464284Y246796D01*
X464388Y246860D01*
X464495Y246920D01*
X464603Y246977D01*
X464713Y247031D01*
X464824Y247082D01*
X464937Y247128D01*
X465052Y247172D01*
X465167Y247211D01*
X465284Y247247D01*
X465402Y247280D01*
X465521Y247308D01*
X465641Y247333D01*
X465762Y247354D01*
X465883Y247371D01*
X466004Y247385D01*
X466126Y247394D01*
X466249Y247400D01*
X466371Y247402D01*
X474160Y247402D01*
X474282Y247400D01*
X474405Y247394D01*
X474527Y247385D01*
X474648Y247371D01*
X474769Y247354D01*
X474890Y247333D01*
X475010Y247308D01*
X475129Y247280D01*
X475247Y247247D01*
X475364Y247211D01*
X475479Y247172D01*
X475594Y247128D01*
X475707Y247082D01*
X475818Y247031D01*
X475928Y246977D01*
X476036Y246920D01*
X476143Y246860D01*
X476247Y246796D01*
X476349Y246728D01*
X476449Y246658D01*
X476547Y246585D01*
X476643Y246508D01*
X476736Y246429D01*
X476826Y246346D01*
X476914Y246261D01*
X476999Y246173D01*
X477082Y246083D01*
X477161Y245990D01*
X477238Y245894D01*
X477311Y245796D01*
X477381Y245696D01*
X477449Y245594D01*
X477513Y245490D01*
X477573Y245383D01*
X477630Y245275D01*
X477684Y245165D01*
X477735Y245054D01*
X477781Y244941D01*
X477825Y244826D01*
X477864Y244711D01*
X477900Y244594D01*
X477933Y244476D01*
X477961Y244357D01*
X477986Y244237D01*
X478007Y244116D01*
X478024Y243995D01*
X478038Y243874D01*
X478047Y243752D01*
X478053Y243629D01*
X478055Y243507D01*
X478055Y237016D01*
X478055Y255381D02*
X462476Y255381D01*
X484546Y254732D02*
X485844Y254732D01*
X485844Y256030D01*
X484546Y256030D01*
X484546Y254732D01*
X478055Y261842D02*
X478055Y269631D01*
X485844Y264438D02*
X466371Y264438D01*
X466249Y264440D01*
X466126Y264446D01*
X466004Y264455D01*
X465883Y264469D01*
X465762Y264486D01*
X465641Y264507D01*
X465521Y264532D01*
X465402Y264560D01*
X465284Y264593D01*
X465167Y264629D01*
X465052Y264668D01*
X464937Y264712D01*
X464824Y264758D01*
X464713Y264809D01*
X464603Y264863D01*
X464495Y264920D01*
X464388Y264980D01*
X464284Y265044D01*
X464182Y265112D01*
X464082Y265182D01*
X463984Y265255D01*
X463888Y265332D01*
X463795Y265411D01*
X463705Y265494D01*
X463617Y265579D01*
X463532Y265667D01*
X463449Y265757D01*
X463370Y265850D01*
X463293Y265946D01*
X463220Y266044D01*
X463150Y266144D01*
X463082Y266246D01*
X463018Y266350D01*
X462958Y266457D01*
X462901Y266565D01*
X462847Y266675D01*
X462796Y266786D01*
X462750Y266899D01*
X462706Y267014D01*
X462667Y267129D01*
X462631Y267246D01*
X462598Y267364D01*
X462570Y267483D01*
X462545Y267603D01*
X462524Y267724D01*
X462507Y267845D01*
X462493Y267966D01*
X462484Y268088D01*
X462478Y268211D01*
X462476Y268333D01*
X462476Y269631D01*
X462476Y276307D02*
X463774Y276307D01*
X463774Y277605D01*
X462476Y277605D01*
X462476Y276307D01*
X466371Y285492D02*
X485844Y285492D01*
X466371Y285492D02*
X466249Y285494D01*
X466126Y285500D01*
X466004Y285509D01*
X465883Y285523D01*
X465762Y285540D01*
X465641Y285561D01*
X465521Y285586D01*
X465402Y285614D01*
X465284Y285647D01*
X465167Y285683D01*
X465052Y285722D01*
X464937Y285766D01*
X464824Y285812D01*
X464713Y285863D01*
X464603Y285917D01*
X464495Y285974D01*
X464388Y286034D01*
X464284Y286098D01*
X464182Y286166D01*
X464082Y286236D01*
X463984Y286309D01*
X463888Y286386D01*
X463795Y286465D01*
X463705Y286548D01*
X463617Y286633D01*
X463532Y286721D01*
X463449Y286811D01*
X463370Y286904D01*
X463293Y287000D01*
X463220Y287098D01*
X463150Y287198D01*
X463082Y287300D01*
X463018Y287404D01*
X462958Y287511D01*
X462901Y287619D01*
X462847Y287729D01*
X462796Y287840D01*
X462750Y287953D01*
X462706Y288068D01*
X462667Y288183D01*
X462631Y288300D01*
X462598Y288418D01*
X462570Y288537D01*
X462545Y288657D01*
X462524Y288778D01*
X462507Y288899D01*
X462493Y289020D01*
X462484Y289142D01*
X462478Y289265D01*
X462476Y289387D01*
X454687Y295425D02*
X454687Y298022D01*
X478055Y305811D01*
X478055Y295425D02*
X462476Y300618D01*
X459880Y312128D02*
X488440Y322514D01*
X478055Y330274D02*
X454687Y330274D01*
X478055Y330274D02*
X478055Y336765D01*
X478053Y336887D01*
X478047Y337010D01*
X478038Y337132D01*
X478024Y337253D01*
X478007Y337374D01*
X477986Y337495D01*
X477961Y337615D01*
X477933Y337734D01*
X477900Y337852D01*
X477864Y337969D01*
X477825Y338084D01*
X477781Y338199D01*
X477735Y338312D01*
X477684Y338423D01*
X477630Y338533D01*
X477573Y338641D01*
X477513Y338748D01*
X477449Y338852D01*
X477381Y338954D01*
X477311Y339054D01*
X477238Y339152D01*
X477161Y339248D01*
X477082Y339341D01*
X476999Y339431D01*
X476914Y339519D01*
X476826Y339604D01*
X476736Y339687D01*
X476643Y339766D01*
X476547Y339843D01*
X476449Y339916D01*
X476349Y339986D01*
X476247Y340054D01*
X476143Y340118D01*
X476036Y340178D01*
X475928Y340235D01*
X475818Y340289D01*
X475707Y340340D01*
X475594Y340386D01*
X475479Y340430D01*
X475364Y340469D01*
X475247Y340505D01*
X475129Y340538D01*
X475010Y340566D01*
X474890Y340591D01*
X474769Y340612D01*
X474648Y340629D01*
X474527Y340643D01*
X474405Y340652D01*
X474282Y340658D01*
X474160Y340660D01*
X466371Y340660D01*
X466249Y340658D01*
X466126Y340652D01*
X466004Y340643D01*
X465883Y340629D01*
X465762Y340612D01*
X465641Y340591D01*
X465521Y340566D01*
X465402Y340538D01*
X465284Y340505D01*
X465167Y340469D01*
X465052Y340430D01*
X464937Y340386D01*
X464824Y340340D01*
X464713Y340289D01*
X464603Y340235D01*
X464495Y340178D01*
X464388Y340118D01*
X464284Y340054D01*
X464182Y339986D01*
X464082Y339916D01*
X463984Y339843D01*
X463888Y339766D01*
X463795Y339687D01*
X463705Y339604D01*
X463617Y339519D01*
X463532Y339431D01*
X463449Y339341D01*
X463370Y339248D01*
X463293Y339152D01*
X463220Y339054D01*
X463150Y338954D01*
X463082Y338852D01*
X463018Y338748D01*
X462958Y338641D01*
X462901Y338533D01*
X462847Y338423D01*
X462796Y338312D01*
X462750Y338199D01*
X462706Y338084D01*
X462667Y337969D01*
X462631Y337852D01*
X462598Y337734D01*
X462570Y337615D01*
X462545Y337495D01*
X462524Y337374D01*
X462507Y337253D01*
X462493Y337132D01*
X462484Y337010D01*
X462478Y336887D01*
X462476Y336765D01*
X462476Y330274D01*
X462476Y352227D02*
X462476Y357420D01*
X462476Y352227D02*
X462478Y352105D01*
X462484Y351982D01*
X462493Y351860D01*
X462507Y351739D01*
X462524Y351618D01*
X462545Y351497D01*
X462570Y351377D01*
X462598Y351258D01*
X462631Y351140D01*
X462667Y351023D01*
X462706Y350908D01*
X462750Y350793D01*
X462796Y350680D01*
X462847Y350569D01*
X462901Y350459D01*
X462958Y350351D01*
X463018Y350244D01*
X463082Y350140D01*
X463150Y350038D01*
X463220Y349938D01*
X463293Y349840D01*
X463370Y349744D01*
X463449Y349651D01*
X463532Y349561D01*
X463617Y349473D01*
X463705Y349388D01*
X463795Y349305D01*
X463888Y349226D01*
X463984Y349149D01*
X464082Y349076D01*
X464182Y349006D01*
X464284Y348938D01*
X464388Y348874D01*
X464495Y348814D01*
X464603Y348757D01*
X464713Y348703D01*
X464824Y348652D01*
X464937Y348606D01*
X465052Y348562D01*
X465167Y348523D01*
X465284Y348487D01*
X465402Y348454D01*
X465521Y348426D01*
X465641Y348401D01*
X465762Y348380D01*
X465883Y348363D01*
X466004Y348349D01*
X466126Y348340D01*
X466249Y348334D01*
X466371Y348332D01*
X466371Y348333D02*
X474160Y348333D01*
X474160Y348332D02*
X474282Y348334D01*
X474405Y348340D01*
X474527Y348349D01*
X474648Y348363D01*
X474769Y348380D01*
X474890Y348401D01*
X475010Y348426D01*
X475129Y348454D01*
X475247Y348487D01*
X475364Y348523D01*
X475479Y348562D01*
X475594Y348606D01*
X475707Y348652D01*
X475818Y348703D01*
X475928Y348757D01*
X476036Y348814D01*
X476143Y348874D01*
X476247Y348938D01*
X476349Y349006D01*
X476449Y349076D01*
X476547Y349149D01*
X476643Y349226D01*
X476736Y349305D01*
X476826Y349388D01*
X476914Y349473D01*
X476999Y349561D01*
X477082Y349651D01*
X477161Y349744D01*
X477238Y349840D01*
X477311Y349938D01*
X477381Y350038D01*
X477449Y350140D01*
X477513Y350244D01*
X477573Y350351D01*
X477630Y350459D01*
X477684Y350569D01*
X477735Y350680D01*
X477781Y350793D01*
X477825Y350908D01*
X477864Y351023D01*
X477900Y351140D01*
X477933Y351258D01*
X477961Y351377D01*
X477986Y351497D01*
X478007Y351618D01*
X478024Y351739D01*
X478038Y351860D01*
X478047Y351982D01*
X478053Y352105D01*
X478055Y352227D01*
X478055Y357420D01*
X471564Y366273D02*
X468967Y372764D01*
X471564Y366273D02*
X471608Y366167D01*
X471657Y366062D01*
X471709Y365959D01*
X471764Y365858D01*
X471823Y365758D01*
X471885Y365661D01*
X471950Y365566D01*
X472019Y365474D01*
X472091Y365383D01*
X472165Y365296D01*
X472243Y365210D01*
X472324Y365128D01*
X472407Y365048D01*
X472493Y364972D01*
X472582Y364898D01*
X472673Y364827D01*
X472767Y364760D01*
X472863Y364696D01*
X472961Y364635D01*
X473060Y364577D01*
X473162Y364523D01*
X473266Y364473D01*
X473371Y364426D01*
X473478Y364382D01*
X473587Y364343D01*
X473696Y364307D01*
X473807Y364275D01*
X473919Y364246D01*
X474031Y364222D01*
X474145Y364201D01*
X474259Y364185D01*
X474374Y364172D01*
X474489Y364163D01*
X474604Y364158D01*
X474719Y364157D01*
X474834Y364160D01*
X474950Y364167D01*
X475064Y364178D01*
X475179Y364193D01*
X475292Y364212D01*
X475406Y364234D01*
X475518Y364261D01*
X475629Y364291D01*
X475739Y364325D01*
X475848Y364363D01*
X475956Y364404D01*
X476062Y364450D01*
X476166Y364499D01*
X476269Y364551D01*
X476370Y364607D01*
X476469Y364666D01*
X476566Y364729D01*
X476660Y364795D01*
X476753Y364864D01*
X476843Y364936D01*
X476930Y365011D01*
X477015Y365090D01*
X477097Y365171D01*
X477176Y365255D01*
X477252Y365341D01*
X477325Y365430D01*
X477395Y365522D01*
X477462Y365616D01*
X477526Y365712D01*
X477586Y365810D01*
X477643Y365910D01*
X477697Y366012D01*
X477747Y366116D01*
X477793Y366222D01*
X477836Y366329D01*
X477875Y366438D01*
X477910Y366547D01*
X477942Y366658D01*
X477970Y366770D01*
X477994Y366883D01*
X478014Y366997D01*
X478030Y367111D01*
X478042Y367225D01*
X478050Y367340D01*
X478054Y367456D01*
X478055Y367571D01*
X478054Y367570D02*
X478045Y367925D01*
X478027Y368279D01*
X478001Y368632D01*
X477966Y368985D01*
X477923Y369337D01*
X477871Y369688D01*
X477811Y370037D01*
X477742Y370385D01*
X477665Y370731D01*
X477580Y371075D01*
X477487Y371417D01*
X477385Y371756D01*
X477275Y372093D01*
X477158Y372428D01*
X477032Y372759D01*
X476898Y373087D01*
X476756Y373412D01*
X468967Y372764D02*
X468923Y372870D01*
X468874Y372975D01*
X468822Y373078D01*
X468767Y373179D01*
X468708Y373279D01*
X468646Y373376D01*
X468581Y373471D01*
X468512Y373563D01*
X468440Y373654D01*
X468366Y373741D01*
X468288Y373827D01*
X468207Y373909D01*
X468124Y373989D01*
X468038Y374065D01*
X467949Y374139D01*
X467858Y374210D01*
X467764Y374277D01*
X467668Y374341D01*
X467570Y374402D01*
X467471Y374460D01*
X467369Y374514D01*
X467265Y374564D01*
X467160Y374611D01*
X467053Y374655D01*
X466944Y374694D01*
X466835Y374730D01*
X466724Y374762D01*
X466612Y374791D01*
X466500Y374815D01*
X466386Y374836D01*
X466272Y374852D01*
X466157Y374865D01*
X466042Y374874D01*
X465927Y374879D01*
X465812Y374880D01*
X465697Y374877D01*
X465581Y374870D01*
X465467Y374859D01*
X465352Y374844D01*
X465239Y374825D01*
X465125Y374803D01*
X465013Y374776D01*
X464902Y374746D01*
X464792Y374712D01*
X464683Y374674D01*
X464575Y374633D01*
X464469Y374587D01*
X464365Y374538D01*
X464262Y374486D01*
X464161Y374430D01*
X464062Y374371D01*
X463965Y374308D01*
X463871Y374242D01*
X463778Y374173D01*
X463688Y374101D01*
X463601Y374026D01*
X463516Y373947D01*
X463434Y373866D01*
X463355Y373782D01*
X463279Y373696D01*
X463206Y373607D01*
X463136Y373515D01*
X463069Y373421D01*
X463005Y373325D01*
X462945Y373227D01*
X462888Y373127D01*
X462834Y373025D01*
X462784Y372921D01*
X462738Y372815D01*
X462695Y372708D01*
X462656Y372599D01*
X462621Y372490D01*
X462589Y372379D01*
X462561Y372267D01*
X462537Y372154D01*
X462517Y372040D01*
X462501Y371926D01*
X462489Y371812D01*
X462481Y371697D01*
X462477Y371581D01*
X462476Y371466D01*
X462490Y370945D01*
X462516Y370425D01*
X462554Y369906D01*
X462604Y369387D01*
X462667Y368870D01*
X462742Y368355D01*
X462829Y367842D01*
X462928Y367330D01*
X463040Y366822D01*
X463163Y366316D01*
X463298Y365813D01*
X463445Y365313D01*
X463604Y364817D01*
X463774Y364325D01*
X462476Y381724D02*
X478055Y392110D01*
X478055Y381724D02*
X462476Y392110D01*
X471564Y399311D02*
X471564Y414889D01*
X478055Y423546D02*
X462476Y423546D01*
X478055Y423546D02*
X478055Y431335D01*
X475458Y431335D01*
X462476Y441296D02*
X462476Y447787D01*
X462476Y441296D02*
X462478Y441174D01*
X462484Y441051D01*
X462493Y440929D01*
X462507Y440808D01*
X462524Y440687D01*
X462545Y440566D01*
X462570Y440446D01*
X462598Y440327D01*
X462631Y440209D01*
X462667Y440092D01*
X462706Y439977D01*
X462750Y439862D01*
X462796Y439749D01*
X462847Y439638D01*
X462901Y439528D01*
X462958Y439420D01*
X463018Y439313D01*
X463082Y439209D01*
X463150Y439107D01*
X463220Y439007D01*
X463293Y438909D01*
X463370Y438813D01*
X463449Y438720D01*
X463532Y438630D01*
X463617Y438542D01*
X463705Y438457D01*
X463795Y438374D01*
X463888Y438295D01*
X463984Y438218D01*
X464082Y438145D01*
X464182Y438075D01*
X464284Y438007D01*
X464388Y437943D01*
X464495Y437883D01*
X464603Y437826D01*
X464713Y437772D01*
X464824Y437721D01*
X464937Y437675D01*
X465052Y437631D01*
X465167Y437592D01*
X465284Y437556D01*
X465402Y437523D01*
X465521Y437495D01*
X465641Y437470D01*
X465762Y437449D01*
X465883Y437432D01*
X466004Y437418D01*
X466126Y437409D01*
X466249Y437403D01*
X466371Y437401D01*
X472862Y437401D01*
X473005Y437403D01*
X473148Y437409D01*
X473291Y437419D01*
X473433Y437433D01*
X473575Y437450D01*
X473717Y437472D01*
X473858Y437497D01*
X473998Y437527D01*
X474137Y437560D01*
X474275Y437597D01*
X474412Y437638D01*
X474548Y437682D01*
X474683Y437731D01*
X474816Y437783D01*
X474948Y437838D01*
X475078Y437898D01*
X475207Y437961D01*
X475334Y438027D01*
X475459Y438097D01*
X475581Y438170D01*
X475702Y438247D01*
X475821Y438327D01*
X475937Y438410D01*
X476052Y438496D01*
X476163Y438585D01*
X476273Y438678D01*
X476379Y438773D01*
X476483Y438872D01*
X476584Y438973D01*
X476683Y439077D01*
X476778Y439183D01*
X476871Y439293D01*
X476960Y439404D01*
X477046Y439519D01*
X477129Y439635D01*
X477209Y439754D01*
X477286Y439875D01*
X477359Y439997D01*
X477429Y440122D01*
X477495Y440249D01*
X477558Y440378D01*
X477618Y440508D01*
X477673Y440640D01*
X477725Y440773D01*
X477774Y440908D01*
X477818Y441044D01*
X477859Y441181D01*
X477896Y441319D01*
X477929Y441458D01*
X477959Y441598D01*
X477984Y441739D01*
X478006Y441881D01*
X478023Y442023D01*
X478037Y442165D01*
X478047Y442308D01*
X478053Y442451D01*
X478055Y442594D01*
X478053Y442737D01*
X478047Y442880D01*
X478037Y443023D01*
X478023Y443165D01*
X478006Y443307D01*
X477984Y443449D01*
X477959Y443590D01*
X477929Y443730D01*
X477896Y443869D01*
X477859Y444007D01*
X477818Y444144D01*
X477774Y444280D01*
X477725Y444415D01*
X477673Y444548D01*
X477618Y444680D01*
X477558Y444810D01*
X477495Y444939D01*
X477429Y445066D01*
X477359Y445190D01*
X477286Y445313D01*
X477209Y445434D01*
X477129Y445553D01*
X477046Y445669D01*
X476960Y445784D01*
X476871Y445895D01*
X476778Y446005D01*
X476683Y446111D01*
X476584Y446215D01*
X476483Y446316D01*
X476379Y446415D01*
X476273Y446510D01*
X476163Y446603D01*
X476052Y446692D01*
X475937Y446778D01*
X475821Y446861D01*
X475702Y446941D01*
X475581Y447018D01*
X475459Y447091D01*
X475334Y447161D01*
X475207Y447227D01*
X475078Y447290D01*
X474948Y447350D01*
X474816Y447405D01*
X474683Y447457D01*
X474548Y447506D01*
X474412Y447550D01*
X474275Y447591D01*
X474137Y447628D01*
X473998Y447661D01*
X473858Y447691D01*
X473717Y447716D01*
X473575Y447738D01*
X473433Y447755D01*
X473291Y447769D01*
X473148Y447779D01*
X473005Y447785D01*
X472862Y447787D01*
X470265Y447787D01*
X470265Y437401D01*
X462476Y465831D02*
X485844Y465831D01*
X462476Y465831D02*
X462476Y459340D01*
X462478Y459218D01*
X462484Y459095D01*
X462493Y458973D01*
X462507Y458852D01*
X462524Y458731D01*
X462545Y458610D01*
X462570Y458490D01*
X462598Y458371D01*
X462631Y458253D01*
X462667Y458136D01*
X462706Y458021D01*
X462750Y457906D01*
X462796Y457793D01*
X462847Y457682D01*
X462901Y457572D01*
X462958Y457464D01*
X463018Y457357D01*
X463082Y457253D01*
X463150Y457151D01*
X463220Y457051D01*
X463293Y456953D01*
X463370Y456857D01*
X463449Y456764D01*
X463532Y456674D01*
X463617Y456586D01*
X463705Y456501D01*
X463795Y456418D01*
X463888Y456339D01*
X463984Y456262D01*
X464082Y456189D01*
X464182Y456119D01*
X464284Y456051D01*
X464388Y455987D01*
X464495Y455927D01*
X464603Y455870D01*
X464713Y455816D01*
X464824Y455765D01*
X464937Y455719D01*
X465052Y455675D01*
X465167Y455636D01*
X465284Y455600D01*
X465402Y455567D01*
X465521Y455539D01*
X465641Y455514D01*
X465762Y455493D01*
X465883Y455476D01*
X466004Y455462D01*
X466126Y455453D01*
X466249Y455447D01*
X466371Y455445D01*
X474160Y455445D01*
X474160Y455444D02*
X474282Y455446D01*
X474405Y455452D01*
X474527Y455461D01*
X474648Y455475D01*
X474769Y455492D01*
X474890Y455513D01*
X475010Y455538D01*
X475129Y455566D01*
X475247Y455599D01*
X475364Y455635D01*
X475479Y455674D01*
X475594Y455718D01*
X475707Y455764D01*
X475818Y455815D01*
X475928Y455869D01*
X476036Y455926D01*
X476143Y455986D01*
X476247Y456050D01*
X476349Y456118D01*
X476449Y456188D01*
X476547Y456261D01*
X476643Y456338D01*
X476736Y456417D01*
X476826Y456500D01*
X476914Y456585D01*
X476999Y456673D01*
X477082Y456763D01*
X477161Y456856D01*
X477238Y456952D01*
X477311Y457050D01*
X477381Y457150D01*
X477449Y457252D01*
X477513Y457356D01*
X477573Y457463D01*
X477630Y457571D01*
X477684Y457681D01*
X477735Y457792D01*
X477781Y457905D01*
X477825Y458020D01*
X477864Y458135D01*
X477900Y458252D01*
X477933Y458370D01*
X477961Y458489D01*
X477986Y458609D01*
X478007Y458730D01*
X478024Y458851D01*
X478038Y458972D01*
X478047Y459094D01*
X478053Y459217D01*
X478055Y459339D01*
X478055Y459340D02*
X478055Y465831D01*
X478055Y474983D02*
X466371Y474983D01*
X466371Y474982D02*
X466249Y474984D01*
X466126Y474990D01*
X466004Y474999D01*
X465883Y475013D01*
X465762Y475030D01*
X465641Y475051D01*
X465521Y475076D01*
X465402Y475104D01*
X465284Y475137D01*
X465167Y475173D01*
X465052Y475212D01*
X464937Y475256D01*
X464824Y475302D01*
X464713Y475353D01*
X464603Y475407D01*
X464495Y475464D01*
X464388Y475524D01*
X464284Y475588D01*
X464182Y475656D01*
X464082Y475726D01*
X463984Y475799D01*
X463888Y475876D01*
X463795Y475955D01*
X463705Y476038D01*
X463617Y476123D01*
X463532Y476211D01*
X463449Y476301D01*
X463370Y476394D01*
X463293Y476490D01*
X463220Y476588D01*
X463150Y476688D01*
X463082Y476790D01*
X463018Y476894D01*
X462958Y477001D01*
X462901Y477109D01*
X462847Y477219D01*
X462796Y477330D01*
X462750Y477443D01*
X462706Y477558D01*
X462667Y477673D01*
X462631Y477790D01*
X462598Y477908D01*
X462570Y478027D01*
X462545Y478147D01*
X462524Y478268D01*
X462507Y478389D01*
X462493Y478510D01*
X462484Y478632D01*
X462478Y478755D01*
X462476Y478877D01*
X462476Y485368D01*
X478055Y485368D01*
X462476Y493078D02*
X478055Y503463D01*
X478055Y493078D02*
X462476Y503463D01*
D11*
X513826Y529717D02*
X513826Y537083D01*
X511780Y537083D01*
X511691Y537081D01*
X511602Y537075D01*
X511513Y537065D01*
X511425Y537052D01*
X511337Y537035D01*
X511250Y537013D01*
X511165Y536988D01*
X511080Y536960D01*
X510997Y536927D01*
X510915Y536891D01*
X510835Y536852D01*
X510757Y536809D01*
X510681Y536763D01*
X510606Y536713D01*
X510534Y536660D01*
X510465Y536604D01*
X510398Y536545D01*
X510333Y536484D01*
X510272Y536419D01*
X510213Y536352D01*
X510157Y536283D01*
X510104Y536211D01*
X510054Y536136D01*
X510008Y536060D01*
X509965Y535982D01*
X509926Y535902D01*
X509890Y535820D01*
X509857Y535737D01*
X509829Y535652D01*
X509804Y535567D01*
X509782Y535480D01*
X509765Y535392D01*
X509752Y535304D01*
X509742Y535215D01*
X509736Y535126D01*
X509734Y535037D01*
X509733Y535037D02*
X509733Y531763D01*
X509734Y531763D02*
X509736Y531674D01*
X509742Y531585D01*
X509752Y531496D01*
X509765Y531408D01*
X509782Y531320D01*
X509804Y531233D01*
X509829Y531148D01*
X509857Y531063D01*
X509890Y530980D01*
X509926Y530898D01*
X509965Y530818D01*
X510008Y530740D01*
X510054Y530664D01*
X510104Y530589D01*
X510157Y530517D01*
X510213Y530448D01*
X510272Y530381D01*
X510333Y530316D01*
X510398Y530255D01*
X510465Y530196D01*
X510534Y530140D01*
X510606Y530087D01*
X510681Y530037D01*
X510757Y529991D01*
X510835Y529948D01*
X510915Y529909D01*
X510997Y529873D01*
X511080Y529840D01*
X511165Y529812D01*
X511250Y529787D01*
X511337Y529765D01*
X511425Y529748D01*
X511513Y529735D01*
X511602Y529725D01*
X511691Y529719D01*
X511780Y529717D01*
X513826Y529717D01*
X506266Y533400D02*
X506264Y533553D01*
X506258Y533706D01*
X506249Y533858D01*
X506235Y534011D01*
X506218Y534163D01*
X506197Y534314D01*
X506172Y534465D01*
X506143Y534615D01*
X506111Y534765D01*
X506074Y534913D01*
X506034Y535061D01*
X505991Y535208D01*
X505943Y535353D01*
X505892Y535497D01*
X505838Y535640D01*
X505779Y535782D01*
X505718Y535921D01*
X505652Y536060D01*
X505653Y536060D02*
X505627Y536130D01*
X505597Y536199D01*
X505565Y536267D01*
X505528Y536333D01*
X505489Y536397D01*
X505446Y536459D01*
X505401Y536518D01*
X505352Y536576D01*
X505301Y536630D01*
X505247Y536683D01*
X505190Y536732D01*
X505131Y536779D01*
X505070Y536822D01*
X505007Y536863D01*
X504942Y536900D01*
X504875Y536935D01*
X504806Y536965D01*
X504736Y536993D01*
X504665Y537016D01*
X504593Y537037D01*
X504520Y537053D01*
X504446Y537066D01*
X504371Y537076D01*
X504296Y537081D01*
X504221Y537083D01*
X504146Y537081D01*
X504071Y537076D01*
X503996Y537066D01*
X503922Y537053D01*
X503849Y537037D01*
X503777Y537016D01*
X503706Y536993D01*
X503636Y536965D01*
X503567Y536935D01*
X503500Y536900D01*
X503435Y536863D01*
X503372Y536822D01*
X503311Y536779D01*
X503252Y536732D01*
X503195Y536683D01*
X503141Y536630D01*
X503090Y536576D01*
X503042Y536518D01*
X502996Y536459D01*
X502953Y536397D01*
X502914Y536333D01*
X502878Y536267D01*
X502845Y536200D01*
X502815Y536130D01*
X502789Y536060D01*
X502788Y536060D02*
X502723Y535922D01*
X502661Y535782D01*
X502603Y535640D01*
X502548Y535497D01*
X502497Y535353D01*
X502449Y535208D01*
X502406Y535061D01*
X502366Y534914D01*
X502329Y534765D01*
X502297Y534615D01*
X502268Y534465D01*
X502243Y534314D01*
X502222Y534163D01*
X502205Y534011D01*
X502191Y533858D01*
X502182Y533706D01*
X502176Y533553D01*
X502174Y533400D01*
X506267Y533400D02*
X506265Y533247D01*
X506259Y533094D01*
X506250Y532941D01*
X506236Y532789D01*
X506219Y532637D01*
X506198Y532486D01*
X506173Y532335D01*
X506144Y532184D01*
X506112Y532035D01*
X506075Y531886D01*
X506035Y531739D01*
X505992Y531592D01*
X505944Y531447D01*
X505893Y531302D01*
X505838Y531160D01*
X505780Y531018D01*
X505718Y530878D01*
X505653Y530740D01*
X505627Y530670D01*
X505597Y530600D01*
X505565Y530533D01*
X505528Y530467D01*
X505489Y530403D01*
X505446Y530341D01*
X505400Y530282D01*
X505352Y530224D01*
X505301Y530170D01*
X505247Y530117D01*
X505190Y530068D01*
X505131Y530021D01*
X505070Y529978D01*
X505007Y529937D01*
X504942Y529900D01*
X504875Y529865D01*
X504806Y529835D01*
X504736Y529807D01*
X504665Y529784D01*
X504593Y529763D01*
X504520Y529747D01*
X504446Y529734D01*
X504371Y529724D01*
X504296Y529719D01*
X504221Y529717D01*
X502789Y530740D02*
X502724Y530878D01*
X502662Y531018D01*
X502604Y531160D01*
X502549Y531303D01*
X502498Y531447D01*
X502450Y531592D01*
X502407Y531739D01*
X502367Y531887D01*
X502330Y532035D01*
X502298Y532185D01*
X502269Y532335D01*
X502244Y532486D01*
X502223Y532637D01*
X502206Y532789D01*
X502192Y532942D01*
X502183Y533094D01*
X502177Y533247D01*
X502175Y533400D01*
X502789Y530740D02*
X502815Y530669D01*
X502845Y530600D01*
X502878Y530533D01*
X502914Y530467D01*
X502953Y530403D01*
X502996Y530341D01*
X503042Y530282D01*
X503090Y530224D01*
X503141Y530170D01*
X503195Y530117D01*
X503252Y530068D01*
X503311Y530021D01*
X503372Y529978D01*
X503435Y529937D01*
X503500Y529900D01*
X503567Y529865D01*
X503636Y529835D01*
X503706Y529807D01*
X503777Y529784D01*
X503849Y529763D01*
X503922Y529747D01*
X503996Y529734D01*
X504071Y529724D01*
X504146Y529719D01*
X504221Y529717D01*
X505857Y531354D02*
X502584Y535446D01*
X488426Y537083D02*
X488426Y529717D01*
X488426Y537083D02*
X486380Y537083D01*
X486291Y537081D01*
X486202Y537075D01*
X486113Y537065D01*
X486025Y537052D01*
X485937Y537035D01*
X485850Y537013D01*
X485765Y536988D01*
X485680Y536960D01*
X485597Y536927D01*
X485515Y536891D01*
X485435Y536852D01*
X485357Y536809D01*
X485281Y536763D01*
X485206Y536713D01*
X485134Y536660D01*
X485065Y536604D01*
X484998Y536545D01*
X484933Y536484D01*
X484872Y536419D01*
X484813Y536352D01*
X484757Y536283D01*
X484704Y536211D01*
X484654Y536136D01*
X484608Y536060D01*
X484565Y535982D01*
X484526Y535902D01*
X484490Y535820D01*
X484457Y535737D01*
X484429Y535652D01*
X484404Y535567D01*
X484382Y535480D01*
X484365Y535392D01*
X484352Y535304D01*
X484342Y535215D01*
X484336Y535126D01*
X484334Y535037D01*
X484333Y535037D02*
X484333Y531763D01*
X484334Y531763D02*
X484336Y531674D01*
X484342Y531585D01*
X484352Y531496D01*
X484365Y531408D01*
X484382Y531320D01*
X484404Y531233D01*
X484429Y531148D01*
X484457Y531063D01*
X484490Y530980D01*
X484526Y530898D01*
X484565Y530818D01*
X484608Y530740D01*
X484654Y530664D01*
X484704Y530589D01*
X484757Y530517D01*
X484813Y530448D01*
X484872Y530381D01*
X484933Y530316D01*
X484998Y530255D01*
X485065Y530196D01*
X485134Y530140D01*
X485206Y530087D01*
X485281Y530037D01*
X485357Y529991D01*
X485435Y529948D01*
X485515Y529909D01*
X485597Y529873D01*
X485680Y529840D01*
X485765Y529812D01*
X485850Y529787D01*
X485937Y529765D01*
X486025Y529748D01*
X486113Y529735D01*
X486202Y529725D01*
X486291Y529719D01*
X486380Y529717D01*
X488426Y529717D01*
X480867Y535446D02*
X478821Y537083D01*
X478821Y529717D01*
X480867Y529717D02*
X476774Y529717D01*
X463026Y529717D02*
X463026Y537083D01*
X460980Y537083D01*
X460891Y537081D01*
X460802Y537075D01*
X460713Y537065D01*
X460625Y537052D01*
X460537Y537035D01*
X460450Y537013D01*
X460365Y536988D01*
X460280Y536960D01*
X460197Y536927D01*
X460115Y536891D01*
X460035Y536852D01*
X459957Y536809D01*
X459881Y536763D01*
X459806Y536713D01*
X459734Y536660D01*
X459665Y536604D01*
X459598Y536545D01*
X459533Y536484D01*
X459472Y536419D01*
X459413Y536352D01*
X459357Y536283D01*
X459304Y536211D01*
X459254Y536136D01*
X459208Y536060D01*
X459165Y535982D01*
X459126Y535902D01*
X459090Y535820D01*
X459057Y535737D01*
X459029Y535652D01*
X459004Y535567D01*
X458982Y535480D01*
X458965Y535392D01*
X458952Y535304D01*
X458942Y535215D01*
X458936Y535126D01*
X458934Y535037D01*
X458933Y535037D02*
X458933Y531763D01*
X458934Y531763D02*
X458936Y531674D01*
X458942Y531585D01*
X458952Y531496D01*
X458965Y531408D01*
X458982Y531320D01*
X459004Y531233D01*
X459029Y531148D01*
X459057Y531063D01*
X459090Y530980D01*
X459126Y530898D01*
X459165Y530818D01*
X459208Y530740D01*
X459254Y530664D01*
X459304Y530589D01*
X459357Y530517D01*
X459413Y530448D01*
X459472Y530381D01*
X459533Y530316D01*
X459598Y530255D01*
X459665Y530196D01*
X459734Y530140D01*
X459806Y530087D01*
X459881Y530037D01*
X459957Y529991D01*
X460035Y529948D01*
X460115Y529909D01*
X460197Y529873D01*
X460280Y529840D01*
X460365Y529812D01*
X460450Y529787D01*
X460537Y529765D01*
X460625Y529748D01*
X460713Y529735D01*
X460802Y529725D01*
X460891Y529719D01*
X460980Y529717D01*
X463026Y529717D01*
X453216Y537084D02*
X453131Y537082D01*
X453046Y537076D01*
X452962Y537066D01*
X452878Y537053D01*
X452794Y537035D01*
X452712Y537014D01*
X452631Y536989D01*
X452551Y536960D01*
X452472Y536927D01*
X452395Y536891D01*
X452320Y536851D01*
X452246Y536808D01*
X452175Y536762D01*
X452106Y536712D01*
X452039Y536659D01*
X451975Y536603D01*
X451914Y536544D01*
X451855Y536483D01*
X451799Y536419D01*
X451746Y536352D01*
X451696Y536283D01*
X451650Y536212D01*
X451607Y536138D01*
X451567Y536063D01*
X451531Y535986D01*
X451498Y535907D01*
X451469Y535827D01*
X451444Y535746D01*
X451423Y535664D01*
X451405Y535580D01*
X451392Y535496D01*
X451382Y535412D01*
X451376Y535327D01*
X451374Y535242D01*
X453216Y537083D02*
X453312Y537081D01*
X453408Y537075D01*
X453503Y537065D01*
X453598Y537052D01*
X453693Y537034D01*
X453786Y537013D01*
X453879Y536988D01*
X453970Y536959D01*
X454061Y536927D01*
X454150Y536891D01*
X454237Y536851D01*
X454323Y536808D01*
X454407Y536762D01*
X454489Y536712D01*
X454569Y536658D01*
X454646Y536602D01*
X454721Y536542D01*
X454794Y536480D01*
X454864Y536414D01*
X454932Y536346D01*
X454997Y536275D01*
X455058Y536202D01*
X455117Y536126D01*
X455173Y536047D01*
X455225Y535967D01*
X455274Y535884D01*
X455320Y535800D01*
X455362Y535714D01*
X455400Y535626D01*
X455435Y535537D01*
X455467Y535446D01*
X451988Y533810D02*
X451928Y533869D01*
X451871Y533931D01*
X451816Y533995D01*
X451765Y534062D01*
X451716Y534131D01*
X451670Y534201D01*
X451627Y534274D01*
X451587Y534348D01*
X451551Y534424D01*
X451518Y534502D01*
X451488Y534581D01*
X451461Y534661D01*
X451438Y534742D01*
X451419Y534824D01*
X451403Y534906D01*
X451390Y534990D01*
X451381Y535074D01*
X451376Y535158D01*
X451374Y535242D01*
X451988Y533809D02*
X455467Y529717D01*
X451374Y529717D01*
X437626Y529717D02*
X437626Y537083D01*
X435580Y537083D01*
X435491Y537081D01*
X435402Y537075D01*
X435313Y537065D01*
X435225Y537052D01*
X435137Y537035D01*
X435050Y537013D01*
X434965Y536988D01*
X434880Y536960D01*
X434797Y536927D01*
X434715Y536891D01*
X434635Y536852D01*
X434557Y536809D01*
X434481Y536763D01*
X434406Y536713D01*
X434334Y536660D01*
X434265Y536604D01*
X434198Y536545D01*
X434133Y536484D01*
X434072Y536419D01*
X434013Y536352D01*
X433957Y536283D01*
X433904Y536211D01*
X433854Y536136D01*
X433808Y536060D01*
X433765Y535982D01*
X433726Y535902D01*
X433690Y535820D01*
X433657Y535737D01*
X433629Y535652D01*
X433604Y535567D01*
X433582Y535480D01*
X433565Y535392D01*
X433552Y535304D01*
X433542Y535215D01*
X433536Y535126D01*
X433534Y535037D01*
X433533Y535037D02*
X433533Y531763D01*
X433534Y531763D02*
X433536Y531674D01*
X433542Y531585D01*
X433552Y531496D01*
X433565Y531408D01*
X433582Y531320D01*
X433604Y531233D01*
X433629Y531148D01*
X433657Y531063D01*
X433690Y530980D01*
X433726Y530898D01*
X433765Y530818D01*
X433808Y530740D01*
X433854Y530664D01*
X433904Y530589D01*
X433957Y530517D01*
X434013Y530448D01*
X434072Y530381D01*
X434133Y530316D01*
X434198Y530255D01*
X434265Y530196D01*
X434334Y530140D01*
X434406Y530087D01*
X434481Y530037D01*
X434557Y529991D01*
X434635Y529948D01*
X434715Y529909D01*
X434797Y529873D01*
X434880Y529840D01*
X434965Y529812D01*
X435050Y529787D01*
X435137Y529765D01*
X435225Y529748D01*
X435313Y529735D01*
X435402Y529725D01*
X435491Y529719D01*
X435580Y529717D01*
X437626Y529717D01*
X430067Y529717D02*
X428021Y529717D01*
X427932Y529719D01*
X427843Y529725D01*
X427754Y529735D01*
X427666Y529748D01*
X427578Y529765D01*
X427491Y529787D01*
X427406Y529812D01*
X427321Y529840D01*
X427238Y529873D01*
X427156Y529909D01*
X427076Y529948D01*
X426998Y529991D01*
X426922Y530037D01*
X426847Y530087D01*
X426775Y530140D01*
X426706Y530196D01*
X426639Y530255D01*
X426574Y530316D01*
X426513Y530381D01*
X426454Y530448D01*
X426398Y530517D01*
X426345Y530589D01*
X426295Y530664D01*
X426249Y530740D01*
X426206Y530818D01*
X426167Y530898D01*
X426131Y530980D01*
X426098Y531063D01*
X426070Y531148D01*
X426045Y531233D01*
X426023Y531320D01*
X426006Y531408D01*
X425993Y531496D01*
X425983Y531585D01*
X425977Y531674D01*
X425975Y531763D01*
X425977Y531852D01*
X425983Y531941D01*
X425993Y532030D01*
X426006Y532118D01*
X426023Y532206D01*
X426045Y532293D01*
X426070Y532378D01*
X426098Y532463D01*
X426131Y532546D01*
X426167Y532628D01*
X426206Y532708D01*
X426249Y532786D01*
X426295Y532862D01*
X426345Y532937D01*
X426398Y533009D01*
X426454Y533078D01*
X426513Y533145D01*
X426574Y533210D01*
X426639Y533271D01*
X426706Y533330D01*
X426775Y533386D01*
X426847Y533439D01*
X426922Y533489D01*
X426998Y533535D01*
X427076Y533578D01*
X427156Y533617D01*
X427238Y533653D01*
X427321Y533686D01*
X427406Y533714D01*
X427491Y533739D01*
X427578Y533761D01*
X427666Y533778D01*
X427754Y533791D01*
X427843Y533801D01*
X427932Y533807D01*
X428021Y533809D01*
X427611Y537083D02*
X430067Y537083D01*
X427611Y537083D02*
X427532Y537081D01*
X427453Y537075D01*
X427374Y537066D01*
X427296Y537053D01*
X427219Y537035D01*
X427143Y537015D01*
X427068Y536990D01*
X426994Y536962D01*
X426921Y536931D01*
X426850Y536895D01*
X426781Y536857D01*
X426714Y536815D01*
X426649Y536770D01*
X426586Y536722D01*
X426525Y536671D01*
X426468Y536617D01*
X426412Y536561D01*
X426360Y536502D01*
X426310Y536440D01*
X426264Y536376D01*
X426220Y536310D01*
X426180Y536242D01*
X426144Y536172D01*
X426110Y536100D01*
X426080Y536026D01*
X426054Y535952D01*
X426031Y535876D01*
X426013Y535799D01*
X425997Y535722D01*
X425986Y535643D01*
X425978Y535565D01*
X425974Y535486D01*
X425974Y535406D01*
X425978Y535327D01*
X425986Y535249D01*
X425997Y535170D01*
X426013Y535093D01*
X426031Y535016D01*
X426054Y534940D01*
X426080Y534866D01*
X426110Y534792D01*
X426144Y534720D01*
X426180Y534650D01*
X426220Y534582D01*
X426264Y534516D01*
X426310Y534452D01*
X426360Y534390D01*
X426412Y534331D01*
X426468Y534275D01*
X426525Y534221D01*
X426586Y534170D01*
X426649Y534122D01*
X426714Y534077D01*
X426781Y534035D01*
X426850Y533997D01*
X426921Y533961D01*
X426994Y533930D01*
X427068Y533902D01*
X427143Y533877D01*
X427219Y533857D01*
X427296Y533839D01*
X427374Y533826D01*
X427453Y533817D01*
X427532Y533811D01*
X427611Y533809D01*
X429248Y533809D01*
X412226Y537083D02*
X412226Y529717D01*
X412226Y537083D02*
X410180Y537083D01*
X410091Y537081D01*
X410002Y537075D01*
X409913Y537065D01*
X409825Y537052D01*
X409737Y537035D01*
X409650Y537013D01*
X409565Y536988D01*
X409480Y536960D01*
X409397Y536927D01*
X409315Y536891D01*
X409235Y536852D01*
X409157Y536809D01*
X409081Y536763D01*
X409006Y536713D01*
X408934Y536660D01*
X408865Y536604D01*
X408798Y536545D01*
X408733Y536484D01*
X408672Y536419D01*
X408613Y536352D01*
X408557Y536283D01*
X408504Y536211D01*
X408454Y536136D01*
X408408Y536060D01*
X408365Y535982D01*
X408326Y535902D01*
X408290Y535820D01*
X408257Y535737D01*
X408229Y535652D01*
X408204Y535567D01*
X408182Y535480D01*
X408165Y535392D01*
X408152Y535304D01*
X408142Y535215D01*
X408136Y535126D01*
X408134Y535037D01*
X408133Y535037D02*
X408133Y531763D01*
X408134Y531763D02*
X408136Y531674D01*
X408142Y531585D01*
X408152Y531496D01*
X408165Y531408D01*
X408182Y531320D01*
X408204Y531233D01*
X408229Y531148D01*
X408257Y531063D01*
X408290Y530980D01*
X408326Y530898D01*
X408365Y530818D01*
X408408Y530740D01*
X408454Y530664D01*
X408504Y530589D01*
X408557Y530517D01*
X408613Y530448D01*
X408672Y530381D01*
X408733Y530316D01*
X408798Y530255D01*
X408865Y530196D01*
X408934Y530140D01*
X409006Y530087D01*
X409081Y530037D01*
X409157Y529991D01*
X409235Y529948D01*
X409315Y529909D01*
X409397Y529873D01*
X409480Y529840D01*
X409565Y529812D01*
X409650Y529787D01*
X409737Y529765D01*
X409825Y529748D01*
X409913Y529735D01*
X410002Y529725D01*
X410091Y529719D01*
X410180Y529717D01*
X412226Y529717D01*
X404667Y531354D02*
X403030Y537083D01*
X404667Y531354D02*
X400574Y531354D01*
X401802Y532991D02*
X401802Y529717D01*
X386826Y529717D02*
X386826Y537083D01*
X384780Y537083D01*
X384691Y537081D01*
X384602Y537075D01*
X384513Y537065D01*
X384425Y537052D01*
X384337Y537035D01*
X384250Y537013D01*
X384165Y536988D01*
X384080Y536960D01*
X383997Y536927D01*
X383915Y536891D01*
X383835Y536852D01*
X383757Y536809D01*
X383681Y536763D01*
X383606Y536713D01*
X383534Y536660D01*
X383465Y536604D01*
X383398Y536545D01*
X383333Y536484D01*
X383272Y536419D01*
X383213Y536352D01*
X383157Y536283D01*
X383104Y536211D01*
X383054Y536136D01*
X383008Y536060D01*
X382965Y535982D01*
X382926Y535902D01*
X382890Y535820D01*
X382857Y535737D01*
X382829Y535652D01*
X382804Y535567D01*
X382782Y535480D01*
X382765Y535392D01*
X382752Y535304D01*
X382742Y535215D01*
X382736Y535126D01*
X382734Y535037D01*
X382733Y535037D02*
X382733Y531763D01*
X382734Y531763D02*
X382736Y531674D01*
X382742Y531585D01*
X382752Y531496D01*
X382765Y531408D01*
X382782Y531320D01*
X382804Y531233D01*
X382829Y531148D01*
X382857Y531063D01*
X382890Y530980D01*
X382926Y530898D01*
X382965Y530818D01*
X383008Y530740D01*
X383054Y530664D01*
X383104Y530589D01*
X383157Y530517D01*
X383213Y530448D01*
X383272Y530381D01*
X383333Y530316D01*
X383398Y530255D01*
X383465Y530196D01*
X383534Y530140D01*
X383606Y530087D01*
X383681Y530037D01*
X383757Y529991D01*
X383835Y529948D01*
X383915Y529909D01*
X383997Y529873D01*
X384080Y529840D01*
X384165Y529812D01*
X384250Y529787D01*
X384337Y529765D01*
X384425Y529748D01*
X384513Y529735D01*
X384602Y529725D01*
X384691Y529719D01*
X384780Y529717D01*
X386826Y529717D01*
X379267Y529717D02*
X376811Y529717D01*
X376731Y529719D01*
X376651Y529725D01*
X376571Y529735D01*
X376492Y529748D01*
X376413Y529766D01*
X376336Y529787D01*
X376260Y529813D01*
X376185Y529842D01*
X376111Y529874D01*
X376039Y529910D01*
X375969Y529950D01*
X375902Y529993D01*
X375836Y530039D01*
X375773Y530089D01*
X375712Y530141D01*
X375653Y530196D01*
X375598Y530255D01*
X375546Y530315D01*
X375496Y530379D01*
X375450Y530444D01*
X375407Y530512D01*
X375367Y530582D01*
X375331Y530654D01*
X375299Y530728D01*
X375270Y530802D01*
X375245Y530879D01*
X375223Y530956D01*
X375205Y531035D01*
X375192Y531114D01*
X375182Y531193D01*
X375176Y531274D01*
X375174Y531354D01*
X375174Y532172D01*
X375176Y532250D01*
X375181Y532328D01*
X375191Y532405D01*
X375204Y532482D01*
X375220Y532558D01*
X375240Y532633D01*
X375264Y532707D01*
X375291Y532780D01*
X375322Y532852D01*
X375356Y532922D01*
X375393Y532991D01*
X375434Y533057D01*
X375478Y533122D01*
X375524Y533184D01*
X375574Y533244D01*
X375626Y533302D01*
X375681Y533357D01*
X375739Y533409D01*
X375799Y533459D01*
X375861Y533505D01*
X375926Y533549D01*
X375993Y533590D01*
X376061Y533627D01*
X376131Y533661D01*
X376203Y533692D01*
X376276Y533719D01*
X376350Y533743D01*
X376425Y533763D01*
X376501Y533779D01*
X376578Y533792D01*
X376655Y533802D01*
X376733Y533807D01*
X376811Y533809D01*
X379267Y533809D01*
X379267Y537083D01*
X375174Y537083D01*
X361426Y537083D02*
X361426Y529717D01*
X361426Y537083D02*
X359380Y537083D01*
X359291Y537081D01*
X359202Y537075D01*
X359113Y537065D01*
X359025Y537052D01*
X358937Y537035D01*
X358850Y537013D01*
X358765Y536988D01*
X358680Y536960D01*
X358597Y536927D01*
X358515Y536891D01*
X358435Y536852D01*
X358357Y536809D01*
X358281Y536763D01*
X358206Y536713D01*
X358134Y536660D01*
X358065Y536604D01*
X357998Y536545D01*
X357933Y536484D01*
X357872Y536419D01*
X357813Y536352D01*
X357757Y536283D01*
X357704Y536211D01*
X357654Y536136D01*
X357608Y536060D01*
X357565Y535982D01*
X357526Y535902D01*
X357490Y535820D01*
X357457Y535737D01*
X357429Y535652D01*
X357404Y535567D01*
X357382Y535480D01*
X357365Y535392D01*
X357352Y535304D01*
X357342Y535215D01*
X357336Y535126D01*
X357334Y535037D01*
X357333Y535037D02*
X357333Y531763D01*
X357334Y531763D02*
X357336Y531674D01*
X357342Y531585D01*
X357352Y531496D01*
X357365Y531408D01*
X357382Y531320D01*
X357404Y531233D01*
X357429Y531148D01*
X357457Y531063D01*
X357490Y530980D01*
X357526Y530898D01*
X357565Y530818D01*
X357608Y530740D01*
X357654Y530664D01*
X357704Y530589D01*
X357757Y530517D01*
X357813Y530448D01*
X357872Y530381D01*
X357933Y530316D01*
X357998Y530255D01*
X358065Y530196D01*
X358134Y530140D01*
X358206Y530087D01*
X358281Y530037D01*
X358357Y529991D01*
X358435Y529948D01*
X358515Y529909D01*
X358597Y529873D01*
X358680Y529840D01*
X358765Y529812D01*
X358850Y529787D01*
X358937Y529765D01*
X359025Y529748D01*
X359113Y529735D01*
X359202Y529725D01*
X359291Y529719D01*
X359380Y529717D01*
X361426Y529717D01*
X353867Y533809D02*
X351411Y533809D01*
X351331Y533807D01*
X351251Y533801D01*
X351171Y533791D01*
X351092Y533778D01*
X351013Y533760D01*
X350936Y533739D01*
X350860Y533713D01*
X350785Y533684D01*
X350711Y533652D01*
X350639Y533616D01*
X350569Y533576D01*
X350502Y533533D01*
X350436Y533487D01*
X350373Y533437D01*
X350312Y533385D01*
X350253Y533330D01*
X350198Y533271D01*
X350146Y533211D01*
X350096Y533147D01*
X350050Y533081D01*
X350007Y533014D01*
X349967Y532944D01*
X349931Y532872D01*
X349899Y532798D01*
X349870Y532724D01*
X349844Y532647D01*
X349823Y532570D01*
X349805Y532491D01*
X349792Y532412D01*
X349782Y532332D01*
X349776Y532252D01*
X349774Y532172D01*
X349774Y531763D01*
X349776Y531674D01*
X349782Y531585D01*
X349792Y531496D01*
X349805Y531408D01*
X349822Y531320D01*
X349844Y531233D01*
X349869Y531148D01*
X349897Y531063D01*
X349930Y530980D01*
X349966Y530898D01*
X350005Y530818D01*
X350048Y530740D01*
X350094Y530664D01*
X350144Y530589D01*
X350197Y530517D01*
X350253Y530448D01*
X350312Y530381D01*
X350373Y530316D01*
X350438Y530255D01*
X350505Y530196D01*
X350574Y530140D01*
X350646Y530087D01*
X350721Y530037D01*
X350797Y529991D01*
X350875Y529948D01*
X350955Y529909D01*
X351037Y529873D01*
X351120Y529840D01*
X351205Y529812D01*
X351290Y529787D01*
X351377Y529765D01*
X351465Y529748D01*
X351553Y529735D01*
X351642Y529725D01*
X351731Y529719D01*
X351820Y529717D01*
X351909Y529719D01*
X351998Y529725D01*
X352087Y529735D01*
X352175Y529748D01*
X352263Y529765D01*
X352350Y529787D01*
X352435Y529812D01*
X352520Y529840D01*
X352603Y529873D01*
X352685Y529909D01*
X352765Y529948D01*
X352843Y529991D01*
X352919Y530037D01*
X352994Y530087D01*
X353066Y530140D01*
X353135Y530196D01*
X353202Y530255D01*
X353267Y530316D01*
X353328Y530381D01*
X353387Y530448D01*
X353443Y530517D01*
X353496Y530589D01*
X353546Y530664D01*
X353592Y530740D01*
X353635Y530818D01*
X353674Y530898D01*
X353710Y530980D01*
X353743Y531063D01*
X353771Y531148D01*
X353796Y531233D01*
X353818Y531320D01*
X353835Y531408D01*
X353848Y531496D01*
X353858Y531585D01*
X353864Y531674D01*
X353866Y531763D01*
X353867Y531763D02*
X353867Y533809D01*
X353865Y533921D01*
X353859Y534032D01*
X353850Y534144D01*
X353837Y534255D01*
X353819Y534365D01*
X353799Y534475D01*
X353774Y534584D01*
X353746Y534692D01*
X353714Y534799D01*
X353678Y534905D01*
X353639Y535010D01*
X353596Y535113D01*
X353550Y535215D01*
X353500Y535315D01*
X353447Y535414D01*
X353390Y535510D01*
X353331Y535605D01*
X353268Y535697D01*
X353202Y535787D01*
X353133Y535875D01*
X353061Y535961D01*
X352986Y536044D01*
X352908Y536124D01*
X352828Y536202D01*
X352745Y536277D01*
X352659Y536349D01*
X352571Y536418D01*
X352481Y536484D01*
X352389Y536547D01*
X352294Y536606D01*
X352198Y536663D01*
X352099Y536716D01*
X351999Y536766D01*
X351897Y536812D01*
X351794Y536855D01*
X351689Y536894D01*
X351583Y536930D01*
X351476Y536962D01*
X351368Y536990D01*
X351259Y537015D01*
X351149Y537035D01*
X351039Y537053D01*
X350928Y537066D01*
X350816Y537075D01*
X350705Y537081D01*
X350593Y537083D01*
X336026Y537083D02*
X336026Y529717D01*
X336026Y537083D02*
X333980Y537083D01*
X333891Y537081D01*
X333802Y537075D01*
X333713Y537065D01*
X333625Y537052D01*
X333537Y537035D01*
X333450Y537013D01*
X333365Y536988D01*
X333280Y536960D01*
X333197Y536927D01*
X333115Y536891D01*
X333035Y536852D01*
X332957Y536809D01*
X332881Y536763D01*
X332806Y536713D01*
X332734Y536660D01*
X332665Y536604D01*
X332598Y536545D01*
X332533Y536484D01*
X332472Y536419D01*
X332413Y536352D01*
X332357Y536283D01*
X332304Y536211D01*
X332254Y536136D01*
X332208Y536060D01*
X332165Y535982D01*
X332126Y535902D01*
X332090Y535820D01*
X332057Y535737D01*
X332029Y535652D01*
X332004Y535567D01*
X331982Y535480D01*
X331965Y535392D01*
X331952Y535304D01*
X331942Y535215D01*
X331936Y535126D01*
X331934Y535037D01*
X331933Y535037D02*
X331933Y531763D01*
X331934Y531763D02*
X331936Y531674D01*
X331942Y531585D01*
X331952Y531496D01*
X331965Y531408D01*
X331982Y531320D01*
X332004Y531233D01*
X332029Y531148D01*
X332057Y531063D01*
X332090Y530980D01*
X332126Y530898D01*
X332165Y530818D01*
X332208Y530740D01*
X332254Y530664D01*
X332304Y530589D01*
X332357Y530517D01*
X332413Y530448D01*
X332472Y530381D01*
X332533Y530316D01*
X332598Y530255D01*
X332665Y530196D01*
X332734Y530140D01*
X332806Y530087D01*
X332881Y530037D01*
X332957Y529991D01*
X333035Y529948D01*
X333115Y529909D01*
X333197Y529873D01*
X333280Y529840D01*
X333365Y529812D01*
X333450Y529787D01*
X333537Y529765D01*
X333625Y529748D01*
X333713Y529735D01*
X333802Y529725D01*
X333891Y529719D01*
X333980Y529717D01*
X336026Y529717D01*
X328467Y536265D02*
X328467Y537083D01*
X324374Y537083D01*
X326421Y529717D01*
X513757Y610009D02*
X514984Y610009D01*
X513757Y610009D02*
X513757Y605917D01*
X516212Y605917D01*
X516290Y605919D01*
X516368Y605924D01*
X516445Y605934D01*
X516522Y605947D01*
X516598Y605963D01*
X516673Y605983D01*
X516747Y606007D01*
X516820Y606034D01*
X516892Y606065D01*
X516962Y606099D01*
X517031Y606136D01*
X517097Y606177D01*
X517162Y606221D01*
X517224Y606267D01*
X517284Y606317D01*
X517342Y606369D01*
X517397Y606424D01*
X517449Y606482D01*
X517499Y606542D01*
X517545Y606604D01*
X517589Y606669D01*
X517630Y606736D01*
X517667Y606804D01*
X517701Y606874D01*
X517732Y606946D01*
X517759Y607019D01*
X517783Y607093D01*
X517803Y607168D01*
X517819Y607244D01*
X517832Y607321D01*
X517842Y607398D01*
X517847Y607476D01*
X517849Y607554D01*
X517849Y611646D01*
X517847Y611724D01*
X517842Y611802D01*
X517832Y611879D01*
X517819Y611956D01*
X517803Y612032D01*
X517783Y612107D01*
X517759Y612181D01*
X517732Y612254D01*
X517701Y612326D01*
X517667Y612396D01*
X517630Y612465D01*
X517589Y612531D01*
X517545Y612596D01*
X517499Y612658D01*
X517449Y612718D01*
X517397Y612776D01*
X517342Y612831D01*
X517284Y612883D01*
X517224Y612933D01*
X517162Y612979D01*
X517097Y613023D01*
X517031Y613064D01*
X516962Y613101D01*
X516892Y613135D01*
X516820Y613166D01*
X516747Y613193D01*
X516673Y613217D01*
X516598Y613237D01*
X516522Y613253D01*
X516445Y613266D01*
X516368Y613276D01*
X516290Y613281D01*
X516212Y613283D01*
X513757Y613283D01*
X510046Y613283D02*
X510046Y605917D01*
X505954Y605917D02*
X510046Y613283D01*
X505954Y613283D02*
X505954Y605917D01*
X502243Y605917D02*
X502243Y613283D01*
X500197Y613283D01*
X500108Y613281D01*
X500019Y613275D01*
X499930Y613265D01*
X499842Y613252D01*
X499754Y613235D01*
X499667Y613213D01*
X499582Y613188D01*
X499497Y613160D01*
X499414Y613127D01*
X499332Y613091D01*
X499252Y613052D01*
X499174Y613009D01*
X499098Y612963D01*
X499023Y612913D01*
X498951Y612860D01*
X498882Y612804D01*
X498815Y612745D01*
X498750Y612684D01*
X498689Y612619D01*
X498630Y612552D01*
X498574Y612483D01*
X498521Y612411D01*
X498471Y612336D01*
X498425Y612260D01*
X498382Y612182D01*
X498343Y612102D01*
X498307Y612020D01*
X498274Y611937D01*
X498246Y611852D01*
X498221Y611767D01*
X498199Y611680D01*
X498182Y611592D01*
X498169Y611504D01*
X498159Y611415D01*
X498153Y611326D01*
X498151Y611237D01*
X498151Y607963D01*
X498153Y607874D01*
X498159Y607785D01*
X498169Y607696D01*
X498182Y607608D01*
X498199Y607520D01*
X498221Y607433D01*
X498246Y607348D01*
X498274Y607263D01*
X498307Y607180D01*
X498343Y607098D01*
X498382Y607018D01*
X498425Y606940D01*
X498471Y606864D01*
X498521Y606789D01*
X498574Y606717D01*
X498630Y606648D01*
X498689Y606581D01*
X498750Y606516D01*
X498815Y606455D01*
X498882Y606396D01*
X498951Y606340D01*
X499023Y606287D01*
X499098Y606237D01*
X499174Y606191D01*
X499252Y606148D01*
X499332Y606109D01*
X499414Y606073D01*
X499497Y606040D01*
X499582Y606012D01*
X499667Y605987D01*
X499754Y605965D01*
X499842Y605948D01*
X499930Y605935D01*
X500019Y605925D01*
X500108Y605919D01*
X500197Y605917D01*
X502243Y605917D01*
X489584Y610009D02*
X488357Y610009D01*
X488357Y605917D01*
X490812Y605917D01*
X490890Y605919D01*
X490968Y605924D01*
X491045Y605934D01*
X491122Y605947D01*
X491198Y605963D01*
X491273Y605983D01*
X491347Y606007D01*
X491420Y606034D01*
X491492Y606065D01*
X491562Y606099D01*
X491631Y606136D01*
X491697Y606177D01*
X491762Y606221D01*
X491824Y606267D01*
X491884Y606317D01*
X491942Y606369D01*
X491997Y606424D01*
X492049Y606482D01*
X492099Y606542D01*
X492145Y606604D01*
X492189Y606669D01*
X492230Y606736D01*
X492267Y606804D01*
X492301Y606874D01*
X492332Y606946D01*
X492359Y607019D01*
X492383Y607093D01*
X492403Y607168D01*
X492419Y607244D01*
X492432Y607321D01*
X492442Y607398D01*
X492447Y607476D01*
X492449Y607554D01*
X492449Y611646D01*
X492447Y611724D01*
X492442Y611802D01*
X492432Y611879D01*
X492419Y611956D01*
X492403Y612032D01*
X492383Y612107D01*
X492359Y612181D01*
X492332Y612254D01*
X492301Y612326D01*
X492267Y612396D01*
X492230Y612465D01*
X492189Y612531D01*
X492145Y612596D01*
X492099Y612658D01*
X492049Y612718D01*
X491997Y612776D01*
X491942Y612831D01*
X491884Y612883D01*
X491824Y612933D01*
X491762Y612979D01*
X491697Y613023D01*
X491631Y613064D01*
X491562Y613101D01*
X491492Y613135D01*
X491420Y613166D01*
X491347Y613193D01*
X491273Y613217D01*
X491198Y613237D01*
X491122Y613253D01*
X491045Y613266D01*
X490968Y613276D01*
X490890Y613281D01*
X490812Y613283D01*
X488357Y613283D01*
X484646Y613283D02*
X484646Y605917D01*
X480554Y605917D02*
X484646Y613283D01*
X480554Y613283D02*
X480554Y605917D01*
X476843Y605917D02*
X476843Y613283D01*
X474797Y613283D01*
X474708Y613281D01*
X474619Y613275D01*
X474530Y613265D01*
X474442Y613252D01*
X474354Y613235D01*
X474267Y613213D01*
X474182Y613188D01*
X474097Y613160D01*
X474014Y613127D01*
X473932Y613091D01*
X473852Y613052D01*
X473774Y613009D01*
X473698Y612963D01*
X473623Y612913D01*
X473551Y612860D01*
X473482Y612804D01*
X473415Y612745D01*
X473350Y612684D01*
X473289Y612619D01*
X473230Y612552D01*
X473174Y612483D01*
X473121Y612411D01*
X473071Y612336D01*
X473025Y612260D01*
X472982Y612182D01*
X472943Y612102D01*
X472907Y612020D01*
X472874Y611937D01*
X472846Y611852D01*
X472821Y611767D01*
X472799Y611680D01*
X472782Y611592D01*
X472769Y611504D01*
X472759Y611415D01*
X472753Y611326D01*
X472751Y611237D01*
X472751Y607963D01*
X472753Y607874D01*
X472759Y607785D01*
X472769Y607696D01*
X472782Y607608D01*
X472799Y607520D01*
X472821Y607433D01*
X472846Y607348D01*
X472874Y607263D01*
X472907Y607180D01*
X472943Y607098D01*
X472982Y607018D01*
X473025Y606940D01*
X473071Y606864D01*
X473121Y606789D01*
X473174Y606717D01*
X473230Y606648D01*
X473289Y606581D01*
X473350Y606516D01*
X473415Y606455D01*
X473482Y606396D01*
X473551Y606340D01*
X473623Y606287D01*
X473698Y606237D01*
X473774Y606191D01*
X473852Y606148D01*
X473932Y606109D01*
X474014Y606073D01*
X474097Y606040D01*
X474182Y606012D01*
X474267Y605987D01*
X474354Y605965D01*
X474442Y605948D01*
X474530Y605935D01*
X474619Y605925D01*
X474708Y605919D01*
X474797Y605917D01*
X476843Y605917D01*
X463108Y605917D02*
X460653Y605917D01*
X460573Y605919D01*
X460493Y605925D01*
X460413Y605935D01*
X460334Y605948D01*
X460255Y605966D01*
X460178Y605987D01*
X460102Y606013D01*
X460027Y606042D01*
X459953Y606074D01*
X459881Y606110D01*
X459811Y606150D01*
X459744Y606193D01*
X459678Y606239D01*
X459615Y606289D01*
X459554Y606341D01*
X459495Y606396D01*
X459440Y606455D01*
X459388Y606515D01*
X459338Y606579D01*
X459292Y606644D01*
X459249Y606712D01*
X459209Y606782D01*
X459173Y606854D01*
X459141Y606928D01*
X459112Y607002D01*
X459087Y607079D01*
X459065Y607156D01*
X459047Y607235D01*
X459034Y607314D01*
X459024Y607393D01*
X459018Y607474D01*
X459016Y607554D01*
X459016Y608372D01*
X459018Y608450D01*
X459023Y608528D01*
X459033Y608605D01*
X459046Y608682D01*
X459062Y608758D01*
X459082Y608833D01*
X459106Y608907D01*
X459133Y608980D01*
X459164Y609052D01*
X459198Y609122D01*
X459235Y609191D01*
X459276Y609257D01*
X459320Y609322D01*
X459366Y609384D01*
X459416Y609444D01*
X459468Y609502D01*
X459523Y609557D01*
X459581Y609609D01*
X459641Y609659D01*
X459703Y609705D01*
X459768Y609749D01*
X459835Y609790D01*
X459903Y609827D01*
X459973Y609861D01*
X460045Y609892D01*
X460118Y609919D01*
X460192Y609943D01*
X460267Y609963D01*
X460343Y609979D01*
X460420Y609992D01*
X460497Y610002D01*
X460575Y610007D01*
X460653Y610009D01*
X463108Y610009D01*
X463108Y613283D01*
X459016Y613283D01*
X456202Y613283D02*
X453747Y605917D01*
X451292Y613283D01*
X438998Y613283D02*
X438998Y605917D01*
X439816Y605917D02*
X438179Y605917D01*
X438179Y613283D02*
X439816Y613283D01*
X434948Y613283D02*
X434948Y605917D01*
X430855Y605917D02*
X434948Y613283D01*
X430855Y613283D02*
X430855Y605917D01*
X425830Y605917D02*
X425830Y613283D01*
X427876Y613283D02*
X423784Y613283D01*
X412308Y605917D02*
X409853Y613283D01*
X407398Y605917D01*
X408012Y607759D02*
X411695Y607759D01*
X404584Y609600D02*
X404582Y609753D01*
X404576Y609906D01*
X404567Y610058D01*
X404553Y610211D01*
X404536Y610363D01*
X404515Y610514D01*
X404490Y610665D01*
X404461Y610815D01*
X404429Y610965D01*
X404392Y611113D01*
X404352Y611261D01*
X404309Y611408D01*
X404261Y611553D01*
X404210Y611697D01*
X404156Y611840D01*
X404097Y611982D01*
X404036Y612121D01*
X403970Y612260D01*
X403944Y612330D01*
X403914Y612399D01*
X403882Y612467D01*
X403845Y612533D01*
X403806Y612597D01*
X403763Y612659D01*
X403718Y612718D01*
X403669Y612776D01*
X403618Y612830D01*
X403564Y612883D01*
X403507Y612932D01*
X403448Y612979D01*
X403387Y613022D01*
X403324Y613063D01*
X403259Y613100D01*
X403192Y613135D01*
X403123Y613165D01*
X403053Y613193D01*
X402982Y613216D01*
X402910Y613237D01*
X402837Y613253D01*
X402763Y613266D01*
X402688Y613276D01*
X402613Y613281D01*
X402538Y613283D01*
X402463Y613281D01*
X402388Y613276D01*
X402313Y613266D01*
X402239Y613253D01*
X402166Y613237D01*
X402094Y613216D01*
X402023Y613193D01*
X401953Y613165D01*
X401884Y613135D01*
X401817Y613100D01*
X401752Y613063D01*
X401689Y613022D01*
X401628Y612979D01*
X401569Y612932D01*
X401512Y612883D01*
X401458Y612830D01*
X401407Y612776D01*
X401359Y612718D01*
X401313Y612659D01*
X401270Y612597D01*
X401231Y612533D01*
X401195Y612467D01*
X401162Y612400D01*
X401132Y612330D01*
X401106Y612260D01*
X401041Y612122D01*
X400979Y611982D01*
X400921Y611840D01*
X400866Y611697D01*
X400815Y611553D01*
X400767Y611408D01*
X400724Y611261D01*
X400684Y611114D01*
X400647Y610965D01*
X400615Y610815D01*
X400586Y610665D01*
X400561Y610514D01*
X400540Y610363D01*
X400523Y610211D01*
X400509Y610058D01*
X400500Y609906D01*
X400494Y609753D01*
X400492Y609600D01*
X404584Y609600D02*
X404582Y609447D01*
X404576Y609294D01*
X404567Y609141D01*
X404553Y608989D01*
X404536Y608837D01*
X404515Y608686D01*
X404490Y608535D01*
X404461Y608384D01*
X404429Y608235D01*
X404392Y608086D01*
X404352Y607939D01*
X404309Y607792D01*
X404261Y607647D01*
X404210Y607502D01*
X404155Y607360D01*
X404097Y607218D01*
X404035Y607078D01*
X403970Y606940D01*
X403944Y606870D01*
X403914Y606800D01*
X403882Y606733D01*
X403845Y606667D01*
X403806Y606603D01*
X403763Y606541D01*
X403717Y606482D01*
X403669Y606424D01*
X403618Y606370D01*
X403564Y606317D01*
X403507Y606268D01*
X403448Y606221D01*
X403387Y606178D01*
X403324Y606137D01*
X403259Y606100D01*
X403192Y606065D01*
X403123Y606035D01*
X403053Y606007D01*
X402982Y605984D01*
X402910Y605963D01*
X402837Y605947D01*
X402763Y605934D01*
X402688Y605924D01*
X402613Y605919D01*
X402538Y605917D01*
X401106Y606940D02*
X401041Y607078D01*
X400979Y607218D01*
X400921Y607360D01*
X400866Y607503D01*
X400815Y607647D01*
X400767Y607792D01*
X400724Y607939D01*
X400684Y608087D01*
X400647Y608235D01*
X400615Y608385D01*
X400586Y608535D01*
X400561Y608686D01*
X400540Y608837D01*
X400523Y608989D01*
X400509Y609142D01*
X400500Y609294D01*
X400494Y609447D01*
X400492Y609600D01*
X401106Y606940D02*
X401132Y606869D01*
X401162Y606800D01*
X401195Y606733D01*
X401231Y606667D01*
X401270Y606603D01*
X401313Y606541D01*
X401359Y606482D01*
X401407Y606424D01*
X401458Y606370D01*
X401512Y606317D01*
X401569Y606268D01*
X401628Y606221D01*
X401689Y606178D01*
X401752Y606137D01*
X401817Y606100D01*
X401884Y606065D01*
X401953Y606035D01*
X402023Y606007D01*
X402094Y605984D01*
X402166Y605963D01*
X402239Y605947D01*
X402313Y605934D01*
X402388Y605924D01*
X402463Y605919D01*
X402538Y605917D01*
X404175Y607554D02*
X400901Y611646D01*
X386365Y614807D02*
X375635Y614807D01*
X382710Y605917D02*
X384347Y605917D01*
X384425Y605919D01*
X384503Y605924D01*
X384580Y605934D01*
X384657Y605947D01*
X384733Y605963D01*
X384808Y605983D01*
X384882Y606007D01*
X384955Y606034D01*
X385027Y606065D01*
X385097Y606099D01*
X385166Y606136D01*
X385232Y606177D01*
X385297Y606221D01*
X385359Y606267D01*
X385419Y606317D01*
X385477Y606369D01*
X385532Y606424D01*
X385584Y606482D01*
X385634Y606542D01*
X385680Y606604D01*
X385724Y606669D01*
X385765Y606736D01*
X385802Y606804D01*
X385836Y606874D01*
X385867Y606946D01*
X385894Y607019D01*
X385918Y607093D01*
X385938Y607168D01*
X385954Y607244D01*
X385967Y607321D01*
X385977Y607398D01*
X385982Y607476D01*
X385984Y607554D01*
X385984Y611646D01*
X385982Y611724D01*
X385977Y611802D01*
X385967Y611879D01*
X385954Y611956D01*
X385938Y612032D01*
X385918Y612107D01*
X385894Y612181D01*
X385867Y612254D01*
X385836Y612326D01*
X385802Y612396D01*
X385765Y612465D01*
X385724Y612531D01*
X385680Y612596D01*
X385634Y612658D01*
X385584Y612718D01*
X385532Y612776D01*
X385477Y612831D01*
X385419Y612883D01*
X385359Y612933D01*
X385297Y612979D01*
X385232Y613023D01*
X385166Y613064D01*
X385097Y613101D01*
X385027Y613135D01*
X384955Y613166D01*
X384882Y613193D01*
X384808Y613217D01*
X384733Y613237D01*
X384657Y613253D01*
X384580Y613266D01*
X384503Y613276D01*
X384425Y613281D01*
X384347Y613283D01*
X382710Y613283D01*
X376016Y607554D02*
X376018Y607476D01*
X376023Y607398D01*
X376033Y607321D01*
X376046Y607244D01*
X376062Y607168D01*
X376082Y607093D01*
X376106Y607019D01*
X376133Y606946D01*
X376164Y606874D01*
X376198Y606804D01*
X376235Y606735D01*
X376276Y606669D01*
X376320Y606604D01*
X376366Y606542D01*
X376416Y606482D01*
X376468Y606424D01*
X376523Y606369D01*
X376581Y606317D01*
X376641Y606267D01*
X376703Y606221D01*
X376768Y606177D01*
X376835Y606136D01*
X376903Y606099D01*
X376973Y606065D01*
X377045Y606034D01*
X377118Y606007D01*
X377192Y605983D01*
X377267Y605963D01*
X377343Y605947D01*
X377420Y605934D01*
X377497Y605924D01*
X377575Y605919D01*
X377653Y605917D01*
X377767Y605919D01*
X377880Y605924D01*
X377994Y605934D01*
X378107Y605947D01*
X378219Y605964D01*
X378331Y605984D01*
X378442Y606008D01*
X378553Y606036D01*
X378662Y606067D01*
X378770Y606102D01*
X378877Y606141D01*
X378983Y606183D01*
X379087Y606228D01*
X379190Y606277D01*
X379291Y606330D01*
X379390Y606385D01*
X379488Y606444D01*
X379583Y606506D01*
X379676Y606571D01*
X379768Y606639D01*
X379856Y606710D01*
X379943Y606784D01*
X380027Y606861D01*
X380108Y606940D01*
X379904Y611646D02*
X379902Y611724D01*
X379897Y611802D01*
X379887Y611879D01*
X379874Y611956D01*
X379858Y612032D01*
X379838Y612107D01*
X379814Y612181D01*
X379787Y612254D01*
X379756Y612326D01*
X379722Y612396D01*
X379685Y612465D01*
X379644Y612531D01*
X379600Y612596D01*
X379554Y612658D01*
X379504Y612718D01*
X379452Y612776D01*
X379397Y612831D01*
X379339Y612883D01*
X379279Y612933D01*
X379217Y612979D01*
X379152Y613023D01*
X379086Y613064D01*
X379017Y613101D01*
X378947Y613135D01*
X378875Y613166D01*
X378802Y613193D01*
X378728Y613217D01*
X378653Y613237D01*
X378577Y613253D01*
X378500Y613266D01*
X378423Y613276D01*
X378345Y613281D01*
X378267Y613283D01*
X378157Y613281D01*
X378048Y613275D01*
X377938Y613265D01*
X377830Y613252D01*
X377721Y613234D01*
X377614Y613213D01*
X377507Y613187D01*
X377401Y613158D01*
X377296Y613126D01*
X377193Y613089D01*
X377091Y613049D01*
X376990Y613005D01*
X376891Y612957D01*
X376794Y612907D01*
X376699Y612852D01*
X376606Y612794D01*
X376515Y612733D01*
X376426Y612669D01*
X379085Y610213D02*
X379152Y610255D01*
X379217Y610299D01*
X379279Y610347D01*
X379339Y610397D01*
X379397Y610450D01*
X379452Y610506D01*
X379504Y610565D01*
X379554Y610625D01*
X379601Y610689D01*
X379644Y610754D01*
X379685Y610821D01*
X379722Y610890D01*
X379756Y610961D01*
X379787Y611033D01*
X379814Y611107D01*
X379838Y611181D01*
X379858Y611257D01*
X379874Y611334D01*
X379887Y611411D01*
X379897Y611489D01*
X379902Y611568D01*
X379904Y611646D01*
X376835Y608986D02*
X376769Y608945D01*
X376704Y608900D01*
X376642Y608853D01*
X376582Y608802D01*
X376524Y608749D01*
X376469Y608693D01*
X376416Y608635D01*
X376367Y608574D01*
X376320Y608511D01*
X376277Y608446D01*
X376236Y608379D01*
X376199Y608310D01*
X376165Y608239D01*
X376134Y608167D01*
X376107Y608093D01*
X376083Y608018D01*
X376063Y607943D01*
X376047Y607866D01*
X376034Y607789D01*
X376024Y607711D01*
X376019Y607632D01*
X376017Y607554D01*
X376835Y608986D02*
X379085Y610214D01*
X361781Y614807D02*
X349419Y614807D01*
X361400Y613283D02*
X361400Y605917D01*
X361400Y613283D02*
X359354Y613283D01*
X359265Y613281D01*
X359176Y613275D01*
X359087Y613265D01*
X358999Y613252D01*
X358911Y613235D01*
X358824Y613213D01*
X358739Y613188D01*
X358654Y613160D01*
X358571Y613127D01*
X358489Y613091D01*
X358409Y613052D01*
X358331Y613009D01*
X358255Y612963D01*
X358180Y612913D01*
X358108Y612860D01*
X358039Y612804D01*
X357972Y612745D01*
X357907Y612684D01*
X357846Y612619D01*
X357787Y612552D01*
X357731Y612483D01*
X357678Y612411D01*
X357628Y612336D01*
X357582Y612260D01*
X357539Y612182D01*
X357500Y612102D01*
X357464Y612020D01*
X357431Y611937D01*
X357403Y611852D01*
X357378Y611767D01*
X357356Y611680D01*
X357339Y611592D01*
X357326Y611504D01*
X357316Y611415D01*
X357310Y611326D01*
X357308Y611237D01*
X357310Y611148D01*
X357316Y611059D01*
X357326Y610970D01*
X357339Y610882D01*
X357356Y610794D01*
X357378Y610707D01*
X357403Y610622D01*
X357431Y610537D01*
X357464Y610454D01*
X357500Y610372D01*
X357539Y610292D01*
X357582Y610214D01*
X357628Y610138D01*
X357678Y610063D01*
X357731Y609991D01*
X357787Y609922D01*
X357846Y609855D01*
X357907Y609790D01*
X357972Y609729D01*
X358039Y609670D01*
X358108Y609614D01*
X358180Y609561D01*
X358255Y609511D01*
X358331Y609465D01*
X358409Y609422D01*
X358489Y609383D01*
X358571Y609347D01*
X358654Y609314D01*
X358739Y609286D01*
X358824Y609261D01*
X358911Y609239D01*
X358999Y609222D01*
X359087Y609209D01*
X359176Y609199D01*
X359265Y609193D01*
X359354Y609191D01*
X361400Y609191D01*
X358945Y609191D02*
X357308Y605917D01*
X353892Y605917D02*
X353892Y613283D01*
X351846Y613283D01*
X351757Y613281D01*
X351668Y613275D01*
X351579Y613265D01*
X351491Y613252D01*
X351403Y613235D01*
X351316Y613213D01*
X351231Y613188D01*
X351146Y613160D01*
X351063Y613127D01*
X350981Y613091D01*
X350901Y613052D01*
X350823Y613009D01*
X350747Y612963D01*
X350672Y612913D01*
X350600Y612860D01*
X350531Y612804D01*
X350464Y612745D01*
X350399Y612684D01*
X350338Y612619D01*
X350279Y612552D01*
X350223Y612483D01*
X350170Y612411D01*
X350120Y612336D01*
X350074Y612260D01*
X350031Y612182D01*
X349992Y612102D01*
X349956Y612020D01*
X349923Y611937D01*
X349895Y611852D01*
X349870Y611767D01*
X349848Y611680D01*
X349831Y611592D01*
X349818Y611504D01*
X349808Y611415D01*
X349802Y611326D01*
X349800Y611237D01*
X349800Y607963D01*
X349802Y607874D01*
X349808Y607785D01*
X349818Y607696D01*
X349831Y607608D01*
X349848Y607520D01*
X349870Y607433D01*
X349895Y607348D01*
X349923Y607263D01*
X349956Y607180D01*
X349992Y607098D01*
X350031Y607018D01*
X350074Y606940D01*
X350120Y606864D01*
X350170Y606789D01*
X350223Y606717D01*
X350279Y606648D01*
X350338Y606581D01*
X350399Y606516D01*
X350464Y606455D01*
X350531Y606396D01*
X350600Y606340D01*
X350672Y606287D01*
X350747Y606237D01*
X350823Y606191D01*
X350901Y606148D01*
X350981Y606109D01*
X351063Y606073D01*
X351146Y606040D01*
X351231Y606012D01*
X351316Y605987D01*
X351403Y605965D01*
X351491Y605948D01*
X351579Y605935D01*
X351668Y605925D01*
X351757Y605919D01*
X351846Y605917D01*
X353892Y605917D01*
X337534Y614807D02*
X322866Y614807D01*
X337153Y613283D02*
X335516Y605917D01*
X333879Y610828D01*
X332242Y605917D01*
X330605Y613283D01*
X327340Y613283D02*
X327340Y605917D01*
X327340Y613283D02*
X325293Y613283D01*
X325204Y613281D01*
X325115Y613275D01*
X325026Y613265D01*
X324938Y613252D01*
X324850Y613235D01*
X324763Y613213D01*
X324678Y613188D01*
X324593Y613160D01*
X324510Y613127D01*
X324428Y613091D01*
X324348Y613052D01*
X324270Y613009D01*
X324194Y612963D01*
X324119Y612913D01*
X324047Y612860D01*
X323978Y612804D01*
X323911Y612745D01*
X323846Y612684D01*
X323785Y612619D01*
X323726Y612552D01*
X323670Y612483D01*
X323617Y612411D01*
X323567Y612336D01*
X323521Y612260D01*
X323478Y612182D01*
X323439Y612102D01*
X323403Y612020D01*
X323370Y611937D01*
X323342Y611852D01*
X323317Y611767D01*
X323295Y611680D01*
X323278Y611592D01*
X323265Y611504D01*
X323255Y611415D01*
X323249Y611326D01*
X323247Y611237D01*
X323249Y611148D01*
X323255Y611059D01*
X323265Y610970D01*
X323278Y610882D01*
X323295Y610794D01*
X323317Y610707D01*
X323342Y610622D01*
X323370Y610537D01*
X323403Y610454D01*
X323439Y610372D01*
X323478Y610292D01*
X323521Y610214D01*
X323567Y610138D01*
X323617Y610063D01*
X323670Y609991D01*
X323726Y609922D01*
X323785Y609855D01*
X323846Y609790D01*
X323911Y609729D01*
X323978Y609670D01*
X324047Y609614D01*
X324119Y609561D01*
X324194Y609511D01*
X324270Y609465D01*
X324348Y609422D01*
X324428Y609383D01*
X324510Y609347D01*
X324593Y609314D01*
X324678Y609286D01*
X324763Y609261D01*
X324850Y609239D01*
X324938Y609222D01*
X325026Y609209D01*
X325115Y609199D01*
X325204Y609193D01*
X325293Y609191D01*
X327340Y609191D01*
X324884Y609191D02*
X323247Y605917D01*
D10*
X71200Y547150D02*
X30400Y537150D01*
X24050Y104200D02*
X24052Y104042D01*
X24058Y103883D01*
X24068Y103725D01*
X24082Y103568D01*
X24099Y103410D01*
X24121Y103254D01*
X24146Y103097D01*
X24176Y102942D01*
X24209Y102787D01*
X24246Y102633D01*
X24287Y102480D01*
X24332Y102328D01*
X24381Y102178D01*
X24433Y102028D01*
X24489Y101880D01*
X24549Y101733D01*
X24612Y101588D01*
X24679Y101445D01*
X24749Y101303D01*
X24823Y101163D01*
X24901Y101025D01*
X24982Y100889D01*
X25066Y100755D01*
X25153Y100623D01*
X25244Y100493D01*
X25338Y100366D01*
X25435Y100241D01*
X25536Y100118D01*
X25639Y99998D01*
X25745Y99881D01*
X25854Y99766D01*
X25966Y99654D01*
X26081Y99545D01*
X26198Y99439D01*
X26318Y99336D01*
X26441Y99235D01*
X26566Y99138D01*
X26693Y99044D01*
X26823Y98953D01*
X26955Y98866D01*
X27089Y98782D01*
X27225Y98701D01*
X27363Y98623D01*
X27503Y98549D01*
X27645Y98479D01*
X27788Y98412D01*
X27933Y98349D01*
X28080Y98289D01*
X28228Y98233D01*
X28378Y98181D01*
X28528Y98132D01*
X28680Y98087D01*
X28833Y98046D01*
X28987Y98009D01*
X29142Y97976D01*
X29297Y97946D01*
X29454Y97921D01*
X29610Y97899D01*
X29768Y97882D01*
X29925Y97868D01*
X30083Y97858D01*
X30242Y97852D01*
X30400Y97850D01*
X71200Y87850D01*
X71358Y87852D01*
X71517Y87858D01*
X71675Y87868D01*
X71832Y87882D01*
X71990Y87899D01*
X72146Y87921D01*
X72303Y87946D01*
X72458Y87976D01*
X72613Y88009D01*
X72767Y88046D01*
X72920Y88087D01*
X73072Y88132D01*
X73222Y88181D01*
X73372Y88233D01*
X73520Y88289D01*
X73667Y88349D01*
X73812Y88412D01*
X73955Y88479D01*
X74097Y88549D01*
X74237Y88623D01*
X74375Y88701D01*
X74511Y88782D01*
X74645Y88866D01*
X74777Y88953D01*
X74907Y89044D01*
X75034Y89138D01*
X75159Y89235D01*
X75282Y89336D01*
X75402Y89439D01*
X75519Y89545D01*
X75634Y89654D01*
X75746Y89766D01*
X75855Y89881D01*
X75961Y89998D01*
X76064Y90118D01*
X76165Y90241D01*
X76262Y90366D01*
X76356Y90493D01*
X76447Y90623D01*
X76534Y90755D01*
X76618Y90889D01*
X76699Y91025D01*
X76777Y91163D01*
X76851Y91303D01*
X76921Y91445D01*
X76988Y91588D01*
X77051Y91733D01*
X77111Y91880D01*
X77167Y92028D01*
X77219Y92178D01*
X77268Y92328D01*
X77313Y92480D01*
X77354Y92633D01*
X77391Y92787D01*
X77424Y92942D01*
X77454Y93097D01*
X77479Y93254D01*
X77501Y93410D01*
X77518Y93568D01*
X77532Y93725D01*
X77542Y93883D01*
X77548Y94042D01*
X77550Y94200D01*
X77550Y540800D02*
X77548Y540958D01*
X77542Y541117D01*
X77532Y541275D01*
X77518Y541432D01*
X77501Y541590D01*
X77479Y541746D01*
X77454Y541903D01*
X77424Y542058D01*
X77391Y542213D01*
X77354Y542367D01*
X77313Y542520D01*
X77268Y542672D01*
X77219Y542822D01*
X77167Y542972D01*
X77111Y543120D01*
X77051Y543267D01*
X76988Y543412D01*
X76921Y543555D01*
X76851Y543697D01*
X76777Y543837D01*
X76699Y543975D01*
X76618Y544111D01*
X76534Y544245D01*
X76447Y544377D01*
X76356Y544507D01*
X76262Y544634D01*
X76165Y544759D01*
X76064Y544882D01*
X75961Y545002D01*
X75855Y545119D01*
X75746Y545234D01*
X75634Y545346D01*
X75519Y545455D01*
X75402Y545561D01*
X75282Y545664D01*
X75159Y545765D01*
X75034Y545862D01*
X74907Y545956D01*
X74777Y546047D01*
X74645Y546134D01*
X74511Y546218D01*
X74375Y546299D01*
X74237Y546377D01*
X74097Y546451D01*
X73955Y546521D01*
X73812Y546588D01*
X73667Y546651D01*
X73520Y546711D01*
X73372Y546767D01*
X73222Y546819D01*
X73072Y546868D01*
X72920Y546913D01*
X72767Y546954D01*
X72613Y546991D01*
X72458Y547024D01*
X72303Y547054D01*
X72146Y547079D01*
X71990Y547101D01*
X71832Y547118D01*
X71675Y547132D01*
X71517Y547142D01*
X71358Y547148D01*
X71200Y547150D01*
X101300Y635900D02*
X101300Y-900D01*
X101300Y635900D02*
X300Y635900D01*
X300Y-900D01*
X101300Y-900D01*
X5800Y9100D02*
X5800Y69100D01*
X95800Y69100D01*
X95800Y9100D01*
X85800Y9100D01*
X85800Y49850D01*
X85800Y59100D01*
X75800Y59100D01*
X25800Y59100D01*
X15800Y59100D01*
X15800Y49850D01*
X15800Y9100D01*
X5800Y9100D01*
X75800Y49850D02*
X85800Y49850D01*
X75800Y49850D02*
X75800Y59100D01*
X25800Y59100D02*
X25800Y49850D01*
X15800Y49850D01*
X95800Y565900D02*
X95800Y625900D01*
X95800Y565900D02*
X5800Y565900D01*
X5800Y625900D01*
X15800Y625900D01*
X15800Y585150D01*
X15800Y575900D01*
X25800Y575900D01*
X75800Y575900D01*
X85800Y575900D01*
X85800Y585150D01*
X85800Y625900D01*
X95800Y625900D01*
X25800Y585150D02*
X15800Y585150D01*
X25800Y585150D02*
X25800Y575900D01*
X75800Y575900D02*
X75800Y585150D01*
X85800Y585150D01*
M02*
