G04 EAGLE Gerber RS-274X export*
G75*
%MOMM*%
%FSLAX34Y34*%
%LPD*%
%INSoldermask Top*%
%IPPOS*%
%AMOC8*
5,1,8,0,0,1.08239X$1,22.5*%
G01*
%ADD10C,2.997200*%
%ADD11R,1.103200X1.203200*%
%ADD12R,0.803200X1.103200*%
%ADD13R,1.203200X1.303200*%
%ADD14R,1.303200X1.203200*%
%ADD15C,0.316234*%
%ADD16C,0.806416*%
%ADD17R,1.603200X1.403200*%
%ADD18R,1.003200X1.103200*%
%ADD19R,1.603200X2.003200*%
%ADD20R,1.103200X1.003200*%
%ADD21R,0.803200X0.803200*%
%ADD22R,2.003200X1.603200*%
%ADD23R,0.778200X1.353200*%
%ADD24R,0.478200X1.353200*%
%ADD25C,1.209600*%
%ADD26C,0.853200*%
%ADD27C,1.509600*%
%ADD28C,3.003200*%
%ADD29R,0.503200X1.103200*%
%ADD30R,1.193800X0.508000*%
%ADD31P,1.759533X8X202.500000*%
%ADD32R,2.353200X2.003200*%
%ADD33R,1.253200X1.283200*%
%ADD34R,2.203200X1.703200*%
%ADD35R,2.203200X4.003200*%
%ADD36R,1.016000X1.016000*%
%ADD37C,2.133600*%


D10*
X584200Y607060D03*
X584200Y27940D03*
X139700Y607060D03*
X139700Y27940D03*
D11*
X421260Y140970D03*
X437260Y140970D03*
X406780Y140970D03*
X390780Y140970D03*
D12*
X499340Y189490D03*
X489840Y189490D03*
X480340Y189490D03*
X480340Y166490D03*
X489840Y166490D03*
X499340Y166490D03*
D13*
X378780Y392040D03*
X378780Y375040D03*
X439740Y392040D03*
X439740Y375040D03*
D14*
X366000Y159240D03*
X383000Y159240D03*
D15*
X455081Y341065D02*
X456251Y341065D01*
X455081Y341065D02*
X455081Y349935D01*
X456251Y349935D01*
X456251Y341065D01*
X456251Y344069D02*
X455081Y344069D01*
X455081Y347073D02*
X456251Y347073D01*
X451251Y341065D02*
X450081Y341065D01*
X450081Y349935D01*
X451251Y349935D01*
X451251Y341065D01*
X451251Y344069D02*
X450081Y344069D01*
X450081Y347073D02*
X451251Y347073D01*
X446251Y341065D02*
X445081Y341065D01*
X445081Y349935D01*
X446251Y349935D01*
X446251Y341065D01*
X446251Y344069D02*
X445081Y344069D01*
X445081Y347073D02*
X446251Y347073D01*
X441251Y341065D02*
X440081Y341065D01*
X440081Y349935D01*
X441251Y349935D01*
X441251Y341065D01*
X441251Y344069D02*
X440081Y344069D01*
X440081Y347073D02*
X441251Y347073D01*
X436251Y341065D02*
X435081Y341065D01*
X435081Y349935D01*
X436251Y349935D01*
X436251Y341065D01*
X436251Y344069D02*
X435081Y344069D01*
X435081Y347073D02*
X436251Y347073D01*
X431251Y341065D02*
X430081Y341065D01*
X430081Y349935D01*
X431251Y349935D01*
X431251Y341065D01*
X431251Y344069D02*
X430081Y344069D01*
X430081Y347073D02*
X431251Y347073D01*
X426251Y341065D02*
X425081Y341065D01*
X425081Y349935D01*
X426251Y349935D01*
X426251Y341065D01*
X426251Y344069D02*
X425081Y344069D01*
X425081Y347073D02*
X426251Y347073D01*
X421251Y341065D02*
X420081Y341065D01*
X420081Y349935D01*
X421251Y349935D01*
X421251Y341065D01*
X421251Y344069D02*
X420081Y344069D01*
X420081Y347073D02*
X421251Y347073D01*
X416251Y341065D02*
X415081Y341065D01*
X415081Y349935D01*
X416251Y349935D01*
X416251Y341065D01*
X416251Y344069D02*
X415081Y344069D01*
X415081Y347073D02*
X416251Y347073D01*
X411251Y341065D02*
X410081Y341065D01*
X410081Y349935D01*
X411251Y349935D01*
X411251Y341065D01*
X411251Y344069D02*
X410081Y344069D01*
X410081Y347073D02*
X411251Y347073D01*
X406251Y341065D02*
X405081Y341065D01*
X405081Y349935D01*
X406251Y349935D01*
X406251Y341065D01*
X406251Y344069D02*
X405081Y344069D01*
X405081Y347073D02*
X406251Y347073D01*
X401251Y341065D02*
X400081Y341065D01*
X400081Y349935D01*
X401251Y349935D01*
X401251Y341065D01*
X401251Y344069D02*
X400081Y344069D01*
X400081Y347073D02*
X401251Y347073D01*
X393601Y334585D02*
X393601Y333415D01*
X384731Y333415D01*
X384731Y334585D01*
X393601Y334585D01*
X393601Y329585D02*
X393601Y328415D01*
X384731Y328415D01*
X384731Y329585D01*
X393601Y329585D01*
X393601Y324585D02*
X393601Y323415D01*
X384731Y323415D01*
X384731Y324585D01*
X393601Y324585D01*
X393601Y319585D02*
X393601Y318415D01*
X384731Y318415D01*
X384731Y319585D01*
X393601Y319585D01*
X393601Y314585D02*
X393601Y313415D01*
X384731Y313415D01*
X384731Y314585D01*
X393601Y314585D01*
X393601Y309585D02*
X393601Y308415D01*
X384731Y308415D01*
X384731Y309585D01*
X393601Y309585D01*
X393601Y305085D02*
X393601Y303915D01*
X384731Y303915D01*
X384731Y305085D01*
X393601Y305085D01*
X393601Y299585D02*
X393601Y298415D01*
X384731Y298415D01*
X384731Y299585D01*
X393601Y299585D01*
X393601Y294585D02*
X393601Y293415D01*
X384731Y293415D01*
X384731Y294585D01*
X393601Y294585D01*
X393601Y289585D02*
X393601Y288415D01*
X384731Y288415D01*
X384731Y289585D01*
X393601Y289585D01*
X393601Y284585D02*
X393601Y283415D01*
X384731Y283415D01*
X384731Y284585D01*
X393601Y284585D01*
X393601Y279585D02*
X393601Y278415D01*
X384731Y278415D01*
X384731Y279585D01*
X393601Y279585D01*
X400081Y271935D02*
X401251Y271935D01*
X401251Y263065D01*
X400081Y263065D01*
X400081Y271935D01*
X400081Y266069D02*
X401251Y266069D01*
X401251Y269073D02*
X400081Y269073D01*
X405081Y271935D02*
X406251Y271935D01*
X406251Y263065D01*
X405081Y263065D01*
X405081Y271935D01*
X405081Y266069D02*
X406251Y266069D01*
X406251Y269073D02*
X405081Y269073D01*
X410081Y271935D02*
X411251Y271935D01*
X411251Y263065D01*
X410081Y263065D01*
X410081Y271935D01*
X410081Y266069D02*
X411251Y266069D01*
X411251Y269073D02*
X410081Y269073D01*
X415081Y271935D02*
X416251Y271935D01*
X416251Y263065D01*
X415081Y263065D01*
X415081Y271935D01*
X415081Y266069D02*
X416251Y266069D01*
X416251Y269073D02*
X415081Y269073D01*
X420081Y271935D02*
X421251Y271935D01*
X421251Y263065D01*
X420081Y263065D01*
X420081Y271935D01*
X420081Y266069D02*
X421251Y266069D01*
X421251Y269073D02*
X420081Y269073D01*
X425081Y271935D02*
X426251Y271935D01*
X426251Y263065D01*
X425081Y263065D01*
X425081Y271935D01*
X425081Y266069D02*
X426251Y266069D01*
X426251Y269073D02*
X425081Y269073D01*
X430081Y271935D02*
X431251Y271935D01*
X431251Y263065D01*
X430081Y263065D01*
X430081Y271935D01*
X430081Y266069D02*
X431251Y266069D01*
X431251Y269073D02*
X430081Y269073D01*
X435081Y271935D02*
X436251Y271935D01*
X436251Y263065D01*
X435081Y263065D01*
X435081Y271935D01*
X435081Y266069D02*
X436251Y266069D01*
X436251Y269073D02*
X435081Y269073D01*
X440081Y271935D02*
X441251Y271935D01*
X441251Y263065D01*
X440081Y263065D01*
X440081Y271935D01*
X440081Y266069D02*
X441251Y266069D01*
X441251Y269073D02*
X440081Y269073D01*
X445081Y271935D02*
X446251Y271935D01*
X446251Y263065D01*
X445081Y263065D01*
X445081Y271935D01*
X445081Y266069D02*
X446251Y266069D01*
X446251Y269073D02*
X445081Y269073D01*
X450081Y271935D02*
X451251Y271935D01*
X451251Y263065D01*
X450081Y263065D01*
X450081Y271935D01*
X450081Y266069D02*
X451251Y266069D01*
X451251Y269073D02*
X450081Y269073D01*
X455081Y271935D02*
X456251Y271935D01*
X456251Y263065D01*
X455081Y263065D01*
X455081Y271935D01*
X455081Y266069D02*
X456251Y266069D01*
X456251Y269073D02*
X455081Y269073D01*
X462731Y278415D02*
X462731Y279585D01*
X471601Y279585D01*
X471601Y278415D01*
X462731Y278415D01*
X462731Y283415D02*
X462731Y284585D01*
X471601Y284585D01*
X471601Y283415D01*
X462731Y283415D01*
X462731Y288415D02*
X462731Y289585D01*
X471601Y289585D01*
X471601Y288415D01*
X462731Y288415D01*
X462731Y293415D02*
X462731Y294585D01*
X471601Y294585D01*
X471601Y293415D01*
X462731Y293415D01*
X462731Y298415D02*
X462731Y299585D01*
X471601Y299585D01*
X471601Y298415D01*
X462731Y298415D01*
X462731Y303415D02*
X462731Y304585D01*
X471601Y304585D01*
X471601Y303415D01*
X462731Y303415D01*
X462731Y308415D02*
X462731Y309585D01*
X471601Y309585D01*
X471601Y308415D01*
X462731Y308415D01*
X462731Y313415D02*
X462731Y314585D01*
X471601Y314585D01*
X471601Y313415D01*
X462731Y313415D01*
X462731Y318415D02*
X462731Y319585D01*
X471601Y319585D01*
X471601Y318415D01*
X462731Y318415D01*
X462731Y323415D02*
X462731Y324585D01*
X471601Y324585D01*
X471601Y323415D01*
X462731Y323415D01*
X462731Y328415D02*
X462731Y329585D01*
X471601Y329585D01*
X471601Y328415D01*
X462731Y328415D01*
X462731Y333415D02*
X462731Y334585D01*
X471601Y334585D01*
X471601Y333415D01*
X462731Y333415D01*
D16*
X401182Y333484D02*
X401182Y279516D01*
X401182Y333484D02*
X455150Y333484D01*
X455150Y279516D01*
X401182Y279516D01*
X401182Y287177D02*
X455150Y287177D01*
X455150Y294838D02*
X401182Y294838D01*
X401182Y302499D02*
X455150Y302499D01*
X455150Y310160D02*
X401182Y310160D01*
X401182Y317821D02*
X455150Y317821D01*
X455150Y325482D02*
X401182Y325482D01*
X401182Y333143D02*
X455150Y333143D01*
D17*
X492150Y385500D03*
X470150Y385500D03*
X470150Y368500D03*
X492150Y368500D03*
D18*
X394020Y375920D03*
X394020Y391160D03*
X424570Y376100D03*
X424570Y391340D03*
D19*
X404330Y163650D03*
X429730Y163650D03*
D20*
X497680Y211310D03*
X482440Y211310D03*
X508000Y247650D03*
X492760Y247650D03*
D18*
X409390Y391520D03*
X409390Y376280D03*
D21*
X480060Y353850D03*
X490220Y353850D03*
X454180Y368300D03*
X454180Y378460D03*
D20*
X492760Y262890D03*
X508000Y262890D03*
X492760Y276860D03*
X508000Y276860D03*
X492760Y233680D03*
X508000Y233680D03*
D22*
X496880Y310680D03*
X496880Y336080D03*
D18*
X363870Y375440D03*
X363870Y390680D03*
D20*
X493070Y291780D03*
X508310Y291780D03*
D18*
X371600Y277780D03*
X371600Y262540D03*
D23*
X361700Y60850D03*
X369700Y60850D03*
D24*
X381200Y60850D03*
X391200Y60850D03*
X396200Y60850D03*
X406200Y60850D03*
D23*
X425700Y60850D03*
X417700Y60850D03*
D24*
X411200Y60850D03*
X401200Y60850D03*
X386200Y60850D03*
X376200Y60850D03*
D25*
X350500Y60132D02*
X350500Y50068D01*
X436900Y50068D02*
X436900Y60132D01*
X350500Y18332D02*
X350500Y8268D01*
X436900Y8268D02*
X436900Y18332D01*
D26*
X422600Y50100D03*
X364800Y50100D03*
D21*
X386080Y88900D03*
X375920Y88900D03*
X411480Y88900D03*
X421640Y88900D03*
D27*
X60330Y527050D03*
X79430Y514350D03*
X60330Y501650D03*
X79430Y488950D03*
X60330Y476250D03*
X79430Y463550D03*
X60330Y450850D03*
X79430Y438150D03*
X60330Y425450D03*
X79430Y412750D03*
X60330Y400050D03*
X79430Y387350D03*
X60330Y374650D03*
X79430Y361950D03*
X60330Y349250D03*
X79430Y336550D03*
X60330Y323850D03*
X79430Y311150D03*
X60330Y298450D03*
X79430Y285750D03*
X60330Y273050D03*
X79430Y260350D03*
X60330Y247650D03*
X79430Y234950D03*
X60330Y222250D03*
X79430Y209550D03*
X60330Y196850D03*
X79430Y184150D03*
X60330Y171450D03*
X79430Y158750D03*
X60330Y146050D03*
X79430Y133350D03*
X60330Y120650D03*
X79430Y107950D03*
X22130Y527050D03*
X41230Y514350D03*
X22130Y501650D03*
X41230Y488950D03*
X22130Y476250D03*
X41230Y463550D03*
X22130Y450850D03*
X41230Y438150D03*
X22130Y425450D03*
X41230Y412750D03*
X22130Y400050D03*
X41230Y387350D03*
X22130Y374650D03*
X41230Y361950D03*
X22130Y349250D03*
X41230Y336550D03*
X22130Y323850D03*
X41230Y311150D03*
X22130Y298450D03*
X41230Y285750D03*
X22130Y273050D03*
X41230Y260350D03*
X22130Y247650D03*
X41230Y234950D03*
X22130Y222250D03*
X41230Y209550D03*
X22130Y196850D03*
X41230Y184150D03*
X22130Y171450D03*
X41230Y158750D03*
X22130Y146050D03*
X41230Y133350D03*
X22130Y120650D03*
X41230Y107950D03*
D28*
X50800Y27950D03*
X50800Y607050D03*
D29*
X196500Y194600D03*
X201500Y194600D03*
X206500Y194600D03*
X211500Y194600D03*
X216500Y194600D03*
X221500Y194600D03*
X226500Y194600D03*
X231500Y194600D03*
X236500Y194600D03*
X241500Y194600D03*
X246500Y194600D03*
X251500Y194600D03*
X256500Y194600D03*
X261500Y194600D03*
X266500Y194600D03*
X271500Y194600D03*
X276500Y194600D03*
X281500Y194600D03*
X286500Y194600D03*
X291500Y194600D03*
X296500Y194600D03*
X301500Y194600D03*
X306500Y194600D03*
X311500Y194600D03*
X311500Y389600D03*
X306500Y389600D03*
X301500Y389600D03*
X296500Y389600D03*
X291500Y389600D03*
X286500Y389600D03*
X281500Y389600D03*
X276500Y389600D03*
X271500Y389600D03*
X266500Y389600D03*
X261500Y389600D03*
X256500Y389600D03*
X251500Y389600D03*
X246500Y389600D03*
X241500Y389600D03*
X236500Y389600D03*
X231500Y389600D03*
X226500Y389600D03*
X221500Y389600D03*
X216500Y389600D03*
X211500Y389600D03*
X206500Y389600D03*
X201500Y389600D03*
X196500Y389600D03*
D20*
G36*
X243795Y421159D02*
X251595Y413359D01*
X244501Y406265D01*
X236701Y414065D01*
X243795Y421159D01*
G37*
G36*
X233019Y431935D02*
X240819Y424135D01*
X233725Y417041D01*
X225925Y424841D01*
X233019Y431935D01*
G37*
D30*
X186722Y98950D03*
X186722Y92450D03*
X186722Y85950D03*
X186722Y79450D03*
X186722Y72950D03*
X186722Y66450D03*
X186722Y59950D03*
X186722Y53450D03*
X245078Y53450D03*
X245078Y59950D03*
X245078Y66450D03*
X245078Y72950D03*
X245078Y79450D03*
X245078Y85950D03*
X245078Y92450D03*
X245078Y98950D03*
D31*
X508000Y584200D03*
X508000Y558800D03*
X482600Y584200D03*
X482600Y558800D03*
X457200Y584200D03*
X457200Y558800D03*
X431800Y584200D03*
X431800Y558800D03*
X406400Y584200D03*
X406400Y558800D03*
X381000Y584200D03*
X381000Y558800D03*
X355600Y584200D03*
X355600Y558800D03*
X330200Y584200D03*
X330200Y558800D03*
D32*
X136380Y483870D03*
X165880Y483870D03*
X230650Y596900D03*
X201150Y596900D03*
D33*
X143370Y509270D03*
X125870Y509270D03*
D34*
X171700Y556400D03*
X171700Y533400D03*
X171700Y510400D03*
D35*
X234700Y533400D03*
D36*
X241300Y127000D03*
D37*
X292100Y34798D02*
X292100Y16002D01*
X266700Y16002D02*
X266700Y34798D01*
X215900Y34798D02*
X215900Y16002D01*
X241300Y16002D02*
X241300Y34798D01*
X190500Y34798D02*
X190500Y16002D01*
M02*
