G04 EAGLE Gerber RS-274X export*
G75*
%MOMM*%
%FSLAX34Y34*%
%LPD*%
%INBottom Copper*%
%IPPOS*%
%AMOC8*
5,1,8,0,0,1.08239X$1,22.5*%
G01*
%ADD10C,2.250000*%
%ADD11P,1.732040X8X292.500000*%
%ADD12C,1.600200*%
%ADD13C,1.676400*%
%ADD14C,1.320800*%
%ADD15P,1.429621X8X202.500000*%
%ADD16P,1.814519X8X202.500000*%
%ADD17C,1.524000*%
%ADD18P,2.474344X8X22.500000*%
%ADD19C,0.812800*%
%ADD20C,0.304800*%
%ADD21C,0.756400*%

G36*
X342668Y13974D02*
X342668Y13974D01*
X342687Y13972D01*
X342789Y13994D01*
X342891Y14010D01*
X342908Y14020D01*
X342928Y14024D01*
X343017Y14077D01*
X343108Y14126D01*
X343122Y14140D01*
X343139Y14150D01*
X343206Y14229D01*
X343278Y14304D01*
X343286Y14322D01*
X343299Y14337D01*
X343338Y14433D01*
X343381Y14527D01*
X343383Y14547D01*
X343391Y14565D01*
X343409Y14732D01*
X343409Y44166D01*
X343398Y44237D01*
X343396Y44309D01*
X343378Y44358D01*
X343370Y44409D01*
X343336Y44472D01*
X343311Y44540D01*
X343279Y44580D01*
X343254Y44626D01*
X343202Y44676D01*
X343158Y44732D01*
X343114Y44760D01*
X343076Y44796D01*
X343011Y44826D01*
X342951Y44865D01*
X342900Y44878D01*
X342853Y44899D01*
X342782Y44907D01*
X342712Y44925D01*
X342660Y44921D01*
X342609Y44927D01*
X342538Y44911D01*
X342467Y44906D01*
X342419Y44885D01*
X342368Y44874D01*
X342307Y44837D01*
X342241Y44809D01*
X342185Y44765D01*
X342157Y44748D01*
X342142Y44730D01*
X342110Y44705D01*
X340409Y43004D01*
X335927Y41147D01*
X314313Y41147D01*
X309831Y43004D01*
X307593Y45242D01*
X307519Y45295D01*
X307449Y45355D01*
X307419Y45367D01*
X307393Y45386D01*
X307306Y45413D01*
X307221Y45447D01*
X307180Y45451D01*
X307158Y45458D01*
X307126Y45457D01*
X307054Y45465D01*
X263621Y45465D01*
X260727Y46664D01*
X244650Y62741D01*
X243451Y65635D01*
X243451Y100697D01*
X243437Y100787D01*
X243429Y100878D01*
X243417Y100908D01*
X243412Y100940D01*
X243369Y101020D01*
X243333Y101104D01*
X243307Y101136D01*
X243296Y101157D01*
X243273Y101179D01*
X243228Y101235D01*
X228101Y116362D01*
X228027Y116415D01*
X227958Y116475D01*
X227928Y116487D01*
X227901Y116506D01*
X227814Y116533D01*
X227730Y116567D01*
X227689Y116571D01*
X227666Y116578D01*
X227634Y116577D01*
X227563Y116585D01*
X214885Y116585D01*
X214795Y116571D01*
X214704Y116563D01*
X214674Y116551D01*
X214642Y116546D01*
X214561Y116503D01*
X214478Y116467D01*
X214445Y116441D01*
X214425Y116430D01*
X214403Y116407D01*
X214347Y116362D01*
X212431Y114447D01*
X208089Y112648D01*
X203391Y112648D01*
X199049Y114447D01*
X195727Y117769D01*
X193928Y122111D01*
X193928Y124820D01*
X193914Y124910D01*
X193906Y125001D01*
X193894Y125031D01*
X193889Y125063D01*
X193846Y125143D01*
X193810Y125227D01*
X193784Y125259D01*
X193773Y125280D01*
X193750Y125302D01*
X193705Y125358D01*
X174934Y144129D01*
X173735Y147024D01*
X173735Y202163D01*
X173721Y202253D01*
X173713Y202344D01*
X173701Y202374D01*
X173696Y202406D01*
X173653Y202486D01*
X173617Y202570D01*
X173591Y202602D01*
X173580Y202623D01*
X173557Y202645D01*
X173512Y202701D01*
X148865Y227349D01*
X148848Y227361D01*
X148836Y227376D01*
X148749Y227432D01*
X148665Y227492D01*
X148646Y227498D01*
X148629Y227509D01*
X148528Y227534D01*
X148430Y227565D01*
X148410Y227564D01*
X148390Y227569D01*
X148288Y227561D01*
X148184Y227558D01*
X148165Y227552D01*
X148145Y227550D01*
X148051Y227510D01*
X147953Y227474D01*
X147937Y227461D01*
X147919Y227454D01*
X147788Y227349D01*
X143501Y223062D01*
X137966Y220769D01*
X109474Y220769D01*
X103939Y223062D01*
X99702Y227299D01*
X97409Y232834D01*
X97409Y238826D01*
X99702Y244361D01*
X103939Y248598D01*
X109474Y250891D01*
X137966Y250891D01*
X143501Y248598D01*
X147738Y244361D01*
X147815Y244175D01*
X147877Y244075D01*
X147937Y243975D01*
X147941Y243971D01*
X147945Y243966D01*
X148035Y243891D01*
X148124Y243815D01*
X148129Y243813D01*
X148134Y243809D01*
X148243Y243767D01*
X148352Y243723D01*
X148359Y243722D01*
X148364Y243721D01*
X148382Y243720D01*
X148518Y243705D01*
X153086Y243705D01*
X155981Y242506D01*
X184649Y213838D01*
X184723Y213785D01*
X184792Y213725D01*
X184822Y213713D01*
X184849Y213694D01*
X184936Y213667D01*
X185020Y213633D01*
X185061Y213629D01*
X185084Y213622D01*
X185116Y213623D01*
X185187Y213615D01*
X196595Y213615D01*
X196685Y213629D01*
X196776Y213637D01*
X196806Y213649D01*
X196838Y213654D01*
X196919Y213697D01*
X197002Y213733D01*
X197035Y213759D01*
X197055Y213770D01*
X197077Y213793D01*
X197133Y213838D01*
X199049Y215753D01*
X203391Y217552D01*
X208089Y217552D01*
X212431Y215753D01*
X215753Y212431D01*
X217552Y208089D01*
X217552Y203391D01*
X215753Y199049D01*
X212431Y195727D01*
X208089Y193928D01*
X203391Y193928D01*
X199049Y195727D01*
X197133Y197642D01*
X197059Y197695D01*
X196990Y197755D01*
X196960Y197767D01*
X196934Y197786D01*
X196847Y197813D01*
X196762Y197847D01*
X196721Y197851D01*
X196699Y197858D01*
X196666Y197857D01*
X196595Y197865D01*
X190246Y197865D01*
X190226Y197862D01*
X190207Y197864D01*
X190105Y197842D01*
X190003Y197826D01*
X189986Y197816D01*
X189966Y197812D01*
X189877Y197759D01*
X189786Y197710D01*
X189772Y197696D01*
X189755Y197686D01*
X189688Y197607D01*
X189616Y197532D01*
X189608Y197514D01*
X189595Y197499D01*
X189556Y197403D01*
X189513Y197309D01*
X189511Y197289D01*
X189503Y197271D01*
X189485Y197104D01*
X189485Y152167D01*
X189499Y152077D01*
X189507Y151986D01*
X189519Y151956D01*
X189524Y151924D01*
X189567Y151844D01*
X189603Y151760D01*
X189629Y151728D01*
X189640Y151707D01*
X189663Y151685D01*
X189708Y151629D01*
X204842Y136495D01*
X204916Y136442D01*
X204985Y136382D01*
X205015Y136370D01*
X205042Y136351D01*
X205129Y136324D01*
X205213Y136290D01*
X205254Y136286D01*
X205277Y136279D01*
X205309Y136280D01*
X205380Y136272D01*
X208089Y136272D01*
X212431Y134473D01*
X214347Y132558D01*
X214421Y132505D01*
X214490Y132445D01*
X214520Y132433D01*
X214546Y132414D01*
X214633Y132387D01*
X214718Y132353D01*
X214759Y132349D01*
X214781Y132342D01*
X214814Y132343D01*
X214885Y132335D01*
X232706Y132335D01*
X235601Y131136D01*
X258002Y108735D01*
X259201Y105840D01*
X259201Y89165D01*
X259212Y89094D01*
X259214Y89022D01*
X259232Y88973D01*
X259240Y88922D01*
X259274Y88859D01*
X259299Y88791D01*
X259331Y88751D01*
X259356Y88704D01*
X259408Y88655D01*
X259452Y88599D01*
X259496Y88571D01*
X259534Y88535D01*
X259599Y88505D01*
X259659Y88466D01*
X259710Y88453D01*
X259757Y88431D01*
X259828Y88424D01*
X259898Y88406D01*
X259950Y88410D01*
X260001Y88404D01*
X260072Y88420D01*
X260143Y88425D01*
X260191Y88446D01*
X260242Y88457D01*
X260303Y88493D01*
X260369Y88522D01*
X260425Y88566D01*
X260453Y88583D01*
X260468Y88601D01*
X260500Y88626D01*
X263046Y91172D01*
X269537Y93861D01*
X276563Y93861D01*
X283054Y91172D01*
X288022Y86204D01*
X290711Y79713D01*
X290711Y72687D01*
X288022Y66196D01*
X284340Y62514D01*
X284298Y62456D01*
X284249Y62404D01*
X284227Y62357D01*
X284197Y62315D01*
X284176Y62246D01*
X284145Y62181D01*
X284140Y62129D01*
X284124Y62079D01*
X284126Y62008D01*
X284118Y61937D01*
X284129Y61886D01*
X284131Y61834D01*
X284155Y61766D01*
X284171Y61696D01*
X284197Y61651D01*
X284215Y61603D01*
X284260Y61547D01*
X284297Y61485D01*
X284336Y61451D01*
X284369Y61411D01*
X284429Y61372D01*
X284484Y61325D01*
X284532Y61306D01*
X284576Y61278D01*
X284645Y61260D01*
X284712Y61233D01*
X284783Y61225D01*
X284814Y61217D01*
X284838Y61219D01*
X284879Y61215D01*
X307054Y61215D01*
X307144Y61229D01*
X307235Y61237D01*
X307265Y61249D01*
X307297Y61254D01*
X307378Y61297D01*
X307462Y61333D01*
X307494Y61359D01*
X307514Y61370D01*
X307537Y61393D01*
X307593Y61438D01*
X309831Y63676D01*
X312402Y64741D01*
X312438Y64763D01*
X312477Y64777D01*
X312541Y64828D01*
X312611Y64871D01*
X312638Y64903D01*
X312671Y64929D01*
X312716Y64997D01*
X312768Y65060D01*
X312783Y65100D01*
X312806Y65135D01*
X312827Y65214D01*
X312856Y65290D01*
X312858Y65332D01*
X312868Y65372D01*
X312863Y65454D01*
X312866Y65536D01*
X312855Y65576D01*
X312852Y65618D01*
X312821Y65693D01*
X312798Y65772D01*
X312774Y65806D01*
X312758Y65845D01*
X312704Y65907D01*
X312658Y65974D01*
X312624Y65999D01*
X312596Y66031D01*
X312467Y66116D01*
X312460Y66121D01*
X312458Y66121D01*
X312456Y66123D01*
X311013Y66858D01*
X309622Y67869D01*
X308407Y69084D01*
X307396Y70475D01*
X306616Y72007D01*
X306084Y73642D01*
X305920Y74677D01*
X324358Y74677D01*
X324378Y74680D01*
X324397Y74678D01*
X324499Y74700D01*
X324601Y74717D01*
X324618Y74726D01*
X324638Y74730D01*
X324727Y74783D01*
X324818Y74832D01*
X324832Y74846D01*
X324849Y74856D01*
X324916Y74935D01*
X324987Y75010D01*
X324996Y75028D01*
X325009Y75043D01*
X325047Y75139D01*
X325091Y75233D01*
X325093Y75253D01*
X325101Y75271D01*
X325119Y75438D01*
X325119Y76962D01*
X325116Y76982D01*
X325118Y77001D01*
X325096Y77103D01*
X325079Y77205D01*
X325070Y77222D01*
X325066Y77242D01*
X325013Y77331D01*
X324964Y77422D01*
X324950Y77436D01*
X324940Y77453D01*
X324861Y77520D01*
X324786Y77591D01*
X324768Y77600D01*
X324753Y77613D01*
X324657Y77652D01*
X324563Y77695D01*
X324543Y77697D01*
X324525Y77705D01*
X324358Y77723D01*
X305920Y77723D01*
X306084Y78758D01*
X306616Y80393D01*
X307396Y81925D01*
X308407Y83316D01*
X309622Y84531D01*
X311013Y85542D01*
X312456Y86277D01*
X312490Y86302D01*
X312528Y86319D01*
X312588Y86374D01*
X312654Y86423D01*
X312679Y86457D01*
X312709Y86485D01*
X312749Y86557D01*
X312796Y86624D01*
X312808Y86664D01*
X312828Y86701D01*
X312843Y86781D01*
X312866Y86860D01*
X312864Y86902D01*
X312872Y86943D01*
X312860Y87024D01*
X312857Y87106D01*
X312842Y87145D01*
X312836Y87186D01*
X312799Y87259D01*
X312770Y87336D01*
X312743Y87368D01*
X312724Y87406D01*
X312666Y87463D01*
X312614Y87526D01*
X312579Y87548D01*
X312549Y87578D01*
X312413Y87653D01*
X312406Y87657D01*
X312404Y87657D01*
X312402Y87659D01*
X309831Y88724D01*
X306402Y92153D01*
X304545Y96635D01*
X304545Y101485D01*
X306402Y105967D01*
X309831Y109396D01*
X314313Y111253D01*
X335927Y111253D01*
X340409Y109396D01*
X342110Y107695D01*
X342168Y107654D01*
X342220Y107604D01*
X342267Y107582D01*
X342309Y107552D01*
X342378Y107531D01*
X342443Y107501D01*
X342495Y107495D01*
X342545Y107479D01*
X342616Y107481D01*
X342687Y107473D01*
X342738Y107485D01*
X342790Y107486D01*
X342858Y107510D01*
X342928Y107526D01*
X342973Y107552D01*
X343021Y107570D01*
X343077Y107615D01*
X343139Y107652D01*
X343173Y107691D01*
X343213Y107724D01*
X343252Y107784D01*
X343299Y107839D01*
X343318Y107887D01*
X343346Y107931D01*
X343364Y108000D01*
X343391Y108067D01*
X343399Y108138D01*
X343407Y108169D01*
X343405Y108193D01*
X343409Y108234D01*
X343409Y195296D01*
X343398Y195367D01*
X343396Y195439D01*
X343378Y195488D01*
X343370Y195539D01*
X343336Y195602D01*
X343311Y195670D01*
X343279Y195710D01*
X343254Y195756D01*
X343202Y195806D01*
X343158Y195862D01*
X343114Y195890D01*
X343076Y195926D01*
X343011Y195956D01*
X342951Y195995D01*
X342900Y196008D01*
X342853Y196029D01*
X342782Y196037D01*
X342712Y196055D01*
X342660Y196051D01*
X342609Y196057D01*
X342538Y196041D01*
X342467Y196036D01*
X342419Y196015D01*
X342368Y196004D01*
X342307Y195967D01*
X342241Y195939D01*
X342185Y195895D01*
X342157Y195878D01*
X342142Y195860D01*
X342110Y195835D01*
X341679Y195403D01*
X337197Y193547D01*
X315583Y193547D01*
X311101Y195404D01*
X307672Y198833D01*
X305815Y203315D01*
X305815Y208165D01*
X307672Y212647D01*
X311101Y216076D01*
X313672Y217141D01*
X313708Y217163D01*
X313747Y217177D01*
X313811Y217228D01*
X313881Y217271D01*
X313908Y217303D01*
X313941Y217329D01*
X313986Y217397D01*
X314038Y217460D01*
X314053Y217500D01*
X314076Y217535D01*
X314097Y217614D01*
X314126Y217690D01*
X314128Y217732D01*
X314138Y217772D01*
X314133Y217854D01*
X314136Y217936D01*
X314125Y217976D01*
X314122Y218018D01*
X314091Y218093D01*
X314068Y218172D01*
X314044Y218206D01*
X314028Y218245D01*
X313974Y218307D01*
X313928Y218374D01*
X313894Y218399D01*
X313866Y218431D01*
X313737Y218516D01*
X313730Y218521D01*
X313728Y218521D01*
X313726Y218523D01*
X312283Y219258D01*
X310892Y220269D01*
X309677Y221484D01*
X308666Y222875D01*
X307886Y224407D01*
X307354Y226042D01*
X307190Y227077D01*
X325628Y227077D01*
X325648Y227080D01*
X325667Y227078D01*
X325769Y227100D01*
X325871Y227117D01*
X325888Y227126D01*
X325908Y227130D01*
X325997Y227183D01*
X326088Y227232D01*
X326102Y227246D01*
X326119Y227256D01*
X326186Y227335D01*
X326257Y227410D01*
X326266Y227428D01*
X326279Y227443D01*
X326317Y227539D01*
X326361Y227633D01*
X326363Y227653D01*
X326371Y227671D01*
X326389Y227838D01*
X326389Y229362D01*
X326386Y229382D01*
X326388Y229401D01*
X326366Y229503D01*
X326349Y229605D01*
X326340Y229622D01*
X326336Y229642D01*
X326283Y229731D01*
X326234Y229822D01*
X326220Y229836D01*
X326210Y229853D01*
X326131Y229920D01*
X326056Y229991D01*
X326038Y230000D01*
X326023Y230013D01*
X325927Y230052D01*
X325833Y230095D01*
X325813Y230097D01*
X325795Y230105D01*
X325628Y230123D01*
X307190Y230123D01*
X307354Y231158D01*
X307886Y232793D01*
X308666Y234325D01*
X309677Y235716D01*
X310892Y236931D01*
X312283Y237942D01*
X313726Y238677D01*
X313760Y238702D01*
X313798Y238719D01*
X313858Y238774D01*
X313924Y238823D01*
X313949Y238857D01*
X313979Y238885D01*
X314019Y238957D01*
X314066Y239024D01*
X314078Y239064D01*
X314098Y239101D01*
X314113Y239181D01*
X314136Y239260D01*
X314134Y239302D01*
X314142Y239343D01*
X314130Y239424D01*
X314127Y239506D01*
X314112Y239545D01*
X314106Y239586D01*
X314069Y239659D01*
X314040Y239736D01*
X314013Y239768D01*
X313994Y239806D01*
X313936Y239863D01*
X313884Y239926D01*
X313849Y239948D01*
X313819Y239978D01*
X313683Y240053D01*
X313676Y240057D01*
X313674Y240057D01*
X313672Y240059D01*
X311101Y241124D01*
X307672Y244553D01*
X305815Y249035D01*
X305815Y253885D01*
X307672Y258367D01*
X310646Y261341D01*
X310658Y261357D01*
X310673Y261370D01*
X310729Y261457D01*
X310789Y261541D01*
X310795Y261560D01*
X310806Y261577D01*
X310831Y261677D01*
X310862Y261776D01*
X310861Y261796D01*
X310866Y261815D01*
X310858Y261918D01*
X310855Y262022D01*
X310849Y262040D01*
X310847Y262060D01*
X310807Y262155D01*
X310771Y262253D01*
X310758Y262268D01*
X310751Y262287D01*
X310646Y262418D01*
X304301Y268762D01*
X304227Y268815D01*
X304158Y268875D01*
X304128Y268887D01*
X304101Y268906D01*
X304014Y268933D01*
X303930Y268967D01*
X303889Y268971D01*
X303866Y268978D01*
X303834Y268977D01*
X303763Y268985D01*
X214885Y268985D01*
X214795Y268971D01*
X214704Y268963D01*
X214674Y268951D01*
X214642Y268946D01*
X214561Y268903D01*
X214478Y268867D01*
X214445Y268841D01*
X214425Y268830D01*
X214403Y268807D01*
X214347Y268762D01*
X212431Y266847D01*
X208089Y265048D01*
X203391Y265048D01*
X199049Y266847D01*
X195727Y270169D01*
X193928Y274511D01*
X193928Y279209D01*
X195727Y283551D01*
X199049Y286873D01*
X203391Y288672D01*
X208089Y288672D01*
X212431Y286873D01*
X214347Y284958D01*
X214421Y284905D01*
X214490Y284845D01*
X214520Y284833D01*
X214546Y284814D01*
X214633Y284787D01*
X214718Y284753D01*
X214759Y284749D01*
X214781Y284742D01*
X214814Y284743D01*
X214885Y284735D01*
X308906Y284735D01*
X311801Y283536D01*
X331461Y263876D01*
X331535Y263823D01*
X331604Y263763D01*
X331634Y263751D01*
X331661Y263732D01*
X331748Y263705D01*
X331832Y263671D01*
X331873Y263667D01*
X331896Y263660D01*
X331928Y263661D01*
X331999Y263653D01*
X337197Y263653D01*
X341679Y261797D01*
X342110Y261365D01*
X342168Y261323D01*
X342220Y261274D01*
X342267Y261252D01*
X342309Y261222D01*
X342378Y261201D01*
X342443Y261171D01*
X342495Y261165D01*
X342545Y261149D01*
X342616Y261151D01*
X342687Y261143D01*
X342738Y261155D01*
X342790Y261156D01*
X342858Y261180D01*
X342928Y261196D01*
X342973Y261222D01*
X343021Y261240D01*
X343077Y261285D01*
X343139Y261322D01*
X343173Y261361D01*
X343213Y261394D01*
X343252Y261454D01*
X343299Y261509D01*
X343318Y261557D01*
X343346Y261601D01*
X343364Y261670D01*
X343391Y261737D01*
X343399Y261808D01*
X343407Y261839D01*
X343405Y261863D01*
X343409Y261904D01*
X343409Y382678D01*
X343406Y382698D01*
X343408Y382717D01*
X343386Y382819D01*
X343370Y382921D01*
X343360Y382938D01*
X343356Y382958D01*
X343303Y383047D01*
X343254Y383138D01*
X343240Y383152D01*
X343230Y383169D01*
X343151Y383236D01*
X343076Y383308D01*
X343058Y383316D01*
X343043Y383329D01*
X342947Y383368D01*
X342853Y383411D01*
X342833Y383413D01*
X342815Y383421D01*
X342648Y383439D01*
X335604Y383439D01*
X335533Y383428D01*
X335462Y383426D01*
X335413Y383408D01*
X335361Y383400D01*
X335298Y383366D01*
X335231Y383341D01*
X335190Y383309D01*
X335144Y383284D01*
X335095Y383232D01*
X335039Y383188D01*
X335010Y383144D01*
X334975Y383106D01*
X334944Y383041D01*
X334906Y382981D01*
X334893Y382930D01*
X334871Y382883D01*
X334863Y382812D01*
X334845Y382742D01*
X334850Y382690D01*
X334844Y382639D01*
X334859Y382568D01*
X334865Y382497D01*
X334885Y382449D01*
X334896Y382398D01*
X334933Y382337D01*
X334961Y382271D01*
X335006Y382215D01*
X335022Y382187D01*
X335040Y382172D01*
X335066Y382140D01*
X336080Y381125D01*
X337821Y376924D01*
X337821Y357136D01*
X336080Y352935D01*
X332865Y349720D01*
X328664Y347979D01*
X324116Y347979D01*
X319915Y349720D01*
X316700Y352935D01*
X314959Y357136D01*
X314959Y376924D01*
X316700Y381125D01*
X317714Y382140D01*
X317756Y382198D01*
X317805Y382250D01*
X317827Y382297D01*
X317858Y382339D01*
X317879Y382408D01*
X317909Y382473D01*
X317915Y382525D01*
X317930Y382575D01*
X317928Y382646D01*
X317936Y382717D01*
X317925Y382768D01*
X317924Y382820D01*
X317899Y382888D01*
X317884Y382958D01*
X317857Y383003D01*
X317839Y383051D01*
X317794Y383107D01*
X317758Y383169D01*
X317718Y383203D01*
X317686Y383243D01*
X317625Y383282D01*
X317571Y383329D01*
X317523Y383348D01*
X317479Y383376D01*
X317409Y383394D01*
X317343Y383421D01*
X317271Y383429D01*
X317240Y383437D01*
X317217Y383435D01*
X317176Y383439D01*
X308408Y383439D01*
X308337Y383428D01*
X308266Y383426D01*
X308217Y383408D01*
X308165Y383400D01*
X308102Y383366D01*
X308035Y383341D01*
X307994Y383309D01*
X307948Y383284D01*
X307899Y383232D01*
X307843Y383188D01*
X307814Y383144D01*
X307778Y383106D01*
X307748Y383041D01*
X307710Y382981D01*
X307697Y382930D01*
X307675Y382883D01*
X307667Y382812D01*
X307649Y382742D01*
X307654Y382690D01*
X307648Y382639D01*
X307663Y382568D01*
X307669Y382497D01*
X307689Y382449D01*
X307700Y382398D01*
X307737Y382337D01*
X307765Y382271D01*
X307810Y382215D01*
X307826Y382187D01*
X307844Y382172D01*
X307870Y382140D01*
X308740Y381269D01*
X309680Y379975D01*
X310406Y378550D01*
X310901Y377029D01*
X311151Y375450D01*
X311151Y368553D01*
X301752Y368553D01*
X301732Y368550D01*
X301713Y368552D01*
X301611Y368530D01*
X301509Y368513D01*
X301492Y368504D01*
X301472Y368500D01*
X301383Y368447D01*
X301292Y368398D01*
X301278Y368384D01*
X301261Y368374D01*
X301194Y368295D01*
X301123Y368220D01*
X301114Y368202D01*
X301101Y368187D01*
X301063Y368091D01*
X301019Y367997D01*
X301017Y367977D01*
X301009Y367959D01*
X300991Y367792D01*
X300991Y367029D01*
X300989Y367029D01*
X300989Y367792D01*
X300986Y367812D01*
X300988Y367831D01*
X300966Y367933D01*
X300949Y368035D01*
X300940Y368052D01*
X300936Y368072D01*
X300883Y368161D01*
X300834Y368252D01*
X300820Y368266D01*
X300810Y368283D01*
X300731Y368350D01*
X300656Y368421D01*
X300638Y368430D01*
X300623Y368443D01*
X300527Y368482D01*
X300433Y368525D01*
X300413Y368527D01*
X300395Y368535D01*
X300228Y368553D01*
X290829Y368553D01*
X290829Y375450D01*
X291079Y377029D01*
X291574Y378550D01*
X292300Y379975D01*
X293240Y381269D01*
X294110Y382140D01*
X294152Y382198D01*
X294202Y382250D01*
X294223Y382297D01*
X294254Y382339D01*
X294275Y382408D01*
X294305Y382473D01*
X294311Y382525D01*
X294326Y382575D01*
X294324Y382646D01*
X294332Y382717D01*
X294321Y382768D01*
X294320Y382820D01*
X294295Y382888D01*
X294280Y382958D01*
X294253Y383003D01*
X294235Y383051D01*
X294191Y383107D01*
X294154Y383169D01*
X294114Y383203D01*
X294082Y383243D01*
X294021Y383282D01*
X293967Y383329D01*
X293919Y383348D01*
X293875Y383376D01*
X293805Y383394D01*
X293739Y383421D01*
X293667Y383429D01*
X293636Y383437D01*
X293613Y383435D01*
X293572Y383439D01*
X284804Y383439D01*
X284733Y383428D01*
X284662Y383426D01*
X284613Y383408D01*
X284561Y383400D01*
X284498Y383366D01*
X284431Y383341D01*
X284390Y383309D01*
X284344Y383284D01*
X284295Y383232D01*
X284239Y383188D01*
X284210Y383144D01*
X284175Y383106D01*
X284144Y383041D01*
X284106Y382981D01*
X284093Y382930D01*
X284071Y382883D01*
X284063Y382812D01*
X284045Y382742D01*
X284050Y382690D01*
X284044Y382639D01*
X284059Y382568D01*
X284065Y382497D01*
X284085Y382449D01*
X284096Y382398D01*
X284133Y382337D01*
X284161Y382271D01*
X284206Y382215D01*
X284222Y382187D01*
X284240Y382172D01*
X284266Y382140D01*
X285280Y381125D01*
X287021Y376924D01*
X287021Y357136D01*
X285280Y352935D01*
X282065Y349720D01*
X277864Y347979D01*
X273316Y347979D01*
X269115Y349720D01*
X265900Y352935D01*
X264159Y357136D01*
X264159Y376924D01*
X265900Y381125D01*
X266914Y382140D01*
X266956Y382198D01*
X267005Y382250D01*
X267027Y382297D01*
X267058Y382339D01*
X267079Y382408D01*
X267109Y382473D01*
X267115Y382525D01*
X267130Y382575D01*
X267128Y382646D01*
X267136Y382717D01*
X267125Y382768D01*
X267124Y382820D01*
X267099Y382888D01*
X267084Y382958D01*
X267057Y383003D01*
X267039Y383051D01*
X266994Y383107D01*
X266958Y383169D01*
X266918Y383203D01*
X266886Y383243D01*
X266825Y383282D01*
X266771Y383329D01*
X266723Y383348D01*
X266679Y383376D01*
X266609Y383394D01*
X266543Y383421D01*
X266471Y383429D01*
X266440Y383437D01*
X266417Y383435D01*
X266376Y383439D01*
X257608Y383439D01*
X257537Y383428D01*
X257466Y383426D01*
X257417Y383408D01*
X257365Y383400D01*
X257302Y383366D01*
X257235Y383341D01*
X257194Y383309D01*
X257148Y383284D01*
X257099Y383232D01*
X257043Y383188D01*
X257014Y383144D01*
X256978Y383106D01*
X256948Y383041D01*
X256910Y382981D01*
X256897Y382930D01*
X256875Y382883D01*
X256867Y382812D01*
X256849Y382742D01*
X256854Y382690D01*
X256848Y382639D01*
X256863Y382568D01*
X256869Y382497D01*
X256889Y382449D01*
X256900Y382398D01*
X256937Y382337D01*
X256965Y382271D01*
X257010Y382215D01*
X257026Y382187D01*
X257044Y382172D01*
X257070Y382140D01*
X257940Y381269D01*
X258880Y379975D01*
X259606Y378550D01*
X260101Y377029D01*
X260351Y375450D01*
X260351Y368553D01*
X250952Y368553D01*
X250932Y368550D01*
X250913Y368552D01*
X250811Y368530D01*
X250709Y368513D01*
X250692Y368504D01*
X250672Y368500D01*
X250583Y368447D01*
X250492Y368398D01*
X250478Y368384D01*
X250461Y368374D01*
X250394Y368295D01*
X250323Y368220D01*
X250314Y368202D01*
X250301Y368187D01*
X250263Y368091D01*
X250219Y367997D01*
X250217Y367977D01*
X250209Y367959D01*
X250191Y367792D01*
X250191Y367029D01*
X250189Y367029D01*
X250189Y367792D01*
X250186Y367812D01*
X250188Y367831D01*
X250166Y367933D01*
X250149Y368035D01*
X250140Y368052D01*
X250136Y368072D01*
X250083Y368161D01*
X250034Y368252D01*
X250020Y368266D01*
X250010Y368283D01*
X249931Y368350D01*
X249856Y368421D01*
X249838Y368430D01*
X249823Y368443D01*
X249727Y368482D01*
X249633Y368525D01*
X249613Y368527D01*
X249595Y368535D01*
X249428Y368553D01*
X240029Y368553D01*
X240029Y375450D01*
X240279Y377029D01*
X240774Y378550D01*
X241500Y379975D01*
X242440Y381269D01*
X243310Y382140D01*
X243352Y382198D01*
X243402Y382250D01*
X243423Y382297D01*
X243454Y382339D01*
X243475Y382408D01*
X243505Y382473D01*
X243511Y382525D01*
X243526Y382575D01*
X243524Y382646D01*
X243532Y382717D01*
X243521Y382768D01*
X243520Y382820D01*
X243495Y382888D01*
X243480Y382958D01*
X243453Y383003D01*
X243435Y383051D01*
X243391Y383107D01*
X243354Y383169D01*
X243314Y383203D01*
X243282Y383243D01*
X243221Y383282D01*
X243167Y383329D01*
X243119Y383348D01*
X243075Y383376D01*
X243005Y383394D01*
X242939Y383421D01*
X242867Y383429D01*
X242836Y383437D01*
X242813Y383435D01*
X242772Y383439D01*
X234004Y383439D01*
X233933Y383428D01*
X233862Y383426D01*
X233813Y383408D01*
X233761Y383400D01*
X233698Y383366D01*
X233631Y383341D01*
X233590Y383309D01*
X233544Y383284D01*
X233495Y383232D01*
X233439Y383188D01*
X233410Y383144D01*
X233375Y383106D01*
X233344Y383041D01*
X233306Y382981D01*
X233293Y382930D01*
X233271Y382883D01*
X233263Y382812D01*
X233245Y382742D01*
X233250Y382690D01*
X233244Y382639D01*
X233259Y382568D01*
X233265Y382497D01*
X233285Y382449D01*
X233296Y382398D01*
X233333Y382337D01*
X233361Y382271D01*
X233406Y382215D01*
X233422Y382187D01*
X233440Y382172D01*
X233466Y382140D01*
X234480Y381125D01*
X236221Y376924D01*
X236221Y357136D01*
X234480Y352935D01*
X231265Y349720D01*
X227064Y347979D01*
X222516Y347979D01*
X218315Y349720D01*
X215100Y352935D01*
X213359Y357136D01*
X213359Y376924D01*
X215100Y381125D01*
X216114Y382140D01*
X216156Y382198D01*
X216205Y382250D01*
X216227Y382297D01*
X216258Y382339D01*
X216279Y382408D01*
X216309Y382473D01*
X216315Y382525D01*
X216330Y382575D01*
X216328Y382646D01*
X216336Y382717D01*
X216325Y382768D01*
X216324Y382820D01*
X216299Y382888D01*
X216284Y382958D01*
X216257Y383003D01*
X216239Y383051D01*
X216194Y383107D01*
X216158Y383169D01*
X216118Y383203D01*
X216086Y383243D01*
X216025Y383282D01*
X215971Y383329D01*
X215923Y383348D01*
X215879Y383376D01*
X215809Y383394D01*
X215743Y383421D01*
X215671Y383429D01*
X215640Y383437D01*
X215617Y383435D01*
X215576Y383439D01*
X36322Y383439D01*
X36302Y383436D01*
X36283Y383438D01*
X36181Y383416D01*
X36079Y383400D01*
X36062Y383390D01*
X36042Y383386D01*
X35953Y383333D01*
X35862Y383284D01*
X35848Y383270D01*
X35831Y383260D01*
X35764Y383181D01*
X35692Y383106D01*
X35684Y383088D01*
X35671Y383073D01*
X35632Y382977D01*
X35589Y382883D01*
X35587Y382863D01*
X35579Y382845D01*
X35561Y382678D01*
X35561Y342906D01*
X35572Y342835D01*
X35574Y342764D01*
X35592Y342715D01*
X35600Y342663D01*
X35634Y342600D01*
X35659Y342533D01*
X35691Y342492D01*
X35716Y342446D01*
X35768Y342397D01*
X35812Y342341D01*
X35856Y342312D01*
X35894Y342277D01*
X35959Y342246D01*
X36019Y342208D01*
X36070Y342195D01*
X36117Y342173D01*
X36188Y342165D01*
X36258Y342148D01*
X36310Y342152D01*
X36361Y342146D01*
X36432Y342161D01*
X36503Y342167D01*
X36551Y342187D01*
X36602Y342198D01*
X36663Y342235D01*
X36729Y342263D01*
X36785Y342308D01*
X36813Y342324D01*
X36828Y342342D01*
X36860Y342368D01*
X45013Y350521D01*
X49277Y350521D01*
X49277Y337312D01*
X49280Y337292D01*
X49278Y337273D01*
X49300Y337171D01*
X49317Y337069D01*
X49326Y337052D01*
X49330Y337032D01*
X49383Y336943D01*
X49432Y336852D01*
X49446Y336838D01*
X49456Y336821D01*
X49535Y336754D01*
X49610Y336683D01*
X49628Y336674D01*
X49643Y336661D01*
X49739Y336623D01*
X49833Y336579D01*
X49853Y336577D01*
X49871Y336569D01*
X50038Y336551D01*
X50801Y336551D01*
X50801Y336549D01*
X50038Y336549D01*
X50018Y336546D01*
X49999Y336548D01*
X49897Y336526D01*
X49795Y336509D01*
X49778Y336500D01*
X49758Y336496D01*
X49669Y336443D01*
X49578Y336394D01*
X49564Y336380D01*
X49547Y336370D01*
X49480Y336291D01*
X49409Y336216D01*
X49400Y336198D01*
X49387Y336183D01*
X49348Y336087D01*
X49305Y335993D01*
X49303Y335973D01*
X49295Y335955D01*
X49277Y335788D01*
X49277Y322579D01*
X45013Y322579D01*
X36860Y330732D01*
X36802Y330774D01*
X36750Y330823D01*
X36703Y330845D01*
X36661Y330876D01*
X36592Y330897D01*
X36527Y330927D01*
X36475Y330933D01*
X36425Y330948D01*
X36354Y330946D01*
X36283Y330954D01*
X36232Y330943D01*
X36180Y330942D01*
X36112Y330917D01*
X36042Y330902D01*
X35997Y330875D01*
X35949Y330857D01*
X35893Y330812D01*
X35831Y330776D01*
X35797Y330736D01*
X35757Y330704D01*
X35718Y330643D01*
X35671Y330589D01*
X35652Y330540D01*
X35624Y330497D01*
X35606Y330427D01*
X35579Y330361D01*
X35571Y330289D01*
X35563Y330258D01*
X35565Y330235D01*
X35561Y330194D01*
X35561Y306602D01*
X35572Y306531D01*
X35574Y306460D01*
X35592Y306411D01*
X35600Y306359D01*
X35634Y306296D01*
X35659Y306229D01*
X35691Y306188D01*
X35716Y306142D01*
X35768Y306093D01*
X35812Y306037D01*
X35856Y306009D01*
X35894Y305973D01*
X35959Y305942D01*
X36019Y305904D01*
X36070Y305891D01*
X36117Y305869D01*
X36188Y305861D01*
X36258Y305844D01*
X36310Y305848D01*
X36361Y305842D01*
X36432Y305857D01*
X36503Y305863D01*
X36551Y305883D01*
X36602Y305894D01*
X36663Y305931D01*
X36729Y305959D01*
X36785Y306004D01*
X36813Y306020D01*
X36828Y306038D01*
X36860Y306064D01*
X44487Y313691D01*
X57113Y313691D01*
X66041Y304763D01*
X66041Y292137D01*
X57113Y283209D01*
X44487Y283209D01*
X36860Y290836D01*
X36802Y290878D01*
X36750Y290927D01*
X36703Y290949D01*
X36661Y290980D01*
X36592Y291001D01*
X36527Y291031D01*
X36475Y291037D01*
X36425Y291052D01*
X36354Y291050D01*
X36283Y291058D01*
X36232Y291047D01*
X36180Y291046D01*
X36112Y291021D01*
X36042Y291006D01*
X35997Y290979D01*
X35949Y290961D01*
X35893Y290916D01*
X35831Y290880D01*
X35797Y290840D01*
X35757Y290807D01*
X35718Y290747D01*
X35671Y290693D01*
X35652Y290644D01*
X35624Y290601D01*
X35606Y290531D01*
X35579Y290465D01*
X35571Y290393D01*
X35563Y290362D01*
X35565Y290339D01*
X35561Y290298D01*
X35561Y137356D01*
X35568Y137311D01*
X35566Y137265D01*
X35588Y137190D01*
X35600Y137113D01*
X35622Y137073D01*
X35635Y137028D01*
X35679Y136964D01*
X35716Y136896D01*
X35749Y136864D01*
X35775Y136826D01*
X35838Y136780D01*
X35894Y136726D01*
X35936Y136707D01*
X35972Y136680D01*
X36046Y136655D01*
X36117Y136623D01*
X36163Y136618D01*
X36206Y136603D01*
X36284Y136604D01*
X36361Y136596D01*
X36406Y136605D01*
X36452Y136606D01*
X36584Y136644D01*
X36602Y136648D01*
X36606Y136650D01*
X36613Y136652D01*
X40906Y138431D01*
X60694Y138431D01*
X64895Y136690D01*
X68110Y133475D01*
X69851Y129274D01*
X69851Y124726D01*
X68110Y120525D01*
X64895Y117310D01*
X60694Y115569D01*
X40906Y115569D01*
X36613Y117348D01*
X36569Y117358D01*
X36527Y117377D01*
X36450Y117386D01*
X36374Y117404D01*
X36328Y117399D01*
X36283Y117404D01*
X36206Y117388D01*
X36129Y117381D01*
X36087Y117362D01*
X36042Y117352D01*
X35975Y117312D01*
X35904Y117281D01*
X35870Y117250D01*
X35831Y117226D01*
X35780Y117167D01*
X35723Y117114D01*
X35701Y117074D01*
X35671Y117039D01*
X35642Y116967D01*
X35605Y116899D01*
X35596Y116854D01*
X35579Y116811D01*
X35564Y116675D01*
X35561Y116657D01*
X35562Y116652D01*
X35561Y116644D01*
X35561Y111956D01*
X35568Y111911D01*
X35566Y111865D01*
X35588Y111790D01*
X35600Y111713D01*
X35622Y111673D01*
X35635Y111628D01*
X35679Y111564D01*
X35716Y111496D01*
X35749Y111464D01*
X35775Y111426D01*
X35838Y111380D01*
X35894Y111326D01*
X35936Y111307D01*
X35972Y111280D01*
X36046Y111255D01*
X36117Y111223D01*
X36163Y111218D01*
X36206Y111203D01*
X36284Y111204D01*
X36361Y111196D01*
X36406Y111205D01*
X36452Y111206D01*
X36584Y111244D01*
X36602Y111248D01*
X36606Y111250D01*
X36613Y111252D01*
X40906Y113031D01*
X60694Y113031D01*
X64895Y111290D01*
X68110Y108075D01*
X69851Y103874D01*
X69851Y99326D01*
X68110Y95125D01*
X64895Y91910D01*
X60694Y90169D01*
X40906Y90169D01*
X36613Y91948D01*
X36569Y91958D01*
X36527Y91977D01*
X36450Y91986D01*
X36374Y92004D01*
X36328Y91999D01*
X36283Y92004D01*
X36206Y91988D01*
X36129Y91981D01*
X36087Y91962D01*
X36042Y91952D01*
X35975Y91912D01*
X35904Y91881D01*
X35870Y91850D01*
X35831Y91826D01*
X35780Y91767D01*
X35723Y91714D01*
X35701Y91674D01*
X35671Y91639D01*
X35642Y91567D01*
X35605Y91499D01*
X35596Y91454D01*
X35579Y91411D01*
X35564Y91275D01*
X35561Y91257D01*
X35562Y91252D01*
X35561Y91244D01*
X35561Y84718D01*
X35563Y84706D01*
X35561Y84694D01*
X35582Y84585D01*
X35600Y84475D01*
X35606Y84464D01*
X35608Y84453D01*
X35664Y84356D01*
X35716Y84258D01*
X35724Y84249D01*
X35730Y84239D01*
X35813Y84165D01*
X35894Y84088D01*
X35905Y84083D01*
X35914Y84075D01*
X36016Y84031D01*
X36117Y83985D01*
X36129Y83983D01*
X36140Y83978D01*
X36251Y83970D01*
X36361Y83957D01*
X36373Y83960D01*
X36385Y83959D01*
X36493Y83986D01*
X36602Y84010D01*
X36612Y84016D01*
X36624Y84019D01*
X36769Y84102D01*
X37855Y84890D01*
X39280Y85616D01*
X40801Y86111D01*
X42380Y86361D01*
X49277Y86361D01*
X49277Y76962D01*
X49280Y76942D01*
X49278Y76923D01*
X49300Y76821D01*
X49317Y76719D01*
X49326Y76702D01*
X49330Y76682D01*
X49383Y76593D01*
X49432Y76502D01*
X49446Y76488D01*
X49456Y76471D01*
X49535Y76404D01*
X49610Y76333D01*
X49628Y76324D01*
X49643Y76311D01*
X49739Y76273D01*
X49833Y76229D01*
X49853Y76227D01*
X49871Y76219D01*
X50038Y76201D01*
X50801Y76201D01*
X50801Y76199D01*
X50038Y76199D01*
X50018Y76196D01*
X49999Y76198D01*
X49897Y76176D01*
X49795Y76159D01*
X49778Y76150D01*
X49758Y76146D01*
X49669Y76093D01*
X49578Y76044D01*
X49564Y76030D01*
X49547Y76020D01*
X49480Y75941D01*
X49409Y75866D01*
X49400Y75848D01*
X49387Y75833D01*
X49348Y75737D01*
X49305Y75643D01*
X49303Y75623D01*
X49295Y75605D01*
X49277Y75438D01*
X49277Y66039D01*
X42380Y66039D01*
X40801Y66289D01*
X39280Y66784D01*
X37855Y67510D01*
X36769Y68298D01*
X36759Y68304D01*
X36750Y68312D01*
X36649Y68359D01*
X36550Y68409D01*
X36538Y68410D01*
X36527Y68415D01*
X36416Y68428D01*
X36306Y68443D01*
X36294Y68441D01*
X36283Y68443D01*
X36174Y68419D01*
X36064Y68399D01*
X36054Y68393D01*
X36042Y68390D01*
X35946Y68333D01*
X35849Y68279D01*
X35841Y68270D01*
X35831Y68264D01*
X35759Y68179D01*
X35684Y68097D01*
X35679Y68086D01*
X35671Y68077D01*
X35629Y67974D01*
X35585Y67872D01*
X35584Y67860D01*
X35579Y67849D01*
X35561Y67682D01*
X35561Y61156D01*
X35563Y61141D01*
X35562Y61129D01*
X35568Y61101D01*
X35566Y61065D01*
X35588Y60990D01*
X35600Y60913D01*
X35622Y60873D01*
X35635Y60828D01*
X35679Y60764D01*
X35716Y60696D01*
X35749Y60664D01*
X35775Y60626D01*
X35838Y60580D01*
X35894Y60526D01*
X35936Y60507D01*
X35972Y60480D01*
X36046Y60455D01*
X36117Y60423D01*
X36163Y60418D01*
X36206Y60403D01*
X36284Y60404D01*
X36361Y60396D01*
X36406Y60405D01*
X36452Y60406D01*
X36584Y60444D01*
X36602Y60448D01*
X36606Y60450D01*
X36613Y60452D01*
X40906Y62231D01*
X60694Y62231D01*
X64956Y60465D01*
X65070Y60439D01*
X65183Y60410D01*
X65190Y60410D01*
X65196Y60409D01*
X65312Y60420D01*
X65428Y60429D01*
X65434Y60431D01*
X65440Y60432D01*
X65548Y60480D01*
X65655Y60525D01*
X65661Y60530D01*
X65665Y60532D01*
X65679Y60545D01*
X65786Y60630D01*
X79532Y74377D01*
X79585Y74451D01*
X79645Y74520D01*
X79657Y74550D01*
X79676Y74577D01*
X79703Y74663D01*
X79737Y74748D01*
X79741Y74789D01*
X79748Y74812D01*
X79747Y74844D01*
X79755Y74915D01*
X79755Y152415D01*
X79741Y152505D01*
X79733Y152596D01*
X79721Y152626D01*
X79716Y152658D01*
X79673Y152738D01*
X79637Y152822D01*
X79611Y152854D01*
X79600Y152875D01*
X79577Y152897D01*
X79532Y152953D01*
X69662Y162823D01*
X69646Y162835D01*
X69634Y162850D01*
X69546Y162907D01*
X69463Y162967D01*
X69444Y162973D01*
X69427Y162983D01*
X69326Y163009D01*
X69228Y163039D01*
X69208Y163039D01*
X69188Y163043D01*
X69085Y163035D01*
X68982Y163033D01*
X68963Y163026D01*
X68943Y163024D01*
X68848Y162984D01*
X68751Y162948D01*
X68735Y162936D01*
X68717Y162928D01*
X68586Y162823D01*
X68383Y162621D01*
X64556Y161035D01*
X47204Y161035D01*
X43376Y162621D01*
X40447Y165550D01*
X38861Y169378D01*
X38861Y173522D01*
X40447Y177350D01*
X43376Y180279D01*
X47204Y181865D01*
X64556Y181865D01*
X68384Y180279D01*
X71313Y177350D01*
X71352Y177255D01*
X71414Y177155D01*
X71474Y177055D01*
X71479Y177051D01*
X71482Y177046D01*
X71573Y176971D01*
X71661Y176895D01*
X71667Y176893D01*
X71672Y176889D01*
X71780Y176847D01*
X71889Y176803D01*
X71897Y176802D01*
X71901Y176801D01*
X71919Y176800D01*
X72056Y176785D01*
X95882Y176785D01*
X95972Y176799D01*
X96063Y176807D01*
X96092Y176819D01*
X96124Y176824D01*
X96205Y176867D01*
X96289Y176903D01*
X96321Y176929D01*
X96342Y176940D01*
X96364Y176963D01*
X96420Y177008D01*
X97299Y177887D01*
X100090Y179043D01*
X103110Y179043D01*
X105901Y177887D01*
X108037Y175751D01*
X109193Y172960D01*
X109193Y169940D01*
X108037Y167149D01*
X105901Y165013D01*
X103110Y163857D01*
X100090Y163857D01*
X97299Y165013D01*
X96420Y165892D01*
X96346Y165945D01*
X96277Y166005D01*
X96246Y166017D01*
X96220Y166036D01*
X96133Y166063D01*
X96048Y166097D01*
X96007Y166101D01*
X95985Y166108D01*
X95953Y166107D01*
X95882Y166115D01*
X83297Y166115D01*
X83226Y166104D01*
X83155Y166102D01*
X83106Y166084D01*
X83054Y166076D01*
X82991Y166042D01*
X82924Y166017D01*
X82883Y165985D01*
X82837Y165960D01*
X82788Y165909D01*
X82732Y165864D01*
X82703Y165820D01*
X82667Y165782D01*
X82637Y165717D01*
X82599Y165657D01*
X82586Y165606D01*
X82564Y165559D01*
X82556Y165488D01*
X82538Y165418D01*
X82543Y165366D01*
X82537Y165315D01*
X82552Y165244D01*
X82558Y165173D01*
X82578Y165125D01*
X82589Y165074D01*
X82626Y165013D01*
X82654Y164947D01*
X82699Y164891D01*
X82715Y164863D01*
X82733Y164848D01*
X82759Y164816D01*
X88005Y159570D01*
X89613Y157962D01*
X90425Y156001D01*
X90425Y71329D01*
X89613Y69368D01*
X88005Y67760D01*
X70074Y49829D01*
X70021Y49755D01*
X69961Y49686D01*
X69949Y49656D01*
X69930Y49630D01*
X69903Y49543D01*
X69869Y49458D01*
X69865Y49417D01*
X69858Y49394D01*
X69859Y49362D01*
X69851Y49291D01*
X69851Y48526D01*
X68110Y44325D01*
X64895Y41110D01*
X60694Y39369D01*
X40906Y39369D01*
X36613Y41148D01*
X36569Y41158D01*
X36527Y41177D01*
X36450Y41186D01*
X36374Y41204D01*
X36328Y41199D01*
X36283Y41204D01*
X36206Y41188D01*
X36129Y41181D01*
X36087Y41162D01*
X36042Y41152D01*
X35975Y41112D01*
X35904Y41081D01*
X35870Y41050D01*
X35831Y41026D01*
X35780Y40967D01*
X35723Y40914D01*
X35701Y40874D01*
X35671Y40839D01*
X35642Y40767D01*
X35605Y40699D01*
X35596Y40654D01*
X35579Y40611D01*
X35564Y40475D01*
X35561Y40457D01*
X35562Y40452D01*
X35561Y40444D01*
X35561Y35756D01*
X35568Y35711D01*
X35566Y35665D01*
X35588Y35590D01*
X35600Y35513D01*
X35622Y35473D01*
X35635Y35428D01*
X35679Y35364D01*
X35716Y35296D01*
X35749Y35264D01*
X35775Y35226D01*
X35838Y35180D01*
X35894Y35126D01*
X35936Y35107D01*
X35972Y35080D01*
X36046Y35055D01*
X36117Y35023D01*
X36163Y35018D01*
X36206Y35003D01*
X36284Y35004D01*
X36361Y34996D01*
X36406Y35005D01*
X36452Y35006D01*
X36584Y35044D01*
X36602Y35048D01*
X36606Y35050D01*
X36613Y35052D01*
X40906Y36831D01*
X60694Y36831D01*
X64895Y35090D01*
X68110Y31875D01*
X69851Y27674D01*
X69851Y23126D01*
X68110Y18925D01*
X64895Y15710D01*
X64233Y15435D01*
X64150Y15384D01*
X64064Y15338D01*
X64046Y15319D01*
X64024Y15306D01*
X63962Y15231D01*
X63895Y15160D01*
X63884Y15136D01*
X63867Y15116D01*
X63832Y15025D01*
X63791Y14937D01*
X63788Y14911D01*
X63779Y14887D01*
X63775Y14789D01*
X63764Y14693D01*
X63770Y14667D01*
X63768Y14641D01*
X63796Y14547D01*
X63816Y14452D01*
X63830Y14430D01*
X63837Y14405D01*
X63892Y14325D01*
X63942Y14241D01*
X63962Y14224D01*
X63977Y14203D01*
X64055Y14145D01*
X64129Y14081D01*
X64154Y14071D01*
X64175Y14056D01*
X64267Y14026D01*
X64358Y13989D01*
X64390Y13986D01*
X64408Y13980D01*
X64442Y13980D01*
X64524Y13971D01*
X342648Y13971D01*
X342668Y13974D01*
G37*
%LPC*%
G36*
X109474Y322369D02*
X109474Y322369D01*
X103939Y324662D01*
X99702Y328899D01*
X97409Y334434D01*
X97409Y340426D01*
X99702Y345961D01*
X103939Y350198D01*
X109474Y352491D01*
X137966Y352491D01*
X143501Y350198D01*
X147738Y345961D01*
X150031Y340426D01*
X150031Y334434D01*
X147738Y328899D01*
X143501Y324662D01*
X137966Y322369D01*
X109474Y322369D01*
G37*
%LPD*%
%LPC*%
G36*
X109474Y93769D02*
X109474Y93769D01*
X103939Y96062D01*
X99702Y100299D01*
X97409Y105834D01*
X97409Y111826D01*
X99702Y117361D01*
X103939Y121598D01*
X109474Y123891D01*
X137966Y123891D01*
X143501Y121598D01*
X147738Y117361D01*
X150031Y111826D01*
X150031Y105834D01*
X147738Y100299D01*
X143501Y96062D01*
X137966Y93769D01*
X109474Y93769D01*
G37*
%LPD*%
%LPC*%
G36*
X204500Y314197D02*
X204500Y314197D01*
X197357Y321340D01*
X197357Y331440D01*
X204500Y338583D01*
X214600Y338583D01*
X221235Y331948D01*
X221309Y331895D01*
X221379Y331835D01*
X221409Y331823D01*
X221435Y331804D01*
X221522Y331777D01*
X221607Y331743D01*
X221648Y331739D01*
X221670Y331732D01*
X221702Y331733D01*
X221774Y331725D01*
X245561Y331725D01*
X245651Y331739D01*
X245742Y331747D01*
X245772Y331759D01*
X245804Y331764D01*
X245884Y331807D01*
X245968Y331843D01*
X246000Y331869D01*
X246021Y331880D01*
X246043Y331903D01*
X246099Y331948D01*
X250956Y336805D01*
X259584Y336805D01*
X265685Y330704D01*
X265685Y322076D01*
X259584Y315975D01*
X250956Y315975D01*
X246099Y320832D01*
X246025Y320885D01*
X245956Y320945D01*
X245926Y320957D01*
X245899Y320976D01*
X245812Y321003D01*
X245728Y321037D01*
X245687Y321041D01*
X245664Y321048D01*
X245632Y321047D01*
X245561Y321055D01*
X221774Y321055D01*
X221684Y321041D01*
X221593Y321033D01*
X221563Y321021D01*
X221531Y321016D01*
X221450Y320973D01*
X221366Y320937D01*
X221334Y320911D01*
X221314Y320900D01*
X221291Y320877D01*
X221235Y320832D01*
X214600Y314197D01*
X204500Y314197D01*
G37*
%LPD*%
%LPC*%
G36*
X270807Y210939D02*
X270807Y210939D01*
X264316Y213628D01*
X259348Y218596D01*
X256659Y225087D01*
X256659Y232113D01*
X259348Y238604D01*
X264316Y243572D01*
X270807Y246261D01*
X277833Y246261D01*
X284324Y243572D01*
X289292Y238604D01*
X291981Y232113D01*
X291981Y225087D01*
X289292Y218596D01*
X284324Y213628D01*
X277833Y210939D01*
X270807Y210939D01*
G37*
%LPD*%
%LPC*%
G36*
X47204Y186435D02*
X47204Y186435D01*
X43376Y188021D01*
X40447Y190950D01*
X38861Y194778D01*
X38861Y198922D01*
X40447Y202750D01*
X43376Y205679D01*
X47204Y207265D01*
X64556Y207265D01*
X68384Y205679D01*
X71313Y202750D01*
X72899Y198922D01*
X72899Y194778D01*
X71313Y190950D01*
X68384Y188021D01*
X64556Y186435D01*
X47204Y186435D01*
G37*
%LPD*%
%LPC*%
G36*
X203391Y41528D02*
X203391Y41528D01*
X199049Y43327D01*
X195727Y46649D01*
X193928Y50991D01*
X193928Y55689D01*
X195727Y60031D01*
X199049Y63353D01*
X203391Y65152D01*
X208089Y65152D01*
X212431Y63353D01*
X215753Y60031D01*
X217552Y55689D01*
X217552Y50991D01*
X215753Y46649D01*
X212431Y43327D01*
X208089Y41528D01*
X203391Y41528D01*
G37*
%LPD*%
%LPC*%
G36*
X113993Y59553D02*
X113993Y59553D01*
X113993Y71821D01*
X136055Y71821D01*
X138199Y71481D01*
X140264Y70810D01*
X142198Y69825D01*
X143954Y68549D01*
X145489Y67014D01*
X146765Y65258D01*
X147750Y63324D01*
X148421Y61259D01*
X148691Y59553D01*
X113993Y59553D01*
G37*
%LPD*%
%LPC*%
G36*
X113993Y44239D02*
X113993Y44239D01*
X113993Y56507D01*
X148691Y56507D01*
X148421Y54801D01*
X147750Y52736D01*
X146765Y50802D01*
X145489Y49046D01*
X143954Y47511D01*
X142198Y46235D01*
X140264Y45250D01*
X138199Y44579D01*
X136055Y44239D01*
X113993Y44239D01*
G37*
%LPD*%
%LPC*%
G36*
X276356Y315975D02*
X276356Y315975D01*
X270255Y322076D01*
X270255Y330704D01*
X276356Y336805D01*
X284984Y336805D01*
X291085Y330704D01*
X291085Y322076D01*
X284984Y315975D01*
X276356Y315975D01*
G37*
%LPD*%
%LPC*%
G36*
X52323Y338073D02*
X52323Y338073D01*
X52323Y350521D01*
X56587Y350521D01*
X64771Y342337D01*
X64771Y338073D01*
X52323Y338073D01*
G37*
%LPD*%
%LPC*%
G36*
X52323Y322579D02*
X52323Y322579D01*
X52323Y335027D01*
X64771Y335027D01*
X64771Y330763D01*
X56587Y322579D01*
X52323Y322579D01*
G37*
%LPD*%
%LPC*%
G36*
X52323Y77723D02*
X52323Y77723D01*
X52323Y86361D01*
X59220Y86361D01*
X60799Y86111D01*
X62320Y85616D01*
X63745Y84890D01*
X65039Y83950D01*
X66170Y82819D01*
X67110Y81525D01*
X67836Y80100D01*
X68331Y78579D01*
X68466Y77723D01*
X52323Y77723D01*
G37*
%LPD*%
%LPC*%
G36*
X302513Y365507D02*
X302513Y365507D01*
X311151Y365507D01*
X311151Y358610D01*
X310901Y357031D01*
X310406Y355510D01*
X309680Y354085D01*
X308740Y352791D01*
X307609Y351660D01*
X306315Y350720D01*
X304890Y349994D01*
X303369Y349499D01*
X302513Y349364D01*
X302513Y365507D01*
G37*
%LPD*%
%LPC*%
G36*
X251713Y365507D02*
X251713Y365507D01*
X260351Y365507D01*
X260351Y358610D01*
X260101Y357031D01*
X259606Y355510D01*
X258880Y354085D01*
X257940Y352791D01*
X256809Y351660D01*
X255515Y350720D01*
X254090Y349994D01*
X252569Y349499D01*
X251713Y349364D01*
X251713Y365507D01*
G37*
%LPD*%
%LPC*%
G36*
X52323Y66039D02*
X52323Y66039D01*
X52323Y74677D01*
X68466Y74677D01*
X68331Y73821D01*
X67836Y72300D01*
X67110Y70875D01*
X66170Y69581D01*
X65039Y68450D01*
X63745Y67510D01*
X62320Y66784D01*
X60799Y66289D01*
X59220Y66039D01*
X52323Y66039D01*
G37*
%LPD*%
%LPC*%
G36*
X298611Y349499D02*
X298611Y349499D01*
X297090Y349994D01*
X295665Y350720D01*
X294371Y351660D01*
X293240Y352791D01*
X292300Y354085D01*
X291574Y355510D01*
X291079Y357031D01*
X290829Y358610D01*
X290829Y365507D01*
X299467Y365507D01*
X299467Y349364D01*
X298611Y349499D01*
G37*
%LPD*%
%LPC*%
G36*
X247811Y349499D02*
X247811Y349499D01*
X246290Y349994D01*
X244865Y350720D01*
X243571Y351660D01*
X242440Y352791D01*
X241500Y354085D01*
X240774Y355510D01*
X240279Y357031D01*
X240029Y358610D01*
X240029Y365507D01*
X248667Y365507D01*
X248667Y349364D01*
X247811Y349499D01*
G37*
%LPD*%
%LPC*%
G36*
X98749Y59553D02*
X98749Y59553D01*
X99019Y61259D01*
X99690Y63324D01*
X100675Y65258D01*
X101951Y67014D01*
X103486Y68549D01*
X105242Y69825D01*
X107176Y70810D01*
X109241Y71481D01*
X110947Y71751D01*
X110947Y59553D01*
X98749Y59553D01*
G37*
%LPD*%
%LPC*%
G36*
X109241Y44579D02*
X109241Y44579D01*
X107176Y45250D01*
X105242Y46235D01*
X103486Y47511D01*
X101951Y49046D01*
X100675Y50802D01*
X99690Y52736D01*
X99019Y54801D01*
X98749Y56507D01*
X110947Y56507D01*
X110947Y44309D01*
X109241Y44579D01*
G37*
%LPD*%
%LPC*%
G36*
X57403Y223773D02*
X57403Y223773D01*
X57403Y231395D01*
X63385Y231395D01*
X65151Y231043D01*
X66816Y230354D01*
X68314Y229353D01*
X69587Y228080D01*
X70588Y226582D01*
X71277Y224917D01*
X71505Y223773D01*
X57403Y223773D01*
G37*
%LPD*%
%LPC*%
G36*
X40255Y223773D02*
X40255Y223773D01*
X40483Y224917D01*
X41172Y226582D01*
X42173Y228080D01*
X43446Y229353D01*
X44944Y230354D01*
X46609Y231043D01*
X48375Y231395D01*
X54357Y231395D01*
X54357Y223773D01*
X40255Y223773D01*
G37*
%LPD*%
%LPC*%
G36*
X57403Y213105D02*
X57403Y213105D01*
X57403Y220727D01*
X71505Y220727D01*
X71277Y219583D01*
X70588Y217918D01*
X69587Y216420D01*
X68314Y215147D01*
X66816Y214146D01*
X65151Y213457D01*
X63385Y213105D01*
X57403Y213105D01*
G37*
%LPD*%
%LPC*%
G36*
X48375Y213105D02*
X48375Y213105D01*
X46609Y213457D01*
X44944Y214146D01*
X43446Y215147D01*
X42173Y216420D01*
X41172Y217918D01*
X40483Y219583D01*
X40255Y220727D01*
X54357Y220727D01*
X54357Y213105D01*
X48375Y213105D01*
G37*
%LPD*%
%LPC*%
G36*
X185673Y327913D02*
X185673Y327913D01*
X185673Y337313D01*
X188674Y337313D01*
X195073Y330914D01*
X195073Y327913D01*
X185673Y327913D01*
G37*
%LPD*%
%LPC*%
G36*
X173227Y327913D02*
X173227Y327913D01*
X173227Y330914D01*
X179626Y337313D01*
X182627Y337313D01*
X182627Y327913D01*
X173227Y327913D01*
G37*
%LPD*%
%LPC*%
G36*
X185673Y315467D02*
X185673Y315467D01*
X185673Y324867D01*
X195073Y324867D01*
X195073Y321866D01*
X188674Y315467D01*
X185673Y315467D01*
G37*
%LPD*%
%LPC*%
G36*
X179626Y315467D02*
X179626Y315467D01*
X173227Y321866D01*
X173227Y324867D01*
X182627Y324867D01*
X182627Y315467D01*
X179626Y315467D01*
G37*
%LPD*%
%LPC*%
G36*
X207263Y29463D02*
X207263Y29463D01*
X207263Y38482D01*
X210107Y38482D01*
X216282Y32307D01*
X216282Y29463D01*
X207263Y29463D01*
G37*
%LPD*%
%LPC*%
G36*
X207263Y252983D02*
X207263Y252983D01*
X207263Y262002D01*
X210107Y262002D01*
X216282Y255827D01*
X216282Y252983D01*
X207263Y252983D01*
G37*
%LPD*%
%LPC*%
G36*
X207263Y100583D02*
X207263Y100583D01*
X207263Y109602D01*
X210107Y109602D01*
X216282Y103427D01*
X216282Y100583D01*
X207263Y100583D01*
G37*
%LPD*%
%LPC*%
G36*
X207263Y181863D02*
X207263Y181863D01*
X207263Y190882D01*
X210107Y190882D01*
X216282Y184707D01*
X216282Y181863D01*
X207263Y181863D01*
G37*
%LPD*%
%LPC*%
G36*
X207263Y88518D02*
X207263Y88518D01*
X207263Y97537D01*
X216282Y97537D01*
X216282Y94693D01*
X210107Y88518D01*
X207263Y88518D01*
G37*
%LPD*%
%LPC*%
G36*
X195198Y252983D02*
X195198Y252983D01*
X195198Y255827D01*
X201373Y262002D01*
X204217Y262002D01*
X204217Y252983D01*
X195198Y252983D01*
G37*
%LPD*%
%LPC*%
G36*
X207263Y169798D02*
X207263Y169798D01*
X207263Y178817D01*
X216282Y178817D01*
X216282Y175973D01*
X210107Y169798D01*
X207263Y169798D01*
G37*
%LPD*%
%LPC*%
G36*
X195198Y181863D02*
X195198Y181863D01*
X195198Y184707D01*
X201373Y190882D01*
X204217Y190882D01*
X204217Y181863D01*
X195198Y181863D01*
G37*
%LPD*%
%LPC*%
G36*
X195198Y100583D02*
X195198Y100583D01*
X195198Y103427D01*
X201373Y109602D01*
X204217Y109602D01*
X204217Y100583D01*
X195198Y100583D01*
G37*
%LPD*%
%LPC*%
G36*
X207263Y240918D02*
X207263Y240918D01*
X207263Y249937D01*
X216282Y249937D01*
X216282Y247093D01*
X210107Y240918D01*
X207263Y240918D01*
G37*
%LPD*%
%LPC*%
G36*
X195198Y29463D02*
X195198Y29463D01*
X195198Y32307D01*
X201373Y38482D01*
X204217Y38482D01*
X204217Y29463D01*
X195198Y29463D01*
G37*
%LPD*%
%LPC*%
G36*
X207263Y17398D02*
X207263Y17398D01*
X207263Y26417D01*
X216282Y26417D01*
X216282Y23573D01*
X210107Y17398D01*
X207263Y17398D01*
G37*
%LPD*%
%LPC*%
G36*
X201373Y17398D02*
X201373Y17398D01*
X195198Y23573D01*
X195198Y26417D01*
X204217Y26417D01*
X204217Y17398D01*
X201373Y17398D01*
G37*
%LPD*%
%LPC*%
G36*
X201373Y88518D02*
X201373Y88518D01*
X195198Y94693D01*
X195198Y97537D01*
X204217Y97537D01*
X204217Y88518D01*
X201373Y88518D01*
G37*
%LPD*%
%LPC*%
G36*
X201373Y240918D02*
X201373Y240918D01*
X195198Y247093D01*
X195198Y249937D01*
X204217Y249937D01*
X204217Y240918D01*
X201373Y240918D01*
G37*
%LPD*%
%LPC*%
G36*
X201373Y169798D02*
X201373Y169798D01*
X195198Y175973D01*
X195198Y178817D01*
X204217Y178817D01*
X204217Y169798D01*
X201373Y169798D01*
G37*
%LPD*%
%LPC*%
G36*
X205739Y99059D02*
X205739Y99059D01*
X205739Y99061D01*
X205741Y99061D01*
X205741Y99059D01*
X205739Y99059D01*
G37*
%LPD*%
%LPC*%
G36*
X184149Y326389D02*
X184149Y326389D01*
X184149Y326391D01*
X184151Y326391D01*
X184151Y326389D01*
X184149Y326389D01*
G37*
%LPD*%
%LPC*%
G36*
X205739Y180339D02*
X205739Y180339D01*
X205739Y180341D01*
X205741Y180341D01*
X205741Y180339D01*
X205739Y180339D01*
G37*
%LPD*%
%LPC*%
G36*
X205739Y251459D02*
X205739Y251459D01*
X205739Y251461D01*
X205741Y251461D01*
X205741Y251459D01*
X205739Y251459D01*
G37*
%LPD*%
%LPC*%
G36*
X205739Y27939D02*
X205739Y27939D01*
X205739Y27941D01*
X205741Y27941D01*
X205741Y27939D01*
X205739Y27939D01*
G37*
%LPD*%
%LPC*%
G36*
X112469Y58029D02*
X112469Y58029D01*
X112469Y58031D01*
X112471Y58031D01*
X112471Y58029D01*
X112469Y58029D01*
G37*
%LPD*%
%LPC*%
G36*
X55879Y222249D02*
X55879Y222249D01*
X55879Y222251D01*
X55881Y222251D01*
X55881Y222249D01*
X55879Y222249D01*
G37*
%LPD*%
D10*
X112470Y58030D02*
X134970Y58030D01*
X134970Y108830D02*
X112470Y108830D01*
X112470Y235830D02*
X134970Y235830D01*
X134970Y337430D02*
X112470Y337430D01*
D11*
X205740Y180340D03*
D12*
X205740Y205740D03*
D11*
X205740Y251460D03*
D12*
X205740Y276860D03*
D11*
X205740Y99060D03*
D12*
X205740Y124460D03*
D11*
X205740Y27940D03*
D12*
X205740Y53340D03*
D13*
X318008Y205740D02*
X334772Y205740D01*
X334772Y228600D02*
X318008Y228600D01*
X318008Y251460D02*
X334772Y251460D01*
D14*
X62484Y171450D02*
X49276Y171450D01*
X49276Y222250D02*
X62484Y222250D01*
X62484Y196850D02*
X49276Y196850D01*
D15*
X280670Y326390D03*
X255270Y326390D03*
D16*
X209550Y326390D03*
X184150Y326390D03*
D17*
X326390Y359410D02*
X326390Y374650D01*
X300990Y374650D02*
X300990Y359410D01*
X275590Y359410D02*
X275590Y374650D01*
X250190Y374650D02*
X250190Y359410D01*
X224790Y359410D02*
X224790Y374650D01*
D18*
X50800Y336550D03*
X50800Y298450D03*
D17*
X58420Y25400D02*
X43180Y25400D01*
X43180Y50800D02*
X58420Y50800D01*
X58420Y76200D02*
X43180Y76200D01*
X43180Y101600D02*
X58420Y101600D01*
X58420Y127000D02*
X43180Y127000D01*
D13*
X316738Y53340D02*
X333502Y53340D01*
X333502Y76200D02*
X316738Y76200D01*
X316738Y99060D02*
X333502Y99060D01*
D19*
X326390Y228600D02*
X304800Y228600D01*
X250190Y349250D02*
X250190Y367030D01*
X300990Y367030D02*
X300990Y349250D01*
X50800Y336550D02*
X50800Y322580D01*
X50800Y336550D02*
X63500Y336550D01*
X50800Y336550D02*
X50800Y349250D01*
X112470Y58030D02*
X112470Y41200D01*
X113030Y40640D01*
X112470Y58030D02*
X99450Y58030D01*
X99355Y58125D01*
X112470Y58030D02*
X112470Y73100D01*
X113030Y73660D01*
X112470Y58030D02*
X148980Y58030D01*
X149860Y57150D01*
X69850Y76200D02*
X50800Y76200D01*
X50800Y66294D01*
X50800Y76200D02*
X50800Y86106D01*
X240284Y367030D02*
X250190Y367030D01*
X260096Y367030D01*
X291084Y367030D02*
X300990Y367030D01*
X310896Y367030D01*
X218440Y99060D02*
X205740Y99060D01*
X205740Y87630D01*
X205740Y99060D02*
X205740Y108585D01*
X205740Y99060D02*
X193040Y99060D01*
X205740Y27940D02*
X205740Y18034D01*
X205740Y27940D02*
X218440Y27940D01*
X205740Y27940D02*
X205740Y37465D01*
X205740Y27940D02*
X191770Y27940D01*
X193548Y180340D02*
X205740Y180340D01*
X219710Y180340D01*
X205740Y180340D02*
X205740Y189865D01*
X205740Y180340D02*
X205740Y166370D01*
X205740Y251460D02*
X219710Y251460D01*
X205740Y251460D02*
X205740Y260985D01*
X205740Y251460D02*
X191770Y251460D01*
X205740Y251460D02*
X205740Y237490D01*
X55880Y234950D02*
X55880Y222250D01*
X77470Y222250D01*
X55880Y222250D02*
X55880Y211328D01*
X55880Y222250D02*
X39624Y222250D01*
X304800Y76200D02*
X325120Y76200D01*
X151520Y235830D02*
X112470Y235830D01*
X181610Y205740D02*
X205740Y205740D01*
X181610Y205740D02*
X151520Y235830D01*
X181610Y148590D02*
X205740Y124460D01*
X181610Y148590D02*
X181610Y205740D01*
X205740Y124460D02*
X231140Y124460D01*
X265188Y53340D02*
X325120Y53340D01*
X265188Y53340D02*
X251326Y67202D01*
X251326Y104274D02*
X231140Y124460D01*
X251326Y104274D02*
X251326Y67202D01*
X205740Y276860D02*
X307340Y276860D01*
X326390Y257810D02*
X326390Y251460D01*
X326390Y257810D02*
X307340Y276860D01*
D20*
X255270Y326390D02*
X209550Y326390D01*
X68580Y171450D02*
X85090Y154940D01*
X68580Y171450D02*
X55880Y171450D01*
X85090Y72390D02*
X63500Y50800D01*
X85090Y72390D02*
X85090Y154940D01*
X63500Y50800D02*
X50800Y50800D01*
X55880Y171450D02*
X101600Y171450D01*
D21*
X101600Y171450D03*
M02*
