G04 EAGLE Gerber RS-274X export*
G75*
%MOMM*%
%FSLAX34Y34*%
%LPD*%
%INSilkscreen Bottom*%
%IPPOS*%
%AMOC8*
5,1,8,0,0,1.08239X$1,22.5*%
G01*
%ADD10C,0.076200*%
%ADD11C,0.101600*%


D10*
X174371Y25781D02*
X183769Y25781D01*
X174371Y31002D01*
X183769Y31002D01*
X180636Y35097D02*
X174371Y35097D01*
X183247Y34836D02*
X183769Y34836D01*
X183769Y35358D01*
X183247Y35358D01*
X183247Y34836D01*
X174371Y40377D02*
X174371Y42465D01*
X174371Y40377D02*
X174373Y40300D01*
X174379Y40224D01*
X174388Y40147D01*
X174401Y40071D01*
X174418Y39996D01*
X174438Y39922D01*
X174463Y39849D01*
X174490Y39778D01*
X174521Y39707D01*
X174556Y39639D01*
X174594Y39572D01*
X174635Y39507D01*
X174679Y39444D01*
X174726Y39384D01*
X174777Y39325D01*
X174830Y39270D01*
X174885Y39217D01*
X174944Y39166D01*
X175004Y39119D01*
X175067Y39075D01*
X175132Y39034D01*
X175199Y38996D01*
X175267Y38961D01*
X175338Y38930D01*
X175409Y38903D01*
X175482Y38878D01*
X175556Y38858D01*
X175631Y38841D01*
X175707Y38828D01*
X175784Y38819D01*
X175860Y38813D01*
X175937Y38811D01*
X175937Y38810D02*
X179070Y38810D01*
X179070Y38811D02*
X179147Y38813D01*
X179223Y38819D01*
X179300Y38828D01*
X179376Y38841D01*
X179451Y38858D01*
X179525Y38878D01*
X179598Y38903D01*
X179669Y38930D01*
X179740Y38961D01*
X179808Y38996D01*
X179875Y39034D01*
X179940Y39075D01*
X180003Y39119D01*
X180063Y39166D01*
X180122Y39217D01*
X180177Y39270D01*
X180230Y39325D01*
X180281Y39384D01*
X180328Y39444D01*
X180372Y39507D01*
X180413Y39572D01*
X180451Y39639D01*
X180486Y39707D01*
X180517Y39778D01*
X180544Y39849D01*
X180569Y39922D01*
X180589Y39996D01*
X180606Y40071D01*
X180619Y40147D01*
X180628Y40224D01*
X180634Y40300D01*
X180636Y40377D01*
X180636Y42465D01*
X178548Y45810D02*
X176459Y45810D01*
X178548Y45811D02*
X178638Y45813D01*
X178727Y45819D01*
X178817Y45828D01*
X178906Y45842D01*
X178994Y45859D01*
X179081Y45880D01*
X179168Y45905D01*
X179253Y45934D01*
X179337Y45966D01*
X179419Y46001D01*
X179500Y46041D01*
X179579Y46083D01*
X179656Y46129D01*
X179731Y46179D01*
X179804Y46231D01*
X179875Y46287D01*
X179943Y46345D01*
X180008Y46407D01*
X180071Y46471D01*
X180131Y46538D01*
X180188Y46607D01*
X180242Y46679D01*
X180293Y46753D01*
X180341Y46829D01*
X180385Y46907D01*
X180426Y46987D01*
X180464Y47069D01*
X180498Y47152D01*
X180528Y47237D01*
X180555Y47323D01*
X180578Y47409D01*
X180597Y47497D01*
X180612Y47586D01*
X180624Y47675D01*
X180632Y47764D01*
X180636Y47854D01*
X180636Y47944D01*
X180632Y48034D01*
X180624Y48123D01*
X180612Y48212D01*
X180597Y48301D01*
X180578Y48389D01*
X180555Y48475D01*
X180528Y48561D01*
X180498Y48646D01*
X180464Y48729D01*
X180426Y48811D01*
X180385Y48891D01*
X180341Y48969D01*
X180293Y49045D01*
X180242Y49119D01*
X180188Y49191D01*
X180131Y49260D01*
X180071Y49327D01*
X180008Y49391D01*
X179943Y49453D01*
X179875Y49511D01*
X179804Y49567D01*
X179731Y49619D01*
X179656Y49669D01*
X179579Y49715D01*
X179500Y49757D01*
X179419Y49797D01*
X179337Y49832D01*
X179253Y49864D01*
X179168Y49893D01*
X179081Y49918D01*
X178994Y49939D01*
X178906Y49956D01*
X178817Y49970D01*
X178727Y49979D01*
X178638Y49985D01*
X178548Y49987D01*
X176459Y49987D01*
X176369Y49985D01*
X176280Y49979D01*
X176190Y49970D01*
X176101Y49956D01*
X176013Y49939D01*
X175926Y49918D01*
X175839Y49893D01*
X175754Y49864D01*
X175670Y49832D01*
X175588Y49797D01*
X175507Y49757D01*
X175428Y49715D01*
X175351Y49669D01*
X175276Y49619D01*
X175203Y49567D01*
X175132Y49511D01*
X175064Y49453D01*
X174999Y49391D01*
X174936Y49327D01*
X174876Y49260D01*
X174819Y49191D01*
X174765Y49119D01*
X174714Y49045D01*
X174666Y48969D01*
X174622Y48891D01*
X174581Y48811D01*
X174543Y48729D01*
X174509Y48646D01*
X174479Y48561D01*
X174452Y48475D01*
X174429Y48389D01*
X174410Y48301D01*
X174395Y48212D01*
X174383Y48123D01*
X174375Y48034D01*
X174371Y47944D01*
X174371Y47854D01*
X174375Y47764D01*
X174383Y47675D01*
X174395Y47586D01*
X174410Y47497D01*
X174429Y47409D01*
X174452Y47323D01*
X174479Y47237D01*
X174509Y47152D01*
X174543Y47069D01*
X174581Y46987D01*
X174622Y46907D01*
X174666Y46829D01*
X174714Y46753D01*
X174765Y46679D01*
X174819Y46607D01*
X174876Y46538D01*
X174936Y46471D01*
X174999Y46407D01*
X175064Y46345D01*
X175132Y46287D01*
X175203Y46231D01*
X175276Y46179D01*
X175351Y46129D01*
X175428Y46083D01*
X175507Y46041D01*
X175588Y46001D01*
X175670Y45966D01*
X175754Y45934D01*
X175839Y45905D01*
X175926Y45880D01*
X176013Y45859D01*
X176101Y45842D01*
X176190Y45828D01*
X176280Y45819D01*
X176369Y45813D01*
X176459Y45811D01*
X175937Y53860D02*
X183769Y53860D01*
X175937Y53861D02*
X175860Y53863D01*
X175784Y53869D01*
X175707Y53878D01*
X175631Y53891D01*
X175556Y53908D01*
X175482Y53928D01*
X175409Y53953D01*
X175338Y53980D01*
X175267Y54011D01*
X175199Y54046D01*
X175132Y54084D01*
X175067Y54125D01*
X175004Y54169D01*
X174944Y54216D01*
X174885Y54267D01*
X174830Y54320D01*
X174777Y54375D01*
X174726Y54434D01*
X174679Y54494D01*
X174635Y54557D01*
X174594Y54622D01*
X174556Y54689D01*
X174521Y54757D01*
X174490Y54828D01*
X174463Y54899D01*
X174438Y54972D01*
X174418Y55046D01*
X174401Y55121D01*
X174388Y55197D01*
X174379Y55274D01*
X174373Y55350D01*
X174371Y55427D01*
X178026Y60393D02*
X178026Y62743D01*
X178025Y60393D02*
X178023Y60309D01*
X178017Y60224D01*
X178007Y60141D01*
X177994Y60057D01*
X177976Y59975D01*
X177955Y59893D01*
X177930Y59812D01*
X177902Y59733D01*
X177869Y59655D01*
X177833Y59579D01*
X177794Y59504D01*
X177751Y59431D01*
X177705Y59360D01*
X177656Y59292D01*
X177604Y59226D01*
X177548Y59162D01*
X177490Y59101D01*
X177429Y59043D01*
X177365Y58987D01*
X177299Y58935D01*
X177231Y58886D01*
X177160Y58840D01*
X177087Y58797D01*
X177012Y58758D01*
X176936Y58722D01*
X176858Y58689D01*
X176779Y58661D01*
X176698Y58636D01*
X176616Y58615D01*
X176534Y58597D01*
X176450Y58584D01*
X176367Y58574D01*
X176282Y58568D01*
X176198Y58566D01*
X176114Y58568D01*
X176029Y58574D01*
X175946Y58584D01*
X175862Y58597D01*
X175780Y58615D01*
X175698Y58636D01*
X175617Y58661D01*
X175538Y58689D01*
X175460Y58722D01*
X175384Y58758D01*
X175309Y58797D01*
X175236Y58840D01*
X175165Y58886D01*
X175097Y58935D01*
X175031Y58987D01*
X174967Y59043D01*
X174906Y59101D01*
X174848Y59162D01*
X174792Y59226D01*
X174740Y59292D01*
X174691Y59360D01*
X174645Y59431D01*
X174602Y59504D01*
X174563Y59579D01*
X174527Y59655D01*
X174494Y59733D01*
X174466Y59812D01*
X174441Y59893D01*
X174420Y59975D01*
X174402Y60057D01*
X174389Y60141D01*
X174379Y60224D01*
X174373Y60309D01*
X174371Y60393D01*
X174371Y62743D01*
X179070Y62743D01*
X179147Y62741D01*
X179223Y62735D01*
X179300Y62726D01*
X179376Y62713D01*
X179451Y62696D01*
X179525Y62676D01*
X179598Y62651D01*
X179669Y62624D01*
X179740Y62593D01*
X179808Y62558D01*
X179875Y62520D01*
X179940Y62479D01*
X180003Y62435D01*
X180063Y62388D01*
X180122Y62337D01*
X180177Y62284D01*
X180230Y62229D01*
X180281Y62170D01*
X180328Y62110D01*
X180372Y62047D01*
X180413Y61982D01*
X180451Y61915D01*
X180486Y61847D01*
X180517Y61776D01*
X180544Y61705D01*
X180569Y61632D01*
X180589Y61558D01*
X180606Y61483D01*
X180619Y61407D01*
X180628Y61330D01*
X180634Y61254D01*
X180636Y61177D01*
X180636Y59088D01*
X178026Y67624D02*
X176982Y70235D01*
X178026Y67624D02*
X178054Y67558D01*
X178087Y67493D01*
X178122Y67430D01*
X178161Y67369D01*
X178203Y67310D01*
X178248Y67254D01*
X178296Y67200D01*
X178347Y67149D01*
X178400Y67100D01*
X178457Y67055D01*
X178515Y67012D01*
X178575Y66973D01*
X178638Y66936D01*
X178703Y66904D01*
X178769Y66875D01*
X178836Y66849D01*
X178905Y66827D01*
X178975Y66809D01*
X179046Y66794D01*
X179117Y66783D01*
X179189Y66776D01*
X179261Y66773D01*
X179333Y66774D01*
X179406Y66779D01*
X179477Y66787D01*
X179549Y66799D01*
X179619Y66815D01*
X179688Y66835D01*
X179757Y66859D01*
X179824Y66886D01*
X179889Y66916D01*
X179953Y66950D01*
X180015Y66988D01*
X180075Y67028D01*
X180132Y67072D01*
X180187Y67119D01*
X180240Y67169D01*
X180289Y67221D01*
X180336Y67276D01*
X180380Y67333D01*
X180421Y67393D01*
X180458Y67455D01*
X180493Y67519D01*
X180523Y67584D01*
X180551Y67651D01*
X180574Y67719D01*
X180594Y67789D01*
X180610Y67859D01*
X180623Y67930D01*
X180631Y68002D01*
X180636Y68074D01*
X180637Y68146D01*
X180636Y68147D02*
X180632Y68298D01*
X180624Y68449D01*
X180613Y68600D01*
X180597Y68751D01*
X180577Y68901D01*
X180554Y69051D01*
X180527Y69200D01*
X180496Y69348D01*
X180461Y69496D01*
X180423Y69642D01*
X180380Y69788D01*
X180334Y69932D01*
X180285Y70075D01*
X180232Y70217D01*
X180175Y70357D01*
X180114Y70496D01*
X176982Y70235D02*
X176954Y70301D01*
X176921Y70366D01*
X176886Y70429D01*
X176847Y70490D01*
X176805Y70549D01*
X176760Y70605D01*
X176712Y70659D01*
X176661Y70710D01*
X176608Y70759D01*
X176551Y70804D01*
X176493Y70847D01*
X176433Y70886D01*
X176370Y70923D01*
X176305Y70955D01*
X176239Y70984D01*
X176172Y71010D01*
X176103Y71032D01*
X176033Y71050D01*
X175962Y71065D01*
X175891Y71076D01*
X175819Y71083D01*
X175747Y71086D01*
X175675Y71085D01*
X175602Y71080D01*
X175531Y71072D01*
X175459Y71060D01*
X175389Y71044D01*
X175320Y71024D01*
X175251Y71000D01*
X175184Y70973D01*
X175119Y70943D01*
X175055Y70909D01*
X174993Y70871D01*
X174933Y70831D01*
X174876Y70787D01*
X174821Y70740D01*
X174768Y70690D01*
X174719Y70638D01*
X174672Y70583D01*
X174628Y70526D01*
X174587Y70466D01*
X174550Y70404D01*
X174515Y70340D01*
X174485Y70275D01*
X174457Y70208D01*
X174434Y70140D01*
X174414Y70070D01*
X174398Y70000D01*
X174385Y69929D01*
X174377Y69857D01*
X174372Y69785D01*
X174371Y69713D01*
X174376Y69503D01*
X174387Y69294D01*
X174402Y69085D01*
X174422Y68877D01*
X174448Y68669D01*
X174478Y68462D01*
X174513Y68255D01*
X174553Y68050D01*
X174597Y67845D01*
X174647Y67642D01*
X174701Y67439D01*
X174761Y67238D01*
X174824Y67039D01*
X174893Y66841D01*
X183769Y79207D02*
X185857Y79207D01*
X185857Y81817D02*
X183769Y81817D01*
X183769Y85653D02*
X174371Y85653D01*
X183769Y85653D02*
X183769Y88263D01*
X183767Y88364D01*
X183761Y88465D01*
X183751Y88566D01*
X183738Y88666D01*
X183720Y88766D01*
X183699Y88865D01*
X183673Y88963D01*
X183644Y89060D01*
X183612Y89156D01*
X183575Y89250D01*
X183535Y89343D01*
X183491Y89435D01*
X183444Y89524D01*
X183393Y89612D01*
X183339Y89698D01*
X183282Y89781D01*
X183222Y89863D01*
X183158Y89941D01*
X183092Y90018D01*
X183022Y90091D01*
X182950Y90162D01*
X182875Y90230D01*
X182797Y90295D01*
X182717Y90357D01*
X182635Y90416D01*
X182550Y90472D01*
X182464Y90524D01*
X182375Y90573D01*
X182284Y90619D01*
X182192Y90660D01*
X182098Y90699D01*
X182003Y90733D01*
X181907Y90764D01*
X181809Y90791D01*
X181711Y90815D01*
X181611Y90834D01*
X181511Y90850D01*
X181411Y90862D01*
X181310Y90870D01*
X181209Y90874D01*
X181107Y90874D01*
X181006Y90870D01*
X180905Y90862D01*
X180805Y90850D01*
X180705Y90834D01*
X180605Y90815D01*
X180507Y90791D01*
X180409Y90764D01*
X180313Y90733D01*
X180218Y90699D01*
X180124Y90660D01*
X180032Y90619D01*
X179941Y90573D01*
X179853Y90524D01*
X179766Y90472D01*
X179681Y90416D01*
X179599Y90357D01*
X179519Y90295D01*
X179441Y90230D01*
X179366Y90162D01*
X179294Y90091D01*
X179224Y90018D01*
X179158Y89941D01*
X179094Y89863D01*
X179034Y89781D01*
X178977Y89698D01*
X178923Y89612D01*
X178872Y89524D01*
X178825Y89435D01*
X178781Y89343D01*
X178741Y89250D01*
X178704Y89156D01*
X178672Y89060D01*
X178643Y88963D01*
X178617Y88865D01*
X178596Y88766D01*
X178578Y88666D01*
X178565Y88566D01*
X178555Y88465D01*
X178549Y88364D01*
X178547Y88263D01*
X178548Y88263D02*
X178548Y85653D01*
X180636Y94228D02*
X174371Y94228D01*
X183247Y93967D02*
X183769Y93967D01*
X183769Y94489D01*
X183247Y94489D01*
X183247Y93967D01*
X180636Y101803D02*
X174371Y97626D01*
X174371Y101803D02*
X180636Y97626D01*
X174371Y106812D02*
X174371Y109423D01*
X174371Y106812D02*
X174373Y106735D01*
X174379Y106659D01*
X174388Y106582D01*
X174401Y106506D01*
X174418Y106431D01*
X174438Y106357D01*
X174463Y106284D01*
X174490Y106213D01*
X174521Y106142D01*
X174556Y106074D01*
X174594Y106007D01*
X174635Y105942D01*
X174679Y105879D01*
X174726Y105819D01*
X174777Y105760D01*
X174830Y105705D01*
X174885Y105652D01*
X174944Y105601D01*
X175004Y105554D01*
X175067Y105510D01*
X175132Y105469D01*
X175199Y105431D01*
X175267Y105396D01*
X175338Y105365D01*
X175409Y105338D01*
X175482Y105313D01*
X175556Y105293D01*
X175631Y105276D01*
X175707Y105263D01*
X175784Y105254D01*
X175860Y105248D01*
X175937Y105246D01*
X178548Y105246D01*
X178638Y105248D01*
X178727Y105254D01*
X178817Y105263D01*
X178906Y105277D01*
X178994Y105294D01*
X179081Y105315D01*
X179168Y105340D01*
X179253Y105369D01*
X179337Y105401D01*
X179419Y105436D01*
X179500Y105476D01*
X179579Y105518D01*
X179656Y105564D01*
X179731Y105614D01*
X179804Y105666D01*
X179875Y105722D01*
X179943Y105780D01*
X180008Y105842D01*
X180071Y105906D01*
X180131Y105973D01*
X180188Y106042D01*
X180242Y106114D01*
X180293Y106188D01*
X180341Y106264D01*
X180385Y106342D01*
X180426Y106422D01*
X180464Y106504D01*
X180498Y106587D01*
X180528Y106672D01*
X180555Y106758D01*
X180578Y106844D01*
X180597Y106932D01*
X180612Y107021D01*
X180624Y107110D01*
X180632Y107199D01*
X180636Y107289D01*
X180636Y107379D01*
X180632Y107469D01*
X180624Y107558D01*
X180612Y107647D01*
X180597Y107736D01*
X180578Y107824D01*
X180555Y107910D01*
X180528Y107996D01*
X180498Y108081D01*
X180464Y108164D01*
X180426Y108246D01*
X180385Y108326D01*
X180341Y108404D01*
X180293Y108480D01*
X180242Y108554D01*
X180188Y108626D01*
X180131Y108695D01*
X180071Y108762D01*
X180008Y108826D01*
X179943Y108888D01*
X179875Y108946D01*
X179804Y109002D01*
X179731Y109054D01*
X179656Y109104D01*
X179579Y109150D01*
X179500Y109192D01*
X179419Y109232D01*
X179337Y109267D01*
X179253Y109299D01*
X179168Y109328D01*
X179081Y109353D01*
X178994Y109374D01*
X178906Y109391D01*
X178817Y109405D01*
X178727Y109414D01*
X178638Y109420D01*
X178548Y109422D01*
X178548Y109423D02*
X177504Y109423D01*
X177504Y105246D01*
X175937Y113296D02*
X183769Y113296D01*
X175937Y113296D02*
X175860Y113298D01*
X175784Y113304D01*
X175707Y113313D01*
X175631Y113326D01*
X175556Y113343D01*
X175482Y113363D01*
X175409Y113388D01*
X175338Y113415D01*
X175267Y113446D01*
X175199Y113481D01*
X175132Y113519D01*
X175067Y113560D01*
X175004Y113604D01*
X174944Y113651D01*
X174885Y113702D01*
X174830Y113755D01*
X174777Y113810D01*
X174726Y113869D01*
X174679Y113929D01*
X174635Y113992D01*
X174594Y114057D01*
X174556Y114124D01*
X174521Y114192D01*
X174490Y114263D01*
X174463Y114334D01*
X174438Y114407D01*
X174418Y114481D01*
X174401Y114556D01*
X174388Y114632D01*
X174379Y114709D01*
X174373Y114785D01*
X174371Y114862D01*
X183769Y117611D02*
X185857Y117611D01*
X185857Y120222D02*
X183769Y120222D01*
X183769Y128803D02*
X174371Y128803D01*
X174371Y134024D02*
X183769Y128803D01*
X183769Y134024D02*
X174371Y134024D01*
X176459Y138164D02*
X178548Y138164D01*
X178638Y138166D01*
X178727Y138172D01*
X178817Y138181D01*
X178906Y138195D01*
X178994Y138212D01*
X179081Y138233D01*
X179168Y138258D01*
X179253Y138287D01*
X179337Y138319D01*
X179419Y138354D01*
X179500Y138394D01*
X179579Y138436D01*
X179656Y138482D01*
X179731Y138532D01*
X179804Y138584D01*
X179875Y138640D01*
X179943Y138698D01*
X180008Y138760D01*
X180071Y138824D01*
X180131Y138891D01*
X180188Y138960D01*
X180242Y139032D01*
X180293Y139106D01*
X180341Y139182D01*
X180385Y139260D01*
X180426Y139340D01*
X180464Y139422D01*
X180498Y139505D01*
X180528Y139590D01*
X180555Y139676D01*
X180578Y139762D01*
X180597Y139850D01*
X180612Y139939D01*
X180624Y140028D01*
X180632Y140117D01*
X180636Y140207D01*
X180636Y140297D01*
X180632Y140387D01*
X180624Y140476D01*
X180612Y140565D01*
X180597Y140654D01*
X180578Y140742D01*
X180555Y140828D01*
X180528Y140914D01*
X180498Y140999D01*
X180464Y141082D01*
X180426Y141164D01*
X180385Y141244D01*
X180341Y141322D01*
X180293Y141398D01*
X180242Y141472D01*
X180188Y141544D01*
X180131Y141613D01*
X180071Y141680D01*
X180008Y141744D01*
X179943Y141806D01*
X179875Y141864D01*
X179804Y141920D01*
X179731Y141972D01*
X179656Y142022D01*
X179579Y142068D01*
X179500Y142110D01*
X179419Y142150D01*
X179337Y142185D01*
X179253Y142217D01*
X179168Y142246D01*
X179081Y142271D01*
X178994Y142292D01*
X178906Y142309D01*
X178817Y142323D01*
X178727Y142332D01*
X178638Y142338D01*
X178548Y142340D01*
X178548Y142341D02*
X176459Y142341D01*
X176459Y142340D02*
X176369Y142338D01*
X176280Y142332D01*
X176190Y142323D01*
X176101Y142309D01*
X176013Y142292D01*
X175926Y142271D01*
X175839Y142246D01*
X175754Y142217D01*
X175670Y142185D01*
X175588Y142150D01*
X175507Y142110D01*
X175428Y142068D01*
X175351Y142022D01*
X175276Y141972D01*
X175203Y141920D01*
X175132Y141864D01*
X175064Y141806D01*
X174999Y141744D01*
X174936Y141680D01*
X174876Y141613D01*
X174819Y141544D01*
X174765Y141472D01*
X174714Y141398D01*
X174666Y141322D01*
X174622Y141244D01*
X174581Y141164D01*
X174543Y141082D01*
X174509Y140999D01*
X174479Y140914D01*
X174452Y140828D01*
X174429Y140742D01*
X174410Y140654D01*
X174395Y140565D01*
X174383Y140476D01*
X174375Y140387D01*
X174371Y140297D01*
X174371Y140207D01*
X174375Y140117D01*
X174383Y140028D01*
X174395Y139939D01*
X174410Y139850D01*
X174429Y139762D01*
X174452Y139676D01*
X174479Y139590D01*
X174509Y139505D01*
X174543Y139422D01*
X174581Y139340D01*
X174622Y139260D01*
X174666Y139182D01*
X174714Y139106D01*
X174765Y139032D01*
X174819Y138960D01*
X174876Y138891D01*
X174936Y138824D01*
X174999Y138760D01*
X175064Y138698D01*
X175132Y138640D01*
X175203Y138584D01*
X175276Y138532D01*
X175351Y138482D01*
X175428Y138436D01*
X175507Y138394D01*
X175588Y138354D01*
X175670Y138319D01*
X175754Y138287D01*
X175839Y138258D01*
X175926Y138233D01*
X176013Y138212D01*
X176101Y138195D01*
X176190Y138181D01*
X176280Y138172D01*
X176369Y138166D01*
X176459Y138164D01*
X174371Y146439D02*
X183769Y146439D01*
X174371Y146439D02*
X174371Y149050D01*
X174373Y149127D01*
X174379Y149203D01*
X174388Y149280D01*
X174401Y149356D01*
X174418Y149431D01*
X174438Y149505D01*
X174463Y149578D01*
X174490Y149649D01*
X174521Y149720D01*
X174556Y149788D01*
X174594Y149855D01*
X174635Y149920D01*
X174679Y149983D01*
X174726Y150043D01*
X174777Y150102D01*
X174830Y150157D01*
X174885Y150210D01*
X174944Y150261D01*
X175004Y150308D01*
X175067Y150352D01*
X175132Y150393D01*
X175199Y150431D01*
X175267Y150466D01*
X175338Y150497D01*
X175409Y150524D01*
X175482Y150549D01*
X175556Y150569D01*
X175631Y150586D01*
X175707Y150599D01*
X175783Y150608D01*
X175860Y150614D01*
X175937Y150616D01*
X179070Y150616D01*
X179147Y150614D01*
X179223Y150608D01*
X179300Y150599D01*
X179376Y150586D01*
X179451Y150569D01*
X179525Y150549D01*
X179598Y150524D01*
X179669Y150497D01*
X179740Y150466D01*
X179808Y150431D01*
X179875Y150393D01*
X179940Y150352D01*
X180003Y150308D01*
X180063Y150261D01*
X180122Y150210D01*
X180177Y150157D01*
X180230Y150102D01*
X180281Y150043D01*
X180328Y149983D01*
X180372Y149920D01*
X180413Y149855D01*
X180451Y149788D01*
X180486Y149720D01*
X180517Y149649D01*
X180544Y149578D01*
X180569Y149505D01*
X180589Y149431D01*
X180606Y149356D01*
X180619Y149280D01*
X180628Y149203D01*
X180634Y149127D01*
X180636Y149050D01*
X180636Y146439D01*
X183769Y154444D02*
X175937Y154444D01*
X175860Y154446D01*
X175784Y154452D01*
X175707Y154461D01*
X175631Y154474D01*
X175556Y154491D01*
X175482Y154511D01*
X175409Y154536D01*
X175338Y154563D01*
X175267Y154594D01*
X175199Y154629D01*
X175132Y154667D01*
X175067Y154708D01*
X175004Y154752D01*
X174944Y154799D01*
X174885Y154850D01*
X174830Y154903D01*
X174777Y154958D01*
X174726Y155017D01*
X174679Y155077D01*
X174635Y155140D01*
X174594Y155205D01*
X174556Y155272D01*
X174521Y155340D01*
X174490Y155411D01*
X174463Y155482D01*
X174438Y155555D01*
X174418Y155629D01*
X174401Y155704D01*
X174388Y155780D01*
X174379Y155857D01*
X174373Y155933D01*
X174371Y156010D01*
X174371Y160761D02*
X174371Y163372D01*
X174371Y160761D02*
X174373Y160684D01*
X174379Y160608D01*
X174388Y160531D01*
X174401Y160455D01*
X174418Y160380D01*
X174438Y160306D01*
X174463Y160233D01*
X174490Y160162D01*
X174521Y160091D01*
X174556Y160023D01*
X174594Y159956D01*
X174635Y159891D01*
X174679Y159828D01*
X174726Y159768D01*
X174777Y159709D01*
X174830Y159654D01*
X174885Y159601D01*
X174944Y159550D01*
X175004Y159503D01*
X175067Y159459D01*
X175132Y159418D01*
X175199Y159380D01*
X175267Y159345D01*
X175338Y159314D01*
X175409Y159287D01*
X175482Y159262D01*
X175556Y159242D01*
X175631Y159225D01*
X175707Y159212D01*
X175784Y159203D01*
X175860Y159197D01*
X175937Y159195D01*
X178548Y159195D01*
X178638Y159197D01*
X178727Y159203D01*
X178817Y159212D01*
X178906Y159226D01*
X178994Y159243D01*
X179081Y159264D01*
X179168Y159289D01*
X179253Y159318D01*
X179337Y159350D01*
X179419Y159385D01*
X179500Y159425D01*
X179579Y159467D01*
X179656Y159513D01*
X179731Y159563D01*
X179804Y159615D01*
X179875Y159671D01*
X179943Y159729D01*
X180008Y159791D01*
X180071Y159855D01*
X180131Y159922D01*
X180188Y159991D01*
X180242Y160063D01*
X180293Y160137D01*
X180341Y160213D01*
X180385Y160291D01*
X180426Y160371D01*
X180464Y160453D01*
X180498Y160536D01*
X180528Y160621D01*
X180555Y160707D01*
X180578Y160793D01*
X180597Y160881D01*
X180612Y160970D01*
X180624Y161059D01*
X180632Y161148D01*
X180636Y161238D01*
X180636Y161328D01*
X180632Y161418D01*
X180624Y161507D01*
X180612Y161596D01*
X180597Y161685D01*
X180578Y161773D01*
X180555Y161859D01*
X180528Y161945D01*
X180498Y162030D01*
X180464Y162113D01*
X180426Y162195D01*
X180385Y162275D01*
X180341Y162353D01*
X180293Y162429D01*
X180242Y162503D01*
X180188Y162575D01*
X180131Y162644D01*
X180071Y162711D01*
X180008Y162775D01*
X179943Y162837D01*
X179875Y162895D01*
X179804Y162951D01*
X179731Y163003D01*
X179656Y163053D01*
X179579Y163099D01*
X179500Y163141D01*
X179419Y163181D01*
X179337Y163216D01*
X179253Y163248D01*
X179168Y163277D01*
X179081Y163302D01*
X178994Y163323D01*
X178906Y163340D01*
X178817Y163354D01*
X178727Y163363D01*
X178638Y163369D01*
X178548Y163371D01*
X178548Y163372D02*
X177504Y163372D01*
X177504Y159195D01*
X168529Y25781D02*
X159131Y25781D01*
X165396Y25781D02*
X165396Y28392D01*
X165394Y28469D01*
X165388Y28545D01*
X165379Y28622D01*
X165366Y28698D01*
X165349Y28773D01*
X165329Y28847D01*
X165304Y28920D01*
X165277Y28991D01*
X165246Y29062D01*
X165211Y29130D01*
X165173Y29197D01*
X165132Y29262D01*
X165088Y29325D01*
X165041Y29385D01*
X164990Y29444D01*
X164937Y29499D01*
X164882Y29552D01*
X164823Y29603D01*
X164763Y29650D01*
X164700Y29694D01*
X164635Y29735D01*
X164568Y29773D01*
X164500Y29808D01*
X164429Y29839D01*
X164358Y29866D01*
X164285Y29891D01*
X164211Y29911D01*
X164136Y29928D01*
X164060Y29941D01*
X163983Y29950D01*
X163907Y29956D01*
X163830Y29958D01*
X159131Y29958D01*
X165396Y33242D02*
X165396Y36375D01*
X168529Y34286D02*
X160697Y34286D01*
X160620Y34288D01*
X160544Y34294D01*
X160467Y34303D01*
X160391Y34316D01*
X160316Y34333D01*
X160242Y34353D01*
X160169Y34378D01*
X160098Y34405D01*
X160027Y34436D01*
X159959Y34471D01*
X159892Y34509D01*
X159827Y34550D01*
X159764Y34594D01*
X159704Y34641D01*
X159645Y34692D01*
X159590Y34745D01*
X159537Y34800D01*
X159486Y34859D01*
X159439Y34919D01*
X159395Y34982D01*
X159354Y35047D01*
X159316Y35114D01*
X159281Y35182D01*
X159250Y35253D01*
X159223Y35324D01*
X159198Y35397D01*
X159178Y35471D01*
X159161Y35546D01*
X159148Y35622D01*
X159139Y35699D01*
X159133Y35775D01*
X159131Y35852D01*
X159131Y36375D01*
X165396Y39033D02*
X165396Y42166D01*
X168529Y40077D02*
X160697Y40077D01*
X160697Y40078D02*
X160620Y40080D01*
X160544Y40086D01*
X160467Y40095D01*
X160391Y40108D01*
X160316Y40125D01*
X160242Y40145D01*
X160169Y40170D01*
X160098Y40197D01*
X160027Y40228D01*
X159959Y40263D01*
X159892Y40301D01*
X159827Y40342D01*
X159764Y40386D01*
X159704Y40433D01*
X159645Y40484D01*
X159590Y40537D01*
X159537Y40592D01*
X159486Y40651D01*
X159439Y40711D01*
X159395Y40774D01*
X159354Y40839D01*
X159316Y40906D01*
X159281Y40974D01*
X159250Y41045D01*
X159223Y41116D01*
X159198Y41189D01*
X159178Y41263D01*
X159161Y41338D01*
X159148Y41414D01*
X159139Y41491D01*
X159133Y41567D01*
X159131Y41644D01*
X159131Y42166D01*
X155998Y45943D02*
X165396Y45943D01*
X165396Y48554D01*
X165394Y48631D01*
X165388Y48707D01*
X165379Y48784D01*
X165366Y48860D01*
X165349Y48935D01*
X165329Y49009D01*
X165304Y49082D01*
X165277Y49153D01*
X165246Y49224D01*
X165211Y49292D01*
X165173Y49359D01*
X165132Y49424D01*
X165088Y49487D01*
X165041Y49547D01*
X164990Y49606D01*
X164937Y49661D01*
X164882Y49714D01*
X164823Y49765D01*
X164763Y49812D01*
X164700Y49856D01*
X164635Y49897D01*
X164568Y49935D01*
X164500Y49970D01*
X164429Y50001D01*
X164358Y50028D01*
X164285Y50053D01*
X164211Y50073D01*
X164136Y50090D01*
X164060Y50103D01*
X163983Y50112D01*
X163907Y50118D01*
X163830Y50120D01*
X160697Y50120D01*
X160620Y50118D01*
X160544Y50112D01*
X160467Y50103D01*
X160391Y50090D01*
X160316Y50073D01*
X160242Y50053D01*
X160169Y50028D01*
X160098Y50001D01*
X160027Y49970D01*
X159959Y49935D01*
X159892Y49897D01*
X159827Y49856D01*
X159764Y49812D01*
X159704Y49765D01*
X159645Y49714D01*
X159590Y49661D01*
X159537Y49606D01*
X159486Y49547D01*
X159439Y49487D01*
X159395Y49424D01*
X159354Y49359D01*
X159316Y49292D01*
X159281Y49224D01*
X159250Y49153D01*
X159223Y49082D01*
X159198Y49009D01*
X159178Y48935D01*
X159161Y48860D01*
X159148Y48784D01*
X159139Y48707D01*
X159133Y48631D01*
X159131Y48554D01*
X159131Y45943D01*
X162786Y54606D02*
X161742Y57216D01*
X162786Y54605D02*
X162814Y54539D01*
X162847Y54474D01*
X162882Y54411D01*
X162921Y54350D01*
X162963Y54291D01*
X163008Y54235D01*
X163056Y54181D01*
X163107Y54130D01*
X163160Y54081D01*
X163217Y54036D01*
X163275Y53993D01*
X163335Y53954D01*
X163398Y53917D01*
X163463Y53885D01*
X163529Y53856D01*
X163596Y53830D01*
X163665Y53808D01*
X163735Y53790D01*
X163806Y53775D01*
X163877Y53764D01*
X163949Y53757D01*
X164021Y53754D01*
X164093Y53755D01*
X164166Y53760D01*
X164237Y53768D01*
X164309Y53780D01*
X164379Y53796D01*
X164448Y53816D01*
X164517Y53840D01*
X164584Y53867D01*
X164649Y53897D01*
X164713Y53931D01*
X164775Y53969D01*
X164835Y54009D01*
X164892Y54053D01*
X164947Y54100D01*
X165000Y54150D01*
X165049Y54202D01*
X165096Y54257D01*
X165140Y54314D01*
X165181Y54374D01*
X165218Y54436D01*
X165253Y54500D01*
X165283Y54565D01*
X165311Y54632D01*
X165334Y54700D01*
X165354Y54770D01*
X165370Y54840D01*
X165383Y54911D01*
X165391Y54983D01*
X165396Y55055D01*
X165397Y55127D01*
X165396Y55128D02*
X165392Y55279D01*
X165384Y55430D01*
X165373Y55581D01*
X165357Y55732D01*
X165337Y55882D01*
X165314Y56032D01*
X165287Y56181D01*
X165256Y56329D01*
X165221Y56477D01*
X165183Y56623D01*
X165140Y56769D01*
X165094Y56913D01*
X165045Y57056D01*
X164992Y57198D01*
X164935Y57338D01*
X164874Y57477D01*
X161742Y57216D02*
X161714Y57282D01*
X161681Y57347D01*
X161646Y57410D01*
X161607Y57471D01*
X161565Y57530D01*
X161520Y57586D01*
X161472Y57640D01*
X161421Y57691D01*
X161368Y57740D01*
X161311Y57785D01*
X161253Y57828D01*
X161193Y57867D01*
X161130Y57904D01*
X161065Y57936D01*
X160999Y57965D01*
X160932Y57991D01*
X160863Y58013D01*
X160793Y58031D01*
X160722Y58046D01*
X160651Y58057D01*
X160579Y58064D01*
X160507Y58067D01*
X160435Y58066D01*
X160362Y58061D01*
X160291Y58053D01*
X160219Y58041D01*
X160149Y58025D01*
X160080Y58005D01*
X160011Y57981D01*
X159944Y57954D01*
X159879Y57924D01*
X159815Y57890D01*
X159753Y57852D01*
X159693Y57812D01*
X159636Y57768D01*
X159581Y57721D01*
X159528Y57671D01*
X159479Y57619D01*
X159432Y57564D01*
X159388Y57507D01*
X159347Y57447D01*
X159310Y57385D01*
X159275Y57321D01*
X159245Y57256D01*
X159217Y57189D01*
X159194Y57121D01*
X159174Y57051D01*
X159158Y56981D01*
X159145Y56910D01*
X159137Y56838D01*
X159132Y56766D01*
X159131Y56694D01*
X159136Y56484D01*
X159147Y56275D01*
X159162Y56066D01*
X159182Y55858D01*
X159208Y55650D01*
X159238Y55443D01*
X159273Y55236D01*
X159313Y55031D01*
X159357Y54826D01*
X159407Y54623D01*
X159461Y54420D01*
X159521Y54219D01*
X159584Y54020D01*
X159653Y53822D01*
X159914Y61746D02*
X160436Y61746D01*
X160436Y62268D01*
X159914Y62268D01*
X159914Y61746D01*
X164091Y61746D02*
X164613Y61746D01*
X164613Y62268D01*
X164091Y62268D01*
X164091Y61746D01*
X158087Y65710D02*
X169573Y69886D01*
X169573Y77202D02*
X158087Y73025D01*
X159131Y82165D02*
X159131Y84776D01*
X159131Y82165D02*
X159133Y82088D01*
X159139Y82012D01*
X159148Y81935D01*
X159161Y81859D01*
X159178Y81784D01*
X159198Y81710D01*
X159223Y81637D01*
X159250Y81566D01*
X159281Y81495D01*
X159316Y81427D01*
X159354Y81360D01*
X159395Y81295D01*
X159439Y81232D01*
X159486Y81172D01*
X159537Y81113D01*
X159590Y81058D01*
X159645Y81005D01*
X159704Y80954D01*
X159764Y80907D01*
X159827Y80863D01*
X159892Y80822D01*
X159959Y80784D01*
X160027Y80749D01*
X160098Y80718D01*
X160169Y80691D01*
X160242Y80666D01*
X160316Y80646D01*
X160391Y80629D01*
X160467Y80616D01*
X160544Y80607D01*
X160620Y80601D01*
X160697Y80599D01*
X163830Y80599D01*
X163907Y80601D01*
X163983Y80607D01*
X164060Y80616D01*
X164136Y80629D01*
X164211Y80646D01*
X164285Y80666D01*
X164358Y80691D01*
X164429Y80718D01*
X164500Y80749D01*
X164568Y80784D01*
X164635Y80822D01*
X164700Y80863D01*
X164763Y80907D01*
X164823Y80954D01*
X164882Y81005D01*
X164937Y81058D01*
X164990Y81113D01*
X165041Y81172D01*
X165088Y81232D01*
X165132Y81295D01*
X165173Y81360D01*
X165211Y81427D01*
X165246Y81495D01*
X165277Y81566D01*
X165304Y81637D01*
X165329Y81710D01*
X165349Y81784D01*
X165366Y81859D01*
X165379Y81935D01*
X165388Y82012D01*
X165394Y82088D01*
X165396Y82165D01*
X165396Y84776D01*
X157565Y84776D01*
X157565Y84775D02*
X157488Y84773D01*
X157412Y84767D01*
X157335Y84758D01*
X157259Y84745D01*
X157184Y84728D01*
X157110Y84708D01*
X157037Y84683D01*
X156966Y84656D01*
X156895Y84625D01*
X156827Y84590D01*
X156760Y84552D01*
X156695Y84511D01*
X156632Y84467D01*
X156572Y84420D01*
X156513Y84369D01*
X156458Y84316D01*
X156405Y84261D01*
X156354Y84202D01*
X156307Y84142D01*
X156263Y84079D01*
X156222Y84014D01*
X156184Y83947D01*
X156149Y83879D01*
X156118Y83808D01*
X156091Y83737D01*
X156066Y83664D01*
X156046Y83590D01*
X156029Y83515D01*
X156016Y83439D01*
X156007Y83363D01*
X156001Y83286D01*
X155999Y83209D01*
X155998Y83209D02*
X155998Y81121D01*
X159131Y88829D02*
X165396Y88829D01*
X168007Y88568D02*
X168529Y88568D01*
X168529Y89090D01*
X168007Y89090D01*
X168007Y88568D01*
X165396Y91763D02*
X165396Y94896D01*
X168529Y92807D02*
X160697Y92807D01*
X160697Y92808D02*
X160620Y92810D01*
X160544Y92816D01*
X160467Y92825D01*
X160391Y92838D01*
X160316Y92855D01*
X160242Y92875D01*
X160169Y92900D01*
X160098Y92927D01*
X160027Y92958D01*
X159959Y92993D01*
X159892Y93031D01*
X159827Y93072D01*
X159764Y93116D01*
X159704Y93163D01*
X159645Y93214D01*
X159590Y93267D01*
X159537Y93322D01*
X159486Y93381D01*
X159439Y93441D01*
X159395Y93504D01*
X159354Y93569D01*
X159316Y93636D01*
X159281Y93704D01*
X159250Y93775D01*
X159223Y93846D01*
X159198Y93919D01*
X159178Y93993D01*
X159161Y94068D01*
X159148Y94144D01*
X159139Y94221D01*
X159133Y94297D01*
X159131Y94374D01*
X159131Y94896D01*
X159131Y98628D02*
X168529Y98628D01*
X165396Y98628D02*
X165396Y101238D01*
X165394Y101315D01*
X165388Y101391D01*
X165379Y101468D01*
X165366Y101544D01*
X165349Y101619D01*
X165329Y101693D01*
X165304Y101766D01*
X165277Y101837D01*
X165246Y101908D01*
X165211Y101976D01*
X165173Y102043D01*
X165132Y102108D01*
X165088Y102171D01*
X165041Y102231D01*
X164990Y102290D01*
X164937Y102345D01*
X164882Y102398D01*
X164823Y102449D01*
X164763Y102496D01*
X164700Y102540D01*
X164635Y102581D01*
X164568Y102619D01*
X164500Y102654D01*
X164429Y102685D01*
X164358Y102712D01*
X164285Y102737D01*
X164211Y102757D01*
X164136Y102774D01*
X164060Y102787D01*
X163983Y102796D01*
X163907Y102802D01*
X163830Y102804D01*
X163830Y102805D02*
X159131Y102805D01*
X160697Y107162D02*
X165396Y107162D01*
X160697Y107162D02*
X160620Y107164D01*
X160544Y107170D01*
X160467Y107179D01*
X160391Y107192D01*
X160316Y107209D01*
X160242Y107229D01*
X160169Y107254D01*
X160098Y107281D01*
X160027Y107312D01*
X159959Y107347D01*
X159892Y107385D01*
X159827Y107426D01*
X159764Y107470D01*
X159704Y107517D01*
X159645Y107568D01*
X159590Y107621D01*
X159537Y107676D01*
X159486Y107735D01*
X159439Y107795D01*
X159395Y107858D01*
X159354Y107923D01*
X159316Y107990D01*
X159281Y108058D01*
X159250Y108129D01*
X159223Y108200D01*
X159198Y108273D01*
X159178Y108347D01*
X159161Y108422D01*
X159148Y108498D01*
X159139Y108575D01*
X159133Y108651D01*
X159131Y108728D01*
X159131Y111339D01*
X165396Y111339D01*
X168529Y115742D02*
X159131Y115742D01*
X159131Y118353D01*
X159133Y118430D01*
X159139Y118506D01*
X159148Y118583D01*
X159161Y118659D01*
X159178Y118734D01*
X159198Y118808D01*
X159223Y118881D01*
X159250Y118952D01*
X159281Y119023D01*
X159316Y119091D01*
X159354Y119158D01*
X159395Y119223D01*
X159439Y119286D01*
X159486Y119346D01*
X159537Y119405D01*
X159590Y119460D01*
X159645Y119513D01*
X159704Y119564D01*
X159764Y119611D01*
X159827Y119655D01*
X159892Y119696D01*
X159959Y119734D01*
X160027Y119769D01*
X160098Y119800D01*
X160169Y119827D01*
X160242Y119852D01*
X160316Y119872D01*
X160391Y119889D01*
X160467Y119902D01*
X160543Y119911D01*
X160620Y119917D01*
X160697Y119919D01*
X163830Y119919D01*
X163907Y119917D01*
X163983Y119911D01*
X164060Y119902D01*
X164136Y119889D01*
X164211Y119872D01*
X164285Y119852D01*
X164358Y119827D01*
X164429Y119800D01*
X164500Y119769D01*
X164568Y119734D01*
X164635Y119696D01*
X164700Y119655D01*
X164763Y119611D01*
X164823Y119564D01*
X164882Y119513D01*
X164937Y119460D01*
X164990Y119405D01*
X165041Y119346D01*
X165088Y119286D01*
X165132Y119223D01*
X165173Y119158D01*
X165211Y119091D01*
X165246Y119023D01*
X165277Y118952D01*
X165304Y118881D01*
X165329Y118808D01*
X165349Y118734D01*
X165366Y118659D01*
X165379Y118583D01*
X165388Y118506D01*
X165394Y118430D01*
X165396Y118353D01*
X165396Y115742D01*
X159653Y123315D02*
X159131Y123315D01*
X159653Y123315D02*
X159653Y123837D01*
X159131Y123837D01*
X159131Y123315D01*
X159131Y128855D02*
X159131Y130944D01*
X159131Y128855D02*
X159133Y128778D01*
X159139Y128702D01*
X159148Y128625D01*
X159161Y128549D01*
X159178Y128474D01*
X159198Y128400D01*
X159223Y128327D01*
X159250Y128256D01*
X159281Y128185D01*
X159316Y128117D01*
X159354Y128050D01*
X159395Y127985D01*
X159439Y127922D01*
X159486Y127862D01*
X159537Y127803D01*
X159590Y127748D01*
X159645Y127695D01*
X159704Y127644D01*
X159764Y127597D01*
X159827Y127553D01*
X159892Y127512D01*
X159959Y127474D01*
X160027Y127439D01*
X160098Y127408D01*
X160169Y127381D01*
X160242Y127356D01*
X160316Y127336D01*
X160391Y127319D01*
X160467Y127306D01*
X160544Y127297D01*
X160620Y127291D01*
X160697Y127289D01*
X163830Y127289D01*
X163907Y127291D01*
X163983Y127297D01*
X164060Y127306D01*
X164136Y127319D01*
X164211Y127336D01*
X164285Y127356D01*
X164358Y127381D01*
X164429Y127408D01*
X164500Y127439D01*
X164568Y127474D01*
X164635Y127512D01*
X164700Y127553D01*
X164763Y127597D01*
X164823Y127644D01*
X164882Y127695D01*
X164937Y127748D01*
X164990Y127803D01*
X165041Y127862D01*
X165088Y127922D01*
X165132Y127985D01*
X165173Y128050D01*
X165211Y128117D01*
X165246Y128185D01*
X165277Y128256D01*
X165304Y128327D01*
X165329Y128400D01*
X165349Y128474D01*
X165366Y128549D01*
X165379Y128625D01*
X165388Y128702D01*
X165394Y128778D01*
X165396Y128855D01*
X165396Y130944D01*
X163308Y134289D02*
X161219Y134289D01*
X163308Y134290D02*
X163398Y134292D01*
X163487Y134298D01*
X163577Y134307D01*
X163666Y134321D01*
X163754Y134338D01*
X163841Y134359D01*
X163928Y134384D01*
X164013Y134413D01*
X164097Y134445D01*
X164179Y134480D01*
X164260Y134520D01*
X164339Y134562D01*
X164416Y134608D01*
X164491Y134658D01*
X164564Y134710D01*
X164635Y134766D01*
X164703Y134824D01*
X164768Y134886D01*
X164831Y134950D01*
X164891Y135017D01*
X164948Y135086D01*
X165002Y135158D01*
X165053Y135232D01*
X165101Y135308D01*
X165145Y135386D01*
X165186Y135466D01*
X165224Y135548D01*
X165258Y135631D01*
X165288Y135716D01*
X165315Y135802D01*
X165338Y135888D01*
X165357Y135976D01*
X165372Y136065D01*
X165384Y136154D01*
X165392Y136243D01*
X165396Y136333D01*
X165396Y136423D01*
X165392Y136513D01*
X165384Y136602D01*
X165372Y136691D01*
X165357Y136780D01*
X165338Y136868D01*
X165315Y136954D01*
X165288Y137040D01*
X165258Y137125D01*
X165224Y137208D01*
X165186Y137290D01*
X165145Y137370D01*
X165101Y137448D01*
X165053Y137524D01*
X165002Y137598D01*
X164948Y137670D01*
X164891Y137739D01*
X164831Y137806D01*
X164768Y137870D01*
X164703Y137932D01*
X164635Y137990D01*
X164564Y138046D01*
X164491Y138098D01*
X164416Y138148D01*
X164339Y138194D01*
X164260Y138236D01*
X164179Y138276D01*
X164097Y138311D01*
X164013Y138343D01*
X163928Y138372D01*
X163841Y138397D01*
X163754Y138418D01*
X163666Y138435D01*
X163577Y138449D01*
X163487Y138458D01*
X163398Y138464D01*
X163308Y138466D01*
X161219Y138466D01*
X161129Y138464D01*
X161040Y138458D01*
X160950Y138449D01*
X160861Y138435D01*
X160773Y138418D01*
X160686Y138397D01*
X160599Y138372D01*
X160514Y138343D01*
X160430Y138311D01*
X160348Y138276D01*
X160267Y138236D01*
X160188Y138194D01*
X160111Y138148D01*
X160036Y138098D01*
X159963Y138046D01*
X159892Y137990D01*
X159824Y137932D01*
X159759Y137870D01*
X159696Y137806D01*
X159636Y137739D01*
X159579Y137670D01*
X159525Y137598D01*
X159474Y137524D01*
X159426Y137448D01*
X159382Y137370D01*
X159341Y137290D01*
X159303Y137208D01*
X159269Y137125D01*
X159239Y137040D01*
X159212Y136954D01*
X159189Y136868D01*
X159170Y136780D01*
X159155Y136691D01*
X159143Y136602D01*
X159135Y136513D01*
X159131Y136423D01*
X159131Y136333D01*
X159135Y136243D01*
X159143Y136154D01*
X159155Y136065D01*
X159170Y135976D01*
X159189Y135888D01*
X159212Y135802D01*
X159239Y135716D01*
X159269Y135631D01*
X159303Y135548D01*
X159341Y135466D01*
X159382Y135386D01*
X159426Y135308D01*
X159474Y135232D01*
X159525Y135158D01*
X159579Y135086D01*
X159636Y135017D01*
X159696Y134950D01*
X159759Y134886D01*
X159824Y134824D01*
X159892Y134766D01*
X159963Y134710D01*
X160036Y134658D01*
X160111Y134608D01*
X160188Y134562D01*
X160267Y134520D01*
X160348Y134480D01*
X160430Y134445D01*
X160514Y134413D01*
X160599Y134384D01*
X160686Y134359D01*
X160773Y134338D01*
X160861Y134321D01*
X160950Y134307D01*
X161040Y134298D01*
X161129Y134292D01*
X161219Y134290D01*
X159131Y142694D02*
X165396Y142694D01*
X165396Y147393D01*
X165394Y147470D01*
X165388Y147546D01*
X165379Y147623D01*
X165366Y147699D01*
X165349Y147774D01*
X165329Y147848D01*
X165304Y147921D01*
X165277Y147992D01*
X165246Y148063D01*
X165211Y148131D01*
X165173Y148198D01*
X165132Y148263D01*
X165088Y148326D01*
X165041Y148386D01*
X164990Y148445D01*
X164937Y148500D01*
X164882Y148553D01*
X164823Y148604D01*
X164763Y148651D01*
X164700Y148695D01*
X164635Y148736D01*
X164568Y148774D01*
X164500Y148809D01*
X164429Y148840D01*
X164358Y148867D01*
X164285Y148892D01*
X164211Y148912D01*
X164136Y148929D01*
X164060Y148942D01*
X163983Y148951D01*
X163907Y148957D01*
X163830Y148959D01*
X159131Y148959D01*
X159131Y145826D02*
X165396Y145826D01*
X158087Y152882D02*
X169573Y157059D01*
X159131Y162022D02*
X159131Y164633D01*
X159131Y162022D02*
X159133Y161945D01*
X159139Y161869D01*
X159148Y161792D01*
X159161Y161716D01*
X159178Y161641D01*
X159198Y161567D01*
X159223Y161494D01*
X159250Y161423D01*
X159281Y161352D01*
X159316Y161284D01*
X159354Y161217D01*
X159395Y161152D01*
X159439Y161089D01*
X159486Y161029D01*
X159537Y160970D01*
X159590Y160915D01*
X159645Y160862D01*
X159704Y160811D01*
X159764Y160764D01*
X159827Y160720D01*
X159892Y160679D01*
X159959Y160641D01*
X160027Y160606D01*
X160098Y160575D01*
X160169Y160548D01*
X160242Y160523D01*
X160316Y160503D01*
X160391Y160486D01*
X160467Y160473D01*
X160544Y160464D01*
X160620Y160458D01*
X160697Y160456D01*
X163830Y160456D01*
X163907Y160458D01*
X163983Y160464D01*
X164060Y160473D01*
X164136Y160486D01*
X164211Y160503D01*
X164285Y160523D01*
X164358Y160548D01*
X164429Y160575D01*
X164500Y160606D01*
X164568Y160641D01*
X164635Y160679D01*
X164700Y160720D01*
X164763Y160764D01*
X164823Y160811D01*
X164882Y160862D01*
X164937Y160915D01*
X164990Y160970D01*
X165041Y161029D01*
X165088Y161089D01*
X165132Y161152D01*
X165173Y161217D01*
X165211Y161284D01*
X165246Y161352D01*
X165277Y161423D01*
X165304Y161494D01*
X165329Y161567D01*
X165349Y161641D01*
X165366Y161716D01*
X165379Y161792D01*
X165388Y161869D01*
X165394Y161945D01*
X165396Y162022D01*
X165396Y164633D01*
X157565Y164633D01*
X157488Y164631D01*
X157412Y164625D01*
X157335Y164616D01*
X157259Y164603D01*
X157184Y164586D01*
X157110Y164566D01*
X157037Y164541D01*
X156966Y164514D01*
X156895Y164483D01*
X156827Y164448D01*
X156760Y164410D01*
X156695Y164369D01*
X156632Y164325D01*
X156572Y164278D01*
X156513Y164227D01*
X156458Y164174D01*
X156405Y164119D01*
X156354Y164060D01*
X156307Y164000D01*
X156263Y163937D01*
X156222Y163872D01*
X156184Y163805D01*
X156149Y163737D01*
X156118Y163666D01*
X156091Y163595D01*
X156066Y163522D01*
X156046Y163448D01*
X156029Y163373D01*
X156016Y163297D01*
X156007Y163221D01*
X156001Y163144D01*
X155999Y163067D01*
X155998Y163067D02*
X155998Y160978D01*
X159131Y169088D02*
X165396Y169088D01*
X165396Y172220D01*
X164352Y172220D01*
X165396Y175437D02*
X160697Y175437D01*
X160620Y175439D01*
X160544Y175445D01*
X160467Y175454D01*
X160391Y175467D01*
X160316Y175484D01*
X160242Y175504D01*
X160169Y175529D01*
X160098Y175556D01*
X160027Y175587D01*
X159959Y175622D01*
X159892Y175660D01*
X159827Y175701D01*
X159764Y175745D01*
X159704Y175792D01*
X159645Y175843D01*
X159590Y175896D01*
X159537Y175951D01*
X159486Y176010D01*
X159439Y176070D01*
X159395Y176133D01*
X159354Y176198D01*
X159316Y176265D01*
X159281Y176333D01*
X159250Y176404D01*
X159223Y176475D01*
X159198Y176548D01*
X159178Y176622D01*
X159161Y176697D01*
X159148Y176773D01*
X159139Y176850D01*
X159133Y176926D01*
X159131Y177003D01*
X159131Y179614D01*
X165396Y179614D01*
X165396Y184146D02*
X159131Y184146D01*
X165396Y184146D02*
X165396Y188845D01*
X165394Y188922D01*
X165388Y188998D01*
X165379Y189075D01*
X165366Y189151D01*
X165349Y189226D01*
X165329Y189300D01*
X165304Y189373D01*
X165277Y189444D01*
X165246Y189515D01*
X165211Y189583D01*
X165173Y189650D01*
X165132Y189715D01*
X165088Y189778D01*
X165041Y189838D01*
X164990Y189897D01*
X164937Y189952D01*
X164882Y190005D01*
X164823Y190056D01*
X164763Y190103D01*
X164700Y190147D01*
X164635Y190188D01*
X164568Y190226D01*
X164500Y190261D01*
X164429Y190292D01*
X164358Y190319D01*
X164285Y190344D01*
X164211Y190364D01*
X164136Y190381D01*
X164060Y190394D01*
X163983Y190403D01*
X163907Y190409D01*
X163830Y190411D01*
X163830Y190412D02*
X159131Y190412D01*
X159131Y187279D02*
X165396Y187279D01*
X165396Y194990D02*
X155998Y194990D01*
X165396Y194990D02*
X165396Y197600D01*
X165394Y197677D01*
X165388Y197753D01*
X165379Y197830D01*
X165366Y197906D01*
X165349Y197981D01*
X165329Y198055D01*
X165304Y198128D01*
X165277Y198199D01*
X165246Y198270D01*
X165211Y198338D01*
X165173Y198405D01*
X165132Y198470D01*
X165088Y198533D01*
X165041Y198593D01*
X164990Y198652D01*
X164937Y198707D01*
X164882Y198760D01*
X164823Y198811D01*
X164763Y198858D01*
X164700Y198902D01*
X164635Y198943D01*
X164568Y198981D01*
X164500Y199016D01*
X164429Y199047D01*
X164358Y199074D01*
X164285Y199099D01*
X164211Y199119D01*
X164136Y199136D01*
X164060Y199149D01*
X163983Y199158D01*
X163907Y199164D01*
X163830Y199166D01*
X160697Y199166D01*
X160620Y199164D01*
X160544Y199158D01*
X160467Y199149D01*
X160391Y199136D01*
X160316Y199119D01*
X160242Y199099D01*
X160169Y199074D01*
X160098Y199047D01*
X160027Y199016D01*
X159959Y198981D01*
X159892Y198943D01*
X159827Y198902D01*
X159764Y198858D01*
X159704Y198811D01*
X159645Y198760D01*
X159590Y198707D01*
X159537Y198652D01*
X159486Y198593D01*
X159439Y198533D01*
X159395Y198470D01*
X159354Y198405D01*
X159316Y198338D01*
X159281Y198270D01*
X159250Y198199D01*
X159223Y198128D01*
X159198Y198055D01*
X159178Y197981D01*
X159161Y197906D01*
X159148Y197830D01*
X159139Y197753D01*
X159133Y197677D01*
X159131Y197600D01*
X159131Y194990D01*
X155998Y202564D02*
X155998Y203608D01*
X165396Y206741D01*
X165396Y202564D02*
X159131Y204652D01*
X159131Y211760D02*
X159131Y213849D01*
X159131Y211760D02*
X159133Y211683D01*
X159139Y211607D01*
X159148Y211530D01*
X159161Y211454D01*
X159178Y211379D01*
X159198Y211305D01*
X159223Y211232D01*
X159250Y211161D01*
X159281Y211090D01*
X159316Y211022D01*
X159354Y210955D01*
X159395Y210890D01*
X159439Y210827D01*
X159486Y210767D01*
X159537Y210708D01*
X159590Y210653D01*
X159645Y210600D01*
X159704Y210549D01*
X159764Y210502D01*
X159827Y210458D01*
X159892Y210417D01*
X159959Y210379D01*
X160027Y210344D01*
X160098Y210313D01*
X160169Y210286D01*
X160242Y210261D01*
X160316Y210241D01*
X160391Y210224D01*
X160467Y210211D01*
X160544Y210202D01*
X160620Y210196D01*
X160697Y210194D01*
X163830Y210194D01*
X163907Y210196D01*
X163983Y210202D01*
X164060Y210211D01*
X164136Y210224D01*
X164211Y210241D01*
X164285Y210261D01*
X164358Y210286D01*
X164429Y210313D01*
X164500Y210344D01*
X164568Y210379D01*
X164635Y210417D01*
X164700Y210458D01*
X164763Y210502D01*
X164823Y210549D01*
X164882Y210600D01*
X164937Y210653D01*
X164990Y210708D01*
X165041Y210767D01*
X165088Y210827D01*
X165132Y210890D01*
X165173Y210955D01*
X165211Y211022D01*
X165246Y211090D01*
X165277Y211161D01*
X165304Y211232D01*
X165329Y211305D01*
X165349Y211379D01*
X165366Y211454D01*
X165379Y211530D01*
X165388Y211607D01*
X165394Y211683D01*
X165396Y211760D01*
X165396Y213849D01*
X163308Y217194D02*
X161219Y217194D01*
X163308Y217195D02*
X163398Y217197D01*
X163487Y217203D01*
X163577Y217212D01*
X163666Y217226D01*
X163754Y217243D01*
X163841Y217264D01*
X163928Y217289D01*
X164013Y217318D01*
X164097Y217350D01*
X164179Y217385D01*
X164260Y217425D01*
X164339Y217467D01*
X164416Y217513D01*
X164491Y217563D01*
X164564Y217615D01*
X164635Y217671D01*
X164703Y217729D01*
X164768Y217791D01*
X164831Y217855D01*
X164891Y217922D01*
X164948Y217991D01*
X165002Y218063D01*
X165053Y218137D01*
X165101Y218213D01*
X165145Y218291D01*
X165186Y218371D01*
X165224Y218453D01*
X165258Y218536D01*
X165288Y218621D01*
X165315Y218707D01*
X165338Y218793D01*
X165357Y218881D01*
X165372Y218970D01*
X165384Y219059D01*
X165392Y219148D01*
X165396Y219238D01*
X165396Y219328D01*
X165392Y219418D01*
X165384Y219507D01*
X165372Y219596D01*
X165357Y219685D01*
X165338Y219773D01*
X165315Y219859D01*
X165288Y219945D01*
X165258Y220030D01*
X165224Y220113D01*
X165186Y220195D01*
X165145Y220275D01*
X165101Y220353D01*
X165053Y220429D01*
X165002Y220503D01*
X164948Y220575D01*
X164891Y220644D01*
X164831Y220711D01*
X164768Y220775D01*
X164703Y220837D01*
X164635Y220895D01*
X164564Y220951D01*
X164491Y221003D01*
X164416Y221053D01*
X164339Y221099D01*
X164260Y221141D01*
X164179Y221181D01*
X164097Y221216D01*
X164013Y221248D01*
X163928Y221277D01*
X163841Y221302D01*
X163754Y221323D01*
X163666Y221340D01*
X163577Y221354D01*
X163487Y221363D01*
X163398Y221369D01*
X163308Y221371D01*
X161219Y221371D01*
X161129Y221369D01*
X161040Y221363D01*
X160950Y221354D01*
X160861Y221340D01*
X160773Y221323D01*
X160686Y221302D01*
X160599Y221277D01*
X160514Y221248D01*
X160430Y221216D01*
X160348Y221181D01*
X160267Y221141D01*
X160188Y221099D01*
X160111Y221053D01*
X160036Y221003D01*
X159963Y220951D01*
X159892Y220895D01*
X159824Y220837D01*
X159759Y220775D01*
X159696Y220711D01*
X159636Y220644D01*
X159579Y220575D01*
X159525Y220503D01*
X159474Y220429D01*
X159426Y220353D01*
X159382Y220275D01*
X159341Y220195D01*
X159303Y220113D01*
X159269Y220030D01*
X159239Y219945D01*
X159212Y219859D01*
X159189Y219773D01*
X159170Y219685D01*
X159155Y219596D01*
X159143Y219507D01*
X159135Y219418D01*
X159131Y219328D01*
X159131Y219238D01*
X159135Y219148D01*
X159143Y219059D01*
X159155Y218970D01*
X159170Y218881D01*
X159189Y218793D01*
X159212Y218707D01*
X159239Y218621D01*
X159269Y218536D01*
X159303Y218453D01*
X159341Y218371D01*
X159382Y218291D01*
X159426Y218213D01*
X159474Y218137D01*
X159525Y218063D01*
X159579Y217991D01*
X159636Y217922D01*
X159696Y217855D01*
X159759Y217791D01*
X159824Y217729D01*
X159892Y217671D01*
X159963Y217615D01*
X160036Y217563D01*
X160111Y217513D01*
X160188Y217467D01*
X160267Y217425D01*
X160348Y217385D01*
X160430Y217350D01*
X160514Y217318D01*
X160599Y217289D01*
X160686Y217264D01*
X160773Y217243D01*
X160861Y217226D01*
X160950Y217212D01*
X161040Y217203D01*
X161129Y217197D01*
X161219Y217195D01*
X159131Y229250D02*
X168529Y229250D01*
X159131Y229250D02*
X159131Y226640D01*
X159133Y226563D01*
X159139Y226487D01*
X159148Y226410D01*
X159161Y226334D01*
X159178Y226259D01*
X159198Y226185D01*
X159223Y226112D01*
X159250Y226041D01*
X159281Y225970D01*
X159316Y225902D01*
X159354Y225835D01*
X159395Y225770D01*
X159439Y225707D01*
X159486Y225647D01*
X159537Y225588D01*
X159590Y225533D01*
X159645Y225480D01*
X159704Y225429D01*
X159764Y225382D01*
X159827Y225338D01*
X159892Y225297D01*
X159959Y225259D01*
X160027Y225224D01*
X160098Y225193D01*
X160169Y225166D01*
X160242Y225141D01*
X160316Y225121D01*
X160391Y225104D01*
X160467Y225091D01*
X160544Y225082D01*
X160620Y225076D01*
X160697Y225074D01*
X160697Y225073D02*
X163830Y225073D01*
X163830Y225074D02*
X163907Y225076D01*
X163983Y225082D01*
X164060Y225091D01*
X164136Y225104D01*
X164211Y225121D01*
X164285Y225141D01*
X164358Y225166D01*
X164429Y225193D01*
X164500Y225224D01*
X164568Y225259D01*
X164635Y225297D01*
X164700Y225338D01*
X164763Y225382D01*
X164823Y225429D01*
X164882Y225480D01*
X164937Y225533D01*
X164990Y225588D01*
X165041Y225647D01*
X165088Y225707D01*
X165132Y225770D01*
X165173Y225835D01*
X165211Y225902D01*
X165246Y225970D01*
X165277Y226041D01*
X165304Y226112D01*
X165329Y226185D01*
X165349Y226259D01*
X165366Y226334D01*
X165379Y226410D01*
X165388Y226487D01*
X165394Y226563D01*
X165396Y226640D01*
X165396Y229250D01*
X159131Y234915D02*
X159131Y237525D01*
X159131Y234915D02*
X159133Y234838D01*
X159139Y234762D01*
X159148Y234685D01*
X159161Y234609D01*
X159178Y234534D01*
X159198Y234460D01*
X159223Y234387D01*
X159250Y234316D01*
X159281Y234245D01*
X159316Y234177D01*
X159354Y234110D01*
X159395Y234045D01*
X159439Y233982D01*
X159486Y233922D01*
X159537Y233863D01*
X159590Y233808D01*
X159645Y233755D01*
X159704Y233704D01*
X159764Y233657D01*
X159827Y233613D01*
X159892Y233572D01*
X159959Y233534D01*
X160027Y233499D01*
X160098Y233468D01*
X160169Y233441D01*
X160242Y233416D01*
X160316Y233396D01*
X160391Y233379D01*
X160467Y233366D01*
X160544Y233357D01*
X160620Y233351D01*
X160697Y233349D01*
X160697Y233348D02*
X163308Y233348D01*
X163308Y233349D02*
X163398Y233351D01*
X163487Y233357D01*
X163577Y233366D01*
X163666Y233380D01*
X163754Y233397D01*
X163841Y233418D01*
X163928Y233443D01*
X164013Y233472D01*
X164097Y233504D01*
X164179Y233539D01*
X164260Y233579D01*
X164339Y233621D01*
X164416Y233667D01*
X164491Y233717D01*
X164564Y233769D01*
X164635Y233825D01*
X164703Y233883D01*
X164768Y233945D01*
X164831Y234009D01*
X164891Y234076D01*
X164948Y234145D01*
X165002Y234217D01*
X165053Y234291D01*
X165101Y234367D01*
X165145Y234445D01*
X165186Y234525D01*
X165224Y234607D01*
X165258Y234690D01*
X165288Y234775D01*
X165315Y234861D01*
X165338Y234947D01*
X165357Y235035D01*
X165372Y235124D01*
X165384Y235213D01*
X165392Y235302D01*
X165396Y235392D01*
X165396Y235482D01*
X165392Y235572D01*
X165384Y235661D01*
X165372Y235750D01*
X165357Y235839D01*
X165338Y235927D01*
X165315Y236013D01*
X165288Y236099D01*
X165258Y236184D01*
X165224Y236267D01*
X165186Y236349D01*
X165145Y236429D01*
X165101Y236507D01*
X165053Y236583D01*
X165002Y236657D01*
X164948Y236729D01*
X164891Y236798D01*
X164831Y236865D01*
X164768Y236929D01*
X164703Y236991D01*
X164635Y237049D01*
X164564Y237105D01*
X164491Y237157D01*
X164416Y237207D01*
X164339Y237253D01*
X164260Y237295D01*
X164179Y237335D01*
X164097Y237370D01*
X164013Y237402D01*
X163928Y237431D01*
X163841Y237456D01*
X163754Y237477D01*
X163666Y237494D01*
X163577Y237508D01*
X163487Y237517D01*
X163398Y237523D01*
X163308Y237525D01*
X162264Y237525D01*
X162264Y233348D01*
X159131Y241630D02*
X165396Y241630D01*
X165396Y244762D01*
X164352Y244762D01*
X162786Y248457D02*
X161742Y251068D01*
X162786Y248457D02*
X162814Y248391D01*
X162847Y248326D01*
X162882Y248263D01*
X162921Y248202D01*
X162963Y248143D01*
X163008Y248087D01*
X163056Y248033D01*
X163107Y247982D01*
X163160Y247933D01*
X163217Y247888D01*
X163275Y247845D01*
X163335Y247806D01*
X163398Y247769D01*
X163463Y247737D01*
X163529Y247708D01*
X163596Y247682D01*
X163665Y247660D01*
X163735Y247642D01*
X163806Y247627D01*
X163877Y247616D01*
X163949Y247609D01*
X164021Y247606D01*
X164093Y247607D01*
X164166Y247612D01*
X164237Y247620D01*
X164309Y247632D01*
X164379Y247648D01*
X164448Y247668D01*
X164517Y247692D01*
X164584Y247719D01*
X164649Y247749D01*
X164713Y247783D01*
X164775Y247821D01*
X164835Y247861D01*
X164892Y247905D01*
X164947Y247952D01*
X165000Y248002D01*
X165049Y248054D01*
X165096Y248109D01*
X165140Y248166D01*
X165181Y248226D01*
X165218Y248288D01*
X165253Y248352D01*
X165283Y248417D01*
X165311Y248484D01*
X165334Y248552D01*
X165354Y248622D01*
X165370Y248692D01*
X165383Y248763D01*
X165391Y248835D01*
X165396Y248907D01*
X165397Y248979D01*
X165396Y248980D02*
X165392Y249131D01*
X165384Y249282D01*
X165373Y249433D01*
X165357Y249584D01*
X165337Y249734D01*
X165314Y249884D01*
X165287Y250033D01*
X165256Y250181D01*
X165221Y250329D01*
X165183Y250475D01*
X165140Y250621D01*
X165094Y250765D01*
X165045Y250908D01*
X164992Y251050D01*
X164935Y251190D01*
X164874Y251329D01*
X161742Y251068D02*
X161714Y251134D01*
X161681Y251199D01*
X161646Y251262D01*
X161607Y251323D01*
X161565Y251382D01*
X161520Y251438D01*
X161472Y251492D01*
X161421Y251543D01*
X161368Y251592D01*
X161311Y251637D01*
X161253Y251680D01*
X161193Y251719D01*
X161130Y251756D01*
X161065Y251788D01*
X160999Y251817D01*
X160932Y251843D01*
X160863Y251865D01*
X160793Y251883D01*
X160722Y251898D01*
X160651Y251909D01*
X160579Y251916D01*
X160507Y251919D01*
X160435Y251918D01*
X160362Y251913D01*
X160291Y251905D01*
X160219Y251893D01*
X160149Y251877D01*
X160080Y251857D01*
X160011Y251833D01*
X159944Y251806D01*
X159879Y251776D01*
X159815Y251742D01*
X159753Y251704D01*
X159693Y251664D01*
X159636Y251620D01*
X159581Y251573D01*
X159528Y251523D01*
X159479Y251471D01*
X159432Y251416D01*
X159388Y251359D01*
X159347Y251299D01*
X159310Y251237D01*
X159275Y251173D01*
X159245Y251108D01*
X159217Y251041D01*
X159194Y250973D01*
X159174Y250903D01*
X159158Y250833D01*
X159145Y250762D01*
X159137Y250690D01*
X159132Y250618D01*
X159131Y250546D01*
X159136Y250336D01*
X159147Y250127D01*
X159162Y249918D01*
X159182Y249710D01*
X159208Y249502D01*
X159238Y249295D01*
X159273Y249088D01*
X159313Y248883D01*
X159357Y248678D01*
X159407Y248475D01*
X159461Y248272D01*
X159521Y248071D01*
X159584Y247872D01*
X159653Y247674D01*
X158087Y255294D02*
X169573Y259471D01*
X165396Y263264D02*
X155998Y263264D01*
X165396Y263264D02*
X165396Y265875D01*
X165394Y265952D01*
X165388Y266028D01*
X165379Y266105D01*
X165366Y266181D01*
X165349Y266256D01*
X165329Y266330D01*
X165304Y266403D01*
X165277Y266474D01*
X165246Y266545D01*
X165211Y266613D01*
X165173Y266680D01*
X165132Y266745D01*
X165088Y266808D01*
X165041Y266868D01*
X164990Y266927D01*
X164937Y266982D01*
X164882Y267035D01*
X164823Y267086D01*
X164763Y267133D01*
X164700Y267177D01*
X164635Y267218D01*
X164568Y267256D01*
X164500Y267291D01*
X164429Y267322D01*
X164358Y267349D01*
X164285Y267374D01*
X164211Y267394D01*
X164136Y267411D01*
X164060Y267424D01*
X163983Y267433D01*
X163907Y267439D01*
X163830Y267441D01*
X160697Y267441D01*
X160620Y267439D01*
X160544Y267433D01*
X160467Y267424D01*
X160391Y267411D01*
X160316Y267394D01*
X160242Y267374D01*
X160169Y267349D01*
X160098Y267322D01*
X160027Y267291D01*
X159959Y267256D01*
X159892Y267218D01*
X159827Y267177D01*
X159764Y267133D01*
X159704Y267086D01*
X159645Y267035D01*
X159590Y266982D01*
X159537Y266927D01*
X159486Y266868D01*
X159439Y266808D01*
X159395Y266745D01*
X159354Y266680D01*
X159316Y266613D01*
X159281Y266545D01*
X159250Y266474D01*
X159223Y266403D01*
X159198Y266330D01*
X159178Y266256D01*
X159161Y266181D01*
X159148Y266105D01*
X159139Y266028D01*
X159133Y265952D01*
X159131Y265875D01*
X159131Y263264D01*
X159131Y272720D02*
X159131Y274808D01*
X159131Y272720D02*
X159133Y272643D01*
X159139Y272567D01*
X159148Y272490D01*
X159161Y272414D01*
X159178Y272339D01*
X159198Y272265D01*
X159223Y272192D01*
X159250Y272121D01*
X159281Y272050D01*
X159316Y271982D01*
X159354Y271915D01*
X159395Y271850D01*
X159439Y271787D01*
X159486Y271727D01*
X159537Y271668D01*
X159590Y271613D01*
X159645Y271560D01*
X159704Y271509D01*
X159764Y271462D01*
X159827Y271418D01*
X159892Y271377D01*
X159959Y271339D01*
X160027Y271304D01*
X160098Y271273D01*
X160169Y271246D01*
X160242Y271221D01*
X160316Y271201D01*
X160391Y271184D01*
X160467Y271171D01*
X160544Y271162D01*
X160620Y271156D01*
X160697Y271154D01*
X163830Y271154D01*
X163907Y271156D01*
X163983Y271162D01*
X164060Y271171D01*
X164136Y271184D01*
X164211Y271201D01*
X164285Y271221D01*
X164358Y271246D01*
X164429Y271273D01*
X164500Y271304D01*
X164568Y271339D01*
X164635Y271377D01*
X164700Y271418D01*
X164763Y271462D01*
X164823Y271509D01*
X164882Y271560D01*
X164937Y271613D01*
X164990Y271668D01*
X165041Y271727D01*
X165088Y271787D01*
X165132Y271850D01*
X165173Y271915D01*
X165211Y271982D01*
X165246Y272050D01*
X165277Y272121D01*
X165304Y272192D01*
X165329Y272265D01*
X165349Y272339D01*
X165366Y272414D01*
X165379Y272490D01*
X165388Y272567D01*
X165394Y272643D01*
X165396Y272720D01*
X165396Y274808D01*
X162786Y278937D02*
X161742Y281547D01*
X162786Y278937D02*
X162814Y278871D01*
X162847Y278806D01*
X162882Y278743D01*
X162921Y278682D01*
X162963Y278623D01*
X163008Y278567D01*
X163056Y278513D01*
X163107Y278462D01*
X163160Y278413D01*
X163217Y278368D01*
X163275Y278325D01*
X163335Y278286D01*
X163398Y278249D01*
X163463Y278217D01*
X163529Y278188D01*
X163596Y278162D01*
X163665Y278140D01*
X163735Y278122D01*
X163806Y278107D01*
X163877Y278096D01*
X163949Y278089D01*
X164021Y278086D01*
X164093Y278087D01*
X164166Y278092D01*
X164237Y278100D01*
X164309Y278112D01*
X164379Y278128D01*
X164448Y278148D01*
X164517Y278172D01*
X164584Y278199D01*
X164649Y278229D01*
X164713Y278263D01*
X164775Y278301D01*
X164835Y278341D01*
X164892Y278385D01*
X164947Y278432D01*
X165000Y278482D01*
X165049Y278534D01*
X165096Y278589D01*
X165140Y278646D01*
X165181Y278706D01*
X165218Y278768D01*
X165253Y278832D01*
X165283Y278897D01*
X165311Y278964D01*
X165334Y279032D01*
X165354Y279102D01*
X165370Y279172D01*
X165383Y279243D01*
X165391Y279315D01*
X165396Y279387D01*
X165397Y279459D01*
X165396Y279459D02*
X165392Y279610D01*
X165384Y279761D01*
X165373Y279912D01*
X165357Y280063D01*
X165337Y280213D01*
X165314Y280363D01*
X165287Y280512D01*
X165256Y280660D01*
X165221Y280808D01*
X165183Y280954D01*
X165140Y281100D01*
X165094Y281244D01*
X165045Y281387D01*
X164992Y281529D01*
X164935Y281669D01*
X164874Y281808D01*
X161742Y281548D02*
X161714Y281614D01*
X161681Y281679D01*
X161646Y281742D01*
X161607Y281803D01*
X161565Y281862D01*
X161520Y281918D01*
X161472Y281972D01*
X161421Y282023D01*
X161368Y282072D01*
X161311Y282117D01*
X161253Y282160D01*
X161193Y282199D01*
X161130Y282236D01*
X161065Y282268D01*
X160999Y282297D01*
X160932Y282323D01*
X160863Y282345D01*
X160793Y282363D01*
X160722Y282378D01*
X160651Y282389D01*
X160579Y282396D01*
X160507Y282399D01*
X160435Y282398D01*
X160362Y282393D01*
X160291Y282385D01*
X160219Y282373D01*
X160149Y282357D01*
X160080Y282337D01*
X160011Y282313D01*
X159944Y282286D01*
X159879Y282256D01*
X159815Y282222D01*
X159753Y282184D01*
X159693Y282144D01*
X159636Y282100D01*
X159581Y282053D01*
X159528Y282003D01*
X159479Y281951D01*
X159432Y281896D01*
X159388Y281839D01*
X159347Y281779D01*
X159310Y281717D01*
X159275Y281653D01*
X159245Y281588D01*
X159217Y281521D01*
X159194Y281453D01*
X159174Y281383D01*
X159158Y281313D01*
X159145Y281242D01*
X159137Y281170D01*
X159132Y281098D01*
X159131Y281026D01*
X159136Y280816D01*
X159147Y280607D01*
X159162Y280398D01*
X159182Y280190D01*
X159208Y279982D01*
X159238Y279775D01*
X159273Y279568D01*
X159313Y279363D01*
X159357Y279158D01*
X159407Y278955D01*
X159461Y278752D01*
X159521Y278551D01*
X159584Y278352D01*
X159653Y278154D01*
X159131Y285774D02*
X165396Y289951D01*
X165396Y285774D02*
X159131Y289951D01*
X162786Y293569D02*
X162786Y299834D01*
X165396Y304113D02*
X159131Y304113D01*
X165396Y304113D02*
X165396Y307246D01*
X164352Y307246D01*
X159131Y311724D02*
X159131Y314335D01*
X159131Y311724D02*
X159133Y311647D01*
X159139Y311571D01*
X159148Y311494D01*
X159161Y311418D01*
X159178Y311343D01*
X159198Y311269D01*
X159223Y311196D01*
X159250Y311125D01*
X159281Y311054D01*
X159316Y310986D01*
X159354Y310919D01*
X159395Y310854D01*
X159439Y310791D01*
X159486Y310731D01*
X159537Y310672D01*
X159590Y310617D01*
X159645Y310564D01*
X159704Y310513D01*
X159764Y310466D01*
X159827Y310422D01*
X159892Y310381D01*
X159959Y310343D01*
X160027Y310308D01*
X160098Y310277D01*
X160169Y310250D01*
X160242Y310225D01*
X160316Y310205D01*
X160391Y310188D01*
X160467Y310175D01*
X160544Y310166D01*
X160620Y310160D01*
X160697Y310158D01*
X163308Y310158D01*
X163398Y310160D01*
X163487Y310166D01*
X163577Y310175D01*
X163666Y310189D01*
X163754Y310206D01*
X163841Y310227D01*
X163928Y310252D01*
X164013Y310281D01*
X164097Y310313D01*
X164179Y310348D01*
X164260Y310388D01*
X164339Y310430D01*
X164416Y310476D01*
X164491Y310526D01*
X164564Y310578D01*
X164635Y310634D01*
X164703Y310692D01*
X164768Y310754D01*
X164831Y310818D01*
X164891Y310885D01*
X164948Y310954D01*
X165002Y311026D01*
X165053Y311100D01*
X165101Y311176D01*
X165145Y311254D01*
X165186Y311334D01*
X165224Y311416D01*
X165258Y311499D01*
X165288Y311584D01*
X165315Y311670D01*
X165338Y311756D01*
X165357Y311844D01*
X165372Y311933D01*
X165384Y312022D01*
X165392Y312111D01*
X165396Y312201D01*
X165396Y312291D01*
X165392Y312381D01*
X165384Y312470D01*
X165372Y312559D01*
X165357Y312648D01*
X165338Y312736D01*
X165315Y312822D01*
X165288Y312908D01*
X165258Y312993D01*
X165224Y313076D01*
X165186Y313158D01*
X165145Y313238D01*
X165101Y313316D01*
X165053Y313392D01*
X165002Y313466D01*
X164948Y313538D01*
X164891Y313607D01*
X164831Y313674D01*
X164768Y313738D01*
X164703Y313800D01*
X164635Y313858D01*
X164564Y313914D01*
X164491Y313966D01*
X164416Y314016D01*
X164339Y314062D01*
X164260Y314104D01*
X164179Y314144D01*
X164097Y314179D01*
X164013Y314211D01*
X163928Y314240D01*
X163841Y314265D01*
X163754Y314286D01*
X163666Y314303D01*
X163577Y314317D01*
X163487Y314326D01*
X163398Y314332D01*
X163308Y314334D01*
X163308Y314335D02*
X162264Y314335D01*
X162264Y310158D01*
X159131Y322214D02*
X168529Y322214D01*
X159131Y322214D02*
X159131Y319603D01*
X159133Y319526D01*
X159139Y319450D01*
X159148Y319373D01*
X159161Y319297D01*
X159178Y319222D01*
X159198Y319148D01*
X159223Y319075D01*
X159250Y319004D01*
X159281Y318933D01*
X159316Y318865D01*
X159354Y318798D01*
X159395Y318733D01*
X159439Y318670D01*
X159486Y318610D01*
X159537Y318551D01*
X159590Y318496D01*
X159645Y318443D01*
X159704Y318392D01*
X159764Y318345D01*
X159827Y318301D01*
X159892Y318260D01*
X159959Y318222D01*
X160027Y318187D01*
X160098Y318156D01*
X160169Y318129D01*
X160242Y318104D01*
X160316Y318084D01*
X160391Y318067D01*
X160467Y318054D01*
X160544Y318045D01*
X160620Y318039D01*
X160697Y318037D01*
X163830Y318037D01*
X163907Y318039D01*
X163983Y318045D01*
X164060Y318054D01*
X164136Y318067D01*
X164211Y318084D01*
X164285Y318104D01*
X164358Y318129D01*
X164429Y318156D01*
X164500Y318187D01*
X164568Y318222D01*
X164635Y318260D01*
X164700Y318301D01*
X164763Y318345D01*
X164823Y318392D01*
X164882Y318443D01*
X164937Y318496D01*
X164990Y318551D01*
X165041Y318610D01*
X165088Y318670D01*
X165132Y318733D01*
X165173Y318798D01*
X165211Y318865D01*
X165246Y318933D01*
X165277Y319004D01*
X165304Y319075D01*
X165329Y319148D01*
X165349Y319222D01*
X165366Y319297D01*
X165379Y319373D01*
X165388Y319450D01*
X165394Y319526D01*
X165396Y319603D01*
X165396Y322214D01*
X165396Y326617D02*
X160697Y326617D01*
X160620Y326619D01*
X160544Y326625D01*
X160467Y326634D01*
X160391Y326647D01*
X160316Y326664D01*
X160242Y326684D01*
X160169Y326709D01*
X160098Y326736D01*
X160027Y326767D01*
X159959Y326802D01*
X159892Y326840D01*
X159827Y326881D01*
X159764Y326925D01*
X159704Y326972D01*
X159645Y327023D01*
X159590Y327076D01*
X159537Y327131D01*
X159486Y327190D01*
X159439Y327250D01*
X159395Y327313D01*
X159354Y327378D01*
X159316Y327445D01*
X159281Y327513D01*
X159250Y327584D01*
X159223Y327655D01*
X159198Y327728D01*
X159178Y327802D01*
X159161Y327877D01*
X159148Y327953D01*
X159139Y328030D01*
X159133Y328106D01*
X159131Y328183D01*
X159131Y330794D01*
X165396Y330794D01*
X159131Y334541D02*
X165396Y338718D01*
X165396Y334541D02*
X159131Y338718D01*
D11*
X131544Y37479D02*
X129596Y37479D01*
X129596Y30988D01*
X133491Y30988D01*
X133590Y30990D01*
X133690Y30996D01*
X133789Y31005D01*
X133887Y31018D01*
X133985Y31035D01*
X134083Y31056D01*
X134179Y31081D01*
X134274Y31109D01*
X134368Y31141D01*
X134461Y31176D01*
X134553Y31215D01*
X134643Y31258D01*
X134731Y31303D01*
X134818Y31353D01*
X134902Y31405D01*
X134985Y31461D01*
X135065Y31519D01*
X135143Y31581D01*
X135218Y31646D01*
X135291Y31714D01*
X135361Y31784D01*
X135429Y31857D01*
X135494Y31932D01*
X135556Y32010D01*
X135614Y32090D01*
X135670Y32173D01*
X135722Y32257D01*
X135772Y32344D01*
X135817Y32432D01*
X135860Y32522D01*
X135899Y32614D01*
X135934Y32707D01*
X135966Y32801D01*
X135994Y32896D01*
X136019Y32992D01*
X136040Y33090D01*
X136057Y33188D01*
X136070Y33286D01*
X136079Y33385D01*
X136085Y33485D01*
X136087Y33584D01*
X136088Y33584D02*
X136088Y40076D01*
X136087Y40076D02*
X136085Y40175D01*
X136079Y40275D01*
X136070Y40374D01*
X136057Y40472D01*
X136040Y40570D01*
X136019Y40668D01*
X135994Y40764D01*
X135966Y40859D01*
X135934Y40953D01*
X135899Y41046D01*
X135860Y41138D01*
X135817Y41228D01*
X135772Y41316D01*
X135722Y41403D01*
X135670Y41487D01*
X135614Y41570D01*
X135556Y41650D01*
X135494Y41728D01*
X135429Y41803D01*
X135361Y41876D01*
X135291Y41946D01*
X135218Y42014D01*
X135143Y42079D01*
X135065Y42141D01*
X134985Y42199D01*
X134902Y42255D01*
X134818Y42307D01*
X134731Y42357D01*
X134643Y42402D01*
X134553Y42445D01*
X134461Y42484D01*
X134368Y42519D01*
X134274Y42551D01*
X134179Y42579D01*
X134083Y42604D01*
X133985Y42625D01*
X133887Y42642D01*
X133789Y42655D01*
X133690Y42664D01*
X133590Y42670D01*
X133491Y42672D01*
X129596Y42672D01*
X123896Y42672D02*
X123896Y30988D01*
X117404Y30988D02*
X123896Y42672D01*
X117404Y42672D02*
X117404Y30988D01*
X111704Y30988D02*
X111704Y42672D01*
X108458Y42672D01*
X108345Y42670D01*
X108232Y42664D01*
X108119Y42654D01*
X108006Y42640D01*
X107894Y42623D01*
X107783Y42601D01*
X107673Y42576D01*
X107563Y42546D01*
X107455Y42513D01*
X107348Y42476D01*
X107242Y42436D01*
X107138Y42391D01*
X107035Y42343D01*
X106934Y42292D01*
X106835Y42237D01*
X106738Y42179D01*
X106643Y42117D01*
X106550Y42052D01*
X106460Y41984D01*
X106372Y41913D01*
X106286Y41838D01*
X106203Y41761D01*
X106123Y41681D01*
X106046Y41598D01*
X105971Y41512D01*
X105900Y41424D01*
X105832Y41334D01*
X105767Y41241D01*
X105705Y41146D01*
X105647Y41049D01*
X105592Y40950D01*
X105541Y40849D01*
X105493Y40746D01*
X105448Y40642D01*
X105408Y40536D01*
X105371Y40429D01*
X105338Y40321D01*
X105308Y40211D01*
X105283Y40101D01*
X105261Y39990D01*
X105244Y39878D01*
X105230Y39765D01*
X105220Y39652D01*
X105214Y39539D01*
X105212Y39426D01*
X105212Y34234D01*
X105214Y34121D01*
X105220Y34008D01*
X105230Y33895D01*
X105244Y33782D01*
X105261Y33670D01*
X105283Y33559D01*
X105308Y33449D01*
X105338Y33339D01*
X105371Y33231D01*
X105408Y33124D01*
X105448Y33018D01*
X105493Y32914D01*
X105541Y32811D01*
X105592Y32710D01*
X105647Y32611D01*
X105705Y32514D01*
X105767Y32419D01*
X105832Y32326D01*
X105900Y32236D01*
X105971Y32148D01*
X106046Y32062D01*
X106123Y31979D01*
X106203Y31899D01*
X106286Y31822D01*
X106372Y31747D01*
X106460Y31676D01*
X106550Y31608D01*
X106643Y31543D01*
X106738Y31481D01*
X106835Y31423D01*
X106934Y31368D01*
X107035Y31317D01*
X107138Y31269D01*
X107242Y31224D01*
X107348Y31184D01*
X107455Y31147D01*
X107563Y31114D01*
X107673Y31084D01*
X107783Y31059D01*
X107894Y31037D01*
X108006Y31020D01*
X108119Y31006D01*
X108232Y30996D01*
X108345Y30990D01*
X108458Y30988D01*
X111704Y30988D01*
X135241Y81788D02*
X135241Y93472D01*
X131995Y93472D01*
X131882Y93470D01*
X131769Y93464D01*
X131656Y93454D01*
X131543Y93440D01*
X131431Y93423D01*
X131320Y93401D01*
X131210Y93376D01*
X131100Y93346D01*
X130992Y93313D01*
X130885Y93276D01*
X130779Y93236D01*
X130675Y93191D01*
X130572Y93143D01*
X130471Y93092D01*
X130372Y93037D01*
X130275Y92979D01*
X130180Y92917D01*
X130087Y92852D01*
X129997Y92784D01*
X129909Y92713D01*
X129823Y92638D01*
X129740Y92561D01*
X129660Y92481D01*
X129583Y92398D01*
X129508Y92312D01*
X129437Y92224D01*
X129369Y92134D01*
X129304Y92041D01*
X129242Y91946D01*
X129184Y91849D01*
X129129Y91750D01*
X129078Y91649D01*
X129030Y91546D01*
X128985Y91442D01*
X128945Y91336D01*
X128908Y91229D01*
X128875Y91121D01*
X128845Y91011D01*
X128820Y90901D01*
X128798Y90790D01*
X128781Y90678D01*
X128767Y90565D01*
X128757Y90452D01*
X128751Y90339D01*
X128749Y90226D01*
X128751Y90113D01*
X128757Y90000D01*
X128767Y89887D01*
X128781Y89774D01*
X128798Y89662D01*
X128820Y89551D01*
X128845Y89441D01*
X128875Y89331D01*
X128908Y89223D01*
X128945Y89116D01*
X128985Y89010D01*
X129030Y88906D01*
X129078Y88803D01*
X129129Y88702D01*
X129184Y88603D01*
X129242Y88506D01*
X129304Y88411D01*
X129369Y88318D01*
X129437Y88228D01*
X129508Y88140D01*
X129583Y88054D01*
X129660Y87971D01*
X129740Y87891D01*
X129823Y87814D01*
X129909Y87739D01*
X129997Y87668D01*
X130087Y87600D01*
X130180Y87535D01*
X130275Y87473D01*
X130372Y87415D01*
X130471Y87360D01*
X130572Y87309D01*
X130675Y87261D01*
X130779Y87216D01*
X130885Y87176D01*
X130992Y87139D01*
X131100Y87106D01*
X131210Y87076D01*
X131320Y87051D01*
X131431Y87029D01*
X131543Y87012D01*
X131656Y86998D01*
X131769Y86988D01*
X131882Y86982D01*
X131995Y86980D01*
X131995Y86981D02*
X135241Y86981D01*
X124361Y85034D02*
X124361Y90226D01*
X124362Y90226D02*
X124360Y90339D01*
X124354Y90452D01*
X124344Y90565D01*
X124330Y90678D01*
X124313Y90790D01*
X124291Y90901D01*
X124266Y91011D01*
X124236Y91121D01*
X124203Y91229D01*
X124166Y91336D01*
X124126Y91442D01*
X124081Y91546D01*
X124033Y91649D01*
X123982Y91750D01*
X123927Y91849D01*
X123869Y91946D01*
X123807Y92041D01*
X123742Y92134D01*
X123674Y92224D01*
X123603Y92312D01*
X123528Y92398D01*
X123451Y92481D01*
X123371Y92561D01*
X123288Y92638D01*
X123202Y92713D01*
X123114Y92784D01*
X123024Y92852D01*
X122931Y92917D01*
X122836Y92979D01*
X122739Y93037D01*
X122640Y93092D01*
X122539Y93143D01*
X122436Y93191D01*
X122332Y93236D01*
X122226Y93276D01*
X122119Y93313D01*
X122011Y93346D01*
X121901Y93376D01*
X121791Y93401D01*
X121680Y93423D01*
X121568Y93440D01*
X121455Y93454D01*
X121342Y93464D01*
X121229Y93470D01*
X121116Y93472D01*
X121003Y93470D01*
X120890Y93464D01*
X120777Y93454D01*
X120664Y93440D01*
X120552Y93423D01*
X120441Y93401D01*
X120331Y93376D01*
X120221Y93346D01*
X120113Y93313D01*
X120006Y93276D01*
X119900Y93236D01*
X119796Y93191D01*
X119693Y93143D01*
X119592Y93092D01*
X119493Y93037D01*
X119396Y92979D01*
X119301Y92917D01*
X119208Y92852D01*
X119118Y92784D01*
X119030Y92713D01*
X118944Y92638D01*
X118861Y92561D01*
X118781Y92481D01*
X118704Y92398D01*
X118629Y92312D01*
X118558Y92224D01*
X118490Y92134D01*
X118425Y92041D01*
X118363Y91946D01*
X118305Y91849D01*
X118250Y91750D01*
X118199Y91649D01*
X118151Y91546D01*
X118106Y91442D01*
X118066Y91336D01*
X118029Y91229D01*
X117996Y91121D01*
X117966Y91011D01*
X117941Y90901D01*
X117919Y90790D01*
X117902Y90678D01*
X117888Y90565D01*
X117878Y90452D01*
X117872Y90339D01*
X117870Y90226D01*
X117870Y85034D01*
X117872Y84921D01*
X117878Y84808D01*
X117888Y84695D01*
X117902Y84582D01*
X117919Y84470D01*
X117941Y84359D01*
X117966Y84249D01*
X117996Y84139D01*
X118029Y84031D01*
X118066Y83924D01*
X118106Y83818D01*
X118151Y83714D01*
X118199Y83611D01*
X118250Y83510D01*
X118305Y83411D01*
X118363Y83314D01*
X118425Y83219D01*
X118490Y83126D01*
X118558Y83036D01*
X118629Y82948D01*
X118704Y82862D01*
X118781Y82779D01*
X118861Y82699D01*
X118944Y82622D01*
X119030Y82547D01*
X119118Y82476D01*
X119208Y82408D01*
X119301Y82343D01*
X119396Y82281D01*
X119493Y82223D01*
X119592Y82168D01*
X119693Y82117D01*
X119796Y82069D01*
X119900Y82024D01*
X120006Y81984D01*
X120113Y81947D01*
X120221Y81914D01*
X120331Y81884D01*
X120441Y81859D01*
X120552Y81837D01*
X120664Y81820D01*
X120777Y81806D01*
X120890Y81796D01*
X121003Y81790D01*
X121116Y81788D01*
X121229Y81790D01*
X121342Y81796D01*
X121455Y81806D01*
X121568Y81820D01*
X121680Y81837D01*
X121791Y81859D01*
X121901Y81884D01*
X122011Y81914D01*
X122119Y81947D01*
X122226Y81984D01*
X122332Y82024D01*
X122436Y82069D01*
X122539Y82117D01*
X122640Y82168D01*
X122739Y82223D01*
X122836Y82281D01*
X122931Y82343D01*
X123024Y82408D01*
X123114Y82476D01*
X123202Y82547D01*
X123288Y82622D01*
X123371Y82699D01*
X123451Y82779D01*
X123528Y82862D01*
X123603Y82948D01*
X123674Y83036D01*
X123742Y83126D01*
X123807Y83219D01*
X123869Y83314D01*
X123927Y83411D01*
X123982Y83510D01*
X124033Y83611D01*
X124081Y83714D01*
X124126Y83818D01*
X124166Y83924D01*
X124203Y84031D01*
X124236Y84139D01*
X124266Y84249D01*
X124291Y84359D01*
X124313Y84470D01*
X124330Y84582D01*
X124344Y84695D01*
X124354Y84808D01*
X124360Y84921D01*
X124362Y85034D01*
X112550Y81788D02*
X112550Y93472D01*
X106059Y81788D01*
X106059Y93472D01*
X135326Y212034D02*
X135326Y217226D01*
X135324Y217339D01*
X135318Y217452D01*
X135308Y217565D01*
X135294Y217678D01*
X135277Y217790D01*
X135255Y217901D01*
X135230Y218011D01*
X135200Y218121D01*
X135167Y218229D01*
X135130Y218336D01*
X135090Y218442D01*
X135045Y218546D01*
X134997Y218649D01*
X134946Y218750D01*
X134891Y218849D01*
X134833Y218946D01*
X134771Y219041D01*
X134706Y219134D01*
X134638Y219224D01*
X134567Y219312D01*
X134492Y219398D01*
X134415Y219481D01*
X134335Y219561D01*
X134252Y219638D01*
X134166Y219713D01*
X134078Y219784D01*
X133988Y219852D01*
X133895Y219917D01*
X133800Y219979D01*
X133703Y220037D01*
X133604Y220092D01*
X133503Y220143D01*
X133400Y220191D01*
X133296Y220236D01*
X133190Y220276D01*
X133083Y220313D01*
X132975Y220346D01*
X132865Y220376D01*
X132755Y220401D01*
X132644Y220423D01*
X132532Y220440D01*
X132419Y220454D01*
X132306Y220464D01*
X132193Y220470D01*
X132080Y220472D01*
X131967Y220470D01*
X131854Y220464D01*
X131741Y220454D01*
X131628Y220440D01*
X131516Y220423D01*
X131405Y220401D01*
X131295Y220376D01*
X131185Y220346D01*
X131077Y220313D01*
X130970Y220276D01*
X130864Y220236D01*
X130760Y220191D01*
X130657Y220143D01*
X130556Y220092D01*
X130457Y220037D01*
X130360Y219979D01*
X130265Y219917D01*
X130172Y219852D01*
X130082Y219784D01*
X129994Y219713D01*
X129908Y219638D01*
X129825Y219561D01*
X129745Y219481D01*
X129668Y219398D01*
X129593Y219312D01*
X129522Y219224D01*
X129454Y219134D01*
X129389Y219041D01*
X129327Y218946D01*
X129269Y218849D01*
X129214Y218750D01*
X129163Y218649D01*
X129115Y218546D01*
X129070Y218442D01*
X129030Y218336D01*
X128993Y218229D01*
X128960Y218121D01*
X128930Y218011D01*
X128905Y217901D01*
X128883Y217790D01*
X128866Y217678D01*
X128852Y217565D01*
X128842Y217452D01*
X128836Y217339D01*
X128834Y217226D01*
X128834Y212034D01*
X128836Y211921D01*
X128842Y211808D01*
X128852Y211695D01*
X128866Y211582D01*
X128883Y211470D01*
X128905Y211359D01*
X128930Y211249D01*
X128960Y211139D01*
X128993Y211031D01*
X129030Y210924D01*
X129070Y210818D01*
X129115Y210714D01*
X129163Y210611D01*
X129214Y210510D01*
X129269Y210411D01*
X129327Y210314D01*
X129389Y210219D01*
X129454Y210126D01*
X129522Y210036D01*
X129593Y209948D01*
X129668Y209862D01*
X129745Y209779D01*
X129825Y209699D01*
X129908Y209622D01*
X129994Y209547D01*
X130082Y209476D01*
X130172Y209408D01*
X130265Y209343D01*
X130360Y209281D01*
X130457Y209223D01*
X130556Y209168D01*
X130657Y209117D01*
X130760Y209069D01*
X130864Y209024D01*
X130970Y208984D01*
X131077Y208947D01*
X131185Y208914D01*
X131295Y208884D01*
X131405Y208859D01*
X131516Y208837D01*
X131628Y208820D01*
X131741Y208806D01*
X131854Y208796D01*
X131967Y208790D01*
X132080Y208788D01*
X132193Y208790D01*
X132306Y208796D01*
X132419Y208806D01*
X132532Y208820D01*
X132644Y208837D01*
X132755Y208859D01*
X132865Y208884D01*
X132975Y208914D01*
X133083Y208947D01*
X133190Y208984D01*
X133296Y209024D01*
X133400Y209069D01*
X133503Y209117D01*
X133604Y209168D01*
X133703Y209223D01*
X133800Y209281D01*
X133895Y209343D01*
X133988Y209408D01*
X134078Y209476D01*
X134166Y209547D01*
X134252Y209622D01*
X134335Y209699D01*
X134415Y209779D01*
X134492Y209862D01*
X134567Y209948D01*
X134638Y210036D01*
X134706Y210126D01*
X134771Y210219D01*
X134833Y210314D01*
X134891Y210411D01*
X134946Y210510D01*
X134997Y210611D01*
X135045Y210714D01*
X135090Y210818D01*
X135130Y210924D01*
X135167Y211031D01*
X135200Y211139D01*
X135230Y211249D01*
X135255Y211359D01*
X135277Y211470D01*
X135294Y211582D01*
X135308Y211695D01*
X135318Y211808D01*
X135324Y211921D01*
X135326Y212034D01*
X123515Y212034D02*
X123515Y220472D01*
X123515Y212034D02*
X123513Y211921D01*
X123507Y211808D01*
X123497Y211695D01*
X123483Y211582D01*
X123466Y211470D01*
X123444Y211359D01*
X123419Y211249D01*
X123389Y211139D01*
X123356Y211031D01*
X123319Y210924D01*
X123279Y210818D01*
X123234Y210714D01*
X123186Y210611D01*
X123135Y210510D01*
X123080Y210411D01*
X123022Y210314D01*
X122960Y210219D01*
X122895Y210126D01*
X122827Y210036D01*
X122756Y209948D01*
X122681Y209862D01*
X122604Y209779D01*
X122524Y209699D01*
X122441Y209622D01*
X122355Y209547D01*
X122267Y209476D01*
X122177Y209408D01*
X122084Y209343D01*
X121989Y209281D01*
X121892Y209223D01*
X121793Y209168D01*
X121692Y209117D01*
X121589Y209069D01*
X121485Y209024D01*
X121379Y208984D01*
X121272Y208947D01*
X121164Y208914D01*
X121054Y208884D01*
X120944Y208859D01*
X120833Y208837D01*
X120721Y208820D01*
X120608Y208806D01*
X120495Y208796D01*
X120382Y208790D01*
X120269Y208788D01*
X120156Y208790D01*
X120043Y208796D01*
X119930Y208806D01*
X119817Y208820D01*
X119705Y208837D01*
X119594Y208859D01*
X119484Y208884D01*
X119374Y208914D01*
X119266Y208947D01*
X119159Y208984D01*
X119053Y209024D01*
X118949Y209069D01*
X118846Y209117D01*
X118745Y209168D01*
X118646Y209223D01*
X118549Y209281D01*
X118454Y209343D01*
X118361Y209408D01*
X118271Y209476D01*
X118183Y209547D01*
X118097Y209622D01*
X118014Y209699D01*
X117934Y209779D01*
X117857Y209862D01*
X117782Y209948D01*
X117711Y210036D01*
X117643Y210126D01*
X117578Y210219D01*
X117516Y210314D01*
X117458Y210411D01*
X117403Y210510D01*
X117352Y210611D01*
X117304Y210714D01*
X117259Y210818D01*
X117219Y210924D01*
X117182Y211031D01*
X117149Y211139D01*
X117119Y211249D01*
X117094Y211359D01*
X117072Y211470D01*
X117055Y211582D01*
X117041Y211695D01*
X117031Y211808D01*
X117025Y211921D01*
X117023Y212034D01*
X117023Y220472D01*
X109220Y220472D02*
X109220Y208788D01*
X112466Y220472D02*
X105974Y220472D01*
X126386Y310388D02*
X126386Y322072D01*
X127684Y310388D02*
X125088Y310388D01*
X125088Y322072D02*
X127684Y322072D01*
X120107Y322072D02*
X120107Y310388D01*
X113616Y310388D02*
X120107Y322072D01*
X113616Y322072D02*
X113616Y310388D01*
M02*
