M48
;GenerationSoftware,Autodesk,EAGLE,9.5.2*%
;CreationDate,2019-11-26T01:21:34Z*%
FMAT,2
ICI,OFF
METRIC,TZ,000.000
T6C0.350
T5C0.813
T4C1.016
T3C1.118
T2C1.500
T1C1.524
%
G90
M71
T1
X5080Y33655
X5080Y29845
T2
X27432Y22860
X27305Y7620
X11247Y5803
X11247Y10883
X11247Y23583
X11247Y33743
T3
X32512Y9906
X32639Y22860
X32639Y25146
X32639Y20574
X32512Y5334
X32512Y7620
T4
X32639Y36703
X30099Y36703
X27559Y36703
X25019Y36703
X22479Y36703
X5080Y2540
X5080Y5080
X5080Y7620
X5080Y10160
X5080Y12700
T5
X18415Y32639
X20574Y18034
X20574Y20574
X20574Y25146
X20574Y27686
X20574Y9906
X20574Y12446
X20574Y2794
X20574Y5334
X5588Y17145
X5588Y22225
X5588Y19685
X28067Y32639
X25527Y32639
X20955Y32639
T6
X10160Y17145
M30