G04 EAGLE Gerber RS-274X export*
G75*
%MOMM*%
%FSLAX34Y34*%
%LPD*%
%INBottom Copper*%
%IPPOS*%
%AMOC8*
5,1,8,0,0,1.08239X$1,22.5*%
G01*
%ADD10C,1.508000*%
%ADD11C,1.408000*%
%ADD12C,1.524000*%
%ADD13C,0.756400*%
%ADD14C,0.406400*%
%ADD15C,0.304800*%

G36*
X29800Y10175D02*
X29800Y10175D01*
X29946Y10182D01*
X29999Y10195D01*
X30055Y10201D01*
X30194Y10244D01*
X30336Y10279D01*
X30386Y10302D01*
X30440Y10319D01*
X30568Y10388D01*
X30700Y10451D01*
X30745Y10484D01*
X30794Y10511D01*
X30906Y10604D01*
X31023Y10691D01*
X31060Y10733D01*
X31103Y10768D01*
X31194Y10882D01*
X31292Y10991D01*
X31320Y11039D01*
X31355Y11082D01*
X31422Y11212D01*
X31497Y11338D01*
X31515Y11390D01*
X31541Y11439D01*
X31581Y11580D01*
X31629Y11718D01*
X31637Y11773D01*
X31652Y11826D01*
X31664Y11972D01*
X31684Y12117D01*
X31680Y12172D01*
X31685Y12228D01*
X31668Y12373D01*
X31659Y12519D01*
X31645Y12572D01*
X31638Y12627D01*
X31593Y12766D01*
X31555Y12908D01*
X31528Y12965D01*
X31513Y13010D01*
X31472Y13083D01*
X31413Y13208D01*
X28286Y18624D01*
X26639Y24769D01*
X26639Y31131D01*
X28286Y37276D01*
X31467Y42785D01*
X35965Y47283D01*
X41474Y50464D01*
X47619Y52111D01*
X53981Y52111D01*
X60126Y50464D01*
X65635Y47283D01*
X70133Y42785D01*
X73314Y37276D01*
X74961Y31131D01*
X74961Y24769D01*
X73314Y18624D01*
X70187Y13208D01*
X70127Y13074D01*
X70059Y12945D01*
X70044Y12891D01*
X70021Y12841D01*
X69988Y12698D01*
X69948Y12558D01*
X69943Y12502D01*
X69931Y12448D01*
X69927Y12302D01*
X69915Y12156D01*
X69922Y12101D01*
X69920Y12046D01*
X69945Y11901D01*
X69962Y11757D01*
X69979Y11704D01*
X69989Y11649D01*
X70041Y11513D01*
X70087Y11374D01*
X70114Y11325D01*
X70134Y11274D01*
X70213Y11151D01*
X70285Y11023D01*
X70321Y10981D01*
X70351Y10934D01*
X70452Y10829D01*
X70548Y10718D01*
X70592Y10684D01*
X70630Y10644D01*
X70751Y10561D01*
X70866Y10472D01*
X70916Y10447D01*
X70961Y10415D01*
X71096Y10357D01*
X71226Y10292D01*
X71280Y10278D01*
X71331Y10256D01*
X71474Y10226D01*
X71615Y10188D01*
X71678Y10183D01*
X71725Y10173D01*
X71809Y10172D01*
X71946Y10161D01*
X377688Y10161D01*
X377697Y10162D01*
X377706Y10161D01*
X377898Y10182D01*
X378089Y10201D01*
X378097Y10203D01*
X378106Y10204D01*
X378289Y10262D01*
X378474Y10319D01*
X378482Y10323D01*
X378490Y10326D01*
X378659Y10419D01*
X378828Y10511D01*
X378835Y10516D01*
X378843Y10521D01*
X378989Y10644D01*
X379137Y10768D01*
X379143Y10775D01*
X379150Y10781D01*
X379269Y10932D01*
X379389Y11082D01*
X379394Y11090D01*
X379399Y11097D01*
X379487Y11270D01*
X379575Y11439D01*
X379577Y11448D01*
X379581Y11456D01*
X379633Y11642D01*
X379686Y11826D01*
X379687Y11835D01*
X379689Y11844D01*
X379704Y12037D01*
X379719Y12228D01*
X379718Y12236D01*
X379719Y12245D01*
X379695Y12438D01*
X379672Y12627D01*
X379670Y12636D01*
X379668Y12645D01*
X379607Y12828D01*
X379547Y13010D01*
X379543Y13018D01*
X379540Y13026D01*
X379444Y13193D01*
X379350Y13361D01*
X379344Y13368D01*
X379339Y13375D01*
X379125Y13628D01*
X373789Y18964D01*
X370339Y27292D01*
X370339Y36308D01*
X373789Y44636D01*
X380164Y51011D01*
X384906Y52975D01*
X388492Y54461D01*
X397508Y54461D01*
X405836Y51011D01*
X412211Y44636D01*
X415661Y36308D01*
X415661Y27292D01*
X412211Y18964D01*
X406875Y13628D01*
X406870Y13621D01*
X406863Y13616D01*
X406743Y13466D01*
X406620Y13317D01*
X406616Y13309D01*
X406611Y13302D01*
X406522Y13132D01*
X406432Y12961D01*
X406429Y12952D01*
X406425Y12945D01*
X406372Y12760D01*
X406317Y12575D01*
X406316Y12566D01*
X406314Y12558D01*
X406298Y12366D01*
X406281Y12174D01*
X406281Y12165D01*
X406281Y12156D01*
X406303Y11967D01*
X406324Y11774D01*
X406327Y11765D01*
X406328Y11757D01*
X406387Y11575D01*
X406445Y11390D01*
X406450Y11382D01*
X406453Y11374D01*
X406548Y11205D01*
X406640Y11038D01*
X406646Y11031D01*
X406650Y11023D01*
X406776Y10877D01*
X406901Y10731D01*
X406908Y10725D01*
X406914Y10718D01*
X407065Y10601D01*
X407217Y10481D01*
X407225Y10477D01*
X407232Y10472D01*
X407404Y10386D01*
X407576Y10299D01*
X407584Y10296D01*
X407592Y10292D01*
X407779Y10242D01*
X407963Y10191D01*
X407972Y10190D01*
X407981Y10188D01*
X408312Y10161D01*
X607688Y10161D01*
X607697Y10162D01*
X607706Y10161D01*
X607898Y10182D01*
X608089Y10201D01*
X608097Y10203D01*
X608106Y10204D01*
X608289Y10262D01*
X608474Y10319D01*
X608482Y10323D01*
X608490Y10326D01*
X608659Y10419D01*
X608828Y10511D01*
X608835Y10516D01*
X608843Y10521D01*
X608989Y10644D01*
X609137Y10768D01*
X609143Y10775D01*
X609150Y10781D01*
X609269Y10932D01*
X609389Y11082D01*
X609394Y11090D01*
X609399Y11097D01*
X609487Y11270D01*
X609575Y11439D01*
X609577Y11448D01*
X609581Y11456D01*
X609633Y11642D01*
X609686Y11826D01*
X609687Y11835D01*
X609689Y11844D01*
X609704Y12037D01*
X609719Y12228D01*
X609718Y12236D01*
X609719Y12245D01*
X609695Y12438D01*
X609672Y12627D01*
X609670Y12636D01*
X609668Y12645D01*
X609607Y12828D01*
X609547Y13010D01*
X609543Y13018D01*
X609540Y13026D01*
X609444Y13193D01*
X609350Y13361D01*
X609344Y13368D01*
X609339Y13375D01*
X609125Y13628D01*
X603789Y18964D01*
X600339Y27292D01*
X600339Y36308D01*
X603789Y44636D01*
X610164Y51011D01*
X614906Y52975D01*
X618492Y54461D01*
X627508Y54461D01*
X634731Y51469D01*
X634744Y51465D01*
X634755Y51459D01*
X634936Y51407D01*
X635116Y51352D01*
X635129Y51351D01*
X635142Y51347D01*
X635330Y51332D01*
X635517Y51314D01*
X635530Y51316D01*
X635544Y51314D01*
X635731Y51336D01*
X635917Y51356D01*
X635930Y51360D01*
X635943Y51361D01*
X636123Y51420D01*
X636302Y51476D01*
X636313Y51482D01*
X636326Y51486D01*
X636491Y51579D01*
X636655Y51669D01*
X636665Y51678D01*
X636677Y51684D01*
X636819Y51807D01*
X636963Y51928D01*
X636971Y51939D01*
X636982Y51947D01*
X637097Y52096D01*
X637214Y52243D01*
X637220Y52255D01*
X637228Y52265D01*
X637312Y52434D01*
X637398Y52601D01*
X637402Y52614D01*
X637408Y52626D01*
X637457Y52809D01*
X637508Y52988D01*
X637509Y53002D01*
X637512Y53015D01*
X637539Y53345D01*
X637539Y420255D01*
X637538Y420268D01*
X637539Y420281D01*
X637518Y420467D01*
X637499Y420655D01*
X637495Y420668D01*
X637494Y420681D01*
X637436Y420860D01*
X637381Y421040D01*
X637375Y421052D01*
X637371Y421065D01*
X637279Y421229D01*
X637189Y421394D01*
X637181Y421404D01*
X637174Y421416D01*
X637052Y421559D01*
X636932Y421703D01*
X636921Y421712D01*
X636913Y421722D01*
X636764Y421838D01*
X636618Y421956D01*
X636606Y421962D01*
X636596Y421970D01*
X636427Y422055D01*
X636261Y422141D01*
X636248Y422145D01*
X636236Y422151D01*
X636054Y422201D01*
X635874Y422253D01*
X635860Y422254D01*
X635847Y422257D01*
X635659Y422270D01*
X635472Y422286D01*
X635459Y422284D01*
X635446Y422285D01*
X635258Y422260D01*
X635073Y422239D01*
X635060Y422234D01*
X635047Y422233D01*
X634731Y422131D01*
X627508Y419139D01*
X618492Y419139D01*
X610164Y422589D01*
X609024Y423729D01*
X609021Y423731D01*
X609018Y423735D01*
X608862Y423861D01*
X608713Y423984D01*
X608709Y423986D01*
X608705Y423989D01*
X608528Y424082D01*
X608357Y424172D01*
X608353Y424174D01*
X608349Y424176D01*
X608159Y424231D01*
X607971Y424287D01*
X607967Y424288D01*
X607962Y424289D01*
X607770Y424305D01*
X607570Y424324D01*
X607566Y424323D01*
X607561Y424323D01*
X607371Y424302D01*
X607170Y424280D01*
X607165Y424279D01*
X607161Y424278D01*
X606975Y424218D01*
X606786Y424159D01*
X606782Y424157D01*
X606778Y424155D01*
X606607Y424060D01*
X606434Y423964D01*
X606430Y423961D01*
X606426Y423959D01*
X606278Y423832D01*
X606127Y423703D01*
X606124Y423700D01*
X606120Y423697D01*
X606000Y423543D01*
X605877Y423387D01*
X605875Y423383D01*
X605872Y423380D01*
X605785Y423206D01*
X605695Y423029D01*
X605693Y423024D01*
X605691Y423020D01*
X605640Y422831D01*
X605587Y422641D01*
X605586Y422636D01*
X605585Y422632D01*
X605572Y422436D01*
X605557Y422239D01*
X605558Y422235D01*
X605558Y422230D01*
X605583Y422034D01*
X605608Y421840D01*
X605609Y421835D01*
X605610Y421831D01*
X605711Y421515D01*
X605965Y420903D01*
X605965Y417297D01*
X604585Y413965D01*
X602035Y411415D01*
X598703Y410035D01*
X595097Y410035D01*
X591765Y411415D01*
X589215Y413965D01*
X587835Y417297D01*
X587835Y420903D01*
X588180Y421735D01*
X588183Y421744D01*
X588187Y421752D01*
X588190Y421764D01*
X588197Y421776D01*
X588245Y421949D01*
X588296Y422121D01*
X588298Y422143D01*
X588305Y422164D01*
X588318Y422344D01*
X588335Y422521D01*
X588332Y422543D01*
X588334Y422566D01*
X588311Y422744D01*
X588293Y422922D01*
X588286Y422943D01*
X588283Y422965D01*
X588227Y423135D01*
X588173Y423306D01*
X588162Y423326D01*
X588155Y423347D01*
X588066Y423502D01*
X587980Y423659D01*
X587966Y423676D01*
X587954Y423696D01*
X587740Y423949D01*
X583532Y428156D01*
X581151Y430537D01*
X581151Y436428D01*
X581150Y436437D01*
X581151Y436446D01*
X581130Y436638D01*
X581111Y436829D01*
X581109Y436837D01*
X581108Y436846D01*
X581050Y437028D01*
X580993Y437213D01*
X580989Y437221D01*
X580986Y437230D01*
X580893Y437398D01*
X580801Y437567D01*
X580796Y437574D01*
X580791Y437582D01*
X580666Y437730D01*
X580544Y437877D01*
X580537Y437882D01*
X580531Y437889D01*
X580380Y438008D01*
X580230Y438129D01*
X580222Y438133D01*
X580215Y438139D01*
X580044Y438226D01*
X579873Y438315D01*
X579864Y438317D01*
X579856Y438321D01*
X579670Y438373D01*
X579486Y438426D01*
X579477Y438427D01*
X579468Y438429D01*
X579276Y438443D01*
X579084Y438459D01*
X579076Y438458D01*
X579067Y438458D01*
X578874Y438434D01*
X578685Y438412D01*
X578676Y438409D01*
X578667Y438408D01*
X578484Y438347D01*
X578302Y438287D01*
X578294Y438283D01*
X578286Y438280D01*
X578120Y438184D01*
X577951Y438089D01*
X577944Y438083D01*
X577937Y438079D01*
X577684Y437864D01*
X576635Y436815D01*
X576031Y436565D01*
X573303Y435435D01*
X569697Y435435D01*
X566365Y436815D01*
X565316Y437864D01*
X565309Y437870D01*
X565304Y437877D01*
X565153Y437998D01*
X565005Y438119D01*
X564997Y438123D01*
X564990Y438129D01*
X564820Y438218D01*
X564649Y438308D01*
X564640Y438310D01*
X564633Y438315D01*
X564448Y438368D01*
X564263Y438423D01*
X564254Y438424D01*
X564246Y438426D01*
X564055Y438442D01*
X563862Y438459D01*
X563853Y438458D01*
X563844Y438459D01*
X563655Y438437D01*
X563462Y438416D01*
X563453Y438413D01*
X563445Y438412D01*
X563263Y438353D01*
X563078Y438294D01*
X563070Y438290D01*
X563062Y438287D01*
X562895Y438193D01*
X562726Y438099D01*
X562719Y438094D01*
X562711Y438089D01*
X562566Y437964D01*
X562419Y437839D01*
X562413Y437832D01*
X562406Y437826D01*
X562290Y437676D01*
X562169Y437523D01*
X562165Y437515D01*
X562160Y437508D01*
X562075Y437337D01*
X561987Y437164D01*
X561984Y437155D01*
X561980Y437147D01*
X561931Y436962D01*
X561879Y436776D01*
X561878Y436767D01*
X561876Y436759D01*
X561849Y436428D01*
X561849Y433904D01*
X561851Y433878D01*
X561849Y433851D01*
X561871Y433677D01*
X561889Y433504D01*
X561896Y433478D01*
X561900Y433451D01*
X561955Y433286D01*
X562007Y433119D01*
X562020Y433095D01*
X562028Y433070D01*
X562115Y432918D01*
X562199Y432765D01*
X562216Y432744D01*
X562229Y432721D01*
X562444Y432468D01*
X566651Y428260D01*
X566668Y428246D01*
X566683Y428229D01*
X566824Y428119D01*
X566963Y428005D01*
X566982Y427995D01*
X567000Y427981D01*
X567160Y427901D01*
X567318Y427817D01*
X567340Y427810D01*
X567360Y427800D01*
X567533Y427753D01*
X567704Y427702D01*
X567727Y427700D01*
X567748Y427694D01*
X567926Y427682D01*
X568105Y427665D01*
X568128Y427668D01*
X568150Y427666D01*
X568326Y427689D01*
X568506Y427709D01*
X568527Y427716D01*
X568549Y427719D01*
X568865Y427820D01*
X569697Y428165D01*
X573303Y428165D01*
X576635Y426785D01*
X579185Y424235D01*
X580565Y420903D01*
X580565Y417297D01*
X579185Y413965D01*
X576635Y411415D01*
X573303Y410035D01*
X569697Y410035D01*
X566365Y411415D01*
X563815Y413965D01*
X562435Y417297D01*
X562435Y420903D01*
X562780Y421735D01*
X562783Y421744D01*
X562787Y421752D01*
X562790Y421764D01*
X562797Y421776D01*
X562845Y421949D01*
X562896Y422121D01*
X562898Y422143D01*
X562905Y422164D01*
X562918Y422344D01*
X562935Y422521D01*
X562932Y422543D01*
X562934Y422566D01*
X562911Y422744D01*
X562893Y422922D01*
X562886Y422943D01*
X562883Y422965D01*
X562827Y423135D01*
X562773Y423306D01*
X562762Y423326D01*
X562755Y423347D01*
X562666Y423502D01*
X562580Y423659D01*
X562566Y423676D01*
X562554Y423696D01*
X562340Y423949D01*
X558132Y428156D01*
X555751Y430537D01*
X555751Y436428D01*
X555750Y436437D01*
X555751Y436446D01*
X555730Y436638D01*
X555711Y436829D01*
X555709Y436837D01*
X555708Y436846D01*
X555650Y437028D01*
X555593Y437213D01*
X555589Y437221D01*
X555586Y437230D01*
X555493Y437398D01*
X555401Y437567D01*
X555396Y437574D01*
X555391Y437582D01*
X555266Y437730D01*
X555144Y437877D01*
X555137Y437882D01*
X555131Y437889D01*
X554980Y438008D01*
X554830Y438129D01*
X554822Y438133D01*
X554815Y438139D01*
X554644Y438226D01*
X554473Y438315D01*
X554464Y438317D01*
X554456Y438321D01*
X554270Y438373D01*
X554086Y438426D01*
X554077Y438427D01*
X554068Y438429D01*
X553876Y438443D01*
X553684Y438459D01*
X553676Y438458D01*
X553667Y438458D01*
X553474Y438434D01*
X553285Y438412D01*
X553276Y438409D01*
X553267Y438408D01*
X553084Y438347D01*
X552902Y438287D01*
X552894Y438283D01*
X552886Y438280D01*
X552720Y438184D01*
X552551Y438089D01*
X552544Y438083D01*
X552537Y438079D01*
X552284Y437864D01*
X551235Y436815D01*
X550631Y436565D01*
X547903Y435435D01*
X544297Y435435D01*
X540965Y436815D01*
X538415Y439365D01*
X537035Y442697D01*
X537035Y446303D01*
X538415Y449635D01*
X540965Y452185D01*
X543250Y453131D01*
X544297Y453565D01*
X547903Y453565D01*
X551235Y452185D01*
X552284Y451136D01*
X552291Y451130D01*
X552296Y451123D01*
X552447Y451002D01*
X552595Y450881D01*
X552603Y450877D01*
X552610Y450871D01*
X552780Y450782D01*
X552951Y450692D01*
X552960Y450690D01*
X552967Y450685D01*
X553152Y450632D01*
X553337Y450577D01*
X553346Y450576D01*
X553354Y450574D01*
X553545Y450558D01*
X553738Y450541D01*
X553747Y450542D01*
X553756Y450541D01*
X553945Y450563D01*
X554138Y450584D01*
X554147Y450587D01*
X554155Y450588D01*
X554337Y450647D01*
X554522Y450706D01*
X554530Y450710D01*
X554538Y450713D01*
X554705Y450807D01*
X554874Y450901D01*
X554881Y450906D01*
X554889Y450911D01*
X555034Y451036D01*
X555181Y451161D01*
X555187Y451168D01*
X555194Y451174D01*
X555310Y451324D01*
X555431Y451477D01*
X555435Y451485D01*
X555440Y451492D01*
X555525Y451663D01*
X555613Y451836D01*
X555616Y451845D01*
X555620Y451853D01*
X555669Y452038D01*
X555721Y452224D01*
X555722Y452233D01*
X555724Y452241D01*
X555751Y452572D01*
X555751Y455096D01*
X555749Y455122D01*
X555751Y455149D01*
X555729Y455323D01*
X555711Y455496D01*
X555704Y455522D01*
X555700Y455549D01*
X555645Y455714D01*
X555593Y455881D01*
X555580Y455905D01*
X555572Y455930D01*
X555485Y456082D01*
X555401Y456235D01*
X555384Y456256D01*
X555371Y456279D01*
X555156Y456532D01*
X545432Y466256D01*
X545411Y466273D01*
X545394Y466294D01*
X545256Y466401D01*
X545121Y466511D01*
X545097Y466524D01*
X545076Y466540D01*
X544919Y466618D01*
X544765Y466700D01*
X544739Y466708D01*
X544715Y466720D01*
X544546Y466765D01*
X544379Y466815D01*
X544352Y466817D01*
X544327Y466824D01*
X543996Y466851D01*
X401948Y466851D01*
X401943Y466851D01*
X401939Y466851D01*
X401745Y466831D01*
X401547Y466811D01*
X401543Y466810D01*
X401539Y466810D01*
X401353Y466752D01*
X401162Y466693D01*
X401158Y466691D01*
X401154Y466690D01*
X400983Y466596D01*
X400808Y466501D01*
X400805Y466499D01*
X400801Y466496D01*
X400650Y466369D01*
X400499Y466244D01*
X400496Y466240D01*
X400493Y466237D01*
X400370Y466083D01*
X400247Y465930D01*
X400245Y465926D01*
X400242Y465923D01*
X400152Y465748D01*
X400061Y465573D01*
X400060Y465568D01*
X400058Y465564D01*
X400004Y465375D01*
X399950Y465186D01*
X399950Y465181D01*
X399948Y465177D01*
X399933Y464984D01*
X399917Y464784D01*
X399918Y464780D01*
X399917Y464776D01*
X399941Y464583D01*
X399964Y464385D01*
X399965Y464380D01*
X399966Y464376D01*
X400026Y464193D01*
X400089Y464002D01*
X400091Y463998D01*
X400092Y463994D01*
X400189Y463824D01*
X400287Y463651D01*
X400290Y463648D01*
X400292Y463644D01*
X400423Y463494D01*
X400550Y463347D01*
X400553Y463344D01*
X400556Y463340D01*
X400714Y463219D01*
X400868Y463100D01*
X400872Y463098D01*
X400876Y463095D01*
X401171Y462943D01*
X405836Y461011D01*
X412211Y454636D01*
X412557Y453800D01*
X412566Y453784D01*
X412571Y453767D01*
X412661Y453607D01*
X412747Y453445D01*
X412759Y453431D01*
X412767Y453416D01*
X412887Y453277D01*
X413004Y453135D01*
X413018Y453124D01*
X413029Y453110D01*
X413174Y452997D01*
X413316Y452881D01*
X413332Y452873D01*
X413346Y452862D01*
X413511Y452779D01*
X413673Y452694D01*
X413690Y452689D01*
X413706Y452681D01*
X413883Y452633D01*
X414059Y452581D01*
X414077Y452579D01*
X414094Y452575D01*
X414278Y452562D01*
X414460Y452546D01*
X414478Y452548D01*
X414496Y452547D01*
X414680Y452571D01*
X414861Y452592D01*
X414877Y452597D01*
X414895Y452599D01*
X415211Y452701D01*
X417297Y453565D01*
X420903Y453565D01*
X424235Y452185D01*
X426785Y449635D01*
X428165Y446303D01*
X428165Y442697D01*
X426785Y439365D01*
X424235Y436815D01*
X423631Y436565D01*
X420903Y435435D01*
X417297Y435435D01*
X417120Y435508D01*
X417103Y435514D01*
X417087Y435522D01*
X416911Y435572D01*
X416735Y435625D01*
X416717Y435627D01*
X416700Y435631D01*
X416517Y435646D01*
X416334Y435663D01*
X416316Y435661D01*
X416299Y435663D01*
X416117Y435640D01*
X415934Y435621D01*
X415917Y435616D01*
X415899Y435614D01*
X415724Y435556D01*
X415549Y435502D01*
X415534Y435493D01*
X415517Y435487D01*
X415357Y435396D01*
X415196Y435308D01*
X415182Y435297D01*
X415167Y435288D01*
X415029Y435167D01*
X414888Y435049D01*
X414877Y435035D01*
X414863Y435023D01*
X414751Y434878D01*
X414637Y434734D01*
X414629Y434718D01*
X414618Y434704D01*
X414466Y434409D01*
X413178Y431298D01*
X413140Y431173D01*
X413093Y431051D01*
X413082Y430981D01*
X413061Y430913D01*
X413049Y430782D01*
X413027Y430654D01*
X413030Y430583D01*
X413023Y430512D01*
X413037Y430382D01*
X413041Y430251D01*
X413057Y430182D01*
X413065Y430111D01*
X413104Y429986D01*
X413134Y429859D01*
X413164Y429795D01*
X413185Y429727D01*
X413247Y429612D01*
X413302Y429494D01*
X413344Y429436D01*
X413378Y429374D01*
X413462Y429274D01*
X413539Y429168D01*
X413591Y429120D01*
X413637Y429066D01*
X413739Y428984D01*
X413836Y428896D01*
X413896Y428859D01*
X413952Y428815D01*
X414068Y428755D01*
X414180Y428687D01*
X414247Y428663D01*
X414310Y428631D01*
X414436Y428595D01*
X414559Y428551D01*
X414629Y428540D01*
X414697Y428521D01*
X414828Y428511D01*
X414957Y428492D01*
X415028Y428496D01*
X415099Y428490D01*
X415228Y428506D01*
X415359Y428513D01*
X415439Y428531D01*
X415498Y428539D01*
X415571Y428563D01*
X415682Y428589D01*
X416601Y428887D01*
X416601Y421599D01*
X409081Y421599D01*
X409059Y421663D01*
X409008Y421824D01*
X408992Y421853D01*
X408980Y421884D01*
X408894Y422029D01*
X408813Y422176D01*
X408791Y422201D01*
X408774Y422230D01*
X408661Y422355D01*
X408552Y422483D01*
X408526Y422504D01*
X408504Y422528D01*
X408369Y422628D01*
X408236Y422732D01*
X408207Y422748D01*
X408180Y422767D01*
X408028Y422839D01*
X407878Y422915D01*
X407845Y422924D01*
X407815Y422938D01*
X407652Y422978D01*
X407490Y423023D01*
X407456Y423025D01*
X407424Y423033D01*
X407256Y423040D01*
X407088Y423052D01*
X407055Y423048D01*
X407022Y423049D01*
X406856Y423023D01*
X406689Y423002D01*
X406657Y422991D01*
X406624Y422986D01*
X406467Y422927D01*
X406307Y422874D01*
X406278Y422857D01*
X406247Y422845D01*
X406104Y422757D01*
X405958Y422673D01*
X405930Y422649D01*
X405905Y422633D01*
X405875Y422605D01*
X405250Y422346D01*
X400347Y420315D01*
X400346Y420315D01*
X397508Y419139D01*
X388492Y419139D01*
X380164Y422589D01*
X373789Y428964D01*
X370339Y437292D01*
X370339Y446308D01*
X373789Y454636D01*
X380164Y461011D01*
X384829Y462943D01*
X384833Y462945D01*
X384838Y462947D01*
X385010Y463040D01*
X385184Y463134D01*
X385188Y463136D01*
X385192Y463139D01*
X385339Y463261D01*
X385495Y463390D01*
X385497Y463393D01*
X385501Y463396D01*
X385624Y463549D01*
X385748Y463703D01*
X385750Y463707D01*
X385753Y463710D01*
X385841Y463880D01*
X385935Y464059D01*
X385937Y464063D01*
X385939Y464067D01*
X385992Y464253D01*
X386048Y464446D01*
X386049Y464450D01*
X386050Y464454D01*
X386066Y464652D01*
X386083Y464847D01*
X386083Y464851D01*
X386083Y464856D01*
X386060Y465052D01*
X386038Y465247D01*
X386037Y465251D01*
X386036Y465255D01*
X385974Y465444D01*
X385915Y465630D01*
X385913Y465634D01*
X385911Y465638D01*
X385814Y465811D01*
X385718Y465982D01*
X385716Y465985D01*
X385713Y465989D01*
X385585Y466138D01*
X385457Y466287D01*
X385453Y466290D01*
X385450Y466294D01*
X385298Y466411D01*
X385140Y466536D01*
X385136Y466538D01*
X385132Y466540D01*
X384956Y466628D01*
X384780Y466716D01*
X384776Y466718D01*
X384772Y466720D01*
X384579Y466771D01*
X384391Y466823D01*
X384387Y466823D01*
X384383Y466824D01*
X384052Y466851D01*
X357704Y466851D01*
X357678Y466849D01*
X357651Y466851D01*
X357477Y466829D01*
X357304Y466811D01*
X357278Y466804D01*
X357251Y466800D01*
X357086Y466745D01*
X356919Y466693D01*
X356895Y466680D01*
X356870Y466672D01*
X356718Y466585D01*
X356565Y466501D01*
X356544Y466484D01*
X356521Y466471D01*
X356268Y466256D01*
X318763Y428751D01*
X122617Y428751D01*
X120236Y431132D01*
X83896Y467472D01*
X83879Y467486D01*
X83864Y467503D01*
X83723Y467614D01*
X83585Y467727D01*
X83565Y467738D01*
X83547Y467752D01*
X83386Y467833D01*
X83229Y467916D01*
X83208Y467922D01*
X83188Y467932D01*
X83015Y467980D01*
X82843Y468031D01*
X82821Y468033D01*
X82799Y468039D01*
X82621Y468051D01*
X82442Y468067D01*
X82420Y468065D01*
X82398Y468066D01*
X82221Y468043D01*
X82042Y468024D01*
X82020Y468017D01*
X81998Y468014D01*
X81682Y467913D01*
X81134Y467685D01*
X77726Y467685D01*
X74578Y468989D01*
X72169Y471398D01*
X70910Y474439D01*
X70903Y474451D01*
X70899Y474464D01*
X70808Y474628D01*
X70719Y474794D01*
X70711Y474805D01*
X70704Y474816D01*
X70584Y474958D01*
X70463Y475105D01*
X70453Y475113D01*
X70444Y475123D01*
X70296Y475240D01*
X70150Y475358D01*
X70138Y475365D01*
X70128Y475373D01*
X69960Y475459D01*
X69794Y475545D01*
X69781Y475549D01*
X69769Y475555D01*
X69587Y475606D01*
X69407Y475659D01*
X69394Y475660D01*
X69381Y475663D01*
X69192Y475677D01*
X69006Y475693D01*
X68993Y475692D01*
X68980Y475693D01*
X68791Y475669D01*
X68606Y475648D01*
X68594Y475644D01*
X68580Y475642D01*
X68402Y475582D01*
X68223Y475525D01*
X68211Y475518D01*
X68198Y475514D01*
X68035Y475420D01*
X67871Y475329D01*
X67861Y475320D01*
X67850Y475313D01*
X67597Y475098D01*
X65682Y473183D01*
X65670Y473170D01*
X65657Y473158D01*
X65543Y473014D01*
X65427Y472872D01*
X65418Y472856D01*
X65407Y472842D01*
X65324Y472678D01*
X65238Y472516D01*
X65233Y472499D01*
X65225Y472483D01*
X65175Y472306D01*
X65123Y472130D01*
X65121Y472113D01*
X65117Y472095D01*
X65103Y471912D01*
X65087Y471729D01*
X65089Y471712D01*
X65087Y471694D01*
X65110Y471512D01*
X65130Y471329D01*
X65136Y471312D01*
X65138Y471294D01*
X65196Y471121D01*
X65252Y470945D01*
X65260Y470930D01*
X65266Y470913D01*
X65358Y470753D01*
X65446Y470593D01*
X65458Y470579D01*
X65467Y470564D01*
X65682Y470311D01*
X67591Y468402D01*
X68895Y465254D01*
X68895Y461846D01*
X67591Y458698D01*
X65182Y456289D01*
X62034Y454985D01*
X58626Y454985D01*
X55478Y456289D01*
X53069Y458698D01*
X51765Y461846D01*
X51765Y465254D01*
X53069Y468402D01*
X54401Y469734D01*
X54407Y469741D01*
X54414Y469746D01*
X54535Y469897D01*
X54656Y470045D01*
X54661Y470053D01*
X54666Y470060D01*
X54755Y470230D01*
X54845Y470401D01*
X54848Y470410D01*
X54852Y470417D01*
X54905Y470602D01*
X54960Y470787D01*
X54961Y470796D01*
X54963Y470804D01*
X54979Y470995D01*
X54996Y471188D01*
X54995Y471197D01*
X54996Y471206D01*
X54974Y471395D01*
X54953Y471588D01*
X54950Y471597D01*
X54949Y471605D01*
X54890Y471787D01*
X54831Y471972D01*
X54827Y471980D01*
X54824Y471988D01*
X54730Y472155D01*
X54637Y472324D01*
X54631Y472331D01*
X54626Y472339D01*
X54502Y472483D01*
X54376Y472631D01*
X54369Y472637D01*
X54363Y472644D01*
X54213Y472760D01*
X54060Y472881D01*
X54052Y472885D01*
X54045Y472890D01*
X53874Y472976D01*
X53701Y473063D01*
X53693Y473066D01*
X53685Y473070D01*
X53499Y473120D01*
X53313Y473171D01*
X53304Y473172D01*
X53296Y473174D01*
X52965Y473201D01*
X50595Y473201D01*
X50573Y473199D01*
X50550Y473201D01*
X50373Y473179D01*
X50194Y473161D01*
X50173Y473155D01*
X50151Y473152D01*
X49981Y473096D01*
X49809Y473043D01*
X49790Y473033D01*
X49769Y473026D01*
X49613Y472937D01*
X49455Y472851D01*
X49438Y472837D01*
X49419Y472826D01*
X49283Y472708D01*
X49146Y472594D01*
X49132Y472576D01*
X49115Y472562D01*
X49006Y472420D01*
X48894Y472280D01*
X48883Y472260D01*
X48870Y472242D01*
X48718Y471947D01*
X48491Y471398D01*
X46082Y468989D01*
X42934Y467685D01*
X39526Y467685D01*
X36378Y468989D01*
X33969Y471398D01*
X32665Y474546D01*
X32665Y477954D01*
X33969Y481102D01*
X36378Y483511D01*
X36594Y483600D01*
X39526Y484815D01*
X42934Y484815D01*
X46082Y483511D01*
X48491Y481102D01*
X48718Y480553D01*
X48729Y480533D01*
X48736Y480512D01*
X48824Y480355D01*
X48908Y480198D01*
X48923Y480181D01*
X48934Y480161D01*
X49051Y480025D01*
X49165Y479887D01*
X49182Y479873D01*
X49197Y479856D01*
X49338Y479747D01*
X49477Y479634D01*
X49497Y479623D01*
X49515Y479610D01*
X49675Y479530D01*
X49834Y479447D01*
X49855Y479440D01*
X49875Y479430D01*
X50048Y479384D01*
X50220Y479334D01*
X50243Y479332D01*
X50264Y479326D01*
X50595Y479299D01*
X52965Y479299D01*
X52974Y479300D01*
X52983Y479299D01*
X53175Y479320D01*
X53366Y479339D01*
X53374Y479341D01*
X53383Y479342D01*
X53565Y479400D01*
X53751Y479457D01*
X53759Y479461D01*
X53767Y479464D01*
X53935Y479557D01*
X54105Y479649D01*
X54111Y479654D01*
X54119Y479659D01*
X54267Y479784D01*
X54414Y479906D01*
X54419Y479913D01*
X54426Y479919D01*
X54546Y480071D01*
X54666Y480220D01*
X54670Y480228D01*
X54676Y480235D01*
X54763Y480407D01*
X54852Y480577D01*
X54854Y480586D01*
X54858Y480594D01*
X54910Y480780D01*
X54963Y480964D01*
X54964Y480973D01*
X54966Y480982D01*
X54980Y481174D01*
X54996Y481366D01*
X54995Y481374D01*
X54996Y481383D01*
X54971Y481575D01*
X54949Y481765D01*
X54946Y481774D01*
X54945Y481783D01*
X54884Y481966D01*
X54824Y482148D01*
X54820Y482156D01*
X54817Y482164D01*
X54722Y482330D01*
X54626Y482499D01*
X54620Y482506D01*
X54616Y482513D01*
X54401Y482766D01*
X53069Y484098D01*
X51765Y487246D01*
X51765Y490654D01*
X53069Y493802D01*
X55478Y496211D01*
X58626Y497515D01*
X62034Y497515D01*
X65182Y496211D01*
X67591Y493802D01*
X68895Y490654D01*
X68895Y489924D01*
X68896Y489915D01*
X68895Y489906D01*
X68916Y489711D01*
X68935Y489523D01*
X68937Y489514D01*
X68938Y489505D01*
X68996Y489323D01*
X69053Y489138D01*
X69057Y489130D01*
X69060Y489122D01*
X69153Y488953D01*
X69245Y488784D01*
X69250Y488777D01*
X69255Y488769D01*
X69379Y488622D01*
X69502Y488475D01*
X69509Y488469D01*
X69515Y488462D01*
X69666Y488343D01*
X69816Y488222D01*
X69824Y488218D01*
X69831Y488213D01*
X70004Y488125D01*
X70173Y488037D01*
X70182Y488034D01*
X70190Y488030D01*
X70376Y487978D01*
X70560Y487925D01*
X70569Y487925D01*
X70578Y487922D01*
X70771Y487908D01*
X70962Y487893D01*
X70970Y487894D01*
X70979Y487893D01*
X71172Y487917D01*
X71361Y487939D01*
X71370Y487942D01*
X71379Y487943D01*
X71562Y488005D01*
X71744Y488064D01*
X71752Y488069D01*
X71760Y488072D01*
X71926Y488167D01*
X72095Y488262D01*
X72102Y488268D01*
X72109Y488273D01*
X72362Y488487D01*
X75035Y491160D01*
X75044Y491170D01*
X75054Y491179D01*
X75171Y491326D01*
X75290Y491472D01*
X75297Y491484D01*
X75305Y491494D01*
X75390Y491661D01*
X75479Y491827D01*
X75483Y491840D01*
X75489Y491852D01*
X75540Y492033D01*
X75594Y492213D01*
X75595Y492227D01*
X75598Y492240D01*
X75613Y492426D01*
X75630Y492614D01*
X75629Y492628D01*
X75630Y492641D01*
X75607Y492827D01*
X75587Y493014D01*
X75582Y493027D01*
X75581Y493041D01*
X75521Y493220D01*
X75465Y493398D01*
X75459Y493410D01*
X75454Y493423D01*
X75361Y493586D01*
X75270Y493751D01*
X75261Y493761D01*
X75255Y493773D01*
X75132Y493914D01*
X75010Y494058D01*
X74999Y494066D01*
X74990Y494076D01*
X74841Y494191D01*
X74694Y494307D01*
X74682Y494313D01*
X74671Y494322D01*
X74620Y494348D01*
X72169Y496798D01*
X70865Y499946D01*
X70865Y503354D01*
X72169Y506502D01*
X74578Y508911D01*
X77726Y510215D01*
X81134Y510215D01*
X84282Y508911D01*
X86691Y506502D01*
X87995Y503354D01*
X87995Y499946D01*
X86691Y496799D01*
X85287Y495394D01*
X85281Y495387D01*
X85274Y495382D01*
X85154Y495232D01*
X85032Y495083D01*
X85027Y495075D01*
X85022Y495068D01*
X84933Y494898D01*
X84843Y494727D01*
X84840Y494718D01*
X84836Y494711D01*
X84783Y494526D01*
X84728Y494341D01*
X84727Y494332D01*
X84725Y494324D01*
X84709Y494133D01*
X84692Y493940D01*
X84693Y493931D01*
X84692Y493922D01*
X84714Y493733D01*
X84735Y493540D01*
X84738Y493531D01*
X84739Y493523D01*
X84798Y493341D01*
X84857Y493156D01*
X84861Y493148D01*
X84864Y493140D01*
X84958Y492972D01*
X85051Y492804D01*
X85057Y492797D01*
X85062Y492789D01*
X85187Y492644D01*
X85312Y492497D01*
X85319Y492491D01*
X85325Y492484D01*
X85475Y492368D01*
X85628Y492247D01*
X85636Y492243D01*
X85643Y492238D01*
X85814Y492152D01*
X85987Y492065D01*
X85995Y492062D01*
X86003Y492058D01*
X86189Y492008D01*
X86375Y491957D01*
X86384Y491956D01*
X86392Y491954D01*
X86723Y491927D01*
X91505Y491927D01*
X119199Y464232D01*
X119297Y464152D01*
X119388Y464065D01*
X119452Y464025D01*
X119511Y463977D01*
X119622Y463918D01*
X119729Y463851D01*
X119800Y463824D01*
X119866Y463789D01*
X119987Y463753D01*
X120105Y463708D01*
X120180Y463695D01*
X120252Y463674D01*
X120378Y463663D01*
X120503Y463642D01*
X120578Y463644D01*
X120653Y463638D01*
X120779Y463651D01*
X120905Y463655D01*
X120978Y463673D01*
X121053Y463681D01*
X121174Y463719D01*
X121297Y463748D01*
X121365Y463780D01*
X121437Y463802D01*
X121548Y463864D01*
X121663Y463916D01*
X121724Y463961D01*
X121790Y463997D01*
X121886Y464079D01*
X121988Y464153D01*
X122039Y464209D01*
X122097Y464258D01*
X122175Y464357D01*
X122260Y464450D01*
X122299Y464514D01*
X122346Y464574D01*
X122404Y464687D01*
X122469Y464794D01*
X122494Y464865D01*
X122529Y464933D01*
X122563Y465055D01*
X122605Y465173D01*
X122616Y465248D01*
X122637Y465321D01*
X122646Y465447D01*
X122664Y465571D01*
X122660Y465647D01*
X122666Y465722D01*
X122650Y465848D01*
X122644Y465974D01*
X122623Y466059D01*
X122616Y466122D01*
X122592Y466191D01*
X122567Y466296D01*
X122221Y467361D01*
X137161Y467361D01*
X137161Y459739D01*
X131280Y459739D01*
X129701Y459989D01*
X128476Y460387D01*
X128353Y460414D01*
X128232Y460450D01*
X128157Y460457D01*
X128083Y460473D01*
X127957Y460475D01*
X127831Y460487D01*
X127756Y460478D01*
X127681Y460480D01*
X127556Y460457D01*
X127431Y460443D01*
X127359Y460420D01*
X127285Y460407D01*
X127167Y460360D01*
X127047Y460322D01*
X126981Y460285D01*
X126911Y460257D01*
X126805Y460188D01*
X126695Y460127D01*
X126637Y460078D01*
X126574Y460037D01*
X126484Y459948D01*
X126388Y459866D01*
X126341Y459807D01*
X126287Y459754D01*
X126216Y459650D01*
X126138Y459550D01*
X126104Y459483D01*
X126062Y459421D01*
X126013Y459304D01*
X125956Y459192D01*
X125935Y459119D01*
X125906Y459049D01*
X125882Y458926D01*
X125848Y458804D01*
X125842Y458728D01*
X125827Y458654D01*
X125827Y458528D01*
X125818Y458402D01*
X125828Y458327D01*
X125828Y458252D01*
X125853Y458128D01*
X125869Y458003D01*
X125893Y457931D01*
X125908Y457857D01*
X125957Y457741D01*
X125997Y457621D01*
X126034Y457556D01*
X126064Y457486D01*
X126135Y457382D01*
X126198Y457272D01*
X126255Y457205D01*
X126290Y457153D01*
X126342Y457102D01*
X126412Y457019D01*
X135288Y448144D01*
X135309Y448127D01*
X135326Y448106D01*
X135464Y447999D01*
X135599Y447889D01*
X135623Y447876D01*
X135644Y447860D01*
X135801Y447782D01*
X135955Y447700D01*
X135981Y447692D01*
X136005Y447680D01*
X136174Y447635D01*
X136341Y447585D01*
X136368Y447583D01*
X136393Y447576D01*
X136724Y447549D01*
X302696Y447549D01*
X302722Y447551D01*
X302749Y447549D01*
X302923Y447571D01*
X303096Y447589D01*
X303122Y447596D01*
X303149Y447600D01*
X303314Y447655D01*
X303481Y447707D01*
X303505Y447720D01*
X303530Y447728D01*
X303682Y447815D01*
X303835Y447899D01*
X303856Y447916D01*
X303879Y447929D01*
X304132Y448144D01*
X341637Y485649D01*
X559797Y485649D01*
X587249Y458197D01*
X587249Y452572D01*
X587250Y452563D01*
X587249Y452554D01*
X587270Y452362D01*
X587289Y452171D01*
X587291Y452163D01*
X587292Y452154D01*
X587350Y451972D01*
X587407Y451787D01*
X587411Y451779D01*
X587414Y451770D01*
X587507Y451602D01*
X587599Y451433D01*
X587604Y451426D01*
X587609Y451418D01*
X587734Y451270D01*
X587856Y451123D01*
X587863Y451118D01*
X587869Y451111D01*
X588020Y450992D01*
X588170Y450871D01*
X588178Y450867D01*
X588185Y450861D01*
X588356Y450774D01*
X588527Y450685D01*
X588536Y450683D01*
X588544Y450679D01*
X588730Y450627D01*
X588914Y450574D01*
X588923Y450573D01*
X588932Y450571D01*
X589124Y450557D01*
X589316Y450541D01*
X589324Y450542D01*
X589333Y450542D01*
X589526Y450566D01*
X589715Y450588D01*
X589724Y450591D01*
X589733Y450592D01*
X589916Y450653D01*
X590098Y450713D01*
X590106Y450717D01*
X590114Y450720D01*
X590280Y450816D01*
X590449Y450911D01*
X590456Y450917D01*
X590463Y450921D01*
X590716Y451136D01*
X591765Y452185D01*
X594050Y453131D01*
X595097Y453565D01*
X598703Y453565D01*
X600789Y452701D01*
X600806Y452696D01*
X600822Y452687D01*
X600998Y452638D01*
X601174Y452584D01*
X601192Y452583D01*
X601209Y452578D01*
X601392Y452564D01*
X601575Y452546D01*
X601593Y452548D01*
X601611Y452547D01*
X601793Y452569D01*
X601976Y452588D01*
X601993Y452593D01*
X602010Y452595D01*
X602184Y452653D01*
X602360Y452708D01*
X602376Y452716D01*
X602392Y452722D01*
X602552Y452813D01*
X602713Y452901D01*
X602727Y452912D01*
X602742Y452921D01*
X602881Y453042D01*
X603021Y453160D01*
X603032Y453174D01*
X603046Y453186D01*
X603158Y453331D01*
X603272Y453475D01*
X603280Y453491D01*
X603291Y453505D01*
X603443Y453800D01*
X603789Y454636D01*
X610164Y461011D01*
X610756Y461256D01*
X618492Y464461D01*
X627508Y464461D01*
X634731Y461469D01*
X634744Y461465D01*
X634755Y461459D01*
X634936Y461407D01*
X635116Y461352D01*
X635129Y461351D01*
X635142Y461347D01*
X635330Y461332D01*
X635517Y461314D01*
X635530Y461316D01*
X635544Y461314D01*
X635731Y461336D01*
X635917Y461356D01*
X635930Y461360D01*
X635943Y461361D01*
X636123Y461420D01*
X636302Y461476D01*
X636313Y461482D01*
X636326Y461486D01*
X636491Y461579D01*
X636655Y461669D01*
X636665Y461678D01*
X636677Y461684D01*
X636819Y461807D01*
X636963Y461928D01*
X636971Y461939D01*
X636982Y461947D01*
X637097Y462096D01*
X637214Y462243D01*
X637220Y462255D01*
X637228Y462265D01*
X637312Y462434D01*
X637398Y462601D01*
X637402Y462614D01*
X637408Y462626D01*
X637457Y462809D01*
X637508Y462988D01*
X637509Y463002D01*
X637512Y463015D01*
X637539Y463345D01*
X637539Y622808D01*
X637537Y622826D01*
X637539Y622844D01*
X637518Y623026D01*
X637499Y623209D01*
X637494Y623226D01*
X637492Y623243D01*
X637435Y623418D01*
X637381Y623594D01*
X637373Y623609D01*
X637367Y623626D01*
X637277Y623786D01*
X637189Y623948D01*
X637178Y623961D01*
X637169Y623977D01*
X637049Y624116D01*
X636932Y624257D01*
X636918Y624268D01*
X636906Y624282D01*
X636761Y624394D01*
X636618Y624509D01*
X636602Y624517D01*
X636588Y624528D01*
X636423Y624610D01*
X636261Y624695D01*
X636244Y624700D01*
X636228Y624708D01*
X636049Y624755D01*
X635874Y624806D01*
X635856Y624808D01*
X635839Y624812D01*
X635508Y624839D01*
X71946Y624839D01*
X71800Y624825D01*
X71654Y624818D01*
X71601Y624805D01*
X71545Y624799D01*
X71406Y624756D01*
X71264Y624721D01*
X71214Y624698D01*
X71160Y624681D01*
X71032Y624612D01*
X70900Y624549D01*
X70855Y624516D01*
X70806Y624489D01*
X70694Y624396D01*
X70577Y624309D01*
X70540Y624267D01*
X70497Y624232D01*
X70406Y624118D01*
X70308Y624009D01*
X70280Y623961D01*
X70245Y623918D01*
X70178Y623788D01*
X70103Y623662D01*
X70085Y623610D01*
X70059Y623561D01*
X70019Y623420D01*
X69971Y623282D01*
X69963Y623227D01*
X69948Y623174D01*
X69936Y623028D01*
X69916Y622883D01*
X69920Y622828D01*
X69915Y622772D01*
X69932Y622627D01*
X69941Y622481D01*
X69955Y622428D01*
X69962Y622373D01*
X70007Y622234D01*
X70045Y622092D01*
X70072Y622035D01*
X70087Y621990D01*
X70128Y621917D01*
X70187Y621792D01*
X73314Y616376D01*
X74961Y610231D01*
X74961Y603869D01*
X73314Y597724D01*
X70133Y592215D01*
X65635Y587717D01*
X60126Y584536D01*
X53981Y582889D01*
X47619Y582889D01*
X41474Y584536D01*
X35965Y587717D01*
X31467Y592215D01*
X28286Y597724D01*
X26639Y603869D01*
X26639Y610231D01*
X28286Y616376D01*
X31413Y621792D01*
X31473Y621926D01*
X31541Y622055D01*
X31556Y622109D01*
X31579Y622159D01*
X31612Y622302D01*
X31652Y622442D01*
X31657Y622498D01*
X31669Y622552D01*
X31673Y622698D01*
X31685Y622844D01*
X31678Y622899D01*
X31680Y622954D01*
X31655Y623099D01*
X31638Y623243D01*
X31621Y623296D01*
X31611Y623351D01*
X31559Y623487D01*
X31513Y623626D01*
X31486Y623675D01*
X31466Y623726D01*
X31387Y623849D01*
X31315Y623977D01*
X31279Y624019D01*
X31249Y624066D01*
X31148Y624171D01*
X31052Y624282D01*
X31008Y624316D01*
X30970Y624356D01*
X30849Y624439D01*
X30734Y624528D01*
X30684Y624553D01*
X30639Y624585D01*
X30504Y624643D01*
X30374Y624708D01*
X30320Y624722D01*
X30269Y624744D01*
X30126Y624774D01*
X29985Y624812D01*
X29922Y624817D01*
X29875Y624827D01*
X29791Y624828D01*
X29654Y624839D01*
X12192Y624839D01*
X12174Y624837D01*
X12156Y624839D01*
X11974Y624818D01*
X11791Y624799D01*
X11774Y624794D01*
X11757Y624792D01*
X11582Y624735D01*
X11406Y624681D01*
X11391Y624673D01*
X11374Y624667D01*
X11214Y624577D01*
X11052Y624489D01*
X11039Y624478D01*
X11023Y624469D01*
X10884Y624349D01*
X10743Y624232D01*
X10732Y624218D01*
X10718Y624206D01*
X10606Y624061D01*
X10491Y623918D01*
X10483Y623902D01*
X10472Y623888D01*
X10390Y623723D01*
X10305Y623561D01*
X10300Y623544D01*
X10292Y623528D01*
X10245Y623349D01*
X10194Y623174D01*
X10192Y623156D01*
X10188Y623139D01*
X10161Y622808D01*
X10161Y518046D01*
X10161Y518042D01*
X10161Y518037D01*
X10181Y517842D01*
X10201Y517645D01*
X10202Y517641D01*
X10202Y517637D01*
X10262Y517444D01*
X10319Y517261D01*
X10321Y517257D01*
X10322Y517252D01*
X10418Y517078D01*
X10511Y516907D01*
X10513Y516903D01*
X10516Y516899D01*
X10645Y516745D01*
X10768Y516597D01*
X10772Y516594D01*
X10775Y516591D01*
X10930Y516467D01*
X11082Y516345D01*
X11086Y516343D01*
X11090Y516340D01*
X11268Y516248D01*
X11439Y516159D01*
X11444Y516158D01*
X11448Y516156D01*
X11641Y516101D01*
X11826Y516048D01*
X11831Y516048D01*
X11835Y516046D01*
X12031Y516031D01*
X12228Y516015D01*
X12232Y516016D01*
X12236Y516015D01*
X12430Y516039D01*
X12627Y516062D01*
X12632Y516063D01*
X12636Y516064D01*
X12821Y516125D01*
X13010Y516187D01*
X13014Y516189D01*
X13018Y516191D01*
X13187Y516287D01*
X13361Y516385D01*
X13364Y516388D01*
X13368Y516390D01*
X13517Y516519D01*
X13665Y516648D01*
X13668Y516651D01*
X13672Y516654D01*
X13794Y516814D01*
X13912Y516966D01*
X13914Y516970D01*
X13917Y516974D01*
X14069Y517269D01*
X14869Y519202D01*
X17278Y521611D01*
X18686Y522194D01*
X20426Y522915D01*
X23834Y522915D01*
X26982Y521611D01*
X29391Y519202D01*
X30695Y516054D01*
X30695Y512646D01*
X29391Y509498D01*
X26982Y507089D01*
X23834Y505785D01*
X20426Y505785D01*
X17278Y507089D01*
X14869Y509498D01*
X14069Y511431D01*
X14067Y511435D01*
X14065Y511439D01*
X13972Y511612D01*
X13878Y511786D01*
X13876Y511790D01*
X13873Y511793D01*
X13748Y511944D01*
X13622Y512096D01*
X13619Y512099D01*
X13616Y512103D01*
X13465Y512224D01*
X13309Y512350D01*
X13305Y512352D01*
X13302Y512355D01*
X13130Y512444D01*
X12953Y512537D01*
X12949Y512539D01*
X12945Y512541D01*
X12757Y512595D01*
X12566Y512650D01*
X12562Y512651D01*
X12558Y512652D01*
X12360Y512668D01*
X12165Y512685D01*
X12161Y512684D01*
X12156Y512685D01*
X11961Y512662D01*
X11765Y512640D01*
X11761Y512638D01*
X11757Y512638D01*
X11569Y512577D01*
X11382Y512517D01*
X11378Y512515D01*
X11374Y512513D01*
X11199Y512415D01*
X11030Y512320D01*
X11027Y512317D01*
X11023Y512315D01*
X10875Y512187D01*
X10725Y512058D01*
X10722Y512055D01*
X10718Y512052D01*
X10598Y511897D01*
X10476Y511741D01*
X10474Y511737D01*
X10472Y511734D01*
X10384Y511558D01*
X10296Y511382D01*
X10294Y511377D01*
X10292Y511373D01*
X10241Y511182D01*
X10189Y510993D01*
X10189Y510989D01*
X10188Y510985D01*
X10161Y510654D01*
X10161Y492646D01*
X10161Y492642D01*
X10161Y492637D01*
X10181Y492443D01*
X10201Y492245D01*
X10202Y492241D01*
X10202Y492237D01*
X10261Y492049D01*
X10319Y491861D01*
X10321Y491857D01*
X10322Y491852D01*
X10418Y491678D01*
X10511Y491507D01*
X10513Y491503D01*
X10516Y491499D01*
X10644Y491346D01*
X10768Y491197D01*
X10772Y491194D01*
X10775Y491191D01*
X10930Y491067D01*
X11082Y490945D01*
X11086Y490943D01*
X11090Y490940D01*
X11268Y490848D01*
X11439Y490759D01*
X11444Y490758D01*
X11448Y490756D01*
X11641Y490701D01*
X11826Y490648D01*
X11831Y490648D01*
X11835Y490646D01*
X12031Y490631D01*
X12228Y490615D01*
X12232Y490616D01*
X12236Y490615D01*
X12430Y490639D01*
X12627Y490662D01*
X12632Y490663D01*
X12636Y490664D01*
X12821Y490725D01*
X13010Y490787D01*
X13014Y490789D01*
X13018Y490791D01*
X13187Y490887D01*
X13361Y490985D01*
X13364Y490988D01*
X13368Y490990D01*
X13517Y491119D01*
X13665Y491248D01*
X13668Y491251D01*
X13672Y491254D01*
X13794Y491414D01*
X13912Y491566D01*
X13914Y491570D01*
X13917Y491574D01*
X14069Y491869D01*
X14869Y493802D01*
X17278Y496211D01*
X20426Y497515D01*
X23834Y497515D01*
X26982Y496211D01*
X29391Y493802D01*
X30695Y490654D01*
X30695Y487246D01*
X29391Y484098D01*
X26982Y481689D01*
X23834Y480385D01*
X20426Y480385D01*
X17278Y481689D01*
X14869Y484098D01*
X14069Y486031D01*
X14067Y486035D01*
X14065Y486039D01*
X13972Y486212D01*
X13878Y486386D01*
X13876Y486390D01*
X13873Y486393D01*
X13748Y486544D01*
X13622Y486696D01*
X13619Y486699D01*
X13616Y486703D01*
X13465Y486824D01*
X13309Y486950D01*
X13305Y486952D01*
X13302Y486955D01*
X13130Y487044D01*
X12953Y487137D01*
X12949Y487139D01*
X12945Y487141D01*
X12757Y487195D01*
X12566Y487250D01*
X12562Y487251D01*
X12558Y487252D01*
X12360Y487268D01*
X12165Y487285D01*
X12161Y487284D01*
X12156Y487285D01*
X11961Y487262D01*
X11765Y487240D01*
X11761Y487238D01*
X11757Y487238D01*
X11569Y487177D01*
X11382Y487117D01*
X11378Y487115D01*
X11374Y487113D01*
X11201Y487016D01*
X11030Y486920D01*
X11027Y486917D01*
X11023Y486915D01*
X10873Y486786D01*
X10725Y486658D01*
X10722Y486655D01*
X10718Y486652D01*
X10598Y486497D01*
X10476Y486341D01*
X10474Y486337D01*
X10472Y486334D01*
X10383Y486155D01*
X10296Y485982D01*
X10294Y485977D01*
X10292Y485973D01*
X10241Y485782D01*
X10189Y485593D01*
X10189Y485589D01*
X10188Y485585D01*
X10161Y485254D01*
X10161Y467246D01*
X10161Y467242D01*
X10161Y467237D01*
X10181Y467043D01*
X10201Y466845D01*
X10202Y466841D01*
X10202Y466837D01*
X10261Y466649D01*
X10319Y466461D01*
X10321Y466457D01*
X10322Y466452D01*
X10418Y466278D01*
X10511Y466107D01*
X10513Y466103D01*
X10516Y466099D01*
X10644Y465946D01*
X10768Y465797D01*
X10772Y465794D01*
X10775Y465791D01*
X10930Y465667D01*
X11082Y465545D01*
X11086Y465543D01*
X11090Y465540D01*
X11268Y465448D01*
X11439Y465359D01*
X11444Y465358D01*
X11448Y465356D01*
X11641Y465301D01*
X11826Y465248D01*
X11831Y465248D01*
X11835Y465246D01*
X12031Y465231D01*
X12228Y465215D01*
X12232Y465216D01*
X12236Y465215D01*
X12430Y465239D01*
X12627Y465262D01*
X12632Y465263D01*
X12636Y465264D01*
X12821Y465325D01*
X13010Y465387D01*
X13014Y465389D01*
X13018Y465391D01*
X13187Y465487D01*
X13361Y465585D01*
X13364Y465588D01*
X13368Y465590D01*
X13516Y465718D01*
X13665Y465848D01*
X13668Y465851D01*
X13672Y465854D01*
X13794Y466014D01*
X13912Y466166D01*
X13914Y466170D01*
X13917Y466174D01*
X14069Y466469D01*
X14869Y468402D01*
X17278Y470811D01*
X20426Y472115D01*
X23834Y472115D01*
X26982Y470811D01*
X29391Y468402D01*
X30695Y465254D01*
X30695Y461846D01*
X29391Y458698D01*
X26982Y456289D01*
X23834Y454985D01*
X20426Y454985D01*
X17278Y456289D01*
X14869Y458698D01*
X14069Y460631D01*
X14067Y460635D01*
X14065Y460639D01*
X13972Y460812D01*
X13878Y460986D01*
X13876Y460990D01*
X13873Y460993D01*
X13748Y461144D01*
X13622Y461296D01*
X13619Y461299D01*
X13616Y461303D01*
X13465Y461424D01*
X13309Y461550D01*
X13305Y461552D01*
X13302Y461555D01*
X13130Y461644D01*
X12953Y461737D01*
X12949Y461739D01*
X12945Y461741D01*
X12757Y461795D01*
X12566Y461850D01*
X12562Y461851D01*
X12558Y461852D01*
X12360Y461868D01*
X12165Y461885D01*
X12161Y461884D01*
X12156Y461885D01*
X11961Y461862D01*
X11765Y461840D01*
X11761Y461838D01*
X11757Y461838D01*
X11569Y461777D01*
X11382Y461717D01*
X11378Y461715D01*
X11374Y461713D01*
X11201Y461616D01*
X11030Y461520D01*
X11027Y461517D01*
X11023Y461515D01*
X10875Y461387D01*
X10725Y461258D01*
X10722Y461255D01*
X10718Y461252D01*
X10598Y461097D01*
X10476Y460941D01*
X10474Y460937D01*
X10472Y460934D01*
X10383Y460755D01*
X10296Y460582D01*
X10294Y460577D01*
X10292Y460573D01*
X10241Y460382D01*
X10189Y460193D01*
X10189Y460189D01*
X10188Y460185D01*
X10161Y459854D01*
X10161Y441846D01*
X10161Y441842D01*
X10161Y441837D01*
X10181Y441643D01*
X10201Y441445D01*
X10202Y441441D01*
X10202Y441437D01*
X10261Y441249D01*
X10319Y441061D01*
X10321Y441057D01*
X10322Y441052D01*
X10418Y440878D01*
X10511Y440707D01*
X10513Y440703D01*
X10516Y440699D01*
X10644Y440546D01*
X10768Y440397D01*
X10772Y440394D01*
X10775Y440391D01*
X10930Y440267D01*
X11082Y440145D01*
X11086Y440143D01*
X11090Y440140D01*
X11268Y440048D01*
X11439Y439959D01*
X11444Y439958D01*
X11448Y439956D01*
X11641Y439901D01*
X11826Y439848D01*
X11831Y439848D01*
X11835Y439846D01*
X12031Y439831D01*
X12228Y439815D01*
X12232Y439816D01*
X12236Y439815D01*
X12430Y439839D01*
X12627Y439862D01*
X12632Y439863D01*
X12636Y439864D01*
X12821Y439925D01*
X13010Y439987D01*
X13014Y439989D01*
X13018Y439991D01*
X13187Y440087D01*
X13361Y440185D01*
X13364Y440188D01*
X13368Y440190D01*
X13517Y440319D01*
X13665Y440448D01*
X13668Y440451D01*
X13672Y440454D01*
X13794Y440614D01*
X13912Y440766D01*
X13914Y440770D01*
X13917Y440774D01*
X14069Y441069D01*
X14869Y443002D01*
X17278Y445411D01*
X20426Y446715D01*
X23834Y446715D01*
X26982Y445411D01*
X29391Y443002D01*
X30695Y439854D01*
X30695Y436446D01*
X29391Y433298D01*
X26982Y430889D01*
X25973Y430471D01*
X23834Y429585D01*
X20426Y429585D01*
X17278Y430889D01*
X14869Y433298D01*
X14069Y435231D01*
X14067Y435235D01*
X14065Y435239D01*
X13972Y435412D01*
X13878Y435586D01*
X13876Y435590D01*
X13873Y435593D01*
X13748Y435744D01*
X13622Y435896D01*
X13619Y435899D01*
X13616Y435903D01*
X13465Y436024D01*
X13309Y436150D01*
X13305Y436152D01*
X13302Y436155D01*
X13130Y436244D01*
X12953Y436337D01*
X12949Y436339D01*
X12945Y436341D01*
X12757Y436395D01*
X12566Y436450D01*
X12562Y436451D01*
X12558Y436452D01*
X12360Y436468D01*
X12165Y436485D01*
X12161Y436484D01*
X12156Y436485D01*
X11961Y436462D01*
X11765Y436440D01*
X11761Y436438D01*
X11757Y436438D01*
X11569Y436377D01*
X11382Y436317D01*
X11378Y436315D01*
X11374Y436313D01*
X11200Y436215D01*
X11030Y436120D01*
X11027Y436117D01*
X11023Y436115D01*
X10875Y435987D01*
X10725Y435858D01*
X10722Y435855D01*
X10718Y435852D01*
X10598Y435697D01*
X10476Y435541D01*
X10474Y435537D01*
X10472Y435534D01*
X10384Y435358D01*
X10296Y435182D01*
X10294Y435177D01*
X10292Y435173D01*
X10241Y434982D01*
X10189Y434793D01*
X10189Y434789D01*
X10188Y434785D01*
X10161Y434454D01*
X10161Y416446D01*
X10161Y416442D01*
X10161Y416437D01*
X10181Y416243D01*
X10201Y416045D01*
X10202Y416041D01*
X10202Y416037D01*
X10261Y415849D01*
X10319Y415661D01*
X10321Y415657D01*
X10322Y415652D01*
X10418Y415478D01*
X10511Y415307D01*
X10513Y415303D01*
X10516Y415299D01*
X10644Y415146D01*
X10768Y414997D01*
X10772Y414994D01*
X10775Y414991D01*
X10930Y414867D01*
X11082Y414745D01*
X11086Y414743D01*
X11090Y414740D01*
X11268Y414648D01*
X11439Y414559D01*
X11444Y414558D01*
X11448Y414556D01*
X11641Y414501D01*
X11826Y414448D01*
X11831Y414448D01*
X11835Y414446D01*
X12031Y414431D01*
X12228Y414415D01*
X12232Y414416D01*
X12236Y414415D01*
X12430Y414439D01*
X12627Y414462D01*
X12632Y414463D01*
X12636Y414464D01*
X12821Y414525D01*
X13010Y414587D01*
X13014Y414589D01*
X13018Y414591D01*
X13187Y414687D01*
X13361Y414785D01*
X13364Y414788D01*
X13368Y414790D01*
X13515Y414918D01*
X13665Y415048D01*
X13668Y415051D01*
X13672Y415054D01*
X13794Y415214D01*
X13912Y415366D01*
X13914Y415370D01*
X13917Y415374D01*
X14069Y415669D01*
X14869Y417602D01*
X17278Y420011D01*
X20426Y421315D01*
X23834Y421315D01*
X26982Y420011D01*
X29391Y417602D01*
X30695Y414454D01*
X30695Y411046D01*
X29391Y407898D01*
X26982Y405489D01*
X23834Y404185D01*
X20426Y404185D01*
X17278Y405489D01*
X14869Y407898D01*
X14069Y409831D01*
X14067Y409835D01*
X14065Y409839D01*
X13972Y410012D01*
X13878Y410186D01*
X13876Y410190D01*
X13873Y410193D01*
X13748Y410344D01*
X13622Y410496D01*
X13619Y410499D01*
X13616Y410503D01*
X13465Y410624D01*
X13309Y410750D01*
X13305Y410752D01*
X13302Y410755D01*
X13130Y410844D01*
X12953Y410937D01*
X12949Y410939D01*
X12945Y410941D01*
X12757Y410995D01*
X12566Y411050D01*
X12562Y411051D01*
X12558Y411052D01*
X12360Y411068D01*
X12165Y411085D01*
X12161Y411084D01*
X12156Y411085D01*
X11961Y411062D01*
X11765Y411040D01*
X11761Y411038D01*
X11757Y411038D01*
X11569Y410977D01*
X11382Y410917D01*
X11378Y410915D01*
X11374Y410913D01*
X11199Y410815D01*
X11030Y410720D01*
X11027Y410717D01*
X11023Y410715D01*
X10875Y410587D01*
X10725Y410458D01*
X10722Y410455D01*
X10718Y410452D01*
X10598Y410297D01*
X10476Y410141D01*
X10474Y410137D01*
X10472Y410134D01*
X10383Y409955D01*
X10296Y409782D01*
X10294Y409777D01*
X10292Y409773D01*
X10241Y409582D01*
X10189Y409393D01*
X10189Y409389D01*
X10188Y409385D01*
X10161Y409054D01*
X10161Y391046D01*
X10161Y391042D01*
X10161Y391037D01*
X10181Y390843D01*
X10201Y390645D01*
X10202Y390641D01*
X10202Y390637D01*
X10261Y390449D01*
X10319Y390261D01*
X10321Y390257D01*
X10322Y390252D01*
X10418Y390078D01*
X10511Y389907D01*
X10513Y389903D01*
X10516Y389899D01*
X10644Y389746D01*
X10768Y389597D01*
X10772Y389594D01*
X10775Y389591D01*
X10930Y389467D01*
X11082Y389345D01*
X11086Y389343D01*
X11090Y389340D01*
X11268Y389248D01*
X11439Y389159D01*
X11444Y389158D01*
X11448Y389156D01*
X11641Y389101D01*
X11826Y389048D01*
X11831Y389048D01*
X11835Y389046D01*
X12031Y389031D01*
X12228Y389015D01*
X12232Y389016D01*
X12236Y389015D01*
X12430Y389039D01*
X12627Y389062D01*
X12632Y389063D01*
X12636Y389064D01*
X12821Y389125D01*
X13010Y389187D01*
X13014Y389189D01*
X13018Y389191D01*
X13187Y389287D01*
X13361Y389385D01*
X13364Y389388D01*
X13368Y389390D01*
X13517Y389519D01*
X13665Y389648D01*
X13668Y389651D01*
X13672Y389654D01*
X13794Y389814D01*
X13912Y389966D01*
X13914Y389970D01*
X13917Y389974D01*
X14069Y390269D01*
X14869Y392202D01*
X17278Y394611D01*
X20426Y395915D01*
X23834Y395915D01*
X26982Y394611D01*
X29391Y392202D01*
X30695Y389054D01*
X30695Y385646D01*
X29391Y382498D01*
X26982Y380089D01*
X23834Y378785D01*
X20426Y378785D01*
X17278Y380089D01*
X14869Y382498D01*
X14069Y384431D01*
X14067Y384435D01*
X14065Y384439D01*
X13972Y384612D01*
X13878Y384786D01*
X13876Y384790D01*
X13873Y384793D01*
X13748Y384944D01*
X13622Y385096D01*
X13619Y385099D01*
X13616Y385103D01*
X13465Y385224D01*
X13309Y385350D01*
X13305Y385352D01*
X13302Y385355D01*
X13130Y385444D01*
X12953Y385537D01*
X12949Y385539D01*
X12945Y385541D01*
X12757Y385595D01*
X12566Y385650D01*
X12562Y385651D01*
X12558Y385652D01*
X12360Y385668D01*
X12165Y385685D01*
X12161Y385684D01*
X12156Y385685D01*
X11961Y385662D01*
X11765Y385640D01*
X11761Y385638D01*
X11757Y385638D01*
X11569Y385577D01*
X11382Y385517D01*
X11378Y385515D01*
X11374Y385513D01*
X11201Y385416D01*
X11030Y385320D01*
X11027Y385317D01*
X11023Y385315D01*
X10875Y385187D01*
X10725Y385058D01*
X10722Y385055D01*
X10718Y385052D01*
X10598Y384897D01*
X10476Y384741D01*
X10474Y384737D01*
X10472Y384734D01*
X10384Y384558D01*
X10296Y384382D01*
X10294Y384377D01*
X10292Y384373D01*
X10241Y384182D01*
X10189Y383993D01*
X10189Y383989D01*
X10188Y383985D01*
X10161Y383654D01*
X10161Y365646D01*
X10161Y365642D01*
X10161Y365637D01*
X10181Y365443D01*
X10201Y365245D01*
X10202Y365241D01*
X10202Y365237D01*
X10261Y365049D01*
X10319Y364861D01*
X10321Y364857D01*
X10322Y364852D01*
X10418Y364678D01*
X10511Y364507D01*
X10513Y364503D01*
X10516Y364499D01*
X10644Y364346D01*
X10768Y364197D01*
X10772Y364194D01*
X10775Y364191D01*
X10930Y364067D01*
X11082Y363945D01*
X11086Y363943D01*
X11090Y363940D01*
X11268Y363848D01*
X11439Y363759D01*
X11444Y363758D01*
X11448Y363756D01*
X11641Y363701D01*
X11826Y363648D01*
X11831Y363648D01*
X11835Y363646D01*
X12031Y363631D01*
X12228Y363615D01*
X12232Y363616D01*
X12236Y363615D01*
X12430Y363639D01*
X12627Y363662D01*
X12632Y363663D01*
X12636Y363664D01*
X12821Y363725D01*
X13010Y363787D01*
X13014Y363789D01*
X13018Y363791D01*
X13187Y363887D01*
X13361Y363985D01*
X13364Y363988D01*
X13368Y363990D01*
X13517Y364119D01*
X13665Y364248D01*
X13668Y364251D01*
X13672Y364254D01*
X13794Y364414D01*
X13912Y364566D01*
X13914Y364570D01*
X13917Y364574D01*
X14069Y364869D01*
X14869Y366802D01*
X17278Y369211D01*
X20426Y370515D01*
X23834Y370515D01*
X26982Y369211D01*
X29391Y366802D01*
X30695Y363654D01*
X30695Y360246D01*
X29391Y357098D01*
X26982Y354689D01*
X23834Y353385D01*
X20426Y353385D01*
X17278Y354689D01*
X14869Y357098D01*
X14069Y359031D01*
X14067Y359035D01*
X14065Y359039D01*
X13972Y359212D01*
X13878Y359386D01*
X13876Y359390D01*
X13873Y359393D01*
X13748Y359544D01*
X13622Y359696D01*
X13619Y359699D01*
X13616Y359703D01*
X13465Y359824D01*
X13309Y359950D01*
X13305Y359952D01*
X13302Y359955D01*
X13130Y360044D01*
X12953Y360137D01*
X12949Y360139D01*
X12945Y360141D01*
X12757Y360195D01*
X12566Y360250D01*
X12562Y360251D01*
X12558Y360252D01*
X12360Y360268D01*
X12165Y360285D01*
X12161Y360284D01*
X12156Y360285D01*
X11961Y360262D01*
X11765Y360240D01*
X11761Y360238D01*
X11757Y360238D01*
X11569Y360177D01*
X11382Y360117D01*
X11378Y360115D01*
X11374Y360113D01*
X11201Y360016D01*
X11030Y359920D01*
X11027Y359917D01*
X11023Y359915D01*
X10875Y359787D01*
X10725Y359658D01*
X10722Y359655D01*
X10718Y359652D01*
X10597Y359496D01*
X10476Y359341D01*
X10474Y359337D01*
X10472Y359334D01*
X10384Y359158D01*
X10296Y358982D01*
X10294Y358977D01*
X10292Y358973D01*
X10241Y358782D01*
X10189Y358593D01*
X10189Y358589D01*
X10188Y358585D01*
X10161Y358254D01*
X10161Y342623D01*
X10173Y342496D01*
X10177Y342367D01*
X10193Y342296D01*
X10201Y342222D01*
X10238Y342100D01*
X10267Y341975D01*
X10297Y341908D01*
X10319Y341838D01*
X10380Y341725D01*
X10433Y341608D01*
X10476Y341548D01*
X10511Y341484D01*
X10593Y341385D01*
X10667Y341281D01*
X10721Y341231D01*
X10768Y341174D01*
X10868Y341094D01*
X10962Y341007D01*
X11025Y340968D01*
X11082Y340922D01*
X11196Y340863D01*
X11305Y340796D01*
X11374Y340770D01*
X11439Y340736D01*
X11563Y340701D01*
X11683Y340657D01*
X11755Y340645D01*
X11826Y340625D01*
X11954Y340615D01*
X12081Y340595D01*
X12154Y340598D01*
X12228Y340592D01*
X12355Y340607D01*
X12483Y340613D01*
X12554Y340630D01*
X12627Y340639D01*
X12749Y340679D01*
X12874Y340710D01*
X12940Y340741D01*
X13010Y340764D01*
X13122Y340827D01*
X13238Y340882D01*
X13297Y340926D01*
X13361Y340962D01*
X13458Y341046D01*
X13561Y341122D01*
X13610Y341177D01*
X13665Y341225D01*
X13744Y341326D01*
X13830Y341422D01*
X13845Y341447D01*
X14822Y342791D01*
X15889Y343858D01*
X17109Y344744D01*
X18452Y345429D01*
X19881Y345893D01*
X19881Y336768D01*
X19882Y336750D01*
X19881Y336733D01*
X19900Y336569D01*
X19881Y336332D01*
X19881Y327207D01*
X18452Y327671D01*
X17109Y328356D01*
X15889Y329242D01*
X14822Y330309D01*
X13878Y331608D01*
X13873Y331616D01*
X13862Y331630D01*
X13842Y331658D01*
X13821Y331681D01*
X13787Y331735D01*
X13698Y331827D01*
X13616Y331926D01*
X13558Y331972D01*
X13507Y332025D01*
X13402Y332098D01*
X13302Y332178D01*
X13237Y332212D01*
X13176Y332254D01*
X13058Y332305D01*
X12945Y332364D01*
X12874Y332384D01*
X12806Y332413D01*
X12681Y332440D01*
X12558Y332475D01*
X12484Y332481D01*
X12412Y332496D01*
X12284Y332497D01*
X12156Y332508D01*
X12083Y332499D01*
X12010Y332500D01*
X11884Y332476D01*
X11757Y332461D01*
X11687Y332438D01*
X11614Y332424D01*
X11496Y332376D01*
X11374Y332336D01*
X11310Y332300D01*
X11242Y332272D01*
X11135Y332201D01*
X11023Y332138D01*
X10967Y332090D01*
X10906Y332049D01*
X10816Y331959D01*
X10718Y331875D01*
X10673Y331817D01*
X10621Y331765D01*
X10550Y331658D01*
X10472Y331557D01*
X10439Y331491D01*
X10398Y331430D01*
X10349Y331311D01*
X10292Y331196D01*
X10273Y331125D01*
X10245Y331057D01*
X10221Y330932D01*
X10188Y330808D01*
X10181Y330722D01*
X10169Y330662D01*
X10170Y330587D01*
X10161Y330477D01*
X10161Y314846D01*
X10161Y314842D01*
X10161Y314837D01*
X10162Y314825D01*
X10161Y314813D01*
X10181Y314642D01*
X10201Y314445D01*
X10202Y314441D01*
X10202Y314437D01*
X10207Y314423D01*
X10208Y314413D01*
X10251Y314280D01*
X10261Y314249D01*
X10319Y314061D01*
X10321Y314057D01*
X10322Y314052D01*
X10330Y314038D01*
X10333Y314030D01*
X10387Y313934D01*
X10418Y313878D01*
X10511Y313707D01*
X10513Y313703D01*
X10516Y313699D01*
X10528Y313685D01*
X10531Y313679D01*
X10585Y313616D01*
X10644Y313546D01*
X10768Y313397D01*
X10772Y313395D01*
X10775Y313391D01*
X10791Y313378D01*
X10794Y313375D01*
X10842Y313338D01*
X10931Y313266D01*
X11082Y313145D01*
X11086Y313143D01*
X11089Y313140D01*
X11110Y313130D01*
X11112Y313128D01*
X11150Y313109D01*
X11270Y313048D01*
X11439Y312959D01*
X11444Y312958D01*
X11448Y312956D01*
X11470Y312950D01*
X11472Y312949D01*
X11504Y312940D01*
X11638Y312902D01*
X11826Y312848D01*
X11831Y312848D01*
X11835Y312846D01*
X11859Y312845D01*
X11861Y312844D01*
X12192Y312817D01*
X12193Y312817D01*
X12199Y312818D01*
X12228Y312815D01*
X12232Y312816D01*
X12236Y312815D01*
X12430Y312839D01*
X12525Y312850D01*
X12594Y312857D01*
X12600Y312859D01*
X12627Y312862D01*
X12632Y312863D01*
X12636Y312864D01*
X12821Y312925D01*
X12898Y312950D01*
X12978Y312975D01*
X12986Y312979D01*
X13010Y312987D01*
X13014Y312989D01*
X13018Y312991D01*
X13187Y313087D01*
X13242Y313118D01*
X13332Y313167D01*
X13340Y313173D01*
X13361Y313185D01*
X13364Y313188D01*
X13368Y313190D01*
X13515Y313318D01*
X13546Y313344D01*
X13642Y313425D01*
X13649Y313434D01*
X13665Y313448D01*
X13668Y313452D01*
X13672Y313454D01*
X13792Y313611D01*
X13800Y313621D01*
X13894Y313738D01*
X13901Y313751D01*
X13912Y313766D01*
X13914Y313770D01*
X13917Y313774D01*
X14069Y314069D01*
X14869Y316002D01*
X17278Y318411D01*
X20426Y319715D01*
X23834Y319715D01*
X26982Y318411D01*
X29391Y316002D01*
X30695Y312854D01*
X30695Y309446D01*
X29391Y306298D01*
X26982Y303889D01*
X23834Y302585D01*
X20426Y302585D01*
X17278Y303889D01*
X14869Y306298D01*
X14069Y308231D01*
X14067Y308235D01*
X14065Y308239D01*
X13972Y308412D01*
X13878Y308586D01*
X13876Y308590D01*
X13873Y308593D01*
X13749Y308742D01*
X13622Y308896D01*
X13619Y308899D01*
X13616Y308903D01*
X13463Y309026D01*
X13309Y309150D01*
X13305Y309152D01*
X13302Y309155D01*
X13129Y309245D01*
X12953Y309337D01*
X12949Y309339D01*
X12945Y309341D01*
X12757Y309395D01*
X12566Y309450D01*
X12562Y309451D01*
X12558Y309452D01*
X12360Y309468D01*
X12165Y309485D01*
X12161Y309484D01*
X12156Y309485D01*
X11962Y309462D01*
X11765Y309440D01*
X11761Y309438D01*
X11757Y309438D01*
X11571Y309377D01*
X11382Y309317D01*
X11378Y309314D01*
X11374Y309313D01*
X11202Y309216D01*
X11030Y309120D01*
X11027Y309117D01*
X11023Y309115D01*
X10875Y308987D01*
X10725Y308858D01*
X10722Y308855D01*
X10718Y308852D01*
X10598Y308697D01*
X10476Y308541D01*
X10474Y308537D01*
X10472Y308534D01*
X10383Y308356D01*
X10296Y308182D01*
X10294Y308177D01*
X10292Y308173D01*
X10241Y307981D01*
X10189Y307793D01*
X10189Y307789D01*
X10188Y307785D01*
X10161Y307454D01*
X10161Y289446D01*
X10161Y289442D01*
X10161Y289437D01*
X10181Y289243D01*
X10201Y289045D01*
X10202Y289041D01*
X10202Y289037D01*
X10261Y288849D01*
X10319Y288661D01*
X10321Y288657D01*
X10322Y288652D01*
X10418Y288478D01*
X10511Y288307D01*
X10513Y288303D01*
X10516Y288299D01*
X10644Y288146D01*
X10768Y287997D01*
X10772Y287995D01*
X10775Y287991D01*
X10931Y287866D01*
X11082Y287745D01*
X11086Y287743D01*
X11089Y287740D01*
X11270Y287648D01*
X11439Y287559D01*
X11444Y287558D01*
X11448Y287556D01*
X11638Y287502D01*
X11826Y287448D01*
X11831Y287448D01*
X11835Y287446D01*
X12027Y287432D01*
X12228Y287415D01*
X12232Y287416D01*
X12236Y287415D01*
X12430Y287439D01*
X12627Y287462D01*
X12632Y287463D01*
X12636Y287464D01*
X12821Y287525D01*
X13010Y287587D01*
X13014Y287589D01*
X13018Y287591D01*
X13187Y287687D01*
X13361Y287785D01*
X13364Y287788D01*
X13368Y287790D01*
X13515Y287918D01*
X13665Y288048D01*
X13668Y288052D01*
X13672Y288054D01*
X13792Y288211D01*
X13912Y288366D01*
X13914Y288370D01*
X13917Y288374D01*
X14069Y288669D01*
X14869Y290602D01*
X17278Y293011D01*
X20426Y294315D01*
X23834Y294315D01*
X26982Y293011D01*
X29391Y290602D01*
X30695Y287454D01*
X30695Y284046D01*
X29391Y280898D01*
X26982Y278489D01*
X23834Y277185D01*
X20426Y277185D01*
X17278Y278489D01*
X14869Y280898D01*
X14069Y282831D01*
X14067Y282835D01*
X14065Y282839D01*
X13972Y283012D01*
X13878Y283186D01*
X13876Y283190D01*
X13873Y283193D01*
X13749Y283342D01*
X13622Y283496D01*
X13619Y283499D01*
X13616Y283503D01*
X13463Y283626D01*
X13309Y283750D01*
X13305Y283752D01*
X13302Y283755D01*
X13129Y283845D01*
X12953Y283937D01*
X12949Y283939D01*
X12945Y283941D01*
X12757Y283995D01*
X12566Y284050D01*
X12562Y284051D01*
X12558Y284052D01*
X12360Y284068D01*
X12165Y284085D01*
X12161Y284084D01*
X12156Y284085D01*
X11962Y284062D01*
X11765Y284040D01*
X11761Y284038D01*
X11757Y284038D01*
X11571Y283977D01*
X11382Y283917D01*
X11378Y283914D01*
X11374Y283913D01*
X11202Y283816D01*
X11030Y283720D01*
X11027Y283717D01*
X11023Y283715D01*
X10875Y283587D01*
X10725Y283458D01*
X10722Y283455D01*
X10718Y283452D01*
X10598Y283297D01*
X10476Y283141D01*
X10474Y283137D01*
X10472Y283134D01*
X10383Y282956D01*
X10296Y282782D01*
X10294Y282777D01*
X10292Y282773D01*
X10241Y282581D01*
X10189Y282393D01*
X10189Y282389D01*
X10188Y282385D01*
X10161Y282054D01*
X10161Y264046D01*
X10161Y264042D01*
X10161Y264037D01*
X10161Y264033D01*
X10161Y264031D01*
X10164Y264008D01*
X10181Y263843D01*
X10201Y263645D01*
X10202Y263641D01*
X10202Y263637D01*
X10261Y263449D01*
X10319Y263261D01*
X10321Y263257D01*
X10322Y263252D01*
X10418Y263078D01*
X10511Y262907D01*
X10513Y262903D01*
X10516Y262899D01*
X10644Y262746D01*
X10768Y262597D01*
X10772Y262595D01*
X10775Y262591D01*
X10931Y262466D01*
X11082Y262345D01*
X11086Y262343D01*
X11089Y262340D01*
X11270Y262248D01*
X11439Y262159D01*
X11444Y262158D01*
X11448Y262156D01*
X11638Y262102D01*
X11826Y262048D01*
X11831Y262048D01*
X11835Y262046D01*
X12027Y262032D01*
X12228Y262015D01*
X12232Y262016D01*
X12236Y262015D01*
X12430Y262039D01*
X12627Y262062D01*
X12632Y262063D01*
X12636Y262064D01*
X12821Y262125D01*
X13010Y262187D01*
X13014Y262189D01*
X13018Y262191D01*
X13187Y262287D01*
X13361Y262385D01*
X13364Y262388D01*
X13368Y262390D01*
X13515Y262518D01*
X13665Y262648D01*
X13668Y262652D01*
X13672Y262654D01*
X13792Y262811D01*
X13912Y262966D01*
X13914Y262970D01*
X13917Y262974D01*
X14069Y263269D01*
X14869Y265202D01*
X17278Y267611D01*
X18912Y268287D01*
X18912Y268288D01*
X20426Y268915D01*
X23834Y268915D01*
X26982Y267611D01*
X29391Y265202D01*
X30695Y262054D01*
X30695Y258646D01*
X29391Y255498D01*
X26982Y253089D01*
X23834Y251785D01*
X20426Y251785D01*
X17278Y253089D01*
X14869Y255498D01*
X14069Y257431D01*
X14067Y257435D01*
X14065Y257439D01*
X13972Y257612D01*
X13878Y257786D01*
X13876Y257790D01*
X13873Y257793D01*
X13749Y257942D01*
X13622Y258096D01*
X13619Y258099D01*
X13616Y258103D01*
X13463Y258226D01*
X13309Y258350D01*
X13305Y258352D01*
X13302Y258355D01*
X13129Y258445D01*
X12953Y258537D01*
X12949Y258539D01*
X12945Y258541D01*
X12757Y258595D01*
X12566Y258650D01*
X12562Y258651D01*
X12558Y258652D01*
X12360Y258668D01*
X12165Y258685D01*
X12161Y258684D01*
X12156Y258685D01*
X11962Y258662D01*
X11765Y258640D01*
X11761Y258638D01*
X11757Y258638D01*
X11571Y258577D01*
X11382Y258517D01*
X11378Y258514D01*
X11374Y258513D01*
X11202Y258416D01*
X11030Y258320D01*
X11027Y258317D01*
X11023Y258315D01*
X10875Y258187D01*
X10725Y258058D01*
X10722Y258055D01*
X10718Y258052D01*
X10598Y257897D01*
X10476Y257741D01*
X10474Y257737D01*
X10472Y257734D01*
X10383Y257556D01*
X10296Y257382D01*
X10294Y257377D01*
X10292Y257373D01*
X10241Y257181D01*
X10189Y256993D01*
X10189Y256989D01*
X10188Y256985D01*
X10161Y256654D01*
X10161Y238646D01*
X10161Y238642D01*
X10161Y238637D01*
X10181Y238441D01*
X10201Y238245D01*
X10202Y238241D01*
X10202Y238237D01*
X10261Y238049D01*
X10319Y237861D01*
X10321Y237857D01*
X10322Y237852D01*
X10418Y237678D01*
X10511Y237507D01*
X10513Y237503D01*
X10516Y237499D01*
X10644Y237346D01*
X10768Y237197D01*
X10772Y237195D01*
X10775Y237191D01*
X10931Y237066D01*
X11082Y236945D01*
X11086Y236943D01*
X11089Y236940D01*
X11270Y236848D01*
X11439Y236759D01*
X11444Y236758D01*
X11448Y236756D01*
X11638Y236702D01*
X11826Y236648D01*
X11831Y236648D01*
X11835Y236646D01*
X12027Y236632D01*
X12228Y236615D01*
X12232Y236616D01*
X12236Y236615D01*
X12430Y236639D01*
X12627Y236662D01*
X12632Y236663D01*
X12636Y236664D01*
X12821Y236725D01*
X13010Y236787D01*
X13014Y236789D01*
X13018Y236791D01*
X13187Y236887D01*
X13361Y236985D01*
X13364Y236988D01*
X13368Y236990D01*
X13515Y237118D01*
X13665Y237248D01*
X13668Y237252D01*
X13672Y237254D01*
X13792Y237411D01*
X13912Y237566D01*
X13914Y237570D01*
X13917Y237574D01*
X14069Y237869D01*
X14869Y239802D01*
X17278Y242211D01*
X20426Y243515D01*
X23834Y243515D01*
X26982Y242211D01*
X29391Y239802D01*
X30695Y236654D01*
X30695Y233246D01*
X29391Y230098D01*
X26982Y227689D01*
X26154Y227346D01*
X23834Y226385D01*
X20426Y226385D01*
X17278Y227689D01*
X14869Y230098D01*
X14069Y232031D01*
X14067Y232035D01*
X14065Y232039D01*
X13972Y232212D01*
X13878Y232386D01*
X13876Y232390D01*
X13873Y232393D01*
X13749Y232542D01*
X13622Y232696D01*
X13619Y232699D01*
X13616Y232703D01*
X13463Y232826D01*
X13309Y232950D01*
X13305Y232952D01*
X13302Y232955D01*
X13129Y233045D01*
X12953Y233137D01*
X12949Y233139D01*
X12945Y233141D01*
X12757Y233195D01*
X12566Y233250D01*
X12562Y233251D01*
X12558Y233252D01*
X12360Y233268D01*
X12165Y233285D01*
X12161Y233284D01*
X12156Y233285D01*
X11962Y233262D01*
X11765Y233240D01*
X11761Y233238D01*
X11757Y233238D01*
X11571Y233177D01*
X11382Y233117D01*
X11378Y233114D01*
X11374Y233113D01*
X11202Y233016D01*
X11030Y232920D01*
X11027Y232917D01*
X11023Y232915D01*
X10875Y232787D01*
X10725Y232658D01*
X10722Y232655D01*
X10718Y232652D01*
X10598Y232497D01*
X10476Y232341D01*
X10474Y232337D01*
X10472Y232334D01*
X10383Y232156D01*
X10296Y231982D01*
X10294Y231977D01*
X10292Y231973D01*
X10241Y231781D01*
X10189Y231593D01*
X10189Y231589D01*
X10188Y231585D01*
X10161Y231254D01*
X10161Y213246D01*
X10161Y213242D01*
X10161Y213237D01*
X10181Y213042D01*
X10201Y212845D01*
X10202Y212841D01*
X10202Y212837D01*
X10261Y212649D01*
X10319Y212461D01*
X10321Y212457D01*
X10322Y212452D01*
X10418Y212278D01*
X10511Y212107D01*
X10513Y212103D01*
X10516Y212099D01*
X10644Y211946D01*
X10768Y211797D01*
X10772Y211795D01*
X10775Y211791D01*
X10931Y211666D01*
X11082Y211545D01*
X11086Y211543D01*
X11089Y211540D01*
X11270Y211448D01*
X11439Y211359D01*
X11444Y211358D01*
X11448Y211356D01*
X11638Y211302D01*
X11826Y211248D01*
X11831Y211248D01*
X11835Y211246D01*
X12027Y211232D01*
X12228Y211215D01*
X12232Y211216D01*
X12236Y211215D01*
X12430Y211239D01*
X12627Y211262D01*
X12632Y211263D01*
X12636Y211264D01*
X12821Y211325D01*
X13010Y211387D01*
X13014Y211389D01*
X13018Y211391D01*
X13187Y211487D01*
X13361Y211585D01*
X13364Y211588D01*
X13368Y211590D01*
X13515Y211718D01*
X13665Y211848D01*
X13668Y211852D01*
X13672Y211854D01*
X13792Y212011D01*
X13912Y212166D01*
X13914Y212170D01*
X13917Y212174D01*
X14069Y212469D01*
X14869Y214402D01*
X17278Y216811D01*
X20426Y218115D01*
X23834Y218115D01*
X26982Y216811D01*
X29391Y214402D01*
X29618Y213853D01*
X29629Y213833D01*
X29636Y213812D01*
X29724Y213655D01*
X29808Y213498D01*
X29823Y213481D01*
X29834Y213461D01*
X29951Y213325D01*
X30065Y213187D01*
X30082Y213173D01*
X30097Y213156D01*
X30238Y213047D01*
X30377Y212934D01*
X30397Y212923D01*
X30415Y212910D01*
X30575Y212830D01*
X30734Y212747D01*
X30755Y212740D01*
X30775Y212730D01*
X30948Y212684D01*
X31120Y212634D01*
X31143Y212632D01*
X31164Y212626D01*
X31495Y212599D01*
X33865Y212599D01*
X33874Y212600D01*
X33883Y212599D01*
X34075Y212620D01*
X34266Y212639D01*
X34274Y212641D01*
X34283Y212642D01*
X34465Y212700D01*
X34651Y212757D01*
X34659Y212761D01*
X34667Y212764D01*
X34835Y212857D01*
X35005Y212949D01*
X35011Y212954D01*
X35019Y212959D01*
X35167Y213084D01*
X35314Y213206D01*
X35319Y213213D01*
X35326Y213219D01*
X35446Y213371D01*
X35566Y213520D01*
X35570Y213528D01*
X35576Y213535D01*
X35663Y213707D01*
X35752Y213877D01*
X35754Y213886D01*
X35758Y213894D01*
X35810Y214080D01*
X35863Y214264D01*
X35864Y214273D01*
X35866Y214282D01*
X35880Y214474D01*
X35896Y214666D01*
X35895Y214674D01*
X35896Y214683D01*
X35871Y214876D01*
X35849Y215065D01*
X35846Y215074D01*
X35845Y215083D01*
X35784Y215266D01*
X35724Y215448D01*
X35720Y215456D01*
X35717Y215464D01*
X35622Y215630D01*
X35526Y215799D01*
X35520Y215806D01*
X35516Y215813D01*
X35301Y216066D01*
X33969Y217398D01*
X32665Y220546D01*
X32665Y223954D01*
X33969Y227102D01*
X36378Y229511D01*
X36820Y229694D01*
X39526Y230815D01*
X42934Y230815D01*
X46082Y229511D01*
X48491Y227102D01*
X49815Y223904D01*
X49816Y223899D01*
X49835Y223710D01*
X49837Y223701D01*
X49838Y223692D01*
X49897Y223508D01*
X49953Y223325D01*
X49957Y223317D01*
X49960Y223308D01*
X50053Y223140D01*
X50145Y222971D01*
X50150Y222964D01*
X50155Y222956D01*
X50279Y222809D01*
X50402Y222661D01*
X50409Y222656D01*
X50415Y222649D01*
X50567Y222529D01*
X50716Y222409D01*
X50724Y222405D01*
X50731Y222399D01*
X50904Y222312D01*
X51073Y222223D01*
X51082Y222221D01*
X51090Y222217D01*
X51276Y222165D01*
X51460Y222112D01*
X51469Y222111D01*
X51478Y222109D01*
X51671Y222095D01*
X51862Y222079D01*
X51870Y222080D01*
X51879Y222080D01*
X52072Y222104D01*
X52261Y222126D01*
X52270Y222129D01*
X52279Y222130D01*
X52461Y222191D01*
X52644Y222251D01*
X52652Y222255D01*
X52660Y222258D01*
X52827Y222354D01*
X52995Y222449D01*
X53002Y222455D01*
X53009Y222459D01*
X53262Y222674D01*
X55442Y224853D01*
X55453Y224867D01*
X55467Y224879D01*
X55581Y225023D01*
X55697Y225165D01*
X55705Y225181D01*
X55716Y225195D01*
X55800Y225359D01*
X55885Y225520D01*
X55890Y225537D01*
X55899Y225553D01*
X55948Y225731D01*
X56000Y225906D01*
X56002Y225924D01*
X56007Y225941D01*
X56020Y226125D01*
X56037Y226307D01*
X56035Y226325D01*
X56036Y226343D01*
X56013Y226525D01*
X55993Y226708D01*
X55988Y226725D01*
X55986Y226742D01*
X55927Y226916D01*
X55872Y227091D01*
X55863Y227107D01*
X55857Y227124D01*
X55765Y227284D01*
X55677Y227444D01*
X55665Y227457D01*
X55656Y227473D01*
X55442Y227726D01*
X53069Y230098D01*
X51765Y233246D01*
X51765Y236654D01*
X53069Y239802D01*
X55478Y242211D01*
X58626Y243515D01*
X62034Y243515D01*
X65182Y242211D01*
X67591Y239802D01*
X69010Y236376D01*
X69016Y236365D01*
X69020Y236352D01*
X69111Y236188D01*
X69200Y236022D01*
X69208Y236011D01*
X69215Y235999D01*
X69336Y235857D01*
X69456Y235711D01*
X69467Y235703D01*
X69475Y235692D01*
X69623Y235576D01*
X69769Y235457D01*
X69781Y235451D01*
X69791Y235443D01*
X69959Y235358D01*
X70125Y235270D01*
X70138Y235267D01*
X70150Y235261D01*
X70331Y235210D01*
X70512Y235157D01*
X70525Y235156D01*
X70538Y235153D01*
X70726Y235139D01*
X70913Y235123D01*
X70926Y235124D01*
X70939Y235123D01*
X71127Y235147D01*
X71313Y235168D01*
X71326Y235172D01*
X71339Y235174D01*
X71517Y235233D01*
X71696Y235291D01*
X71708Y235298D01*
X71721Y235302D01*
X71884Y235396D01*
X72048Y235487D01*
X72058Y235496D01*
X72069Y235503D01*
X72322Y235717D01*
X74350Y237745D01*
X74361Y237759D01*
X74375Y237770D01*
X74489Y237914D01*
X74605Y238056D01*
X74613Y238072D01*
X74625Y238086D01*
X74708Y238251D01*
X74794Y238412D01*
X74799Y238429D01*
X74807Y238445D01*
X74856Y238623D01*
X74909Y238798D01*
X74910Y238816D01*
X74915Y238833D01*
X74928Y239016D01*
X74945Y239199D01*
X74943Y239217D01*
X74944Y239235D01*
X74921Y239417D01*
X74902Y239599D01*
X74896Y239616D01*
X74894Y239634D01*
X74836Y239808D01*
X74780Y239983D01*
X74771Y239999D01*
X74766Y240016D01*
X74674Y240175D01*
X74585Y240335D01*
X74574Y240349D01*
X74565Y240365D01*
X74350Y240618D01*
X72169Y242798D01*
X70865Y245946D01*
X70865Y249354D01*
X72169Y252502D01*
X74578Y254911D01*
X77726Y256215D01*
X81134Y256215D01*
X84282Y254911D01*
X86691Y252502D01*
X87995Y249354D01*
X87995Y245946D01*
X86691Y242799D01*
X85287Y241394D01*
X85281Y241387D01*
X85274Y241382D01*
X85154Y241232D01*
X85032Y241083D01*
X85027Y241075D01*
X85022Y241068D01*
X84933Y240898D01*
X84843Y240727D01*
X84840Y240718D01*
X84836Y240711D01*
X84783Y240526D01*
X84728Y240341D01*
X84727Y240332D01*
X84725Y240324D01*
X84709Y240133D01*
X84692Y239940D01*
X84693Y239931D01*
X84692Y239922D01*
X84714Y239732D01*
X84735Y239540D01*
X84738Y239531D01*
X84739Y239523D01*
X84798Y239341D01*
X84857Y239156D01*
X84861Y239148D01*
X84864Y239140D01*
X84958Y238972D01*
X85051Y238804D01*
X85057Y238797D01*
X85062Y238789D01*
X85187Y238644D01*
X85312Y238497D01*
X85319Y238491D01*
X85325Y238484D01*
X85475Y238368D01*
X85628Y238247D01*
X85636Y238243D01*
X85643Y238238D01*
X85814Y238152D01*
X85987Y238065D01*
X85995Y238062D01*
X86003Y238058D01*
X86189Y238008D01*
X86375Y237957D01*
X86384Y237956D01*
X86392Y237954D01*
X86723Y237927D01*
X406110Y237927D01*
X406137Y237929D01*
X406164Y237927D01*
X406338Y237949D01*
X406511Y237967D01*
X406537Y237974D01*
X406563Y237978D01*
X406729Y238033D01*
X406896Y238085D01*
X406920Y238098D01*
X406945Y238106D01*
X407097Y238193D01*
X407250Y238277D01*
X407271Y238294D01*
X407294Y238307D01*
X407547Y238522D01*
X408474Y239449D01*
X410424Y240257D01*
X412536Y240257D01*
X414486Y239449D01*
X415979Y237956D01*
X416787Y236006D01*
X416787Y233894D01*
X415979Y231944D01*
X414486Y230451D01*
X412536Y229643D01*
X410424Y229643D01*
X408474Y230451D01*
X407691Y231234D01*
X407670Y231251D01*
X407653Y231272D01*
X407515Y231379D01*
X407379Y231489D01*
X407356Y231502D01*
X407335Y231518D01*
X407178Y231596D01*
X407024Y231678D01*
X406998Y231686D01*
X406974Y231698D01*
X406805Y231743D01*
X406638Y231793D01*
X406611Y231795D01*
X406585Y231802D01*
X406254Y231829D01*
X86867Y231829D01*
X86858Y231828D01*
X86849Y231829D01*
X86657Y231808D01*
X86466Y231789D01*
X86458Y231787D01*
X86449Y231786D01*
X86267Y231728D01*
X86081Y231671D01*
X86073Y231667D01*
X86065Y231664D01*
X85896Y231571D01*
X85727Y231479D01*
X85721Y231474D01*
X85713Y231469D01*
X85565Y231344D01*
X85418Y231222D01*
X85413Y231215D01*
X85406Y231209D01*
X85286Y231057D01*
X85166Y230908D01*
X85162Y230900D01*
X85156Y230893D01*
X85069Y230721D01*
X84980Y230551D01*
X84978Y230542D01*
X84974Y230534D01*
X84922Y230348D01*
X84869Y230164D01*
X84868Y230155D01*
X84866Y230146D01*
X84852Y229954D01*
X84836Y229762D01*
X84837Y229754D01*
X84836Y229745D01*
X84861Y229552D01*
X84883Y229363D01*
X84886Y229354D01*
X84887Y229345D01*
X84948Y229162D01*
X85008Y228980D01*
X85012Y228972D01*
X85015Y228964D01*
X85110Y228798D01*
X85206Y228629D01*
X85212Y228622D01*
X85216Y228615D01*
X85431Y228362D01*
X86691Y227102D01*
X87995Y223954D01*
X87995Y220980D01*
X87997Y220962D01*
X87995Y220944D01*
X88016Y220762D01*
X88035Y220579D01*
X88040Y220562D01*
X88042Y220545D01*
X88099Y220370D01*
X88153Y220194D01*
X88161Y220179D01*
X88167Y220162D01*
X88257Y220002D01*
X88345Y219840D01*
X88356Y219827D01*
X88365Y219811D01*
X88485Y219672D01*
X88602Y219531D01*
X88616Y219520D01*
X88628Y219506D01*
X88774Y219393D01*
X88916Y219279D01*
X88932Y219271D01*
X88946Y219260D01*
X89111Y219178D01*
X89273Y219093D01*
X89290Y219088D01*
X89306Y219080D01*
X89485Y219033D01*
X89660Y218982D01*
X89678Y218980D01*
X89695Y218976D01*
X90026Y218949D01*
X363002Y218949D01*
X363029Y218951D01*
X363056Y218949D01*
X363230Y218971D01*
X363403Y218989D01*
X363429Y218996D01*
X363455Y219000D01*
X363621Y219055D01*
X363788Y219107D01*
X363812Y219120D01*
X363837Y219128D01*
X363989Y219215D01*
X364142Y219299D01*
X364163Y219316D01*
X364186Y219329D01*
X364439Y219544D01*
X365294Y220399D01*
X367244Y221207D01*
X369356Y221207D01*
X371306Y220399D01*
X372799Y218906D01*
X373607Y216956D01*
X373607Y214844D01*
X372799Y212894D01*
X371306Y211401D01*
X370570Y211096D01*
X369356Y210593D01*
X367244Y210593D01*
X365294Y211401D01*
X364439Y212256D01*
X364418Y212273D01*
X364401Y212294D01*
X364263Y212401D01*
X364127Y212511D01*
X364104Y212524D01*
X364083Y212540D01*
X363926Y212618D01*
X363772Y212700D01*
X363746Y212708D01*
X363722Y212720D01*
X363553Y212765D01*
X363386Y212815D01*
X363359Y212817D01*
X363333Y212824D01*
X363002Y212851D01*
X340374Y212851D01*
X340361Y212850D01*
X340348Y212851D01*
X340162Y212830D01*
X339974Y212811D01*
X339961Y212807D01*
X339948Y212806D01*
X339769Y212748D01*
X339589Y212693D01*
X339577Y212687D01*
X339564Y212683D01*
X339400Y212591D01*
X339235Y212501D01*
X339225Y212493D01*
X339213Y212486D01*
X339070Y212364D01*
X338926Y212244D01*
X338917Y212233D01*
X338907Y212225D01*
X338791Y212077D01*
X338673Y211930D01*
X338667Y211918D01*
X338659Y211908D01*
X338574Y211739D01*
X338488Y211573D01*
X338484Y211560D01*
X338478Y211548D01*
X338428Y211366D01*
X338376Y211186D01*
X338375Y211172D01*
X338372Y211159D01*
X338359Y210971D01*
X338343Y210784D01*
X338345Y210771D01*
X338344Y210758D01*
X338369Y210570D01*
X338390Y210385D01*
X338395Y210372D01*
X338396Y210359D01*
X338498Y210043D01*
X339317Y208066D01*
X339317Y205954D01*
X338509Y204004D01*
X337016Y202511D01*
X335066Y201703D01*
X332954Y201703D01*
X331004Y202511D01*
X330221Y203294D01*
X330200Y203311D01*
X330183Y203332D01*
X330045Y203439D01*
X329909Y203549D01*
X329886Y203562D01*
X329865Y203578D01*
X329708Y203656D01*
X329554Y203738D01*
X329528Y203746D01*
X329504Y203758D01*
X329335Y203803D01*
X329168Y203853D01*
X329141Y203855D01*
X329115Y203862D01*
X328784Y203889D01*
X305089Y203889D01*
X305081Y203888D01*
X305072Y203889D01*
X304879Y203868D01*
X304689Y203849D01*
X304680Y203847D01*
X304671Y203846D01*
X304488Y203788D01*
X304304Y203731D01*
X304296Y203727D01*
X304288Y203724D01*
X304118Y203631D01*
X303950Y203539D01*
X303943Y203534D01*
X303935Y203529D01*
X303787Y203404D01*
X303641Y203282D01*
X303635Y203275D01*
X303628Y203269D01*
X303508Y203117D01*
X303388Y202968D01*
X303384Y202960D01*
X303379Y202953D01*
X303291Y202780D01*
X303203Y202611D01*
X303200Y202602D01*
X303196Y202594D01*
X303145Y202409D01*
X303091Y202224D01*
X303091Y202215D01*
X303088Y202206D01*
X303074Y202014D01*
X303059Y201822D01*
X303060Y201814D01*
X303059Y201805D01*
X303083Y201613D01*
X303105Y201423D01*
X303108Y201414D01*
X303109Y201405D01*
X303171Y201223D01*
X303230Y201040D01*
X303235Y201032D01*
X303238Y201024D01*
X303334Y200856D01*
X303428Y200689D01*
X303434Y200682D01*
X303438Y200675D01*
X303653Y200422D01*
X304219Y199856D01*
X305027Y197906D01*
X305027Y195794D01*
X304219Y193844D01*
X302726Y192351D01*
X300776Y191543D01*
X298664Y191543D01*
X296714Y192351D01*
X295859Y193206D01*
X295838Y193223D01*
X295821Y193244D01*
X295683Y193351D01*
X295547Y193461D01*
X295524Y193474D01*
X295503Y193490D01*
X295346Y193568D01*
X295192Y193650D01*
X295166Y193658D01*
X295142Y193670D01*
X294973Y193715D01*
X294806Y193765D01*
X294779Y193767D01*
X294753Y193774D01*
X294422Y193801D01*
X88795Y193801D01*
X88773Y193799D01*
X88750Y193801D01*
X88573Y193779D01*
X88394Y193761D01*
X88373Y193755D01*
X88351Y193752D01*
X88180Y193696D01*
X88009Y193643D01*
X87990Y193633D01*
X87968Y193626D01*
X87812Y193537D01*
X87655Y193451D01*
X87638Y193437D01*
X87619Y193426D01*
X87483Y193308D01*
X87346Y193194D01*
X87332Y193176D01*
X87315Y193162D01*
X87206Y193019D01*
X87094Y192880D01*
X87083Y192860D01*
X87070Y192842D01*
X86918Y192547D01*
X86691Y191998D01*
X85359Y190666D01*
X85353Y190659D01*
X85346Y190654D01*
X85225Y190503D01*
X85104Y190355D01*
X85099Y190347D01*
X85094Y190340D01*
X85005Y190169D01*
X84915Y189999D01*
X84912Y189990D01*
X84908Y189983D01*
X84855Y189798D01*
X84800Y189613D01*
X84799Y189604D01*
X84797Y189596D01*
X84781Y189405D01*
X84764Y189212D01*
X84765Y189203D01*
X84764Y189194D01*
X84786Y189005D01*
X84807Y188812D01*
X84810Y188803D01*
X84811Y188795D01*
X84870Y188613D01*
X84929Y188428D01*
X84933Y188420D01*
X84936Y188412D01*
X85030Y188245D01*
X85123Y188076D01*
X85129Y188069D01*
X85134Y188061D01*
X85259Y187916D01*
X85384Y187769D01*
X85391Y187763D01*
X85397Y187756D01*
X85547Y187640D01*
X85700Y187519D01*
X85708Y187515D01*
X85715Y187510D01*
X85886Y187424D01*
X86059Y187337D01*
X86067Y187334D01*
X86075Y187330D01*
X86261Y187280D01*
X86447Y187229D01*
X86456Y187228D01*
X86464Y187226D01*
X86795Y187199D01*
X229652Y187199D01*
X229679Y187201D01*
X229706Y187199D01*
X229880Y187221D01*
X230053Y187239D01*
X230079Y187246D01*
X230105Y187250D01*
X230271Y187305D01*
X230438Y187357D01*
X230462Y187370D01*
X230487Y187378D01*
X230639Y187465D01*
X230792Y187549D01*
X230813Y187566D01*
X230836Y187579D01*
X231089Y187794D01*
X231944Y188649D01*
X233894Y189457D01*
X236006Y189457D01*
X237956Y188649D01*
X239449Y187156D01*
X240257Y185206D01*
X240257Y183094D01*
X239449Y181144D01*
X237956Y179651D01*
X236006Y178843D01*
X233894Y178843D01*
X231944Y179651D01*
X231089Y180506D01*
X231068Y180523D01*
X231051Y180544D01*
X230913Y180651D01*
X230777Y180761D01*
X230754Y180774D01*
X230733Y180790D01*
X230576Y180868D01*
X230422Y180950D01*
X230396Y180958D01*
X230372Y180970D01*
X230203Y181015D01*
X230036Y181065D01*
X230009Y181067D01*
X229983Y181074D01*
X229652Y181101D01*
X86795Y181101D01*
X86786Y181100D01*
X86777Y181101D01*
X86585Y181080D01*
X86394Y181061D01*
X86386Y181059D01*
X86377Y181058D01*
X86195Y181000D01*
X86009Y180943D01*
X86001Y180939D01*
X85993Y180936D01*
X85825Y180843D01*
X85655Y180751D01*
X85649Y180746D01*
X85641Y180741D01*
X85493Y180616D01*
X85346Y180494D01*
X85341Y180487D01*
X85334Y180481D01*
X85214Y180329D01*
X85094Y180180D01*
X85090Y180172D01*
X85084Y180165D01*
X84997Y179993D01*
X84908Y179823D01*
X84906Y179814D01*
X84902Y179806D01*
X84850Y179620D01*
X84797Y179436D01*
X84796Y179427D01*
X84794Y179418D01*
X84780Y179224D01*
X84764Y179034D01*
X84765Y179026D01*
X84764Y179017D01*
X84789Y178824D01*
X84811Y178635D01*
X84814Y178626D01*
X84815Y178617D01*
X84876Y178434D01*
X84936Y178252D01*
X84940Y178244D01*
X84943Y178236D01*
X85038Y178070D01*
X85134Y177901D01*
X85140Y177894D01*
X85144Y177887D01*
X85359Y177634D01*
X86691Y176302D01*
X87995Y173154D01*
X87995Y169746D01*
X86691Y166598D01*
X85431Y165338D01*
X85425Y165331D01*
X85418Y165326D01*
X85297Y165175D01*
X85176Y165027D01*
X85171Y165019D01*
X85166Y165012D01*
X85077Y164842D01*
X84987Y164671D01*
X84984Y164662D01*
X84980Y164655D01*
X84927Y164470D01*
X84872Y164285D01*
X84871Y164276D01*
X84869Y164268D01*
X84853Y164077D01*
X84836Y163884D01*
X84837Y163875D01*
X84836Y163866D01*
X84858Y163677D01*
X84879Y163484D01*
X84882Y163475D01*
X84883Y163467D01*
X84942Y163285D01*
X85001Y163100D01*
X85005Y163092D01*
X85008Y163084D01*
X85102Y162917D01*
X85195Y162748D01*
X85201Y162741D01*
X85206Y162733D01*
X85331Y162588D01*
X85456Y162441D01*
X85463Y162435D01*
X85469Y162428D01*
X85619Y162312D01*
X85772Y162191D01*
X85780Y162187D01*
X85787Y162182D01*
X85958Y162097D01*
X86131Y162009D01*
X86139Y162006D01*
X86147Y162002D01*
X86333Y161953D01*
X86519Y161901D01*
X86528Y161900D01*
X86536Y161898D01*
X86867Y161871D01*
X232918Y161871D01*
X232944Y161873D01*
X232971Y161871D01*
X233145Y161893D01*
X233318Y161911D01*
X233344Y161918D01*
X233371Y161922D01*
X233536Y161977D01*
X233703Y162029D01*
X233727Y162042D01*
X233752Y162050D01*
X233904Y162137D01*
X234057Y162221D01*
X234078Y162238D01*
X234101Y162251D01*
X234354Y162466D01*
X254448Y182560D01*
X254465Y182581D01*
X254486Y182598D01*
X254593Y182736D01*
X254703Y182871D01*
X254716Y182895D01*
X254732Y182916D01*
X254810Y183073D01*
X254892Y183227D01*
X254900Y183253D01*
X254912Y183277D01*
X254957Y183446D01*
X255007Y183613D01*
X255009Y183640D01*
X255016Y183665D01*
X255043Y183996D01*
X255043Y185206D01*
X255851Y187156D01*
X257344Y188649D01*
X259294Y189457D01*
X261406Y189457D01*
X263356Y188649D01*
X264849Y187156D01*
X265657Y185206D01*
X265657Y183094D01*
X264849Y181144D01*
X263356Y179651D01*
X261406Y178843D01*
X260196Y178843D01*
X260170Y178841D01*
X260143Y178843D01*
X259969Y178821D01*
X259796Y178803D01*
X259770Y178796D01*
X259743Y178792D01*
X259578Y178737D01*
X259411Y178685D01*
X259387Y178672D01*
X259362Y178664D01*
X259210Y178577D01*
X259057Y178493D01*
X259036Y178476D01*
X259013Y178463D01*
X258760Y178248D01*
X236285Y155773D01*
X86723Y155773D01*
X86714Y155772D01*
X86705Y155773D01*
X86513Y155752D01*
X86322Y155733D01*
X86314Y155731D01*
X86305Y155730D01*
X86123Y155672D01*
X85937Y155615D01*
X85929Y155611D01*
X85921Y155608D01*
X85753Y155515D01*
X85583Y155423D01*
X85577Y155418D01*
X85569Y155413D01*
X85421Y155288D01*
X85274Y155166D01*
X85269Y155159D01*
X85262Y155153D01*
X85142Y155001D01*
X85022Y154852D01*
X85018Y154844D01*
X85012Y154837D01*
X84925Y154665D01*
X84836Y154495D01*
X84834Y154486D01*
X84830Y154478D01*
X84778Y154292D01*
X84725Y154108D01*
X84724Y154099D01*
X84722Y154090D01*
X84708Y153898D01*
X84692Y153706D01*
X84693Y153698D01*
X84692Y153689D01*
X84717Y153495D01*
X84739Y153307D01*
X84742Y153298D01*
X84743Y153289D01*
X84804Y153106D01*
X84864Y152924D01*
X84868Y152916D01*
X84871Y152908D01*
X84966Y152742D01*
X85062Y152573D01*
X85068Y152566D01*
X85072Y152559D01*
X85287Y152306D01*
X86691Y150902D01*
X86918Y150353D01*
X86929Y150333D01*
X86936Y150312D01*
X87024Y150156D01*
X87108Y149998D01*
X87123Y149981D01*
X87134Y149961D01*
X87251Y149826D01*
X87365Y149687D01*
X87382Y149673D01*
X87397Y149656D01*
X87538Y149547D01*
X87677Y149434D01*
X87697Y149423D01*
X87715Y149410D01*
X87875Y149330D01*
X88034Y149247D01*
X88055Y149240D01*
X88075Y149230D01*
X88248Y149184D01*
X88420Y149134D01*
X88443Y149132D01*
X88464Y149126D01*
X88795Y149099D01*
X347146Y149099D01*
X347172Y149101D01*
X347199Y149099D01*
X347373Y149121D01*
X347546Y149139D01*
X347572Y149146D01*
X347599Y149150D01*
X347764Y149205D01*
X347931Y149257D01*
X347955Y149270D01*
X347980Y149278D01*
X348132Y149365D01*
X348285Y149449D01*
X348306Y149466D01*
X348329Y149479D01*
X348582Y149694D01*
X542456Y343568D01*
X542473Y343589D01*
X542494Y343606D01*
X542601Y343744D01*
X542711Y343879D01*
X542724Y343903D01*
X542740Y343924D01*
X542818Y344081D01*
X542900Y344235D01*
X542908Y344261D01*
X542920Y344285D01*
X542965Y344454D01*
X543015Y344621D01*
X543017Y344648D01*
X543024Y344673D01*
X543051Y345004D01*
X543051Y409194D01*
X543049Y409216D01*
X543051Y409238D01*
X543029Y409416D01*
X543011Y409595D01*
X543005Y409616D01*
X543002Y409638D01*
X542946Y409807D01*
X542893Y409980D01*
X542883Y409999D01*
X542876Y410020D01*
X542787Y410176D01*
X542701Y410334D01*
X542687Y410351D01*
X542676Y410370D01*
X542558Y410505D01*
X542444Y410643D01*
X542426Y410657D01*
X542412Y410674D01*
X542269Y410783D01*
X542130Y410895D01*
X542110Y410905D01*
X542092Y410919D01*
X541797Y411071D01*
X540965Y411415D01*
X538415Y413965D01*
X537035Y417297D01*
X537035Y420903D01*
X538415Y424235D01*
X540965Y426785D01*
X544297Y428165D01*
X547903Y428165D01*
X551235Y426785D01*
X553785Y424235D01*
X555165Y420903D01*
X555165Y417297D01*
X553785Y413965D01*
X551235Y411415D01*
X550403Y411071D01*
X550383Y411060D01*
X550362Y411053D01*
X550206Y410965D01*
X550048Y410880D01*
X550031Y410866D01*
X550011Y410855D01*
X549876Y410738D01*
X549737Y410624D01*
X549723Y410607D01*
X549706Y410592D01*
X549597Y410451D01*
X549484Y410311D01*
X549473Y410292D01*
X549460Y410274D01*
X549380Y410114D01*
X549297Y409955D01*
X549290Y409934D01*
X549280Y409913D01*
X549234Y409740D01*
X549184Y409568D01*
X549182Y409546D01*
X549176Y409525D01*
X549149Y409194D01*
X549149Y341637D01*
X350513Y143001D01*
X88795Y143001D01*
X88773Y142999D01*
X88750Y143001D01*
X88573Y142979D01*
X88394Y142961D01*
X88373Y142955D01*
X88351Y142952D01*
X88180Y142896D01*
X88009Y142843D01*
X87990Y142833D01*
X87968Y142826D01*
X87812Y142737D01*
X87655Y142651D01*
X87638Y142637D01*
X87619Y142626D01*
X87483Y142508D01*
X87346Y142394D01*
X87332Y142376D01*
X87315Y142362D01*
X87206Y142219D01*
X87094Y142080D01*
X87083Y142060D01*
X87070Y142042D01*
X86918Y141747D01*
X86691Y141198D01*
X84282Y138789D01*
X81134Y137485D01*
X77726Y137485D01*
X74578Y138789D01*
X72169Y141198D01*
X70865Y144346D01*
X70865Y147754D01*
X72169Y150902D01*
X74713Y153446D01*
X74725Y153460D01*
X74738Y153471D01*
X74852Y153615D01*
X74968Y153757D01*
X74977Y153773D01*
X74988Y153787D01*
X75071Y153951D01*
X75157Y154113D01*
X75162Y154130D01*
X75170Y154146D01*
X75220Y154323D01*
X75272Y154499D01*
X75274Y154517D01*
X75278Y154534D01*
X75292Y154717D01*
X75308Y154900D01*
X75306Y154918D01*
X75308Y154935D01*
X75285Y155117D01*
X75265Y155300D01*
X75259Y155317D01*
X75257Y155335D01*
X75199Y155509D01*
X75143Y155684D01*
X75135Y155700D01*
X75129Y155716D01*
X75037Y155876D01*
X74949Y156036D01*
X74937Y156050D01*
X74928Y156065D01*
X74713Y156318D01*
X72362Y158670D01*
X72355Y158675D01*
X72350Y158682D01*
X72200Y158802D01*
X72051Y158925D01*
X72043Y158929D01*
X72036Y158934D01*
X71866Y159023D01*
X71695Y159113D01*
X71686Y159116D01*
X71679Y159120D01*
X71494Y159173D01*
X71309Y159228D01*
X71300Y159229D01*
X71292Y159231D01*
X71101Y159247D01*
X70908Y159264D01*
X70899Y159263D01*
X70890Y159264D01*
X70701Y159242D01*
X70508Y159221D01*
X70499Y159218D01*
X70491Y159217D01*
X70309Y159158D01*
X70124Y159100D01*
X70116Y159095D01*
X70108Y159092D01*
X69939Y158997D01*
X69772Y158905D01*
X69765Y158899D01*
X69757Y158895D01*
X69611Y158769D01*
X69465Y158644D01*
X69459Y158637D01*
X69452Y158631D01*
X69335Y158480D01*
X69215Y158328D01*
X69211Y158320D01*
X69206Y158313D01*
X69120Y158141D01*
X69033Y157969D01*
X69030Y157961D01*
X69026Y157953D01*
X68976Y157767D01*
X68925Y157581D01*
X68924Y157573D01*
X68922Y157564D01*
X68895Y157233D01*
X68895Y157046D01*
X67591Y153898D01*
X65182Y151489D01*
X62034Y150185D01*
X58626Y150185D01*
X55478Y151489D01*
X53069Y153898D01*
X51765Y157046D01*
X51765Y160454D01*
X53069Y163602D01*
X55613Y166146D01*
X55625Y166160D01*
X55638Y166171D01*
X55752Y166315D01*
X55868Y166457D01*
X55877Y166473D01*
X55888Y166487D01*
X55971Y166651D01*
X56057Y166813D01*
X56062Y166830D01*
X56070Y166846D01*
X56120Y167023D01*
X56172Y167199D01*
X56174Y167217D01*
X56178Y167234D01*
X56192Y167417D01*
X56208Y167600D01*
X56206Y167618D01*
X56208Y167635D01*
X56185Y167817D01*
X56165Y168000D01*
X56159Y168017D01*
X56157Y168035D01*
X56099Y168208D01*
X56043Y168384D01*
X56035Y168400D01*
X56029Y168417D01*
X55937Y168576D01*
X55849Y168736D01*
X55837Y168750D01*
X55828Y168765D01*
X55613Y169018D01*
X53778Y170854D01*
X53262Y171370D01*
X53255Y171375D01*
X53250Y171382D01*
X53100Y171503D01*
X52951Y171625D01*
X52943Y171629D01*
X52936Y171634D01*
X52766Y171723D01*
X52595Y171813D01*
X52586Y171816D01*
X52579Y171820D01*
X52396Y171873D01*
X52209Y171928D01*
X52200Y171929D01*
X52192Y171931D01*
X52001Y171947D01*
X51808Y171964D01*
X51799Y171963D01*
X51790Y171964D01*
X51601Y171942D01*
X51408Y171921D01*
X51399Y171918D01*
X51391Y171917D01*
X51207Y171857D01*
X51024Y171800D01*
X51016Y171795D01*
X51008Y171792D01*
X50839Y171697D01*
X50672Y171605D01*
X50665Y171599D01*
X50657Y171595D01*
X50512Y171469D01*
X50365Y171344D01*
X50359Y171337D01*
X50352Y171331D01*
X50235Y171180D01*
X50115Y171028D01*
X50111Y171020D01*
X50106Y171013D01*
X50020Y170841D01*
X49933Y170669D01*
X49930Y170661D01*
X49926Y170653D01*
X49876Y170465D01*
X49825Y170282D01*
X49824Y170273D01*
X49822Y170264D01*
X49795Y169933D01*
X49795Y169746D01*
X48491Y166598D01*
X46082Y164189D01*
X42934Y162885D01*
X39526Y162885D01*
X36378Y164189D01*
X33969Y166598D01*
X32665Y169746D01*
X32665Y173154D01*
X33969Y176302D01*
X35301Y177634D01*
X35307Y177641D01*
X35314Y177646D01*
X35435Y177797D01*
X35556Y177945D01*
X35561Y177953D01*
X35566Y177960D01*
X35655Y178130D01*
X35745Y178301D01*
X35748Y178310D01*
X35752Y178317D01*
X35805Y178502D01*
X35860Y178687D01*
X35861Y178696D01*
X35863Y178704D01*
X35879Y178895D01*
X35896Y179088D01*
X35895Y179097D01*
X35896Y179106D01*
X35874Y179295D01*
X35853Y179488D01*
X35850Y179497D01*
X35849Y179505D01*
X35790Y179687D01*
X35731Y179872D01*
X35727Y179880D01*
X35724Y179888D01*
X35630Y180055D01*
X35537Y180224D01*
X35531Y180231D01*
X35526Y180239D01*
X35401Y180384D01*
X35276Y180531D01*
X35269Y180537D01*
X35263Y180544D01*
X35113Y180660D01*
X34960Y180781D01*
X34952Y180785D01*
X34945Y180790D01*
X34774Y180876D01*
X34601Y180963D01*
X34593Y180966D01*
X34585Y180970D01*
X34399Y181020D01*
X34213Y181071D01*
X34204Y181072D01*
X34196Y181074D01*
X33865Y181101D01*
X31495Y181101D01*
X31473Y181099D01*
X31450Y181101D01*
X31273Y181079D01*
X31094Y181061D01*
X31073Y181055D01*
X31051Y181052D01*
X30881Y180996D01*
X30709Y180943D01*
X30690Y180933D01*
X30669Y180926D01*
X30513Y180837D01*
X30355Y180751D01*
X30338Y180737D01*
X30319Y180726D01*
X30183Y180608D01*
X30046Y180494D01*
X30032Y180476D01*
X30015Y180462D01*
X29906Y180320D01*
X29794Y180180D01*
X29783Y180160D01*
X29770Y180142D01*
X29618Y179847D01*
X29391Y179298D01*
X26982Y176889D01*
X23834Y175585D01*
X20426Y175585D01*
X17278Y176889D01*
X14869Y179298D01*
X14069Y181231D01*
X14067Y181235D01*
X14065Y181239D01*
X13972Y181412D01*
X13878Y181586D01*
X13876Y181590D01*
X13873Y181593D01*
X13749Y181742D01*
X13622Y181896D01*
X13619Y181899D01*
X13616Y181903D01*
X13463Y182026D01*
X13309Y182150D01*
X13305Y182152D01*
X13302Y182155D01*
X13129Y182245D01*
X12953Y182337D01*
X12949Y182339D01*
X12945Y182341D01*
X12757Y182395D01*
X12566Y182450D01*
X12562Y182451D01*
X12558Y182452D01*
X12360Y182468D01*
X12165Y182485D01*
X12161Y182484D01*
X12156Y182485D01*
X11962Y182462D01*
X11765Y182440D01*
X11761Y182438D01*
X11757Y182438D01*
X11571Y182377D01*
X11382Y182317D01*
X11378Y182314D01*
X11374Y182313D01*
X11202Y182216D01*
X11030Y182120D01*
X11027Y182117D01*
X11023Y182115D01*
X10875Y181987D01*
X10725Y181858D01*
X10722Y181855D01*
X10718Y181852D01*
X10598Y181697D01*
X10476Y181541D01*
X10474Y181537D01*
X10472Y181534D01*
X10383Y181356D01*
X10296Y181182D01*
X10294Y181177D01*
X10292Y181173D01*
X10241Y180981D01*
X10189Y180793D01*
X10189Y180789D01*
X10188Y180785D01*
X10161Y180454D01*
X10161Y162446D01*
X10161Y162442D01*
X10161Y162437D01*
X10181Y162243D01*
X10201Y162045D01*
X10202Y162041D01*
X10202Y162037D01*
X10261Y161849D01*
X10319Y161661D01*
X10321Y161657D01*
X10322Y161652D01*
X10418Y161478D01*
X10511Y161307D01*
X10513Y161303D01*
X10516Y161299D01*
X10644Y161146D01*
X10768Y160997D01*
X10772Y160994D01*
X10775Y160991D01*
X10930Y160867D01*
X11082Y160745D01*
X11086Y160743D01*
X11090Y160740D01*
X11268Y160648D01*
X11439Y160559D01*
X11444Y160558D01*
X11448Y160556D01*
X11641Y160501D01*
X11826Y160448D01*
X11831Y160448D01*
X11835Y160446D01*
X12031Y160431D01*
X12228Y160415D01*
X12232Y160416D01*
X12236Y160415D01*
X12430Y160439D01*
X12627Y160462D01*
X12632Y160463D01*
X12636Y160464D01*
X12821Y160525D01*
X13010Y160587D01*
X13014Y160589D01*
X13018Y160591D01*
X13187Y160687D01*
X13361Y160785D01*
X13364Y160788D01*
X13368Y160790D01*
X13517Y160919D01*
X13665Y161048D01*
X13668Y161051D01*
X13672Y161054D01*
X13794Y161214D01*
X13912Y161366D01*
X13914Y161370D01*
X13917Y161374D01*
X14069Y161669D01*
X14869Y163602D01*
X17278Y166011D01*
X19003Y166725D01*
X20426Y167315D01*
X23834Y167315D01*
X26982Y166011D01*
X29391Y163602D01*
X30695Y160454D01*
X30695Y157046D01*
X29391Y153898D01*
X26982Y151489D01*
X23834Y150185D01*
X20426Y150185D01*
X17278Y151489D01*
X14869Y153898D01*
X14069Y155831D01*
X14067Y155835D01*
X14065Y155839D01*
X13972Y156012D01*
X13878Y156186D01*
X13876Y156190D01*
X13873Y156193D01*
X13749Y156343D01*
X13622Y156496D01*
X13619Y156499D01*
X13616Y156503D01*
X13465Y156624D01*
X13309Y156750D01*
X13305Y156752D01*
X13302Y156755D01*
X13130Y156844D01*
X12953Y156937D01*
X12949Y156939D01*
X12945Y156941D01*
X12757Y156995D01*
X12566Y157050D01*
X12562Y157051D01*
X12558Y157052D01*
X12360Y157068D01*
X12165Y157085D01*
X12161Y157084D01*
X12156Y157085D01*
X11961Y157062D01*
X11765Y157040D01*
X11761Y157038D01*
X11757Y157038D01*
X11569Y156977D01*
X11382Y156917D01*
X11378Y156915D01*
X11374Y156913D01*
X11201Y156816D01*
X11030Y156720D01*
X11027Y156717D01*
X11023Y156715D01*
X10875Y156587D01*
X10725Y156458D01*
X10722Y156455D01*
X10718Y156452D01*
X10598Y156297D01*
X10476Y156141D01*
X10474Y156137D01*
X10472Y156134D01*
X10384Y155958D01*
X10296Y155782D01*
X10294Y155777D01*
X10292Y155773D01*
X10241Y155582D01*
X10189Y155393D01*
X10189Y155389D01*
X10188Y155385D01*
X10161Y155054D01*
X10161Y137046D01*
X10161Y137042D01*
X10161Y137037D01*
X10181Y136843D01*
X10201Y136645D01*
X10202Y136641D01*
X10202Y136637D01*
X10261Y136448D01*
X10319Y136261D01*
X10321Y136257D01*
X10322Y136252D01*
X10418Y136078D01*
X10511Y135907D01*
X10513Y135903D01*
X10516Y135899D01*
X10644Y135746D01*
X10768Y135597D01*
X10772Y135594D01*
X10775Y135591D01*
X10930Y135467D01*
X11082Y135345D01*
X11086Y135343D01*
X11090Y135340D01*
X11268Y135248D01*
X11439Y135159D01*
X11444Y135158D01*
X11448Y135156D01*
X11641Y135101D01*
X11826Y135048D01*
X11831Y135048D01*
X11835Y135046D01*
X12031Y135031D01*
X12228Y135015D01*
X12232Y135016D01*
X12236Y135015D01*
X12430Y135039D01*
X12627Y135062D01*
X12632Y135063D01*
X12636Y135064D01*
X12821Y135125D01*
X13010Y135187D01*
X13014Y135189D01*
X13018Y135191D01*
X13187Y135287D01*
X13361Y135385D01*
X13364Y135388D01*
X13368Y135390D01*
X13517Y135519D01*
X13665Y135648D01*
X13668Y135651D01*
X13672Y135654D01*
X13794Y135814D01*
X13912Y135966D01*
X13914Y135970D01*
X13917Y135974D01*
X14069Y136269D01*
X14869Y138202D01*
X17278Y140611D01*
X20426Y141915D01*
X23834Y141915D01*
X26982Y140611D01*
X29391Y138202D01*
X30695Y135054D01*
X30695Y131646D01*
X29391Y128498D01*
X26982Y126089D01*
X23834Y124785D01*
X20426Y124785D01*
X17278Y126089D01*
X14869Y128498D01*
X14069Y130431D01*
X14067Y130435D01*
X14065Y130439D01*
X13972Y130612D01*
X13878Y130786D01*
X13876Y130790D01*
X13873Y130793D01*
X13748Y130944D01*
X13622Y131096D01*
X13619Y131099D01*
X13616Y131103D01*
X13465Y131224D01*
X13309Y131350D01*
X13305Y131352D01*
X13302Y131355D01*
X13130Y131444D01*
X12953Y131537D01*
X12949Y131539D01*
X12945Y131541D01*
X12757Y131595D01*
X12566Y131650D01*
X12562Y131651D01*
X12558Y131652D01*
X12360Y131668D01*
X12165Y131685D01*
X12161Y131684D01*
X12156Y131685D01*
X11961Y131662D01*
X11765Y131640D01*
X11761Y131638D01*
X11757Y131638D01*
X11569Y131577D01*
X11382Y131517D01*
X11378Y131515D01*
X11374Y131513D01*
X11201Y131416D01*
X11030Y131320D01*
X11027Y131317D01*
X11023Y131315D01*
X10875Y131187D01*
X10725Y131058D01*
X10722Y131055D01*
X10718Y131052D01*
X10598Y130897D01*
X10476Y130741D01*
X10474Y130737D01*
X10472Y130734D01*
X10384Y130558D01*
X10296Y130382D01*
X10294Y130377D01*
X10292Y130373D01*
X10241Y130182D01*
X10189Y129993D01*
X10189Y129989D01*
X10188Y129985D01*
X10161Y129654D01*
X10161Y114023D01*
X10173Y113896D01*
X10177Y113767D01*
X10193Y113696D01*
X10201Y113622D01*
X10238Y113500D01*
X10267Y113375D01*
X10297Y113308D01*
X10319Y113238D01*
X10380Y113125D01*
X10433Y113008D01*
X10476Y112948D01*
X10511Y112884D01*
X10593Y112785D01*
X10667Y112681D01*
X10721Y112631D01*
X10768Y112574D01*
X10868Y112494D01*
X10962Y112407D01*
X11025Y112368D01*
X11082Y112322D01*
X11196Y112263D01*
X11305Y112196D01*
X11374Y112170D01*
X11439Y112136D01*
X11563Y112101D01*
X11683Y112057D01*
X11755Y112045D01*
X11826Y112025D01*
X11954Y112015D01*
X12081Y111995D01*
X12154Y111998D01*
X12228Y111992D01*
X12355Y112007D01*
X12483Y112013D01*
X12554Y112030D01*
X12627Y112039D01*
X12749Y112079D01*
X12874Y112110D01*
X12940Y112141D01*
X13010Y112164D01*
X13122Y112227D01*
X13238Y112282D01*
X13297Y112326D01*
X13361Y112362D01*
X13458Y112446D01*
X13561Y112522D01*
X13610Y112577D01*
X13665Y112625D01*
X13744Y112726D01*
X13830Y112822D01*
X13845Y112847D01*
X14822Y114191D01*
X15889Y115258D01*
X17109Y116144D01*
X18452Y116829D01*
X19881Y117293D01*
X19881Y108168D01*
X19882Y108150D01*
X19881Y108133D01*
X19900Y107969D01*
X19881Y107732D01*
X19881Y98607D01*
X18452Y99071D01*
X17109Y99756D01*
X15889Y100642D01*
X14822Y101709D01*
X13878Y103008D01*
X13873Y103016D01*
X13862Y103030D01*
X13842Y103058D01*
X13821Y103081D01*
X13787Y103135D01*
X13698Y103227D01*
X13616Y103326D01*
X13558Y103372D01*
X13507Y103425D01*
X13402Y103498D01*
X13302Y103578D01*
X13237Y103612D01*
X13176Y103654D01*
X13058Y103705D01*
X12945Y103764D01*
X12874Y103784D01*
X12806Y103813D01*
X12681Y103840D01*
X12558Y103875D01*
X12484Y103881D01*
X12412Y103896D01*
X12284Y103897D01*
X12156Y103908D01*
X12083Y103899D01*
X12010Y103900D01*
X11884Y103876D01*
X11757Y103861D01*
X11687Y103838D01*
X11614Y103824D01*
X11496Y103776D01*
X11374Y103736D01*
X11310Y103700D01*
X11242Y103672D01*
X11135Y103601D01*
X11023Y103538D01*
X10967Y103490D01*
X10906Y103449D01*
X10816Y103359D01*
X10718Y103275D01*
X10673Y103217D01*
X10621Y103165D01*
X10550Y103058D01*
X10472Y102957D01*
X10439Y102891D01*
X10398Y102830D01*
X10349Y102711D01*
X10292Y102596D01*
X10273Y102525D01*
X10245Y102457D01*
X10221Y102332D01*
X10188Y102208D01*
X10181Y102122D01*
X10169Y102062D01*
X10170Y101987D01*
X10161Y101877D01*
X10161Y12192D01*
X10163Y12174D01*
X10161Y12156D01*
X10182Y11974D01*
X10201Y11791D01*
X10206Y11774D01*
X10208Y11757D01*
X10265Y11582D01*
X10319Y11406D01*
X10327Y11391D01*
X10333Y11374D01*
X10423Y11214D01*
X10511Y11052D01*
X10522Y11039D01*
X10531Y11023D01*
X10651Y10884D01*
X10768Y10743D01*
X10782Y10732D01*
X10794Y10718D01*
X10939Y10606D01*
X11082Y10491D01*
X11098Y10483D01*
X11112Y10472D01*
X11277Y10390D01*
X11439Y10305D01*
X11456Y10300D01*
X11472Y10292D01*
X11651Y10244D01*
X11826Y10194D01*
X11844Y10192D01*
X11861Y10188D01*
X12192Y10161D01*
X29654Y10161D01*
X29800Y10175D01*
G37*
%LPC*%
G36*
X77726Y264485D02*
X77726Y264485D01*
X74578Y265789D01*
X72169Y268198D01*
X70865Y271346D01*
X70865Y274754D01*
X72169Y277902D01*
X74578Y280311D01*
X77726Y281615D01*
X81134Y281615D01*
X84282Y280311D01*
X86691Y277902D01*
X86918Y277353D01*
X86929Y277333D01*
X86936Y277312D01*
X87024Y277156D01*
X87108Y276998D01*
X87123Y276981D01*
X87134Y276961D01*
X87251Y276826D01*
X87365Y276687D01*
X87382Y276673D01*
X87397Y276656D01*
X87538Y276547D01*
X87677Y276434D01*
X87697Y276423D01*
X87715Y276410D01*
X87875Y276330D01*
X88034Y276247D01*
X88055Y276240D01*
X88075Y276230D01*
X88248Y276184D01*
X88420Y276134D01*
X88443Y276132D01*
X88464Y276126D01*
X88795Y276099D01*
X372546Y276099D01*
X372572Y276101D01*
X372599Y276099D01*
X372773Y276121D01*
X372946Y276139D01*
X372972Y276146D01*
X372999Y276150D01*
X373164Y276205D01*
X373331Y276257D01*
X373355Y276270D01*
X373380Y276278D01*
X373532Y276365D01*
X373685Y276449D01*
X373706Y276466D01*
X373729Y276479D01*
X373982Y276694D01*
X511540Y414251D01*
X511554Y414268D01*
X511571Y414283D01*
X511681Y414424D01*
X511795Y414563D01*
X511805Y414582D01*
X511819Y414600D01*
X511900Y414761D01*
X511983Y414918D01*
X511990Y414940D01*
X512000Y414960D01*
X512047Y415133D01*
X512098Y415304D01*
X512100Y415326D01*
X512106Y415348D01*
X512118Y415527D01*
X512134Y415705D01*
X512132Y415727D01*
X512134Y415750D01*
X512110Y415927D01*
X512091Y416106D01*
X512084Y416127D01*
X512081Y416149D01*
X511980Y416465D01*
X511635Y417297D01*
X511635Y420903D01*
X513015Y424235D01*
X515565Y426785D01*
X518897Y428165D01*
X522503Y428165D01*
X525835Y426785D01*
X528385Y424235D01*
X529765Y420903D01*
X529765Y417297D01*
X528385Y413965D01*
X525835Y411415D01*
X522503Y410035D01*
X518897Y410035D01*
X518065Y410380D01*
X518044Y410386D01*
X518024Y410396D01*
X517851Y410445D01*
X517679Y410496D01*
X517657Y410499D01*
X517636Y410504D01*
X517456Y410518D01*
X517279Y410535D01*
X517257Y410532D01*
X517234Y410534D01*
X517055Y410511D01*
X516878Y410493D01*
X516857Y410486D01*
X516835Y410483D01*
X516664Y410426D01*
X516494Y410373D01*
X516474Y410362D01*
X516453Y410355D01*
X516297Y410266D01*
X516141Y410180D01*
X516124Y410165D01*
X516104Y410154D01*
X515851Y409940D01*
X375913Y270001D01*
X88795Y270001D01*
X88773Y269999D01*
X88750Y270001D01*
X88573Y269979D01*
X88394Y269961D01*
X88373Y269955D01*
X88351Y269952D01*
X88180Y269896D01*
X88009Y269843D01*
X87990Y269833D01*
X87968Y269826D01*
X87812Y269737D01*
X87655Y269651D01*
X87638Y269637D01*
X87619Y269626D01*
X87483Y269508D01*
X87346Y269394D01*
X87332Y269376D01*
X87315Y269362D01*
X87206Y269219D01*
X87094Y269080D01*
X87083Y269060D01*
X87070Y269042D01*
X86918Y268747D01*
X86691Y268198D01*
X84282Y265789D01*
X81134Y264485D01*
X77726Y264485D01*
G37*
%LPD*%
%LPC*%
G36*
X468097Y410035D02*
X468097Y410035D01*
X464765Y411415D01*
X462215Y413965D01*
X460835Y417297D01*
X460835Y420903D01*
X462215Y424235D01*
X464765Y426785D01*
X468097Y428165D01*
X471703Y428165D01*
X472027Y428030D01*
X472049Y428024D01*
X472068Y428014D01*
X472242Y427966D01*
X472413Y427914D01*
X472435Y427912D01*
X472456Y427906D01*
X472636Y427893D01*
X472813Y427876D01*
X472835Y427878D01*
X472858Y427877D01*
X473036Y427899D01*
X473214Y427918D01*
X473235Y427924D01*
X473257Y427927D01*
X473427Y427984D01*
X473598Y428037D01*
X473618Y428048D01*
X473639Y428055D01*
X473794Y428145D01*
X473951Y428231D01*
X473968Y428245D01*
X473988Y428256D01*
X474241Y428471D01*
X478448Y432678D01*
X478465Y432699D01*
X478486Y432717D01*
X478592Y432854D01*
X478703Y432990D01*
X478716Y433014D01*
X478732Y433035D01*
X478810Y433191D01*
X478892Y433346D01*
X478900Y433371D01*
X478912Y433395D01*
X478957Y433564D01*
X479007Y433731D01*
X479009Y433758D01*
X479016Y433784D01*
X479043Y434115D01*
X479043Y435920D01*
X479042Y435929D01*
X479043Y435938D01*
X479022Y436130D01*
X479003Y436321D01*
X479001Y436329D01*
X479000Y436338D01*
X478942Y436521D01*
X478885Y436705D01*
X478881Y436713D01*
X478878Y436722D01*
X478785Y436891D01*
X478693Y437059D01*
X478688Y437066D01*
X478683Y437074D01*
X478558Y437222D01*
X478436Y437369D01*
X478429Y437374D01*
X478423Y437381D01*
X478271Y437501D01*
X478122Y437621D01*
X478114Y437625D01*
X478107Y437631D01*
X477934Y437719D01*
X477765Y437807D01*
X477756Y437809D01*
X477748Y437813D01*
X477563Y437865D01*
X477378Y437918D01*
X477369Y437919D01*
X477360Y437921D01*
X477168Y437935D01*
X476976Y437951D01*
X476968Y437950D01*
X476959Y437950D01*
X476767Y437926D01*
X476577Y437904D01*
X476568Y437901D01*
X476559Y437900D01*
X476377Y437839D01*
X476194Y437779D01*
X476186Y437775D01*
X476178Y437772D01*
X476010Y437676D01*
X475843Y437581D01*
X475836Y437575D01*
X475829Y437571D01*
X475576Y437356D01*
X475035Y436815D01*
X474431Y436565D01*
X471703Y435435D01*
X468097Y435435D01*
X464765Y436815D01*
X462215Y439365D01*
X460835Y442697D01*
X460835Y446303D01*
X462215Y449635D01*
X464765Y452185D01*
X467050Y453131D01*
X468097Y453565D01*
X471703Y453565D01*
X475210Y452112D01*
X475219Y452109D01*
X475227Y452105D01*
X475412Y452051D01*
X475596Y451996D01*
X475605Y451995D01*
X475613Y451992D01*
X475804Y451976D01*
X475996Y451957D01*
X476005Y451958D01*
X476014Y451958D01*
X476206Y451979D01*
X476397Y451999D01*
X476405Y452002D01*
X476414Y452003D01*
X476599Y452062D01*
X476781Y452119D01*
X476789Y452123D01*
X476798Y452126D01*
X476967Y452221D01*
X477135Y452312D01*
X477141Y452318D01*
X477149Y452322D01*
X477295Y452447D01*
X477443Y452571D01*
X477448Y452578D01*
X477455Y452584D01*
X477573Y452735D01*
X477694Y452886D01*
X477698Y452894D01*
X477703Y452901D01*
X477789Y453072D01*
X477878Y453244D01*
X477880Y453253D01*
X477884Y453261D01*
X477934Y453445D01*
X477987Y453632D01*
X477988Y453640D01*
X477990Y453649D01*
X478004Y453844D01*
X478018Y454033D01*
X478017Y454042D01*
X478018Y454051D01*
X477993Y454245D01*
X477970Y454433D01*
X477967Y454441D01*
X477966Y454450D01*
X477864Y454766D01*
X477293Y456144D01*
X477293Y458256D01*
X478101Y460206D01*
X479594Y461699D01*
X481544Y462507D01*
X483656Y462507D01*
X485606Y461699D01*
X487099Y460206D01*
X487907Y458256D01*
X487907Y456144D01*
X487336Y454766D01*
X487333Y454757D01*
X487329Y454750D01*
X487275Y454565D01*
X487219Y454381D01*
X487218Y454372D01*
X487216Y454363D01*
X487199Y454172D01*
X487181Y453980D01*
X487182Y453971D01*
X487181Y453962D01*
X487203Y453772D01*
X487223Y453579D01*
X487225Y453571D01*
X487226Y453562D01*
X487285Y453379D01*
X487343Y453195D01*
X487347Y453187D01*
X487350Y453179D01*
X487445Y453009D01*
X487536Y452842D01*
X487542Y452835D01*
X487546Y452827D01*
X487671Y452681D01*
X487795Y452534D01*
X487802Y452528D01*
X487808Y452521D01*
X487960Y452402D01*
X488110Y452283D01*
X488118Y452279D01*
X488125Y452273D01*
X488297Y452186D01*
X488468Y452099D01*
X488477Y452096D01*
X488485Y452092D01*
X488671Y452041D01*
X488855Y451989D01*
X488864Y451988D01*
X488873Y451986D01*
X489067Y451973D01*
X489257Y451958D01*
X489266Y451959D01*
X489275Y451958D01*
X489467Y451983D01*
X489656Y452007D01*
X489665Y452009D01*
X489674Y452010D01*
X489990Y452112D01*
X493497Y453565D01*
X497103Y453565D01*
X500435Y452185D01*
X502985Y449635D01*
X504365Y446303D01*
X504365Y442697D01*
X502985Y439365D01*
X500435Y436815D01*
X499831Y436565D01*
X497103Y435435D01*
X493497Y435435D01*
X490165Y436815D01*
X489624Y437356D01*
X489617Y437362D01*
X489612Y437369D01*
X489463Y437488D01*
X489313Y437611D01*
X489305Y437616D01*
X489298Y437621D01*
X489129Y437709D01*
X488957Y437800D01*
X488948Y437803D01*
X488941Y437807D01*
X488757Y437859D01*
X488571Y437915D01*
X488562Y437916D01*
X488554Y437918D01*
X488363Y437934D01*
X488170Y437951D01*
X488161Y437950D01*
X488152Y437951D01*
X487963Y437929D01*
X487770Y437908D01*
X487761Y437905D01*
X487753Y437904D01*
X487570Y437844D01*
X487386Y437786D01*
X487378Y437782D01*
X487370Y437779D01*
X487201Y437684D01*
X487034Y437591D01*
X487027Y437586D01*
X487019Y437581D01*
X486873Y437455D01*
X486727Y437331D01*
X486721Y437324D01*
X486714Y437318D01*
X486595Y437164D01*
X486477Y437015D01*
X486473Y437007D01*
X486468Y437000D01*
X486381Y436826D01*
X486295Y436656D01*
X486292Y436648D01*
X486288Y436639D01*
X486238Y436450D01*
X486187Y436268D01*
X486186Y436259D01*
X486184Y436251D01*
X486157Y435920D01*
X486157Y430327D01*
X479271Y423441D01*
X479257Y423424D01*
X479240Y423409D01*
X479129Y423268D01*
X479016Y423129D01*
X479005Y423110D01*
X478992Y423092D01*
X478911Y422932D01*
X478827Y422774D01*
X478821Y422752D01*
X478811Y422732D01*
X478763Y422559D01*
X478712Y422388D01*
X478710Y422365D01*
X478704Y422344D01*
X478692Y422166D01*
X478676Y421987D01*
X478678Y421964D01*
X478677Y421942D01*
X478700Y421766D01*
X478719Y421586D01*
X478726Y421565D01*
X478729Y421543D01*
X478830Y421227D01*
X478965Y420903D01*
X478965Y417297D01*
X477585Y413965D01*
X475035Y411415D01*
X471703Y410035D01*
X468097Y410035D01*
G37*
%LPD*%
%LPC*%
G36*
X214081Y478535D02*
X214081Y478535D01*
X210720Y479927D01*
X208147Y482500D01*
X206755Y485861D01*
X206755Y504739D01*
X208147Y508100D01*
X210720Y510673D01*
X214081Y512065D01*
X217719Y512065D01*
X221080Y510673D01*
X223653Y508100D01*
X225045Y504739D01*
X225045Y485861D01*
X223653Y482500D01*
X221080Y479927D01*
X217719Y478535D01*
X214081Y478535D01*
G37*
%LPD*%
%LPC*%
G36*
X239481Y478535D02*
X239481Y478535D01*
X236120Y479927D01*
X233547Y482500D01*
X232155Y485861D01*
X232155Y504739D01*
X233547Y508100D01*
X236120Y510673D01*
X239481Y512065D01*
X243119Y512065D01*
X246480Y510673D01*
X249053Y508100D01*
X250445Y504739D01*
X250445Y485861D01*
X249053Y482500D01*
X246480Y479927D01*
X243119Y478535D01*
X239481Y478535D01*
G37*
%LPD*%
%LPC*%
G36*
X282661Y486155D02*
X282661Y486155D01*
X279300Y487547D01*
X276727Y490120D01*
X275335Y493481D01*
X275335Y497119D01*
X276727Y500480D01*
X279300Y503053D01*
X282661Y504445D01*
X301539Y504445D01*
X304900Y503053D01*
X307473Y500480D01*
X308865Y497119D01*
X308865Y493481D01*
X307473Y490120D01*
X304900Y487547D01*
X301539Y486155D01*
X282661Y486155D01*
G37*
%LPD*%
%LPC*%
G36*
X130261Y486155D02*
X130261Y486155D01*
X126900Y487547D01*
X124327Y490120D01*
X122935Y493481D01*
X122935Y497119D01*
X124327Y500480D01*
X126900Y503053D01*
X130261Y504445D01*
X149139Y504445D01*
X152500Y503053D01*
X155073Y500480D01*
X156465Y497119D01*
X156465Y493481D01*
X155073Y490120D01*
X152500Y487547D01*
X149139Y486155D01*
X130261Y486155D01*
G37*
%LPD*%
%LPC*%
G36*
X480781Y554735D02*
X480781Y554735D01*
X477420Y556127D01*
X474847Y558700D01*
X473455Y562061D01*
X473455Y580939D01*
X474847Y584300D01*
X477420Y586873D01*
X478195Y587194D01*
X480781Y588265D01*
X484419Y588265D01*
X487780Y586873D01*
X490353Y584300D01*
X491745Y580939D01*
X491745Y562061D01*
X490353Y558700D01*
X487780Y556127D01*
X484419Y554735D01*
X480781Y554735D01*
G37*
%LPD*%
%LPC*%
G36*
X455381Y554735D02*
X455381Y554735D01*
X452020Y556127D01*
X449447Y558700D01*
X448055Y562061D01*
X448055Y580939D01*
X449447Y584300D01*
X452020Y586873D01*
X452795Y587194D01*
X455381Y588265D01*
X459019Y588265D01*
X462380Y586873D01*
X464953Y584300D01*
X466345Y580939D01*
X466345Y562061D01*
X464953Y558700D01*
X462380Y556127D01*
X459019Y554735D01*
X455381Y554735D01*
G37*
%LPD*%
%LPC*%
G36*
X506181Y554735D02*
X506181Y554735D01*
X502820Y556127D01*
X500247Y558700D01*
X498855Y562061D01*
X498855Y580939D01*
X500247Y584300D01*
X502820Y586873D01*
X503595Y587194D01*
X506181Y588265D01*
X509819Y588265D01*
X513180Y586873D01*
X515753Y584300D01*
X517145Y580939D01*
X517145Y562061D01*
X515753Y558700D01*
X513180Y556127D01*
X509819Y554735D01*
X506181Y554735D01*
G37*
%LPD*%
%LPC*%
G36*
X493497Y410035D02*
X493497Y410035D01*
X490165Y411415D01*
X487615Y413965D01*
X486235Y417297D01*
X486235Y420903D01*
X487615Y424235D01*
X490165Y426785D01*
X493497Y428165D01*
X497103Y428165D01*
X500435Y426785D01*
X502985Y424235D01*
X504365Y420903D01*
X504365Y417297D01*
X502985Y413965D01*
X500435Y411415D01*
X497103Y410035D01*
X493497Y410035D01*
G37*
%LPD*%
%LPC*%
G36*
X442697Y435435D02*
X442697Y435435D01*
X439365Y436815D01*
X436815Y439365D01*
X435435Y442697D01*
X435435Y446303D01*
X436815Y449635D01*
X439365Y452185D01*
X441650Y453131D01*
X442697Y453565D01*
X446303Y453565D01*
X449635Y452185D01*
X452185Y449635D01*
X453565Y446303D01*
X453565Y442697D01*
X452185Y439365D01*
X449635Y436815D01*
X449031Y436565D01*
X446303Y435435D01*
X442697Y435435D01*
G37*
%LPD*%
%LPC*%
G36*
X518897Y435435D02*
X518897Y435435D01*
X515565Y436815D01*
X513015Y439365D01*
X511635Y442697D01*
X511635Y446303D01*
X513015Y449635D01*
X515565Y452185D01*
X517850Y453131D01*
X518897Y453565D01*
X522503Y453565D01*
X525835Y452185D01*
X528385Y449635D01*
X529765Y446303D01*
X529765Y442697D01*
X528385Y439365D01*
X525835Y436815D01*
X525231Y436565D01*
X522503Y435435D01*
X518897Y435435D01*
G37*
%LPD*%
%LPC*%
G36*
X39526Y239085D02*
X39526Y239085D01*
X36378Y240389D01*
X33969Y242798D01*
X32665Y245946D01*
X32665Y249354D01*
X33969Y252502D01*
X36378Y254911D01*
X39526Y256215D01*
X42934Y256215D01*
X46082Y254911D01*
X48491Y252502D01*
X49795Y249354D01*
X49795Y245946D01*
X48491Y242798D01*
X46082Y240389D01*
X42934Y239085D01*
X39526Y239085D01*
G37*
%LPD*%
%LPC*%
G36*
X58626Y302585D02*
X58626Y302585D01*
X55478Y303889D01*
X53069Y306298D01*
X51765Y309446D01*
X51765Y312854D01*
X53069Y316002D01*
X55478Y318411D01*
X58626Y319715D01*
X62034Y319715D01*
X65182Y318411D01*
X67591Y316002D01*
X68895Y312854D01*
X68895Y309446D01*
X67591Y306298D01*
X65182Y303889D01*
X62034Y302585D01*
X58626Y302585D01*
G37*
%LPD*%
%LPC*%
G36*
X77726Y315285D02*
X77726Y315285D01*
X74578Y316589D01*
X72169Y318998D01*
X70865Y322146D01*
X70865Y325554D01*
X72169Y328702D01*
X74578Y331111D01*
X77726Y332415D01*
X81134Y332415D01*
X84282Y331111D01*
X86691Y328702D01*
X87995Y325554D01*
X87995Y322146D01*
X86691Y318998D01*
X84282Y316589D01*
X81134Y315285D01*
X77726Y315285D01*
G37*
%LPD*%
%LPC*%
G36*
X39526Y315285D02*
X39526Y315285D01*
X36378Y316589D01*
X33969Y318998D01*
X32665Y322146D01*
X32665Y325554D01*
X33969Y328702D01*
X36378Y331111D01*
X39526Y332415D01*
X42934Y332415D01*
X46082Y331111D01*
X48491Y328702D01*
X49795Y325554D01*
X49795Y322146D01*
X48491Y318998D01*
X46082Y316589D01*
X42934Y315285D01*
X39526Y315285D01*
G37*
%LPD*%
%LPC*%
G36*
X39526Y340685D02*
X39526Y340685D01*
X36378Y341989D01*
X33969Y344398D01*
X32665Y347546D01*
X32665Y350954D01*
X33969Y354102D01*
X36378Y356511D01*
X39526Y357815D01*
X42934Y357815D01*
X46082Y356511D01*
X48491Y354102D01*
X49795Y350954D01*
X49795Y347546D01*
X48491Y344398D01*
X46082Y341989D01*
X42934Y340685D01*
X39526Y340685D01*
G37*
%LPD*%
%LPC*%
G36*
X58626Y353385D02*
X58626Y353385D01*
X55478Y354689D01*
X53069Y357098D01*
X51765Y360246D01*
X51765Y363654D01*
X53069Y366802D01*
X55478Y369211D01*
X58626Y370515D01*
X62034Y370515D01*
X65182Y369211D01*
X67591Y366802D01*
X68895Y363654D01*
X68895Y360246D01*
X67591Y357098D01*
X65182Y354689D01*
X62034Y353385D01*
X58626Y353385D01*
G37*
%LPD*%
%LPC*%
G36*
X77726Y340685D02*
X77726Y340685D01*
X74578Y341989D01*
X72169Y344398D01*
X70865Y347546D01*
X70865Y350954D01*
X72169Y354102D01*
X74578Y356511D01*
X77726Y357815D01*
X81134Y357815D01*
X84282Y356511D01*
X86691Y354102D01*
X87995Y350954D01*
X87995Y347546D01*
X86691Y344398D01*
X84282Y341989D01*
X81134Y340685D01*
X77726Y340685D01*
G37*
%LPD*%
%LPC*%
G36*
X39526Y366085D02*
X39526Y366085D01*
X36378Y367389D01*
X33969Y369798D01*
X32665Y372946D01*
X32665Y376354D01*
X33969Y379502D01*
X36378Y381911D01*
X39526Y383215D01*
X42934Y383215D01*
X46082Y381911D01*
X48491Y379502D01*
X49795Y376354D01*
X49795Y372946D01*
X48491Y369798D01*
X46082Y367389D01*
X42934Y366085D01*
X39526Y366085D01*
G37*
%LPD*%
%LPC*%
G36*
X39526Y264485D02*
X39526Y264485D01*
X36378Y265789D01*
X33969Y268198D01*
X32665Y271346D01*
X32665Y274754D01*
X33969Y277902D01*
X36378Y280311D01*
X39526Y281615D01*
X42934Y281615D01*
X46082Y280311D01*
X48491Y277902D01*
X49795Y274754D01*
X49795Y271346D01*
X48491Y268198D01*
X46082Y265789D01*
X42934Y264485D01*
X39526Y264485D01*
G37*
%LPD*%
%LPC*%
G36*
X39526Y137485D02*
X39526Y137485D01*
X36378Y138789D01*
X33969Y141198D01*
X32665Y144346D01*
X32665Y147754D01*
X33969Y150902D01*
X36378Y153311D01*
X39526Y154615D01*
X42934Y154615D01*
X46082Y153311D01*
X48491Y150902D01*
X49795Y147754D01*
X49795Y144346D01*
X48491Y141198D01*
X46082Y138789D01*
X42934Y137485D01*
X39526Y137485D01*
G37*
%LPD*%
%LPC*%
G36*
X58626Y124785D02*
X58626Y124785D01*
X55478Y126089D01*
X53069Y128498D01*
X51765Y131646D01*
X51765Y135054D01*
X53069Y138202D01*
X55478Y140611D01*
X58626Y141915D01*
X62034Y141915D01*
X65182Y140611D01*
X67591Y138202D01*
X68895Y135054D01*
X68895Y131646D01*
X67591Y128498D01*
X65182Y126089D01*
X62034Y124785D01*
X58626Y124785D01*
G37*
%LPD*%
%LPC*%
G36*
X77726Y366085D02*
X77726Y366085D01*
X74578Y367389D01*
X72169Y369798D01*
X70865Y372946D01*
X70865Y376354D01*
X72169Y379502D01*
X74578Y381911D01*
X77726Y383215D01*
X81134Y383215D01*
X84282Y381911D01*
X86691Y379502D01*
X87995Y376354D01*
X87995Y372946D01*
X86691Y369798D01*
X84282Y367389D01*
X81134Y366085D01*
X77726Y366085D01*
G37*
%LPD*%
%LPC*%
G36*
X77726Y442285D02*
X77726Y442285D01*
X74578Y443589D01*
X72169Y445998D01*
X70865Y449146D01*
X70865Y452554D01*
X72169Y455702D01*
X74578Y458111D01*
X77726Y459415D01*
X81134Y459415D01*
X84282Y458111D01*
X86691Y455702D01*
X87995Y452554D01*
X87995Y449146D01*
X86691Y445998D01*
X84282Y443589D01*
X81134Y442285D01*
X77726Y442285D01*
G37*
%LPD*%
%LPC*%
G36*
X39526Y442285D02*
X39526Y442285D01*
X36378Y443589D01*
X33969Y445998D01*
X32665Y449146D01*
X32665Y452554D01*
X33969Y455702D01*
X36378Y458111D01*
X39526Y459415D01*
X42934Y459415D01*
X46082Y458111D01*
X48491Y455702D01*
X49795Y452554D01*
X49795Y449146D01*
X48491Y445998D01*
X46082Y443589D01*
X42934Y442285D01*
X39526Y442285D01*
G37*
%LPD*%
%LPC*%
G36*
X77726Y416885D02*
X77726Y416885D01*
X74578Y418189D01*
X72169Y420598D01*
X70865Y423746D01*
X70865Y427154D01*
X72169Y430302D01*
X74578Y432711D01*
X77726Y434015D01*
X81134Y434015D01*
X84282Y432711D01*
X86691Y430302D01*
X87995Y427154D01*
X87995Y423746D01*
X86691Y420598D01*
X84282Y418189D01*
X81134Y416885D01*
X77726Y416885D01*
G37*
%LPD*%
%LPC*%
G36*
X39526Y416885D02*
X39526Y416885D01*
X36378Y418189D01*
X33969Y420598D01*
X32665Y423746D01*
X32665Y427154D01*
X33969Y430302D01*
X36378Y432711D01*
X39526Y434015D01*
X42934Y434015D01*
X46082Y432711D01*
X48491Y430302D01*
X49795Y427154D01*
X49795Y423746D01*
X48491Y420598D01*
X46082Y418189D01*
X42934Y416885D01*
X39526Y416885D01*
G37*
%LPD*%
%LPC*%
G36*
X58626Y378785D02*
X58626Y378785D01*
X55478Y380089D01*
X53069Y382498D01*
X51765Y385646D01*
X51765Y389054D01*
X53069Y392202D01*
X55478Y394611D01*
X58626Y395915D01*
X62034Y395915D01*
X65182Y394611D01*
X67591Y392202D01*
X68895Y389054D01*
X68895Y385646D01*
X67591Y382498D01*
X65182Y380089D01*
X62034Y378785D01*
X58626Y378785D01*
G37*
%LPD*%
%LPC*%
G36*
X58626Y404185D02*
X58626Y404185D01*
X55478Y405489D01*
X53069Y407898D01*
X51765Y411046D01*
X51765Y414454D01*
X53069Y417602D01*
X55478Y420011D01*
X58626Y421315D01*
X62034Y421315D01*
X65182Y420011D01*
X67591Y417602D01*
X68895Y414454D01*
X68895Y411046D01*
X67591Y407898D01*
X65182Y405489D01*
X62034Y404185D01*
X58626Y404185D01*
G37*
%LPD*%
%LPC*%
G36*
X58626Y277185D02*
X58626Y277185D01*
X55478Y278489D01*
X53069Y280898D01*
X51765Y284046D01*
X51765Y287454D01*
X53069Y290602D01*
X55478Y293011D01*
X58626Y294315D01*
X62034Y294315D01*
X65182Y293011D01*
X67591Y290602D01*
X68895Y287454D01*
X68895Y284046D01*
X67591Y280898D01*
X65182Y278489D01*
X62034Y277185D01*
X58626Y277185D01*
G37*
%LPD*%
%LPC*%
G36*
X77726Y112085D02*
X77726Y112085D01*
X74578Y113389D01*
X72169Y115798D01*
X70865Y118946D01*
X70865Y122354D01*
X72169Y125502D01*
X74578Y127911D01*
X75111Y128131D01*
X77726Y129215D01*
X81134Y129215D01*
X84282Y127911D01*
X86691Y125502D01*
X87995Y122354D01*
X87995Y118946D01*
X86691Y115798D01*
X84282Y113389D01*
X81134Y112085D01*
X77726Y112085D01*
G37*
%LPD*%
%LPC*%
G36*
X39526Y112085D02*
X39526Y112085D01*
X36378Y113389D01*
X33969Y115798D01*
X32665Y118946D01*
X32665Y122354D01*
X33969Y125502D01*
X36378Y127911D01*
X36911Y128131D01*
X39526Y129215D01*
X42934Y129215D01*
X46082Y127911D01*
X48491Y125502D01*
X49795Y122354D01*
X49795Y118946D01*
X48491Y115798D01*
X46082Y113389D01*
X42934Y112085D01*
X39526Y112085D01*
G37*
%LPD*%
%LPC*%
G36*
X39526Y391485D02*
X39526Y391485D01*
X36378Y392789D01*
X33969Y395198D01*
X32665Y398346D01*
X32665Y401754D01*
X33969Y404902D01*
X36378Y407311D01*
X39526Y408615D01*
X42934Y408615D01*
X46082Y407311D01*
X48491Y404902D01*
X49795Y401754D01*
X49795Y398346D01*
X48491Y395198D01*
X46082Y392789D01*
X43881Y391878D01*
X42934Y391485D01*
X39526Y391485D01*
G37*
%LPD*%
%LPC*%
G36*
X77726Y391485D02*
X77726Y391485D01*
X74578Y392789D01*
X72169Y395198D01*
X70865Y398346D01*
X70865Y401754D01*
X72169Y404902D01*
X74578Y407311D01*
X77726Y408615D01*
X81134Y408615D01*
X84282Y407311D01*
X86691Y404902D01*
X87995Y401754D01*
X87995Y398346D01*
X86691Y395198D01*
X84282Y392789D01*
X82081Y391878D01*
X81134Y391485D01*
X77726Y391485D01*
G37*
%LPD*%
%LPC*%
G36*
X58626Y429585D02*
X58626Y429585D01*
X55478Y430889D01*
X53069Y433298D01*
X51765Y436446D01*
X51765Y439854D01*
X53069Y443002D01*
X55478Y445411D01*
X58626Y446715D01*
X62034Y446715D01*
X65182Y445411D01*
X67591Y443002D01*
X68895Y439854D01*
X68895Y436446D01*
X67591Y433298D01*
X65182Y430889D01*
X64173Y430471D01*
X62034Y429585D01*
X58626Y429585D01*
G37*
%LPD*%
%LPC*%
G36*
X58626Y505785D02*
X58626Y505785D01*
X55478Y507089D01*
X53069Y509498D01*
X51765Y512646D01*
X51765Y516054D01*
X53069Y519202D01*
X55478Y521611D01*
X56886Y522194D01*
X58626Y522915D01*
X62034Y522915D01*
X65182Y521611D01*
X67591Y519202D01*
X68895Y516054D01*
X68895Y512646D01*
X67591Y509498D01*
X65182Y507089D01*
X62034Y505785D01*
X58626Y505785D01*
G37*
%LPD*%
%LPC*%
G36*
X58626Y251785D02*
X58626Y251785D01*
X55478Y253089D01*
X53069Y255498D01*
X51765Y258646D01*
X51765Y262054D01*
X53069Y265202D01*
X55478Y267611D01*
X57112Y268287D01*
X57112Y268288D01*
X58626Y268915D01*
X62034Y268915D01*
X65182Y267611D01*
X67591Y265202D01*
X68895Y262054D01*
X68895Y258646D01*
X67591Y255498D01*
X65182Y253089D01*
X62034Y251785D01*
X58626Y251785D01*
G37*
%LPD*%
%LPC*%
G36*
X39526Y493085D02*
X39526Y493085D01*
X36378Y494389D01*
X33969Y496798D01*
X32665Y499946D01*
X32665Y503354D01*
X33969Y506502D01*
X36378Y508911D01*
X39526Y510215D01*
X42934Y510215D01*
X46082Y508911D01*
X48491Y506502D01*
X49795Y503354D01*
X49795Y499946D01*
X48491Y496798D01*
X46082Y494389D01*
X43791Y493440D01*
X43790Y493440D01*
X42934Y493085D01*
X39526Y493085D01*
G37*
%LPD*%
%LPC*%
G36*
X193039Y497839D02*
X193039Y497839D01*
X193039Y512779D01*
X194400Y512336D01*
X195825Y511610D01*
X197119Y510670D01*
X198250Y509539D01*
X199190Y508245D01*
X199916Y506820D01*
X200411Y505299D01*
X200661Y503720D01*
X200661Y497839D01*
X193039Y497839D01*
G37*
%LPD*%
%LPC*%
G36*
X294639Y472439D02*
X294639Y472439D01*
X294639Y480061D01*
X300520Y480061D01*
X302099Y479811D01*
X303620Y479316D01*
X305045Y478590D01*
X306339Y477650D01*
X307470Y476519D01*
X308410Y475225D01*
X309136Y473800D01*
X309579Y472439D01*
X294639Y472439D01*
G37*
%LPD*%
%LPC*%
G36*
X142239Y472439D02*
X142239Y472439D01*
X142239Y480061D01*
X148120Y480061D01*
X149699Y479811D01*
X151220Y479316D01*
X152645Y478590D01*
X153939Y477650D01*
X155070Y476519D01*
X156010Y475225D01*
X156736Y473800D01*
X157179Y472439D01*
X142239Y472439D01*
G37*
%LPD*%
%LPC*%
G36*
X193039Y492761D02*
X193039Y492761D01*
X200661Y492761D01*
X200661Y486880D01*
X200411Y485301D01*
X199916Y483780D01*
X199190Y482355D01*
X198250Y481061D01*
X197119Y479930D01*
X195825Y478990D01*
X194400Y478264D01*
X193039Y477821D01*
X193039Y492761D01*
G37*
%LPD*%
%LPC*%
G36*
X274621Y472439D02*
X274621Y472439D01*
X275064Y473800D01*
X275790Y475225D01*
X276730Y476519D01*
X277861Y477650D01*
X279155Y478590D01*
X280580Y479316D01*
X282101Y479811D01*
X283680Y480061D01*
X289561Y480061D01*
X289561Y472439D01*
X274621Y472439D01*
G37*
%LPD*%
%LPC*%
G36*
X122221Y472439D02*
X122221Y472439D01*
X122664Y473800D01*
X123390Y475225D01*
X124330Y476519D01*
X125461Y477650D01*
X126755Y478590D01*
X128180Y479316D01*
X129701Y479811D01*
X131280Y480061D01*
X137161Y480061D01*
X137161Y472439D01*
X122221Y472439D01*
G37*
%LPD*%
%LPC*%
G36*
X180339Y497839D02*
X180339Y497839D01*
X180339Y503720D01*
X180589Y505299D01*
X181084Y506820D01*
X181810Y508245D01*
X182750Y509539D01*
X183881Y510670D01*
X185175Y511610D01*
X186600Y512336D01*
X187961Y512779D01*
X187961Y497839D01*
X180339Y497839D01*
G37*
%LPD*%
%LPC*%
G36*
X142239Y459739D02*
X142239Y459739D01*
X142239Y467361D01*
X157179Y467361D01*
X156736Y466000D01*
X156010Y464575D01*
X155070Y463281D01*
X153939Y462150D01*
X152645Y461210D01*
X151220Y460484D01*
X149699Y459989D01*
X148120Y459739D01*
X142239Y459739D01*
G37*
%LPD*%
%LPC*%
G36*
X294639Y459739D02*
X294639Y459739D01*
X294639Y467361D01*
X309579Y467361D01*
X309136Y466000D01*
X308410Y464575D01*
X307470Y463281D01*
X306339Y462150D01*
X305045Y461210D01*
X303620Y460484D01*
X302099Y459989D01*
X300520Y459739D01*
X294639Y459739D01*
G37*
%LPD*%
%LPC*%
G36*
X283680Y459739D02*
X283680Y459739D01*
X282101Y459989D01*
X280580Y460484D01*
X279155Y461210D01*
X277861Y462150D01*
X276730Y463281D01*
X275790Y464575D01*
X275064Y466000D01*
X274621Y467361D01*
X289561Y467361D01*
X289561Y459739D01*
X283680Y459739D01*
G37*
%LPD*%
%LPC*%
G36*
X186600Y478264D02*
X186600Y478264D01*
X185175Y478990D01*
X183881Y479930D01*
X182750Y481061D01*
X181810Y482355D01*
X181084Y483780D01*
X180589Y485301D01*
X180339Y486880D01*
X180339Y492761D01*
X187961Y492761D01*
X187961Y477821D01*
X186600Y478264D01*
G37*
%LPD*%
%LPC*%
G36*
X421599Y421599D02*
X421599Y421599D01*
X421599Y428887D01*
X422970Y428442D01*
X424384Y427722D01*
X425667Y426789D01*
X426789Y425667D01*
X427722Y424384D01*
X428442Y422970D01*
X428887Y421599D01*
X421599Y421599D01*
G37*
%LPD*%
%LPC*%
G36*
X446999Y421599D02*
X446999Y421599D01*
X446999Y428887D01*
X448370Y428442D01*
X449784Y427722D01*
X451067Y426789D01*
X452189Y425667D01*
X453122Y424384D01*
X453842Y422970D01*
X454287Y421599D01*
X446999Y421599D01*
G37*
%LPD*%
%LPC*%
G36*
X446999Y416601D02*
X446999Y416601D01*
X454287Y416601D01*
X453842Y415230D01*
X453122Y413816D01*
X452189Y412533D01*
X451067Y411411D01*
X449784Y410478D01*
X448370Y409758D01*
X446999Y409313D01*
X446999Y416601D01*
G37*
%LPD*%
%LPC*%
G36*
X421599Y416601D02*
X421599Y416601D01*
X428887Y416601D01*
X428442Y415230D01*
X427722Y413816D01*
X426789Y412533D01*
X425667Y411411D01*
X424384Y410478D01*
X422970Y409758D01*
X421599Y409313D01*
X421599Y416601D01*
G37*
%LPD*%
%LPC*%
G36*
X434713Y421599D02*
X434713Y421599D01*
X435158Y422970D01*
X435878Y424384D01*
X436811Y425667D01*
X437933Y426789D01*
X439216Y427722D01*
X440630Y428442D01*
X442001Y428887D01*
X442001Y421599D01*
X434713Y421599D01*
G37*
%LPD*%
%LPC*%
G36*
X415230Y409758D02*
X415230Y409758D01*
X413816Y410478D01*
X412533Y411411D01*
X411411Y412533D01*
X410478Y413816D01*
X409758Y415230D01*
X409313Y416601D01*
X416601Y416601D01*
X416601Y409313D01*
X415230Y409758D01*
G37*
%LPD*%
%LPC*%
G36*
X440630Y409758D02*
X440630Y409758D01*
X439216Y410478D01*
X437933Y411411D01*
X436811Y412533D01*
X435878Y413816D01*
X435158Y415230D01*
X434713Y416601D01*
X442001Y416601D01*
X442001Y409313D01*
X440630Y409758D01*
G37*
%LPD*%
%LPC*%
G36*
X24379Y338799D02*
X24379Y338799D01*
X24379Y345893D01*
X25808Y345429D01*
X27151Y344744D01*
X28371Y343858D01*
X29438Y342791D01*
X30324Y341571D01*
X31009Y340228D01*
X31473Y338799D01*
X24379Y338799D01*
G37*
%LPD*%
%LPC*%
G36*
X62579Y338799D02*
X62579Y338799D01*
X62579Y345893D01*
X64008Y345429D01*
X65351Y344744D01*
X66571Y343858D01*
X67638Y342791D01*
X68524Y341571D01*
X69209Y340228D01*
X69673Y338799D01*
X62579Y338799D01*
G37*
%LPD*%
%LPC*%
G36*
X81679Y300699D02*
X81679Y300699D01*
X81679Y307793D01*
X83108Y307329D01*
X84451Y306644D01*
X85671Y305758D01*
X86738Y304691D01*
X87624Y303471D01*
X88309Y302128D01*
X88773Y300699D01*
X81679Y300699D01*
G37*
%LPD*%
%LPC*%
G36*
X43479Y529299D02*
X43479Y529299D01*
X43479Y536393D01*
X44908Y535929D01*
X46251Y535244D01*
X47471Y534358D01*
X48538Y533291D01*
X49424Y532071D01*
X50109Y530728D01*
X50573Y529299D01*
X43479Y529299D01*
G37*
%LPD*%
%LPC*%
G36*
X81679Y529299D02*
X81679Y529299D01*
X81679Y536393D01*
X83108Y535929D01*
X84451Y535244D01*
X85671Y534358D01*
X86738Y533291D01*
X87624Y532071D01*
X88309Y530728D01*
X88773Y529299D01*
X81679Y529299D01*
G37*
%LPD*%
%LPC*%
G36*
X43479Y300699D02*
X43479Y300699D01*
X43479Y307793D01*
X44908Y307329D01*
X46251Y306644D01*
X47471Y305758D01*
X48538Y304691D01*
X49424Y303471D01*
X50109Y302128D01*
X50573Y300699D01*
X43479Y300699D01*
G37*
%LPD*%
%LPC*%
G36*
X24379Y110199D02*
X24379Y110199D01*
X24379Y117293D01*
X25808Y116829D01*
X27151Y116144D01*
X28371Y115258D01*
X29438Y114191D01*
X30324Y112971D01*
X31009Y111628D01*
X31473Y110199D01*
X24379Y110199D01*
G37*
%LPD*%
%LPC*%
G36*
X62579Y110199D02*
X62579Y110199D01*
X62579Y117293D01*
X64008Y116829D01*
X65351Y116144D01*
X66571Y115258D01*
X67638Y114191D01*
X68524Y112971D01*
X69209Y111628D01*
X69673Y110199D01*
X62579Y110199D01*
G37*
%LPD*%
%LPC*%
G36*
X81679Y524801D02*
X81679Y524801D01*
X88773Y524801D01*
X88309Y523372D01*
X87624Y522028D01*
X86738Y520809D01*
X85671Y519742D01*
X84451Y518856D01*
X83108Y518171D01*
X81679Y517707D01*
X81679Y524801D01*
G37*
%LPD*%
%LPC*%
G36*
X43479Y524801D02*
X43479Y524801D01*
X50573Y524801D01*
X50109Y523372D01*
X49424Y522028D01*
X48538Y520809D01*
X47471Y519742D01*
X46251Y518856D01*
X44908Y518171D01*
X43479Y517707D01*
X43479Y524801D01*
G37*
%LPD*%
%LPC*%
G36*
X24379Y334301D02*
X24379Y334301D01*
X31473Y334301D01*
X31009Y332872D01*
X30324Y331528D01*
X29438Y330309D01*
X28371Y329242D01*
X27151Y328356D01*
X25808Y327671D01*
X24379Y327207D01*
X24379Y334301D01*
G37*
%LPD*%
%LPC*%
G36*
X62579Y334301D02*
X62579Y334301D01*
X69673Y334301D01*
X69209Y332872D01*
X68524Y331528D01*
X67638Y330309D01*
X66571Y329242D01*
X65351Y328356D01*
X64008Y327671D01*
X62579Y327207D01*
X62579Y334301D01*
G37*
%LPD*%
%LPC*%
G36*
X43479Y296201D02*
X43479Y296201D01*
X50573Y296201D01*
X50109Y294772D01*
X49424Y293428D01*
X48538Y292209D01*
X47471Y291142D01*
X46251Y290256D01*
X44908Y289571D01*
X43479Y289107D01*
X43479Y296201D01*
G37*
%LPD*%
%LPC*%
G36*
X81679Y296201D02*
X81679Y296201D01*
X88773Y296201D01*
X88309Y294772D01*
X87624Y293428D01*
X86738Y292209D01*
X85671Y291142D01*
X84451Y290256D01*
X83108Y289571D01*
X81679Y289107D01*
X81679Y296201D01*
G37*
%LPD*%
%LPC*%
G36*
X24379Y105701D02*
X24379Y105701D01*
X31473Y105701D01*
X31009Y104272D01*
X30324Y102928D01*
X29438Y101709D01*
X28371Y100642D01*
X27151Y99756D01*
X25808Y99071D01*
X24379Y98607D01*
X24379Y105701D01*
G37*
%LPD*%
%LPC*%
G36*
X62579Y105701D02*
X62579Y105701D01*
X69673Y105701D01*
X69209Y104272D01*
X68524Y102928D01*
X67638Y101709D01*
X66571Y100642D01*
X65351Y99756D01*
X64008Y99071D01*
X62579Y98607D01*
X62579Y105701D01*
G37*
%LPD*%
%LPC*%
G36*
X31887Y300699D02*
X31887Y300699D01*
X32351Y302128D01*
X33036Y303471D01*
X33922Y304691D01*
X34989Y305758D01*
X36209Y306644D01*
X37552Y307329D01*
X38981Y307793D01*
X38981Y300699D01*
X31887Y300699D01*
G37*
%LPD*%
%LPC*%
G36*
X50987Y338799D02*
X50987Y338799D01*
X51451Y340228D01*
X52136Y341571D01*
X53022Y342791D01*
X54089Y343858D01*
X55309Y344744D01*
X56652Y345429D01*
X58081Y345893D01*
X58081Y338799D01*
X50987Y338799D01*
G37*
%LPD*%
%LPC*%
G36*
X70087Y529299D02*
X70087Y529299D01*
X70551Y530728D01*
X71236Y532071D01*
X72122Y533291D01*
X73189Y534358D01*
X74409Y535244D01*
X75752Y535929D01*
X77181Y536393D01*
X77181Y529299D01*
X70087Y529299D01*
G37*
%LPD*%
%LPC*%
G36*
X31887Y529299D02*
X31887Y529299D01*
X32351Y530728D01*
X33036Y532071D01*
X33922Y533291D01*
X34989Y534358D01*
X36209Y535244D01*
X37552Y535929D01*
X38981Y536393D01*
X38981Y529299D01*
X31887Y529299D01*
G37*
%LPD*%
%LPC*%
G36*
X70087Y300699D02*
X70087Y300699D01*
X70551Y302128D01*
X71236Y303471D01*
X72122Y304691D01*
X73189Y305758D01*
X74409Y306644D01*
X75752Y307329D01*
X77181Y307793D01*
X77181Y300699D01*
X70087Y300699D01*
G37*
%LPD*%
%LPC*%
G36*
X50987Y110199D02*
X50987Y110199D01*
X51451Y111628D01*
X52136Y112971D01*
X53022Y114191D01*
X54089Y115258D01*
X55309Y116144D01*
X56652Y116829D01*
X58081Y117293D01*
X58081Y110199D01*
X50987Y110199D01*
G37*
%LPD*%
%LPC*%
G36*
X56652Y327671D02*
X56652Y327671D01*
X55309Y328356D01*
X54089Y329242D01*
X53022Y330309D01*
X52136Y331528D01*
X51451Y332872D01*
X50987Y334301D01*
X58081Y334301D01*
X58081Y327207D01*
X56652Y327671D01*
G37*
%LPD*%
%LPC*%
G36*
X75752Y289571D02*
X75752Y289571D01*
X74409Y290256D01*
X73189Y291142D01*
X72122Y292209D01*
X71236Y293428D01*
X70551Y294772D01*
X70087Y296201D01*
X77181Y296201D01*
X77181Y289107D01*
X75752Y289571D01*
G37*
%LPD*%
%LPC*%
G36*
X75752Y518171D02*
X75752Y518171D01*
X74409Y518856D01*
X73189Y519742D01*
X72122Y520809D01*
X71236Y522028D01*
X70551Y523372D01*
X70087Y524801D01*
X77181Y524801D01*
X77181Y517707D01*
X75752Y518171D01*
G37*
%LPD*%
%LPC*%
G36*
X37552Y289571D02*
X37552Y289571D01*
X36209Y290256D01*
X34989Y291142D01*
X33922Y292209D01*
X33036Y293428D01*
X32351Y294772D01*
X31887Y296201D01*
X38981Y296201D01*
X38981Y289107D01*
X37552Y289571D01*
G37*
%LPD*%
%LPC*%
G36*
X37552Y518171D02*
X37552Y518171D01*
X36209Y518856D01*
X34989Y519742D01*
X33922Y520809D01*
X33036Y522028D01*
X32351Y523372D01*
X31887Y524801D01*
X38981Y524801D01*
X38981Y517707D01*
X37552Y518171D01*
G37*
%LPD*%
%LPC*%
G36*
X56652Y99071D02*
X56652Y99071D01*
X55309Y99756D01*
X54089Y100642D01*
X53022Y101709D01*
X52136Y102928D01*
X51451Y104272D01*
X50987Y105701D01*
X58081Y105701D01*
X58081Y98607D01*
X56652Y99071D01*
G37*
%LPD*%
D10*
X419100Y444500D03*
X444500Y444500D03*
X469900Y444500D03*
X495300Y444500D03*
X520700Y444500D03*
X546100Y444500D03*
X571500Y444500D03*
X596900Y444500D03*
X596900Y419100D03*
X571500Y419100D03*
X546100Y419100D03*
X520700Y419100D03*
X495300Y419100D03*
X469900Y419100D03*
X444500Y419100D03*
X419100Y419100D03*
D11*
X60330Y107950D03*
X79430Y120650D03*
X60330Y133350D03*
X79430Y146050D03*
X60330Y158750D03*
X79430Y171450D03*
X60330Y184150D03*
X79430Y196850D03*
X60330Y209550D03*
X79430Y222250D03*
X60330Y234950D03*
X79430Y247650D03*
X60330Y260350D03*
X79430Y273050D03*
X60330Y285750D03*
X79430Y298450D03*
X60330Y311150D03*
X79430Y323850D03*
X60330Y336550D03*
X79430Y349250D03*
X60330Y361950D03*
X79430Y374650D03*
X60330Y387350D03*
X79430Y400050D03*
X60330Y412750D03*
X79430Y425450D03*
X60330Y438150D03*
X79430Y450850D03*
X60330Y463550D03*
X79430Y476250D03*
X60330Y488950D03*
X79430Y501650D03*
X60330Y514350D03*
X79430Y527050D03*
X22130Y107950D03*
X41230Y120650D03*
X22130Y133350D03*
X41230Y146050D03*
X22130Y158750D03*
X41230Y171450D03*
X22130Y184150D03*
X41230Y196850D03*
X22130Y209550D03*
X41230Y222250D03*
X22130Y234950D03*
X41230Y247650D03*
X22130Y260350D03*
X41230Y273050D03*
X22130Y285750D03*
X41230Y298450D03*
X22130Y311150D03*
X41230Y323850D03*
X22130Y336550D03*
X41230Y349250D03*
X22130Y361950D03*
X41230Y374650D03*
X22130Y387350D03*
X41230Y400050D03*
X22130Y412750D03*
X41230Y425450D03*
X22130Y438150D03*
X41230Y450850D03*
X22130Y463550D03*
X41230Y476250D03*
X22130Y488950D03*
X41230Y501650D03*
X22130Y514350D03*
X41230Y527050D03*
D12*
X457200Y563880D02*
X457200Y579120D01*
X482600Y579120D02*
X482600Y563880D01*
X508000Y563880D02*
X508000Y579120D01*
X190500Y502920D02*
X190500Y487680D01*
X215900Y487680D02*
X215900Y502920D01*
X241300Y502920D02*
X241300Y487680D01*
X284480Y495300D02*
X299720Y495300D01*
X299720Y469900D02*
X284480Y469900D01*
X147320Y469900D02*
X132080Y469900D01*
X132080Y495300D02*
X147320Y495300D01*
D13*
X482600Y457200D03*
D14*
X482600Y431800D01*
X469900Y419100D01*
D13*
X234950Y184150D03*
D15*
X60330Y184150D01*
D13*
X260350Y184150D03*
D15*
X44793Y184150D02*
X22130Y184150D01*
X44793Y184150D02*
X57421Y171522D01*
X235022Y158822D02*
X260350Y184150D01*
X235022Y158822D02*
X76521Y158822D01*
X63821Y171522D02*
X57421Y171522D01*
X63821Y171522D02*
X76521Y158822D01*
D13*
X299720Y196850D03*
D15*
X79430Y196850D01*
D13*
X334010Y207010D03*
D15*
X333938Y206938D01*
X73255Y206938D01*
X63167Y196850D02*
X41230Y196850D01*
X63167Y196850D02*
X73255Y206938D01*
D13*
X368300Y215900D03*
D15*
X91157Y215900D01*
X87419Y212162D01*
X62942Y212162D02*
X60330Y209550D01*
X62942Y212162D02*
X87419Y212162D01*
D13*
X411480Y234950D03*
D15*
X411408Y234878D01*
X75795Y234878D01*
X63239Y222322D02*
X57222Y222322D01*
X63239Y222322D02*
X75795Y234878D01*
X44450Y209550D02*
X22130Y209550D01*
X44450Y209550D02*
X57222Y222322D01*
X558800Y431800D02*
X571500Y419100D01*
X558800Y431800D02*
X558800Y457200D01*
X546100Y469900D01*
X355600Y469900D02*
X317500Y431800D01*
X123880Y431800D02*
X79430Y476250D01*
X355600Y469900D02*
X546100Y469900D01*
X317500Y431800D02*
X123880Y431800D01*
X584200Y431800D02*
X596900Y419100D01*
X584200Y456934D02*
X558534Y482600D01*
X304800Y444500D02*
X134620Y444500D01*
X90242Y488878D02*
X77065Y488878D01*
X64437Y476250D02*
X41230Y476250D01*
X584200Y456934D02*
X584200Y431800D01*
X558534Y482600D02*
X342900Y482600D01*
X304800Y444500D01*
X134620Y444500D02*
X90242Y488878D01*
X77065Y488878D02*
X64437Y476250D01*
X546100Y419100D02*
X546100Y342900D01*
X349250Y146050D01*
X79430Y146050D01*
X374650Y273050D02*
X520700Y419100D01*
X374650Y273050D02*
X79430Y273050D01*
M02*
