G04 EAGLE Gerber RS-274X export*
G75*
%MOMM*%
%FSLAX34Y34*%
%LPD*%
%INTop Copper*%
%IPPOS*%
%AMOC8*
5,1,8,0,0,1.08239X$1,22.5*%
G01*
%ADD10C,1.508000*%
%ADD11C,1.408000*%
%ADD12R,1.800000X2.150000*%
%ADD13R,1.080000X1.050000*%
%ADD14R,1.500000X2.000000*%
%ADD15R,3.800000X2.000000*%
%ADD16C,1.524000*%
%ADD17C,0.406400*%
%ADD18C,0.756400*%
%ADD19C,0.304800*%

G36*
X29800Y10175D02*
X29800Y10175D01*
X29946Y10182D01*
X29999Y10195D01*
X30055Y10201D01*
X30194Y10244D01*
X30336Y10279D01*
X30386Y10302D01*
X30440Y10319D01*
X30568Y10388D01*
X30700Y10451D01*
X30745Y10484D01*
X30794Y10511D01*
X30906Y10604D01*
X31023Y10691D01*
X31060Y10733D01*
X31103Y10768D01*
X31194Y10882D01*
X31292Y10991D01*
X31320Y11039D01*
X31355Y11082D01*
X31422Y11212D01*
X31497Y11338D01*
X31515Y11390D01*
X31541Y11439D01*
X31581Y11580D01*
X31629Y11718D01*
X31637Y11773D01*
X31652Y11826D01*
X31664Y11972D01*
X31684Y12117D01*
X31680Y12172D01*
X31685Y12228D01*
X31668Y12373D01*
X31659Y12519D01*
X31645Y12572D01*
X31638Y12627D01*
X31593Y12766D01*
X31555Y12908D01*
X31528Y12965D01*
X31513Y13010D01*
X31472Y13083D01*
X31413Y13208D01*
X28286Y18624D01*
X26639Y24769D01*
X26639Y31131D01*
X28286Y37276D01*
X31467Y42785D01*
X35965Y47283D01*
X41474Y50464D01*
X47619Y52111D01*
X53981Y52111D01*
X60126Y50464D01*
X65635Y47283D01*
X70133Y42785D01*
X73314Y37276D01*
X74961Y31131D01*
X74961Y24769D01*
X73314Y18624D01*
X70187Y13208D01*
X70127Y13074D01*
X70059Y12945D01*
X70044Y12891D01*
X70021Y12841D01*
X69988Y12698D01*
X69948Y12558D01*
X69943Y12502D01*
X69931Y12448D01*
X69927Y12302D01*
X69915Y12156D01*
X69922Y12101D01*
X69920Y12046D01*
X69945Y11901D01*
X69962Y11757D01*
X69979Y11704D01*
X69989Y11649D01*
X70041Y11513D01*
X70087Y11374D01*
X70114Y11325D01*
X70134Y11274D01*
X70213Y11151D01*
X70285Y11023D01*
X70321Y10981D01*
X70351Y10934D01*
X70452Y10829D01*
X70548Y10718D01*
X70592Y10684D01*
X70630Y10644D01*
X70751Y10561D01*
X70866Y10472D01*
X70916Y10447D01*
X70961Y10415D01*
X71096Y10357D01*
X71226Y10292D01*
X71280Y10278D01*
X71331Y10256D01*
X71474Y10226D01*
X71615Y10188D01*
X71678Y10183D01*
X71725Y10173D01*
X71809Y10172D01*
X71946Y10161D01*
X377688Y10161D01*
X377697Y10162D01*
X377706Y10161D01*
X377898Y10182D01*
X378089Y10201D01*
X378097Y10203D01*
X378106Y10204D01*
X378289Y10262D01*
X378474Y10319D01*
X378482Y10323D01*
X378490Y10326D01*
X378659Y10419D01*
X378828Y10511D01*
X378835Y10516D01*
X378843Y10521D01*
X378989Y10644D01*
X379137Y10768D01*
X379143Y10775D01*
X379150Y10781D01*
X379269Y10932D01*
X379389Y11082D01*
X379394Y11090D01*
X379399Y11097D01*
X379487Y11270D01*
X379575Y11439D01*
X379577Y11448D01*
X379581Y11456D01*
X379633Y11642D01*
X379686Y11826D01*
X379687Y11835D01*
X379689Y11844D01*
X379704Y12037D01*
X379719Y12228D01*
X379718Y12236D01*
X379719Y12245D01*
X379695Y12438D01*
X379672Y12627D01*
X379670Y12636D01*
X379668Y12645D01*
X379607Y12828D01*
X379547Y13010D01*
X379543Y13018D01*
X379540Y13026D01*
X379444Y13193D01*
X379350Y13361D01*
X379344Y13368D01*
X379339Y13375D01*
X379125Y13628D01*
X373789Y18964D01*
X370339Y27292D01*
X370339Y36308D01*
X373789Y44636D01*
X380164Y51011D01*
X384906Y52975D01*
X388492Y54461D01*
X397508Y54461D01*
X405836Y51011D01*
X412211Y44636D01*
X415661Y36308D01*
X415661Y27292D01*
X412211Y18964D01*
X406875Y13628D01*
X406870Y13621D01*
X406863Y13616D01*
X406743Y13466D01*
X406620Y13317D01*
X406616Y13309D01*
X406611Y13302D01*
X406522Y13132D01*
X406432Y12961D01*
X406429Y12952D01*
X406425Y12945D01*
X406372Y12760D01*
X406317Y12575D01*
X406316Y12566D01*
X406314Y12558D01*
X406298Y12366D01*
X406281Y12174D01*
X406281Y12165D01*
X406281Y12156D01*
X406303Y11967D01*
X406324Y11774D01*
X406327Y11765D01*
X406328Y11757D01*
X406387Y11575D01*
X406445Y11390D01*
X406450Y11382D01*
X406453Y11374D01*
X406548Y11205D01*
X406640Y11038D01*
X406646Y11031D01*
X406650Y11023D01*
X406776Y10877D01*
X406901Y10731D01*
X406908Y10725D01*
X406914Y10718D01*
X407065Y10601D01*
X407217Y10481D01*
X407225Y10477D01*
X407232Y10472D01*
X407404Y10386D01*
X407576Y10299D01*
X407584Y10296D01*
X407592Y10292D01*
X407779Y10242D01*
X407963Y10191D01*
X407972Y10190D01*
X407981Y10188D01*
X408312Y10161D01*
X607688Y10161D01*
X607697Y10162D01*
X607706Y10161D01*
X607898Y10182D01*
X608089Y10201D01*
X608097Y10203D01*
X608106Y10204D01*
X608289Y10262D01*
X608474Y10319D01*
X608482Y10323D01*
X608490Y10326D01*
X608659Y10419D01*
X608828Y10511D01*
X608835Y10516D01*
X608843Y10521D01*
X608989Y10644D01*
X609137Y10768D01*
X609143Y10775D01*
X609150Y10781D01*
X609269Y10932D01*
X609389Y11082D01*
X609394Y11090D01*
X609399Y11097D01*
X609487Y11270D01*
X609575Y11439D01*
X609577Y11448D01*
X609581Y11456D01*
X609633Y11642D01*
X609686Y11826D01*
X609687Y11835D01*
X609689Y11844D01*
X609704Y12037D01*
X609719Y12228D01*
X609718Y12236D01*
X609719Y12245D01*
X609695Y12438D01*
X609672Y12627D01*
X609670Y12636D01*
X609668Y12645D01*
X609607Y12828D01*
X609547Y13010D01*
X609543Y13018D01*
X609540Y13026D01*
X609444Y13193D01*
X609350Y13361D01*
X609344Y13368D01*
X609339Y13375D01*
X609125Y13628D01*
X603789Y18964D01*
X600339Y27292D01*
X600339Y36308D01*
X603789Y44636D01*
X610164Y51011D01*
X614906Y52975D01*
X618492Y54461D01*
X627508Y54461D01*
X634731Y51469D01*
X634744Y51465D01*
X634755Y51459D01*
X634936Y51407D01*
X635116Y51352D01*
X635129Y51351D01*
X635142Y51347D01*
X635330Y51332D01*
X635517Y51314D01*
X635530Y51316D01*
X635544Y51314D01*
X635731Y51336D01*
X635917Y51356D01*
X635930Y51360D01*
X635943Y51361D01*
X636123Y51420D01*
X636302Y51476D01*
X636313Y51482D01*
X636326Y51486D01*
X636491Y51579D01*
X636655Y51669D01*
X636665Y51678D01*
X636677Y51684D01*
X636819Y51807D01*
X636963Y51928D01*
X636971Y51939D01*
X636982Y51947D01*
X637097Y52096D01*
X637214Y52243D01*
X637220Y52255D01*
X637228Y52265D01*
X637312Y52434D01*
X637398Y52601D01*
X637402Y52614D01*
X637408Y52626D01*
X637457Y52809D01*
X637508Y52988D01*
X637509Y53002D01*
X637512Y53015D01*
X637539Y53345D01*
X637539Y420255D01*
X637538Y420268D01*
X637539Y420281D01*
X637518Y420467D01*
X637499Y420655D01*
X637495Y420668D01*
X637494Y420681D01*
X637436Y420860D01*
X637381Y421040D01*
X637375Y421052D01*
X637371Y421065D01*
X637279Y421229D01*
X637189Y421394D01*
X637181Y421404D01*
X637174Y421416D01*
X637052Y421559D01*
X636932Y421703D01*
X636921Y421712D01*
X636913Y421722D01*
X636764Y421838D01*
X636618Y421956D01*
X636606Y421962D01*
X636596Y421970D01*
X636427Y422055D01*
X636261Y422141D01*
X636248Y422145D01*
X636236Y422151D01*
X636054Y422201D01*
X635874Y422253D01*
X635860Y422254D01*
X635847Y422257D01*
X635659Y422270D01*
X635472Y422286D01*
X635459Y422284D01*
X635446Y422285D01*
X635258Y422260D01*
X635073Y422239D01*
X635060Y422234D01*
X635047Y422233D01*
X634731Y422131D01*
X627508Y419139D01*
X618492Y419139D01*
X610164Y422589D01*
X609024Y423729D01*
X609021Y423731D01*
X609018Y423735D01*
X608862Y423861D01*
X608713Y423984D01*
X608709Y423986D01*
X608705Y423989D01*
X608528Y424082D01*
X608357Y424172D01*
X608353Y424174D01*
X608349Y424176D01*
X608159Y424231D01*
X607971Y424287D01*
X607967Y424288D01*
X607962Y424289D01*
X607770Y424305D01*
X607570Y424324D01*
X607566Y424323D01*
X607561Y424323D01*
X607371Y424302D01*
X607170Y424280D01*
X607165Y424279D01*
X607161Y424278D01*
X606975Y424219D01*
X606786Y424159D01*
X606782Y424157D01*
X606778Y424155D01*
X606607Y424060D01*
X606434Y423964D01*
X606430Y423961D01*
X606426Y423959D01*
X606278Y423832D01*
X606127Y423703D01*
X606124Y423700D01*
X606120Y423697D01*
X606000Y423543D01*
X605877Y423387D01*
X605875Y423383D01*
X605872Y423380D01*
X605785Y423206D01*
X605695Y423029D01*
X605693Y423024D01*
X605691Y423020D01*
X605640Y422831D01*
X605587Y422641D01*
X605586Y422636D01*
X605585Y422632D01*
X605572Y422436D01*
X605557Y422239D01*
X605558Y422235D01*
X605558Y422230D01*
X605583Y422034D01*
X605608Y421840D01*
X605609Y421835D01*
X605610Y421831D01*
X605711Y421515D01*
X605965Y420903D01*
X605965Y417297D01*
X604585Y413965D01*
X602035Y411415D01*
X598703Y410035D01*
X595097Y410035D01*
X591765Y411415D01*
X590716Y412464D01*
X590709Y412470D01*
X590704Y412477D01*
X590553Y412598D01*
X590405Y412719D01*
X590397Y412723D01*
X590390Y412729D01*
X590220Y412818D01*
X590049Y412908D01*
X590040Y412910D01*
X590033Y412915D01*
X589848Y412968D01*
X589663Y413023D01*
X589654Y413024D01*
X589646Y413026D01*
X589455Y413042D01*
X589262Y413059D01*
X589253Y413058D01*
X589244Y413059D01*
X589055Y413037D01*
X588862Y413016D01*
X588853Y413013D01*
X588845Y413012D01*
X588663Y412953D01*
X588478Y412894D01*
X588470Y412890D01*
X588462Y412887D01*
X588295Y412793D01*
X588126Y412699D01*
X588119Y412694D01*
X588111Y412689D01*
X587966Y412564D01*
X587819Y412439D01*
X587813Y412432D01*
X587806Y412426D01*
X587690Y412276D01*
X587569Y412123D01*
X587565Y412115D01*
X587560Y412108D01*
X587475Y411937D01*
X587387Y411764D01*
X587384Y411755D01*
X587380Y411747D01*
X587331Y411562D01*
X587279Y411376D01*
X587278Y411367D01*
X587276Y411359D01*
X587249Y411028D01*
X587249Y405137D01*
X417382Y235270D01*
X417365Y235249D01*
X417344Y235232D01*
X417237Y235094D01*
X417127Y234959D01*
X417114Y234935D01*
X417098Y234914D01*
X417020Y234757D01*
X416938Y234603D01*
X416930Y234577D01*
X416918Y234553D01*
X416873Y234384D01*
X416823Y234217D01*
X416821Y234190D01*
X416814Y234165D01*
X416793Y233909D01*
X415979Y231944D01*
X414486Y230451D01*
X412536Y229643D01*
X410424Y229643D01*
X408474Y230451D01*
X406981Y231944D01*
X406173Y233894D01*
X406173Y236006D01*
X406981Y237956D01*
X408474Y239449D01*
X410424Y240257D01*
X412904Y240257D01*
X412930Y240259D01*
X412957Y240257D01*
X413131Y240279D01*
X413304Y240297D01*
X413330Y240304D01*
X413357Y240308D01*
X413522Y240363D01*
X413689Y240415D01*
X413713Y240428D01*
X413738Y240436D01*
X413890Y240523D01*
X414043Y240607D01*
X414064Y240624D01*
X414087Y240637D01*
X414340Y240852D01*
X580556Y407068D01*
X580573Y407089D01*
X580594Y407106D01*
X580701Y407244D01*
X580811Y407379D01*
X580824Y407403D01*
X580840Y407424D01*
X580918Y407581D01*
X581000Y407735D01*
X581008Y407761D01*
X581020Y407785D01*
X581065Y407954D01*
X581115Y408121D01*
X581117Y408148D01*
X581124Y408173D01*
X581151Y408504D01*
X581151Y411028D01*
X581150Y411037D01*
X581151Y411046D01*
X581130Y411238D01*
X581111Y411429D01*
X581109Y411437D01*
X581108Y411446D01*
X581050Y411628D01*
X580993Y411813D01*
X580989Y411821D01*
X580986Y411830D01*
X580893Y411998D01*
X580801Y412167D01*
X580796Y412174D01*
X580791Y412182D01*
X580666Y412330D01*
X580544Y412477D01*
X580537Y412482D01*
X580531Y412489D01*
X580380Y412608D01*
X580230Y412729D01*
X580222Y412733D01*
X580215Y412739D01*
X580044Y412826D01*
X579873Y412915D01*
X579864Y412917D01*
X579856Y412921D01*
X579670Y412973D01*
X579486Y413026D01*
X579477Y413027D01*
X579468Y413029D01*
X579276Y413043D01*
X579084Y413059D01*
X579076Y413058D01*
X579067Y413058D01*
X578874Y413034D01*
X578685Y413012D01*
X578676Y413009D01*
X578667Y413008D01*
X578484Y412947D01*
X578302Y412887D01*
X578294Y412883D01*
X578286Y412880D01*
X578120Y412784D01*
X577951Y412689D01*
X577944Y412683D01*
X577937Y412679D01*
X577684Y412464D01*
X576635Y411415D01*
X573303Y410035D01*
X569697Y410035D01*
X566365Y411415D01*
X565316Y412464D01*
X565309Y412470D01*
X565304Y412477D01*
X565153Y412598D01*
X565005Y412719D01*
X564997Y412723D01*
X564990Y412729D01*
X564820Y412818D01*
X564649Y412908D01*
X564640Y412910D01*
X564633Y412915D01*
X564448Y412968D01*
X564263Y413023D01*
X564254Y413024D01*
X564246Y413026D01*
X564055Y413042D01*
X563862Y413059D01*
X563853Y413058D01*
X563844Y413059D01*
X563655Y413037D01*
X563462Y413016D01*
X563453Y413013D01*
X563445Y413012D01*
X563263Y412953D01*
X563078Y412894D01*
X563070Y412890D01*
X563062Y412887D01*
X562895Y412793D01*
X562726Y412699D01*
X562719Y412694D01*
X562711Y412689D01*
X562566Y412564D01*
X562419Y412439D01*
X562413Y412432D01*
X562406Y412426D01*
X562290Y412276D01*
X562169Y412123D01*
X562165Y412115D01*
X562160Y412108D01*
X562075Y411937D01*
X561987Y411764D01*
X561984Y411755D01*
X561980Y411747D01*
X561931Y411562D01*
X561879Y411376D01*
X561878Y411367D01*
X561876Y411359D01*
X561849Y411028D01*
X561849Y405137D01*
X374202Y217490D01*
X374185Y217469D01*
X374164Y217452D01*
X374057Y217314D01*
X373947Y217179D01*
X373934Y217155D01*
X373918Y217134D01*
X373840Y216977D01*
X373758Y216823D01*
X373750Y216797D01*
X373738Y216773D01*
X373693Y216604D01*
X373643Y216437D01*
X373641Y216410D01*
X373634Y216385D01*
X373607Y216054D01*
X373607Y214844D01*
X372799Y212894D01*
X371306Y211401D01*
X370570Y211096D01*
X369356Y210593D01*
X367244Y210593D01*
X365294Y211401D01*
X363801Y212894D01*
X362993Y214844D01*
X362993Y216956D01*
X363801Y218906D01*
X365294Y220399D01*
X367244Y221207D01*
X368454Y221207D01*
X368480Y221209D01*
X368507Y221207D01*
X368681Y221229D01*
X368854Y221247D01*
X368880Y221254D01*
X368907Y221258D01*
X369072Y221313D01*
X369239Y221365D01*
X369263Y221378D01*
X369288Y221386D01*
X369440Y221473D01*
X369593Y221557D01*
X369614Y221574D01*
X369637Y221587D01*
X369890Y221802D01*
X555156Y407068D01*
X555173Y407089D01*
X555194Y407106D01*
X555301Y407244D01*
X555411Y407379D01*
X555424Y407403D01*
X555440Y407424D01*
X555518Y407581D01*
X555600Y407735D01*
X555608Y407761D01*
X555620Y407785D01*
X555665Y407954D01*
X555715Y408121D01*
X555717Y408148D01*
X555724Y408173D01*
X555751Y408504D01*
X555751Y411028D01*
X555750Y411037D01*
X555751Y411046D01*
X555730Y411238D01*
X555711Y411429D01*
X555709Y411437D01*
X555708Y411446D01*
X555650Y411628D01*
X555593Y411813D01*
X555589Y411821D01*
X555586Y411830D01*
X555493Y411998D01*
X555401Y412167D01*
X555396Y412174D01*
X555391Y412182D01*
X555266Y412330D01*
X555144Y412477D01*
X555137Y412482D01*
X555131Y412489D01*
X554980Y412608D01*
X554830Y412729D01*
X554822Y412733D01*
X554815Y412739D01*
X554644Y412826D01*
X554473Y412915D01*
X554464Y412917D01*
X554456Y412921D01*
X554270Y412973D01*
X554086Y413026D01*
X554077Y413027D01*
X554068Y413029D01*
X553876Y413043D01*
X553684Y413059D01*
X553676Y413058D01*
X553667Y413058D01*
X553474Y413034D01*
X553285Y413012D01*
X553276Y413009D01*
X553267Y413008D01*
X553084Y412947D01*
X552902Y412887D01*
X552894Y412883D01*
X552886Y412880D01*
X552720Y412784D01*
X552551Y412689D01*
X552544Y412683D01*
X552537Y412679D01*
X552284Y412464D01*
X551235Y411415D01*
X547903Y410035D01*
X544297Y410035D01*
X540965Y411415D01*
X539916Y412464D01*
X539909Y412470D01*
X539904Y412477D01*
X539753Y412598D01*
X539605Y412719D01*
X539597Y412723D01*
X539590Y412729D01*
X539420Y412818D01*
X539249Y412908D01*
X539240Y412910D01*
X539233Y412915D01*
X539048Y412968D01*
X538863Y413023D01*
X538854Y413024D01*
X538846Y413026D01*
X538655Y413042D01*
X538462Y413059D01*
X538453Y413058D01*
X538444Y413059D01*
X538255Y413037D01*
X538062Y413016D01*
X538053Y413013D01*
X538045Y413012D01*
X537863Y412953D01*
X537678Y412894D01*
X537670Y412890D01*
X537662Y412887D01*
X537495Y412793D01*
X537326Y412699D01*
X537319Y412694D01*
X537311Y412689D01*
X537166Y412564D01*
X537019Y412439D01*
X537013Y412432D01*
X537006Y412426D01*
X536890Y412276D01*
X536769Y412123D01*
X536765Y412115D01*
X536760Y412108D01*
X536675Y411937D01*
X536587Y411764D01*
X536584Y411755D01*
X536580Y411747D01*
X536531Y411562D01*
X536479Y411376D01*
X536478Y411367D01*
X536476Y411359D01*
X536449Y411028D01*
X536449Y405137D01*
X339912Y208600D01*
X339895Y208579D01*
X339874Y208562D01*
X339767Y208424D01*
X339657Y208289D01*
X339644Y208265D01*
X339628Y208244D01*
X339550Y208087D01*
X339468Y207933D01*
X339460Y207907D01*
X339448Y207883D01*
X339403Y207714D01*
X339353Y207547D01*
X339351Y207520D01*
X339344Y207495D01*
X339317Y207164D01*
X339317Y205954D01*
X338509Y204004D01*
X337016Y202511D01*
X335066Y201703D01*
X332954Y201703D01*
X331004Y202511D01*
X329511Y204004D01*
X328703Y205954D01*
X328703Y208066D01*
X329511Y210016D01*
X331004Y211509D01*
X332954Y212317D01*
X334164Y212317D01*
X334190Y212319D01*
X334217Y212317D01*
X334391Y212339D01*
X334564Y212357D01*
X334590Y212364D01*
X334617Y212368D01*
X334782Y212423D01*
X334949Y212475D01*
X334973Y212488D01*
X334998Y212496D01*
X335150Y212583D01*
X335303Y212667D01*
X335324Y212684D01*
X335347Y212697D01*
X335600Y212912D01*
X529756Y407068D01*
X529773Y407089D01*
X529794Y407106D01*
X529901Y407244D01*
X530011Y407379D01*
X530024Y407403D01*
X530040Y407424D01*
X530118Y407581D01*
X530200Y407735D01*
X530208Y407761D01*
X530220Y407785D01*
X530265Y407954D01*
X530315Y408121D01*
X530317Y408148D01*
X530324Y408173D01*
X530351Y408504D01*
X530351Y411028D01*
X530350Y411037D01*
X530351Y411046D01*
X530330Y411238D01*
X530311Y411429D01*
X530309Y411437D01*
X530308Y411446D01*
X530250Y411628D01*
X530193Y411813D01*
X530189Y411821D01*
X530186Y411830D01*
X530093Y411998D01*
X530001Y412167D01*
X529996Y412174D01*
X529991Y412182D01*
X529866Y412330D01*
X529744Y412477D01*
X529737Y412482D01*
X529731Y412489D01*
X529580Y412608D01*
X529430Y412729D01*
X529422Y412733D01*
X529415Y412739D01*
X529244Y412826D01*
X529073Y412915D01*
X529064Y412917D01*
X529056Y412921D01*
X528870Y412973D01*
X528686Y413026D01*
X528677Y413027D01*
X528668Y413029D01*
X528476Y413043D01*
X528284Y413059D01*
X528276Y413058D01*
X528267Y413058D01*
X528074Y413034D01*
X527885Y413012D01*
X527876Y413009D01*
X527867Y413008D01*
X527684Y412947D01*
X527502Y412887D01*
X527494Y412883D01*
X527486Y412880D01*
X527320Y412784D01*
X527151Y412689D01*
X527144Y412683D01*
X527137Y412679D01*
X526884Y412464D01*
X525835Y411415D01*
X522503Y410035D01*
X518897Y410035D01*
X515565Y411415D01*
X514516Y412464D01*
X514509Y412470D01*
X514504Y412477D01*
X514353Y412598D01*
X514205Y412719D01*
X514197Y412723D01*
X514190Y412729D01*
X514020Y412818D01*
X513849Y412908D01*
X513840Y412910D01*
X513833Y412915D01*
X513648Y412968D01*
X513463Y413023D01*
X513454Y413024D01*
X513446Y413026D01*
X513255Y413042D01*
X513062Y413059D01*
X513053Y413058D01*
X513044Y413059D01*
X512855Y413037D01*
X512662Y413016D01*
X512653Y413013D01*
X512645Y413012D01*
X512463Y412953D01*
X512278Y412894D01*
X512270Y412890D01*
X512262Y412887D01*
X512095Y412793D01*
X511926Y412699D01*
X511919Y412694D01*
X511911Y412689D01*
X511766Y412564D01*
X511619Y412439D01*
X511613Y412432D01*
X511606Y412426D01*
X511490Y412276D01*
X511369Y412123D01*
X511365Y412115D01*
X511360Y412108D01*
X511275Y411937D01*
X511187Y411764D01*
X511184Y411755D01*
X511180Y411747D01*
X511131Y411562D01*
X511079Y411376D01*
X511078Y411367D01*
X511076Y411359D01*
X511049Y411028D01*
X511049Y405137D01*
X305622Y199710D01*
X305605Y199689D01*
X305584Y199672D01*
X305477Y199534D01*
X305367Y199399D01*
X305354Y199375D01*
X305338Y199354D01*
X305260Y199197D01*
X305178Y199043D01*
X305170Y199017D01*
X305158Y198993D01*
X305113Y198824D01*
X305063Y198657D01*
X305061Y198630D01*
X305054Y198605D01*
X305027Y198274D01*
X305027Y195794D01*
X304219Y193844D01*
X302726Y192351D01*
X300776Y191543D01*
X298664Y191543D01*
X296714Y192351D01*
X295221Y193844D01*
X294413Y195794D01*
X294413Y197906D01*
X295221Y199856D01*
X296714Y201349D01*
X298670Y202159D01*
X298831Y202179D01*
X299004Y202197D01*
X299030Y202204D01*
X299057Y202208D01*
X299222Y202263D01*
X299389Y202315D01*
X299413Y202328D01*
X299438Y202336D01*
X299590Y202423D01*
X299743Y202507D01*
X299764Y202524D01*
X299787Y202537D01*
X300040Y202752D01*
X504356Y407068D01*
X504373Y407089D01*
X504394Y407106D01*
X504501Y407244D01*
X504611Y407379D01*
X504624Y407403D01*
X504640Y407424D01*
X504718Y407581D01*
X504800Y407735D01*
X504808Y407761D01*
X504820Y407785D01*
X504865Y407954D01*
X504915Y408121D01*
X504917Y408148D01*
X504924Y408173D01*
X504951Y408504D01*
X504951Y411028D01*
X504950Y411037D01*
X504951Y411046D01*
X504930Y411238D01*
X504911Y411429D01*
X504909Y411437D01*
X504908Y411446D01*
X504850Y411628D01*
X504793Y411813D01*
X504789Y411821D01*
X504786Y411830D01*
X504693Y411998D01*
X504601Y412167D01*
X504596Y412174D01*
X504591Y412182D01*
X504466Y412330D01*
X504344Y412477D01*
X504337Y412482D01*
X504331Y412489D01*
X504180Y412608D01*
X504030Y412729D01*
X504022Y412733D01*
X504015Y412739D01*
X503844Y412826D01*
X503673Y412915D01*
X503664Y412917D01*
X503656Y412921D01*
X503470Y412973D01*
X503286Y413026D01*
X503277Y413027D01*
X503268Y413029D01*
X503076Y413043D01*
X502884Y413059D01*
X502876Y413058D01*
X502867Y413058D01*
X502674Y413034D01*
X502485Y413012D01*
X502476Y413009D01*
X502467Y413008D01*
X502284Y412947D01*
X502102Y412887D01*
X502094Y412883D01*
X502086Y412880D01*
X501920Y412784D01*
X501751Y412689D01*
X501744Y412683D01*
X501737Y412679D01*
X501484Y412464D01*
X500435Y411415D01*
X497103Y410035D01*
X493497Y410035D01*
X490165Y411415D01*
X489116Y412464D01*
X489109Y412470D01*
X489104Y412477D01*
X488953Y412598D01*
X488805Y412719D01*
X488797Y412723D01*
X488790Y412729D01*
X488620Y412818D01*
X488449Y412908D01*
X488440Y412910D01*
X488433Y412915D01*
X488248Y412968D01*
X488063Y413023D01*
X488054Y413024D01*
X488046Y413026D01*
X487855Y413042D01*
X487662Y413059D01*
X487653Y413058D01*
X487644Y413059D01*
X487455Y413037D01*
X487262Y413016D01*
X487253Y413013D01*
X487245Y413012D01*
X487063Y412953D01*
X486878Y412894D01*
X486870Y412890D01*
X486862Y412887D01*
X486695Y412793D01*
X486526Y412699D01*
X486519Y412694D01*
X486511Y412689D01*
X486366Y412564D01*
X486219Y412439D01*
X486213Y412432D01*
X486206Y412426D01*
X486090Y412276D01*
X485969Y412123D01*
X485965Y412115D01*
X485960Y412108D01*
X485875Y411937D01*
X485787Y411764D01*
X485784Y411755D01*
X485780Y411747D01*
X485731Y411562D01*
X485679Y411376D01*
X485678Y411367D01*
X485676Y411359D01*
X485649Y411028D01*
X485649Y405137D01*
X266252Y185740D01*
X266235Y185719D01*
X266214Y185702D01*
X266107Y185564D01*
X265997Y185429D01*
X265984Y185405D01*
X265968Y185384D01*
X265890Y185227D01*
X265808Y185073D01*
X265800Y185047D01*
X265788Y185023D01*
X265743Y184854D01*
X265693Y184687D01*
X265691Y184660D01*
X265684Y184635D01*
X265657Y184304D01*
X265657Y183094D01*
X264849Y181144D01*
X263356Y179651D01*
X261406Y178843D01*
X259294Y178843D01*
X257344Y179651D01*
X255851Y181144D01*
X255043Y183094D01*
X255043Y185206D01*
X255851Y187156D01*
X257344Y188649D01*
X259294Y189457D01*
X260504Y189457D01*
X260530Y189459D01*
X260557Y189457D01*
X260731Y189479D01*
X260904Y189497D01*
X260930Y189504D01*
X260957Y189508D01*
X261122Y189563D01*
X261289Y189615D01*
X261313Y189628D01*
X261338Y189636D01*
X261490Y189723D01*
X261643Y189807D01*
X261664Y189824D01*
X261687Y189837D01*
X261940Y190052D01*
X478956Y407068D01*
X478973Y407089D01*
X478994Y407106D01*
X479101Y407244D01*
X479211Y407379D01*
X479224Y407403D01*
X479240Y407424D01*
X479318Y407581D01*
X479400Y407735D01*
X479408Y407761D01*
X479420Y407785D01*
X479465Y407954D01*
X479515Y408121D01*
X479517Y408148D01*
X479524Y408173D01*
X479551Y408504D01*
X479551Y411028D01*
X479550Y411037D01*
X479551Y411046D01*
X479530Y411238D01*
X479511Y411429D01*
X479509Y411437D01*
X479508Y411446D01*
X479450Y411628D01*
X479393Y411813D01*
X479389Y411821D01*
X479386Y411830D01*
X479293Y411998D01*
X479201Y412167D01*
X479196Y412174D01*
X479191Y412182D01*
X479066Y412330D01*
X478944Y412477D01*
X478937Y412482D01*
X478931Y412489D01*
X478780Y412608D01*
X478630Y412729D01*
X478622Y412733D01*
X478615Y412739D01*
X478444Y412826D01*
X478273Y412915D01*
X478264Y412917D01*
X478256Y412921D01*
X478070Y412973D01*
X477886Y413026D01*
X477877Y413027D01*
X477868Y413029D01*
X477676Y413043D01*
X477484Y413059D01*
X477476Y413058D01*
X477467Y413058D01*
X477274Y413034D01*
X477085Y413012D01*
X477076Y413009D01*
X477067Y413008D01*
X476884Y412947D01*
X476702Y412887D01*
X476694Y412883D01*
X476686Y412880D01*
X476520Y412784D01*
X476351Y412689D01*
X476344Y412683D01*
X476337Y412679D01*
X476084Y412464D01*
X475035Y411415D01*
X471703Y410035D01*
X468097Y410035D01*
X464765Y411415D01*
X463716Y412464D01*
X463709Y412470D01*
X463704Y412477D01*
X463553Y412598D01*
X463405Y412719D01*
X463397Y412723D01*
X463390Y412729D01*
X463220Y412818D01*
X463049Y412908D01*
X463040Y412910D01*
X463033Y412915D01*
X462848Y412968D01*
X462663Y413023D01*
X462654Y413024D01*
X462646Y413026D01*
X462455Y413042D01*
X462262Y413059D01*
X462253Y413058D01*
X462244Y413059D01*
X462055Y413037D01*
X461862Y413016D01*
X461853Y413013D01*
X461845Y413012D01*
X461663Y412953D01*
X461478Y412894D01*
X461470Y412890D01*
X461462Y412887D01*
X461295Y412793D01*
X461126Y412699D01*
X461119Y412694D01*
X461111Y412689D01*
X460966Y412564D01*
X460819Y412439D01*
X460813Y412432D01*
X460806Y412426D01*
X460690Y412276D01*
X460569Y412123D01*
X460565Y412115D01*
X460560Y412108D01*
X460475Y411937D01*
X460387Y411764D01*
X460384Y411755D01*
X460380Y411747D01*
X460331Y411562D01*
X460279Y411376D01*
X460278Y411367D01*
X460276Y411359D01*
X460249Y411028D01*
X460249Y405137D01*
X240852Y185740D01*
X240835Y185719D01*
X240814Y185702D01*
X240707Y185564D01*
X240597Y185429D01*
X240584Y185405D01*
X240568Y185384D01*
X240490Y185227D01*
X240408Y185073D01*
X240400Y185047D01*
X240388Y185023D01*
X240343Y184854D01*
X240293Y184687D01*
X240291Y184660D01*
X240284Y184635D01*
X240257Y184304D01*
X240257Y183094D01*
X239449Y181144D01*
X237956Y179651D01*
X236006Y178843D01*
X233894Y178843D01*
X231944Y179651D01*
X230451Y181144D01*
X229643Y183094D01*
X229643Y185206D01*
X230451Y187156D01*
X231944Y188649D01*
X233894Y189457D01*
X235104Y189457D01*
X235130Y189459D01*
X235157Y189457D01*
X235331Y189479D01*
X235504Y189497D01*
X235530Y189504D01*
X235557Y189508D01*
X235722Y189563D01*
X235889Y189615D01*
X235913Y189628D01*
X235938Y189636D01*
X236090Y189723D01*
X236243Y189807D01*
X236264Y189824D01*
X236287Y189837D01*
X236540Y190052D01*
X453556Y407068D01*
X453573Y407089D01*
X453594Y407106D01*
X453701Y407244D01*
X453811Y407379D01*
X453824Y407403D01*
X453840Y407424D01*
X453918Y407581D01*
X454000Y407735D01*
X454008Y407761D01*
X454020Y407785D01*
X454065Y407954D01*
X454115Y408121D01*
X454117Y408148D01*
X454124Y408173D01*
X454151Y408504D01*
X454151Y409665D01*
X454146Y409716D01*
X454149Y409767D01*
X454126Y409916D01*
X454111Y410066D01*
X454096Y410115D01*
X454089Y410165D01*
X454037Y410307D01*
X453993Y410451D01*
X453969Y410496D01*
X453951Y410544D01*
X453873Y410672D01*
X453801Y410805D01*
X453769Y410844D01*
X453742Y410888D01*
X453640Y410998D01*
X453544Y411114D01*
X453504Y411146D01*
X453469Y411184D01*
X453347Y411272D01*
X453230Y411366D01*
X453185Y411390D01*
X453143Y411420D01*
X453006Y411483D01*
X452873Y411552D01*
X452824Y411566D01*
X452777Y411587D01*
X452630Y411622D01*
X452486Y411663D01*
X452435Y411667D01*
X452385Y411679D01*
X452234Y411684D01*
X452084Y411696D01*
X452034Y411690D01*
X451983Y411692D01*
X451834Y411667D01*
X451685Y411649D01*
X451636Y411633D01*
X451586Y411625D01*
X451445Y411571D01*
X451302Y411524D01*
X451257Y411499D01*
X451210Y411481D01*
X451012Y411361D01*
X450951Y411326D01*
X450941Y411317D01*
X450926Y411308D01*
X449784Y410478D01*
X448370Y409758D01*
X446999Y409313D01*
X446999Y418632D01*
X446997Y418650D01*
X446999Y418667D01*
X446978Y418849D01*
X446959Y419032D01*
X446954Y419049D01*
X446952Y419067D01*
X446939Y419108D01*
X446966Y419202D01*
X446968Y419220D01*
X446972Y419237D01*
X446999Y419568D01*
X446999Y428887D01*
X448370Y428442D01*
X449784Y427722D01*
X450926Y426892D01*
X450970Y426866D01*
X451010Y426834D01*
X451144Y426764D01*
X451274Y426688D01*
X451322Y426672D01*
X451367Y426648D01*
X451512Y426607D01*
X451654Y426558D01*
X451705Y426551D01*
X451754Y426537D01*
X451904Y426525D01*
X452054Y426505D01*
X452105Y426508D01*
X452156Y426504D01*
X452305Y426522D01*
X452455Y426532D01*
X452505Y426545D01*
X452555Y426551D01*
X452699Y426598D01*
X452844Y426637D01*
X452890Y426660D01*
X452938Y426676D01*
X453069Y426750D01*
X453204Y426817D01*
X453244Y426849D01*
X453289Y426874D01*
X453403Y426972D01*
X453521Y427065D01*
X453555Y427103D01*
X453594Y427137D01*
X453686Y427256D01*
X453784Y427370D01*
X453809Y427415D01*
X453840Y427455D01*
X453907Y427590D01*
X453981Y427721D01*
X453997Y427770D01*
X454020Y427815D01*
X454059Y427961D01*
X454105Y428104D01*
X454111Y428155D01*
X454124Y428204D01*
X454143Y428435D01*
X454151Y428504D01*
X454150Y428518D01*
X454151Y428535D01*
X454151Y433063D01*
X456532Y435443D01*
X456532Y435444D01*
X460740Y439651D01*
X460754Y439668D01*
X460771Y439683D01*
X460881Y439824D01*
X460995Y439963D01*
X461005Y439982D01*
X461019Y440000D01*
X461099Y440160D01*
X461183Y440318D01*
X461190Y440340D01*
X461200Y440360D01*
X461247Y440533D01*
X461298Y440704D01*
X461300Y440727D01*
X461306Y440748D01*
X461318Y440926D01*
X461335Y441105D01*
X461332Y441128D01*
X461334Y441150D01*
X461311Y441326D01*
X461291Y441506D01*
X461284Y441527D01*
X461281Y441549D01*
X461180Y441865D01*
X460835Y442697D01*
X460835Y446303D01*
X462215Y449635D01*
X464765Y452185D01*
X467050Y453131D01*
X468097Y453565D01*
X471703Y453565D01*
X475210Y452112D01*
X475219Y452109D01*
X475227Y452105D01*
X475412Y452051D01*
X475596Y451996D01*
X475605Y451995D01*
X475613Y451992D01*
X475804Y451976D01*
X475996Y451957D01*
X476005Y451958D01*
X476014Y451958D01*
X476206Y451979D01*
X476397Y451999D01*
X476405Y452002D01*
X476414Y452003D01*
X476599Y452062D01*
X476781Y452119D01*
X476789Y452123D01*
X476798Y452126D01*
X476967Y452221D01*
X477135Y452312D01*
X477141Y452318D01*
X477149Y452322D01*
X477295Y452447D01*
X477443Y452571D01*
X477448Y452578D01*
X477455Y452584D01*
X477573Y452735D01*
X477694Y452886D01*
X477698Y452894D01*
X477703Y452901D01*
X477789Y453072D01*
X477878Y453244D01*
X477880Y453253D01*
X477884Y453261D01*
X477935Y453447D01*
X477987Y453632D01*
X477988Y453640D01*
X477990Y453649D01*
X478004Y453844D01*
X478018Y454033D01*
X478017Y454042D01*
X478018Y454051D01*
X477993Y454245D01*
X477970Y454433D01*
X477967Y454441D01*
X477966Y454450D01*
X477864Y454766D01*
X477293Y456144D01*
X477293Y458256D01*
X478101Y460206D01*
X478448Y460553D01*
X478465Y460574D01*
X478486Y460591D01*
X478593Y460729D01*
X478703Y460865D01*
X478716Y460888D01*
X478732Y460909D01*
X478810Y461066D01*
X478892Y461220D01*
X478900Y461246D01*
X478912Y461270D01*
X478957Y461439D01*
X479007Y461606D01*
X479009Y461633D01*
X479016Y461659D01*
X479043Y461990D01*
X479043Y554098D01*
X479041Y554120D01*
X479043Y554142D01*
X479021Y554320D01*
X479003Y554498D01*
X478997Y554520D01*
X478994Y554542D01*
X478938Y554712D01*
X478885Y554883D01*
X478875Y554903D01*
X478868Y554924D01*
X478779Y555080D01*
X478693Y555237D01*
X478679Y555255D01*
X478668Y555274D01*
X478550Y555409D01*
X478436Y555547D01*
X478418Y555561D01*
X478404Y555577D01*
X478261Y555687D01*
X478122Y555799D01*
X478102Y555809D01*
X478084Y555823D01*
X477789Y555974D01*
X477420Y556127D01*
X474847Y558700D01*
X473455Y562061D01*
X473455Y580939D01*
X474847Y584300D01*
X477420Y586873D01*
X478195Y587194D01*
X480781Y588265D01*
X484419Y588265D01*
X487780Y586873D01*
X490353Y584300D01*
X491745Y580939D01*
X491745Y562061D01*
X490353Y558700D01*
X487780Y556127D01*
X487411Y555974D01*
X487391Y555964D01*
X487370Y555957D01*
X487214Y555869D01*
X487056Y555784D01*
X487039Y555770D01*
X487019Y555759D01*
X486883Y555642D01*
X486745Y555528D01*
X486731Y555511D01*
X486714Y555496D01*
X486605Y555355D01*
X486492Y555215D01*
X486481Y555195D01*
X486468Y555178D01*
X486388Y555018D01*
X486305Y554859D01*
X486298Y554837D01*
X486288Y554817D01*
X486242Y554644D01*
X486192Y554472D01*
X486190Y554450D01*
X486184Y554429D01*
X486157Y554098D01*
X486157Y461990D01*
X486159Y461963D01*
X486157Y461936D01*
X486179Y461762D01*
X486197Y461589D01*
X486204Y461563D01*
X486208Y461537D01*
X486263Y461371D01*
X486315Y461204D01*
X486328Y461180D01*
X486336Y461155D01*
X486423Y461003D01*
X486507Y460850D01*
X486524Y460829D01*
X486537Y460806D01*
X486752Y460553D01*
X487099Y460206D01*
X487907Y458256D01*
X487907Y456144D01*
X487336Y454766D01*
X487333Y454757D01*
X487329Y454750D01*
X487275Y454565D01*
X487219Y454381D01*
X487218Y454372D01*
X487216Y454363D01*
X487199Y454172D01*
X487181Y453980D01*
X487182Y453971D01*
X487181Y453962D01*
X487203Y453772D01*
X487223Y453579D01*
X487225Y453571D01*
X487226Y453562D01*
X487285Y453379D01*
X487343Y453195D01*
X487347Y453187D01*
X487350Y453179D01*
X487445Y453009D01*
X487536Y452842D01*
X487542Y452835D01*
X487546Y452827D01*
X487671Y452681D01*
X487795Y452534D01*
X487802Y452528D01*
X487808Y452521D01*
X487960Y452402D01*
X488110Y452283D01*
X488118Y452279D01*
X488125Y452273D01*
X488297Y452186D01*
X488468Y452099D01*
X488477Y452096D01*
X488485Y452092D01*
X488671Y452041D01*
X488855Y451989D01*
X488864Y451988D01*
X488873Y451986D01*
X489067Y451973D01*
X489257Y451958D01*
X489266Y451959D01*
X489275Y451958D01*
X489467Y451983D01*
X489656Y452007D01*
X489665Y452009D01*
X489674Y452010D01*
X489990Y452112D01*
X493497Y453565D01*
X497103Y453565D01*
X500435Y452185D01*
X502985Y449635D01*
X504365Y446303D01*
X504365Y442697D01*
X502985Y439365D01*
X500435Y436815D01*
X499831Y436565D01*
X497103Y435435D01*
X493497Y435435D01*
X492665Y435780D01*
X492643Y435786D01*
X492624Y435797D01*
X492451Y435845D01*
X492279Y435896D01*
X492257Y435898D01*
X492236Y435905D01*
X492056Y435918D01*
X491879Y435935D01*
X491857Y435932D01*
X491834Y435934D01*
X491656Y435911D01*
X491478Y435893D01*
X491457Y435886D01*
X491435Y435883D01*
X491265Y435827D01*
X491094Y435773D01*
X491074Y435762D01*
X491053Y435755D01*
X490898Y435666D01*
X490741Y435580D01*
X490724Y435565D01*
X490704Y435554D01*
X490451Y435340D01*
X486244Y431132D01*
X486227Y431111D01*
X486206Y431094D01*
X486100Y430956D01*
X485989Y430821D01*
X485976Y430797D01*
X485960Y430776D01*
X485882Y430620D01*
X485800Y430465D01*
X485792Y430439D01*
X485780Y430415D01*
X485735Y430246D01*
X485685Y430079D01*
X485683Y430052D01*
X485676Y430027D01*
X485649Y429696D01*
X485649Y427172D01*
X485650Y427163D01*
X485649Y427154D01*
X485670Y426962D01*
X485689Y426771D01*
X485691Y426763D01*
X485692Y426754D01*
X485750Y426572D01*
X485807Y426387D01*
X485811Y426379D01*
X485814Y426370D01*
X485907Y426201D01*
X485999Y426033D01*
X486004Y426026D01*
X486009Y426018D01*
X486134Y425870D01*
X486256Y425723D01*
X486263Y425718D01*
X486269Y425711D01*
X486420Y425592D01*
X486570Y425471D01*
X486578Y425467D01*
X486585Y425461D01*
X486756Y425374D01*
X486927Y425285D01*
X486936Y425283D01*
X486944Y425279D01*
X487130Y425227D01*
X487314Y425174D01*
X487323Y425173D01*
X487332Y425171D01*
X487524Y425157D01*
X487716Y425141D01*
X487724Y425142D01*
X487733Y425142D01*
X487926Y425166D01*
X488115Y425188D01*
X488124Y425191D01*
X488133Y425192D01*
X488316Y425253D01*
X488498Y425313D01*
X488506Y425317D01*
X488514Y425320D01*
X488680Y425416D01*
X488849Y425511D01*
X488856Y425517D01*
X488863Y425521D01*
X489116Y425736D01*
X490165Y426785D01*
X493497Y428165D01*
X497103Y428165D01*
X500435Y426785D01*
X501484Y425736D01*
X501491Y425730D01*
X501496Y425723D01*
X501647Y425602D01*
X501795Y425481D01*
X501803Y425477D01*
X501810Y425471D01*
X501980Y425382D01*
X502151Y425292D01*
X502160Y425290D01*
X502167Y425285D01*
X502352Y425232D01*
X502537Y425177D01*
X502546Y425176D01*
X502554Y425174D01*
X502745Y425158D01*
X502938Y425141D01*
X502947Y425142D01*
X502956Y425141D01*
X503145Y425163D01*
X503338Y425184D01*
X503347Y425187D01*
X503355Y425188D01*
X503537Y425247D01*
X503722Y425306D01*
X503730Y425310D01*
X503738Y425313D01*
X503905Y425407D01*
X504074Y425501D01*
X504081Y425506D01*
X504089Y425511D01*
X504234Y425636D01*
X504381Y425761D01*
X504387Y425768D01*
X504394Y425774D01*
X504510Y425924D01*
X504631Y426077D01*
X504635Y426085D01*
X504640Y426092D01*
X504725Y426263D01*
X504813Y426436D01*
X504816Y426445D01*
X504820Y426453D01*
X504869Y426637D01*
X504921Y426824D01*
X504922Y426833D01*
X504924Y426841D01*
X504951Y427172D01*
X504951Y433063D01*
X507332Y435443D01*
X507332Y435444D01*
X511540Y439651D01*
X511554Y439668D01*
X511571Y439683D01*
X511681Y439824D01*
X511795Y439963D01*
X511805Y439982D01*
X511819Y440000D01*
X511899Y440160D01*
X511983Y440318D01*
X511990Y440340D01*
X512000Y440360D01*
X512047Y440533D01*
X512098Y440704D01*
X512100Y440727D01*
X512106Y440748D01*
X512118Y440926D01*
X512135Y441105D01*
X512132Y441128D01*
X512134Y441150D01*
X512111Y441326D01*
X512091Y441506D01*
X512084Y441527D01*
X512081Y441549D01*
X511980Y441865D01*
X511635Y442697D01*
X511635Y446303D01*
X513015Y449635D01*
X515565Y452185D01*
X517850Y453131D01*
X518897Y453565D01*
X522503Y453565D01*
X525835Y452185D01*
X528385Y449635D01*
X529765Y446303D01*
X529765Y442697D01*
X528385Y439365D01*
X525835Y436815D01*
X525231Y436565D01*
X522503Y435435D01*
X518897Y435435D01*
X518065Y435780D01*
X518043Y435786D01*
X518024Y435797D01*
X517851Y435845D01*
X517679Y435896D01*
X517657Y435898D01*
X517636Y435905D01*
X517456Y435918D01*
X517279Y435935D01*
X517257Y435932D01*
X517234Y435934D01*
X517056Y435911D01*
X516878Y435893D01*
X516857Y435886D01*
X516835Y435883D01*
X516665Y435827D01*
X516494Y435773D01*
X516474Y435762D01*
X516453Y435755D01*
X516298Y435666D01*
X516141Y435580D01*
X516124Y435565D01*
X516104Y435554D01*
X515851Y435340D01*
X511644Y431132D01*
X511627Y431111D01*
X511606Y431094D01*
X511499Y430956D01*
X511389Y430821D01*
X511376Y430797D01*
X511360Y430776D01*
X511282Y430619D01*
X511200Y430465D01*
X511192Y430439D01*
X511180Y430415D01*
X511135Y430246D01*
X511085Y430079D01*
X511083Y430052D01*
X511076Y430027D01*
X511049Y429696D01*
X511049Y427172D01*
X511050Y427163D01*
X511049Y427154D01*
X511070Y426962D01*
X511089Y426771D01*
X511091Y426763D01*
X511092Y426754D01*
X511150Y426572D01*
X511207Y426387D01*
X511211Y426379D01*
X511214Y426370D01*
X511307Y426201D01*
X511399Y426033D01*
X511404Y426026D01*
X511409Y426018D01*
X511534Y425870D01*
X511656Y425723D01*
X511663Y425718D01*
X511669Y425711D01*
X511820Y425592D01*
X511970Y425471D01*
X511978Y425467D01*
X511985Y425461D01*
X512156Y425374D01*
X512327Y425285D01*
X512336Y425283D01*
X512344Y425279D01*
X512530Y425227D01*
X512714Y425174D01*
X512723Y425173D01*
X512732Y425171D01*
X512924Y425157D01*
X513116Y425141D01*
X513124Y425142D01*
X513133Y425142D01*
X513326Y425166D01*
X513515Y425188D01*
X513524Y425191D01*
X513533Y425192D01*
X513716Y425253D01*
X513898Y425313D01*
X513906Y425317D01*
X513914Y425320D01*
X514080Y425416D01*
X514249Y425511D01*
X514256Y425517D01*
X514263Y425521D01*
X514516Y425736D01*
X515565Y426785D01*
X518897Y428165D01*
X522503Y428165D01*
X525835Y426785D01*
X526884Y425736D01*
X526891Y425730D01*
X526896Y425723D01*
X527047Y425602D01*
X527195Y425481D01*
X527203Y425477D01*
X527210Y425471D01*
X527380Y425382D01*
X527551Y425292D01*
X527560Y425290D01*
X527567Y425285D01*
X527752Y425232D01*
X527937Y425177D01*
X527946Y425176D01*
X527954Y425174D01*
X528145Y425158D01*
X528338Y425141D01*
X528347Y425142D01*
X528356Y425141D01*
X528545Y425163D01*
X528738Y425184D01*
X528747Y425187D01*
X528755Y425188D01*
X528937Y425247D01*
X529122Y425306D01*
X529130Y425310D01*
X529138Y425313D01*
X529305Y425407D01*
X529474Y425501D01*
X529481Y425506D01*
X529489Y425511D01*
X529634Y425636D01*
X529781Y425761D01*
X529787Y425768D01*
X529794Y425774D01*
X529910Y425924D01*
X530031Y426077D01*
X530035Y426085D01*
X530040Y426092D01*
X530125Y426263D01*
X530213Y426436D01*
X530216Y426445D01*
X530220Y426453D01*
X530269Y426637D01*
X530321Y426824D01*
X530322Y426833D01*
X530324Y426841D01*
X530351Y427172D01*
X530351Y433063D01*
X532732Y435444D01*
X536940Y439651D01*
X536954Y439668D01*
X536971Y439683D01*
X537081Y439824D01*
X537195Y439963D01*
X537205Y439982D01*
X537219Y440000D01*
X537299Y440160D01*
X537383Y440318D01*
X537390Y440340D01*
X537400Y440360D01*
X537447Y440533D01*
X537498Y440704D01*
X537500Y440727D01*
X537506Y440748D01*
X537518Y440926D01*
X537535Y441105D01*
X537532Y441128D01*
X537534Y441150D01*
X537511Y441326D01*
X537491Y441506D01*
X537484Y441527D01*
X537481Y441549D01*
X537380Y441865D01*
X537035Y442697D01*
X537035Y446303D01*
X538415Y449635D01*
X540965Y452185D01*
X543250Y453131D01*
X544297Y453565D01*
X547903Y453565D01*
X551235Y452185D01*
X553785Y449635D01*
X555165Y446303D01*
X555165Y442697D01*
X553785Y439365D01*
X551235Y436815D01*
X550631Y436565D01*
X547903Y435435D01*
X544297Y435435D01*
X543465Y435780D01*
X543443Y435786D01*
X543424Y435797D01*
X543251Y435845D01*
X543079Y435896D01*
X543057Y435898D01*
X543036Y435905D01*
X542856Y435918D01*
X542679Y435935D01*
X542657Y435932D01*
X542634Y435934D01*
X542456Y435911D01*
X542278Y435893D01*
X542257Y435886D01*
X542235Y435883D01*
X542065Y435827D01*
X541894Y435773D01*
X541874Y435762D01*
X541853Y435755D01*
X541698Y435666D01*
X541541Y435580D01*
X541524Y435565D01*
X541504Y435554D01*
X541251Y435340D01*
X537044Y431132D01*
X537027Y431111D01*
X537006Y431094D01*
X536900Y430956D01*
X536789Y430821D01*
X536776Y430797D01*
X536760Y430776D01*
X536682Y430620D01*
X536600Y430465D01*
X536592Y430439D01*
X536580Y430415D01*
X536535Y430246D01*
X536485Y430079D01*
X536483Y430052D01*
X536476Y430027D01*
X536449Y429696D01*
X536449Y427172D01*
X536450Y427163D01*
X536449Y427154D01*
X536470Y426962D01*
X536489Y426771D01*
X536491Y426763D01*
X536492Y426754D01*
X536550Y426572D01*
X536607Y426387D01*
X536611Y426379D01*
X536614Y426370D01*
X536707Y426201D01*
X536799Y426033D01*
X536804Y426026D01*
X536809Y426018D01*
X536934Y425870D01*
X537056Y425723D01*
X537063Y425718D01*
X537069Y425711D01*
X537220Y425592D01*
X537370Y425471D01*
X537378Y425467D01*
X537385Y425461D01*
X537556Y425374D01*
X537727Y425285D01*
X537736Y425283D01*
X537744Y425279D01*
X537930Y425227D01*
X538114Y425174D01*
X538123Y425173D01*
X538132Y425171D01*
X538324Y425157D01*
X538516Y425141D01*
X538524Y425142D01*
X538533Y425142D01*
X538726Y425166D01*
X538915Y425188D01*
X538924Y425191D01*
X538933Y425192D01*
X539116Y425253D01*
X539298Y425313D01*
X539306Y425317D01*
X539314Y425320D01*
X539480Y425416D01*
X539649Y425511D01*
X539656Y425517D01*
X539663Y425521D01*
X539916Y425736D01*
X540965Y426785D01*
X544297Y428165D01*
X547903Y428165D01*
X551235Y426785D01*
X552284Y425736D01*
X552291Y425730D01*
X552296Y425723D01*
X552447Y425602D01*
X552595Y425481D01*
X552603Y425477D01*
X552610Y425471D01*
X552780Y425382D01*
X552951Y425292D01*
X552960Y425290D01*
X552967Y425285D01*
X553152Y425232D01*
X553337Y425177D01*
X553346Y425176D01*
X553354Y425174D01*
X553545Y425158D01*
X553738Y425141D01*
X553747Y425142D01*
X553756Y425141D01*
X553945Y425163D01*
X554138Y425184D01*
X554147Y425187D01*
X554155Y425188D01*
X554337Y425247D01*
X554522Y425306D01*
X554530Y425310D01*
X554538Y425313D01*
X554705Y425407D01*
X554874Y425501D01*
X554881Y425506D01*
X554889Y425511D01*
X555034Y425636D01*
X555181Y425761D01*
X555187Y425768D01*
X555194Y425774D01*
X555310Y425924D01*
X555431Y426077D01*
X555435Y426085D01*
X555440Y426092D01*
X555525Y426263D01*
X555613Y426436D01*
X555616Y426445D01*
X555620Y426453D01*
X555669Y426637D01*
X555721Y426824D01*
X555722Y426833D01*
X555724Y426841D01*
X555751Y427172D01*
X555751Y433063D01*
X558132Y435444D01*
X562340Y439651D01*
X562354Y439668D01*
X562371Y439683D01*
X562481Y439824D01*
X562595Y439963D01*
X562605Y439982D01*
X562619Y440000D01*
X562699Y440160D01*
X562783Y440318D01*
X562790Y440340D01*
X562800Y440360D01*
X562847Y440533D01*
X562898Y440704D01*
X562900Y440727D01*
X562906Y440748D01*
X562918Y440926D01*
X562935Y441105D01*
X562932Y441128D01*
X562934Y441150D01*
X562911Y441326D01*
X562891Y441506D01*
X562884Y441527D01*
X562881Y441549D01*
X562780Y441865D01*
X562435Y442697D01*
X562435Y446303D01*
X563815Y449635D01*
X566365Y452185D01*
X568650Y453131D01*
X569697Y453565D01*
X573303Y453565D01*
X576635Y452185D01*
X579185Y449635D01*
X580565Y446303D01*
X580565Y442697D01*
X579185Y439365D01*
X576635Y436815D01*
X576031Y436565D01*
X573303Y435435D01*
X569697Y435435D01*
X568865Y435780D01*
X568843Y435786D01*
X568824Y435797D01*
X568651Y435845D01*
X568479Y435896D01*
X568457Y435898D01*
X568436Y435905D01*
X568256Y435918D01*
X568079Y435935D01*
X568057Y435932D01*
X568034Y435934D01*
X567856Y435911D01*
X567678Y435893D01*
X567657Y435886D01*
X567635Y435883D01*
X567465Y435827D01*
X567294Y435773D01*
X567274Y435762D01*
X567253Y435755D01*
X567098Y435666D01*
X566941Y435580D01*
X566924Y435565D01*
X566904Y435554D01*
X566651Y435340D01*
X562444Y431132D01*
X562427Y431111D01*
X562406Y431094D01*
X562300Y430956D01*
X562189Y430821D01*
X562176Y430797D01*
X562160Y430776D01*
X562082Y430620D01*
X562000Y430465D01*
X561992Y430439D01*
X561980Y430415D01*
X561935Y430246D01*
X561885Y430079D01*
X561883Y430052D01*
X561876Y430027D01*
X561849Y429696D01*
X561849Y427172D01*
X561850Y427163D01*
X561849Y427154D01*
X561870Y426962D01*
X561889Y426771D01*
X561891Y426763D01*
X561892Y426754D01*
X561950Y426572D01*
X562007Y426387D01*
X562011Y426379D01*
X562014Y426370D01*
X562107Y426201D01*
X562199Y426033D01*
X562204Y426026D01*
X562209Y426018D01*
X562334Y425870D01*
X562456Y425723D01*
X562463Y425718D01*
X562469Y425711D01*
X562620Y425592D01*
X562770Y425471D01*
X562778Y425467D01*
X562785Y425461D01*
X562956Y425374D01*
X563127Y425285D01*
X563136Y425283D01*
X563144Y425279D01*
X563330Y425227D01*
X563514Y425174D01*
X563523Y425173D01*
X563532Y425171D01*
X563724Y425157D01*
X563916Y425141D01*
X563924Y425142D01*
X563933Y425142D01*
X564126Y425166D01*
X564315Y425188D01*
X564324Y425191D01*
X564333Y425192D01*
X564516Y425253D01*
X564698Y425313D01*
X564706Y425317D01*
X564714Y425320D01*
X564880Y425416D01*
X565049Y425511D01*
X565056Y425517D01*
X565063Y425521D01*
X565316Y425736D01*
X566365Y426785D01*
X569697Y428165D01*
X573303Y428165D01*
X576635Y426785D01*
X577684Y425736D01*
X577691Y425730D01*
X577696Y425723D01*
X577847Y425602D01*
X577995Y425481D01*
X578003Y425477D01*
X578010Y425471D01*
X578180Y425382D01*
X578351Y425292D01*
X578360Y425290D01*
X578367Y425285D01*
X578552Y425232D01*
X578737Y425177D01*
X578746Y425176D01*
X578754Y425174D01*
X578945Y425158D01*
X579138Y425141D01*
X579147Y425142D01*
X579156Y425141D01*
X579345Y425163D01*
X579538Y425184D01*
X579547Y425187D01*
X579555Y425188D01*
X579737Y425247D01*
X579922Y425306D01*
X579930Y425310D01*
X579938Y425313D01*
X580105Y425407D01*
X580274Y425501D01*
X580281Y425506D01*
X580289Y425511D01*
X580434Y425636D01*
X580581Y425761D01*
X580587Y425768D01*
X580594Y425774D01*
X580710Y425924D01*
X580831Y426077D01*
X580835Y426085D01*
X580840Y426092D01*
X580925Y426263D01*
X581013Y426436D01*
X581016Y426445D01*
X581020Y426453D01*
X581069Y426637D01*
X581121Y426824D01*
X581122Y426833D01*
X581124Y426841D01*
X581151Y427172D01*
X581151Y433063D01*
X583532Y435444D01*
X587740Y439651D01*
X587754Y439668D01*
X587771Y439683D01*
X587881Y439824D01*
X587995Y439963D01*
X588005Y439982D01*
X588019Y440000D01*
X588099Y440160D01*
X588183Y440318D01*
X588190Y440340D01*
X588200Y440360D01*
X588247Y440533D01*
X588298Y440704D01*
X588300Y440727D01*
X588306Y440748D01*
X588318Y440926D01*
X588335Y441105D01*
X588332Y441128D01*
X588334Y441150D01*
X588311Y441326D01*
X588291Y441506D01*
X588284Y441527D01*
X588281Y441549D01*
X588180Y441865D01*
X587835Y442697D01*
X587835Y446303D01*
X589215Y449635D01*
X591765Y452185D01*
X594050Y453131D01*
X595097Y453565D01*
X598703Y453565D01*
X600789Y452701D01*
X600806Y452696D01*
X600822Y452687D01*
X600998Y452638D01*
X601174Y452584D01*
X601192Y452583D01*
X601209Y452578D01*
X601392Y452564D01*
X601575Y452546D01*
X601593Y452548D01*
X601611Y452547D01*
X601793Y452569D01*
X601976Y452588D01*
X601993Y452593D01*
X602010Y452595D01*
X602184Y452653D01*
X602360Y452708D01*
X602376Y452716D01*
X602392Y452722D01*
X602552Y452813D01*
X602713Y452901D01*
X602727Y452912D01*
X602742Y452921D01*
X602881Y453042D01*
X603021Y453160D01*
X603032Y453174D01*
X603046Y453186D01*
X603158Y453331D01*
X603272Y453475D01*
X603280Y453491D01*
X603291Y453505D01*
X603443Y453800D01*
X603789Y454636D01*
X610164Y461011D01*
X610756Y461256D01*
X618492Y464461D01*
X627508Y464461D01*
X634731Y461469D01*
X634744Y461465D01*
X634755Y461459D01*
X634936Y461407D01*
X635116Y461352D01*
X635129Y461351D01*
X635142Y461347D01*
X635330Y461332D01*
X635517Y461314D01*
X635530Y461316D01*
X635544Y461314D01*
X635731Y461336D01*
X635917Y461356D01*
X635930Y461360D01*
X635943Y461361D01*
X636123Y461420D01*
X636302Y461476D01*
X636313Y461482D01*
X636326Y461486D01*
X636491Y461579D01*
X636655Y461669D01*
X636665Y461678D01*
X636677Y461684D01*
X636819Y461807D01*
X636963Y461928D01*
X636971Y461939D01*
X636982Y461947D01*
X637097Y462096D01*
X637214Y462243D01*
X637220Y462255D01*
X637228Y462265D01*
X637312Y462434D01*
X637398Y462601D01*
X637402Y462614D01*
X637408Y462626D01*
X637457Y462809D01*
X637508Y462988D01*
X637509Y463002D01*
X637512Y463015D01*
X637539Y463345D01*
X637539Y622808D01*
X637537Y622826D01*
X637539Y622844D01*
X637518Y623026D01*
X637499Y623209D01*
X637494Y623226D01*
X637492Y623243D01*
X637435Y623418D01*
X637381Y623594D01*
X637373Y623609D01*
X637367Y623626D01*
X637277Y623786D01*
X637189Y623948D01*
X637178Y623961D01*
X637169Y623977D01*
X637049Y624116D01*
X636932Y624257D01*
X636918Y624268D01*
X636906Y624282D01*
X636761Y624394D01*
X636618Y624509D01*
X636602Y624517D01*
X636588Y624528D01*
X636423Y624610D01*
X636261Y624695D01*
X636244Y624700D01*
X636228Y624708D01*
X636049Y624755D01*
X635874Y624806D01*
X635856Y624808D01*
X635839Y624812D01*
X635508Y624839D01*
X250972Y624839D01*
X250954Y624837D01*
X250936Y624839D01*
X250754Y624818D01*
X250571Y624799D01*
X250554Y624794D01*
X250537Y624792D01*
X250362Y624735D01*
X250186Y624681D01*
X250171Y624673D01*
X250154Y624667D01*
X249994Y624577D01*
X249832Y624489D01*
X249819Y624478D01*
X249803Y624469D01*
X249664Y624349D01*
X249523Y624232D01*
X249512Y624218D01*
X249498Y624206D01*
X249386Y624061D01*
X249271Y623918D01*
X249263Y623902D01*
X249252Y623888D01*
X249170Y623723D01*
X249085Y623561D01*
X249080Y623544D01*
X249072Y623528D01*
X249025Y623349D01*
X248974Y623174D01*
X248972Y623156D01*
X248968Y623139D01*
X248941Y622808D01*
X248941Y618179D01*
X240618Y618179D01*
X240600Y618177D01*
X240583Y618179D01*
X240400Y618158D01*
X240218Y618139D01*
X240201Y618134D01*
X240183Y618132D01*
X240008Y618075D01*
X239833Y618021D01*
X239817Y618013D01*
X239800Y618007D01*
X239640Y617917D01*
X239479Y617829D01*
X239465Y617818D01*
X239449Y617809D01*
X239310Y617689D01*
X239169Y617572D01*
X239158Y617558D01*
X239145Y617546D01*
X239032Y617401D01*
X238917Y617258D01*
X238909Y617242D01*
X238898Y617228D01*
X238816Y617063D01*
X238732Y616901D01*
X238727Y616884D01*
X238719Y616868D01*
X238671Y616689D01*
X238620Y616514D01*
X238619Y616496D01*
X238614Y616479D01*
X238587Y616148D01*
X238587Y614743D01*
X237182Y614743D01*
X237164Y614741D01*
X237146Y614743D01*
X236964Y614721D01*
X236781Y614703D01*
X236764Y614698D01*
X236747Y614696D01*
X236572Y614639D01*
X236396Y614585D01*
X236381Y614577D01*
X236364Y614571D01*
X236204Y614481D01*
X236042Y614393D01*
X236029Y614382D01*
X236013Y614373D01*
X235874Y614253D01*
X235733Y614135D01*
X235722Y614122D01*
X235708Y614110D01*
X235596Y613965D01*
X235481Y613822D01*
X235473Y613806D01*
X235462Y613792D01*
X235380Y613627D01*
X235295Y613464D01*
X235290Y613447D01*
X235282Y613431D01*
X235234Y613253D01*
X235184Y613078D01*
X235182Y613060D01*
X235178Y613043D01*
X235151Y612712D01*
X235151Y601889D01*
X231065Y601889D01*
X230419Y602062D01*
X229840Y602397D01*
X229367Y602870D01*
X229032Y603449D01*
X228918Y603876D01*
X228870Y604005D01*
X228829Y604136D01*
X228799Y604193D01*
X228776Y604253D01*
X228703Y604369D01*
X228637Y604490D01*
X228596Y604540D01*
X228562Y604594D01*
X228468Y604694D01*
X228380Y604799D01*
X228330Y604840D01*
X228285Y604886D01*
X228173Y604966D01*
X228066Y605052D01*
X228009Y605081D01*
X227956Y605118D01*
X227831Y605174D01*
X227709Y605237D01*
X227647Y605255D01*
X227588Y605281D01*
X227454Y605311D01*
X227322Y605349D01*
X227257Y605354D01*
X227195Y605368D01*
X227058Y605370D01*
X226920Y605382D01*
X226856Y605374D01*
X226792Y605375D01*
X226657Y605351D01*
X226521Y605335D01*
X226459Y605315D01*
X226396Y605303D01*
X226269Y605252D01*
X226138Y605210D01*
X226082Y605178D01*
X226022Y605154D01*
X225907Y605079D01*
X225787Y605012D01*
X225739Y604970D01*
X225685Y604935D01*
X225586Y604838D01*
X225482Y604749D01*
X225443Y604698D01*
X225397Y604653D01*
X225320Y604539D01*
X225236Y604431D01*
X225207Y604373D01*
X225171Y604320D01*
X225118Y604193D01*
X225056Y604070D01*
X225040Y604008D01*
X225015Y603949D01*
X225000Y603873D01*
X224032Y602905D01*
X207768Y602905D01*
X206875Y603798D01*
X206875Y622808D01*
X206873Y622826D01*
X206875Y622844D01*
X206854Y623026D01*
X206835Y623209D01*
X206830Y623226D01*
X206828Y623243D01*
X206771Y623418D01*
X206717Y623594D01*
X206709Y623609D01*
X206703Y623626D01*
X206613Y623786D01*
X206525Y623948D01*
X206514Y623961D01*
X206505Y623977D01*
X206385Y624116D01*
X206268Y624257D01*
X206254Y624268D01*
X206242Y624282D01*
X206097Y624394D01*
X205954Y624509D01*
X205938Y624517D01*
X205924Y624528D01*
X205759Y624610D01*
X205597Y624695D01*
X205580Y624700D01*
X205564Y624708D01*
X205385Y624755D01*
X205210Y624806D01*
X205192Y624808D01*
X205175Y624812D01*
X204844Y624839D01*
X203956Y624839D01*
X203938Y624837D01*
X203920Y624839D01*
X203738Y624818D01*
X203555Y624799D01*
X203538Y624794D01*
X203521Y624792D01*
X203346Y624735D01*
X203170Y624681D01*
X203155Y624673D01*
X203138Y624667D01*
X202978Y624577D01*
X202816Y624489D01*
X202803Y624478D01*
X202787Y624469D01*
X202648Y624349D01*
X202507Y624232D01*
X202496Y624218D01*
X202482Y624206D01*
X202370Y624061D01*
X202255Y623918D01*
X202247Y623902D01*
X202236Y623888D01*
X202154Y623723D01*
X202069Y623561D01*
X202064Y623544D01*
X202056Y623528D01*
X202009Y623349D01*
X201958Y623174D01*
X201956Y623156D01*
X201952Y623139D01*
X201925Y622808D01*
X201925Y603798D01*
X201032Y602905D01*
X190947Y602905D01*
X190920Y602903D01*
X190893Y602905D01*
X190719Y602883D01*
X190546Y602865D01*
X190521Y602858D01*
X190494Y602854D01*
X190328Y602799D01*
X190161Y602747D01*
X190138Y602734D01*
X190112Y602726D01*
X189961Y602639D01*
X189807Y602555D01*
X189787Y602538D01*
X189763Y602525D01*
X189510Y602310D01*
X163520Y576320D01*
X163503Y576299D01*
X163482Y576282D01*
X163375Y576144D01*
X163265Y576008D01*
X163252Y575985D01*
X163236Y575963D01*
X163158Y575806D01*
X163076Y575652D01*
X163068Y575627D01*
X163056Y575603D01*
X163011Y575433D01*
X162961Y575267D01*
X162959Y575240D01*
X162952Y575214D01*
X162925Y574883D01*
X162925Y558068D01*
X162032Y557175D01*
X157988Y557175D01*
X157970Y557173D01*
X157952Y557175D01*
X157770Y557154D01*
X157587Y557135D01*
X157570Y557130D01*
X157553Y557128D01*
X157378Y557071D01*
X157202Y557017D01*
X157187Y557009D01*
X157170Y557003D01*
X157010Y556913D01*
X156848Y556825D01*
X156835Y556814D01*
X156819Y556805D01*
X156680Y556685D01*
X156539Y556568D01*
X156528Y556554D01*
X156514Y556542D01*
X156402Y556397D01*
X156287Y556254D01*
X156279Y556238D01*
X156268Y556224D01*
X156186Y556059D01*
X156101Y555897D01*
X156096Y555880D01*
X156088Y555864D01*
X156041Y555685D01*
X155990Y555510D01*
X155988Y555492D01*
X155984Y555475D01*
X155957Y555144D01*
X155957Y499971D01*
X155936Y499933D01*
X155930Y499912D01*
X155920Y499892D01*
X155873Y499719D01*
X155822Y499547D01*
X155820Y499525D01*
X155814Y499503D01*
X155801Y499325D01*
X155785Y499146D01*
X155788Y499124D01*
X155786Y499102D01*
X155809Y498924D01*
X155829Y498746D01*
X155835Y498725D01*
X155838Y498702D01*
X155940Y498386D01*
X156465Y497119D01*
X156465Y493481D01*
X155940Y492214D01*
X155933Y492192D01*
X155923Y492172D01*
X155875Y492000D01*
X155823Y491828D01*
X155821Y491806D01*
X155815Y491784D01*
X155802Y491605D01*
X155785Y491427D01*
X155787Y491405D01*
X155786Y491383D01*
X155808Y491205D01*
X155827Y491027D01*
X155833Y491006D01*
X155836Y490983D01*
X155893Y490813D01*
X155947Y490643D01*
X155957Y490623D01*
X155964Y490602D01*
X156054Y490446D01*
X156140Y490289D01*
X156154Y490272D01*
X156165Y490253D01*
X156380Y490000D01*
X197029Y449351D01*
X197043Y449340D01*
X197054Y449326D01*
X197198Y449212D01*
X197340Y449096D01*
X197356Y449088D01*
X197370Y449077D01*
X197534Y448993D01*
X197696Y448908D01*
X197713Y448903D01*
X197729Y448894D01*
X197906Y448845D01*
X198082Y448793D01*
X198100Y448791D01*
X198117Y448786D01*
X198300Y448773D01*
X198483Y448756D01*
X198501Y448758D01*
X198518Y448757D01*
X198700Y448780D01*
X198883Y448800D01*
X198900Y448805D01*
X198918Y448807D01*
X199092Y448866D01*
X199267Y448921D01*
X199283Y448930D01*
X199299Y448936D01*
X199459Y449028D01*
X199619Y449116D01*
X199633Y449128D01*
X199648Y449137D01*
X199901Y449351D01*
X211748Y461198D01*
X211765Y461219D01*
X211786Y461237D01*
X211893Y461374D01*
X212003Y461510D01*
X212016Y461533D01*
X212032Y461555D01*
X212110Y461712D01*
X212192Y461866D01*
X212200Y461891D01*
X212212Y461915D01*
X212257Y462084D01*
X212307Y462251D01*
X212309Y462278D01*
X212316Y462304D01*
X212343Y462635D01*
X212343Y477898D01*
X212341Y477920D01*
X212343Y477942D01*
X212321Y478120D01*
X212303Y478298D01*
X212297Y478320D01*
X212294Y478342D01*
X212238Y478512D01*
X212185Y478683D01*
X212175Y478703D01*
X212168Y478724D01*
X212079Y478880D01*
X211993Y479037D01*
X211979Y479055D01*
X211968Y479074D01*
X211850Y479209D01*
X211736Y479347D01*
X211718Y479361D01*
X211704Y479377D01*
X211561Y479487D01*
X211422Y479599D01*
X211402Y479609D01*
X211384Y479623D01*
X211089Y479774D01*
X210720Y479927D01*
X208147Y482500D01*
X206755Y485861D01*
X206755Y504739D01*
X208147Y508100D01*
X210720Y510673D01*
X214081Y512065D01*
X217719Y512065D01*
X221080Y510673D01*
X223653Y508100D01*
X225045Y504739D01*
X225045Y485861D01*
X223653Y482500D01*
X221080Y479927D01*
X220711Y479774D01*
X220691Y479764D01*
X220670Y479757D01*
X220514Y479669D01*
X220356Y479584D01*
X220339Y479570D01*
X220319Y479559D01*
X220183Y479442D01*
X220045Y479328D01*
X220031Y479311D01*
X220014Y479296D01*
X219905Y479155D01*
X219792Y479015D01*
X219781Y478995D01*
X219768Y478978D01*
X219688Y478818D01*
X219605Y478659D01*
X219598Y478637D01*
X219588Y478617D01*
X219542Y478444D01*
X219492Y478272D01*
X219490Y478250D01*
X219484Y478229D01*
X219457Y477898D01*
X219457Y458847D01*
X216778Y456168D01*
X202617Y442007D01*
X199344Y438734D01*
X199343Y438733D01*
X88418Y327808D01*
X88404Y327791D01*
X88387Y327776D01*
X88276Y327635D01*
X88163Y327497D01*
X88153Y327477D01*
X88139Y327459D01*
X88058Y327298D01*
X87974Y327141D01*
X87968Y327120D01*
X87958Y327100D01*
X87911Y326927D01*
X87860Y326755D01*
X87858Y326733D01*
X87852Y326711D01*
X87840Y326533D01*
X87823Y326354D01*
X87826Y326332D01*
X87824Y326310D01*
X87847Y326133D01*
X87867Y325954D01*
X87873Y325932D01*
X87876Y325910D01*
X87978Y325594D01*
X87995Y325554D01*
X87995Y322146D01*
X86691Y318998D01*
X84282Y316589D01*
X81134Y315285D01*
X77726Y315285D01*
X74578Y316589D01*
X72169Y318998D01*
X72152Y319039D01*
X72142Y319059D01*
X72135Y319080D01*
X72047Y319236D01*
X71962Y319394D01*
X71948Y319411D01*
X71937Y319431D01*
X71820Y319566D01*
X71706Y319705D01*
X71688Y319719D01*
X71674Y319736D01*
X71533Y319845D01*
X71393Y319958D01*
X71373Y319969D01*
X71356Y319982D01*
X71195Y320062D01*
X71037Y320145D01*
X71015Y320152D01*
X70995Y320162D01*
X70821Y320208D01*
X70650Y320258D01*
X70628Y320260D01*
X70606Y320266D01*
X70276Y320293D01*
X68203Y320293D01*
X68194Y320292D01*
X68185Y320293D01*
X67993Y320272D01*
X67802Y320253D01*
X67794Y320251D01*
X67785Y320250D01*
X67603Y320192D01*
X67417Y320135D01*
X67409Y320131D01*
X67401Y320128D01*
X67233Y320035D01*
X67063Y319943D01*
X67057Y319938D01*
X67049Y319933D01*
X66901Y319808D01*
X66754Y319686D01*
X66749Y319679D01*
X66742Y319673D01*
X66622Y319522D01*
X66502Y319372D01*
X66498Y319364D01*
X66492Y319357D01*
X66405Y319186D01*
X66316Y319015D01*
X66314Y319006D01*
X66310Y318998D01*
X66258Y318813D01*
X66205Y318628D01*
X66204Y318619D01*
X66202Y318610D01*
X66188Y318417D01*
X66172Y318226D01*
X66173Y318218D01*
X66172Y318209D01*
X66197Y318018D01*
X66219Y317827D01*
X66222Y317818D01*
X66223Y317809D01*
X66284Y317628D01*
X66344Y317444D01*
X66348Y317436D01*
X66351Y317428D01*
X66446Y317262D01*
X66542Y317093D01*
X66548Y317086D01*
X66552Y317079D01*
X66767Y316826D01*
X67591Y316001D01*
X68895Y312854D01*
X68895Y309446D01*
X67591Y306298D01*
X65182Y303889D01*
X62034Y302585D01*
X58626Y302585D01*
X55478Y303889D01*
X53069Y306298D01*
X51765Y309446D01*
X51765Y312854D01*
X53069Y316001D01*
X53893Y316826D01*
X53899Y316833D01*
X53906Y316838D01*
X54026Y316987D01*
X54148Y317137D01*
X54153Y317145D01*
X54158Y317152D01*
X54246Y317322D01*
X54337Y317493D01*
X54340Y317502D01*
X54344Y317509D01*
X54397Y317694D01*
X54452Y317879D01*
X54453Y317888D01*
X54455Y317896D01*
X54471Y318087D01*
X54488Y318280D01*
X54487Y318289D01*
X54488Y318298D01*
X54466Y318487D01*
X54445Y318680D01*
X54442Y318689D01*
X54441Y318697D01*
X54382Y318880D01*
X54323Y319064D01*
X54319Y319072D01*
X54316Y319080D01*
X54222Y319247D01*
X54129Y319416D01*
X54123Y319423D01*
X54118Y319431D01*
X53993Y319576D01*
X53868Y319723D01*
X53861Y319729D01*
X53855Y319736D01*
X53704Y319853D01*
X53552Y319973D01*
X53544Y319977D01*
X53537Y319982D01*
X53365Y320068D01*
X53193Y320155D01*
X53185Y320158D01*
X53177Y320162D01*
X52991Y320211D01*
X52805Y320263D01*
X52796Y320264D01*
X52788Y320266D01*
X52457Y320293D01*
X50384Y320293D01*
X50362Y320291D01*
X50340Y320293D01*
X50162Y320271D01*
X49984Y320253D01*
X49962Y320247D01*
X49940Y320244D01*
X49770Y320188D01*
X49599Y320135D01*
X49579Y320125D01*
X49558Y320118D01*
X49402Y320029D01*
X49245Y319943D01*
X49228Y319929D01*
X49208Y319918D01*
X49073Y319801D01*
X48936Y319686D01*
X48922Y319668D01*
X48905Y319654D01*
X48796Y319512D01*
X48683Y319372D01*
X48673Y319352D01*
X48659Y319334D01*
X48508Y319039D01*
X48491Y318998D01*
X46082Y316589D01*
X42934Y315285D01*
X39526Y315285D01*
X36378Y316589D01*
X33969Y318998D01*
X32665Y322146D01*
X32665Y325554D01*
X33969Y328702D01*
X36378Y331111D01*
X39526Y332415D01*
X42934Y332415D01*
X46082Y331111D01*
X48491Y328702D01*
X48508Y328661D01*
X48518Y328641D01*
X48525Y328620D01*
X48613Y328464D01*
X48698Y328306D01*
X48712Y328289D01*
X48723Y328269D01*
X48840Y328134D01*
X48954Y327995D01*
X48972Y327981D01*
X48986Y327964D01*
X49127Y327855D01*
X49267Y327742D01*
X49287Y327731D01*
X49304Y327718D01*
X49465Y327638D01*
X49623Y327555D01*
X49645Y327548D01*
X49665Y327538D01*
X49839Y327492D01*
X50010Y327442D01*
X50032Y327440D01*
X50054Y327434D01*
X50384Y327407D01*
X51144Y327407D01*
X51195Y327412D01*
X51246Y327409D01*
X51395Y327432D01*
X51545Y327447D01*
X51594Y327462D01*
X51644Y327469D01*
X51785Y327521D01*
X51930Y327565D01*
X51974Y327589D01*
X52023Y327607D01*
X52151Y327685D01*
X52284Y327757D01*
X52323Y327789D01*
X52367Y327816D01*
X52477Y327918D01*
X52593Y328014D01*
X52625Y328054D01*
X52662Y328089D01*
X52751Y328211D01*
X52845Y328328D01*
X52869Y328373D01*
X52899Y328415D01*
X52961Y328552D01*
X53031Y328685D01*
X53045Y328734D01*
X53066Y328781D01*
X53100Y328928D01*
X53142Y329072D01*
X53146Y329123D01*
X53158Y329173D01*
X53163Y329324D01*
X53175Y329474D01*
X53169Y329524D01*
X53171Y329575D01*
X53146Y329724D01*
X53128Y329873D01*
X53112Y329922D01*
X53104Y329972D01*
X53050Y330113D01*
X53003Y330256D01*
X52978Y330301D01*
X52960Y330348D01*
X52840Y330546D01*
X52805Y330607D01*
X52796Y330617D01*
X52787Y330632D01*
X52136Y331529D01*
X51451Y332872D01*
X50987Y334301D01*
X60112Y334301D01*
X60130Y334302D01*
X60147Y334301D01*
X60311Y334320D01*
X60548Y334301D01*
X69673Y334301D01*
X69209Y332872D01*
X68524Y331529D01*
X67873Y330632D01*
X67847Y330588D01*
X67815Y330548D01*
X67746Y330415D01*
X67669Y330284D01*
X67653Y330236D01*
X67629Y330191D01*
X67588Y330046D01*
X67539Y329904D01*
X67532Y329853D01*
X67518Y329804D01*
X67506Y329654D01*
X67486Y329504D01*
X67489Y329453D01*
X67485Y329402D01*
X67503Y329253D01*
X67513Y329103D01*
X67526Y329053D01*
X67532Y329003D01*
X67579Y328859D01*
X67618Y328714D01*
X67641Y328668D01*
X67657Y328620D01*
X67731Y328489D01*
X67798Y328354D01*
X67830Y328314D01*
X67855Y328269D01*
X67953Y328155D01*
X68046Y328036D01*
X68085Y328003D01*
X68118Y327964D01*
X68237Y327872D01*
X68351Y327774D01*
X68396Y327749D01*
X68436Y327718D01*
X68570Y327651D01*
X68702Y327577D01*
X68751Y327561D01*
X68797Y327538D01*
X68942Y327499D01*
X69085Y327453D01*
X69136Y327447D01*
X69185Y327434D01*
X69416Y327415D01*
X69485Y327407D01*
X69499Y327408D01*
X69516Y327407D01*
X70276Y327407D01*
X70298Y327409D01*
X70320Y327407D01*
X70498Y327429D01*
X70676Y327447D01*
X70698Y327453D01*
X70720Y327456D01*
X70890Y327512D01*
X71061Y327565D01*
X71081Y327575D01*
X71102Y327582D01*
X71258Y327671D01*
X71415Y327757D01*
X71432Y327771D01*
X71452Y327782D01*
X71587Y327899D01*
X71724Y328014D01*
X71738Y328032D01*
X71755Y328046D01*
X71864Y328188D01*
X71977Y328328D01*
X71987Y328348D01*
X72001Y328366D01*
X72152Y328661D01*
X72169Y328702D01*
X74578Y331111D01*
X77726Y332415D01*
X81134Y332415D01*
X81174Y332398D01*
X81196Y332391D01*
X81216Y332381D01*
X81389Y332333D01*
X81560Y332281D01*
X81582Y332279D01*
X81604Y332273D01*
X81783Y332260D01*
X81961Y332243D01*
X81983Y332245D01*
X82005Y332244D01*
X82183Y332266D01*
X82361Y332285D01*
X82382Y332291D01*
X82405Y332294D01*
X82574Y332351D01*
X82745Y332405D01*
X82765Y332415D01*
X82786Y332422D01*
X82942Y332512D01*
X83099Y332598D01*
X83116Y332612D01*
X83135Y332623D01*
X83388Y332838D01*
X191999Y441449D01*
X192010Y441462D01*
X192024Y441474D01*
X192138Y441618D01*
X192254Y441760D01*
X192262Y441776D01*
X192273Y441790D01*
X192357Y441954D01*
X192442Y442116D01*
X192447Y442133D01*
X192456Y442149D01*
X192505Y442326D01*
X192557Y442502D01*
X192559Y442520D01*
X192564Y442537D01*
X192577Y442720D01*
X192594Y442903D01*
X192592Y442921D01*
X192593Y442938D01*
X192570Y443120D01*
X192550Y443303D01*
X192545Y443320D01*
X192543Y443338D01*
X192484Y443511D01*
X192429Y443687D01*
X192420Y443703D01*
X192414Y443719D01*
X192322Y443879D01*
X192234Y444039D01*
X192222Y444053D01*
X192213Y444068D01*
X191999Y444321D01*
X159797Y476523D01*
X159732Y476577D01*
X159673Y476637D01*
X159576Y476704D01*
X159485Y476778D01*
X159411Y476818D01*
X159341Y476866D01*
X159233Y476912D01*
X159130Y476967D01*
X159049Y476991D01*
X158971Y477024D01*
X158856Y477048D01*
X158744Y477082D01*
X158660Y477089D01*
X158577Y477107D01*
X158460Y477107D01*
X158343Y477118D01*
X158259Y477109D01*
X158175Y477110D01*
X158059Y477087D01*
X157943Y477075D01*
X157862Y477049D01*
X157779Y477033D01*
X157671Y476989D01*
X157559Y476953D01*
X157485Y476912D01*
X157407Y476880D01*
X157309Y476815D01*
X157206Y476758D01*
X157142Y476704D01*
X157072Y476657D01*
X156989Y476574D01*
X156899Y476498D01*
X156847Y476432D01*
X156787Y476372D01*
X156722Y476274D01*
X156650Y476182D01*
X156612Y476107D01*
X156565Y476036D01*
X156521Y475928D01*
X156467Y475823D01*
X156445Y475742D01*
X156413Y475664D01*
X156391Y475548D01*
X156359Y475435D01*
X156353Y475351D01*
X156337Y475268D01*
X156339Y475151D01*
X156330Y475034D01*
X156341Y474950D01*
X156341Y474866D01*
X156366Y474751D01*
X156380Y474634D01*
X156407Y474554D01*
X156425Y474472D01*
X156481Y474334D01*
X156509Y474252D01*
X156530Y474216D01*
X156551Y474165D01*
X156736Y473800D01*
X157179Y472439D01*
X142239Y472439D01*
X142239Y480061D01*
X148120Y480061D01*
X149699Y479811D01*
X151220Y479316D01*
X151585Y479131D01*
X151663Y479100D01*
X151738Y479061D01*
X151850Y479027D01*
X151960Y478984D01*
X152043Y478970D01*
X152124Y478946D01*
X152241Y478935D01*
X152356Y478915D01*
X152440Y478917D01*
X152525Y478909D01*
X152642Y478922D01*
X152759Y478925D01*
X152841Y478944D01*
X152925Y478953D01*
X153037Y478988D01*
X153151Y479014D01*
X153228Y479049D01*
X153309Y479074D01*
X153412Y479131D01*
X153519Y479179D01*
X153587Y479228D01*
X153661Y479269D01*
X153751Y479345D01*
X153846Y479413D01*
X153904Y479475D01*
X153968Y479530D01*
X154041Y479622D01*
X154121Y479708D01*
X154165Y479779D01*
X154218Y479846D01*
X154271Y479950D01*
X154333Y480050D01*
X154362Y480129D01*
X154400Y480204D01*
X154432Y480318D01*
X154472Y480428D01*
X154485Y480511D01*
X154508Y480592D01*
X154517Y480709D01*
X154535Y480825D01*
X154531Y480910D01*
X154537Y480994D01*
X154523Y481111D01*
X154518Y481228D01*
X154498Y481309D01*
X154487Y481393D01*
X154450Y481505D01*
X154422Y481619D01*
X154386Y481695D01*
X154359Y481775D01*
X154300Y481877D01*
X154250Y481983D01*
X154200Y482051D01*
X154158Y482124D01*
X154062Y482237D01*
X154010Y482306D01*
X153979Y482335D01*
X153943Y482377D01*
X150760Y485560D01*
X150739Y485577D01*
X150721Y485598D01*
X150584Y485704D01*
X150448Y485815D01*
X150424Y485828D01*
X150403Y485844D01*
X150247Y485922D01*
X150092Y486004D01*
X150067Y486012D01*
X150043Y486024D01*
X149874Y486069D01*
X149707Y486119D01*
X149680Y486121D01*
X149654Y486128D01*
X149323Y486155D01*
X130261Y486155D01*
X126900Y487547D01*
X124327Y490120D01*
X122935Y493481D01*
X122935Y497119D01*
X124327Y500480D01*
X126900Y503053D01*
X130261Y504445D01*
X146812Y504445D01*
X146830Y504447D01*
X146848Y504445D01*
X147030Y504466D01*
X147213Y504485D01*
X147230Y504490D01*
X147247Y504492D01*
X147422Y504549D01*
X147598Y504603D01*
X147613Y504611D01*
X147630Y504617D01*
X147790Y504707D01*
X147952Y504795D01*
X147965Y504806D01*
X147981Y504815D01*
X148120Y504935D01*
X148261Y505052D01*
X148272Y505066D01*
X148286Y505078D01*
X148398Y505223D01*
X148513Y505366D01*
X148521Y505382D01*
X148532Y505396D01*
X148614Y505561D01*
X148699Y505723D01*
X148704Y505740D01*
X148712Y505756D01*
X148759Y505935D01*
X148810Y506110D01*
X148812Y506128D01*
X148816Y506145D01*
X148843Y506476D01*
X148843Y555144D01*
X148841Y555162D01*
X148843Y555180D01*
X148822Y555362D01*
X148803Y555545D01*
X148798Y555562D01*
X148796Y555579D01*
X148739Y555754D01*
X148685Y555930D01*
X148677Y555945D01*
X148671Y555962D01*
X148581Y556122D01*
X148493Y556284D01*
X148482Y556297D01*
X148473Y556313D01*
X148353Y556452D01*
X148236Y556593D01*
X148222Y556604D01*
X148210Y556618D01*
X148065Y556730D01*
X147922Y556845D01*
X147906Y556853D01*
X147892Y556864D01*
X147727Y556946D01*
X147565Y557031D01*
X147548Y557036D01*
X147532Y557044D01*
X147353Y557091D01*
X147178Y557142D01*
X147160Y557144D01*
X147143Y557148D01*
X146812Y557175D01*
X142768Y557175D01*
X141875Y558068D01*
X141875Y569862D01*
X141873Y569880D01*
X141875Y569898D01*
X141854Y570080D01*
X141835Y570263D01*
X141830Y570280D01*
X141828Y570297D01*
X141771Y570472D01*
X141717Y570648D01*
X141709Y570663D01*
X141703Y570680D01*
X141613Y570840D01*
X141525Y571002D01*
X141514Y571015D01*
X141505Y571031D01*
X141385Y571170D01*
X141268Y571311D01*
X141254Y571322D01*
X141242Y571336D01*
X141097Y571448D01*
X140954Y571563D01*
X140938Y571571D01*
X140924Y571582D01*
X140759Y571664D01*
X140597Y571749D01*
X140580Y571754D01*
X140564Y571762D01*
X140385Y571809D01*
X140210Y571860D01*
X140192Y571862D01*
X140175Y571866D01*
X139844Y571893D01*
X135956Y571893D01*
X135938Y571891D01*
X135920Y571893D01*
X135738Y571872D01*
X135555Y571853D01*
X135538Y571848D01*
X135521Y571846D01*
X135346Y571789D01*
X135170Y571735D01*
X135155Y571727D01*
X135138Y571721D01*
X134978Y571631D01*
X134816Y571543D01*
X134803Y571532D01*
X134787Y571523D01*
X134648Y571403D01*
X134507Y571286D01*
X134496Y571272D01*
X134482Y571260D01*
X134370Y571115D01*
X134255Y570972D01*
X134247Y570956D01*
X134236Y570942D01*
X134154Y570777D01*
X134069Y570615D01*
X134064Y570598D01*
X134056Y570582D01*
X134009Y570403D01*
X133958Y570228D01*
X133956Y570210D01*
X133952Y570193D01*
X133925Y569862D01*
X133925Y569568D01*
X133032Y568675D01*
X120968Y568675D01*
X120075Y569568D01*
X120075Y581332D01*
X120939Y582195D01*
X120991Y582259D01*
X121050Y582316D01*
X121118Y582414D01*
X121194Y582507D01*
X121233Y582579D01*
X121279Y582647D01*
X121327Y582757D01*
X121383Y582862D01*
X121406Y582941D01*
X121439Y583017D01*
X121463Y583134D01*
X121497Y583248D01*
X121505Y583330D01*
X121522Y583411D01*
X121523Y583530D01*
X121534Y583649D01*
X121525Y583731D01*
X121526Y583813D01*
X121503Y583931D01*
X121490Y584050D01*
X121466Y584128D01*
X121450Y584209D01*
X121405Y584319D01*
X121369Y584433D01*
X121329Y584505D01*
X121298Y584581D01*
X121232Y584681D01*
X121174Y584786D01*
X121121Y584849D01*
X121076Y584917D01*
X120991Y585001D01*
X120914Y585093D01*
X120849Y585144D01*
X120791Y585202D01*
X120666Y585289D01*
X120598Y585342D01*
X120561Y585361D01*
X120518Y585391D01*
X120040Y585667D01*
X119567Y586140D01*
X119232Y586719D01*
X119059Y587365D01*
X119059Y590326D01*
X126407Y590326D01*
X126425Y590327D01*
X126442Y590326D01*
X126625Y590347D01*
X126807Y590366D01*
X126824Y590371D01*
X126842Y590373D01*
X126998Y590424D01*
X127052Y590409D01*
X127227Y590359D01*
X127245Y590357D01*
X127262Y590353D01*
X127593Y590326D01*
X134941Y590326D01*
X134941Y587365D01*
X134768Y586719D01*
X134433Y586140D01*
X133960Y585667D01*
X133482Y585391D01*
X133415Y585343D01*
X133343Y585303D01*
X133252Y585226D01*
X133155Y585156D01*
X133099Y585096D01*
X133036Y585043D01*
X132962Y584949D01*
X132880Y584861D01*
X132837Y584791D01*
X132786Y584727D01*
X132732Y584620D01*
X132670Y584518D01*
X132641Y584441D01*
X132604Y584368D01*
X132572Y584253D01*
X132531Y584140D01*
X132518Y584059D01*
X132496Y583980D01*
X132487Y583860D01*
X132469Y583742D01*
X132473Y583660D01*
X132467Y583578D01*
X132482Y583459D01*
X132487Y583340D01*
X132507Y583260D01*
X132517Y583179D01*
X132555Y583065D01*
X132584Y582949D01*
X132619Y582875D01*
X132645Y582797D01*
X132705Y582694D01*
X132756Y582585D01*
X132805Y582519D01*
X132846Y582448D01*
X132945Y582332D01*
X132997Y582263D01*
X133027Y582235D01*
X133061Y582195D01*
X133925Y581332D01*
X133925Y581038D01*
X133927Y581020D01*
X133925Y581002D01*
X133946Y580820D01*
X133965Y580637D01*
X133970Y580620D01*
X133972Y580603D01*
X134029Y580428D01*
X134083Y580252D01*
X134091Y580237D01*
X134097Y580220D01*
X134187Y580060D01*
X134275Y579898D01*
X134286Y579885D01*
X134295Y579869D01*
X134415Y579730D01*
X134532Y579589D01*
X134546Y579578D01*
X134558Y579564D01*
X134703Y579452D01*
X134846Y579337D01*
X134862Y579329D01*
X134876Y579318D01*
X135041Y579236D01*
X135203Y579151D01*
X135220Y579146D01*
X135236Y579138D01*
X135415Y579091D01*
X135590Y579040D01*
X135608Y579038D01*
X135625Y579034D01*
X135956Y579007D01*
X139844Y579007D01*
X139862Y579009D01*
X139880Y579007D01*
X140062Y579028D01*
X140245Y579047D01*
X140262Y579052D01*
X140279Y579054D01*
X140454Y579111D01*
X140630Y579165D01*
X140645Y579173D01*
X140662Y579179D01*
X140822Y579269D01*
X140984Y579357D01*
X140997Y579368D01*
X141013Y579377D01*
X141152Y579497D01*
X141293Y579614D01*
X141304Y579628D01*
X141318Y579640D01*
X141430Y579785D01*
X141545Y579928D01*
X141553Y579944D01*
X141564Y579958D01*
X141646Y580123D01*
X141731Y580285D01*
X141736Y580302D01*
X141744Y580318D01*
X141791Y580497D01*
X141842Y580672D01*
X141844Y580690D01*
X141848Y580707D01*
X141857Y580813D01*
X142847Y581803D01*
X142853Y581805D01*
X142986Y581837D01*
X143044Y581864D01*
X143106Y581883D01*
X143227Y581948D01*
X143352Y582006D01*
X143404Y582044D01*
X143460Y582075D01*
X143566Y582162D01*
X143677Y582244D01*
X143720Y582291D01*
X143769Y582332D01*
X143856Y582439D01*
X143948Y582541D01*
X143981Y582596D01*
X144022Y582646D01*
X144085Y582768D01*
X144156Y582886D01*
X144178Y582946D01*
X144207Y583003D01*
X144245Y583135D01*
X144292Y583265D01*
X144301Y583328D01*
X144319Y583390D01*
X144330Y583527D01*
X144350Y583663D01*
X144346Y583727D01*
X144351Y583792D01*
X144336Y583928D01*
X144328Y584065D01*
X144312Y584128D01*
X144305Y584191D01*
X144262Y584322D01*
X144228Y584455D01*
X144200Y584513D01*
X144180Y584574D01*
X144112Y584694D01*
X144052Y584817D01*
X144013Y584869D01*
X143982Y584925D01*
X143892Y585029D01*
X143809Y585138D01*
X143761Y585181D01*
X143719Y585229D01*
X143610Y585314D01*
X143507Y585405D01*
X143451Y585437D01*
X143401Y585476D01*
X143278Y585537D01*
X143159Y585606D01*
X143089Y585631D01*
X143040Y585656D01*
X142963Y585676D01*
X142846Y585718D01*
X142419Y585832D01*
X141840Y586167D01*
X141367Y586640D01*
X141032Y587219D01*
X140859Y587865D01*
X140859Y594887D01*
X150368Y594887D01*
X150386Y594889D01*
X150403Y594887D01*
X150586Y594909D01*
X150769Y594927D01*
X150786Y594932D01*
X150803Y594934D01*
X150978Y594991D01*
X151153Y595045D01*
X151169Y595053D01*
X151186Y595059D01*
X151346Y595149D01*
X151507Y595237D01*
X151521Y595248D01*
X151537Y595257D01*
X151676Y595377D01*
X151817Y595494D01*
X151828Y595508D01*
X151841Y595520D01*
X151954Y595665D01*
X152069Y595808D01*
X152077Y595824D01*
X152088Y595838D01*
X152170Y596003D01*
X152255Y596165D01*
X152259Y596182D01*
X152267Y596199D01*
X152315Y596377D01*
X152366Y596552D01*
X152367Y596570D01*
X152372Y596587D01*
X152399Y596918D01*
X152399Y598951D01*
X152401Y598951D01*
X152401Y596918D01*
X152403Y596900D01*
X152401Y596883D01*
X152423Y596700D01*
X152441Y596517D01*
X152446Y596500D01*
X152448Y596483D01*
X152505Y596308D01*
X152559Y596133D01*
X152567Y596117D01*
X152573Y596100D01*
X152663Y595940D01*
X152751Y595778D01*
X152762Y595765D01*
X152771Y595749D01*
X152891Y595610D01*
X153008Y595469D01*
X153022Y595458D01*
X153034Y595445D01*
X153179Y595332D01*
X153322Y595217D01*
X153338Y595209D01*
X153352Y595198D01*
X153517Y595116D01*
X153679Y595031D01*
X153697Y595026D01*
X153713Y595018D01*
X153891Y594971D01*
X154066Y594920D01*
X154084Y594919D01*
X154101Y594914D01*
X154432Y594887D01*
X163941Y594887D01*
X163941Y591705D01*
X163942Y591696D01*
X163941Y591687D01*
X163962Y591493D01*
X163981Y591304D01*
X163983Y591296D01*
X163984Y591287D01*
X164042Y591103D01*
X164099Y590919D01*
X164103Y590911D01*
X164106Y590903D01*
X164198Y590735D01*
X164291Y590565D01*
X164296Y590558D01*
X164301Y590550D01*
X164425Y590403D01*
X164548Y590256D01*
X164555Y590250D01*
X164561Y590243D01*
X164713Y590124D01*
X164862Y590003D01*
X164870Y589999D01*
X164877Y589994D01*
X165050Y589906D01*
X165219Y589818D01*
X165228Y589815D01*
X165236Y589811D01*
X165422Y589759D01*
X165606Y589707D01*
X165615Y589706D01*
X165624Y589703D01*
X165817Y589689D01*
X166008Y589674D01*
X166016Y589675D01*
X166025Y589674D01*
X166218Y589698D01*
X166407Y589721D01*
X166416Y589723D01*
X166425Y589724D01*
X166608Y589786D01*
X166790Y589845D01*
X166798Y589850D01*
X166806Y589853D01*
X166973Y589949D01*
X167141Y590043D01*
X167148Y590049D01*
X167155Y590054D01*
X167408Y590268D01*
X183280Y606140D01*
X183297Y606161D01*
X183318Y606179D01*
X183425Y606316D01*
X183535Y606452D01*
X183548Y606475D01*
X183564Y606497D01*
X183642Y606654D01*
X183724Y606808D01*
X183732Y606833D01*
X183744Y606857D01*
X183789Y607027D01*
X183839Y607193D01*
X183841Y607220D01*
X183848Y607246D01*
X183875Y607577D01*
X183875Y622808D01*
X183873Y622826D01*
X183875Y622844D01*
X183854Y623026D01*
X183835Y623209D01*
X183830Y623226D01*
X183828Y623243D01*
X183771Y623418D01*
X183717Y623594D01*
X183709Y623609D01*
X183703Y623626D01*
X183613Y623786D01*
X183525Y623948D01*
X183514Y623961D01*
X183505Y623977D01*
X183385Y624116D01*
X183268Y624257D01*
X183254Y624268D01*
X183242Y624282D01*
X183097Y624394D01*
X182954Y624509D01*
X182938Y624517D01*
X182924Y624528D01*
X182759Y624610D01*
X182597Y624695D01*
X182580Y624700D01*
X182564Y624708D01*
X182385Y624755D01*
X182210Y624806D01*
X182192Y624808D01*
X182175Y624812D01*
X181844Y624839D01*
X71946Y624839D01*
X71800Y624825D01*
X71654Y624818D01*
X71601Y624805D01*
X71545Y624799D01*
X71406Y624756D01*
X71264Y624721D01*
X71214Y624698D01*
X71160Y624681D01*
X71032Y624612D01*
X70900Y624549D01*
X70855Y624516D01*
X70806Y624489D01*
X70694Y624396D01*
X70577Y624309D01*
X70540Y624267D01*
X70497Y624232D01*
X70406Y624118D01*
X70308Y624009D01*
X70280Y623961D01*
X70245Y623918D01*
X70178Y623788D01*
X70103Y623662D01*
X70085Y623610D01*
X70059Y623561D01*
X70019Y623420D01*
X69971Y623282D01*
X69963Y623227D01*
X69948Y623174D01*
X69936Y623028D01*
X69916Y622883D01*
X69920Y622828D01*
X69915Y622772D01*
X69932Y622627D01*
X69941Y622481D01*
X69955Y622428D01*
X69962Y622373D01*
X70007Y622234D01*
X70045Y622092D01*
X70072Y622035D01*
X70087Y621990D01*
X70128Y621917D01*
X70187Y621792D01*
X73314Y616376D01*
X74961Y610231D01*
X74961Y603869D01*
X73314Y597724D01*
X70133Y592215D01*
X65635Y587717D01*
X60126Y584536D01*
X53981Y582889D01*
X47619Y582889D01*
X41474Y584536D01*
X35965Y587717D01*
X31467Y592215D01*
X28286Y597724D01*
X26639Y603869D01*
X26639Y610231D01*
X28286Y616376D01*
X31413Y621792D01*
X31473Y621926D01*
X31541Y622055D01*
X31556Y622109D01*
X31579Y622159D01*
X31612Y622302D01*
X31652Y622442D01*
X31657Y622498D01*
X31669Y622552D01*
X31673Y622698D01*
X31685Y622844D01*
X31678Y622899D01*
X31680Y622954D01*
X31655Y623099D01*
X31638Y623243D01*
X31621Y623296D01*
X31611Y623351D01*
X31559Y623487D01*
X31513Y623626D01*
X31486Y623675D01*
X31466Y623726D01*
X31387Y623849D01*
X31315Y623977D01*
X31279Y624019D01*
X31249Y624066D01*
X31148Y624171D01*
X31052Y624282D01*
X31008Y624316D01*
X30970Y624356D01*
X30849Y624439D01*
X30734Y624528D01*
X30684Y624553D01*
X30639Y624585D01*
X30504Y624643D01*
X30374Y624708D01*
X30320Y624722D01*
X30269Y624744D01*
X30126Y624774D01*
X29985Y624812D01*
X29922Y624817D01*
X29875Y624827D01*
X29791Y624828D01*
X29654Y624839D01*
X12192Y624839D01*
X12174Y624837D01*
X12156Y624839D01*
X11974Y624818D01*
X11791Y624799D01*
X11774Y624794D01*
X11757Y624792D01*
X11582Y624735D01*
X11406Y624681D01*
X11391Y624673D01*
X11374Y624667D01*
X11214Y624577D01*
X11052Y624489D01*
X11039Y624478D01*
X11023Y624469D01*
X10884Y624349D01*
X10743Y624232D01*
X10732Y624218D01*
X10718Y624206D01*
X10606Y624061D01*
X10491Y623918D01*
X10483Y623902D01*
X10472Y623888D01*
X10390Y623723D01*
X10305Y623561D01*
X10300Y623544D01*
X10292Y623528D01*
X10245Y623349D01*
X10194Y623174D01*
X10192Y623156D01*
X10188Y623139D01*
X10161Y622808D01*
X10161Y518046D01*
X10161Y518042D01*
X10161Y518037D01*
X10181Y517842D01*
X10201Y517645D01*
X10202Y517641D01*
X10202Y517637D01*
X10262Y517444D01*
X10319Y517261D01*
X10321Y517257D01*
X10322Y517252D01*
X10418Y517078D01*
X10511Y516907D01*
X10513Y516903D01*
X10516Y516899D01*
X10645Y516745D01*
X10768Y516597D01*
X10772Y516594D01*
X10775Y516591D01*
X10930Y516467D01*
X11082Y516345D01*
X11086Y516343D01*
X11090Y516340D01*
X11268Y516248D01*
X11439Y516159D01*
X11444Y516158D01*
X11448Y516156D01*
X11641Y516101D01*
X11826Y516048D01*
X11831Y516048D01*
X11835Y516046D01*
X12031Y516031D01*
X12228Y516015D01*
X12232Y516016D01*
X12236Y516015D01*
X12430Y516039D01*
X12627Y516062D01*
X12632Y516063D01*
X12636Y516064D01*
X12821Y516125D01*
X13010Y516187D01*
X13014Y516189D01*
X13018Y516191D01*
X13187Y516287D01*
X13361Y516385D01*
X13364Y516388D01*
X13368Y516390D01*
X13517Y516519D01*
X13665Y516648D01*
X13668Y516651D01*
X13672Y516654D01*
X13794Y516814D01*
X13912Y516966D01*
X13914Y516970D01*
X13917Y516974D01*
X14069Y517269D01*
X14869Y519202D01*
X17278Y521611D01*
X18686Y522194D01*
X20426Y522915D01*
X23834Y522915D01*
X26982Y521611D01*
X29391Y519202D01*
X30695Y516054D01*
X30695Y512646D01*
X29391Y509498D01*
X26982Y507089D01*
X23834Y505785D01*
X20426Y505785D01*
X17278Y507089D01*
X14869Y509498D01*
X14069Y511431D01*
X14067Y511435D01*
X14065Y511439D01*
X13972Y511612D01*
X13878Y511786D01*
X13876Y511790D01*
X13873Y511793D01*
X13748Y511944D01*
X13622Y512096D01*
X13619Y512099D01*
X13616Y512103D01*
X13465Y512224D01*
X13309Y512350D01*
X13305Y512352D01*
X13302Y512355D01*
X13130Y512444D01*
X12953Y512537D01*
X12949Y512539D01*
X12945Y512541D01*
X12757Y512595D01*
X12566Y512650D01*
X12562Y512651D01*
X12558Y512652D01*
X12360Y512668D01*
X12165Y512685D01*
X12161Y512684D01*
X12156Y512685D01*
X11961Y512662D01*
X11765Y512640D01*
X11761Y512638D01*
X11757Y512638D01*
X11569Y512577D01*
X11382Y512517D01*
X11378Y512515D01*
X11374Y512513D01*
X11199Y512415D01*
X11030Y512320D01*
X11027Y512317D01*
X11023Y512315D01*
X10875Y512187D01*
X10725Y512058D01*
X10722Y512055D01*
X10718Y512052D01*
X10598Y511897D01*
X10476Y511741D01*
X10474Y511737D01*
X10472Y511734D01*
X10384Y511558D01*
X10296Y511382D01*
X10294Y511377D01*
X10292Y511373D01*
X10241Y511182D01*
X10189Y510993D01*
X10189Y510989D01*
X10188Y510985D01*
X10161Y510654D01*
X10161Y492646D01*
X10161Y492642D01*
X10161Y492637D01*
X10181Y492443D01*
X10201Y492245D01*
X10202Y492241D01*
X10202Y492237D01*
X10261Y492049D01*
X10319Y491861D01*
X10321Y491857D01*
X10322Y491852D01*
X10418Y491678D01*
X10511Y491507D01*
X10513Y491503D01*
X10516Y491499D01*
X10644Y491346D01*
X10768Y491197D01*
X10772Y491194D01*
X10775Y491191D01*
X10930Y491067D01*
X11082Y490945D01*
X11086Y490943D01*
X11090Y490940D01*
X11268Y490848D01*
X11439Y490759D01*
X11444Y490758D01*
X11448Y490756D01*
X11641Y490701D01*
X11826Y490648D01*
X11831Y490648D01*
X11835Y490646D01*
X12031Y490631D01*
X12228Y490615D01*
X12232Y490616D01*
X12236Y490615D01*
X12430Y490639D01*
X12627Y490662D01*
X12632Y490663D01*
X12636Y490664D01*
X12821Y490725D01*
X13010Y490787D01*
X13014Y490789D01*
X13018Y490791D01*
X13187Y490887D01*
X13361Y490985D01*
X13364Y490988D01*
X13368Y490990D01*
X13517Y491119D01*
X13665Y491248D01*
X13668Y491251D01*
X13672Y491254D01*
X13794Y491413D01*
X13912Y491566D01*
X13914Y491570D01*
X13917Y491574D01*
X14069Y491869D01*
X14869Y493802D01*
X17278Y496211D01*
X20426Y497515D01*
X23834Y497515D01*
X26982Y496211D01*
X29391Y493802D01*
X30695Y490654D01*
X30695Y487246D01*
X29391Y484098D01*
X26982Y481689D01*
X23834Y480385D01*
X20426Y480385D01*
X17278Y481689D01*
X14869Y484098D01*
X14069Y486031D01*
X14067Y486035D01*
X14065Y486039D01*
X13972Y486212D01*
X13878Y486386D01*
X13876Y486390D01*
X13873Y486393D01*
X13748Y486544D01*
X13622Y486696D01*
X13619Y486699D01*
X13616Y486703D01*
X13465Y486824D01*
X13309Y486950D01*
X13305Y486952D01*
X13302Y486955D01*
X13130Y487044D01*
X12953Y487137D01*
X12949Y487139D01*
X12945Y487141D01*
X12757Y487195D01*
X12566Y487250D01*
X12562Y487251D01*
X12558Y487252D01*
X12360Y487268D01*
X12165Y487285D01*
X12161Y487284D01*
X12156Y487285D01*
X11961Y487262D01*
X11765Y487240D01*
X11761Y487238D01*
X11757Y487238D01*
X11569Y487177D01*
X11382Y487117D01*
X11378Y487115D01*
X11374Y487113D01*
X11201Y487016D01*
X11030Y486920D01*
X11027Y486917D01*
X11023Y486915D01*
X10873Y486786D01*
X10725Y486658D01*
X10722Y486655D01*
X10718Y486652D01*
X10598Y486497D01*
X10476Y486341D01*
X10474Y486337D01*
X10472Y486334D01*
X10383Y486155D01*
X10296Y485982D01*
X10294Y485977D01*
X10292Y485973D01*
X10241Y485782D01*
X10189Y485593D01*
X10189Y485589D01*
X10188Y485585D01*
X10161Y485254D01*
X10161Y467246D01*
X10161Y467242D01*
X10161Y467237D01*
X10181Y467043D01*
X10201Y466845D01*
X10202Y466841D01*
X10202Y466837D01*
X10261Y466649D01*
X10319Y466461D01*
X10321Y466457D01*
X10322Y466452D01*
X10418Y466278D01*
X10511Y466107D01*
X10513Y466103D01*
X10516Y466099D01*
X10644Y465946D01*
X10768Y465797D01*
X10772Y465794D01*
X10775Y465791D01*
X10930Y465667D01*
X11082Y465545D01*
X11086Y465543D01*
X11090Y465540D01*
X11268Y465448D01*
X11439Y465359D01*
X11444Y465358D01*
X11448Y465356D01*
X11641Y465301D01*
X11826Y465248D01*
X11831Y465248D01*
X11835Y465246D01*
X12031Y465231D01*
X12228Y465215D01*
X12232Y465216D01*
X12236Y465215D01*
X12430Y465239D01*
X12627Y465262D01*
X12632Y465263D01*
X12636Y465264D01*
X12821Y465325D01*
X13010Y465387D01*
X13014Y465389D01*
X13018Y465391D01*
X13187Y465487D01*
X13361Y465585D01*
X13364Y465588D01*
X13368Y465590D01*
X13516Y465718D01*
X13665Y465848D01*
X13668Y465851D01*
X13672Y465854D01*
X13794Y466014D01*
X13912Y466166D01*
X13914Y466170D01*
X13917Y466174D01*
X14069Y466469D01*
X14869Y468402D01*
X17278Y470811D01*
X20426Y472115D01*
X23834Y472115D01*
X26982Y470811D01*
X29391Y468402D01*
X30695Y465254D01*
X30695Y461846D01*
X29391Y458698D01*
X26982Y456289D01*
X23834Y454985D01*
X20426Y454985D01*
X17278Y456289D01*
X14869Y458698D01*
X14069Y460631D01*
X14067Y460635D01*
X14065Y460639D01*
X13972Y460812D01*
X13878Y460986D01*
X13876Y460990D01*
X13873Y460993D01*
X13748Y461144D01*
X13622Y461296D01*
X13619Y461299D01*
X13616Y461303D01*
X13465Y461424D01*
X13309Y461550D01*
X13305Y461552D01*
X13302Y461555D01*
X13130Y461644D01*
X12953Y461737D01*
X12949Y461739D01*
X12945Y461741D01*
X12757Y461795D01*
X12566Y461850D01*
X12562Y461851D01*
X12558Y461852D01*
X12360Y461868D01*
X12165Y461885D01*
X12161Y461884D01*
X12156Y461885D01*
X11961Y461862D01*
X11765Y461840D01*
X11761Y461838D01*
X11757Y461838D01*
X11569Y461777D01*
X11382Y461717D01*
X11378Y461715D01*
X11374Y461713D01*
X11201Y461616D01*
X11030Y461520D01*
X11027Y461517D01*
X11023Y461515D01*
X10875Y461387D01*
X10725Y461258D01*
X10722Y461255D01*
X10718Y461252D01*
X10598Y461097D01*
X10476Y460941D01*
X10474Y460937D01*
X10472Y460934D01*
X10383Y460755D01*
X10296Y460582D01*
X10294Y460577D01*
X10292Y460573D01*
X10241Y460382D01*
X10189Y460193D01*
X10189Y460189D01*
X10188Y460185D01*
X10161Y459854D01*
X10161Y441846D01*
X10161Y441842D01*
X10161Y441837D01*
X10181Y441643D01*
X10201Y441445D01*
X10202Y441441D01*
X10202Y441437D01*
X10261Y441249D01*
X10319Y441061D01*
X10321Y441057D01*
X10322Y441052D01*
X10418Y440878D01*
X10511Y440707D01*
X10513Y440703D01*
X10516Y440699D01*
X10644Y440546D01*
X10768Y440397D01*
X10772Y440394D01*
X10775Y440391D01*
X10930Y440267D01*
X11082Y440145D01*
X11086Y440143D01*
X11090Y440140D01*
X11268Y440048D01*
X11439Y439959D01*
X11444Y439958D01*
X11448Y439956D01*
X11641Y439901D01*
X11826Y439848D01*
X11831Y439848D01*
X11835Y439846D01*
X12031Y439831D01*
X12228Y439815D01*
X12232Y439816D01*
X12236Y439815D01*
X12430Y439839D01*
X12627Y439862D01*
X12632Y439863D01*
X12636Y439864D01*
X12821Y439925D01*
X13010Y439987D01*
X13014Y439989D01*
X13018Y439991D01*
X13187Y440087D01*
X13361Y440185D01*
X13364Y440188D01*
X13368Y440190D01*
X13515Y440318D01*
X13665Y440448D01*
X13668Y440451D01*
X13672Y440454D01*
X13794Y440614D01*
X13912Y440766D01*
X13914Y440770D01*
X13917Y440774D01*
X14069Y441069D01*
X14869Y443002D01*
X17278Y445411D01*
X20426Y446715D01*
X23834Y446715D01*
X26982Y445411D01*
X29391Y443002D01*
X30695Y439854D01*
X30695Y436446D01*
X29391Y433298D01*
X26982Y430889D01*
X25973Y430471D01*
X23834Y429585D01*
X20426Y429585D01*
X17278Y430889D01*
X14869Y433298D01*
X14069Y435231D01*
X14067Y435235D01*
X14065Y435239D01*
X13972Y435412D01*
X13878Y435586D01*
X13876Y435590D01*
X13873Y435593D01*
X13748Y435744D01*
X13622Y435896D01*
X13619Y435899D01*
X13616Y435903D01*
X13465Y436024D01*
X13309Y436150D01*
X13305Y436152D01*
X13302Y436155D01*
X13130Y436244D01*
X12953Y436337D01*
X12949Y436339D01*
X12945Y436341D01*
X12757Y436395D01*
X12566Y436450D01*
X12562Y436451D01*
X12558Y436452D01*
X12360Y436468D01*
X12165Y436485D01*
X12161Y436484D01*
X12156Y436485D01*
X11961Y436462D01*
X11765Y436440D01*
X11761Y436438D01*
X11757Y436438D01*
X11569Y436377D01*
X11382Y436317D01*
X11378Y436315D01*
X11374Y436313D01*
X11200Y436215D01*
X11030Y436120D01*
X11027Y436117D01*
X11023Y436115D01*
X10875Y435987D01*
X10725Y435858D01*
X10722Y435855D01*
X10718Y435852D01*
X10598Y435697D01*
X10476Y435541D01*
X10474Y435537D01*
X10472Y435534D01*
X10382Y435353D01*
X10296Y435182D01*
X10294Y435177D01*
X10292Y435173D01*
X10240Y434980D01*
X10189Y434793D01*
X10189Y434789D01*
X10188Y434785D01*
X10161Y434454D01*
X10161Y416446D01*
X10161Y416442D01*
X10161Y416437D01*
X10181Y416243D01*
X10201Y416045D01*
X10202Y416041D01*
X10202Y416037D01*
X10261Y415849D01*
X10319Y415661D01*
X10321Y415657D01*
X10322Y415652D01*
X10418Y415478D01*
X10511Y415307D01*
X10513Y415303D01*
X10516Y415299D01*
X10644Y415146D01*
X10768Y414997D01*
X10772Y414994D01*
X10775Y414991D01*
X10930Y414867D01*
X11082Y414745D01*
X11086Y414743D01*
X11090Y414740D01*
X11268Y414648D01*
X11439Y414559D01*
X11444Y414558D01*
X11448Y414556D01*
X11641Y414501D01*
X11826Y414448D01*
X11831Y414448D01*
X11835Y414446D01*
X12031Y414431D01*
X12228Y414415D01*
X12232Y414416D01*
X12236Y414415D01*
X12430Y414439D01*
X12627Y414462D01*
X12632Y414463D01*
X12636Y414464D01*
X12821Y414525D01*
X13010Y414587D01*
X13014Y414589D01*
X13018Y414591D01*
X13187Y414687D01*
X13361Y414785D01*
X13364Y414788D01*
X13368Y414790D01*
X13517Y414919D01*
X13665Y415048D01*
X13668Y415051D01*
X13672Y415054D01*
X13794Y415214D01*
X13912Y415366D01*
X13914Y415370D01*
X13917Y415374D01*
X14069Y415669D01*
X14869Y417602D01*
X17278Y420011D01*
X20426Y421315D01*
X23834Y421315D01*
X26982Y420011D01*
X29391Y417602D01*
X30695Y414454D01*
X30695Y411046D01*
X29391Y407898D01*
X26982Y405489D01*
X23834Y404185D01*
X20426Y404185D01*
X17278Y405489D01*
X14869Y407898D01*
X14069Y409831D01*
X14067Y409835D01*
X14065Y409839D01*
X13972Y410012D01*
X13878Y410186D01*
X13876Y410190D01*
X13873Y410193D01*
X13748Y410344D01*
X13622Y410496D01*
X13619Y410499D01*
X13616Y410503D01*
X13465Y410624D01*
X13309Y410750D01*
X13305Y410752D01*
X13302Y410755D01*
X13130Y410844D01*
X12953Y410937D01*
X12949Y410939D01*
X12945Y410941D01*
X12757Y410995D01*
X12566Y411050D01*
X12562Y411051D01*
X12558Y411052D01*
X12360Y411068D01*
X12165Y411085D01*
X12161Y411084D01*
X12156Y411085D01*
X11961Y411062D01*
X11765Y411040D01*
X11761Y411038D01*
X11757Y411038D01*
X11569Y410977D01*
X11382Y410917D01*
X11378Y410915D01*
X11374Y410913D01*
X11199Y410815D01*
X11030Y410720D01*
X11027Y410717D01*
X11023Y410715D01*
X10875Y410587D01*
X10725Y410458D01*
X10722Y410455D01*
X10718Y410452D01*
X10598Y410297D01*
X10476Y410141D01*
X10474Y410137D01*
X10472Y410134D01*
X10384Y409958D01*
X10296Y409782D01*
X10294Y409777D01*
X10292Y409773D01*
X10241Y409582D01*
X10189Y409393D01*
X10189Y409389D01*
X10188Y409385D01*
X10161Y409054D01*
X10161Y391046D01*
X10161Y391042D01*
X10161Y391037D01*
X10181Y390843D01*
X10201Y390645D01*
X10202Y390641D01*
X10202Y390637D01*
X10261Y390449D01*
X10319Y390261D01*
X10321Y390257D01*
X10322Y390252D01*
X10418Y390078D01*
X10511Y389907D01*
X10513Y389903D01*
X10516Y389899D01*
X10644Y389746D01*
X10768Y389597D01*
X10772Y389594D01*
X10775Y389591D01*
X10930Y389467D01*
X11082Y389345D01*
X11086Y389343D01*
X11090Y389340D01*
X11268Y389248D01*
X11439Y389159D01*
X11444Y389158D01*
X11448Y389156D01*
X11641Y389101D01*
X11826Y389048D01*
X11831Y389048D01*
X11835Y389046D01*
X12031Y389031D01*
X12228Y389015D01*
X12232Y389016D01*
X12236Y389015D01*
X12430Y389039D01*
X12627Y389062D01*
X12632Y389063D01*
X12636Y389064D01*
X12821Y389125D01*
X13010Y389187D01*
X13014Y389189D01*
X13018Y389191D01*
X13187Y389287D01*
X13361Y389385D01*
X13364Y389388D01*
X13368Y389390D01*
X13517Y389519D01*
X13665Y389648D01*
X13668Y389651D01*
X13672Y389654D01*
X13794Y389814D01*
X13912Y389966D01*
X13914Y389970D01*
X13917Y389974D01*
X14069Y390269D01*
X14869Y392202D01*
X17278Y394611D01*
X20426Y395915D01*
X23834Y395915D01*
X26982Y394611D01*
X29391Y392202D01*
X30695Y389054D01*
X30695Y385646D01*
X29391Y382498D01*
X26982Y380089D01*
X23834Y378785D01*
X20426Y378785D01*
X17278Y380089D01*
X14869Y382498D01*
X14069Y384431D01*
X14067Y384435D01*
X14065Y384439D01*
X13972Y384612D01*
X13878Y384786D01*
X13876Y384790D01*
X13873Y384793D01*
X13748Y384944D01*
X13622Y385096D01*
X13619Y385099D01*
X13616Y385103D01*
X13465Y385224D01*
X13309Y385350D01*
X13305Y385352D01*
X13302Y385355D01*
X13130Y385444D01*
X12953Y385537D01*
X12949Y385539D01*
X12945Y385541D01*
X12757Y385595D01*
X12566Y385650D01*
X12562Y385651D01*
X12558Y385652D01*
X12360Y385668D01*
X12165Y385685D01*
X12161Y385684D01*
X12156Y385685D01*
X11961Y385662D01*
X11765Y385640D01*
X11761Y385638D01*
X11757Y385638D01*
X11569Y385577D01*
X11382Y385517D01*
X11378Y385515D01*
X11374Y385513D01*
X11201Y385416D01*
X11030Y385320D01*
X11027Y385317D01*
X11023Y385315D01*
X10875Y385187D01*
X10725Y385058D01*
X10722Y385055D01*
X10718Y385052D01*
X10598Y384897D01*
X10476Y384741D01*
X10474Y384737D01*
X10472Y384734D01*
X10384Y384558D01*
X10296Y384382D01*
X10294Y384377D01*
X10292Y384373D01*
X10241Y384182D01*
X10189Y383993D01*
X10189Y383989D01*
X10188Y383985D01*
X10161Y383654D01*
X10161Y365646D01*
X10161Y365642D01*
X10161Y365637D01*
X10181Y365443D01*
X10201Y365245D01*
X10202Y365241D01*
X10202Y365237D01*
X10261Y365049D01*
X10319Y364861D01*
X10321Y364857D01*
X10322Y364852D01*
X10418Y364678D01*
X10511Y364507D01*
X10513Y364503D01*
X10516Y364499D01*
X10644Y364346D01*
X10768Y364197D01*
X10772Y364194D01*
X10775Y364191D01*
X10930Y364067D01*
X11082Y363945D01*
X11086Y363943D01*
X11090Y363940D01*
X11268Y363848D01*
X11439Y363759D01*
X11444Y363758D01*
X11448Y363756D01*
X11641Y363701D01*
X11826Y363648D01*
X11831Y363648D01*
X11835Y363646D01*
X12031Y363631D01*
X12228Y363615D01*
X12232Y363616D01*
X12236Y363615D01*
X12430Y363639D01*
X12627Y363662D01*
X12632Y363663D01*
X12636Y363664D01*
X12821Y363725D01*
X13010Y363787D01*
X13014Y363789D01*
X13018Y363791D01*
X13187Y363887D01*
X13361Y363985D01*
X13364Y363988D01*
X13368Y363990D01*
X13517Y364119D01*
X13665Y364248D01*
X13668Y364251D01*
X13672Y364254D01*
X13794Y364414D01*
X13912Y364566D01*
X13914Y364570D01*
X13917Y364574D01*
X14069Y364869D01*
X14869Y366802D01*
X17278Y369211D01*
X20426Y370515D01*
X23834Y370515D01*
X26982Y369211D01*
X29391Y366802D01*
X30695Y363654D01*
X30695Y360246D01*
X29391Y357098D01*
X26982Y354689D01*
X23834Y353385D01*
X20426Y353385D01*
X17278Y354689D01*
X14869Y357098D01*
X14069Y359031D01*
X14067Y359035D01*
X14065Y359039D01*
X13972Y359212D01*
X13878Y359386D01*
X13876Y359390D01*
X13873Y359393D01*
X13748Y359544D01*
X13622Y359696D01*
X13619Y359699D01*
X13616Y359703D01*
X13465Y359824D01*
X13309Y359950D01*
X13305Y359952D01*
X13302Y359955D01*
X13130Y360044D01*
X12953Y360137D01*
X12949Y360139D01*
X12945Y360141D01*
X12757Y360195D01*
X12566Y360250D01*
X12562Y360251D01*
X12558Y360252D01*
X12360Y360268D01*
X12165Y360285D01*
X12161Y360284D01*
X12156Y360285D01*
X11961Y360262D01*
X11765Y360240D01*
X11761Y360238D01*
X11757Y360238D01*
X11569Y360177D01*
X11382Y360117D01*
X11378Y360115D01*
X11374Y360113D01*
X11201Y360016D01*
X11030Y359920D01*
X11027Y359917D01*
X11023Y359915D01*
X10875Y359787D01*
X10725Y359658D01*
X10722Y359655D01*
X10718Y359652D01*
X10597Y359496D01*
X10476Y359341D01*
X10474Y359337D01*
X10472Y359334D01*
X10384Y359158D01*
X10296Y358982D01*
X10294Y358977D01*
X10292Y358973D01*
X10241Y358782D01*
X10189Y358593D01*
X10189Y358589D01*
X10188Y358585D01*
X10161Y358254D01*
X10161Y342623D01*
X10173Y342496D01*
X10177Y342367D01*
X10193Y342296D01*
X10201Y342222D01*
X10238Y342100D01*
X10267Y341975D01*
X10297Y341908D01*
X10319Y341838D01*
X10380Y341725D01*
X10433Y341608D01*
X10476Y341548D01*
X10511Y341484D01*
X10593Y341385D01*
X10667Y341281D01*
X10721Y341231D01*
X10768Y341174D01*
X10868Y341094D01*
X10962Y341007D01*
X11025Y340968D01*
X11082Y340922D01*
X11196Y340863D01*
X11305Y340796D01*
X11374Y340770D01*
X11439Y340736D01*
X11563Y340701D01*
X11683Y340657D01*
X11755Y340645D01*
X11826Y340625D01*
X11954Y340615D01*
X12081Y340595D01*
X12154Y340598D01*
X12228Y340592D01*
X12355Y340607D01*
X12483Y340613D01*
X12554Y340630D01*
X12627Y340639D01*
X12749Y340679D01*
X12874Y340710D01*
X12940Y340741D01*
X13010Y340764D01*
X13122Y340827D01*
X13238Y340882D01*
X13297Y340926D01*
X13361Y340962D01*
X13458Y341046D01*
X13561Y341122D01*
X13610Y341177D01*
X13665Y341225D01*
X13744Y341326D01*
X13830Y341422D01*
X13845Y341447D01*
X14822Y342791D01*
X15889Y343858D01*
X17109Y344744D01*
X18452Y345429D01*
X19881Y345893D01*
X19881Y336768D01*
X19882Y336750D01*
X19881Y336733D01*
X19900Y336569D01*
X19881Y336332D01*
X19881Y327207D01*
X18452Y327671D01*
X17109Y328356D01*
X15889Y329242D01*
X14822Y330309D01*
X13878Y331608D01*
X13873Y331616D01*
X13862Y331630D01*
X13842Y331658D01*
X13821Y331681D01*
X13787Y331735D01*
X13698Y331827D01*
X13616Y331926D01*
X13558Y331972D01*
X13507Y332025D01*
X13402Y332098D01*
X13302Y332178D01*
X13237Y332212D01*
X13176Y332254D01*
X13058Y332305D01*
X12945Y332364D01*
X12874Y332384D01*
X12806Y332413D01*
X12681Y332440D01*
X12558Y332475D01*
X12484Y332481D01*
X12412Y332496D01*
X12284Y332497D01*
X12156Y332508D01*
X12083Y332499D01*
X12010Y332500D01*
X11884Y332476D01*
X11757Y332461D01*
X11687Y332438D01*
X11614Y332424D01*
X11496Y332376D01*
X11374Y332336D01*
X11310Y332300D01*
X11242Y332272D01*
X11135Y332201D01*
X11023Y332138D01*
X10967Y332090D01*
X10906Y332049D01*
X10816Y331959D01*
X10718Y331875D01*
X10673Y331817D01*
X10621Y331765D01*
X10550Y331658D01*
X10472Y331557D01*
X10439Y331491D01*
X10398Y331430D01*
X10349Y331311D01*
X10292Y331196D01*
X10273Y331125D01*
X10245Y331057D01*
X10221Y330932D01*
X10188Y330808D01*
X10181Y330722D01*
X10169Y330662D01*
X10170Y330587D01*
X10161Y330477D01*
X10161Y314846D01*
X10161Y314842D01*
X10161Y314837D01*
X10162Y314825D01*
X10161Y314813D01*
X10181Y314642D01*
X10201Y314445D01*
X10202Y314441D01*
X10202Y314437D01*
X10207Y314423D01*
X10208Y314413D01*
X10251Y314280D01*
X10261Y314249D01*
X10319Y314061D01*
X10321Y314057D01*
X10322Y314052D01*
X10330Y314038D01*
X10333Y314030D01*
X10387Y313934D01*
X10418Y313878D01*
X10511Y313707D01*
X10513Y313703D01*
X10516Y313699D01*
X10528Y313685D01*
X10531Y313679D01*
X10585Y313616D01*
X10644Y313546D01*
X10768Y313397D01*
X10772Y313395D01*
X10775Y313391D01*
X10791Y313378D01*
X10794Y313375D01*
X10842Y313338D01*
X10931Y313266D01*
X11082Y313145D01*
X11086Y313143D01*
X11089Y313140D01*
X11110Y313130D01*
X11112Y313128D01*
X11150Y313109D01*
X11270Y313048D01*
X11439Y312959D01*
X11444Y312958D01*
X11448Y312956D01*
X11470Y312950D01*
X11472Y312949D01*
X11504Y312940D01*
X11638Y312902D01*
X11826Y312848D01*
X11831Y312848D01*
X11835Y312846D01*
X11859Y312845D01*
X11861Y312844D01*
X12192Y312817D01*
X12193Y312817D01*
X12199Y312818D01*
X12228Y312815D01*
X12232Y312816D01*
X12236Y312815D01*
X12430Y312839D01*
X12525Y312850D01*
X12594Y312857D01*
X12600Y312859D01*
X12627Y312862D01*
X12632Y312863D01*
X12636Y312864D01*
X12821Y312925D01*
X12898Y312950D01*
X12978Y312975D01*
X12986Y312979D01*
X13010Y312987D01*
X13014Y312989D01*
X13018Y312991D01*
X13187Y313087D01*
X13242Y313118D01*
X13332Y313167D01*
X13340Y313173D01*
X13361Y313185D01*
X13364Y313188D01*
X13368Y313190D01*
X13515Y313318D01*
X13546Y313344D01*
X13642Y313425D01*
X13649Y313434D01*
X13665Y313448D01*
X13668Y313452D01*
X13672Y313454D01*
X13792Y313611D01*
X13800Y313621D01*
X13894Y313738D01*
X13901Y313751D01*
X13912Y313766D01*
X13914Y313770D01*
X13917Y313774D01*
X14069Y314069D01*
X14869Y316002D01*
X17278Y318411D01*
X20426Y319715D01*
X23834Y319715D01*
X26982Y318411D01*
X29391Y316002D01*
X30695Y312854D01*
X30695Y309446D01*
X29391Y306298D01*
X26982Y303889D01*
X23834Y302585D01*
X20426Y302585D01*
X17278Y303889D01*
X14869Y306298D01*
X14069Y308231D01*
X14067Y308235D01*
X14065Y308239D01*
X13972Y308412D01*
X13878Y308586D01*
X13876Y308590D01*
X13873Y308593D01*
X13749Y308742D01*
X13622Y308896D01*
X13619Y308899D01*
X13616Y308903D01*
X13463Y309026D01*
X13309Y309150D01*
X13305Y309152D01*
X13302Y309155D01*
X13129Y309245D01*
X12953Y309337D01*
X12949Y309339D01*
X12945Y309341D01*
X12757Y309395D01*
X12566Y309450D01*
X12562Y309451D01*
X12558Y309452D01*
X12360Y309468D01*
X12165Y309485D01*
X12161Y309484D01*
X12156Y309485D01*
X11962Y309462D01*
X11765Y309440D01*
X11761Y309438D01*
X11757Y309438D01*
X11571Y309377D01*
X11382Y309317D01*
X11378Y309314D01*
X11374Y309313D01*
X11202Y309216D01*
X11030Y309120D01*
X11027Y309117D01*
X11023Y309115D01*
X10875Y308987D01*
X10725Y308858D01*
X10722Y308855D01*
X10718Y308852D01*
X10598Y308697D01*
X10476Y308541D01*
X10474Y308537D01*
X10472Y308534D01*
X10383Y308356D01*
X10296Y308182D01*
X10294Y308177D01*
X10292Y308173D01*
X10241Y307981D01*
X10189Y307793D01*
X10189Y307789D01*
X10188Y307785D01*
X10161Y307454D01*
X10161Y289446D01*
X10161Y289442D01*
X10161Y289437D01*
X10181Y289243D01*
X10201Y289045D01*
X10202Y289041D01*
X10202Y289037D01*
X10261Y288849D01*
X10319Y288661D01*
X10321Y288657D01*
X10322Y288652D01*
X10418Y288478D01*
X10511Y288307D01*
X10513Y288303D01*
X10516Y288299D01*
X10644Y288146D01*
X10768Y287997D01*
X10772Y287995D01*
X10775Y287991D01*
X10931Y287866D01*
X11082Y287745D01*
X11086Y287743D01*
X11089Y287740D01*
X11270Y287648D01*
X11439Y287559D01*
X11444Y287558D01*
X11448Y287556D01*
X11638Y287502D01*
X11826Y287448D01*
X11831Y287448D01*
X11835Y287446D01*
X12027Y287432D01*
X12228Y287415D01*
X12232Y287416D01*
X12236Y287415D01*
X12430Y287439D01*
X12627Y287462D01*
X12632Y287463D01*
X12636Y287464D01*
X12821Y287525D01*
X13010Y287587D01*
X13014Y287589D01*
X13018Y287591D01*
X13187Y287687D01*
X13361Y287785D01*
X13364Y287788D01*
X13368Y287790D01*
X13515Y287918D01*
X13665Y288048D01*
X13668Y288052D01*
X13672Y288054D01*
X13792Y288211D01*
X13912Y288366D01*
X13914Y288370D01*
X13917Y288374D01*
X14069Y288669D01*
X14869Y290602D01*
X17278Y293011D01*
X20426Y294315D01*
X23834Y294315D01*
X26982Y293011D01*
X29391Y290602D01*
X30695Y287454D01*
X30695Y284046D01*
X29391Y280898D01*
X26982Y278489D01*
X23834Y277185D01*
X20426Y277185D01*
X17278Y278489D01*
X14869Y280898D01*
X14069Y282831D01*
X14067Y282835D01*
X14065Y282839D01*
X13972Y283012D01*
X13878Y283186D01*
X13876Y283190D01*
X13873Y283193D01*
X13749Y283342D01*
X13622Y283496D01*
X13619Y283499D01*
X13616Y283503D01*
X13463Y283626D01*
X13309Y283750D01*
X13305Y283752D01*
X13302Y283755D01*
X13129Y283845D01*
X12953Y283937D01*
X12949Y283939D01*
X12945Y283941D01*
X12757Y283995D01*
X12566Y284050D01*
X12562Y284051D01*
X12558Y284052D01*
X12360Y284068D01*
X12165Y284085D01*
X12161Y284084D01*
X12156Y284085D01*
X11962Y284062D01*
X11765Y284040D01*
X11761Y284038D01*
X11757Y284038D01*
X11571Y283977D01*
X11382Y283917D01*
X11378Y283914D01*
X11374Y283913D01*
X11202Y283816D01*
X11030Y283720D01*
X11027Y283717D01*
X11023Y283715D01*
X10875Y283587D01*
X10725Y283458D01*
X10722Y283455D01*
X10718Y283452D01*
X10598Y283297D01*
X10476Y283141D01*
X10474Y283137D01*
X10472Y283134D01*
X10383Y282956D01*
X10296Y282782D01*
X10294Y282777D01*
X10292Y282773D01*
X10241Y282581D01*
X10189Y282393D01*
X10189Y282389D01*
X10188Y282385D01*
X10161Y282054D01*
X10161Y264046D01*
X10161Y264042D01*
X10161Y264037D01*
X10161Y264033D01*
X10161Y264031D01*
X10164Y264008D01*
X10181Y263843D01*
X10201Y263645D01*
X10202Y263641D01*
X10202Y263637D01*
X10261Y263449D01*
X10319Y263261D01*
X10321Y263257D01*
X10322Y263252D01*
X10418Y263078D01*
X10511Y262907D01*
X10513Y262903D01*
X10516Y262899D01*
X10644Y262746D01*
X10768Y262597D01*
X10772Y262595D01*
X10775Y262591D01*
X10931Y262466D01*
X11082Y262345D01*
X11086Y262343D01*
X11089Y262340D01*
X11270Y262248D01*
X11439Y262159D01*
X11444Y262158D01*
X11448Y262156D01*
X11638Y262102D01*
X11826Y262048D01*
X11831Y262048D01*
X11835Y262046D01*
X12027Y262032D01*
X12228Y262015D01*
X12232Y262016D01*
X12236Y262015D01*
X12430Y262039D01*
X12627Y262062D01*
X12632Y262063D01*
X12636Y262064D01*
X12821Y262125D01*
X13010Y262187D01*
X13014Y262189D01*
X13018Y262191D01*
X13187Y262287D01*
X13361Y262385D01*
X13364Y262388D01*
X13368Y262390D01*
X13515Y262518D01*
X13665Y262648D01*
X13668Y262652D01*
X13672Y262654D01*
X13792Y262811D01*
X13912Y262966D01*
X13914Y262970D01*
X13917Y262974D01*
X14069Y263269D01*
X14869Y265202D01*
X17278Y267611D01*
X18912Y268287D01*
X18912Y268288D01*
X20426Y268915D01*
X23834Y268915D01*
X26982Y267611D01*
X29391Y265202D01*
X30695Y262054D01*
X30695Y258646D01*
X29391Y255498D01*
X26982Y253089D01*
X23834Y251785D01*
X20426Y251785D01*
X17278Y253089D01*
X14869Y255498D01*
X14069Y257431D01*
X14067Y257435D01*
X14065Y257439D01*
X13972Y257612D01*
X13878Y257786D01*
X13876Y257790D01*
X13873Y257793D01*
X13749Y257942D01*
X13622Y258096D01*
X13619Y258099D01*
X13616Y258103D01*
X13463Y258226D01*
X13309Y258350D01*
X13305Y258352D01*
X13302Y258355D01*
X13129Y258445D01*
X12953Y258537D01*
X12949Y258539D01*
X12945Y258541D01*
X12757Y258595D01*
X12566Y258650D01*
X12562Y258651D01*
X12558Y258652D01*
X12360Y258668D01*
X12165Y258685D01*
X12161Y258684D01*
X12156Y258685D01*
X11962Y258662D01*
X11765Y258640D01*
X11761Y258638D01*
X11757Y258638D01*
X11571Y258577D01*
X11382Y258517D01*
X11378Y258514D01*
X11374Y258513D01*
X11202Y258416D01*
X11030Y258320D01*
X11027Y258317D01*
X11023Y258315D01*
X10875Y258187D01*
X10725Y258058D01*
X10722Y258055D01*
X10718Y258052D01*
X10598Y257897D01*
X10476Y257741D01*
X10474Y257737D01*
X10472Y257734D01*
X10383Y257556D01*
X10296Y257382D01*
X10294Y257377D01*
X10292Y257373D01*
X10241Y257181D01*
X10189Y256993D01*
X10189Y256989D01*
X10188Y256985D01*
X10161Y256654D01*
X10161Y238646D01*
X10161Y238642D01*
X10161Y238637D01*
X10181Y238441D01*
X10201Y238245D01*
X10202Y238241D01*
X10202Y238237D01*
X10261Y238049D01*
X10319Y237861D01*
X10321Y237857D01*
X10322Y237852D01*
X10418Y237678D01*
X10511Y237507D01*
X10513Y237503D01*
X10516Y237499D01*
X10644Y237346D01*
X10768Y237197D01*
X10772Y237195D01*
X10775Y237191D01*
X10931Y237066D01*
X11082Y236945D01*
X11086Y236943D01*
X11089Y236940D01*
X11270Y236848D01*
X11439Y236759D01*
X11444Y236758D01*
X11448Y236756D01*
X11638Y236702D01*
X11826Y236648D01*
X11831Y236648D01*
X11835Y236646D01*
X12027Y236632D01*
X12228Y236615D01*
X12232Y236616D01*
X12236Y236615D01*
X12430Y236639D01*
X12627Y236662D01*
X12632Y236663D01*
X12636Y236664D01*
X12821Y236725D01*
X13010Y236787D01*
X13014Y236789D01*
X13018Y236791D01*
X13187Y236887D01*
X13361Y236985D01*
X13364Y236988D01*
X13368Y236990D01*
X13515Y237118D01*
X13665Y237248D01*
X13668Y237252D01*
X13672Y237254D01*
X13792Y237411D01*
X13912Y237566D01*
X13914Y237570D01*
X13917Y237574D01*
X14069Y237869D01*
X14869Y239802D01*
X17278Y242211D01*
X20426Y243515D01*
X23834Y243515D01*
X26982Y242211D01*
X29391Y239802D01*
X30695Y236654D01*
X30695Y233246D01*
X29391Y230098D01*
X26982Y227689D01*
X26154Y227346D01*
X23834Y226385D01*
X20426Y226385D01*
X17278Y227689D01*
X14869Y230098D01*
X14069Y232031D01*
X14067Y232035D01*
X14065Y232039D01*
X13972Y232212D01*
X13878Y232386D01*
X13876Y232390D01*
X13873Y232393D01*
X13749Y232542D01*
X13622Y232696D01*
X13619Y232699D01*
X13616Y232703D01*
X13463Y232826D01*
X13309Y232950D01*
X13305Y232952D01*
X13302Y232955D01*
X13129Y233045D01*
X12953Y233137D01*
X12949Y233139D01*
X12945Y233141D01*
X12757Y233195D01*
X12566Y233250D01*
X12562Y233251D01*
X12558Y233252D01*
X12360Y233268D01*
X12165Y233285D01*
X12161Y233284D01*
X12156Y233285D01*
X11962Y233262D01*
X11765Y233240D01*
X11761Y233238D01*
X11757Y233238D01*
X11571Y233177D01*
X11382Y233117D01*
X11378Y233114D01*
X11374Y233113D01*
X11202Y233016D01*
X11030Y232920D01*
X11027Y232917D01*
X11023Y232915D01*
X10875Y232787D01*
X10725Y232658D01*
X10722Y232655D01*
X10718Y232652D01*
X10598Y232497D01*
X10476Y232341D01*
X10474Y232337D01*
X10472Y232334D01*
X10383Y232156D01*
X10296Y231982D01*
X10294Y231977D01*
X10292Y231973D01*
X10241Y231781D01*
X10189Y231593D01*
X10189Y231589D01*
X10188Y231585D01*
X10161Y231254D01*
X10161Y213246D01*
X10161Y213242D01*
X10161Y213237D01*
X10181Y213042D01*
X10201Y212845D01*
X10202Y212841D01*
X10202Y212837D01*
X10261Y212649D01*
X10319Y212461D01*
X10321Y212457D01*
X10322Y212452D01*
X10418Y212278D01*
X10511Y212107D01*
X10513Y212103D01*
X10516Y212099D01*
X10644Y211946D01*
X10768Y211797D01*
X10772Y211795D01*
X10775Y211791D01*
X10931Y211666D01*
X11082Y211545D01*
X11086Y211543D01*
X11089Y211540D01*
X11270Y211448D01*
X11439Y211359D01*
X11444Y211358D01*
X11448Y211356D01*
X11638Y211302D01*
X11826Y211248D01*
X11831Y211248D01*
X11835Y211246D01*
X12027Y211232D01*
X12228Y211215D01*
X12232Y211216D01*
X12236Y211215D01*
X12430Y211239D01*
X12627Y211262D01*
X12632Y211263D01*
X12636Y211264D01*
X12821Y211325D01*
X13010Y211387D01*
X13014Y211389D01*
X13018Y211391D01*
X13187Y211487D01*
X13361Y211585D01*
X13364Y211588D01*
X13368Y211590D01*
X13515Y211718D01*
X13665Y211848D01*
X13668Y211852D01*
X13672Y211854D01*
X13792Y212011D01*
X13912Y212166D01*
X13914Y212170D01*
X13917Y212174D01*
X14069Y212469D01*
X14869Y214402D01*
X17278Y216811D01*
X20426Y218115D01*
X23834Y218115D01*
X26982Y216811D01*
X29391Y214402D01*
X30695Y211254D01*
X30695Y207846D01*
X29391Y204698D01*
X26982Y202289D01*
X23834Y200985D01*
X20426Y200985D01*
X17278Y202289D01*
X14869Y204698D01*
X14069Y206631D01*
X14067Y206635D01*
X14065Y206639D01*
X13972Y206812D01*
X13878Y206986D01*
X13876Y206990D01*
X13873Y206993D01*
X13749Y207142D01*
X13622Y207296D01*
X13619Y207299D01*
X13616Y207303D01*
X13463Y207426D01*
X13309Y207550D01*
X13305Y207552D01*
X13302Y207555D01*
X13129Y207645D01*
X12953Y207737D01*
X12949Y207739D01*
X12945Y207741D01*
X12757Y207795D01*
X12566Y207850D01*
X12562Y207851D01*
X12558Y207852D01*
X12360Y207868D01*
X12165Y207885D01*
X12161Y207884D01*
X12156Y207885D01*
X11962Y207862D01*
X11765Y207840D01*
X11761Y207838D01*
X11757Y207838D01*
X11571Y207777D01*
X11382Y207717D01*
X11378Y207714D01*
X11374Y207713D01*
X11202Y207616D01*
X11030Y207520D01*
X11027Y207517D01*
X11023Y207515D01*
X10875Y207387D01*
X10725Y207258D01*
X10722Y207255D01*
X10718Y207252D01*
X10598Y207097D01*
X10476Y206941D01*
X10474Y206937D01*
X10472Y206934D01*
X10383Y206756D01*
X10296Y206582D01*
X10294Y206577D01*
X10292Y206573D01*
X10241Y206381D01*
X10189Y206193D01*
X10189Y206189D01*
X10188Y206185D01*
X10161Y205854D01*
X10161Y187846D01*
X10161Y187842D01*
X10161Y187837D01*
X10181Y187639D01*
X10201Y187445D01*
X10202Y187441D01*
X10202Y187437D01*
X10262Y187245D01*
X10319Y187061D01*
X10321Y187057D01*
X10322Y187052D01*
X10418Y186878D01*
X10511Y186707D01*
X10513Y186703D01*
X10516Y186699D01*
X10644Y186546D01*
X10768Y186397D01*
X10772Y186395D01*
X10775Y186391D01*
X10931Y186266D01*
X11082Y186145D01*
X11086Y186143D01*
X11089Y186140D01*
X11270Y186048D01*
X11439Y185959D01*
X11444Y185958D01*
X11448Y185956D01*
X11638Y185902D01*
X11826Y185848D01*
X11831Y185848D01*
X11835Y185846D01*
X12027Y185832D01*
X12228Y185815D01*
X12232Y185816D01*
X12236Y185815D01*
X12430Y185839D01*
X12627Y185862D01*
X12632Y185863D01*
X12636Y185864D01*
X12821Y185925D01*
X13010Y185987D01*
X13014Y185989D01*
X13018Y185991D01*
X13187Y186087D01*
X13361Y186185D01*
X13364Y186188D01*
X13368Y186190D01*
X13515Y186318D01*
X13665Y186448D01*
X13668Y186452D01*
X13672Y186454D01*
X13792Y186611D01*
X13912Y186766D01*
X13914Y186770D01*
X13917Y186774D01*
X14069Y187069D01*
X14869Y189002D01*
X17278Y191411D01*
X20426Y192715D01*
X23834Y192715D01*
X26982Y191411D01*
X29391Y189002D01*
X30695Y185854D01*
X30695Y182446D01*
X29391Y179298D01*
X26982Y176889D01*
X23834Y175585D01*
X20426Y175585D01*
X17278Y176889D01*
X14869Y179298D01*
X14069Y181231D01*
X14067Y181235D01*
X14065Y181239D01*
X13972Y181412D01*
X13878Y181586D01*
X13876Y181590D01*
X13873Y181593D01*
X13749Y181742D01*
X13622Y181896D01*
X13619Y181899D01*
X13616Y181903D01*
X13463Y182026D01*
X13309Y182150D01*
X13305Y182152D01*
X13302Y182155D01*
X13129Y182245D01*
X12953Y182337D01*
X12949Y182339D01*
X12945Y182341D01*
X12757Y182395D01*
X12566Y182450D01*
X12562Y182451D01*
X12558Y182452D01*
X12360Y182468D01*
X12165Y182485D01*
X12161Y182484D01*
X12156Y182485D01*
X11962Y182462D01*
X11765Y182440D01*
X11761Y182438D01*
X11757Y182438D01*
X11571Y182377D01*
X11382Y182317D01*
X11378Y182314D01*
X11374Y182313D01*
X11202Y182216D01*
X11030Y182120D01*
X11027Y182117D01*
X11023Y182115D01*
X10875Y181987D01*
X10725Y181858D01*
X10722Y181855D01*
X10718Y181852D01*
X10598Y181697D01*
X10476Y181541D01*
X10474Y181537D01*
X10472Y181534D01*
X10383Y181356D01*
X10296Y181182D01*
X10294Y181177D01*
X10292Y181173D01*
X10241Y180981D01*
X10189Y180793D01*
X10189Y180789D01*
X10188Y180785D01*
X10161Y180454D01*
X10161Y162446D01*
X10161Y162442D01*
X10161Y162437D01*
X10181Y162243D01*
X10201Y162045D01*
X10202Y162041D01*
X10202Y162037D01*
X10261Y161849D01*
X10319Y161661D01*
X10321Y161657D01*
X10322Y161652D01*
X10418Y161478D01*
X10511Y161307D01*
X10513Y161303D01*
X10516Y161299D01*
X10644Y161146D01*
X10768Y160997D01*
X10772Y160994D01*
X10775Y160991D01*
X10930Y160867D01*
X11082Y160745D01*
X11086Y160743D01*
X11090Y160740D01*
X11268Y160648D01*
X11439Y160559D01*
X11444Y160558D01*
X11448Y160556D01*
X11641Y160501D01*
X11826Y160448D01*
X11831Y160448D01*
X11835Y160446D01*
X12031Y160431D01*
X12228Y160415D01*
X12232Y160416D01*
X12236Y160415D01*
X12430Y160439D01*
X12627Y160462D01*
X12632Y160463D01*
X12636Y160464D01*
X12821Y160525D01*
X13010Y160587D01*
X13014Y160589D01*
X13018Y160591D01*
X13187Y160687D01*
X13361Y160785D01*
X13364Y160788D01*
X13368Y160790D01*
X13517Y160919D01*
X13665Y161048D01*
X13668Y161051D01*
X13672Y161054D01*
X13794Y161214D01*
X13912Y161366D01*
X13914Y161370D01*
X13917Y161374D01*
X14069Y161669D01*
X14869Y163602D01*
X17278Y166011D01*
X19003Y166725D01*
X20426Y167315D01*
X23834Y167315D01*
X26982Y166011D01*
X29391Y163602D01*
X30695Y160454D01*
X30695Y157046D01*
X29391Y153898D01*
X26982Y151489D01*
X23834Y150185D01*
X20426Y150185D01*
X17278Y151489D01*
X14869Y153898D01*
X14069Y155831D01*
X14067Y155835D01*
X14065Y155839D01*
X13972Y156012D01*
X13878Y156186D01*
X13876Y156190D01*
X13873Y156193D01*
X13749Y156343D01*
X13622Y156496D01*
X13619Y156499D01*
X13616Y156503D01*
X13465Y156624D01*
X13309Y156750D01*
X13305Y156752D01*
X13302Y156755D01*
X13130Y156844D01*
X12953Y156937D01*
X12949Y156939D01*
X12945Y156941D01*
X12757Y156995D01*
X12566Y157050D01*
X12562Y157051D01*
X12558Y157052D01*
X12360Y157068D01*
X12165Y157085D01*
X12161Y157084D01*
X12156Y157085D01*
X11961Y157062D01*
X11765Y157040D01*
X11761Y157038D01*
X11757Y157038D01*
X11569Y156977D01*
X11382Y156917D01*
X11378Y156915D01*
X11374Y156913D01*
X11201Y156816D01*
X11030Y156720D01*
X11027Y156717D01*
X11023Y156715D01*
X10875Y156587D01*
X10725Y156458D01*
X10722Y156455D01*
X10718Y156452D01*
X10598Y156297D01*
X10476Y156141D01*
X10474Y156137D01*
X10472Y156134D01*
X10384Y155958D01*
X10296Y155782D01*
X10294Y155777D01*
X10292Y155773D01*
X10241Y155582D01*
X10189Y155393D01*
X10189Y155389D01*
X10188Y155385D01*
X10161Y155054D01*
X10161Y137046D01*
X10161Y137042D01*
X10161Y137037D01*
X10181Y136843D01*
X10201Y136645D01*
X10202Y136641D01*
X10202Y136637D01*
X10261Y136448D01*
X10319Y136261D01*
X10321Y136257D01*
X10322Y136252D01*
X10418Y136078D01*
X10511Y135907D01*
X10513Y135903D01*
X10516Y135899D01*
X10644Y135746D01*
X10768Y135597D01*
X10772Y135594D01*
X10775Y135591D01*
X10930Y135467D01*
X11082Y135345D01*
X11086Y135343D01*
X11090Y135340D01*
X11268Y135248D01*
X11439Y135159D01*
X11444Y135158D01*
X11448Y135156D01*
X11641Y135101D01*
X11826Y135048D01*
X11831Y135048D01*
X11835Y135046D01*
X12031Y135031D01*
X12228Y135015D01*
X12232Y135016D01*
X12236Y135015D01*
X12430Y135039D01*
X12627Y135062D01*
X12632Y135063D01*
X12636Y135064D01*
X12821Y135125D01*
X13010Y135187D01*
X13014Y135189D01*
X13018Y135191D01*
X13187Y135287D01*
X13361Y135385D01*
X13364Y135388D01*
X13368Y135390D01*
X13517Y135519D01*
X13665Y135648D01*
X13668Y135651D01*
X13672Y135654D01*
X13794Y135814D01*
X13912Y135966D01*
X13914Y135970D01*
X13917Y135974D01*
X14069Y136269D01*
X14869Y138202D01*
X17278Y140611D01*
X20426Y141915D01*
X23834Y141915D01*
X26982Y140611D01*
X29391Y138202D01*
X30695Y135054D01*
X30695Y131646D01*
X29391Y128498D01*
X26982Y126089D01*
X23834Y124785D01*
X20426Y124785D01*
X17278Y126089D01*
X14869Y128498D01*
X14069Y130431D01*
X14067Y130435D01*
X14065Y130439D01*
X13972Y130612D01*
X13878Y130786D01*
X13876Y130790D01*
X13873Y130793D01*
X13748Y130944D01*
X13622Y131096D01*
X13619Y131099D01*
X13616Y131103D01*
X13465Y131224D01*
X13309Y131350D01*
X13305Y131352D01*
X13302Y131355D01*
X13130Y131444D01*
X12953Y131537D01*
X12949Y131539D01*
X12945Y131541D01*
X12757Y131595D01*
X12566Y131650D01*
X12562Y131651D01*
X12558Y131652D01*
X12360Y131668D01*
X12165Y131685D01*
X12161Y131684D01*
X12156Y131685D01*
X11961Y131662D01*
X11765Y131640D01*
X11761Y131638D01*
X11757Y131638D01*
X11569Y131577D01*
X11382Y131517D01*
X11378Y131515D01*
X11374Y131513D01*
X11201Y131416D01*
X11030Y131320D01*
X11027Y131317D01*
X11023Y131315D01*
X10875Y131187D01*
X10725Y131058D01*
X10722Y131055D01*
X10718Y131052D01*
X10598Y130897D01*
X10476Y130741D01*
X10474Y130737D01*
X10472Y130734D01*
X10384Y130558D01*
X10296Y130382D01*
X10294Y130377D01*
X10292Y130373D01*
X10241Y130182D01*
X10189Y129993D01*
X10189Y129989D01*
X10188Y129985D01*
X10161Y129654D01*
X10161Y114023D01*
X10173Y113896D01*
X10177Y113767D01*
X10193Y113696D01*
X10201Y113622D01*
X10238Y113500D01*
X10267Y113375D01*
X10297Y113308D01*
X10319Y113238D01*
X10380Y113125D01*
X10433Y113008D01*
X10476Y112948D01*
X10511Y112884D01*
X10593Y112785D01*
X10667Y112681D01*
X10721Y112631D01*
X10768Y112574D01*
X10868Y112494D01*
X10962Y112407D01*
X11025Y112368D01*
X11082Y112322D01*
X11196Y112263D01*
X11305Y112196D01*
X11374Y112170D01*
X11439Y112136D01*
X11563Y112101D01*
X11683Y112057D01*
X11755Y112045D01*
X11826Y112025D01*
X11954Y112015D01*
X12081Y111995D01*
X12154Y111998D01*
X12228Y111992D01*
X12355Y112007D01*
X12483Y112013D01*
X12554Y112030D01*
X12627Y112039D01*
X12749Y112079D01*
X12874Y112110D01*
X12940Y112141D01*
X13010Y112164D01*
X13122Y112227D01*
X13238Y112282D01*
X13297Y112326D01*
X13361Y112362D01*
X13458Y112446D01*
X13561Y112522D01*
X13610Y112577D01*
X13665Y112625D01*
X13744Y112726D01*
X13830Y112822D01*
X13845Y112847D01*
X14822Y114191D01*
X15889Y115258D01*
X17109Y116144D01*
X18452Y116829D01*
X19881Y117293D01*
X19881Y108168D01*
X19882Y108150D01*
X19881Y108133D01*
X19900Y107969D01*
X19881Y107732D01*
X19881Y98607D01*
X18452Y99071D01*
X17109Y99756D01*
X15889Y100642D01*
X14822Y101709D01*
X13878Y103008D01*
X13873Y103016D01*
X13862Y103030D01*
X13842Y103058D01*
X13821Y103081D01*
X13787Y103135D01*
X13698Y103227D01*
X13616Y103326D01*
X13558Y103372D01*
X13507Y103425D01*
X13402Y103498D01*
X13302Y103578D01*
X13237Y103612D01*
X13176Y103654D01*
X13058Y103705D01*
X12945Y103764D01*
X12874Y103784D01*
X12806Y103813D01*
X12681Y103840D01*
X12558Y103875D01*
X12484Y103881D01*
X12412Y103896D01*
X12284Y103897D01*
X12156Y103908D01*
X12083Y103899D01*
X12010Y103900D01*
X11884Y103876D01*
X11757Y103861D01*
X11687Y103838D01*
X11614Y103824D01*
X11496Y103776D01*
X11374Y103736D01*
X11310Y103700D01*
X11242Y103672D01*
X11135Y103601D01*
X11023Y103538D01*
X10967Y103490D01*
X10906Y103449D01*
X10816Y103359D01*
X10718Y103275D01*
X10673Y103217D01*
X10621Y103165D01*
X10550Y103058D01*
X10472Y102957D01*
X10439Y102891D01*
X10398Y102830D01*
X10349Y102711D01*
X10292Y102596D01*
X10273Y102525D01*
X10245Y102457D01*
X10221Y102332D01*
X10188Y102208D01*
X10181Y102122D01*
X10169Y102062D01*
X10170Y101987D01*
X10161Y101877D01*
X10161Y12192D01*
X10163Y12174D01*
X10161Y12156D01*
X10182Y11974D01*
X10201Y11791D01*
X10206Y11774D01*
X10208Y11757D01*
X10265Y11582D01*
X10319Y11406D01*
X10327Y11391D01*
X10333Y11374D01*
X10423Y11214D01*
X10511Y11052D01*
X10522Y11039D01*
X10531Y11023D01*
X10651Y10884D01*
X10768Y10743D01*
X10782Y10732D01*
X10794Y10718D01*
X10939Y10606D01*
X11082Y10491D01*
X11098Y10483D01*
X11112Y10472D01*
X11277Y10390D01*
X11439Y10305D01*
X11456Y10300D01*
X11472Y10292D01*
X11651Y10244D01*
X11826Y10194D01*
X11844Y10192D01*
X11861Y10188D01*
X12192Y10161D01*
X29654Y10161D01*
X29800Y10175D01*
G37*
%LPC*%
G36*
X77726Y137485D02*
X77726Y137485D01*
X74578Y138789D01*
X72169Y141198D01*
X70865Y144346D01*
X70865Y147754D01*
X72169Y150902D01*
X74713Y153446D01*
X74725Y153460D01*
X74738Y153471D01*
X74852Y153615D01*
X74968Y153757D01*
X74977Y153773D01*
X74988Y153787D01*
X75071Y153951D01*
X75157Y154113D01*
X75162Y154130D01*
X75170Y154146D01*
X75220Y154323D01*
X75272Y154499D01*
X75274Y154517D01*
X75278Y154534D01*
X75292Y154717D01*
X75308Y154900D01*
X75306Y154918D01*
X75308Y154935D01*
X75285Y155117D01*
X75265Y155300D01*
X75259Y155317D01*
X75257Y155335D01*
X75199Y155508D01*
X75143Y155684D01*
X75135Y155700D01*
X75129Y155717D01*
X75037Y155876D01*
X74949Y156036D01*
X74937Y156050D01*
X74928Y156065D01*
X74713Y156318D01*
X72878Y158154D01*
X72362Y158670D01*
X72355Y158675D01*
X72350Y158682D01*
X72200Y158803D01*
X72051Y158925D01*
X72043Y158929D01*
X72036Y158934D01*
X71866Y159023D01*
X71695Y159113D01*
X71686Y159116D01*
X71679Y159120D01*
X71496Y159173D01*
X71309Y159228D01*
X71300Y159229D01*
X71292Y159231D01*
X71101Y159247D01*
X70908Y159264D01*
X70899Y159263D01*
X70890Y159264D01*
X70701Y159242D01*
X70508Y159221D01*
X70499Y159218D01*
X70491Y159217D01*
X70307Y159157D01*
X70124Y159100D01*
X70116Y159095D01*
X70108Y159092D01*
X69939Y158997D01*
X69772Y158905D01*
X69765Y158899D01*
X69757Y158895D01*
X69612Y158769D01*
X69465Y158644D01*
X69459Y158637D01*
X69452Y158631D01*
X69335Y158480D01*
X69215Y158328D01*
X69211Y158320D01*
X69206Y158313D01*
X69120Y158141D01*
X69033Y157969D01*
X69030Y157961D01*
X69026Y157953D01*
X68976Y157765D01*
X68925Y157582D01*
X68924Y157573D01*
X68922Y157564D01*
X68895Y157233D01*
X68895Y157046D01*
X67591Y153898D01*
X65182Y151489D01*
X62034Y150185D01*
X58626Y150185D01*
X55478Y151489D01*
X53069Y153898D01*
X51765Y157046D01*
X51765Y160454D01*
X53069Y163602D01*
X54401Y164934D01*
X54407Y164941D01*
X54414Y164946D01*
X54535Y165097D01*
X54656Y165245D01*
X54661Y165253D01*
X54666Y165260D01*
X54755Y165430D01*
X54845Y165601D01*
X54848Y165610D01*
X54852Y165617D01*
X54905Y165802D01*
X54960Y165987D01*
X54961Y165996D01*
X54963Y166004D01*
X54979Y166195D01*
X54996Y166388D01*
X54995Y166397D01*
X54996Y166406D01*
X54974Y166594D01*
X54953Y166788D01*
X54950Y166797D01*
X54949Y166805D01*
X54890Y166987D01*
X54831Y167172D01*
X54827Y167180D01*
X54824Y167188D01*
X54730Y167355D01*
X54637Y167524D01*
X54631Y167531D01*
X54626Y167539D01*
X54501Y167684D01*
X54376Y167831D01*
X54369Y167837D01*
X54363Y167844D01*
X54213Y167960D01*
X54060Y168081D01*
X54052Y168085D01*
X54045Y168090D01*
X53874Y168176D01*
X53701Y168263D01*
X53693Y168266D01*
X53685Y168270D01*
X53499Y168320D01*
X53313Y168371D01*
X53304Y168372D01*
X53296Y168374D01*
X52965Y168401D01*
X50595Y168401D01*
X50573Y168399D01*
X50550Y168401D01*
X50373Y168379D01*
X50194Y168361D01*
X50173Y168355D01*
X50151Y168352D01*
X49980Y168296D01*
X49809Y168243D01*
X49790Y168233D01*
X49768Y168226D01*
X49612Y168137D01*
X49455Y168051D01*
X49438Y168037D01*
X49419Y168026D01*
X49283Y167908D01*
X49146Y167794D01*
X49132Y167776D01*
X49115Y167762D01*
X49006Y167619D01*
X48894Y167480D01*
X48883Y167460D01*
X48870Y167442D01*
X48718Y167147D01*
X48491Y166598D01*
X46082Y164189D01*
X42934Y162885D01*
X39526Y162885D01*
X36378Y164189D01*
X33969Y166598D01*
X32665Y169746D01*
X32665Y173154D01*
X33969Y176302D01*
X36378Y178711D01*
X39526Y180015D01*
X42934Y180015D01*
X46082Y178711D01*
X48491Y176302D01*
X48718Y175753D01*
X48729Y175733D01*
X48736Y175712D01*
X48824Y175556D01*
X48908Y175398D01*
X48923Y175381D01*
X48934Y175361D01*
X49051Y175226D01*
X49165Y175087D01*
X49182Y175073D01*
X49197Y175056D01*
X49338Y174947D01*
X49477Y174834D01*
X49497Y174823D01*
X49515Y174810D01*
X49675Y174730D01*
X49834Y174647D01*
X49855Y174640D01*
X49875Y174630D01*
X50048Y174584D01*
X50220Y174534D01*
X50243Y174532D01*
X50264Y174526D01*
X50595Y174499D01*
X52965Y174499D01*
X52974Y174500D01*
X52983Y174499D01*
X53175Y174520D01*
X53366Y174539D01*
X53374Y174541D01*
X53383Y174542D01*
X53565Y174600D01*
X53751Y174657D01*
X53759Y174661D01*
X53767Y174664D01*
X53935Y174757D01*
X54105Y174849D01*
X54111Y174854D01*
X54119Y174859D01*
X54267Y174984D01*
X54414Y175106D01*
X54419Y175113D01*
X54426Y175119D01*
X54546Y175271D01*
X54666Y175420D01*
X54670Y175428D01*
X54676Y175435D01*
X54763Y175607D01*
X54852Y175777D01*
X54854Y175786D01*
X54858Y175794D01*
X54910Y175980D01*
X54963Y176164D01*
X54964Y176173D01*
X54966Y176182D01*
X54980Y176374D01*
X54996Y176566D01*
X54995Y176574D01*
X54996Y176583D01*
X54971Y176775D01*
X54949Y176965D01*
X54946Y176974D01*
X54945Y176983D01*
X54884Y177166D01*
X54824Y177348D01*
X54820Y177356D01*
X54817Y177364D01*
X54722Y177530D01*
X54626Y177699D01*
X54620Y177706D01*
X54616Y177713D01*
X54401Y177966D01*
X53069Y179298D01*
X51765Y182446D01*
X51765Y185854D01*
X53069Y189002D01*
X55478Y191411D01*
X58626Y192715D01*
X62034Y192715D01*
X65182Y191411D01*
X67591Y189002D01*
X68895Y185854D01*
X68895Y182446D01*
X67591Y179298D01*
X65410Y177118D01*
X65399Y177104D01*
X65385Y177092D01*
X65271Y176948D01*
X65155Y176806D01*
X65147Y176790D01*
X65135Y176776D01*
X65052Y176612D01*
X64966Y176450D01*
X64961Y176433D01*
X64953Y176417D01*
X64904Y176240D01*
X64851Y176065D01*
X64850Y176047D01*
X64845Y176030D01*
X64832Y175846D01*
X64815Y175664D01*
X64817Y175646D01*
X64816Y175628D01*
X64839Y175446D01*
X64858Y175263D01*
X64864Y175246D01*
X64866Y175229D01*
X64924Y175055D01*
X64980Y174879D01*
X64989Y174864D01*
X64994Y174847D01*
X65086Y174687D01*
X65175Y174527D01*
X65186Y174514D01*
X65195Y174498D01*
X65410Y174245D01*
X67438Y172217D01*
X67448Y172209D01*
X67457Y172199D01*
X67604Y172082D01*
X67749Y171962D01*
X67761Y171956D01*
X67771Y171948D01*
X67939Y171862D01*
X68105Y171774D01*
X68118Y171770D01*
X68129Y171764D01*
X68310Y171713D01*
X68491Y171659D01*
X68504Y171658D01*
X68517Y171654D01*
X68703Y171640D01*
X68892Y171623D01*
X68905Y171624D01*
X68918Y171623D01*
X69103Y171645D01*
X69292Y171666D01*
X69305Y171670D01*
X69318Y171672D01*
X69495Y171730D01*
X69676Y171787D01*
X69688Y171794D01*
X69700Y171798D01*
X69864Y171892D01*
X70028Y171982D01*
X70038Y171991D01*
X70050Y171998D01*
X70193Y172122D01*
X70335Y172243D01*
X70343Y172253D01*
X70353Y172262D01*
X70468Y172411D01*
X70585Y172559D01*
X70591Y172571D01*
X70599Y172581D01*
X70750Y172876D01*
X72169Y176302D01*
X74578Y178711D01*
X77726Y180015D01*
X81134Y180015D01*
X81682Y179787D01*
X81704Y179781D01*
X81724Y179771D01*
X81897Y179723D01*
X82068Y179671D01*
X82090Y179669D01*
X82112Y179663D01*
X82291Y179650D01*
X82469Y179633D01*
X82491Y179635D01*
X82513Y179633D01*
X82691Y179656D01*
X82869Y179674D01*
X82890Y179681D01*
X82913Y179684D01*
X83082Y179741D01*
X83253Y179794D01*
X83273Y179805D01*
X83294Y179812D01*
X83450Y179902D01*
X83607Y179987D01*
X83624Y180002D01*
X83643Y180013D01*
X83896Y180228D01*
X370320Y466652D01*
X372701Y469033D01*
X404280Y469033D01*
X419153Y454160D01*
X419174Y454143D01*
X419191Y454122D01*
X419329Y454015D01*
X419465Y453905D01*
X419488Y453892D01*
X419510Y453876D01*
X419666Y453798D01*
X419820Y453716D01*
X419846Y453708D01*
X419870Y453696D01*
X420039Y453651D01*
X420206Y453601D01*
X420233Y453599D01*
X420259Y453592D01*
X420590Y453565D01*
X420903Y453565D01*
X424235Y452185D01*
X426785Y449635D01*
X428165Y446303D01*
X428165Y442697D01*
X426785Y439365D01*
X424235Y436815D01*
X423631Y436565D01*
X420903Y435435D01*
X417297Y435435D01*
X417120Y435508D01*
X417103Y435514D01*
X417087Y435522D01*
X416911Y435572D01*
X416735Y435625D01*
X416717Y435627D01*
X416700Y435631D01*
X416517Y435646D01*
X416334Y435663D01*
X416316Y435661D01*
X416299Y435663D01*
X416117Y435640D01*
X415934Y435621D01*
X415917Y435616D01*
X415899Y435614D01*
X415724Y435556D01*
X415549Y435502D01*
X415534Y435493D01*
X415517Y435487D01*
X415357Y435396D01*
X415196Y435308D01*
X415182Y435297D01*
X415167Y435288D01*
X415029Y435167D01*
X414888Y435049D01*
X414877Y435035D01*
X414863Y435023D01*
X414751Y434878D01*
X414637Y434734D01*
X414629Y434718D01*
X414618Y434704D01*
X414466Y434409D01*
X413178Y431298D01*
X413140Y431173D01*
X413093Y431051D01*
X413082Y430981D01*
X413061Y430913D01*
X413049Y430782D01*
X413027Y430654D01*
X413030Y430583D01*
X413023Y430512D01*
X413037Y430382D01*
X413041Y430251D01*
X413057Y430182D01*
X413065Y430111D01*
X413104Y429986D01*
X413134Y429859D01*
X413164Y429795D01*
X413185Y429727D01*
X413247Y429612D01*
X413302Y429494D01*
X413344Y429436D01*
X413378Y429374D01*
X413462Y429274D01*
X413539Y429168D01*
X413591Y429120D01*
X413637Y429066D01*
X413739Y428984D01*
X413836Y428896D01*
X413896Y428859D01*
X413952Y428815D01*
X414068Y428755D01*
X414180Y428687D01*
X414247Y428663D01*
X414310Y428631D01*
X414436Y428595D01*
X414559Y428551D01*
X414629Y428540D01*
X414697Y428521D01*
X414828Y428511D01*
X414957Y428492D01*
X415028Y428496D01*
X415099Y428490D01*
X415228Y428506D01*
X415359Y428513D01*
X415439Y428531D01*
X415498Y428539D01*
X415571Y428563D01*
X415682Y428589D01*
X416601Y428887D01*
X416601Y421599D01*
X409081Y421599D01*
X409059Y421663D01*
X409008Y421824D01*
X408992Y421853D01*
X408980Y421884D01*
X408894Y422029D01*
X408813Y422176D01*
X408791Y422201D01*
X408774Y422230D01*
X408661Y422355D01*
X408552Y422483D01*
X408526Y422504D01*
X408504Y422528D01*
X408369Y422628D01*
X408236Y422732D01*
X408207Y422748D01*
X408180Y422767D01*
X408028Y422839D01*
X407878Y422915D01*
X407845Y422924D01*
X407815Y422938D01*
X407652Y422978D01*
X407490Y423023D01*
X407456Y423025D01*
X407424Y423033D01*
X407256Y423040D01*
X407088Y423052D01*
X407055Y423048D01*
X407022Y423049D01*
X406856Y423023D01*
X406689Y423002D01*
X406657Y422991D01*
X406624Y422986D01*
X406467Y422927D01*
X406307Y422874D01*
X406278Y422857D01*
X406247Y422845D01*
X406104Y422757D01*
X405958Y422673D01*
X405930Y422649D01*
X405905Y422633D01*
X405875Y422605D01*
X405250Y422346D01*
X400347Y420315D01*
X400346Y420315D01*
X397508Y419139D01*
X388492Y419139D01*
X380164Y422589D01*
X373789Y428964D01*
X370339Y437292D01*
X370339Y446308D01*
X373789Y454636D01*
X378621Y459468D01*
X378626Y459475D01*
X378633Y459480D01*
X378753Y459630D01*
X378876Y459779D01*
X378880Y459787D01*
X378885Y459794D01*
X378974Y459964D01*
X379064Y460135D01*
X379067Y460144D01*
X379071Y460151D01*
X379124Y460335D01*
X379179Y460521D01*
X379180Y460530D01*
X379182Y460538D01*
X379198Y460730D01*
X379215Y460922D01*
X379215Y460931D01*
X379215Y460940D01*
X379193Y461129D01*
X379172Y461322D01*
X379169Y461331D01*
X379168Y461339D01*
X379110Y461519D01*
X379051Y461706D01*
X379046Y461714D01*
X379043Y461722D01*
X378948Y461891D01*
X378856Y462058D01*
X378850Y462065D01*
X378846Y462073D01*
X378720Y462219D01*
X378595Y462365D01*
X378588Y462371D01*
X378582Y462378D01*
X378431Y462495D01*
X378279Y462615D01*
X378271Y462619D01*
X378264Y462624D01*
X378092Y462710D01*
X377920Y462797D01*
X377912Y462800D01*
X377904Y462804D01*
X377718Y462854D01*
X377533Y462905D01*
X377524Y462906D01*
X377515Y462908D01*
X377184Y462935D01*
X376068Y462935D01*
X376042Y462933D01*
X376015Y462935D01*
X375841Y462913D01*
X375668Y462895D01*
X375642Y462888D01*
X375615Y462884D01*
X375450Y462829D01*
X375283Y462777D01*
X375259Y462764D01*
X375234Y462756D01*
X375082Y462669D01*
X374929Y462585D01*
X374908Y462568D01*
X374885Y462555D01*
X374632Y462340D01*
X88208Y175916D01*
X88194Y175899D01*
X88177Y175884D01*
X88066Y175743D01*
X87953Y175605D01*
X87942Y175585D01*
X87928Y175567D01*
X87847Y175406D01*
X87764Y175249D01*
X87758Y175228D01*
X87748Y175208D01*
X87700Y175035D01*
X87649Y174863D01*
X87647Y174841D01*
X87641Y174819D01*
X87629Y174641D01*
X87613Y174462D01*
X87615Y174440D01*
X87614Y174418D01*
X87637Y174241D01*
X87656Y174062D01*
X87663Y174040D01*
X87666Y174018D01*
X87767Y173702D01*
X87995Y173154D01*
X87995Y169746D01*
X86691Y166598D01*
X85431Y165338D01*
X85425Y165331D01*
X85418Y165326D01*
X85297Y165175D01*
X85176Y165027D01*
X85171Y165019D01*
X85166Y165012D01*
X85077Y164842D01*
X84987Y164671D01*
X84984Y164662D01*
X84980Y164655D01*
X84927Y164470D01*
X84872Y164285D01*
X84871Y164276D01*
X84869Y164268D01*
X84853Y164077D01*
X84836Y163884D01*
X84837Y163875D01*
X84836Y163866D01*
X84858Y163677D01*
X84879Y163484D01*
X84882Y163475D01*
X84883Y163467D01*
X84942Y163285D01*
X85001Y163100D01*
X85005Y163092D01*
X85008Y163084D01*
X85102Y162917D01*
X85195Y162748D01*
X85201Y162741D01*
X85206Y162733D01*
X85331Y162588D01*
X85456Y162441D01*
X85463Y162435D01*
X85469Y162428D01*
X85619Y162312D01*
X85772Y162191D01*
X85780Y162187D01*
X85787Y162182D01*
X85958Y162097D01*
X86131Y162009D01*
X86139Y162006D01*
X86147Y162002D01*
X86333Y161953D01*
X86519Y161901D01*
X86528Y161900D01*
X86536Y161898D01*
X86867Y161871D01*
X182118Y161871D01*
X182144Y161873D01*
X182171Y161871D01*
X182345Y161893D01*
X182518Y161911D01*
X182544Y161918D01*
X182571Y161922D01*
X182736Y161977D01*
X182903Y162029D01*
X182927Y162042D01*
X182952Y162050D01*
X183104Y162137D01*
X183257Y162221D01*
X183278Y162238D01*
X183301Y162251D01*
X183554Y162466D01*
X428156Y407068D01*
X428173Y407089D01*
X428194Y407106D01*
X428301Y407244D01*
X428411Y407379D01*
X428424Y407403D01*
X428440Y407424D01*
X428518Y407581D01*
X428600Y407735D01*
X428608Y407761D01*
X428620Y407785D01*
X428665Y407954D01*
X428715Y408121D01*
X428717Y408148D01*
X428724Y408173D01*
X428751Y408504D01*
X428751Y409665D01*
X428746Y409716D01*
X428749Y409767D01*
X428726Y409916D01*
X428711Y410066D01*
X428696Y410115D01*
X428689Y410165D01*
X428637Y410307D01*
X428593Y410451D01*
X428569Y410496D01*
X428551Y410544D01*
X428473Y410672D01*
X428401Y410805D01*
X428369Y410844D01*
X428342Y410888D01*
X428240Y410998D01*
X428144Y411114D01*
X428104Y411146D01*
X428069Y411184D01*
X427947Y411272D01*
X427830Y411366D01*
X427785Y411390D01*
X427743Y411420D01*
X427606Y411483D01*
X427473Y411552D01*
X427424Y411566D01*
X427377Y411587D01*
X427230Y411622D01*
X427086Y411663D01*
X427035Y411667D01*
X426985Y411679D01*
X426834Y411684D01*
X426684Y411696D01*
X426634Y411690D01*
X426583Y411692D01*
X426434Y411667D01*
X426285Y411649D01*
X426236Y411633D01*
X426186Y411625D01*
X426045Y411571D01*
X425902Y411524D01*
X425857Y411499D01*
X425810Y411481D01*
X425612Y411361D01*
X425551Y411326D01*
X425541Y411317D01*
X425526Y411308D01*
X424384Y410478D01*
X422970Y409758D01*
X421599Y409313D01*
X421599Y418632D01*
X421597Y418650D01*
X421599Y418667D01*
X421578Y418849D01*
X421559Y419032D01*
X421554Y419049D01*
X421552Y419067D01*
X421539Y419108D01*
X421566Y419202D01*
X421568Y419220D01*
X421572Y419237D01*
X421599Y419568D01*
X421599Y428887D01*
X422970Y428442D01*
X424384Y427722D01*
X425526Y426892D01*
X425570Y426866D01*
X425610Y426834D01*
X425744Y426764D01*
X425874Y426688D01*
X425922Y426672D01*
X425967Y426648D01*
X426112Y426607D01*
X426254Y426558D01*
X426305Y426551D01*
X426354Y426537D01*
X426504Y426525D01*
X426654Y426505D01*
X426705Y426508D01*
X426756Y426504D01*
X426905Y426522D01*
X427055Y426532D01*
X427105Y426545D01*
X427155Y426551D01*
X427299Y426598D01*
X427444Y426637D01*
X427490Y426660D01*
X427538Y426676D01*
X427669Y426750D01*
X427804Y426817D01*
X427844Y426849D01*
X427889Y426874D01*
X428003Y426972D01*
X428121Y427065D01*
X428155Y427103D01*
X428194Y427137D01*
X428286Y427256D01*
X428384Y427370D01*
X428409Y427415D01*
X428440Y427455D01*
X428507Y427590D01*
X428581Y427721D01*
X428597Y427770D01*
X428620Y427815D01*
X428659Y427961D01*
X428705Y428104D01*
X428711Y428155D01*
X428724Y428204D01*
X428743Y428435D01*
X428751Y428504D01*
X428750Y428518D01*
X428751Y428535D01*
X428751Y433063D01*
X431132Y435444D01*
X435340Y439651D01*
X435354Y439668D01*
X435371Y439683D01*
X435481Y439824D01*
X435595Y439963D01*
X435605Y439982D01*
X435619Y440000D01*
X435699Y440160D01*
X435783Y440318D01*
X435790Y440340D01*
X435800Y440360D01*
X435847Y440533D01*
X435898Y440704D01*
X435900Y440727D01*
X435906Y440748D01*
X435918Y440926D01*
X435935Y441105D01*
X435932Y441128D01*
X435934Y441150D01*
X435911Y441326D01*
X435891Y441506D01*
X435884Y441527D01*
X435881Y441549D01*
X435780Y441865D01*
X435435Y442697D01*
X435435Y446303D01*
X436815Y449635D01*
X439365Y452185D01*
X441650Y453131D01*
X442697Y453565D01*
X446303Y453565D01*
X449635Y452185D01*
X452185Y449635D01*
X453565Y446303D01*
X453565Y442697D01*
X452185Y439365D01*
X449635Y436815D01*
X449031Y436565D01*
X446303Y435435D01*
X442697Y435435D01*
X441865Y435780D01*
X441843Y435786D01*
X441824Y435797D01*
X441651Y435845D01*
X441479Y435896D01*
X441457Y435898D01*
X441436Y435905D01*
X441256Y435918D01*
X441079Y435935D01*
X441057Y435932D01*
X441034Y435934D01*
X440856Y435911D01*
X440678Y435893D01*
X440657Y435886D01*
X440635Y435883D01*
X440465Y435827D01*
X440294Y435773D01*
X440274Y435762D01*
X440253Y435755D01*
X440098Y435666D01*
X439941Y435580D01*
X439924Y435565D01*
X439904Y435554D01*
X439651Y435340D01*
X435444Y431132D01*
X435427Y431111D01*
X435406Y431094D01*
X435300Y430956D01*
X435189Y430821D01*
X435176Y430797D01*
X435160Y430776D01*
X435082Y430620D01*
X435000Y430465D01*
X434992Y430439D01*
X434980Y430415D01*
X434935Y430246D01*
X434885Y430079D01*
X434883Y430052D01*
X434876Y430027D01*
X434849Y429696D01*
X434849Y428535D01*
X434854Y428484D01*
X434851Y428433D01*
X434874Y428284D01*
X434889Y428134D01*
X434904Y428085D01*
X434911Y428035D01*
X434963Y427893D01*
X435007Y427749D01*
X435031Y427704D01*
X435049Y427656D01*
X435127Y427527D01*
X435199Y427395D01*
X435231Y427356D01*
X435258Y427312D01*
X435360Y427202D01*
X435456Y427086D01*
X435496Y427054D01*
X435531Y427016D01*
X435653Y426928D01*
X435770Y426834D01*
X435815Y426810D01*
X435857Y426780D01*
X435994Y426717D01*
X436127Y426648D01*
X436176Y426634D01*
X436223Y426613D01*
X436370Y426578D01*
X436514Y426537D01*
X436565Y426533D01*
X436615Y426521D01*
X436766Y426516D01*
X436916Y426504D01*
X436966Y426510D01*
X437017Y426508D01*
X437166Y426533D01*
X437315Y426551D01*
X437364Y426567D01*
X437414Y426575D01*
X437555Y426629D01*
X437698Y426676D01*
X437743Y426701D01*
X437790Y426719D01*
X437988Y426839D01*
X438049Y426874D01*
X438059Y426883D01*
X438074Y426892D01*
X439216Y427722D01*
X440630Y428442D01*
X442001Y428887D01*
X442001Y419568D01*
X442002Y419550D01*
X442001Y419533D01*
X442022Y419350D01*
X442041Y419168D01*
X442046Y419151D01*
X442048Y419133D01*
X442061Y419092D01*
X442034Y418998D01*
X442032Y418980D01*
X442028Y418963D01*
X442001Y418632D01*
X442001Y409313D01*
X440630Y409758D01*
X439216Y410478D01*
X438074Y411308D01*
X438030Y411334D01*
X437990Y411366D01*
X437856Y411436D01*
X437726Y411512D01*
X437678Y411528D01*
X437633Y411552D01*
X437488Y411593D01*
X437346Y411642D01*
X437295Y411649D01*
X437246Y411663D01*
X437096Y411675D01*
X436946Y411695D01*
X436895Y411692D01*
X436844Y411696D01*
X436695Y411678D01*
X436545Y411668D01*
X436495Y411655D01*
X436445Y411649D01*
X436301Y411602D01*
X436156Y411563D01*
X436110Y411540D01*
X436062Y411524D01*
X435931Y411450D01*
X435796Y411383D01*
X435756Y411351D01*
X435711Y411326D01*
X435597Y411228D01*
X435479Y411135D01*
X435445Y411097D01*
X435406Y411063D01*
X435314Y410944D01*
X435216Y410830D01*
X435191Y410785D01*
X435160Y410745D01*
X435093Y410610D01*
X435019Y410479D01*
X435003Y410430D01*
X434980Y410385D01*
X434941Y410239D01*
X434895Y410096D01*
X434889Y410045D01*
X434876Y409996D01*
X434857Y409765D01*
X434849Y409696D01*
X434850Y409682D01*
X434849Y409665D01*
X434849Y405137D01*
X185485Y155773D01*
X86723Y155773D01*
X86714Y155772D01*
X86705Y155773D01*
X86513Y155752D01*
X86322Y155733D01*
X86314Y155731D01*
X86305Y155730D01*
X86123Y155672D01*
X85937Y155615D01*
X85929Y155611D01*
X85921Y155608D01*
X85753Y155515D01*
X85583Y155423D01*
X85577Y155418D01*
X85569Y155413D01*
X85421Y155288D01*
X85274Y155166D01*
X85269Y155159D01*
X85262Y155153D01*
X85142Y155001D01*
X85022Y154852D01*
X85018Y154844D01*
X85012Y154837D01*
X84925Y154665D01*
X84836Y154495D01*
X84834Y154486D01*
X84830Y154478D01*
X84778Y154292D01*
X84725Y154108D01*
X84724Y154099D01*
X84722Y154090D01*
X84708Y153898D01*
X84692Y153706D01*
X84693Y153698D01*
X84692Y153689D01*
X84717Y153495D01*
X84739Y153307D01*
X84742Y153298D01*
X84743Y153289D01*
X84804Y153106D01*
X84864Y152924D01*
X84868Y152916D01*
X84871Y152908D01*
X84966Y152742D01*
X85062Y152573D01*
X85068Y152566D01*
X85072Y152559D01*
X85287Y152306D01*
X86691Y150901D01*
X87995Y147754D01*
X87995Y144346D01*
X86691Y141198D01*
X84282Y138789D01*
X81134Y137485D01*
X77726Y137485D01*
G37*
%LPD*%
%LPC*%
G36*
X239481Y478535D02*
X239481Y478535D01*
X236120Y479927D01*
X233547Y482500D01*
X232155Y485861D01*
X232155Y504739D01*
X233547Y508100D01*
X236120Y510673D01*
X236489Y510826D01*
X236509Y510836D01*
X236530Y510843D01*
X236686Y510931D01*
X236844Y511016D01*
X236861Y511030D01*
X236881Y511041D01*
X237017Y511158D01*
X237155Y511272D01*
X237169Y511289D01*
X237186Y511304D01*
X237295Y511445D01*
X237408Y511585D01*
X237419Y511605D01*
X237432Y511622D01*
X237512Y511782D01*
X237595Y511941D01*
X237602Y511963D01*
X237612Y511983D01*
X237658Y512156D01*
X237708Y512328D01*
X237710Y512350D01*
X237716Y512371D01*
X237743Y512702D01*
X237743Y533875D01*
X237741Y533902D01*
X237743Y533929D01*
X237721Y534103D01*
X237703Y534276D01*
X237696Y534301D01*
X237692Y534328D01*
X237637Y534494D01*
X237585Y534661D01*
X237572Y534684D01*
X237564Y534710D01*
X237477Y534861D01*
X237393Y535015D01*
X237376Y535035D01*
X237363Y535059D01*
X237148Y535312D01*
X233150Y539310D01*
X233129Y539327D01*
X233111Y539348D01*
X232974Y539455D01*
X232838Y539565D01*
X232815Y539578D01*
X232793Y539594D01*
X232636Y539672D01*
X232482Y539754D01*
X232457Y539762D01*
X232433Y539774D01*
X232263Y539819D01*
X232097Y539869D01*
X232070Y539871D01*
X232044Y539878D01*
X231713Y539905D01*
X196268Y539905D01*
X195375Y540798D01*
X195375Y562062D01*
X196268Y562955D01*
X235532Y562955D01*
X236425Y562062D01*
X236425Y557018D01*
X236427Y557000D01*
X236425Y556982D01*
X236446Y556800D01*
X236465Y556617D01*
X236470Y556600D01*
X236472Y556583D01*
X236529Y556408D01*
X236583Y556232D01*
X236591Y556217D01*
X236597Y556200D01*
X236687Y556040D01*
X236775Y555878D01*
X236786Y555865D01*
X236795Y555849D01*
X236915Y555710D01*
X237032Y555569D01*
X237046Y555558D01*
X237058Y555544D01*
X237203Y555432D01*
X237346Y555317D01*
X237362Y555309D01*
X237376Y555298D01*
X237541Y555216D01*
X237703Y555131D01*
X237720Y555126D01*
X237736Y555118D01*
X237915Y555071D01*
X238090Y555020D01*
X238108Y555018D01*
X238125Y555014D01*
X238456Y554987D01*
X260335Y554987D01*
X260362Y554989D01*
X260389Y554987D01*
X260563Y555009D01*
X260736Y555027D01*
X260761Y555034D01*
X260788Y555038D01*
X260954Y555093D01*
X261121Y555145D01*
X261145Y555158D01*
X261170Y555166D01*
X261321Y555253D01*
X261475Y555337D01*
X261495Y555354D01*
X261519Y555367D01*
X261772Y555582D01*
X268280Y562090D01*
X268297Y562111D01*
X268318Y562128D01*
X268425Y562266D01*
X268535Y562402D01*
X268548Y562425D01*
X268564Y562447D01*
X268642Y562603D01*
X268724Y562757D01*
X268732Y562783D01*
X268744Y562807D01*
X268789Y562976D01*
X268839Y563143D01*
X268841Y563170D01*
X268848Y563196D01*
X268875Y563527D01*
X268875Y580832D01*
X269847Y581803D01*
X269853Y581805D01*
X269986Y581837D01*
X270044Y581864D01*
X270106Y581883D01*
X270227Y581948D01*
X270352Y582006D01*
X270404Y582044D01*
X270460Y582075D01*
X270565Y582162D01*
X270676Y582244D01*
X270720Y582291D01*
X270769Y582332D01*
X270855Y582439D01*
X270948Y582541D01*
X270981Y582596D01*
X271022Y582646D01*
X271085Y582768D01*
X271156Y582886D01*
X271177Y582946D01*
X271207Y583003D01*
X271245Y583135D01*
X271291Y583265D01*
X271301Y583328D01*
X271319Y583390D01*
X271330Y583527D01*
X271350Y583663D01*
X271346Y583727D01*
X271351Y583792D01*
X271335Y583928D01*
X271328Y584065D01*
X271312Y584128D01*
X271305Y584191D01*
X271262Y584322D01*
X271228Y584455D01*
X271200Y584513D01*
X271180Y584574D01*
X271112Y584694D01*
X271052Y584817D01*
X271013Y584869D01*
X270982Y584925D01*
X270892Y585029D01*
X270809Y585138D01*
X270761Y585181D01*
X270719Y585229D01*
X270610Y585314D01*
X270507Y585405D01*
X270451Y585437D01*
X270401Y585476D01*
X270277Y585537D01*
X270159Y585606D01*
X270089Y585631D01*
X270040Y585656D01*
X269963Y585676D01*
X269846Y585718D01*
X269419Y585832D01*
X268840Y586167D01*
X268367Y586640D01*
X268032Y587219D01*
X267859Y587865D01*
X267859Y594887D01*
X277368Y594887D01*
X277386Y594889D01*
X277403Y594887D01*
X277586Y594909D01*
X277769Y594927D01*
X277786Y594932D01*
X277803Y594934D01*
X277978Y594991D01*
X278153Y595045D01*
X278169Y595053D01*
X278186Y595059D01*
X278346Y595149D01*
X278507Y595237D01*
X278521Y595248D01*
X278537Y595257D01*
X278676Y595377D01*
X278817Y595494D01*
X278828Y595508D01*
X278841Y595520D01*
X278954Y595665D01*
X279069Y595808D01*
X279077Y595824D01*
X279088Y595838D01*
X279170Y596003D01*
X279255Y596165D01*
X279259Y596182D01*
X279267Y596199D01*
X279315Y596377D01*
X279366Y596552D01*
X279367Y596570D01*
X279372Y596587D01*
X279399Y596918D01*
X279399Y598951D01*
X279401Y598951D01*
X279401Y596918D01*
X279403Y596900D01*
X279401Y596883D01*
X279423Y596700D01*
X279441Y596517D01*
X279446Y596500D01*
X279448Y596483D01*
X279505Y596308D01*
X279559Y596133D01*
X279567Y596117D01*
X279573Y596100D01*
X279663Y595940D01*
X279751Y595778D01*
X279762Y595765D01*
X279771Y595749D01*
X279891Y595610D01*
X280008Y595469D01*
X280022Y595458D01*
X280034Y595445D01*
X280179Y595332D01*
X280322Y595217D01*
X280338Y595209D01*
X280352Y595198D01*
X280517Y595116D01*
X280679Y595031D01*
X280697Y595026D01*
X280713Y595018D01*
X280891Y594971D01*
X281066Y594920D01*
X281084Y594919D01*
X281101Y594914D01*
X281432Y594887D01*
X290941Y594887D01*
X290941Y587865D01*
X290768Y587219D01*
X290433Y586640D01*
X289960Y586167D01*
X289381Y585832D01*
X288954Y585718D01*
X288825Y585669D01*
X288694Y585629D01*
X288637Y585599D01*
X288577Y585576D01*
X288461Y585503D01*
X288340Y585437D01*
X288290Y585396D01*
X288236Y585362D01*
X288136Y585268D01*
X288031Y585180D01*
X287990Y585130D01*
X287944Y585085D01*
X287864Y584973D01*
X287778Y584866D01*
X287749Y584809D01*
X287712Y584756D01*
X287656Y584630D01*
X287593Y584509D01*
X287575Y584447D01*
X287549Y584388D01*
X287519Y584254D01*
X287481Y584122D01*
X287476Y584058D01*
X287462Y583995D01*
X287460Y583857D01*
X287449Y583720D01*
X287456Y583657D01*
X287455Y583592D01*
X287479Y583457D01*
X287495Y583321D01*
X287515Y583259D01*
X287527Y583196D01*
X287578Y583068D01*
X287620Y582938D01*
X287652Y582882D01*
X287676Y582822D01*
X287751Y582707D01*
X287818Y582587D01*
X287860Y582538D01*
X287895Y582485D01*
X287992Y582386D01*
X288081Y582282D01*
X288132Y582243D01*
X288177Y582197D01*
X288291Y582120D01*
X288399Y582036D01*
X288457Y582007D01*
X288510Y581971D01*
X288637Y581918D01*
X288760Y581856D01*
X288822Y581840D01*
X288881Y581815D01*
X288957Y581800D01*
X289925Y580832D01*
X289925Y575038D01*
X289927Y575020D01*
X289925Y575002D01*
X289946Y574820D01*
X289965Y574637D01*
X289970Y574620D01*
X289972Y574603D01*
X290029Y574428D01*
X290083Y574252D01*
X290091Y574237D01*
X290097Y574220D01*
X290187Y574060D01*
X290275Y573898D01*
X290286Y573885D01*
X290295Y573869D01*
X290416Y573729D01*
X290532Y573589D01*
X290546Y573578D01*
X290558Y573564D01*
X290703Y573452D01*
X290846Y573337D01*
X290862Y573329D01*
X290876Y573318D01*
X291041Y573236D01*
X291203Y573151D01*
X291220Y573146D01*
X291236Y573138D01*
X291415Y573091D01*
X291590Y573040D01*
X291608Y573038D01*
X291625Y573034D01*
X291956Y573007D01*
X446024Y573007D01*
X446042Y573009D01*
X446060Y573007D01*
X446242Y573028D01*
X446425Y573047D01*
X446442Y573052D01*
X446459Y573054D01*
X446634Y573111D01*
X446810Y573165D01*
X446825Y573173D01*
X446842Y573179D01*
X447002Y573269D01*
X447164Y573357D01*
X447177Y573368D01*
X447193Y573377D01*
X447332Y573497D01*
X447473Y573614D01*
X447484Y573628D01*
X447498Y573640D01*
X447610Y573785D01*
X447725Y573928D01*
X447733Y573944D01*
X447744Y573958D01*
X447826Y574123D01*
X447911Y574285D01*
X447916Y574302D01*
X447924Y574318D01*
X447971Y574497D01*
X448022Y574672D01*
X448024Y574690D01*
X448028Y574707D01*
X448055Y575038D01*
X448055Y580939D01*
X449447Y584300D01*
X452020Y586873D01*
X452795Y587194D01*
X455381Y588265D01*
X459019Y588265D01*
X462380Y586873D01*
X464953Y584300D01*
X466345Y580939D01*
X466345Y562061D01*
X464953Y558700D01*
X462380Y556127D01*
X459019Y554735D01*
X455381Y554735D01*
X452020Y556127D01*
X449447Y558700D01*
X448055Y562061D01*
X448055Y563862D01*
X448053Y563880D01*
X448055Y563898D01*
X448034Y564080D01*
X448015Y564263D01*
X448010Y564280D01*
X448008Y564297D01*
X447951Y564472D01*
X447897Y564648D01*
X447889Y564663D01*
X447883Y564680D01*
X447793Y564840D01*
X447705Y565002D01*
X447694Y565015D01*
X447685Y565031D01*
X447565Y565170D01*
X447448Y565311D01*
X447434Y565322D01*
X447422Y565336D01*
X447277Y565448D01*
X447134Y565563D01*
X447118Y565571D01*
X447104Y565582D01*
X446939Y565664D01*
X446777Y565749D01*
X446760Y565754D01*
X446744Y565762D01*
X446565Y565809D01*
X446390Y565860D01*
X446372Y565862D01*
X446355Y565866D01*
X446024Y565893D01*
X291956Y565893D01*
X291938Y565891D01*
X291920Y565893D01*
X291738Y565872D01*
X291555Y565853D01*
X291538Y565848D01*
X291521Y565846D01*
X291346Y565789D01*
X291170Y565735D01*
X291155Y565727D01*
X291138Y565721D01*
X290978Y565631D01*
X290816Y565543D01*
X290803Y565532D01*
X290787Y565523D01*
X290648Y565403D01*
X290507Y565286D01*
X290496Y565272D01*
X290482Y565260D01*
X290370Y565115D01*
X290255Y564972D01*
X290247Y564956D01*
X290236Y564942D01*
X290154Y564777D01*
X290069Y564615D01*
X290064Y564598D01*
X290056Y564582D01*
X290009Y564403D01*
X289958Y564228D01*
X289956Y564210D01*
X289952Y564193D01*
X289925Y563862D01*
X289925Y558068D01*
X289032Y557175D01*
X274267Y557175D01*
X274240Y557173D01*
X274213Y557175D01*
X274039Y557153D01*
X273866Y557135D01*
X273840Y557128D01*
X273814Y557124D01*
X273648Y557068D01*
X273481Y557017D01*
X273457Y557004D01*
X273432Y556996D01*
X273281Y556909D01*
X273127Y556825D01*
X273107Y556808D01*
X273083Y556795D01*
X272830Y556580D01*
X264123Y547873D01*
X239551Y547873D01*
X239542Y547872D01*
X239533Y547873D01*
X239339Y547852D01*
X239150Y547833D01*
X239142Y547831D01*
X239133Y547830D01*
X238949Y547772D01*
X238765Y547715D01*
X238757Y547711D01*
X238749Y547708D01*
X238580Y547615D01*
X238411Y547523D01*
X238404Y547518D01*
X238396Y547513D01*
X238249Y547389D01*
X238102Y547266D01*
X238096Y547259D01*
X238089Y547253D01*
X237970Y547102D01*
X237849Y546952D01*
X237845Y546944D01*
X237840Y546937D01*
X237752Y546764D01*
X237664Y546595D01*
X237661Y546586D01*
X237657Y546578D01*
X237605Y546392D01*
X237553Y546208D01*
X237552Y546199D01*
X237549Y546190D01*
X237535Y545997D01*
X237520Y545806D01*
X237521Y545798D01*
X237520Y545789D01*
X237544Y545596D01*
X237567Y545407D01*
X237569Y545398D01*
X237570Y545389D01*
X237632Y545206D01*
X237691Y545024D01*
X237696Y545016D01*
X237699Y545008D01*
X237795Y544841D01*
X237889Y544673D01*
X237895Y544666D01*
X237900Y544659D01*
X238114Y544406D01*
X244857Y537663D01*
X244857Y512702D01*
X244859Y512680D01*
X244857Y512658D01*
X244879Y512480D01*
X244897Y512302D01*
X244903Y512280D01*
X244906Y512258D01*
X244962Y512088D01*
X245015Y511917D01*
X245025Y511897D01*
X245032Y511876D01*
X245122Y511719D01*
X245207Y511563D01*
X245221Y511545D01*
X245232Y511526D01*
X245350Y511391D01*
X245464Y511253D01*
X245482Y511239D01*
X245496Y511223D01*
X245639Y511113D01*
X245778Y511001D01*
X245798Y510991D01*
X245816Y510977D01*
X246111Y510826D01*
X246480Y510673D01*
X249053Y508100D01*
X250445Y504739D01*
X250445Y500888D01*
X250447Y500870D01*
X250445Y500852D01*
X250466Y500670D01*
X250485Y500487D01*
X250490Y500470D01*
X250492Y500453D01*
X250549Y500278D01*
X250603Y500102D01*
X250611Y500087D01*
X250617Y500070D01*
X250707Y499910D01*
X250795Y499748D01*
X250806Y499735D01*
X250815Y499719D01*
X250935Y499580D01*
X251052Y499439D01*
X251066Y499428D01*
X251078Y499414D01*
X251223Y499302D01*
X251366Y499187D01*
X251382Y499179D01*
X251396Y499168D01*
X251561Y499086D01*
X251723Y499001D01*
X251740Y498996D01*
X251756Y498988D01*
X251935Y498941D01*
X252110Y498890D01*
X252128Y498888D01*
X252145Y498884D01*
X252476Y498857D01*
X274698Y498857D01*
X274720Y498859D01*
X274742Y498857D01*
X274920Y498879D01*
X275098Y498897D01*
X275120Y498903D01*
X275142Y498906D01*
X275312Y498962D01*
X275483Y499015D01*
X275503Y499025D01*
X275524Y499032D01*
X275680Y499121D01*
X275837Y499207D01*
X275855Y499221D01*
X275874Y499232D01*
X276009Y499350D01*
X276147Y499464D01*
X276161Y499482D01*
X276177Y499496D01*
X276287Y499639D01*
X276399Y499778D01*
X276409Y499798D01*
X276423Y499816D01*
X276574Y500111D01*
X276727Y500480D01*
X279300Y503053D01*
X282661Y504445D01*
X301539Y504445D01*
X304900Y503053D01*
X307473Y500480D01*
X308865Y497119D01*
X308865Y493481D01*
X307473Y490120D01*
X304900Y487547D01*
X301539Y486155D01*
X282661Y486155D01*
X279300Y487547D01*
X276727Y490120D01*
X276574Y490489D01*
X276564Y490509D01*
X276557Y490530D01*
X276469Y490686D01*
X276384Y490844D01*
X276370Y490861D01*
X276359Y490881D01*
X276242Y491016D01*
X276128Y491155D01*
X276111Y491169D01*
X276096Y491186D01*
X275955Y491295D01*
X275815Y491408D01*
X275795Y491419D01*
X275778Y491432D01*
X275618Y491512D01*
X275459Y491595D01*
X275437Y491602D01*
X275417Y491612D01*
X275244Y491658D01*
X275072Y491708D01*
X275050Y491710D01*
X275029Y491716D01*
X274698Y491743D01*
X252476Y491743D01*
X252458Y491741D01*
X252440Y491743D01*
X252258Y491722D01*
X252075Y491703D01*
X252058Y491698D01*
X252041Y491696D01*
X251866Y491639D01*
X251690Y491585D01*
X251675Y491577D01*
X251658Y491571D01*
X251498Y491481D01*
X251336Y491393D01*
X251323Y491382D01*
X251307Y491373D01*
X251168Y491253D01*
X251027Y491136D01*
X251016Y491122D01*
X251002Y491110D01*
X250890Y490965D01*
X250775Y490822D01*
X250767Y490806D01*
X250756Y490792D01*
X250674Y490627D01*
X250589Y490465D01*
X250584Y490448D01*
X250576Y490432D01*
X250528Y490253D01*
X250478Y490078D01*
X250476Y490060D01*
X250472Y490043D01*
X250445Y489712D01*
X250445Y485861D01*
X249053Y482500D01*
X246480Y479927D01*
X243119Y478535D01*
X239481Y478535D01*
G37*
%LPD*%
%LPC*%
G36*
X506181Y554735D02*
X506181Y554735D01*
X502820Y556127D01*
X500247Y558700D01*
X498855Y562061D01*
X498855Y580939D01*
X500247Y584300D01*
X502820Y586873D01*
X503595Y587194D01*
X506181Y588265D01*
X509819Y588265D01*
X513180Y586873D01*
X515753Y584300D01*
X517145Y580939D01*
X517145Y562061D01*
X515753Y558700D01*
X513180Y556127D01*
X509819Y554735D01*
X506181Y554735D01*
G37*
%LPD*%
%LPC*%
G36*
X77726Y467685D02*
X77726Y467685D01*
X74578Y468989D01*
X72169Y471398D01*
X70865Y474546D01*
X70865Y477954D01*
X72169Y481102D01*
X74578Y483511D01*
X74794Y483600D01*
X77726Y484815D01*
X81134Y484815D01*
X84282Y483511D01*
X86691Y481102D01*
X87995Y477954D01*
X87995Y474546D01*
X86691Y471398D01*
X84282Y468989D01*
X81134Y467685D01*
X77726Y467685D01*
G37*
%LPD*%
%LPC*%
G36*
X39526Y467685D02*
X39526Y467685D01*
X36378Y468989D01*
X33969Y471398D01*
X32665Y474546D01*
X32665Y477954D01*
X33969Y481102D01*
X36378Y483511D01*
X36594Y483600D01*
X39526Y484815D01*
X42934Y484815D01*
X46082Y483511D01*
X48491Y481102D01*
X49795Y477954D01*
X49795Y474546D01*
X48491Y471398D01*
X46082Y468989D01*
X42934Y467685D01*
X39526Y467685D01*
G37*
%LPD*%
%LPC*%
G36*
X39526Y137485D02*
X39526Y137485D01*
X36378Y138789D01*
X33969Y141198D01*
X32665Y144346D01*
X32665Y147754D01*
X33969Y150902D01*
X36378Y153311D01*
X39526Y154615D01*
X42934Y154615D01*
X46082Y153311D01*
X48491Y150902D01*
X49795Y147754D01*
X49795Y144346D01*
X48491Y141198D01*
X46082Y138789D01*
X42934Y137485D01*
X39526Y137485D01*
G37*
%LPD*%
%LPC*%
G36*
X77726Y416885D02*
X77726Y416885D01*
X74578Y418189D01*
X72169Y420598D01*
X70865Y423746D01*
X70865Y427154D01*
X72169Y430302D01*
X74578Y432711D01*
X77726Y434015D01*
X81134Y434015D01*
X84282Y432711D01*
X86691Y430302D01*
X87995Y427154D01*
X87995Y423746D01*
X86691Y420598D01*
X84282Y418189D01*
X81134Y416885D01*
X77726Y416885D01*
G37*
%LPD*%
%LPC*%
G36*
X58626Y200985D02*
X58626Y200985D01*
X55478Y202289D01*
X53069Y204698D01*
X51765Y207846D01*
X51765Y211254D01*
X53069Y214402D01*
X55478Y216811D01*
X58626Y218115D01*
X62034Y218115D01*
X65182Y216811D01*
X67591Y214402D01*
X68895Y211254D01*
X68895Y207846D01*
X67591Y204698D01*
X65182Y202289D01*
X62034Y200985D01*
X58626Y200985D01*
G37*
%LPD*%
%LPC*%
G36*
X58626Y378785D02*
X58626Y378785D01*
X55478Y380089D01*
X53069Y382498D01*
X51765Y385646D01*
X51765Y389054D01*
X53069Y392202D01*
X55478Y394611D01*
X58626Y395915D01*
X62034Y395915D01*
X65182Y394611D01*
X67591Y392202D01*
X68895Y389054D01*
X68895Y385646D01*
X67591Y382498D01*
X65182Y380089D01*
X62034Y378785D01*
X58626Y378785D01*
G37*
%LPD*%
%LPC*%
G36*
X77726Y366085D02*
X77726Y366085D01*
X74578Y367389D01*
X72169Y369798D01*
X70865Y372946D01*
X70865Y376354D01*
X72169Y379502D01*
X74578Y381911D01*
X77726Y383215D01*
X81134Y383215D01*
X84282Y381911D01*
X86691Y379502D01*
X87995Y376354D01*
X87995Y372946D01*
X86691Y369798D01*
X84282Y367389D01*
X81134Y366085D01*
X77726Y366085D01*
G37*
%LPD*%
%LPC*%
G36*
X77726Y239085D02*
X77726Y239085D01*
X74578Y240389D01*
X72169Y242798D01*
X70865Y245946D01*
X70865Y249354D01*
X72169Y252502D01*
X74578Y254911D01*
X77726Y256215D01*
X81134Y256215D01*
X84282Y254911D01*
X86691Y252502D01*
X87995Y249354D01*
X87995Y245946D01*
X86691Y242798D01*
X84282Y240389D01*
X81134Y239085D01*
X77726Y239085D01*
G37*
%LPD*%
%LPC*%
G36*
X39526Y239085D02*
X39526Y239085D01*
X36378Y240389D01*
X33969Y242798D01*
X32665Y245946D01*
X32665Y249354D01*
X33969Y252502D01*
X36378Y254911D01*
X39526Y256215D01*
X42934Y256215D01*
X46082Y254911D01*
X48491Y252502D01*
X49795Y249354D01*
X49795Y245946D01*
X48491Y242798D01*
X46082Y240389D01*
X42934Y239085D01*
X39526Y239085D01*
G37*
%LPD*%
%LPC*%
G36*
X58626Y454985D02*
X58626Y454985D01*
X55478Y456289D01*
X53069Y458698D01*
X51765Y461846D01*
X51765Y465254D01*
X53069Y468402D01*
X55478Y470811D01*
X58626Y472115D01*
X62034Y472115D01*
X65182Y470811D01*
X67591Y468402D01*
X68895Y465254D01*
X68895Y461846D01*
X67591Y458698D01*
X65182Y456289D01*
X62034Y454985D01*
X58626Y454985D01*
G37*
%LPD*%
%LPC*%
G36*
X77726Y264485D02*
X77726Y264485D01*
X74578Y265789D01*
X72169Y268198D01*
X70865Y271346D01*
X70865Y274754D01*
X72169Y277902D01*
X74578Y280311D01*
X77726Y281615D01*
X81134Y281615D01*
X84282Y280311D01*
X86691Y277902D01*
X87995Y274754D01*
X87995Y271346D01*
X86691Y268198D01*
X84282Y265789D01*
X81134Y264485D01*
X77726Y264485D01*
G37*
%LPD*%
%LPC*%
G36*
X39526Y264485D02*
X39526Y264485D01*
X36378Y265789D01*
X33969Y268198D01*
X32665Y271346D01*
X32665Y274754D01*
X33969Y277902D01*
X36378Y280311D01*
X39526Y281615D01*
X42934Y281615D01*
X46082Y280311D01*
X48491Y277902D01*
X49795Y274754D01*
X49795Y271346D01*
X48491Y268198D01*
X46082Y265789D01*
X42934Y264485D01*
X39526Y264485D01*
G37*
%LPD*%
%LPC*%
G36*
X58626Y277185D02*
X58626Y277185D01*
X55478Y278489D01*
X53069Y280898D01*
X51765Y284046D01*
X51765Y287454D01*
X53069Y290602D01*
X55478Y293011D01*
X58626Y294315D01*
X62034Y294315D01*
X65182Y293011D01*
X67591Y290602D01*
X68895Y287454D01*
X68895Y284046D01*
X67591Y280898D01*
X65182Y278489D01*
X62034Y277185D01*
X58626Y277185D01*
G37*
%LPD*%
%LPC*%
G36*
X77726Y340685D02*
X77726Y340685D01*
X74578Y341989D01*
X72169Y344398D01*
X70865Y347546D01*
X70865Y350954D01*
X72169Y354102D01*
X74578Y356511D01*
X77726Y357815D01*
X81134Y357815D01*
X84282Y356511D01*
X86691Y354102D01*
X87995Y350954D01*
X87995Y347546D01*
X86691Y344398D01*
X84282Y341989D01*
X81134Y340685D01*
X77726Y340685D01*
G37*
%LPD*%
%LPC*%
G36*
X39526Y340685D02*
X39526Y340685D01*
X36378Y341989D01*
X33969Y344398D01*
X32665Y347546D01*
X32665Y350954D01*
X33969Y354102D01*
X36378Y356511D01*
X39526Y357815D01*
X42934Y357815D01*
X46082Y356511D01*
X48491Y354102D01*
X49795Y350954D01*
X49795Y347546D01*
X48491Y344398D01*
X46082Y341989D01*
X42934Y340685D01*
X39526Y340685D01*
G37*
%LPD*%
%LPC*%
G36*
X58626Y480385D02*
X58626Y480385D01*
X55478Y481689D01*
X53069Y484098D01*
X51765Y487246D01*
X51765Y490654D01*
X53069Y493802D01*
X55478Y496211D01*
X58626Y497515D01*
X62034Y497515D01*
X65182Y496211D01*
X67591Y493802D01*
X68895Y490654D01*
X68895Y487246D01*
X67591Y484098D01*
X65182Y481689D01*
X62034Y480385D01*
X58626Y480385D01*
G37*
%LPD*%
%LPC*%
G36*
X58626Y353385D02*
X58626Y353385D01*
X55478Y354689D01*
X53069Y357098D01*
X51765Y360246D01*
X51765Y363654D01*
X53069Y366802D01*
X55478Y369211D01*
X58626Y370515D01*
X62034Y370515D01*
X65182Y369211D01*
X67591Y366802D01*
X68895Y363654D01*
X68895Y360246D01*
X67591Y357098D01*
X65182Y354689D01*
X62034Y353385D01*
X58626Y353385D01*
G37*
%LPD*%
%LPC*%
G36*
X39526Y366085D02*
X39526Y366085D01*
X36378Y367389D01*
X33969Y369798D01*
X32665Y372946D01*
X32665Y376354D01*
X33969Y379502D01*
X36378Y381911D01*
X39526Y383215D01*
X42934Y383215D01*
X46082Y381911D01*
X48491Y379502D01*
X49795Y376354D01*
X49795Y372946D01*
X48491Y369798D01*
X46082Y367389D01*
X42934Y366085D01*
X39526Y366085D01*
G37*
%LPD*%
%LPC*%
G36*
X39526Y442285D02*
X39526Y442285D01*
X36378Y443589D01*
X33969Y445998D01*
X32665Y449146D01*
X32665Y452554D01*
X33969Y455702D01*
X36378Y458111D01*
X39526Y459415D01*
X42934Y459415D01*
X46082Y458111D01*
X48491Y455702D01*
X49795Y452554D01*
X49795Y449146D01*
X48491Y445998D01*
X46082Y443589D01*
X42934Y442285D01*
X39526Y442285D01*
G37*
%LPD*%
%LPC*%
G36*
X77726Y442285D02*
X77726Y442285D01*
X74578Y443589D01*
X72169Y445998D01*
X70865Y449146D01*
X70865Y452554D01*
X72169Y455702D01*
X74578Y458111D01*
X77726Y459415D01*
X81134Y459415D01*
X84282Y458111D01*
X86691Y455702D01*
X87995Y452554D01*
X87995Y449146D01*
X86691Y445998D01*
X84282Y443589D01*
X81134Y442285D01*
X77726Y442285D01*
G37*
%LPD*%
%LPC*%
G36*
X39526Y416885D02*
X39526Y416885D01*
X36378Y418189D01*
X33969Y420598D01*
X32665Y423746D01*
X32665Y427154D01*
X33969Y430302D01*
X36378Y432711D01*
X39526Y434015D01*
X42934Y434015D01*
X46082Y432711D01*
X48491Y430302D01*
X49795Y427154D01*
X49795Y423746D01*
X48491Y420598D01*
X46082Y418189D01*
X42934Y416885D01*
X39526Y416885D01*
G37*
%LPD*%
%LPC*%
G36*
X58626Y404185D02*
X58626Y404185D01*
X55478Y405489D01*
X53069Y407898D01*
X51765Y411046D01*
X51765Y414454D01*
X53069Y417602D01*
X55478Y420011D01*
X58626Y421315D01*
X62034Y421315D01*
X65182Y420011D01*
X67591Y417602D01*
X68895Y414454D01*
X68895Y411046D01*
X67591Y407898D01*
X65182Y405489D01*
X62034Y404185D01*
X58626Y404185D01*
G37*
%LPD*%
%LPC*%
G36*
X58626Y124785D02*
X58626Y124785D01*
X55478Y126089D01*
X53069Y128498D01*
X51765Y131646D01*
X51765Y135054D01*
X53069Y138202D01*
X55478Y140611D01*
X58626Y141915D01*
X62034Y141915D01*
X65182Y140611D01*
X67591Y138202D01*
X68895Y135054D01*
X68895Y131646D01*
X67591Y128498D01*
X65182Y126089D01*
X62034Y124785D01*
X58626Y124785D01*
G37*
%LPD*%
%LPC*%
G36*
X39526Y112085D02*
X39526Y112085D01*
X36378Y113389D01*
X33969Y115798D01*
X32665Y118946D01*
X32665Y122354D01*
X33969Y125502D01*
X36378Y127911D01*
X36911Y128131D01*
X39526Y129215D01*
X42934Y129215D01*
X46082Y127911D01*
X48491Y125502D01*
X49795Y122354D01*
X49795Y118946D01*
X48491Y115798D01*
X46082Y113389D01*
X42934Y112085D01*
X39526Y112085D01*
G37*
%LPD*%
%LPC*%
G36*
X77726Y112085D02*
X77726Y112085D01*
X74578Y113389D01*
X72169Y115798D01*
X70865Y118946D01*
X70865Y122354D01*
X72169Y125502D01*
X74578Y127911D01*
X75111Y128131D01*
X77726Y129215D01*
X81134Y129215D01*
X84282Y127911D01*
X86691Y125502D01*
X87995Y122354D01*
X87995Y118946D01*
X86691Y115798D01*
X84282Y113389D01*
X81134Y112085D01*
X77726Y112085D01*
G37*
%LPD*%
%LPC*%
G36*
X39526Y391485D02*
X39526Y391485D01*
X36378Y392789D01*
X33969Y395198D01*
X32665Y398346D01*
X32665Y401754D01*
X33969Y404902D01*
X36378Y407311D01*
X39526Y408615D01*
X42934Y408615D01*
X46082Y407311D01*
X48491Y404902D01*
X49795Y401754D01*
X49795Y398346D01*
X48491Y395198D01*
X46082Y392789D01*
X43881Y391878D01*
X42934Y391485D01*
X39526Y391485D01*
G37*
%LPD*%
%LPC*%
G36*
X77726Y391485D02*
X77726Y391485D01*
X74578Y392789D01*
X72169Y395198D01*
X70865Y398346D01*
X70865Y401754D01*
X72169Y404902D01*
X74578Y407311D01*
X77726Y408615D01*
X81134Y408615D01*
X84282Y407311D01*
X86691Y404902D01*
X87995Y401754D01*
X87995Y398346D01*
X86691Y395198D01*
X84282Y392789D01*
X82081Y391878D01*
X81134Y391485D01*
X77726Y391485D01*
G37*
%LPD*%
%LPC*%
G36*
X58626Y429585D02*
X58626Y429585D01*
X55478Y430889D01*
X53069Y433298D01*
X51765Y436446D01*
X51765Y439854D01*
X53069Y443002D01*
X55478Y445411D01*
X58626Y446715D01*
X62034Y446715D01*
X65182Y445411D01*
X67591Y443002D01*
X68895Y439854D01*
X68895Y436446D01*
X67591Y433298D01*
X65182Y430889D01*
X64173Y430471D01*
X62034Y429585D01*
X58626Y429585D01*
G37*
%LPD*%
%LPC*%
G36*
X58626Y505785D02*
X58626Y505785D01*
X55478Y507089D01*
X53069Y509498D01*
X51765Y512646D01*
X51765Y516054D01*
X53069Y519202D01*
X55478Y521611D01*
X56886Y522194D01*
X58626Y522915D01*
X62034Y522915D01*
X65182Y521611D01*
X67591Y519202D01*
X68895Y516054D01*
X68895Y512646D01*
X67591Y509498D01*
X65182Y507089D01*
X62034Y505785D01*
X58626Y505785D01*
G37*
%LPD*%
%LPC*%
G36*
X58626Y251785D02*
X58626Y251785D01*
X55478Y253089D01*
X53069Y255498D01*
X51765Y258646D01*
X51765Y262054D01*
X53069Y265202D01*
X55478Y267611D01*
X57112Y268287D01*
X57112Y268288D01*
X58626Y268915D01*
X62034Y268915D01*
X65182Y267611D01*
X67591Y265202D01*
X68895Y262054D01*
X68895Y258646D01*
X67591Y255498D01*
X65182Y253089D01*
X62034Y251785D01*
X58626Y251785D01*
G37*
%LPD*%
%LPC*%
G36*
X58626Y226385D02*
X58626Y226385D01*
X55478Y227689D01*
X53069Y230098D01*
X51765Y233246D01*
X51765Y236654D01*
X53069Y239802D01*
X55478Y242211D01*
X58626Y243515D01*
X62034Y243515D01*
X65182Y242211D01*
X67591Y239802D01*
X68895Y236654D01*
X68895Y233246D01*
X67591Y230098D01*
X65182Y227689D01*
X64354Y227346D01*
X62034Y226385D01*
X58626Y226385D01*
G37*
%LPD*%
%LPC*%
G36*
X39526Y493085D02*
X39526Y493085D01*
X36378Y494389D01*
X33969Y496798D01*
X32665Y499946D01*
X32665Y503354D01*
X33969Y506502D01*
X36378Y508911D01*
X39526Y510215D01*
X42934Y510215D01*
X46082Y508911D01*
X48491Y506502D01*
X49795Y503354D01*
X49795Y499946D01*
X48491Y496798D01*
X46082Y494389D01*
X43791Y493440D01*
X43790Y493440D01*
X42934Y493085D01*
X39526Y493085D01*
G37*
%LPD*%
%LPC*%
G36*
X77726Y493085D02*
X77726Y493085D01*
X74578Y494389D01*
X72169Y496798D01*
X70865Y499946D01*
X70865Y503354D01*
X72169Y506502D01*
X74578Y508911D01*
X77726Y510215D01*
X81134Y510215D01*
X84282Y508911D01*
X86691Y506502D01*
X87995Y503354D01*
X87995Y499946D01*
X86691Y496798D01*
X84282Y494389D01*
X81991Y493440D01*
X81990Y493440D01*
X81134Y493085D01*
X77726Y493085D01*
G37*
%LPD*%
%LPC*%
G36*
X77726Y213685D02*
X77726Y213685D01*
X74578Y214989D01*
X72169Y217398D01*
X70865Y220546D01*
X70865Y223954D01*
X72169Y227102D01*
X74578Y229511D01*
X75020Y229694D01*
X77726Y230815D01*
X81134Y230815D01*
X84282Y229511D01*
X86691Y227102D01*
X87995Y223954D01*
X87995Y220546D01*
X86691Y217398D01*
X84282Y214989D01*
X81134Y213685D01*
X77726Y213685D01*
G37*
%LPD*%
%LPC*%
G36*
X39526Y213685D02*
X39526Y213685D01*
X36378Y214989D01*
X33969Y217398D01*
X32665Y220546D01*
X32665Y223954D01*
X33969Y227102D01*
X36378Y229511D01*
X36820Y229694D01*
X39526Y230815D01*
X42934Y230815D01*
X46082Y229511D01*
X48491Y227102D01*
X49795Y223954D01*
X49795Y220546D01*
X48491Y217398D01*
X46082Y214989D01*
X42934Y213685D01*
X39526Y213685D01*
G37*
%LPD*%
%LPC*%
G36*
X39526Y188285D02*
X39526Y188285D01*
X36378Y189589D01*
X33969Y191998D01*
X32665Y195146D01*
X32665Y198554D01*
X33969Y201702D01*
X36378Y204111D01*
X39295Y205319D01*
X39526Y205415D01*
X42934Y205415D01*
X46082Y204111D01*
X48491Y201702D01*
X49795Y198554D01*
X49795Y195146D01*
X48491Y191998D01*
X46082Y189589D01*
X44062Y188753D01*
X42934Y188285D01*
X39526Y188285D01*
G37*
%LPD*%
%LPC*%
G36*
X77726Y188285D02*
X77726Y188285D01*
X74578Y189589D01*
X72169Y191998D01*
X70865Y195146D01*
X70865Y198554D01*
X72169Y201702D01*
X74578Y204111D01*
X77495Y205319D01*
X77726Y205415D01*
X81134Y205415D01*
X84282Y204111D01*
X86691Y201702D01*
X87995Y198554D01*
X87995Y195146D01*
X86691Y191998D01*
X84282Y189589D01*
X82262Y188753D01*
X81134Y188285D01*
X77726Y188285D01*
G37*
%LPD*%
%LPC*%
G36*
X193039Y497839D02*
X193039Y497839D01*
X193039Y512779D01*
X194400Y512336D01*
X195825Y511610D01*
X197119Y510670D01*
X198250Y509539D01*
X199190Y508245D01*
X199916Y506820D01*
X200411Y505299D01*
X200661Y503720D01*
X200661Y497839D01*
X193039Y497839D01*
G37*
%LPD*%
%LPC*%
G36*
X294639Y472439D02*
X294639Y472439D01*
X294639Y480061D01*
X300520Y480061D01*
X302099Y479811D01*
X303620Y479316D01*
X305045Y478590D01*
X306339Y477650D01*
X307470Y476519D01*
X308410Y475225D01*
X309136Y473800D01*
X309579Y472439D01*
X294639Y472439D01*
G37*
%LPD*%
%LPC*%
G36*
X193039Y492761D02*
X193039Y492761D01*
X200661Y492761D01*
X200661Y486880D01*
X200411Y485301D01*
X199916Y483780D01*
X199190Y482355D01*
X198250Y481061D01*
X197119Y479930D01*
X195825Y478990D01*
X194400Y478264D01*
X193039Y477821D01*
X193039Y492761D01*
G37*
%LPD*%
%LPC*%
G36*
X274621Y472439D02*
X274621Y472439D01*
X275064Y473800D01*
X275790Y475225D01*
X276730Y476519D01*
X277861Y477650D01*
X279155Y478590D01*
X280580Y479316D01*
X282101Y479811D01*
X283680Y480061D01*
X289561Y480061D01*
X289561Y472439D01*
X274621Y472439D01*
G37*
%LPD*%
%LPC*%
G36*
X122221Y472439D02*
X122221Y472439D01*
X122664Y473800D01*
X123390Y475225D01*
X124330Y476519D01*
X125461Y477650D01*
X126755Y478590D01*
X128180Y479316D01*
X129701Y479811D01*
X131280Y480061D01*
X137161Y480061D01*
X137161Y472439D01*
X122221Y472439D01*
G37*
%LPD*%
%LPC*%
G36*
X180339Y497839D02*
X180339Y497839D01*
X180339Y503720D01*
X180589Y505299D01*
X181084Y506820D01*
X181810Y508245D01*
X182750Y509539D01*
X183881Y510670D01*
X185175Y511610D01*
X186600Y512336D01*
X187961Y512779D01*
X187961Y497839D01*
X180339Y497839D01*
G37*
%LPD*%
%LPC*%
G36*
X294639Y459739D02*
X294639Y459739D01*
X294639Y467361D01*
X309579Y467361D01*
X309136Y466000D01*
X308410Y464575D01*
X307470Y463281D01*
X306339Y462150D01*
X305045Y461210D01*
X303620Y460484D01*
X302099Y459989D01*
X300520Y459739D01*
X294639Y459739D01*
G37*
%LPD*%
%LPC*%
G36*
X142239Y459739D02*
X142239Y459739D01*
X142239Y467361D01*
X157179Y467361D01*
X156736Y466000D01*
X156010Y464575D01*
X155070Y463281D01*
X153939Y462150D01*
X152645Y461210D01*
X151220Y460484D01*
X149699Y459989D01*
X148120Y459739D01*
X142239Y459739D01*
G37*
%LPD*%
%LPC*%
G36*
X283680Y459739D02*
X283680Y459739D01*
X282101Y459989D01*
X280580Y460484D01*
X279155Y461210D01*
X277861Y462150D01*
X276730Y463281D01*
X275790Y464575D01*
X275064Y466000D01*
X274621Y467361D01*
X289561Y467361D01*
X289561Y459739D01*
X283680Y459739D01*
G37*
%LPD*%
%LPC*%
G36*
X131280Y459739D02*
X131280Y459739D01*
X129701Y459989D01*
X128180Y460484D01*
X126755Y461210D01*
X125461Y462150D01*
X124330Y463281D01*
X123390Y464575D01*
X122664Y466000D01*
X122221Y467361D01*
X137161Y467361D01*
X137161Y459739D01*
X131280Y459739D01*
G37*
%LPD*%
%LPC*%
G36*
X186600Y478264D02*
X186600Y478264D01*
X185175Y478990D01*
X183881Y479930D01*
X182750Y481061D01*
X181810Y482355D01*
X181084Y483780D01*
X180589Y485301D01*
X180339Y486880D01*
X180339Y492761D01*
X187961Y492761D01*
X187961Y477821D01*
X186600Y478264D01*
G37*
%LPD*%
%LPC*%
G36*
X156463Y603013D02*
X156463Y603013D01*
X156463Y612241D01*
X161735Y612241D01*
X162381Y612068D01*
X162960Y611733D01*
X163433Y611260D01*
X163768Y610681D01*
X163941Y610035D01*
X163941Y603013D01*
X156463Y603013D01*
G37*
%LPD*%
%LPC*%
G36*
X283463Y603013D02*
X283463Y603013D01*
X283463Y612241D01*
X288735Y612241D01*
X289381Y612068D01*
X289960Y611733D01*
X290433Y611260D01*
X290768Y610681D01*
X290941Y610035D01*
X290941Y603013D01*
X283463Y603013D01*
G37*
%LPD*%
%LPC*%
G36*
X267859Y603013D02*
X267859Y603013D01*
X267859Y610035D01*
X268032Y610681D01*
X268367Y611260D01*
X268840Y611733D01*
X269419Y612068D01*
X270065Y612241D01*
X275337Y612241D01*
X275337Y603013D01*
X267859Y603013D01*
G37*
%LPD*%
%LPC*%
G36*
X140859Y603013D02*
X140859Y603013D01*
X140859Y610035D01*
X141032Y610681D01*
X141367Y611260D01*
X141840Y611733D01*
X142419Y612068D01*
X143065Y612241D01*
X148337Y612241D01*
X148337Y603013D01*
X140859Y603013D01*
G37*
%LPD*%
%LPC*%
G36*
X242649Y601889D02*
X242649Y601889D01*
X242649Y610681D01*
X248941Y610681D01*
X248941Y604095D01*
X248768Y603449D01*
X248433Y602870D01*
X247960Y602397D01*
X247381Y602062D01*
X246735Y601889D01*
X242649Y601889D01*
G37*
%LPD*%
%LPC*%
G36*
X415230Y409758D02*
X415230Y409758D01*
X413816Y410478D01*
X412533Y411411D01*
X411411Y412533D01*
X410478Y413816D01*
X409758Y415230D01*
X409313Y416601D01*
X416601Y416601D01*
X416601Y409313D01*
X415230Y409758D01*
G37*
%LPD*%
%LPC*%
G36*
X81679Y529299D02*
X81679Y529299D01*
X81679Y536393D01*
X83108Y535929D01*
X84451Y535244D01*
X85671Y534358D01*
X86738Y533291D01*
X87624Y532071D01*
X88309Y530728D01*
X88773Y529299D01*
X81679Y529299D01*
G37*
%LPD*%
%LPC*%
G36*
X24379Y338799D02*
X24379Y338799D01*
X24379Y345893D01*
X25808Y345429D01*
X27151Y344744D01*
X28371Y343858D01*
X29438Y342791D01*
X30324Y341571D01*
X31009Y340228D01*
X31473Y338799D01*
X24379Y338799D01*
G37*
%LPD*%
%LPC*%
G36*
X62579Y338799D02*
X62579Y338799D01*
X62579Y345893D01*
X64008Y345429D01*
X65351Y344744D01*
X66571Y343858D01*
X67638Y342791D01*
X68524Y341571D01*
X69209Y340228D01*
X69673Y338799D01*
X62579Y338799D01*
G37*
%LPD*%
%LPC*%
G36*
X43479Y529299D02*
X43479Y529299D01*
X43479Y536393D01*
X44908Y535929D01*
X46251Y535244D01*
X47471Y534358D01*
X48538Y533291D01*
X49424Y532071D01*
X50109Y530728D01*
X50573Y529299D01*
X43479Y529299D01*
G37*
%LPD*%
%LPC*%
G36*
X81679Y300699D02*
X81679Y300699D01*
X81679Y307793D01*
X83108Y307329D01*
X84451Y306644D01*
X85671Y305758D01*
X86738Y304691D01*
X87624Y303471D01*
X88309Y302128D01*
X88773Y300699D01*
X81679Y300699D01*
G37*
%LPD*%
%LPC*%
G36*
X43479Y300699D02*
X43479Y300699D01*
X43479Y307793D01*
X44908Y307329D01*
X46251Y306644D01*
X47471Y305758D01*
X48538Y304691D01*
X49424Y303471D01*
X50109Y302128D01*
X50573Y300699D01*
X43479Y300699D01*
G37*
%LPD*%
%LPC*%
G36*
X24379Y110199D02*
X24379Y110199D01*
X24379Y117293D01*
X25808Y116829D01*
X27151Y116144D01*
X28371Y115258D01*
X29438Y114191D01*
X30324Y112971D01*
X31009Y111628D01*
X31473Y110199D01*
X24379Y110199D01*
G37*
%LPD*%
%LPC*%
G36*
X62579Y110199D02*
X62579Y110199D01*
X62579Y117293D01*
X64008Y116829D01*
X65351Y116144D01*
X66571Y115258D01*
X67638Y114191D01*
X68524Y112971D01*
X69209Y111628D01*
X69673Y110199D01*
X62579Y110199D01*
G37*
%LPD*%
%LPC*%
G36*
X24379Y105701D02*
X24379Y105701D01*
X31473Y105701D01*
X31009Y104272D01*
X30324Y102928D01*
X29438Y101709D01*
X28371Y100642D01*
X27151Y99756D01*
X25808Y99071D01*
X24379Y98607D01*
X24379Y105701D01*
G37*
%LPD*%
%LPC*%
G36*
X81679Y524801D02*
X81679Y524801D01*
X88773Y524801D01*
X88309Y523372D01*
X87624Y522028D01*
X86738Y520809D01*
X85671Y519742D01*
X84451Y518856D01*
X83108Y518171D01*
X81679Y517707D01*
X81679Y524801D01*
G37*
%LPD*%
%LPC*%
G36*
X24379Y334301D02*
X24379Y334301D01*
X31473Y334301D01*
X31009Y332872D01*
X30324Y331528D01*
X29438Y330309D01*
X28371Y329242D01*
X27151Y328356D01*
X25808Y327671D01*
X24379Y327207D01*
X24379Y334301D01*
G37*
%LPD*%
%LPC*%
G36*
X43479Y296201D02*
X43479Y296201D01*
X50573Y296201D01*
X50109Y294772D01*
X49424Y293428D01*
X48538Y292209D01*
X47471Y291142D01*
X46251Y290256D01*
X44908Y289571D01*
X43479Y289107D01*
X43479Y296201D01*
G37*
%LPD*%
%LPC*%
G36*
X81679Y296201D02*
X81679Y296201D01*
X88773Y296201D01*
X88309Y294772D01*
X87624Y293428D01*
X86738Y292209D01*
X85671Y291142D01*
X84451Y290256D01*
X83108Y289571D01*
X81679Y289107D01*
X81679Y296201D01*
G37*
%LPD*%
%LPC*%
G36*
X43479Y524801D02*
X43479Y524801D01*
X50573Y524801D01*
X50109Y523372D01*
X49424Y522028D01*
X48538Y520809D01*
X47471Y519742D01*
X46251Y518856D01*
X44908Y518171D01*
X43479Y517707D01*
X43479Y524801D01*
G37*
%LPD*%
%LPC*%
G36*
X62579Y105701D02*
X62579Y105701D01*
X69673Y105701D01*
X69209Y104272D01*
X68524Y102928D01*
X67638Y101709D01*
X66571Y100642D01*
X65351Y99756D01*
X64008Y99071D01*
X62579Y98607D01*
X62579Y105701D01*
G37*
%LPD*%
%LPC*%
G36*
X31887Y300699D02*
X31887Y300699D01*
X32351Y302128D01*
X33036Y303471D01*
X33922Y304691D01*
X34989Y305758D01*
X36209Y306644D01*
X37552Y307329D01*
X38981Y307793D01*
X38981Y300699D01*
X31887Y300699D01*
G37*
%LPD*%
%LPC*%
G36*
X70087Y300699D02*
X70087Y300699D01*
X70551Y302128D01*
X71236Y303471D01*
X72122Y304691D01*
X73189Y305758D01*
X74409Y306644D01*
X75752Y307329D01*
X77181Y307793D01*
X77181Y300699D01*
X70087Y300699D01*
G37*
%LPD*%
%LPC*%
G36*
X50987Y338799D02*
X50987Y338799D01*
X51451Y340228D01*
X52136Y341571D01*
X53022Y342791D01*
X54089Y343858D01*
X55309Y344744D01*
X56652Y345429D01*
X58081Y345893D01*
X58081Y338799D01*
X50987Y338799D01*
G37*
%LPD*%
%LPC*%
G36*
X31887Y529299D02*
X31887Y529299D01*
X32351Y530728D01*
X33036Y532071D01*
X33922Y533291D01*
X34989Y534358D01*
X36209Y535244D01*
X37552Y535929D01*
X38981Y536393D01*
X38981Y529299D01*
X31887Y529299D01*
G37*
%LPD*%
%LPC*%
G36*
X50987Y110199D02*
X50987Y110199D01*
X51451Y111628D01*
X52136Y112971D01*
X53022Y114191D01*
X54089Y115258D01*
X55309Y116144D01*
X56652Y116829D01*
X58081Y117293D01*
X58081Y110199D01*
X50987Y110199D01*
G37*
%LPD*%
%LPC*%
G36*
X70087Y529299D02*
X70087Y529299D01*
X70551Y530728D01*
X71236Y532071D01*
X72122Y533291D01*
X73189Y534358D01*
X74409Y535244D01*
X75752Y535929D01*
X77181Y536393D01*
X77181Y529299D01*
X70087Y529299D01*
G37*
%LPD*%
%LPC*%
G36*
X75752Y518171D02*
X75752Y518171D01*
X74409Y518856D01*
X73189Y519742D01*
X72122Y520809D01*
X71236Y522028D01*
X70551Y523372D01*
X70087Y524801D01*
X77181Y524801D01*
X77181Y517707D01*
X75752Y518171D01*
G37*
%LPD*%
%LPC*%
G36*
X37552Y518171D02*
X37552Y518171D01*
X36209Y518856D01*
X34989Y519742D01*
X33922Y520809D01*
X33036Y522028D01*
X32351Y523372D01*
X31887Y524801D01*
X38981Y524801D01*
X38981Y517707D01*
X37552Y518171D01*
G37*
%LPD*%
%LPC*%
G36*
X37552Y289571D02*
X37552Y289571D01*
X36209Y290256D01*
X34989Y291142D01*
X33922Y292209D01*
X33036Y293428D01*
X32351Y294772D01*
X31887Y296201D01*
X38981Y296201D01*
X38981Y289107D01*
X37552Y289571D01*
G37*
%LPD*%
%LPC*%
G36*
X75752Y289571D02*
X75752Y289571D01*
X74409Y290256D01*
X73189Y291142D01*
X72122Y292209D01*
X71236Y293428D01*
X70551Y294772D01*
X70087Y296201D01*
X77181Y296201D01*
X77181Y289107D01*
X75752Y289571D01*
G37*
%LPD*%
%LPC*%
G36*
X56652Y99071D02*
X56652Y99071D01*
X55309Y99756D01*
X54089Y100642D01*
X53022Y101709D01*
X52136Y102928D01*
X51451Y104272D01*
X50987Y105701D01*
X58081Y105701D01*
X58081Y98607D01*
X56652Y99071D01*
G37*
%LPD*%
%LPC*%
G36*
X129624Y595574D02*
X129624Y595574D01*
X129624Y600741D01*
X132735Y600741D01*
X133381Y600568D01*
X133960Y600233D01*
X134433Y599760D01*
X134768Y599181D01*
X134941Y598535D01*
X134941Y595574D01*
X129624Y595574D01*
G37*
%LPD*%
%LPC*%
G36*
X119059Y595574D02*
X119059Y595574D01*
X119059Y598535D01*
X119232Y599181D01*
X119567Y599760D01*
X120040Y600233D01*
X120619Y600568D01*
X121265Y600741D01*
X124376Y600741D01*
X124376Y595574D01*
X119059Y595574D01*
G37*
%LPD*%
D10*
X419100Y444500D03*
X444500Y444500D03*
X469900Y444500D03*
X495300Y444500D03*
X520700Y444500D03*
X546100Y444500D03*
X571500Y444500D03*
X596900Y444500D03*
X596900Y419100D03*
X571500Y419100D03*
X546100Y419100D03*
X520700Y419100D03*
X495300Y419100D03*
X469900Y419100D03*
X444500Y419100D03*
X419100Y419100D03*
D11*
X60330Y107950D03*
X79430Y120650D03*
X60330Y133350D03*
X79430Y146050D03*
X60330Y158750D03*
X79430Y171450D03*
X60330Y184150D03*
X79430Y196850D03*
X60330Y209550D03*
X79430Y222250D03*
X60330Y234950D03*
X79430Y247650D03*
X60330Y260350D03*
X79430Y273050D03*
X60330Y285750D03*
X79430Y298450D03*
X60330Y311150D03*
X79430Y323850D03*
X60330Y336550D03*
X79430Y349250D03*
X60330Y361950D03*
X79430Y374650D03*
X60330Y387350D03*
X79430Y400050D03*
X60330Y412750D03*
X79430Y425450D03*
X60330Y438150D03*
X79430Y450850D03*
X60330Y463550D03*
X79430Y476250D03*
X60330Y488950D03*
X79430Y501650D03*
X60330Y514350D03*
X79430Y527050D03*
X22130Y107950D03*
X41230Y120650D03*
X22130Y133350D03*
X41230Y146050D03*
X22130Y158750D03*
X41230Y171450D03*
X22130Y184150D03*
X41230Y196850D03*
X22130Y209550D03*
X41230Y222250D03*
X22130Y234950D03*
X41230Y247650D03*
X22130Y260350D03*
X41230Y273050D03*
X22130Y285750D03*
X41230Y298450D03*
X22130Y311150D03*
X41230Y323850D03*
X22130Y336550D03*
X41230Y349250D03*
X22130Y361950D03*
X41230Y374650D03*
X22130Y387350D03*
X41230Y400050D03*
X22130Y412750D03*
X41230Y425450D03*
X22130Y438150D03*
X41230Y450850D03*
X22130Y463550D03*
X41230Y476250D03*
X22130Y488950D03*
X41230Y501650D03*
X22130Y514350D03*
X41230Y527050D03*
D12*
X152400Y569450D03*
X152400Y598950D03*
X279400Y569450D03*
X279400Y598950D03*
D13*
X127000Y575450D03*
X127000Y592950D03*
D14*
X238900Y614430D03*
X215900Y614430D03*
X192900Y614430D03*
D15*
X215900Y551430D03*
D16*
X457200Y563880D02*
X457200Y579120D01*
X482600Y579120D02*
X482600Y563880D01*
X508000Y563880D02*
X508000Y579120D01*
X190500Y502920D02*
X190500Y487680D01*
X215900Y487680D02*
X215900Y502920D01*
X241300Y502920D02*
X241300Y487680D01*
X284480Y495300D02*
X299720Y495300D01*
X299720Y469900D02*
X284480Y469900D01*
X147320Y469900D02*
X132080Y469900D01*
X132080Y495300D02*
X147320Y495300D01*
D17*
X79430Y323850D02*
X41230Y323850D01*
X79430Y323850D02*
X198465Y442885D01*
X215900Y460320D01*
X215900Y495300D01*
X146050Y495300D02*
X139700Y495300D01*
X146050Y495300D02*
X198465Y442885D01*
X146050Y495300D02*
X152400Y501650D01*
X152400Y569450D01*
X152400Y575450D02*
X127000Y575450D01*
X152400Y575450D02*
X152400Y569450D01*
X192900Y610730D02*
X192900Y614430D01*
X152400Y570230D02*
X152400Y569450D01*
X152400Y570230D02*
X192900Y610730D01*
X241300Y495300D02*
X292100Y495300D01*
X241300Y495300D02*
X241300Y536190D01*
X226060Y551430D01*
X215900Y551430D01*
X262650Y551430D01*
X279400Y568180D02*
X279400Y569450D01*
X279400Y568180D02*
X262650Y551430D01*
X279400Y569450D02*
X457200Y569450D01*
X457200Y571500D01*
X482600Y571500D02*
X482600Y457200D01*
D18*
X482600Y457200D03*
D19*
X373964Y465984D02*
X79430Y171450D01*
X403017Y465984D02*
X418454Y450547D01*
X418454Y445146D01*
X419100Y444500D01*
X403017Y465984D02*
X373964Y465984D01*
X431800Y431800D02*
X444500Y444500D01*
X431800Y431800D02*
X431800Y406400D01*
X63893Y171450D02*
X41230Y171450D01*
X63893Y171450D02*
X76521Y158822D01*
X184222Y158822D02*
X431800Y406400D01*
X184222Y158822D02*
X76521Y158822D01*
X457200Y431800D02*
X469900Y444500D01*
D18*
X234950Y184150D03*
D19*
X457200Y406400D02*
X457200Y431800D01*
X457200Y406400D02*
X234950Y184150D01*
X482600Y431800D02*
X495300Y444500D01*
X482600Y431800D02*
X482600Y406400D01*
X260350Y184150D01*
D18*
X260350Y184150D03*
D19*
X508000Y431800D02*
X520700Y444500D01*
X508000Y406400D02*
X299720Y198120D01*
X299720Y196850D01*
D18*
X299720Y196850D03*
D19*
X508000Y406400D02*
X508000Y431800D01*
X533400Y431800D02*
X546100Y444500D01*
X533400Y431800D02*
X533400Y406400D01*
X334010Y207010D01*
D18*
X334010Y207010D03*
D19*
X558800Y431800D02*
X571500Y444500D01*
X558800Y431800D02*
X558800Y406400D01*
X368300Y215900D01*
D18*
X368300Y215900D03*
D19*
X584200Y431800D02*
X596900Y444500D01*
X584200Y406400D02*
X412115Y234315D01*
X411480Y234950D01*
D18*
X411480Y234950D03*
D19*
X584200Y406400D02*
X584200Y431800D01*
M02*
