M48
;GenerationSoftware,Autodesk,EAGLE,9.6.2*%
;CreationDate,2022-06-06T05:34:13Z*%
FMAT,2
ICI,OFF
METRIC,TZ,000.000
T6C0.350
T5C0.900
T4C1.000
T3C1.016
T2C2.500
T1C2.800
%
G90
M71
T1
X5080Y60705
X5080Y2795
T2
X62300Y44180
X39300Y44180
X62300Y3180
X39300Y3180
T3
X24130Y49530
X21590Y49530
X19050Y49530
X50800Y57150
X48260Y57150
X45720Y57150
X13970Y49530
X29210Y49530
X29210Y46990
X13970Y46990
T4
X41910Y44450
X46990Y41910
X44450Y44450
X46990Y44450
X49530Y44450
X52070Y44450
X54610Y44450
X57150Y44450
X59690Y44450
X59690Y41910
X57150Y41910
X54610Y41910
X52070Y41910
X49530Y41910
X44450Y41910
X41910Y41910
T5
X7943Y14605
X6033Y15875
X7943Y17145
X6033Y18415
X7943Y19685
X6033Y20955
X7943Y22225
X6033Y23495
X7943Y24765
X6033Y26035
X7943Y27305
X6033Y28575
X7943Y29845
X6033Y31115
X7943Y32385
X6033Y33655
X7943Y34925
X6033Y36195
X7943Y37465
X6033Y38735
X7943Y40005
X6033Y41275
X7943Y42545
X6033Y43815
X7943Y45085
X6033Y46355
X7943Y47625
X6033Y48895
X7943Y50165
X6033Y51435
X7943Y52705
X2213Y10795
X4123Y12065
X2213Y13335
X4123Y14605
X2213Y15875
X4123Y17145
X2213Y18415
X4123Y19685
X2213Y20955
X4123Y22225
X2213Y23495
X4123Y24765
X2213Y26035
X4123Y27305
X2213Y28575
X4123Y29845
X2213Y31115
X2213Y33655
X4123Y34925
X2213Y36195
X4123Y37465
X2213Y38735
X4123Y40005
X2213Y41275
X4123Y42545
X2213Y43815
X4123Y45085
X2213Y46355
X4123Y47625
X4123Y32385
X4123Y50165
X2213Y51435
X4123Y52705
X6033Y10795
X7943Y12065
X6033Y13335
X2213Y48895
T6
X29972Y19685
X26035Y18415
X23495Y18415
X48260Y45720
X41148Y23495
X36830Y21590
X33401Y20701
M30