G04 EAGLE Gerber RS-274X export*
G75*
%MOMM*%
%FSLAX34Y34*%
%LPD*%
%IN*%
%IPPOS*%
%AMOC8*
5,1,8,0,0,1.08239X$1,22.5*%
G01*
%ADD10C,0.254000*%


D10*
X0Y0D02*
X647700Y0D01*
X647700Y635000D01*
X0Y635000D01*
X0Y0D01*
X622509Y429300D02*
X621530Y429377D01*
X620560Y429531D01*
X619604Y429760D01*
X618670Y430064D01*
X617763Y430439D01*
X616888Y430885D01*
X616050Y431399D01*
X615255Y431976D01*
X614508Y432614D01*
X613814Y433308D01*
X613176Y434055D01*
X612599Y434850D01*
X612085Y435688D01*
X611639Y436563D01*
X611264Y437470D01*
X610960Y438404D01*
X610731Y439360D01*
X610577Y440330D01*
X610500Y441309D01*
X610500Y442291D01*
X610577Y443270D01*
X610731Y444241D01*
X610960Y445196D01*
X611264Y446130D01*
X611639Y447037D01*
X612085Y447912D01*
X612599Y448750D01*
X613176Y449545D01*
X613814Y450292D01*
X614508Y450986D01*
X615255Y451624D01*
X616050Y452201D01*
X616888Y452715D01*
X617763Y453161D01*
X618670Y453536D01*
X619604Y453840D01*
X620560Y454069D01*
X621530Y454223D01*
X622509Y454300D01*
X623491Y454300D01*
X624470Y454223D01*
X625441Y454069D01*
X626396Y453840D01*
X627330Y453536D01*
X628237Y453161D01*
X629112Y452715D01*
X629950Y452201D01*
X630745Y451624D01*
X631492Y450986D01*
X632186Y450292D01*
X632824Y449545D01*
X633401Y448750D01*
X633915Y447912D01*
X634361Y447037D01*
X634736Y446130D01*
X635040Y445196D01*
X635269Y444241D01*
X635423Y443270D01*
X635500Y442291D01*
X635500Y441309D01*
X635423Y440330D01*
X635269Y439360D01*
X635040Y438404D01*
X634736Y437470D01*
X634361Y436563D01*
X633915Y435688D01*
X633401Y434850D01*
X632824Y434055D01*
X632186Y433308D01*
X631492Y432614D01*
X630745Y431976D01*
X629950Y431399D01*
X629112Y430885D01*
X628237Y430439D01*
X627330Y430064D01*
X626396Y429760D01*
X625441Y429531D01*
X624470Y429377D01*
X623491Y429300D01*
X622509Y429300D01*
X392509Y429300D02*
X391530Y429377D01*
X390560Y429531D01*
X389604Y429760D01*
X388670Y430064D01*
X387763Y430439D01*
X386888Y430885D01*
X386050Y431399D01*
X385255Y431976D01*
X384508Y432614D01*
X383814Y433308D01*
X383176Y434055D01*
X382599Y434850D01*
X382085Y435688D01*
X381639Y436563D01*
X381264Y437470D01*
X380960Y438404D01*
X380731Y439360D01*
X380577Y440330D01*
X380500Y441309D01*
X380500Y442291D01*
X380577Y443270D01*
X380731Y444241D01*
X380960Y445196D01*
X381264Y446130D01*
X381639Y447037D01*
X382085Y447912D01*
X382599Y448750D01*
X383176Y449545D01*
X383814Y450292D01*
X384508Y450986D01*
X385255Y451624D01*
X386050Y452201D01*
X386888Y452715D01*
X387763Y453161D01*
X388670Y453536D01*
X389604Y453840D01*
X390560Y454069D01*
X391530Y454223D01*
X392509Y454300D01*
X393491Y454300D01*
X394470Y454223D01*
X395441Y454069D01*
X396396Y453840D01*
X397330Y453536D01*
X398237Y453161D01*
X399112Y452715D01*
X399950Y452201D01*
X400745Y451624D01*
X401492Y450986D01*
X402186Y450292D01*
X402824Y449545D01*
X403401Y448750D01*
X403915Y447912D01*
X404361Y447037D01*
X404736Y446130D01*
X405040Y445196D01*
X405269Y444241D01*
X405423Y443270D01*
X405500Y442291D01*
X405500Y441309D01*
X405423Y440330D01*
X405269Y439360D01*
X405040Y438404D01*
X404736Y437470D01*
X404361Y436563D01*
X403915Y435688D01*
X403401Y434850D01*
X402824Y434055D01*
X402186Y433308D01*
X401492Y432614D01*
X400745Y431976D01*
X399950Y431399D01*
X399112Y430885D01*
X398237Y430439D01*
X397330Y430064D01*
X396396Y429760D01*
X395441Y429531D01*
X394470Y429377D01*
X393491Y429300D01*
X392509Y429300D01*
X622509Y19300D02*
X621530Y19377D01*
X620560Y19531D01*
X619604Y19760D01*
X618670Y20064D01*
X617763Y20439D01*
X616888Y20885D01*
X616050Y21399D01*
X615255Y21976D01*
X614508Y22614D01*
X613814Y23308D01*
X613176Y24055D01*
X612599Y24850D01*
X612085Y25688D01*
X611639Y26563D01*
X611264Y27470D01*
X610960Y28404D01*
X610731Y29360D01*
X610577Y30330D01*
X610500Y31309D01*
X610500Y32291D01*
X610577Y33270D01*
X610731Y34241D01*
X610960Y35196D01*
X611264Y36130D01*
X611639Y37037D01*
X612085Y37912D01*
X612599Y38750D01*
X613176Y39545D01*
X613814Y40292D01*
X614508Y40986D01*
X615255Y41624D01*
X616050Y42201D01*
X616888Y42715D01*
X617763Y43161D01*
X618670Y43536D01*
X619604Y43840D01*
X620560Y44069D01*
X621530Y44223D01*
X622509Y44300D01*
X623491Y44300D01*
X624470Y44223D01*
X625441Y44069D01*
X626396Y43840D01*
X627330Y43536D01*
X628237Y43161D01*
X629112Y42715D01*
X629950Y42201D01*
X630745Y41624D01*
X631492Y40986D01*
X632186Y40292D01*
X632824Y39545D01*
X633401Y38750D01*
X633915Y37912D01*
X634361Y37037D01*
X634736Y36130D01*
X635040Y35196D01*
X635269Y34241D01*
X635423Y33270D01*
X635500Y32291D01*
X635500Y31309D01*
X635423Y30330D01*
X635269Y29360D01*
X635040Y28404D01*
X634736Y27470D01*
X634361Y26563D01*
X633915Y25688D01*
X633401Y24850D01*
X632824Y24055D01*
X632186Y23308D01*
X631492Y22614D01*
X630745Y21976D01*
X629950Y21399D01*
X629112Y20885D01*
X628237Y20439D01*
X627330Y20064D01*
X626396Y19760D01*
X625441Y19531D01*
X624470Y19377D01*
X623491Y19300D01*
X622509Y19300D01*
X392509Y19300D02*
X391530Y19377D01*
X390560Y19531D01*
X389604Y19760D01*
X388670Y20064D01*
X387763Y20439D01*
X386888Y20885D01*
X386050Y21399D01*
X385255Y21976D01*
X384508Y22614D01*
X383814Y23308D01*
X383176Y24055D01*
X382599Y24850D01*
X382085Y25688D01*
X381639Y26563D01*
X381264Y27470D01*
X380960Y28404D01*
X380731Y29360D01*
X380577Y30330D01*
X380500Y31309D01*
X380500Y32291D01*
X380577Y33270D01*
X380731Y34241D01*
X380960Y35196D01*
X381264Y36130D01*
X381639Y37037D01*
X382085Y37912D01*
X382599Y38750D01*
X383176Y39545D01*
X383814Y40292D01*
X384508Y40986D01*
X385255Y41624D01*
X386050Y42201D01*
X386888Y42715D01*
X387763Y43161D01*
X388670Y43536D01*
X389604Y43840D01*
X390560Y44069D01*
X391530Y44223D01*
X392509Y44300D01*
X393491Y44300D01*
X394470Y44223D01*
X395441Y44069D01*
X396396Y43840D01*
X397330Y43536D01*
X398237Y43161D01*
X399112Y42715D01*
X399950Y42201D01*
X400745Y41624D01*
X401492Y40986D01*
X402186Y40292D01*
X402824Y39545D01*
X403401Y38750D01*
X403915Y37912D01*
X404361Y37037D01*
X404736Y36130D01*
X405040Y35196D01*
X405269Y34241D01*
X405423Y33270D01*
X405500Y32291D01*
X405500Y31309D01*
X405423Y30330D01*
X405269Y29360D01*
X405040Y28404D01*
X404736Y27470D01*
X404361Y26563D01*
X403915Y25688D01*
X403401Y24850D01*
X402824Y24055D01*
X402186Y23308D01*
X401492Y22614D01*
X400745Y21976D01*
X399950Y21399D01*
X399112Y20885D01*
X398237Y20439D01*
X397330Y20064D01*
X396396Y19760D01*
X395441Y19531D01*
X394470Y19377D01*
X393491Y19300D01*
X392509Y19300D01*
X50300Y593050D02*
X49303Y593121D01*
X48313Y593264D01*
X47336Y593476D01*
X46376Y593758D01*
X45439Y594107D01*
X44529Y594523D01*
X43652Y595002D01*
X42810Y595543D01*
X42010Y596142D01*
X41254Y596797D01*
X40547Y597504D01*
X39892Y598260D01*
X39293Y599060D01*
X38752Y599902D01*
X38273Y600779D01*
X37857Y601689D01*
X37508Y602626D01*
X37226Y603586D01*
X37014Y604563D01*
X36871Y605553D01*
X36800Y606550D01*
X36800Y607550D01*
X36871Y608548D01*
X37014Y609537D01*
X37226Y610515D01*
X37508Y611474D01*
X37857Y612411D01*
X38273Y613321D01*
X38752Y614198D01*
X39293Y615040D01*
X39892Y615840D01*
X40547Y616596D01*
X41254Y617303D01*
X42010Y617958D01*
X42810Y618557D01*
X43652Y619098D01*
X44529Y619577D01*
X45439Y619993D01*
X46376Y620342D01*
X47336Y620624D01*
X48313Y620836D01*
X49303Y620979D01*
X50300Y621050D01*
X51300Y621050D01*
X52298Y620979D01*
X53287Y620836D01*
X54265Y620624D01*
X55224Y620342D01*
X56161Y619993D01*
X57071Y619577D01*
X57948Y619098D01*
X58790Y618557D01*
X59590Y617958D01*
X60346Y617303D01*
X61053Y616596D01*
X61708Y615840D01*
X62307Y615040D01*
X62848Y614198D01*
X63327Y613321D01*
X63743Y612411D01*
X64092Y611474D01*
X64374Y610515D01*
X64586Y609537D01*
X64729Y608548D01*
X64800Y607550D01*
X64800Y606550D01*
X64729Y605553D01*
X64586Y604563D01*
X64374Y603586D01*
X64092Y602626D01*
X63743Y601689D01*
X63327Y600779D01*
X62848Y599902D01*
X62307Y599060D01*
X61708Y598260D01*
X61053Y597504D01*
X60346Y596797D01*
X59590Y596142D01*
X58790Y595543D01*
X57948Y595002D01*
X57071Y594523D01*
X56161Y594107D01*
X55224Y593758D01*
X54265Y593476D01*
X53287Y593264D01*
X52298Y593121D01*
X51300Y593050D01*
X50300Y593050D01*
X50300Y13950D02*
X49303Y14021D01*
X48313Y14164D01*
X47336Y14376D01*
X46376Y14658D01*
X45439Y15007D01*
X44529Y15423D01*
X43652Y15902D01*
X42810Y16443D01*
X42010Y17042D01*
X41254Y17697D01*
X40547Y18404D01*
X39892Y19160D01*
X39293Y19960D01*
X38752Y20802D01*
X38273Y21679D01*
X37857Y22589D01*
X37508Y23526D01*
X37226Y24486D01*
X37014Y25463D01*
X36871Y26453D01*
X36800Y27450D01*
X36800Y28450D01*
X36871Y29448D01*
X37014Y30437D01*
X37226Y31415D01*
X37508Y32374D01*
X37857Y33311D01*
X38273Y34221D01*
X38752Y35098D01*
X39293Y35940D01*
X39892Y36740D01*
X40547Y37496D01*
X41254Y38203D01*
X42010Y38858D01*
X42810Y39457D01*
X43652Y39998D01*
X44529Y40477D01*
X45439Y40893D01*
X46376Y41242D01*
X47336Y41524D01*
X48313Y41736D01*
X49303Y41879D01*
X50300Y41950D01*
X51300Y41950D01*
X52298Y41879D01*
X53287Y41736D01*
X54265Y41524D01*
X55224Y41242D01*
X56161Y40893D01*
X57071Y40477D01*
X57948Y39998D01*
X58790Y39457D01*
X59590Y38858D01*
X60346Y38203D01*
X61053Y37496D01*
X61708Y36740D01*
X62307Y35940D01*
X62848Y35098D01*
X63327Y34221D01*
X63743Y33311D01*
X64092Y32374D01*
X64374Y31415D01*
X64586Y30437D01*
X64729Y29448D01*
X64800Y28450D01*
X64800Y27450D01*
X64729Y26453D01*
X64586Y25463D01*
X64374Y24486D01*
X64092Y23526D01*
X63743Y22589D01*
X63327Y21679D01*
X62848Y20802D01*
X62307Y19960D01*
X61708Y19160D01*
X61053Y18404D01*
X60346Y17697D01*
X59590Y17042D01*
X58790Y16443D01*
X57948Y15902D01*
X57071Y15423D01*
X56161Y15007D01*
X55224Y14658D01*
X54265Y14376D01*
X53287Y14164D01*
X52298Y14021D01*
X51300Y13950D01*
X50300Y13950D01*
M02*
