G04 EAGLE Gerber RS-274X export*
G75*
%MOMM*%
%FSLAX34Y34*%
%LPD*%
%INSilkscreen Top*%
%IPPOS*%
%AMOC8*
5,1,8,0,0,1.08239X$1,22.5*%
G01*
%ADD10C,0.152400*%
%ADD11C,0.406400*%
%ADD12C,0.101600*%
%ADD13C,0.177800*%
%ADD14C,0.127000*%
%ADD15C,0.203200*%


D10*
X139700Y613410D02*
X165100Y613410D01*
X165100Y554990D01*
X139700Y554990D01*
X139700Y613410D01*
X119380Y600710D02*
X119380Y567690D01*
X134620Y567690D01*
X134620Y600710D01*
X119380Y600710D01*
X266700Y613410D02*
X292100Y613410D01*
X292100Y554990D01*
X266700Y554990D01*
X266700Y613410D01*
X300651Y568424D02*
X311489Y568424D01*
X306070Y573842D02*
X306070Y563005D01*
X132419Y556994D02*
X121581Y556994D01*
X127000Y562412D02*
X127000Y551575D01*
X144532Y550418D02*
X144532Y534162D01*
X142726Y534162D02*
X146339Y534162D01*
X146339Y550418D02*
X142726Y550418D01*
X153043Y550418D02*
X153043Y534162D01*
X162074Y534162D02*
X153043Y550418D01*
X162074Y550418D02*
X162074Y534162D01*
X259253Y538678D02*
X259253Y545902D01*
X259255Y546035D01*
X259261Y546167D01*
X259271Y546299D01*
X259284Y546431D01*
X259302Y546563D01*
X259323Y546693D01*
X259348Y546824D01*
X259377Y546953D01*
X259410Y547081D01*
X259446Y547209D01*
X259486Y547335D01*
X259530Y547460D01*
X259578Y547584D01*
X259629Y547706D01*
X259684Y547827D01*
X259742Y547946D01*
X259804Y548064D01*
X259869Y548179D01*
X259938Y548293D01*
X260009Y548404D01*
X260085Y548513D01*
X260163Y548620D01*
X260244Y548725D01*
X260329Y548827D01*
X260416Y548927D01*
X260506Y549024D01*
X260599Y549119D01*
X260695Y549210D01*
X260793Y549299D01*
X260894Y549385D01*
X260998Y549468D01*
X261104Y549548D01*
X261212Y549624D01*
X261322Y549698D01*
X261435Y549768D01*
X261549Y549835D01*
X261666Y549898D01*
X261784Y549958D01*
X261904Y550015D01*
X262026Y550068D01*
X262149Y550117D01*
X262273Y550163D01*
X262399Y550205D01*
X262526Y550243D01*
X262654Y550278D01*
X262783Y550309D01*
X262912Y550336D01*
X263043Y550359D01*
X263174Y550379D01*
X263306Y550394D01*
X263438Y550406D01*
X263570Y550414D01*
X263703Y550418D01*
X263835Y550418D01*
X263968Y550414D01*
X264100Y550406D01*
X264232Y550394D01*
X264364Y550379D01*
X264495Y550359D01*
X264626Y550336D01*
X264755Y550309D01*
X264884Y550278D01*
X265012Y550243D01*
X265139Y550205D01*
X265265Y550163D01*
X265389Y550117D01*
X265512Y550068D01*
X265634Y550015D01*
X265754Y549958D01*
X265872Y549898D01*
X265989Y549835D01*
X266103Y549768D01*
X266216Y549698D01*
X266326Y549624D01*
X266434Y549548D01*
X266540Y549468D01*
X266644Y549385D01*
X266745Y549299D01*
X266843Y549210D01*
X266939Y549119D01*
X267032Y549024D01*
X267122Y548927D01*
X267209Y548827D01*
X267294Y548725D01*
X267375Y548620D01*
X267453Y548513D01*
X267529Y548404D01*
X267600Y548293D01*
X267669Y548179D01*
X267734Y548064D01*
X267796Y547946D01*
X267854Y547827D01*
X267909Y547706D01*
X267960Y547584D01*
X268008Y547460D01*
X268052Y547335D01*
X268092Y547209D01*
X268128Y547081D01*
X268161Y546953D01*
X268190Y546824D01*
X268215Y546693D01*
X268236Y546563D01*
X268254Y546431D01*
X268267Y546299D01*
X268277Y546167D01*
X268283Y546035D01*
X268285Y545902D01*
X268284Y545902D02*
X268284Y538678D01*
X268285Y538678D02*
X268283Y538545D01*
X268277Y538413D01*
X268267Y538281D01*
X268254Y538149D01*
X268236Y538017D01*
X268215Y537887D01*
X268190Y537756D01*
X268161Y537627D01*
X268128Y537499D01*
X268092Y537371D01*
X268052Y537245D01*
X268008Y537120D01*
X267960Y536996D01*
X267909Y536874D01*
X267854Y536753D01*
X267796Y536634D01*
X267734Y536516D01*
X267669Y536401D01*
X267600Y536287D01*
X267529Y536176D01*
X267453Y536067D01*
X267375Y535960D01*
X267294Y535855D01*
X267209Y535753D01*
X267122Y535653D01*
X267032Y535556D01*
X266939Y535461D01*
X266843Y535370D01*
X266745Y535281D01*
X266644Y535195D01*
X266540Y535112D01*
X266434Y535032D01*
X266326Y534956D01*
X266216Y534882D01*
X266103Y534812D01*
X265989Y534745D01*
X265872Y534682D01*
X265754Y534622D01*
X265634Y534565D01*
X265512Y534512D01*
X265389Y534463D01*
X265265Y534417D01*
X265139Y534375D01*
X265012Y534337D01*
X264884Y534302D01*
X264755Y534271D01*
X264626Y534244D01*
X264495Y534221D01*
X264364Y534201D01*
X264232Y534186D01*
X264100Y534174D01*
X263968Y534166D01*
X263835Y534162D01*
X263703Y534162D01*
X263570Y534166D01*
X263438Y534174D01*
X263306Y534186D01*
X263174Y534201D01*
X263043Y534221D01*
X262912Y534244D01*
X262783Y534271D01*
X262654Y534302D01*
X262526Y534337D01*
X262399Y534375D01*
X262273Y534417D01*
X262149Y534463D01*
X262026Y534512D01*
X261904Y534565D01*
X261784Y534622D01*
X261666Y534682D01*
X261549Y534745D01*
X261435Y534812D01*
X261322Y534882D01*
X261212Y534956D01*
X261104Y535032D01*
X260998Y535112D01*
X260894Y535195D01*
X260793Y535281D01*
X260695Y535370D01*
X260599Y535461D01*
X260506Y535556D01*
X260416Y535653D01*
X260329Y535753D01*
X260244Y535855D01*
X260163Y535960D01*
X260085Y536067D01*
X260009Y536176D01*
X259938Y536287D01*
X259869Y536401D01*
X259804Y536516D01*
X259742Y536634D01*
X259684Y536753D01*
X259629Y536874D01*
X259578Y536996D01*
X259530Y537120D01*
X259486Y537245D01*
X259446Y537371D01*
X259410Y537499D01*
X259377Y537627D01*
X259348Y537756D01*
X259323Y537887D01*
X259302Y538017D01*
X259284Y538149D01*
X259271Y538281D01*
X259261Y538413D01*
X259255Y538545D01*
X259253Y538678D01*
X275406Y538678D02*
X275406Y550418D01*
X275405Y538678D02*
X275407Y538545D01*
X275413Y538413D01*
X275423Y538281D01*
X275436Y538149D01*
X275454Y538017D01*
X275475Y537887D01*
X275500Y537756D01*
X275529Y537627D01*
X275562Y537499D01*
X275598Y537371D01*
X275638Y537245D01*
X275682Y537120D01*
X275730Y536996D01*
X275781Y536874D01*
X275836Y536753D01*
X275894Y536634D01*
X275956Y536516D01*
X276021Y536401D01*
X276090Y536287D01*
X276161Y536176D01*
X276237Y536067D01*
X276315Y535960D01*
X276396Y535855D01*
X276481Y535753D01*
X276568Y535653D01*
X276658Y535556D01*
X276751Y535461D01*
X276847Y535370D01*
X276945Y535281D01*
X277046Y535195D01*
X277150Y535112D01*
X277256Y535032D01*
X277364Y534956D01*
X277474Y534882D01*
X277587Y534812D01*
X277701Y534745D01*
X277818Y534682D01*
X277936Y534622D01*
X278056Y534565D01*
X278178Y534512D01*
X278301Y534463D01*
X278425Y534417D01*
X278551Y534375D01*
X278678Y534337D01*
X278806Y534302D01*
X278935Y534271D01*
X279064Y534244D01*
X279195Y534221D01*
X279326Y534201D01*
X279458Y534186D01*
X279590Y534174D01*
X279722Y534166D01*
X279855Y534162D01*
X279987Y534162D01*
X280120Y534166D01*
X280252Y534174D01*
X280384Y534186D01*
X280516Y534201D01*
X280647Y534221D01*
X280778Y534244D01*
X280907Y534271D01*
X281036Y534302D01*
X281164Y534337D01*
X281291Y534375D01*
X281417Y534417D01*
X281541Y534463D01*
X281664Y534512D01*
X281786Y534565D01*
X281906Y534622D01*
X282024Y534682D01*
X282141Y534745D01*
X282255Y534812D01*
X282368Y534882D01*
X282478Y534956D01*
X282586Y535032D01*
X282692Y535112D01*
X282796Y535195D01*
X282897Y535281D01*
X282995Y535370D01*
X283091Y535461D01*
X283184Y535556D01*
X283274Y535653D01*
X283361Y535753D01*
X283446Y535855D01*
X283527Y535960D01*
X283605Y536067D01*
X283681Y536176D01*
X283752Y536287D01*
X283821Y536401D01*
X283886Y536516D01*
X283948Y536634D01*
X284006Y536753D01*
X284061Y536874D01*
X284112Y536996D01*
X284160Y537120D01*
X284204Y537245D01*
X284244Y537371D01*
X284280Y537499D01*
X284313Y537627D01*
X284342Y537756D01*
X284367Y537887D01*
X284388Y538017D01*
X284406Y538149D01*
X284419Y538281D01*
X284429Y538413D01*
X284435Y538545D01*
X284437Y538678D01*
X284437Y550418D01*
X295031Y550418D02*
X295031Y534162D01*
X290516Y550418D02*
X299547Y550418D01*
X127339Y510004D02*
X116501Y510004D01*
X121920Y515422D02*
X121920Y504585D01*
X304461Y511274D02*
X315299Y511274D01*
X309880Y516692D02*
X309880Y505855D01*
X224028Y466062D02*
X207772Y466062D01*
X207772Y467868D02*
X207772Y464256D01*
X224028Y464256D02*
X224028Y467868D01*
X224028Y457551D02*
X207772Y457551D01*
X207772Y448520D02*
X224028Y457551D01*
X224028Y448520D02*
X207772Y448520D01*
X237688Y467868D02*
X244912Y467868D01*
X245045Y467866D01*
X245177Y467860D01*
X245309Y467850D01*
X245441Y467837D01*
X245573Y467819D01*
X245703Y467798D01*
X245834Y467773D01*
X245963Y467744D01*
X246091Y467711D01*
X246219Y467675D01*
X246345Y467635D01*
X246470Y467591D01*
X246594Y467543D01*
X246716Y467492D01*
X246837Y467437D01*
X246956Y467379D01*
X247074Y467317D01*
X247189Y467252D01*
X247303Y467183D01*
X247414Y467112D01*
X247523Y467036D01*
X247630Y466958D01*
X247735Y466877D01*
X247837Y466792D01*
X247937Y466705D01*
X248034Y466615D01*
X248129Y466522D01*
X248220Y466426D01*
X248309Y466328D01*
X248395Y466227D01*
X248478Y466123D01*
X248558Y466017D01*
X248634Y465909D01*
X248708Y465799D01*
X248778Y465686D01*
X248845Y465572D01*
X248908Y465455D01*
X248968Y465337D01*
X249025Y465217D01*
X249078Y465095D01*
X249127Y464972D01*
X249173Y464848D01*
X249215Y464722D01*
X249253Y464595D01*
X249288Y464467D01*
X249319Y464338D01*
X249346Y464209D01*
X249369Y464078D01*
X249389Y463947D01*
X249404Y463815D01*
X249416Y463683D01*
X249424Y463551D01*
X249428Y463418D01*
X249428Y463286D01*
X249424Y463153D01*
X249416Y463021D01*
X249404Y462889D01*
X249389Y462757D01*
X249369Y462626D01*
X249346Y462495D01*
X249319Y462366D01*
X249288Y462237D01*
X249253Y462109D01*
X249215Y461982D01*
X249173Y461856D01*
X249127Y461732D01*
X249078Y461609D01*
X249025Y461487D01*
X248968Y461367D01*
X248908Y461249D01*
X248845Y461132D01*
X248778Y461018D01*
X248708Y460905D01*
X248634Y460795D01*
X248558Y460687D01*
X248478Y460581D01*
X248395Y460477D01*
X248309Y460376D01*
X248220Y460278D01*
X248129Y460182D01*
X248034Y460089D01*
X247937Y459999D01*
X247837Y459912D01*
X247735Y459827D01*
X247630Y459746D01*
X247523Y459668D01*
X247414Y459592D01*
X247303Y459521D01*
X247189Y459452D01*
X247074Y459387D01*
X246956Y459325D01*
X246837Y459267D01*
X246716Y459212D01*
X246594Y459161D01*
X246470Y459113D01*
X246345Y459069D01*
X246219Y459029D01*
X246091Y458993D01*
X245963Y458960D01*
X245834Y458931D01*
X245703Y458906D01*
X245573Y458885D01*
X245441Y458867D01*
X245309Y458854D01*
X245177Y458844D01*
X245045Y458838D01*
X244912Y458836D01*
X244912Y458837D02*
X237688Y458837D01*
X237688Y458836D02*
X237555Y458838D01*
X237423Y458844D01*
X237291Y458854D01*
X237159Y458867D01*
X237027Y458885D01*
X236897Y458906D01*
X236766Y458931D01*
X236637Y458960D01*
X236509Y458993D01*
X236381Y459029D01*
X236255Y459069D01*
X236130Y459113D01*
X236006Y459161D01*
X235884Y459212D01*
X235763Y459267D01*
X235644Y459325D01*
X235526Y459387D01*
X235411Y459452D01*
X235297Y459521D01*
X235186Y459592D01*
X235077Y459668D01*
X234970Y459746D01*
X234865Y459827D01*
X234763Y459912D01*
X234663Y459999D01*
X234566Y460089D01*
X234471Y460182D01*
X234380Y460278D01*
X234291Y460376D01*
X234205Y460477D01*
X234122Y460581D01*
X234042Y460687D01*
X233966Y460795D01*
X233892Y460905D01*
X233822Y461018D01*
X233755Y461132D01*
X233692Y461249D01*
X233632Y461367D01*
X233575Y461487D01*
X233522Y461609D01*
X233473Y461732D01*
X233427Y461856D01*
X233385Y461982D01*
X233347Y462109D01*
X233312Y462237D01*
X233281Y462366D01*
X233254Y462495D01*
X233231Y462626D01*
X233211Y462757D01*
X233196Y462889D01*
X233184Y463021D01*
X233176Y463153D01*
X233172Y463286D01*
X233172Y463418D01*
X233176Y463551D01*
X233184Y463683D01*
X233196Y463815D01*
X233211Y463947D01*
X233231Y464078D01*
X233254Y464209D01*
X233281Y464338D01*
X233312Y464467D01*
X233347Y464595D01*
X233385Y464722D01*
X233427Y464848D01*
X233473Y464972D01*
X233522Y465095D01*
X233575Y465217D01*
X233632Y465337D01*
X233692Y465455D01*
X233755Y465572D01*
X233822Y465686D01*
X233892Y465799D01*
X233966Y465909D01*
X234042Y466017D01*
X234122Y466123D01*
X234205Y466227D01*
X234291Y466328D01*
X234380Y466426D01*
X234471Y466522D01*
X234566Y466615D01*
X234663Y466705D01*
X234763Y466792D01*
X234865Y466877D01*
X234970Y466958D01*
X235077Y467036D01*
X235186Y467112D01*
X235297Y467183D01*
X235411Y467252D01*
X235526Y467317D01*
X235644Y467379D01*
X235763Y467437D01*
X235884Y467492D01*
X236006Y467543D01*
X236130Y467591D01*
X236255Y467635D01*
X236381Y467675D01*
X236509Y467711D01*
X236637Y467744D01*
X236766Y467773D01*
X236897Y467798D01*
X237027Y467819D01*
X237159Y467837D01*
X237291Y467850D01*
X237423Y467860D01*
X237555Y467866D01*
X237688Y467868D01*
X237688Y451716D02*
X249428Y451716D01*
X237688Y451716D02*
X237555Y451714D01*
X237423Y451708D01*
X237291Y451698D01*
X237159Y451685D01*
X237027Y451667D01*
X236897Y451646D01*
X236766Y451621D01*
X236637Y451592D01*
X236509Y451559D01*
X236381Y451523D01*
X236255Y451483D01*
X236130Y451439D01*
X236006Y451391D01*
X235884Y451340D01*
X235763Y451285D01*
X235644Y451227D01*
X235526Y451165D01*
X235411Y451100D01*
X235297Y451031D01*
X235186Y450960D01*
X235077Y450884D01*
X234970Y450806D01*
X234865Y450725D01*
X234763Y450640D01*
X234663Y450553D01*
X234566Y450463D01*
X234471Y450370D01*
X234380Y450274D01*
X234291Y450176D01*
X234205Y450075D01*
X234122Y449971D01*
X234042Y449865D01*
X233966Y449757D01*
X233892Y449647D01*
X233822Y449534D01*
X233755Y449420D01*
X233692Y449303D01*
X233632Y449185D01*
X233575Y449065D01*
X233522Y448943D01*
X233473Y448820D01*
X233427Y448696D01*
X233385Y448570D01*
X233347Y448443D01*
X233312Y448315D01*
X233281Y448186D01*
X233254Y448057D01*
X233231Y447926D01*
X233211Y447795D01*
X233196Y447663D01*
X233184Y447531D01*
X233176Y447399D01*
X233172Y447266D01*
X233172Y447134D01*
X233176Y447001D01*
X233184Y446869D01*
X233196Y446737D01*
X233211Y446605D01*
X233231Y446474D01*
X233254Y446343D01*
X233281Y446214D01*
X233312Y446085D01*
X233347Y445957D01*
X233385Y445830D01*
X233427Y445704D01*
X233473Y445580D01*
X233522Y445457D01*
X233575Y445335D01*
X233632Y445215D01*
X233692Y445097D01*
X233755Y444980D01*
X233822Y444866D01*
X233892Y444753D01*
X233966Y444643D01*
X234042Y444535D01*
X234122Y444429D01*
X234205Y444325D01*
X234291Y444224D01*
X234380Y444126D01*
X234471Y444030D01*
X234566Y443937D01*
X234663Y443847D01*
X234763Y443760D01*
X234865Y443675D01*
X234970Y443594D01*
X235077Y443516D01*
X235186Y443440D01*
X235297Y443369D01*
X235411Y443300D01*
X235526Y443235D01*
X235644Y443173D01*
X235763Y443115D01*
X235884Y443060D01*
X236006Y443009D01*
X236130Y442961D01*
X236255Y442917D01*
X236381Y442877D01*
X236509Y442841D01*
X236637Y442808D01*
X236766Y442779D01*
X236897Y442754D01*
X237027Y442733D01*
X237159Y442715D01*
X237291Y442702D01*
X237423Y442692D01*
X237555Y442686D01*
X237688Y442684D01*
X237688Y442685D02*
X249428Y442685D01*
X249428Y432090D02*
X233172Y432090D01*
X249428Y436606D02*
X249428Y427574D01*
X410969Y593852D02*
X410969Y610108D01*
X410969Y602883D02*
X420000Y602883D01*
X420000Y610108D02*
X420000Y593852D01*
X427121Y598368D02*
X427121Y605592D01*
X427123Y605725D01*
X427129Y605857D01*
X427139Y605989D01*
X427152Y606121D01*
X427170Y606253D01*
X427191Y606383D01*
X427216Y606514D01*
X427245Y606643D01*
X427278Y606771D01*
X427314Y606899D01*
X427354Y607025D01*
X427398Y607150D01*
X427446Y607274D01*
X427497Y607396D01*
X427552Y607517D01*
X427610Y607636D01*
X427672Y607754D01*
X427737Y607869D01*
X427806Y607983D01*
X427877Y608094D01*
X427953Y608203D01*
X428031Y608310D01*
X428112Y608415D01*
X428197Y608517D01*
X428284Y608617D01*
X428374Y608714D01*
X428467Y608809D01*
X428563Y608900D01*
X428661Y608989D01*
X428762Y609075D01*
X428866Y609158D01*
X428972Y609238D01*
X429080Y609314D01*
X429190Y609388D01*
X429303Y609458D01*
X429417Y609525D01*
X429534Y609588D01*
X429652Y609648D01*
X429772Y609705D01*
X429894Y609758D01*
X430017Y609807D01*
X430141Y609853D01*
X430267Y609895D01*
X430394Y609933D01*
X430522Y609968D01*
X430651Y609999D01*
X430780Y610026D01*
X430911Y610049D01*
X431042Y610069D01*
X431174Y610084D01*
X431306Y610096D01*
X431438Y610104D01*
X431571Y610108D01*
X431703Y610108D01*
X431836Y610104D01*
X431968Y610096D01*
X432100Y610084D01*
X432232Y610069D01*
X432363Y610049D01*
X432494Y610026D01*
X432623Y609999D01*
X432752Y609968D01*
X432880Y609933D01*
X433007Y609895D01*
X433133Y609853D01*
X433257Y609807D01*
X433380Y609758D01*
X433502Y609705D01*
X433622Y609648D01*
X433740Y609588D01*
X433857Y609525D01*
X433971Y609458D01*
X434084Y609388D01*
X434194Y609314D01*
X434302Y609238D01*
X434408Y609158D01*
X434512Y609075D01*
X434613Y608989D01*
X434711Y608900D01*
X434807Y608809D01*
X434900Y608714D01*
X434990Y608617D01*
X435077Y608517D01*
X435162Y608415D01*
X435243Y608310D01*
X435321Y608203D01*
X435397Y608094D01*
X435468Y607983D01*
X435537Y607869D01*
X435602Y607754D01*
X435664Y607636D01*
X435722Y607517D01*
X435777Y607396D01*
X435828Y607274D01*
X435876Y607150D01*
X435920Y607025D01*
X435960Y606899D01*
X435996Y606771D01*
X436029Y606643D01*
X436058Y606514D01*
X436083Y606383D01*
X436104Y606253D01*
X436122Y606121D01*
X436135Y605989D01*
X436145Y605857D01*
X436151Y605725D01*
X436153Y605592D01*
X436153Y598368D01*
X436151Y598235D01*
X436145Y598103D01*
X436135Y597971D01*
X436122Y597839D01*
X436104Y597707D01*
X436083Y597577D01*
X436058Y597446D01*
X436029Y597317D01*
X435996Y597189D01*
X435960Y597061D01*
X435920Y596935D01*
X435876Y596810D01*
X435828Y596686D01*
X435777Y596564D01*
X435722Y596443D01*
X435664Y596324D01*
X435602Y596206D01*
X435537Y596091D01*
X435468Y595977D01*
X435397Y595866D01*
X435321Y595757D01*
X435243Y595650D01*
X435162Y595545D01*
X435077Y595443D01*
X434990Y595343D01*
X434900Y595246D01*
X434807Y595151D01*
X434711Y595060D01*
X434613Y594971D01*
X434512Y594885D01*
X434408Y594802D01*
X434302Y594722D01*
X434194Y594646D01*
X434084Y594572D01*
X433971Y594502D01*
X433857Y594435D01*
X433740Y594372D01*
X433622Y594312D01*
X433502Y594255D01*
X433380Y594202D01*
X433257Y594153D01*
X433133Y594107D01*
X433007Y594065D01*
X432880Y594027D01*
X432752Y593992D01*
X432623Y593961D01*
X432494Y593934D01*
X432363Y593911D01*
X432232Y593891D01*
X432100Y593876D01*
X431968Y593864D01*
X431836Y593856D01*
X431703Y593852D01*
X431571Y593852D01*
X431438Y593856D01*
X431306Y593864D01*
X431174Y593876D01*
X431042Y593891D01*
X430911Y593911D01*
X430780Y593934D01*
X430651Y593961D01*
X430522Y593992D01*
X430394Y594027D01*
X430267Y594065D01*
X430141Y594107D01*
X430017Y594153D01*
X429894Y594202D01*
X429772Y594255D01*
X429652Y594312D01*
X429534Y594372D01*
X429417Y594435D01*
X429303Y594502D01*
X429190Y594572D01*
X429080Y594646D01*
X428972Y594722D01*
X428866Y594802D01*
X428762Y594885D01*
X428661Y594971D01*
X428563Y595060D01*
X428467Y595151D01*
X428374Y595246D01*
X428284Y595343D01*
X428197Y595443D01*
X428112Y595545D01*
X428031Y595650D01*
X427953Y595757D01*
X427877Y595866D01*
X427806Y595977D01*
X427737Y596091D01*
X427672Y596206D01*
X427610Y596324D01*
X427552Y596443D01*
X427497Y596564D01*
X427446Y596686D01*
X427398Y596810D01*
X427354Y596935D01*
X427314Y597061D01*
X427278Y597189D01*
X427245Y597317D01*
X427216Y597446D01*
X427191Y597577D01*
X427170Y597707D01*
X427152Y597839D01*
X427139Y597971D01*
X427129Y598103D01*
X427123Y598235D01*
X427121Y598368D01*
X447650Y593852D02*
X447768Y593854D01*
X447886Y593860D01*
X448004Y593869D01*
X448121Y593883D01*
X448238Y593900D01*
X448355Y593921D01*
X448470Y593946D01*
X448585Y593975D01*
X448699Y594008D01*
X448811Y594044D01*
X448922Y594084D01*
X449032Y594127D01*
X449141Y594174D01*
X449248Y594224D01*
X449353Y594279D01*
X449456Y594336D01*
X449557Y594397D01*
X449657Y594461D01*
X449754Y594528D01*
X449849Y594598D01*
X449941Y594672D01*
X450032Y594748D01*
X450119Y594828D01*
X450204Y594910D01*
X450286Y594995D01*
X450366Y595082D01*
X450442Y595173D01*
X450516Y595265D01*
X450586Y595360D01*
X450653Y595457D01*
X450717Y595557D01*
X450778Y595658D01*
X450835Y595761D01*
X450890Y595866D01*
X450940Y595973D01*
X450987Y596082D01*
X451030Y596192D01*
X451070Y596303D01*
X451106Y596415D01*
X451139Y596529D01*
X451168Y596644D01*
X451193Y596759D01*
X451214Y596876D01*
X451231Y596993D01*
X451245Y597110D01*
X451254Y597228D01*
X451260Y597346D01*
X451262Y597464D01*
X447650Y593852D02*
X447467Y593854D01*
X447285Y593861D01*
X447103Y593872D01*
X446921Y593887D01*
X446739Y593907D01*
X446558Y593930D01*
X446378Y593959D01*
X446198Y593991D01*
X446019Y594028D01*
X445842Y594069D01*
X445665Y594115D01*
X445489Y594164D01*
X445315Y594218D01*
X445141Y594276D01*
X444970Y594338D01*
X444800Y594404D01*
X444631Y594475D01*
X444464Y594549D01*
X444299Y594627D01*
X444136Y594709D01*
X443975Y594795D01*
X443816Y594885D01*
X443659Y594979D01*
X443505Y595076D01*
X443353Y595177D01*
X443203Y595282D01*
X443056Y595390D01*
X442912Y595501D01*
X442770Y595616D01*
X442631Y595735D01*
X442495Y595857D01*
X442362Y595982D01*
X442232Y596110D01*
X442684Y606496D02*
X442686Y606614D01*
X442692Y606732D01*
X442701Y606850D01*
X442715Y606967D01*
X442732Y607084D01*
X442753Y607201D01*
X442778Y607316D01*
X442807Y607431D01*
X442840Y607545D01*
X442876Y607657D01*
X442916Y607768D01*
X442959Y607878D01*
X443006Y607987D01*
X443056Y608094D01*
X443111Y608199D01*
X443168Y608302D01*
X443229Y608403D01*
X443293Y608503D01*
X443360Y608600D01*
X443430Y608695D01*
X443504Y608787D01*
X443580Y608878D01*
X443660Y608965D01*
X443742Y609050D01*
X443827Y609132D01*
X443914Y609212D01*
X444005Y609288D01*
X444097Y609362D01*
X444192Y609432D01*
X444289Y609499D01*
X444389Y609563D01*
X444490Y609624D01*
X444593Y609682D01*
X444698Y609736D01*
X444805Y609786D01*
X444914Y609833D01*
X445024Y609877D01*
X445135Y609916D01*
X445248Y609952D01*
X445361Y609985D01*
X445476Y610014D01*
X445591Y610039D01*
X445708Y610060D01*
X445825Y610077D01*
X445942Y610091D01*
X446060Y610100D01*
X446178Y610106D01*
X446296Y610108D01*
X446457Y610106D01*
X446619Y610100D01*
X446780Y610091D01*
X446941Y610077D01*
X447101Y610060D01*
X447261Y610039D01*
X447421Y610014D01*
X447580Y609985D01*
X447738Y609953D01*
X447895Y609917D01*
X448051Y609877D01*
X448207Y609833D01*
X448361Y609785D01*
X448514Y609734D01*
X448666Y609680D01*
X448817Y609621D01*
X448966Y609560D01*
X449113Y609494D01*
X449259Y609425D01*
X449404Y609353D01*
X449546Y609277D01*
X449687Y609198D01*
X449826Y609116D01*
X449962Y609030D01*
X450097Y608941D01*
X450230Y608849D01*
X450360Y608753D01*
X444489Y603335D02*
X444388Y603397D01*
X444288Y603462D01*
X444191Y603531D01*
X444096Y603603D01*
X444003Y603677D01*
X443913Y603755D01*
X443825Y603836D01*
X443740Y603919D01*
X443658Y604005D01*
X443579Y604094D01*
X443502Y604185D01*
X443429Y604279D01*
X443358Y604375D01*
X443291Y604473D01*
X443227Y604573D01*
X443166Y604676D01*
X443109Y604780D01*
X443055Y604886D01*
X443005Y604994D01*
X442958Y605103D01*
X442914Y605214D01*
X442874Y605326D01*
X442838Y605440D01*
X442806Y605554D01*
X442777Y605670D01*
X442752Y605786D01*
X442731Y605903D01*
X442714Y606021D01*
X442700Y606139D01*
X442691Y606258D01*
X442685Y606377D01*
X442683Y606496D01*
X449457Y600625D02*
X449558Y600563D01*
X449658Y600498D01*
X449755Y600429D01*
X449850Y600357D01*
X449943Y600283D01*
X450033Y600205D01*
X450121Y600124D01*
X450206Y600041D01*
X450288Y599955D01*
X450367Y599866D01*
X450444Y599775D01*
X450517Y599681D01*
X450588Y599585D01*
X450655Y599487D01*
X450719Y599387D01*
X450780Y599284D01*
X450837Y599180D01*
X450891Y599074D01*
X450941Y598966D01*
X450988Y598857D01*
X451032Y598746D01*
X451072Y598634D01*
X451108Y598520D01*
X451140Y598406D01*
X451169Y598290D01*
X451194Y598174D01*
X451215Y598057D01*
X451232Y597939D01*
X451246Y597821D01*
X451255Y597702D01*
X451261Y597583D01*
X451263Y597464D01*
X449457Y600625D02*
X444489Y603335D01*
X460815Y610108D02*
X460815Y593852D01*
X456300Y610108D02*
X465331Y610108D01*
X504535Y610108D02*
X504535Y593852D01*
X504535Y610108D02*
X509050Y610108D01*
X509181Y610106D01*
X509313Y610100D01*
X509444Y610091D01*
X509574Y610077D01*
X509705Y610060D01*
X509834Y610039D01*
X509963Y610015D01*
X510091Y609986D01*
X510219Y609954D01*
X510345Y609918D01*
X510470Y609879D01*
X510595Y609836D01*
X510717Y609789D01*
X510839Y609739D01*
X510959Y609685D01*
X511077Y609628D01*
X511193Y609567D01*
X511308Y609503D01*
X511421Y609436D01*
X511532Y609365D01*
X511640Y609291D01*
X511747Y609214D01*
X511851Y609134D01*
X511953Y609051D01*
X512052Y608966D01*
X512149Y608877D01*
X512243Y608785D01*
X512335Y608691D01*
X512424Y608594D01*
X512509Y608495D01*
X512592Y608393D01*
X512672Y608289D01*
X512749Y608182D01*
X512823Y608074D01*
X512894Y607963D01*
X512961Y607850D01*
X513025Y607735D01*
X513086Y607619D01*
X513143Y607501D01*
X513197Y607381D01*
X513247Y607259D01*
X513294Y607137D01*
X513337Y607012D01*
X513376Y606887D01*
X513412Y606761D01*
X513444Y606633D01*
X513473Y606505D01*
X513497Y606376D01*
X513518Y606247D01*
X513535Y606116D01*
X513549Y605986D01*
X513558Y605855D01*
X513564Y605723D01*
X513566Y605592D01*
X513566Y598368D01*
X513564Y598237D01*
X513558Y598105D01*
X513549Y597974D01*
X513535Y597844D01*
X513518Y597713D01*
X513497Y597584D01*
X513473Y597455D01*
X513444Y597327D01*
X513412Y597199D01*
X513376Y597073D01*
X513337Y596948D01*
X513294Y596823D01*
X513247Y596701D01*
X513197Y596579D01*
X513143Y596459D01*
X513086Y596341D01*
X513025Y596225D01*
X512961Y596110D01*
X512894Y595997D01*
X512823Y595886D01*
X512749Y595778D01*
X512672Y595671D01*
X512592Y595567D01*
X512509Y595465D01*
X512424Y595366D01*
X512335Y595269D01*
X512243Y595175D01*
X512149Y595083D01*
X512052Y594994D01*
X511953Y594909D01*
X511851Y594826D01*
X511747Y594746D01*
X511640Y594669D01*
X511532Y594595D01*
X511421Y594524D01*
X511308Y594457D01*
X511193Y594393D01*
X511077Y594332D01*
X510959Y594275D01*
X510839Y594221D01*
X510717Y594171D01*
X510595Y594124D01*
X510470Y594081D01*
X510345Y594042D01*
X510219Y594006D01*
X510091Y593974D01*
X509963Y593945D01*
X509834Y593921D01*
X509704Y593900D01*
X509574Y593883D01*
X509444Y593869D01*
X509313Y593860D01*
X509181Y593854D01*
X509050Y593852D01*
X504535Y593852D01*
X521238Y593852D02*
X528463Y593852D01*
X521238Y593852D02*
X521238Y610108D01*
X528463Y610108D01*
X526656Y602883D02*
X521238Y602883D01*
X533331Y610108D02*
X538749Y593852D01*
X544168Y610108D01*
X551254Y610108D02*
X551254Y593852D01*
X549448Y593852D02*
X553061Y593852D01*
X553061Y610108D02*
X549448Y610108D01*
X562817Y593852D02*
X566429Y593852D01*
X562817Y593852D02*
X562699Y593854D01*
X562581Y593860D01*
X562463Y593869D01*
X562346Y593883D01*
X562229Y593900D01*
X562112Y593921D01*
X561997Y593946D01*
X561882Y593975D01*
X561768Y594008D01*
X561656Y594044D01*
X561545Y594084D01*
X561435Y594127D01*
X561326Y594174D01*
X561219Y594224D01*
X561114Y594279D01*
X561011Y594336D01*
X560910Y594397D01*
X560810Y594461D01*
X560713Y594528D01*
X560618Y594598D01*
X560526Y594672D01*
X560435Y594748D01*
X560348Y594828D01*
X560263Y594910D01*
X560181Y594995D01*
X560101Y595082D01*
X560025Y595173D01*
X559951Y595265D01*
X559881Y595360D01*
X559814Y595457D01*
X559750Y595557D01*
X559689Y595658D01*
X559632Y595761D01*
X559577Y595866D01*
X559527Y595973D01*
X559480Y596082D01*
X559437Y596192D01*
X559397Y596303D01*
X559361Y596415D01*
X559328Y596529D01*
X559299Y596644D01*
X559274Y596759D01*
X559253Y596876D01*
X559236Y596993D01*
X559222Y597110D01*
X559213Y597228D01*
X559207Y597346D01*
X559205Y597464D01*
X559204Y597464D02*
X559204Y606496D01*
X559205Y606496D02*
X559207Y606614D01*
X559213Y606732D01*
X559222Y606850D01*
X559236Y606967D01*
X559253Y607084D01*
X559274Y607201D01*
X559299Y607316D01*
X559328Y607431D01*
X559361Y607545D01*
X559397Y607657D01*
X559437Y607768D01*
X559480Y607878D01*
X559527Y607987D01*
X559577Y608094D01*
X559631Y608199D01*
X559689Y608302D01*
X559750Y608403D01*
X559814Y608503D01*
X559881Y608600D01*
X559951Y608695D01*
X560025Y608787D01*
X560101Y608878D01*
X560181Y608965D01*
X560263Y609050D01*
X560348Y609132D01*
X560435Y609212D01*
X560526Y609288D01*
X560618Y609362D01*
X560713Y609432D01*
X560810Y609499D01*
X560910Y609563D01*
X561011Y609624D01*
X561114Y609681D01*
X561219Y609735D01*
X561326Y609786D01*
X561435Y609833D01*
X561545Y609876D01*
X561656Y609916D01*
X561768Y609952D01*
X561882Y609985D01*
X561997Y610014D01*
X562112Y610039D01*
X562229Y610060D01*
X562346Y610077D01*
X562463Y610091D01*
X562581Y610100D01*
X562699Y610106D01*
X562817Y610108D01*
X566429Y610108D01*
X572821Y593852D02*
X580046Y593852D01*
X572821Y593852D02*
X572821Y610108D01*
X580046Y610108D01*
X578239Y602883D02*
X572821Y602883D01*
D11*
X381000Y635000D02*
X381000Y0D01*
D12*
X329692Y393192D02*
X318008Y393192D01*
X325797Y393192D02*
X325797Y389946D01*
X325795Y389859D01*
X325789Y389771D01*
X325779Y389685D01*
X325766Y389598D01*
X325748Y389513D01*
X325727Y389428D01*
X325702Y389344D01*
X325673Y389262D01*
X325640Y389181D01*
X325604Y389101D01*
X325565Y389023D01*
X325521Y388947D01*
X325475Y388873D01*
X325425Y388802D01*
X325372Y388732D01*
X325316Y388665D01*
X325257Y388601D01*
X325196Y388539D01*
X325131Y388480D01*
X325064Y388424D01*
X324994Y388371D01*
X324923Y388321D01*
X324849Y388275D01*
X324773Y388232D01*
X324695Y388192D01*
X324615Y388156D01*
X324534Y388123D01*
X324452Y388094D01*
X324368Y388069D01*
X324283Y388048D01*
X324198Y388030D01*
X324111Y388017D01*
X324025Y388007D01*
X323937Y388001D01*
X323850Y387999D01*
X318008Y387999D01*
X325797Y383872D02*
X325797Y379978D01*
X329692Y382574D02*
X319955Y382574D01*
X319868Y382572D01*
X319780Y382566D01*
X319694Y382556D01*
X319607Y382543D01*
X319522Y382525D01*
X319437Y382504D01*
X319353Y382479D01*
X319271Y382450D01*
X319190Y382417D01*
X319110Y382381D01*
X319032Y382342D01*
X318956Y382298D01*
X318882Y382252D01*
X318811Y382202D01*
X318741Y382149D01*
X318674Y382093D01*
X318610Y382034D01*
X318548Y381972D01*
X318489Y381908D01*
X318433Y381841D01*
X318380Y381771D01*
X318330Y381700D01*
X318284Y381626D01*
X318240Y381550D01*
X318201Y381472D01*
X318165Y381392D01*
X318132Y381311D01*
X318103Y381229D01*
X318078Y381145D01*
X318057Y381060D01*
X318039Y380975D01*
X318026Y380888D01*
X318016Y380802D01*
X318010Y380714D01*
X318008Y380627D01*
X318008Y379978D01*
X325797Y376633D02*
X325797Y372739D01*
X329692Y375335D02*
X319955Y375335D01*
X319868Y375333D01*
X319780Y375327D01*
X319694Y375317D01*
X319607Y375304D01*
X319522Y375286D01*
X319437Y375265D01*
X319353Y375240D01*
X319271Y375211D01*
X319190Y375178D01*
X319110Y375142D01*
X319032Y375103D01*
X318956Y375059D01*
X318882Y375013D01*
X318811Y374963D01*
X318741Y374910D01*
X318674Y374854D01*
X318610Y374795D01*
X318548Y374733D01*
X318489Y374669D01*
X318433Y374602D01*
X318380Y374532D01*
X318330Y374461D01*
X318284Y374387D01*
X318240Y374311D01*
X318201Y374233D01*
X318165Y374153D01*
X318132Y374072D01*
X318103Y373990D01*
X318078Y373906D01*
X318057Y373821D01*
X318039Y373736D01*
X318026Y373649D01*
X318016Y373563D01*
X318010Y373475D01*
X318008Y373388D01*
X318008Y372739D01*
X314113Y367987D02*
X325797Y367987D01*
X325797Y364742D01*
X325795Y364655D01*
X325789Y364567D01*
X325779Y364481D01*
X325766Y364394D01*
X325748Y364309D01*
X325727Y364224D01*
X325702Y364140D01*
X325673Y364058D01*
X325640Y363977D01*
X325604Y363897D01*
X325565Y363819D01*
X325521Y363743D01*
X325475Y363669D01*
X325425Y363598D01*
X325372Y363528D01*
X325316Y363461D01*
X325257Y363397D01*
X325196Y363335D01*
X325131Y363276D01*
X325064Y363220D01*
X324994Y363167D01*
X324923Y363117D01*
X324849Y363071D01*
X324773Y363028D01*
X324695Y362988D01*
X324615Y362952D01*
X324534Y362919D01*
X324452Y362890D01*
X324368Y362865D01*
X324283Y362844D01*
X324198Y362826D01*
X324111Y362813D01*
X324025Y362803D01*
X323937Y362797D01*
X323850Y362795D01*
X323850Y362794D02*
X319955Y362794D01*
X319955Y362795D02*
X319868Y362797D01*
X319780Y362803D01*
X319694Y362813D01*
X319607Y362826D01*
X319522Y362844D01*
X319437Y362865D01*
X319353Y362890D01*
X319271Y362919D01*
X319190Y362952D01*
X319110Y362988D01*
X319032Y363027D01*
X318956Y363071D01*
X318882Y363117D01*
X318811Y363167D01*
X318741Y363220D01*
X318674Y363276D01*
X318609Y363335D01*
X318548Y363397D01*
X318489Y363461D01*
X318433Y363528D01*
X318380Y363598D01*
X318330Y363669D01*
X318284Y363743D01*
X318240Y363819D01*
X318201Y363897D01*
X318165Y363977D01*
X318132Y364058D01*
X318103Y364140D01*
X318078Y364224D01*
X318057Y364309D01*
X318039Y364394D01*
X318026Y364481D01*
X318016Y364568D01*
X318010Y364655D01*
X318008Y364742D01*
X318008Y367987D01*
X322552Y357166D02*
X321254Y353921D01*
X322551Y357166D02*
X322584Y357241D01*
X322620Y357315D01*
X322659Y357387D01*
X322702Y357457D01*
X322748Y357524D01*
X322798Y357590D01*
X322850Y357652D01*
X322906Y357713D01*
X322964Y357770D01*
X323025Y357825D01*
X323089Y357876D01*
X323155Y357924D01*
X323224Y357969D01*
X323294Y358011D01*
X323367Y358049D01*
X323441Y358084D01*
X323517Y358115D01*
X323594Y358142D01*
X323673Y358165D01*
X323752Y358185D01*
X323833Y358200D01*
X323914Y358212D01*
X323996Y358220D01*
X324077Y358224D01*
X324159Y358223D01*
X324241Y358219D01*
X324323Y358211D01*
X324404Y358199D01*
X324484Y358183D01*
X324564Y358163D01*
X324642Y358139D01*
X324719Y358111D01*
X324795Y358080D01*
X324869Y358045D01*
X324941Y358007D01*
X325012Y357965D01*
X325080Y357919D01*
X325146Y357871D01*
X325209Y357819D01*
X325270Y357764D01*
X325328Y357706D01*
X325384Y357646D01*
X325436Y357583D01*
X325485Y357517D01*
X325531Y357449D01*
X325573Y357379D01*
X325613Y357307D01*
X325648Y357233D01*
X325680Y357158D01*
X325708Y357081D01*
X325732Y357003D01*
X325753Y356923D01*
X325770Y356843D01*
X325782Y356762D01*
X325791Y356681D01*
X325796Y356599D01*
X325797Y356517D01*
X325797Y356518D02*
X325793Y356341D01*
X325784Y356164D01*
X325770Y355987D01*
X325753Y355810D01*
X325731Y355635D01*
X325706Y355459D01*
X325675Y355285D01*
X325641Y355111D01*
X325603Y354938D01*
X325560Y354766D01*
X325513Y354595D01*
X325463Y354425D01*
X325408Y354256D01*
X325349Y354089D01*
X325286Y353924D01*
X325219Y353759D01*
X325148Y353597D01*
X321254Y353921D02*
X321221Y353846D01*
X321185Y353772D01*
X321146Y353700D01*
X321103Y353630D01*
X321057Y353563D01*
X321007Y353497D01*
X320955Y353435D01*
X320899Y353374D01*
X320841Y353317D01*
X320780Y353262D01*
X320716Y353211D01*
X320650Y353163D01*
X320581Y353118D01*
X320511Y353076D01*
X320438Y353038D01*
X320364Y353003D01*
X320288Y352972D01*
X320211Y352945D01*
X320132Y352922D01*
X320053Y352902D01*
X319972Y352887D01*
X319891Y352875D01*
X319809Y352867D01*
X319728Y352863D01*
X319646Y352864D01*
X319564Y352868D01*
X319482Y352876D01*
X319401Y352888D01*
X319321Y352904D01*
X319241Y352924D01*
X319163Y352948D01*
X319086Y352976D01*
X319010Y353007D01*
X318936Y353042D01*
X318864Y353080D01*
X318793Y353122D01*
X318725Y353168D01*
X318659Y353216D01*
X318596Y353268D01*
X318535Y353323D01*
X318477Y353381D01*
X318421Y353441D01*
X318369Y353504D01*
X318320Y353570D01*
X318274Y353638D01*
X318232Y353708D01*
X318192Y353780D01*
X318157Y353854D01*
X318125Y353929D01*
X318097Y354006D01*
X318073Y354084D01*
X318052Y354164D01*
X318035Y354244D01*
X318023Y354325D01*
X318014Y354406D01*
X318009Y354488D01*
X318008Y354570D01*
X318015Y354830D01*
X318028Y355090D01*
X318047Y355350D01*
X318072Y355609D01*
X318104Y355868D01*
X318141Y356125D01*
X318185Y356382D01*
X318234Y356638D01*
X318290Y356892D01*
X318351Y357145D01*
X318419Y357396D01*
X318493Y357646D01*
X318572Y357894D01*
X318657Y358140D01*
X318982Y348248D02*
X319631Y348248D01*
X319631Y347599D01*
X318982Y347599D01*
X318982Y348248D01*
X324175Y348248D02*
X324824Y348248D01*
X324824Y347599D01*
X324175Y347599D01*
X324175Y348248D01*
X316710Y343281D02*
X330990Y338088D01*
X330990Y328944D02*
X316710Y334137D01*
X318008Y322724D02*
X318008Y319478D01*
X318008Y322724D02*
X318010Y322811D01*
X318016Y322899D01*
X318026Y322985D01*
X318039Y323072D01*
X318057Y323157D01*
X318078Y323242D01*
X318103Y323326D01*
X318132Y323408D01*
X318165Y323489D01*
X318201Y323569D01*
X318240Y323647D01*
X318284Y323723D01*
X318330Y323797D01*
X318380Y323868D01*
X318433Y323938D01*
X318489Y324005D01*
X318548Y324069D01*
X318610Y324131D01*
X318674Y324190D01*
X318741Y324246D01*
X318811Y324299D01*
X318882Y324349D01*
X318956Y324395D01*
X319032Y324439D01*
X319110Y324478D01*
X319190Y324514D01*
X319271Y324547D01*
X319353Y324576D01*
X319437Y324601D01*
X319522Y324622D01*
X319607Y324640D01*
X319694Y324653D01*
X319780Y324663D01*
X319868Y324669D01*
X319955Y324671D01*
X323850Y324671D01*
X323937Y324669D01*
X324025Y324663D01*
X324111Y324653D01*
X324198Y324640D01*
X324283Y324622D01*
X324368Y324601D01*
X324452Y324576D01*
X324534Y324547D01*
X324615Y324514D01*
X324695Y324478D01*
X324773Y324439D01*
X324849Y324395D01*
X324923Y324349D01*
X324994Y324299D01*
X325064Y324246D01*
X325131Y324190D01*
X325195Y324131D01*
X325257Y324069D01*
X325316Y324005D01*
X325372Y323938D01*
X325425Y323868D01*
X325475Y323797D01*
X325521Y323723D01*
X325565Y323647D01*
X325604Y323569D01*
X325640Y323489D01*
X325673Y323408D01*
X325702Y323326D01*
X325727Y323242D01*
X325748Y323157D01*
X325766Y323072D01*
X325779Y322985D01*
X325789Y322899D01*
X325795Y322811D01*
X325797Y322724D01*
X325797Y319478D01*
X316061Y319478D01*
X316061Y319479D02*
X315974Y319481D01*
X315886Y319487D01*
X315800Y319497D01*
X315713Y319510D01*
X315628Y319528D01*
X315543Y319549D01*
X315459Y319574D01*
X315377Y319603D01*
X315296Y319636D01*
X315216Y319672D01*
X315138Y319711D01*
X315062Y319755D01*
X314988Y319801D01*
X314917Y319851D01*
X314847Y319904D01*
X314780Y319960D01*
X314716Y320019D01*
X314654Y320081D01*
X314595Y320145D01*
X314539Y320212D01*
X314486Y320282D01*
X314436Y320353D01*
X314390Y320427D01*
X314346Y320503D01*
X314307Y320581D01*
X314271Y320661D01*
X314238Y320742D01*
X314209Y320824D01*
X314184Y320908D01*
X314163Y320993D01*
X314145Y321078D01*
X314132Y321165D01*
X314122Y321251D01*
X314116Y321339D01*
X314114Y321426D01*
X314113Y321426D02*
X314113Y324022D01*
X318008Y314396D02*
X325797Y314396D01*
X329043Y314720D02*
X329692Y314720D01*
X329692Y314071D01*
X329043Y314071D01*
X329043Y314720D01*
X325797Y310720D02*
X325797Y306826D01*
X329692Y309422D02*
X319955Y309422D01*
X319868Y309420D01*
X319780Y309414D01*
X319694Y309404D01*
X319607Y309391D01*
X319522Y309373D01*
X319437Y309352D01*
X319353Y309327D01*
X319271Y309298D01*
X319190Y309265D01*
X319110Y309229D01*
X319032Y309190D01*
X318956Y309146D01*
X318882Y309100D01*
X318811Y309050D01*
X318741Y308997D01*
X318674Y308941D01*
X318610Y308882D01*
X318548Y308820D01*
X318489Y308756D01*
X318433Y308689D01*
X318380Y308619D01*
X318330Y308548D01*
X318284Y308474D01*
X318240Y308398D01*
X318201Y308320D01*
X318165Y308240D01*
X318132Y308159D01*
X318103Y308077D01*
X318078Y307993D01*
X318057Y307908D01*
X318039Y307823D01*
X318026Y307736D01*
X318016Y307650D01*
X318010Y307562D01*
X318008Y307475D01*
X318008Y306826D01*
X318008Y302133D02*
X329692Y302133D01*
X325797Y302133D02*
X325797Y298888D01*
X325795Y298801D01*
X325789Y298713D01*
X325779Y298627D01*
X325766Y298540D01*
X325748Y298455D01*
X325727Y298370D01*
X325702Y298286D01*
X325673Y298204D01*
X325640Y298123D01*
X325604Y298043D01*
X325565Y297965D01*
X325521Y297889D01*
X325475Y297815D01*
X325425Y297744D01*
X325372Y297674D01*
X325316Y297607D01*
X325257Y297543D01*
X325196Y297481D01*
X325131Y297422D01*
X325064Y297366D01*
X324994Y297313D01*
X324923Y297263D01*
X324849Y297217D01*
X324773Y297174D01*
X324695Y297134D01*
X324615Y297098D01*
X324534Y297065D01*
X324452Y297036D01*
X324368Y297011D01*
X324283Y296990D01*
X324198Y296972D01*
X324111Y296959D01*
X324025Y296949D01*
X323937Y296943D01*
X323850Y296941D01*
X323850Y296940D02*
X318008Y296940D01*
X319955Y291465D02*
X325797Y291465D01*
X319955Y291465D02*
X319868Y291463D01*
X319780Y291457D01*
X319694Y291447D01*
X319607Y291434D01*
X319522Y291416D01*
X319437Y291395D01*
X319353Y291370D01*
X319271Y291341D01*
X319190Y291308D01*
X319110Y291272D01*
X319032Y291233D01*
X318956Y291189D01*
X318882Y291143D01*
X318811Y291093D01*
X318741Y291040D01*
X318674Y290984D01*
X318610Y290925D01*
X318548Y290863D01*
X318489Y290799D01*
X318433Y290732D01*
X318380Y290662D01*
X318330Y290591D01*
X318284Y290517D01*
X318240Y290441D01*
X318201Y290363D01*
X318165Y290283D01*
X318132Y290202D01*
X318103Y290120D01*
X318078Y290036D01*
X318057Y289951D01*
X318039Y289866D01*
X318026Y289779D01*
X318016Y289693D01*
X318010Y289605D01*
X318008Y289518D01*
X318008Y286272D01*
X325797Y286272D01*
X329692Y280738D02*
X318008Y280738D01*
X318008Y277493D01*
X318010Y277406D01*
X318016Y277318D01*
X318026Y277232D01*
X318039Y277145D01*
X318057Y277060D01*
X318078Y276975D01*
X318103Y276891D01*
X318132Y276809D01*
X318165Y276728D01*
X318201Y276648D01*
X318240Y276570D01*
X318284Y276494D01*
X318330Y276420D01*
X318380Y276349D01*
X318433Y276279D01*
X318489Y276212D01*
X318548Y276148D01*
X318609Y276086D01*
X318674Y276027D01*
X318741Y275971D01*
X318811Y275918D01*
X318882Y275868D01*
X318956Y275822D01*
X319032Y275779D01*
X319110Y275739D01*
X319190Y275703D01*
X319271Y275670D01*
X319353Y275641D01*
X319437Y275616D01*
X319522Y275595D01*
X319607Y275577D01*
X319694Y275564D01*
X319780Y275554D01*
X319868Y275548D01*
X319955Y275546D01*
X319955Y275545D02*
X323850Y275545D01*
X323850Y275546D02*
X323937Y275548D01*
X324025Y275554D01*
X324111Y275564D01*
X324198Y275577D01*
X324283Y275595D01*
X324368Y275616D01*
X324452Y275641D01*
X324534Y275670D01*
X324615Y275703D01*
X324695Y275739D01*
X324773Y275778D01*
X324849Y275822D01*
X324923Y275868D01*
X324994Y275918D01*
X325064Y275971D01*
X325131Y276027D01*
X325196Y276086D01*
X325257Y276148D01*
X325316Y276212D01*
X325372Y276279D01*
X325425Y276349D01*
X325475Y276420D01*
X325521Y276494D01*
X325565Y276570D01*
X325604Y276648D01*
X325640Y276728D01*
X325673Y276809D01*
X325702Y276891D01*
X325727Y276975D01*
X325748Y277060D01*
X325766Y277145D01*
X325779Y277232D01*
X325789Y277319D01*
X325795Y277406D01*
X325797Y277493D01*
X325797Y280738D01*
X318657Y271286D02*
X318008Y271286D01*
X318657Y271286D02*
X318657Y270637D01*
X318008Y270637D01*
X318008Y271286D01*
X318008Y264359D02*
X318008Y261762D01*
X318008Y264359D02*
X318010Y264446D01*
X318016Y264534D01*
X318026Y264620D01*
X318039Y264707D01*
X318057Y264792D01*
X318078Y264877D01*
X318103Y264961D01*
X318132Y265043D01*
X318165Y265124D01*
X318201Y265204D01*
X318240Y265282D01*
X318284Y265358D01*
X318330Y265432D01*
X318380Y265503D01*
X318433Y265573D01*
X318489Y265640D01*
X318548Y265704D01*
X318610Y265766D01*
X318674Y265825D01*
X318741Y265881D01*
X318811Y265934D01*
X318882Y265984D01*
X318956Y266030D01*
X319032Y266074D01*
X319110Y266113D01*
X319190Y266149D01*
X319271Y266182D01*
X319353Y266211D01*
X319437Y266236D01*
X319522Y266257D01*
X319607Y266275D01*
X319694Y266288D01*
X319780Y266298D01*
X319868Y266304D01*
X319955Y266306D01*
X323850Y266306D01*
X323937Y266304D01*
X324025Y266298D01*
X324111Y266288D01*
X324198Y266275D01*
X324283Y266257D01*
X324368Y266236D01*
X324452Y266211D01*
X324534Y266182D01*
X324615Y266149D01*
X324695Y266113D01*
X324773Y266074D01*
X324849Y266030D01*
X324923Y265984D01*
X324994Y265934D01*
X325064Y265881D01*
X325131Y265825D01*
X325195Y265766D01*
X325257Y265704D01*
X325316Y265640D01*
X325372Y265573D01*
X325425Y265503D01*
X325475Y265432D01*
X325521Y265358D01*
X325565Y265282D01*
X325604Y265204D01*
X325640Y265124D01*
X325673Y265043D01*
X325702Y264961D01*
X325727Y264877D01*
X325748Y264792D01*
X325766Y264707D01*
X325779Y264620D01*
X325789Y264534D01*
X325795Y264446D01*
X325797Y264359D01*
X325797Y261762D01*
X323201Y257556D02*
X320604Y257556D01*
X323201Y257556D02*
X323302Y257554D01*
X323402Y257548D01*
X323502Y257538D01*
X323602Y257525D01*
X323701Y257507D01*
X323800Y257486D01*
X323897Y257461D01*
X323994Y257432D01*
X324089Y257399D01*
X324183Y257363D01*
X324275Y257323D01*
X324366Y257280D01*
X324455Y257233D01*
X324542Y257183D01*
X324628Y257129D01*
X324711Y257072D01*
X324791Y257012D01*
X324870Y256949D01*
X324946Y256882D01*
X325019Y256813D01*
X325089Y256741D01*
X325157Y256667D01*
X325222Y256590D01*
X325283Y256510D01*
X325342Y256428D01*
X325397Y256344D01*
X325449Y256258D01*
X325498Y256170D01*
X325543Y256080D01*
X325585Y255988D01*
X325623Y255895D01*
X325657Y255800D01*
X325688Y255705D01*
X325715Y255608D01*
X325738Y255510D01*
X325758Y255411D01*
X325773Y255311D01*
X325785Y255211D01*
X325793Y255111D01*
X325797Y255010D01*
X325797Y254910D01*
X325793Y254809D01*
X325785Y254709D01*
X325773Y254609D01*
X325758Y254509D01*
X325738Y254410D01*
X325715Y254312D01*
X325688Y254215D01*
X325657Y254120D01*
X325623Y254025D01*
X325585Y253932D01*
X325543Y253840D01*
X325498Y253750D01*
X325449Y253662D01*
X325397Y253576D01*
X325342Y253492D01*
X325283Y253410D01*
X325222Y253330D01*
X325157Y253253D01*
X325089Y253179D01*
X325019Y253107D01*
X324946Y253038D01*
X324870Y252971D01*
X324791Y252908D01*
X324711Y252848D01*
X324628Y252791D01*
X324542Y252737D01*
X324455Y252687D01*
X324366Y252640D01*
X324275Y252597D01*
X324183Y252557D01*
X324089Y252521D01*
X323994Y252488D01*
X323897Y252459D01*
X323800Y252434D01*
X323701Y252413D01*
X323602Y252395D01*
X323502Y252382D01*
X323402Y252372D01*
X323302Y252366D01*
X323201Y252364D01*
X323201Y252363D02*
X320604Y252363D01*
X320604Y252364D02*
X320503Y252366D01*
X320403Y252372D01*
X320303Y252382D01*
X320203Y252395D01*
X320104Y252413D01*
X320005Y252434D01*
X319908Y252459D01*
X319811Y252488D01*
X319716Y252521D01*
X319622Y252557D01*
X319530Y252597D01*
X319439Y252640D01*
X319350Y252687D01*
X319263Y252737D01*
X319177Y252791D01*
X319094Y252848D01*
X319014Y252908D01*
X318935Y252971D01*
X318859Y253038D01*
X318786Y253107D01*
X318716Y253179D01*
X318648Y253253D01*
X318583Y253330D01*
X318522Y253410D01*
X318463Y253492D01*
X318408Y253576D01*
X318356Y253662D01*
X318307Y253750D01*
X318262Y253840D01*
X318220Y253932D01*
X318182Y254025D01*
X318148Y254120D01*
X318117Y254215D01*
X318090Y254312D01*
X318067Y254410D01*
X318047Y254509D01*
X318032Y254609D01*
X318020Y254709D01*
X318012Y254809D01*
X318008Y254910D01*
X318008Y255010D01*
X318012Y255111D01*
X318020Y255211D01*
X318032Y255311D01*
X318047Y255411D01*
X318067Y255510D01*
X318090Y255608D01*
X318117Y255705D01*
X318148Y255800D01*
X318182Y255895D01*
X318220Y255988D01*
X318262Y256080D01*
X318307Y256170D01*
X318356Y256258D01*
X318408Y256344D01*
X318463Y256428D01*
X318522Y256510D01*
X318583Y256590D01*
X318648Y256667D01*
X318716Y256741D01*
X318786Y256813D01*
X318859Y256882D01*
X318935Y256949D01*
X319014Y257012D01*
X319094Y257072D01*
X319177Y257129D01*
X319263Y257183D01*
X319350Y257233D01*
X319439Y257280D01*
X319530Y257323D01*
X319622Y257363D01*
X319716Y257399D01*
X319811Y257432D01*
X319908Y257461D01*
X320005Y257486D01*
X320104Y257507D01*
X320203Y257525D01*
X320303Y257538D01*
X320403Y257548D01*
X320503Y257554D01*
X320604Y257556D01*
X318008Y247044D02*
X325797Y247044D01*
X325797Y241202D01*
X325795Y241115D01*
X325789Y241027D01*
X325779Y240941D01*
X325766Y240854D01*
X325748Y240769D01*
X325727Y240684D01*
X325702Y240600D01*
X325673Y240518D01*
X325640Y240437D01*
X325604Y240357D01*
X325565Y240279D01*
X325521Y240203D01*
X325475Y240129D01*
X325425Y240058D01*
X325372Y239988D01*
X325316Y239921D01*
X325257Y239857D01*
X325195Y239795D01*
X325131Y239736D01*
X325064Y239680D01*
X324994Y239627D01*
X324923Y239577D01*
X324849Y239531D01*
X324773Y239487D01*
X324695Y239448D01*
X324615Y239412D01*
X324534Y239379D01*
X324452Y239350D01*
X324368Y239325D01*
X324283Y239304D01*
X324198Y239286D01*
X324111Y239273D01*
X324025Y239263D01*
X323937Y239257D01*
X323850Y239255D01*
X323850Y239254D02*
X318008Y239254D01*
X318008Y243149D02*
X325797Y243149D01*
X316710Y234315D02*
X330990Y229122D01*
X318008Y222902D02*
X318008Y219656D01*
X318008Y222902D02*
X318010Y222989D01*
X318016Y223077D01*
X318026Y223163D01*
X318039Y223250D01*
X318057Y223335D01*
X318078Y223420D01*
X318103Y223504D01*
X318132Y223586D01*
X318165Y223667D01*
X318201Y223747D01*
X318240Y223825D01*
X318284Y223901D01*
X318330Y223975D01*
X318380Y224046D01*
X318433Y224116D01*
X318489Y224183D01*
X318548Y224247D01*
X318610Y224309D01*
X318674Y224368D01*
X318741Y224424D01*
X318811Y224477D01*
X318882Y224527D01*
X318956Y224573D01*
X319032Y224617D01*
X319110Y224656D01*
X319190Y224692D01*
X319271Y224725D01*
X319353Y224754D01*
X319437Y224779D01*
X319522Y224800D01*
X319607Y224818D01*
X319694Y224831D01*
X319780Y224841D01*
X319868Y224847D01*
X319955Y224849D01*
X323850Y224849D01*
X323937Y224847D01*
X324025Y224841D01*
X324111Y224831D01*
X324198Y224818D01*
X324283Y224800D01*
X324368Y224779D01*
X324452Y224754D01*
X324534Y224725D01*
X324615Y224692D01*
X324695Y224656D01*
X324773Y224617D01*
X324849Y224573D01*
X324923Y224527D01*
X324994Y224477D01*
X325064Y224424D01*
X325131Y224368D01*
X325195Y224309D01*
X325257Y224247D01*
X325316Y224183D01*
X325372Y224116D01*
X325425Y224046D01*
X325475Y223975D01*
X325521Y223901D01*
X325565Y223825D01*
X325604Y223747D01*
X325640Y223667D01*
X325673Y223586D01*
X325702Y223504D01*
X325727Y223420D01*
X325748Y223335D01*
X325766Y223250D01*
X325779Y223163D01*
X325789Y223077D01*
X325795Y222989D01*
X325797Y222902D01*
X325797Y219656D01*
X316061Y219656D01*
X316061Y219657D02*
X315974Y219659D01*
X315886Y219665D01*
X315800Y219675D01*
X315713Y219688D01*
X315628Y219706D01*
X315543Y219727D01*
X315459Y219752D01*
X315377Y219781D01*
X315296Y219814D01*
X315216Y219850D01*
X315138Y219889D01*
X315062Y219933D01*
X314988Y219979D01*
X314917Y220029D01*
X314847Y220082D01*
X314780Y220138D01*
X314716Y220197D01*
X314654Y220259D01*
X314595Y220323D01*
X314539Y220390D01*
X314486Y220460D01*
X314436Y220531D01*
X314390Y220605D01*
X314346Y220681D01*
X314307Y220759D01*
X314271Y220839D01*
X314238Y220920D01*
X314209Y221002D01*
X314184Y221086D01*
X314163Y221171D01*
X314145Y221256D01*
X314132Y221343D01*
X314122Y221429D01*
X314116Y221517D01*
X314114Y221604D01*
X314113Y221604D02*
X314113Y224200D01*
X318008Y214056D02*
X325797Y214056D01*
X325797Y210161D01*
X324499Y210161D01*
X325797Y206121D02*
X319955Y206121D01*
X319868Y206119D01*
X319780Y206113D01*
X319694Y206103D01*
X319607Y206090D01*
X319522Y206072D01*
X319437Y206051D01*
X319353Y206026D01*
X319271Y205997D01*
X319190Y205964D01*
X319110Y205928D01*
X319032Y205889D01*
X318956Y205845D01*
X318882Y205799D01*
X318811Y205749D01*
X318741Y205696D01*
X318674Y205640D01*
X318610Y205581D01*
X318548Y205519D01*
X318489Y205455D01*
X318433Y205388D01*
X318380Y205318D01*
X318330Y205247D01*
X318284Y205173D01*
X318240Y205097D01*
X318201Y205019D01*
X318165Y204939D01*
X318132Y204858D01*
X318103Y204776D01*
X318078Y204692D01*
X318057Y204607D01*
X318039Y204522D01*
X318026Y204435D01*
X318016Y204349D01*
X318010Y204261D01*
X318008Y204174D01*
X318008Y200928D01*
X325797Y200928D01*
X325797Y195228D02*
X318008Y195228D01*
X325797Y195228D02*
X325797Y189386D01*
X325795Y189299D01*
X325789Y189211D01*
X325779Y189125D01*
X325766Y189038D01*
X325748Y188953D01*
X325727Y188868D01*
X325702Y188784D01*
X325673Y188702D01*
X325640Y188621D01*
X325604Y188541D01*
X325565Y188463D01*
X325521Y188387D01*
X325475Y188313D01*
X325425Y188242D01*
X325372Y188172D01*
X325316Y188105D01*
X325257Y188041D01*
X325195Y187979D01*
X325131Y187920D01*
X325064Y187864D01*
X324994Y187811D01*
X324923Y187761D01*
X324849Y187715D01*
X324773Y187671D01*
X324695Y187632D01*
X324615Y187596D01*
X324534Y187563D01*
X324452Y187534D01*
X324368Y187509D01*
X324283Y187488D01*
X324198Y187470D01*
X324111Y187457D01*
X324025Y187447D01*
X323937Y187441D01*
X323850Y187439D01*
X323850Y187438D02*
X318008Y187438D01*
X318008Y191333D02*
X325797Y191333D01*
X325797Y181678D02*
X314113Y181678D01*
X325797Y181678D02*
X325797Y178433D01*
X325795Y178346D01*
X325789Y178258D01*
X325779Y178172D01*
X325766Y178085D01*
X325748Y178000D01*
X325727Y177915D01*
X325702Y177831D01*
X325673Y177749D01*
X325640Y177668D01*
X325604Y177588D01*
X325565Y177510D01*
X325521Y177434D01*
X325475Y177360D01*
X325425Y177289D01*
X325372Y177219D01*
X325316Y177152D01*
X325257Y177088D01*
X325196Y177026D01*
X325131Y176967D01*
X325064Y176911D01*
X324994Y176858D01*
X324923Y176808D01*
X324849Y176762D01*
X324773Y176719D01*
X324695Y176679D01*
X324615Y176643D01*
X324534Y176610D01*
X324452Y176581D01*
X324368Y176556D01*
X324283Y176535D01*
X324198Y176517D01*
X324111Y176504D01*
X324025Y176494D01*
X323937Y176488D01*
X323850Y176486D01*
X319955Y176486D01*
X319868Y176488D01*
X319780Y176494D01*
X319694Y176504D01*
X319607Y176517D01*
X319522Y176535D01*
X319437Y176556D01*
X319353Y176581D01*
X319271Y176610D01*
X319190Y176643D01*
X319110Y176679D01*
X319032Y176718D01*
X318956Y176762D01*
X318882Y176808D01*
X318811Y176858D01*
X318741Y176911D01*
X318674Y176967D01*
X318609Y177026D01*
X318548Y177088D01*
X318489Y177152D01*
X318433Y177219D01*
X318380Y177289D01*
X318330Y177360D01*
X318284Y177434D01*
X318240Y177510D01*
X318201Y177588D01*
X318165Y177668D01*
X318132Y177749D01*
X318103Y177831D01*
X318078Y177915D01*
X318057Y178000D01*
X318039Y178085D01*
X318026Y178172D01*
X318016Y178259D01*
X318010Y178346D01*
X318008Y178433D01*
X318008Y181678D01*
X314113Y172212D02*
X314113Y170914D01*
X325797Y167020D01*
X325797Y172212D02*
X318008Y169616D01*
X318008Y160727D02*
X318008Y158130D01*
X318008Y160727D02*
X318010Y160814D01*
X318016Y160902D01*
X318026Y160988D01*
X318039Y161075D01*
X318057Y161160D01*
X318078Y161245D01*
X318103Y161329D01*
X318132Y161411D01*
X318165Y161492D01*
X318201Y161572D01*
X318240Y161650D01*
X318284Y161726D01*
X318330Y161800D01*
X318380Y161871D01*
X318433Y161941D01*
X318489Y162008D01*
X318548Y162072D01*
X318610Y162134D01*
X318674Y162193D01*
X318741Y162249D01*
X318811Y162302D01*
X318882Y162352D01*
X318956Y162398D01*
X319032Y162442D01*
X319110Y162481D01*
X319190Y162517D01*
X319271Y162550D01*
X319353Y162579D01*
X319437Y162604D01*
X319522Y162625D01*
X319607Y162643D01*
X319694Y162656D01*
X319780Y162666D01*
X319868Y162672D01*
X319955Y162674D01*
X323850Y162674D01*
X323937Y162672D01*
X324025Y162666D01*
X324111Y162656D01*
X324198Y162643D01*
X324283Y162625D01*
X324368Y162604D01*
X324452Y162579D01*
X324534Y162550D01*
X324615Y162517D01*
X324695Y162481D01*
X324773Y162442D01*
X324849Y162398D01*
X324923Y162352D01*
X324994Y162302D01*
X325064Y162249D01*
X325131Y162193D01*
X325195Y162134D01*
X325257Y162072D01*
X325316Y162008D01*
X325372Y161941D01*
X325425Y161871D01*
X325475Y161800D01*
X325521Y161726D01*
X325565Y161650D01*
X325604Y161572D01*
X325640Y161492D01*
X325673Y161411D01*
X325702Y161329D01*
X325727Y161245D01*
X325748Y161160D01*
X325766Y161075D01*
X325779Y160988D01*
X325789Y160902D01*
X325795Y160814D01*
X325797Y160727D01*
X325797Y158130D01*
X323201Y153924D02*
X320604Y153924D01*
X323201Y153924D02*
X323302Y153922D01*
X323402Y153916D01*
X323502Y153906D01*
X323602Y153893D01*
X323701Y153875D01*
X323800Y153854D01*
X323897Y153829D01*
X323994Y153800D01*
X324089Y153767D01*
X324183Y153731D01*
X324275Y153691D01*
X324366Y153648D01*
X324455Y153601D01*
X324542Y153551D01*
X324628Y153497D01*
X324711Y153440D01*
X324791Y153380D01*
X324870Y153317D01*
X324946Y153250D01*
X325019Y153181D01*
X325089Y153109D01*
X325157Y153035D01*
X325222Y152958D01*
X325283Y152878D01*
X325342Y152796D01*
X325397Y152712D01*
X325449Y152626D01*
X325498Y152538D01*
X325543Y152448D01*
X325585Y152356D01*
X325623Y152263D01*
X325657Y152168D01*
X325688Y152073D01*
X325715Y151976D01*
X325738Y151878D01*
X325758Y151779D01*
X325773Y151679D01*
X325785Y151579D01*
X325793Y151479D01*
X325797Y151378D01*
X325797Y151278D01*
X325793Y151177D01*
X325785Y151077D01*
X325773Y150977D01*
X325758Y150877D01*
X325738Y150778D01*
X325715Y150680D01*
X325688Y150583D01*
X325657Y150488D01*
X325623Y150393D01*
X325585Y150300D01*
X325543Y150208D01*
X325498Y150118D01*
X325449Y150030D01*
X325397Y149944D01*
X325342Y149860D01*
X325283Y149778D01*
X325222Y149698D01*
X325157Y149621D01*
X325089Y149547D01*
X325019Y149475D01*
X324946Y149406D01*
X324870Y149339D01*
X324791Y149276D01*
X324711Y149216D01*
X324628Y149159D01*
X324542Y149105D01*
X324455Y149055D01*
X324366Y149008D01*
X324275Y148965D01*
X324183Y148925D01*
X324089Y148889D01*
X323994Y148856D01*
X323897Y148827D01*
X323800Y148802D01*
X323701Y148781D01*
X323602Y148763D01*
X323502Y148750D01*
X323402Y148740D01*
X323302Y148734D01*
X323201Y148732D01*
X320604Y148732D01*
X320503Y148734D01*
X320403Y148740D01*
X320303Y148750D01*
X320203Y148763D01*
X320104Y148781D01*
X320005Y148802D01*
X319908Y148827D01*
X319811Y148856D01*
X319716Y148889D01*
X319622Y148925D01*
X319530Y148965D01*
X319439Y149008D01*
X319350Y149055D01*
X319263Y149105D01*
X319177Y149159D01*
X319094Y149216D01*
X319014Y149276D01*
X318935Y149339D01*
X318859Y149406D01*
X318786Y149475D01*
X318716Y149547D01*
X318648Y149621D01*
X318583Y149698D01*
X318522Y149778D01*
X318463Y149860D01*
X318408Y149944D01*
X318356Y150030D01*
X318307Y150118D01*
X318262Y150208D01*
X318220Y150300D01*
X318182Y150393D01*
X318148Y150488D01*
X318117Y150583D01*
X318090Y150680D01*
X318067Y150778D01*
X318047Y150877D01*
X318032Y150977D01*
X318020Y151077D01*
X318012Y151177D01*
X318008Y151278D01*
X318008Y151378D01*
X318012Y151479D01*
X318020Y151579D01*
X318032Y151679D01*
X318047Y151779D01*
X318067Y151878D01*
X318090Y151976D01*
X318117Y152073D01*
X318148Y152168D01*
X318182Y152263D01*
X318220Y152356D01*
X318262Y152448D01*
X318307Y152538D01*
X318356Y152626D01*
X318408Y152712D01*
X318463Y152796D01*
X318522Y152878D01*
X318583Y152958D01*
X318648Y153035D01*
X318716Y153109D01*
X318786Y153181D01*
X318859Y153250D01*
X318935Y153317D01*
X319014Y153380D01*
X319094Y153440D01*
X319177Y153497D01*
X319263Y153551D01*
X319350Y153601D01*
X319439Y153648D01*
X319530Y153691D01*
X319622Y153731D01*
X319716Y153767D01*
X319811Y153800D01*
X319908Y153829D01*
X320005Y153854D01*
X320104Y153875D01*
X320203Y153893D01*
X320303Y153906D01*
X320403Y153916D01*
X320503Y153922D01*
X320604Y153924D01*
X318008Y138884D02*
X329692Y138884D01*
X318008Y138884D02*
X318008Y142130D01*
X318010Y142217D01*
X318016Y142305D01*
X318026Y142391D01*
X318039Y142478D01*
X318057Y142563D01*
X318078Y142648D01*
X318103Y142732D01*
X318132Y142814D01*
X318165Y142895D01*
X318201Y142975D01*
X318240Y143053D01*
X318284Y143129D01*
X318330Y143203D01*
X318380Y143274D01*
X318433Y143344D01*
X318489Y143411D01*
X318548Y143475D01*
X318610Y143537D01*
X318674Y143596D01*
X318741Y143652D01*
X318811Y143705D01*
X318882Y143755D01*
X318956Y143801D01*
X319032Y143845D01*
X319110Y143884D01*
X319190Y143920D01*
X319271Y143953D01*
X319353Y143982D01*
X319437Y144007D01*
X319522Y144028D01*
X319607Y144046D01*
X319694Y144059D01*
X319780Y144069D01*
X319868Y144075D01*
X319955Y144077D01*
X323850Y144077D01*
X323937Y144075D01*
X324025Y144069D01*
X324111Y144059D01*
X324198Y144046D01*
X324283Y144028D01*
X324368Y144007D01*
X324452Y143982D01*
X324534Y143953D01*
X324615Y143920D01*
X324695Y143884D01*
X324773Y143845D01*
X324849Y143801D01*
X324923Y143755D01*
X324994Y143705D01*
X325064Y143652D01*
X325131Y143596D01*
X325195Y143537D01*
X325257Y143475D01*
X325316Y143411D01*
X325372Y143344D01*
X325425Y143274D01*
X325475Y143203D01*
X325521Y143129D01*
X325565Y143053D01*
X325604Y142975D01*
X325640Y142895D01*
X325673Y142814D01*
X325702Y142732D01*
X325727Y142648D01*
X325748Y142563D01*
X325766Y142478D01*
X325779Y142391D01*
X325789Y142305D01*
X325795Y142217D01*
X325797Y142130D01*
X325797Y138884D01*
X318008Y131784D02*
X318008Y128539D01*
X318008Y131784D02*
X318010Y131871D01*
X318016Y131959D01*
X318026Y132045D01*
X318039Y132132D01*
X318057Y132217D01*
X318078Y132302D01*
X318103Y132386D01*
X318132Y132468D01*
X318165Y132549D01*
X318201Y132629D01*
X318240Y132707D01*
X318284Y132783D01*
X318330Y132857D01*
X318380Y132928D01*
X318433Y132998D01*
X318489Y133065D01*
X318548Y133129D01*
X318610Y133191D01*
X318674Y133250D01*
X318741Y133306D01*
X318811Y133359D01*
X318882Y133409D01*
X318956Y133455D01*
X319032Y133499D01*
X319110Y133538D01*
X319190Y133574D01*
X319271Y133607D01*
X319353Y133636D01*
X319437Y133661D01*
X319522Y133682D01*
X319607Y133700D01*
X319694Y133713D01*
X319780Y133723D01*
X319868Y133729D01*
X319955Y133731D01*
X323201Y133731D01*
X323302Y133729D01*
X323402Y133723D01*
X323502Y133713D01*
X323602Y133700D01*
X323701Y133682D01*
X323800Y133661D01*
X323897Y133636D01*
X323994Y133607D01*
X324089Y133574D01*
X324183Y133538D01*
X324275Y133498D01*
X324366Y133455D01*
X324455Y133408D01*
X324542Y133358D01*
X324628Y133304D01*
X324711Y133247D01*
X324791Y133187D01*
X324870Y133124D01*
X324946Y133057D01*
X325019Y132988D01*
X325089Y132916D01*
X325157Y132842D01*
X325222Y132765D01*
X325283Y132685D01*
X325342Y132603D01*
X325397Y132519D01*
X325449Y132433D01*
X325498Y132345D01*
X325543Y132255D01*
X325585Y132163D01*
X325623Y132070D01*
X325657Y131975D01*
X325688Y131880D01*
X325715Y131783D01*
X325738Y131685D01*
X325758Y131586D01*
X325773Y131486D01*
X325785Y131386D01*
X325793Y131286D01*
X325797Y131185D01*
X325797Y131085D01*
X325793Y130984D01*
X325785Y130884D01*
X325773Y130784D01*
X325758Y130684D01*
X325738Y130585D01*
X325715Y130487D01*
X325688Y130390D01*
X325657Y130295D01*
X325623Y130200D01*
X325585Y130107D01*
X325543Y130015D01*
X325498Y129925D01*
X325449Y129837D01*
X325397Y129751D01*
X325342Y129667D01*
X325283Y129585D01*
X325222Y129505D01*
X325157Y129428D01*
X325089Y129354D01*
X325019Y129282D01*
X324946Y129213D01*
X324870Y129146D01*
X324791Y129083D01*
X324711Y129023D01*
X324628Y128966D01*
X324542Y128912D01*
X324455Y128862D01*
X324366Y128815D01*
X324275Y128772D01*
X324183Y128732D01*
X324089Y128696D01*
X323994Y128663D01*
X323897Y128634D01*
X323800Y128609D01*
X323701Y128588D01*
X323602Y128570D01*
X323502Y128557D01*
X323402Y128547D01*
X323302Y128541D01*
X323201Y128539D01*
X321903Y128539D01*
X321903Y133731D01*
X318008Y123378D02*
X325797Y123378D01*
X325797Y119483D01*
X324499Y119483D01*
X322552Y114851D02*
X321254Y111605D01*
X322551Y114851D02*
X322584Y114926D01*
X322620Y115000D01*
X322659Y115072D01*
X322702Y115142D01*
X322748Y115209D01*
X322798Y115275D01*
X322850Y115337D01*
X322906Y115398D01*
X322964Y115455D01*
X323025Y115510D01*
X323089Y115561D01*
X323155Y115609D01*
X323224Y115654D01*
X323294Y115696D01*
X323367Y115734D01*
X323441Y115769D01*
X323517Y115800D01*
X323594Y115827D01*
X323673Y115850D01*
X323752Y115870D01*
X323833Y115885D01*
X323914Y115897D01*
X323996Y115905D01*
X324077Y115909D01*
X324159Y115908D01*
X324241Y115904D01*
X324323Y115896D01*
X324404Y115884D01*
X324484Y115868D01*
X324564Y115848D01*
X324642Y115824D01*
X324719Y115796D01*
X324795Y115765D01*
X324869Y115730D01*
X324941Y115692D01*
X325012Y115650D01*
X325080Y115604D01*
X325146Y115556D01*
X325209Y115504D01*
X325270Y115449D01*
X325328Y115391D01*
X325384Y115331D01*
X325436Y115268D01*
X325485Y115202D01*
X325531Y115134D01*
X325573Y115064D01*
X325613Y114992D01*
X325648Y114918D01*
X325680Y114843D01*
X325708Y114766D01*
X325732Y114688D01*
X325753Y114608D01*
X325770Y114528D01*
X325782Y114447D01*
X325791Y114366D01*
X325796Y114284D01*
X325797Y114202D01*
X325793Y114025D01*
X325784Y113848D01*
X325770Y113671D01*
X325753Y113494D01*
X325731Y113319D01*
X325706Y113143D01*
X325675Y112969D01*
X325641Y112795D01*
X325603Y112622D01*
X325560Y112450D01*
X325513Y112279D01*
X325463Y112109D01*
X325408Y111940D01*
X325349Y111773D01*
X325286Y111608D01*
X325219Y111443D01*
X325148Y111281D01*
X321254Y111605D02*
X321221Y111530D01*
X321185Y111456D01*
X321146Y111384D01*
X321103Y111314D01*
X321057Y111247D01*
X321007Y111181D01*
X320955Y111119D01*
X320899Y111058D01*
X320841Y111001D01*
X320780Y110946D01*
X320716Y110895D01*
X320650Y110847D01*
X320581Y110802D01*
X320511Y110760D01*
X320438Y110722D01*
X320364Y110687D01*
X320288Y110656D01*
X320211Y110629D01*
X320132Y110606D01*
X320053Y110586D01*
X319972Y110571D01*
X319891Y110559D01*
X319809Y110551D01*
X319728Y110547D01*
X319646Y110548D01*
X319564Y110552D01*
X319482Y110560D01*
X319401Y110572D01*
X319321Y110588D01*
X319241Y110608D01*
X319163Y110632D01*
X319086Y110660D01*
X319010Y110691D01*
X318936Y110726D01*
X318864Y110764D01*
X318793Y110806D01*
X318725Y110852D01*
X318659Y110900D01*
X318596Y110952D01*
X318535Y111007D01*
X318477Y111065D01*
X318421Y111125D01*
X318369Y111188D01*
X318320Y111254D01*
X318274Y111322D01*
X318232Y111392D01*
X318192Y111464D01*
X318157Y111538D01*
X318125Y111613D01*
X318097Y111690D01*
X318073Y111768D01*
X318052Y111848D01*
X318035Y111928D01*
X318023Y112009D01*
X318014Y112090D01*
X318009Y112172D01*
X318008Y112254D01*
X318015Y112514D01*
X318028Y112774D01*
X318047Y113034D01*
X318072Y113293D01*
X318104Y113552D01*
X318141Y113809D01*
X318185Y114066D01*
X318234Y114322D01*
X318290Y114576D01*
X318351Y114829D01*
X318419Y115080D01*
X318493Y115330D01*
X318572Y115578D01*
X318657Y115824D01*
X316710Y106299D02*
X330990Y101107D01*
X325797Y96335D02*
X314113Y96335D01*
X325797Y96335D02*
X325797Y93089D01*
X325795Y93002D01*
X325789Y92914D01*
X325779Y92828D01*
X325766Y92741D01*
X325748Y92656D01*
X325727Y92571D01*
X325702Y92487D01*
X325673Y92405D01*
X325640Y92324D01*
X325604Y92244D01*
X325565Y92166D01*
X325521Y92090D01*
X325475Y92016D01*
X325425Y91945D01*
X325372Y91875D01*
X325316Y91808D01*
X325257Y91744D01*
X325196Y91682D01*
X325131Y91623D01*
X325064Y91567D01*
X324994Y91514D01*
X324923Y91464D01*
X324849Y91418D01*
X324773Y91375D01*
X324695Y91335D01*
X324615Y91299D01*
X324534Y91266D01*
X324452Y91237D01*
X324368Y91212D01*
X324283Y91191D01*
X324198Y91173D01*
X324111Y91160D01*
X324025Y91150D01*
X323937Y91144D01*
X323850Y91142D01*
X319955Y91142D01*
X319868Y91144D01*
X319780Y91150D01*
X319694Y91160D01*
X319607Y91173D01*
X319522Y91191D01*
X319437Y91212D01*
X319353Y91237D01*
X319271Y91266D01*
X319190Y91299D01*
X319110Y91335D01*
X319032Y91374D01*
X318956Y91418D01*
X318882Y91464D01*
X318811Y91514D01*
X318741Y91567D01*
X318674Y91623D01*
X318609Y91682D01*
X318548Y91744D01*
X318489Y91808D01*
X318433Y91875D01*
X318380Y91945D01*
X318330Y92016D01*
X318284Y92090D01*
X318240Y92166D01*
X318201Y92244D01*
X318165Y92324D01*
X318132Y92405D01*
X318103Y92487D01*
X318078Y92571D01*
X318057Y92656D01*
X318039Y92741D01*
X318026Y92828D01*
X318016Y92915D01*
X318010Y93002D01*
X318008Y93089D01*
X318008Y96335D01*
X318008Y84527D02*
X318008Y81930D01*
X318008Y84527D02*
X318010Y84614D01*
X318016Y84702D01*
X318026Y84788D01*
X318039Y84875D01*
X318057Y84960D01*
X318078Y85045D01*
X318103Y85129D01*
X318132Y85211D01*
X318165Y85292D01*
X318201Y85372D01*
X318240Y85450D01*
X318284Y85526D01*
X318330Y85600D01*
X318380Y85671D01*
X318433Y85741D01*
X318489Y85808D01*
X318548Y85872D01*
X318610Y85934D01*
X318674Y85993D01*
X318741Y86049D01*
X318811Y86102D01*
X318882Y86152D01*
X318956Y86198D01*
X319032Y86242D01*
X319110Y86281D01*
X319190Y86317D01*
X319271Y86350D01*
X319353Y86379D01*
X319437Y86404D01*
X319522Y86425D01*
X319607Y86443D01*
X319694Y86456D01*
X319780Y86466D01*
X319868Y86472D01*
X319955Y86474D01*
X323850Y86474D01*
X323937Y86472D01*
X324025Y86466D01*
X324111Y86456D01*
X324198Y86443D01*
X324283Y86425D01*
X324368Y86404D01*
X324452Y86379D01*
X324534Y86350D01*
X324615Y86317D01*
X324695Y86281D01*
X324773Y86242D01*
X324849Y86198D01*
X324923Y86152D01*
X324994Y86102D01*
X325064Y86049D01*
X325131Y85993D01*
X325195Y85934D01*
X325257Y85872D01*
X325316Y85808D01*
X325372Y85741D01*
X325425Y85671D01*
X325475Y85600D01*
X325521Y85526D01*
X325565Y85450D01*
X325604Y85372D01*
X325640Y85292D01*
X325673Y85211D01*
X325702Y85129D01*
X325727Y85045D01*
X325748Y84960D01*
X325766Y84875D01*
X325779Y84788D01*
X325789Y84702D01*
X325795Y84614D01*
X325797Y84527D01*
X325797Y81930D01*
X322552Y76751D02*
X321254Y73505D01*
X322551Y76751D02*
X322584Y76826D01*
X322620Y76900D01*
X322659Y76972D01*
X322702Y77042D01*
X322748Y77109D01*
X322798Y77175D01*
X322850Y77237D01*
X322906Y77298D01*
X322964Y77355D01*
X323025Y77410D01*
X323089Y77461D01*
X323155Y77509D01*
X323224Y77554D01*
X323294Y77596D01*
X323367Y77634D01*
X323441Y77669D01*
X323517Y77700D01*
X323594Y77727D01*
X323673Y77750D01*
X323752Y77770D01*
X323833Y77785D01*
X323914Y77797D01*
X323996Y77805D01*
X324077Y77809D01*
X324159Y77808D01*
X324241Y77804D01*
X324323Y77796D01*
X324404Y77784D01*
X324484Y77768D01*
X324564Y77748D01*
X324642Y77724D01*
X324719Y77696D01*
X324795Y77665D01*
X324869Y77630D01*
X324941Y77592D01*
X325012Y77550D01*
X325080Y77504D01*
X325146Y77456D01*
X325209Y77404D01*
X325270Y77349D01*
X325328Y77291D01*
X325384Y77231D01*
X325436Y77168D01*
X325485Y77102D01*
X325531Y77034D01*
X325573Y76964D01*
X325613Y76892D01*
X325648Y76818D01*
X325680Y76743D01*
X325708Y76666D01*
X325732Y76588D01*
X325753Y76508D01*
X325770Y76428D01*
X325782Y76347D01*
X325791Y76266D01*
X325796Y76184D01*
X325797Y76102D01*
X325793Y75925D01*
X325784Y75748D01*
X325770Y75571D01*
X325753Y75394D01*
X325731Y75219D01*
X325706Y75043D01*
X325675Y74869D01*
X325641Y74695D01*
X325603Y74522D01*
X325560Y74350D01*
X325513Y74179D01*
X325463Y74009D01*
X325408Y73840D01*
X325349Y73673D01*
X325286Y73508D01*
X325219Y73343D01*
X325148Y73181D01*
X321254Y73505D02*
X321221Y73430D01*
X321185Y73356D01*
X321146Y73284D01*
X321103Y73214D01*
X321057Y73147D01*
X321007Y73081D01*
X320955Y73019D01*
X320899Y72958D01*
X320841Y72901D01*
X320780Y72846D01*
X320716Y72795D01*
X320650Y72747D01*
X320581Y72702D01*
X320511Y72660D01*
X320438Y72622D01*
X320364Y72587D01*
X320288Y72556D01*
X320211Y72529D01*
X320132Y72506D01*
X320053Y72486D01*
X319972Y72471D01*
X319891Y72459D01*
X319809Y72451D01*
X319728Y72447D01*
X319646Y72448D01*
X319564Y72452D01*
X319482Y72460D01*
X319401Y72472D01*
X319321Y72488D01*
X319241Y72508D01*
X319163Y72532D01*
X319086Y72560D01*
X319010Y72591D01*
X318936Y72626D01*
X318864Y72664D01*
X318793Y72706D01*
X318725Y72752D01*
X318659Y72800D01*
X318596Y72852D01*
X318535Y72907D01*
X318477Y72965D01*
X318421Y73025D01*
X318369Y73088D01*
X318320Y73154D01*
X318274Y73222D01*
X318232Y73292D01*
X318192Y73364D01*
X318157Y73438D01*
X318125Y73513D01*
X318097Y73590D01*
X318073Y73668D01*
X318052Y73748D01*
X318035Y73828D01*
X318023Y73909D01*
X318014Y73990D01*
X318009Y74072D01*
X318008Y74154D01*
X318015Y74414D01*
X318028Y74674D01*
X318047Y74934D01*
X318072Y75193D01*
X318104Y75452D01*
X318141Y75709D01*
X318185Y75966D01*
X318234Y76222D01*
X318290Y76476D01*
X318351Y76729D01*
X318419Y76980D01*
X318493Y77230D01*
X318572Y77478D01*
X318657Y77724D01*
X318008Y68200D02*
X325797Y63007D01*
X325797Y68200D02*
X318008Y63007D01*
X322552Y58449D02*
X322552Y50659D01*
X325797Y45273D02*
X318008Y45273D01*
X325797Y45273D02*
X325797Y41378D01*
X324499Y41378D01*
X318008Y35772D02*
X318008Y32527D01*
X318008Y35772D02*
X318010Y35859D01*
X318016Y35947D01*
X318026Y36033D01*
X318039Y36120D01*
X318057Y36205D01*
X318078Y36290D01*
X318103Y36374D01*
X318132Y36456D01*
X318165Y36537D01*
X318201Y36617D01*
X318240Y36695D01*
X318284Y36771D01*
X318330Y36845D01*
X318380Y36916D01*
X318433Y36986D01*
X318489Y37053D01*
X318548Y37117D01*
X318610Y37179D01*
X318674Y37238D01*
X318741Y37294D01*
X318811Y37347D01*
X318882Y37397D01*
X318956Y37443D01*
X319032Y37487D01*
X319110Y37526D01*
X319190Y37562D01*
X319271Y37595D01*
X319353Y37624D01*
X319437Y37649D01*
X319522Y37670D01*
X319607Y37688D01*
X319694Y37701D01*
X319780Y37711D01*
X319868Y37717D01*
X319955Y37719D01*
X319955Y37720D02*
X323201Y37720D01*
X323201Y37719D02*
X323302Y37717D01*
X323402Y37711D01*
X323502Y37701D01*
X323602Y37688D01*
X323701Y37670D01*
X323800Y37649D01*
X323897Y37624D01*
X323994Y37595D01*
X324089Y37562D01*
X324183Y37526D01*
X324275Y37486D01*
X324366Y37443D01*
X324455Y37396D01*
X324542Y37346D01*
X324628Y37292D01*
X324711Y37235D01*
X324791Y37175D01*
X324870Y37112D01*
X324946Y37045D01*
X325019Y36976D01*
X325089Y36904D01*
X325157Y36830D01*
X325222Y36753D01*
X325283Y36673D01*
X325342Y36591D01*
X325397Y36507D01*
X325449Y36421D01*
X325498Y36333D01*
X325543Y36243D01*
X325585Y36151D01*
X325623Y36058D01*
X325657Y35963D01*
X325688Y35868D01*
X325715Y35771D01*
X325738Y35673D01*
X325758Y35574D01*
X325773Y35474D01*
X325785Y35374D01*
X325793Y35274D01*
X325797Y35173D01*
X325797Y35073D01*
X325793Y34972D01*
X325785Y34872D01*
X325773Y34772D01*
X325758Y34672D01*
X325738Y34573D01*
X325715Y34475D01*
X325688Y34378D01*
X325657Y34283D01*
X325623Y34188D01*
X325585Y34095D01*
X325543Y34003D01*
X325498Y33913D01*
X325449Y33825D01*
X325397Y33739D01*
X325342Y33655D01*
X325283Y33573D01*
X325222Y33493D01*
X325157Y33416D01*
X325089Y33342D01*
X325019Y33270D01*
X324946Y33201D01*
X324870Y33134D01*
X324791Y33071D01*
X324711Y33011D01*
X324628Y32954D01*
X324542Y32900D01*
X324455Y32850D01*
X324366Y32803D01*
X324275Y32760D01*
X324183Y32720D01*
X324089Y32684D01*
X323994Y32651D01*
X323897Y32622D01*
X323800Y32597D01*
X323701Y32576D01*
X323602Y32558D01*
X323502Y32545D01*
X323402Y32535D01*
X323302Y32529D01*
X323201Y32527D01*
X321903Y32527D01*
X321903Y37720D01*
X318008Y22680D02*
X329692Y22680D01*
X318008Y22680D02*
X318008Y25925D01*
X318010Y26012D01*
X318016Y26100D01*
X318026Y26186D01*
X318039Y26273D01*
X318057Y26358D01*
X318078Y26443D01*
X318103Y26527D01*
X318132Y26609D01*
X318165Y26690D01*
X318201Y26770D01*
X318240Y26848D01*
X318284Y26924D01*
X318330Y26998D01*
X318380Y27069D01*
X318433Y27139D01*
X318489Y27206D01*
X318548Y27270D01*
X318610Y27332D01*
X318674Y27391D01*
X318741Y27447D01*
X318811Y27500D01*
X318882Y27550D01*
X318956Y27596D01*
X319032Y27640D01*
X319110Y27679D01*
X319190Y27715D01*
X319271Y27748D01*
X319353Y27777D01*
X319437Y27802D01*
X319522Y27823D01*
X319607Y27841D01*
X319694Y27854D01*
X319780Y27864D01*
X319868Y27870D01*
X319955Y27872D01*
X323850Y27872D01*
X323937Y27870D01*
X324025Y27864D01*
X324111Y27854D01*
X324198Y27841D01*
X324283Y27823D01*
X324368Y27802D01*
X324452Y27777D01*
X324534Y27748D01*
X324615Y27715D01*
X324695Y27679D01*
X324773Y27640D01*
X324849Y27596D01*
X324923Y27550D01*
X324994Y27500D01*
X325064Y27447D01*
X325131Y27391D01*
X325195Y27332D01*
X325257Y27270D01*
X325316Y27206D01*
X325372Y27139D01*
X325425Y27069D01*
X325475Y26998D01*
X325521Y26924D01*
X325565Y26848D01*
X325604Y26770D01*
X325640Y26690D01*
X325673Y26609D01*
X325702Y26527D01*
X325727Y26443D01*
X325748Y26358D01*
X325766Y26273D01*
X325779Y26186D01*
X325789Y26100D01*
X325795Y26012D01*
X325797Y25925D01*
X325797Y22680D01*
X325797Y17146D02*
X319955Y17146D01*
X319955Y17145D02*
X319868Y17143D01*
X319780Y17137D01*
X319694Y17127D01*
X319607Y17114D01*
X319522Y17096D01*
X319437Y17075D01*
X319353Y17050D01*
X319271Y17021D01*
X319190Y16988D01*
X319110Y16952D01*
X319032Y16913D01*
X318956Y16869D01*
X318882Y16823D01*
X318811Y16773D01*
X318741Y16720D01*
X318674Y16664D01*
X318610Y16605D01*
X318548Y16543D01*
X318489Y16479D01*
X318433Y16412D01*
X318380Y16342D01*
X318330Y16271D01*
X318284Y16197D01*
X318240Y16121D01*
X318201Y16043D01*
X318165Y15963D01*
X318132Y15882D01*
X318103Y15800D01*
X318078Y15716D01*
X318057Y15631D01*
X318039Y15546D01*
X318026Y15459D01*
X318016Y15373D01*
X318010Y15285D01*
X318008Y15198D01*
X318008Y11953D01*
X325797Y11953D01*
X318008Y7240D02*
X325797Y2047D01*
X325797Y7240D02*
X318008Y2047D01*
D13*
X233045Y383893D02*
X233045Y388352D01*
X233047Y388484D01*
X233053Y388616D01*
X233063Y388748D01*
X233076Y388879D01*
X233094Y389010D01*
X233115Y389141D01*
X233141Y389270D01*
X233170Y389399D01*
X233203Y389527D01*
X233239Y389654D01*
X233280Y389780D01*
X233324Y389905D01*
X233372Y390028D01*
X233423Y390150D01*
X233478Y390270D01*
X233537Y390388D01*
X233599Y390505D01*
X233665Y390620D01*
X233733Y390732D01*
X233806Y390843D01*
X233881Y390952D01*
X233960Y391058D01*
X234041Y391162D01*
X234126Y391263D01*
X234214Y391362D01*
X234305Y391458D01*
X234398Y391551D01*
X234494Y391642D01*
X234593Y391730D01*
X234694Y391815D01*
X234798Y391896D01*
X234905Y391975D01*
X235013Y392050D01*
X235124Y392123D01*
X235236Y392191D01*
X235351Y392257D01*
X235468Y392319D01*
X235586Y392378D01*
X235706Y392433D01*
X235828Y392484D01*
X235951Y392532D01*
X236076Y392576D01*
X236202Y392617D01*
X236329Y392653D01*
X236457Y392686D01*
X236586Y392715D01*
X236715Y392741D01*
X236846Y392762D01*
X236977Y392780D01*
X237108Y392793D01*
X237240Y392803D01*
X237372Y392809D01*
X237504Y392811D01*
X248652Y392811D01*
X248784Y392809D01*
X248916Y392803D01*
X249048Y392793D01*
X249179Y392780D01*
X249310Y392762D01*
X249441Y392741D01*
X249570Y392715D01*
X249699Y392686D01*
X249827Y392653D01*
X249954Y392617D01*
X250080Y392576D01*
X250205Y392532D01*
X250328Y392484D01*
X250450Y392433D01*
X250570Y392378D01*
X250688Y392319D01*
X250805Y392257D01*
X250920Y392191D01*
X251032Y392123D01*
X251143Y392050D01*
X251251Y391975D01*
X251358Y391896D01*
X251462Y391815D01*
X251563Y391730D01*
X251662Y391642D01*
X251758Y391551D01*
X251851Y391458D01*
X251942Y391362D01*
X252030Y391263D01*
X252114Y391162D01*
X252196Y391058D01*
X252275Y390952D01*
X252350Y390843D01*
X252422Y390732D01*
X252491Y390620D01*
X252557Y390505D01*
X252619Y390388D01*
X252678Y390270D01*
X252733Y390150D01*
X252784Y390028D01*
X252832Y389905D01*
X252876Y389780D01*
X252917Y389654D01*
X252953Y389527D01*
X252986Y389399D01*
X253015Y389271D01*
X253041Y389141D01*
X253062Y389010D01*
X253080Y388879D01*
X253093Y388748D01*
X253103Y388616D01*
X253109Y388484D01*
X253111Y388352D01*
X253111Y383893D01*
X253111Y376712D02*
X233045Y376712D01*
X244193Y376712D02*
X244193Y365564D01*
X253111Y365564D02*
X233045Y365564D01*
X233045Y357556D02*
X233045Y351982D01*
X233047Y351834D01*
X233053Y351685D01*
X233063Y351537D01*
X233077Y351390D01*
X233094Y351242D01*
X233116Y351095D01*
X233142Y350949D01*
X233171Y350804D01*
X233204Y350659D01*
X233241Y350515D01*
X233282Y350373D01*
X233327Y350231D01*
X233376Y350091D01*
X233428Y349952D01*
X233484Y349815D01*
X233543Y349679D01*
X233606Y349544D01*
X233673Y349412D01*
X233743Y349281D01*
X233817Y349152D01*
X233894Y349025D01*
X233974Y348901D01*
X234058Y348778D01*
X234145Y348658D01*
X234235Y348540D01*
X234328Y348424D01*
X234424Y348311D01*
X234523Y348201D01*
X234625Y348093D01*
X234730Y347988D01*
X234838Y347886D01*
X234948Y347787D01*
X235061Y347691D01*
X235177Y347598D01*
X235295Y347508D01*
X235415Y347421D01*
X235538Y347337D01*
X235662Y347257D01*
X235789Y347180D01*
X235918Y347106D01*
X236049Y347036D01*
X236181Y346969D01*
X236316Y346906D01*
X236452Y346847D01*
X236589Y346791D01*
X236728Y346739D01*
X236868Y346690D01*
X237010Y346645D01*
X237152Y346604D01*
X237296Y346567D01*
X237441Y346534D01*
X237586Y346505D01*
X237732Y346479D01*
X237879Y346457D01*
X238027Y346440D01*
X238174Y346426D01*
X238322Y346416D01*
X238471Y346410D01*
X238619Y346408D01*
X238767Y346410D01*
X238916Y346416D01*
X239064Y346426D01*
X239211Y346440D01*
X239359Y346457D01*
X239506Y346479D01*
X239652Y346505D01*
X239797Y346534D01*
X239942Y346567D01*
X240086Y346604D01*
X240228Y346645D01*
X240370Y346690D01*
X240510Y346739D01*
X240649Y346791D01*
X240786Y346847D01*
X240922Y346906D01*
X241057Y346969D01*
X241189Y347036D01*
X241320Y347106D01*
X241449Y347180D01*
X241576Y347257D01*
X241700Y347337D01*
X241823Y347421D01*
X241943Y347508D01*
X242061Y347598D01*
X242177Y347691D01*
X242290Y347787D01*
X242400Y347886D01*
X242508Y347988D01*
X242613Y348093D01*
X242715Y348201D01*
X242814Y348311D01*
X242910Y348424D01*
X243003Y348540D01*
X243093Y348658D01*
X243180Y348778D01*
X243264Y348901D01*
X243344Y349025D01*
X243421Y349152D01*
X243495Y349281D01*
X243565Y349412D01*
X243632Y349544D01*
X243695Y349679D01*
X243754Y349815D01*
X243810Y349952D01*
X243862Y350091D01*
X243911Y350231D01*
X243956Y350373D01*
X243997Y350515D01*
X244034Y350659D01*
X244067Y350804D01*
X244096Y350949D01*
X244122Y351095D01*
X244144Y351242D01*
X244161Y351390D01*
X244175Y351537D01*
X244185Y351685D01*
X244191Y351834D01*
X244193Y351982D01*
X253111Y350867D02*
X253111Y357556D01*
X253111Y350867D02*
X253109Y350735D01*
X253103Y350603D01*
X253093Y350471D01*
X253080Y350340D01*
X253062Y350209D01*
X253041Y350078D01*
X253015Y349949D01*
X252986Y349820D01*
X252953Y349692D01*
X252917Y349565D01*
X252876Y349439D01*
X252832Y349314D01*
X252784Y349191D01*
X252733Y349069D01*
X252678Y348949D01*
X252619Y348831D01*
X252557Y348714D01*
X252491Y348599D01*
X252423Y348487D01*
X252350Y348376D01*
X252275Y348267D01*
X252196Y348161D01*
X252115Y348057D01*
X252030Y347956D01*
X251942Y347857D01*
X251851Y347761D01*
X251758Y347668D01*
X251662Y347577D01*
X251563Y347489D01*
X251462Y347404D01*
X251358Y347323D01*
X251252Y347244D01*
X251143Y347169D01*
X251032Y347096D01*
X250920Y347028D01*
X250805Y346962D01*
X250688Y346900D01*
X250570Y346841D01*
X250450Y346786D01*
X250328Y346735D01*
X250205Y346687D01*
X250080Y346643D01*
X249954Y346602D01*
X249827Y346566D01*
X249699Y346533D01*
X249570Y346504D01*
X249441Y346478D01*
X249310Y346457D01*
X249179Y346439D01*
X249048Y346426D01*
X248916Y346416D01*
X248784Y346410D01*
X248652Y346408D01*
X248520Y346410D01*
X248388Y346416D01*
X248256Y346426D01*
X248125Y346439D01*
X247994Y346457D01*
X247863Y346478D01*
X247734Y346504D01*
X247605Y346533D01*
X247477Y346566D01*
X247350Y346602D01*
X247224Y346643D01*
X247099Y346687D01*
X246976Y346735D01*
X246854Y346786D01*
X246734Y346841D01*
X246616Y346900D01*
X246499Y346962D01*
X246384Y347028D01*
X246272Y347096D01*
X246161Y347169D01*
X246052Y347244D01*
X245946Y347323D01*
X245842Y347404D01*
X245741Y347489D01*
X245642Y347577D01*
X245546Y347668D01*
X245453Y347761D01*
X245362Y347857D01*
X245274Y347956D01*
X245189Y348057D01*
X245108Y348161D01*
X245029Y348267D01*
X244954Y348376D01*
X244881Y348487D01*
X244813Y348599D01*
X244747Y348714D01*
X244685Y348831D01*
X244626Y348949D01*
X244571Y349069D01*
X244520Y349191D01*
X244472Y349314D01*
X244428Y349439D01*
X244387Y349565D01*
X244351Y349692D01*
X244318Y349820D01*
X244289Y349949D01*
X244263Y350078D01*
X244242Y350209D01*
X244224Y350340D01*
X244211Y350471D01*
X244201Y350603D01*
X244195Y350735D01*
X244193Y350867D01*
X244193Y355326D01*
X250881Y339017D02*
X253111Y339017D01*
X253111Y327870D01*
X233045Y333444D01*
X233045Y321218D02*
X246422Y312300D01*
X246422Y321218D02*
X233045Y312300D01*
X233045Y291335D02*
X233045Y286876D01*
X233045Y291335D02*
X233047Y291467D01*
X233053Y291599D01*
X233063Y291731D01*
X233076Y291862D01*
X233094Y291993D01*
X233115Y292124D01*
X233141Y292253D01*
X233170Y292382D01*
X233203Y292510D01*
X233239Y292637D01*
X233280Y292763D01*
X233324Y292888D01*
X233372Y293011D01*
X233423Y293133D01*
X233478Y293253D01*
X233537Y293371D01*
X233599Y293488D01*
X233665Y293603D01*
X233733Y293715D01*
X233806Y293826D01*
X233881Y293935D01*
X233960Y294041D01*
X234041Y294145D01*
X234126Y294246D01*
X234214Y294345D01*
X234305Y294441D01*
X234398Y294534D01*
X234494Y294625D01*
X234593Y294713D01*
X234694Y294798D01*
X234798Y294879D01*
X234905Y294958D01*
X235013Y295033D01*
X235124Y295106D01*
X235236Y295174D01*
X235351Y295240D01*
X235468Y295302D01*
X235586Y295361D01*
X235706Y295416D01*
X235828Y295467D01*
X235951Y295515D01*
X236076Y295559D01*
X236202Y295600D01*
X236329Y295636D01*
X236457Y295669D01*
X236586Y295698D01*
X236715Y295724D01*
X236846Y295745D01*
X236977Y295763D01*
X237108Y295776D01*
X237240Y295786D01*
X237372Y295792D01*
X237504Y295794D01*
X248652Y295794D01*
X248784Y295792D01*
X248916Y295786D01*
X249048Y295776D01*
X249179Y295763D01*
X249310Y295745D01*
X249441Y295724D01*
X249570Y295698D01*
X249699Y295669D01*
X249827Y295636D01*
X249954Y295600D01*
X250080Y295559D01*
X250205Y295515D01*
X250328Y295467D01*
X250450Y295416D01*
X250570Y295361D01*
X250688Y295302D01*
X250805Y295240D01*
X250920Y295174D01*
X251032Y295106D01*
X251143Y295033D01*
X251251Y294958D01*
X251358Y294879D01*
X251462Y294798D01*
X251563Y294713D01*
X251662Y294625D01*
X251758Y294534D01*
X251851Y294441D01*
X251942Y294345D01*
X252030Y294246D01*
X252114Y294145D01*
X252196Y294041D01*
X252275Y293935D01*
X252350Y293826D01*
X252422Y293715D01*
X252491Y293603D01*
X252557Y293488D01*
X252619Y293371D01*
X252678Y293253D01*
X252733Y293133D01*
X252784Y293011D01*
X252832Y292888D01*
X252876Y292763D01*
X252917Y292637D01*
X252953Y292510D01*
X252986Y292382D01*
X253015Y292254D01*
X253041Y292124D01*
X253062Y291993D01*
X253080Y291862D01*
X253093Y291731D01*
X253103Y291599D01*
X253109Y291467D01*
X253111Y291335D01*
X253111Y286876D01*
X240848Y276597D02*
X240848Y271581D01*
X240849Y276597D02*
X240847Y276721D01*
X240841Y276844D01*
X240831Y276968D01*
X240818Y277091D01*
X240800Y277214D01*
X240778Y277335D01*
X240753Y277457D01*
X240724Y277577D01*
X240691Y277696D01*
X240654Y277815D01*
X240614Y277932D01*
X240569Y278047D01*
X240522Y278161D01*
X240470Y278274D01*
X240415Y278385D01*
X240357Y278494D01*
X240295Y278601D01*
X240230Y278707D01*
X240161Y278810D01*
X240089Y278911D01*
X240014Y279009D01*
X239936Y279105D01*
X239855Y279199D01*
X239771Y279290D01*
X239684Y279378D01*
X239595Y279463D01*
X239502Y279546D01*
X239407Y279626D01*
X239310Y279702D01*
X239210Y279775D01*
X239108Y279846D01*
X239004Y279913D01*
X238898Y279976D01*
X238790Y280036D01*
X238680Y280093D01*
X238568Y280146D01*
X238455Y280196D01*
X238340Y280242D01*
X238223Y280284D01*
X238106Y280323D01*
X237987Y280358D01*
X237867Y280389D01*
X237746Y280416D01*
X237625Y280440D01*
X237502Y280459D01*
X237379Y280475D01*
X237256Y280487D01*
X237133Y280495D01*
X237009Y280499D01*
X236885Y280499D01*
X236761Y280495D01*
X236638Y280487D01*
X236515Y280475D01*
X236392Y280459D01*
X236269Y280440D01*
X236148Y280416D01*
X236027Y280389D01*
X235907Y280358D01*
X235788Y280323D01*
X235671Y280284D01*
X235554Y280242D01*
X235439Y280196D01*
X235326Y280146D01*
X235214Y280093D01*
X235104Y280036D01*
X234996Y279976D01*
X234890Y279913D01*
X234786Y279846D01*
X234684Y279775D01*
X234584Y279702D01*
X234487Y279626D01*
X234392Y279546D01*
X234299Y279463D01*
X234210Y279378D01*
X234123Y279290D01*
X234039Y279199D01*
X233958Y279105D01*
X233880Y279009D01*
X233805Y278911D01*
X233733Y278810D01*
X233664Y278707D01*
X233599Y278601D01*
X233537Y278494D01*
X233479Y278385D01*
X233424Y278274D01*
X233372Y278161D01*
X233325Y278047D01*
X233280Y277932D01*
X233240Y277815D01*
X233203Y277696D01*
X233170Y277577D01*
X233141Y277457D01*
X233116Y277335D01*
X233094Y277214D01*
X233076Y277091D01*
X233063Y276968D01*
X233053Y276844D01*
X233047Y276721D01*
X233045Y276597D01*
X233045Y271581D01*
X243078Y271581D01*
X243192Y271583D01*
X243306Y271589D01*
X243420Y271599D01*
X243533Y271612D01*
X243646Y271630D01*
X243758Y271651D01*
X243870Y271676D01*
X243980Y271705D01*
X244090Y271738D01*
X244198Y271774D01*
X244305Y271814D01*
X244410Y271858D01*
X244514Y271905D01*
X244616Y271956D01*
X244717Y272010D01*
X244815Y272068D01*
X244912Y272129D01*
X245006Y272193D01*
X245099Y272260D01*
X245188Y272331D01*
X245276Y272405D01*
X245360Y272481D01*
X245443Y272560D01*
X245522Y272643D01*
X245598Y272727D01*
X245672Y272815D01*
X245743Y272904D01*
X245810Y272997D01*
X245874Y273091D01*
X245935Y273188D01*
X245993Y273286D01*
X246047Y273387D01*
X246098Y273489D01*
X246145Y273593D01*
X246189Y273698D01*
X246229Y273805D01*
X246265Y273913D01*
X246298Y274023D01*
X246327Y274133D01*
X246352Y274245D01*
X246373Y274357D01*
X246391Y274470D01*
X246404Y274583D01*
X246414Y274697D01*
X246420Y274811D01*
X246422Y274925D01*
X246422Y279384D01*
X246422Y263053D02*
X233045Y263053D01*
X246422Y263053D02*
X246422Y256364D01*
X244193Y256364D01*
X246422Y252234D02*
X246422Y245546D01*
X253111Y250005D02*
X236389Y250005D01*
X236389Y250004D02*
X236275Y250002D01*
X236161Y249996D01*
X236047Y249986D01*
X235934Y249973D01*
X235821Y249955D01*
X235709Y249934D01*
X235597Y249909D01*
X235487Y249880D01*
X235377Y249847D01*
X235269Y249811D01*
X235162Y249771D01*
X235057Y249727D01*
X234953Y249680D01*
X234851Y249629D01*
X234750Y249575D01*
X234652Y249517D01*
X234555Y249456D01*
X234461Y249392D01*
X234368Y249325D01*
X234279Y249254D01*
X234191Y249180D01*
X234107Y249104D01*
X234024Y249025D01*
X233945Y248942D01*
X233869Y248858D01*
X233795Y248770D01*
X233724Y248681D01*
X233657Y248588D01*
X233593Y248494D01*
X233532Y248397D01*
X233474Y248299D01*
X233420Y248198D01*
X233369Y248096D01*
X233322Y247992D01*
X233278Y247887D01*
X233238Y247780D01*
X233202Y247672D01*
X233169Y247562D01*
X233140Y247452D01*
X233115Y247340D01*
X233094Y247228D01*
X233076Y247115D01*
X233063Y247002D01*
X233053Y246888D01*
X233047Y246774D01*
X233045Y246660D01*
X233045Y245546D01*
X233045Y225303D02*
X246422Y229762D01*
X246422Y220844D02*
X233045Y225303D01*
X248652Y214193D02*
X253111Y208619D01*
X233045Y208619D01*
X233045Y214193D02*
X233045Y203045D01*
X233045Y196199D02*
X234160Y196199D01*
X234160Y195085D01*
X233045Y195085D01*
X233045Y196199D01*
X243078Y188239D02*
X243473Y188234D01*
X243867Y188220D01*
X244261Y188197D01*
X244655Y188164D01*
X245047Y188121D01*
X245439Y188070D01*
X245829Y188009D01*
X246217Y187938D01*
X246604Y187859D01*
X246988Y187770D01*
X247371Y187672D01*
X247751Y187565D01*
X248128Y187449D01*
X248502Y187324D01*
X248874Y187190D01*
X249242Y187047D01*
X249606Y186896D01*
X249967Y186736D01*
X250324Y186567D01*
X250444Y186524D01*
X250563Y186477D01*
X250681Y186426D01*
X250796Y186372D01*
X250910Y186314D01*
X251023Y186252D01*
X251133Y186187D01*
X251241Y186119D01*
X251347Y186047D01*
X251451Y185973D01*
X251552Y185895D01*
X251651Y185813D01*
X251747Y185729D01*
X251841Y185642D01*
X251932Y185552D01*
X252020Y185460D01*
X252105Y185364D01*
X252188Y185266D01*
X252267Y185166D01*
X252343Y185063D01*
X252415Y184957D01*
X252485Y184850D01*
X252551Y184740D01*
X252614Y184629D01*
X252673Y184515D01*
X252728Y184400D01*
X252780Y184283D01*
X252829Y184165D01*
X252873Y184045D01*
X252914Y183924D01*
X252951Y183801D01*
X252985Y183678D01*
X253014Y183553D01*
X253040Y183428D01*
X253062Y183302D01*
X253079Y183175D01*
X253093Y183048D01*
X253103Y182921D01*
X253109Y182793D01*
X253111Y182665D01*
X253109Y182537D01*
X253103Y182409D01*
X253093Y182282D01*
X253079Y182155D01*
X253062Y182028D01*
X253040Y181902D01*
X253014Y181777D01*
X252985Y181652D01*
X252951Y181529D01*
X252914Y181406D01*
X252873Y181285D01*
X252829Y181165D01*
X252780Y181047D01*
X252728Y180930D01*
X252673Y180815D01*
X252614Y180701D01*
X252551Y180590D01*
X252485Y180480D01*
X252415Y180373D01*
X252343Y180267D01*
X252267Y180164D01*
X252188Y180064D01*
X252105Y179966D01*
X252020Y179870D01*
X251932Y179778D01*
X251841Y179688D01*
X251747Y179601D01*
X251651Y179517D01*
X251552Y179435D01*
X251451Y179357D01*
X251347Y179283D01*
X251241Y179211D01*
X251133Y179143D01*
X251023Y179078D01*
X250910Y179016D01*
X250796Y178958D01*
X250681Y178904D01*
X250563Y178853D01*
X250444Y178806D01*
X250324Y178763D01*
X249967Y178594D01*
X249606Y178434D01*
X249242Y178283D01*
X248874Y178140D01*
X248503Y178006D01*
X248128Y177881D01*
X247751Y177765D01*
X247371Y177658D01*
X246988Y177560D01*
X246604Y177471D01*
X246217Y177392D01*
X245829Y177321D01*
X245439Y177260D01*
X245047Y177209D01*
X244655Y177166D01*
X244261Y177133D01*
X243867Y177110D01*
X243473Y177096D01*
X243078Y177091D01*
X243078Y188239D02*
X242683Y188234D01*
X242289Y188220D01*
X241895Y188197D01*
X241501Y188164D01*
X241109Y188121D01*
X240717Y188070D01*
X240327Y188009D01*
X239939Y187938D01*
X239552Y187859D01*
X239168Y187770D01*
X238785Y187672D01*
X238405Y187565D01*
X238028Y187449D01*
X237654Y187324D01*
X237282Y187190D01*
X236914Y187047D01*
X236550Y186896D01*
X236189Y186736D01*
X235832Y186567D01*
X235712Y186524D01*
X235593Y186477D01*
X235475Y186426D01*
X235360Y186372D01*
X235246Y186314D01*
X235133Y186252D01*
X235023Y186187D01*
X234915Y186119D01*
X234809Y186047D01*
X234705Y185973D01*
X234604Y185895D01*
X234505Y185813D01*
X234409Y185729D01*
X234315Y185642D01*
X234224Y185552D01*
X234136Y185460D01*
X234051Y185364D01*
X233968Y185266D01*
X233889Y185166D01*
X233813Y185063D01*
X233741Y184957D01*
X233671Y184850D01*
X233605Y184740D01*
X233542Y184629D01*
X233483Y184515D01*
X233428Y184400D01*
X233376Y184283D01*
X233327Y184165D01*
X233283Y184045D01*
X233242Y183924D01*
X233205Y183801D01*
X233171Y183678D01*
X233142Y183553D01*
X233116Y183428D01*
X233094Y183302D01*
X233077Y183175D01*
X233063Y183048D01*
X233053Y182921D01*
X233047Y182793D01*
X233045Y182665D01*
X235832Y178763D02*
X236189Y178594D01*
X236550Y178434D01*
X236914Y178283D01*
X237282Y178140D01*
X237654Y178006D01*
X238028Y177881D01*
X238405Y177765D01*
X238785Y177658D01*
X239168Y177560D01*
X239552Y177471D01*
X239939Y177392D01*
X240327Y177321D01*
X240717Y177260D01*
X241109Y177209D01*
X241501Y177166D01*
X241895Y177133D01*
X242289Y177110D01*
X242683Y177096D01*
X243078Y177091D01*
X235832Y178763D02*
X235712Y178806D01*
X235593Y178853D01*
X235475Y178904D01*
X235360Y178958D01*
X235246Y179016D01*
X235133Y179078D01*
X235023Y179143D01*
X234915Y179211D01*
X234809Y179283D01*
X234705Y179357D01*
X234604Y179435D01*
X234505Y179517D01*
X234409Y179601D01*
X234315Y179688D01*
X234224Y179778D01*
X234136Y179870D01*
X234051Y179966D01*
X233968Y180064D01*
X233889Y180164D01*
X233813Y180267D01*
X233741Y180373D01*
X233671Y180480D01*
X233605Y180590D01*
X233542Y180701D01*
X233483Y180815D01*
X233428Y180930D01*
X233376Y181047D01*
X233327Y181165D01*
X233283Y181285D01*
X233242Y181406D01*
X233205Y181529D01*
X233171Y181652D01*
X233142Y181777D01*
X233116Y181902D01*
X233094Y182028D01*
X233077Y182155D01*
X233063Y182282D01*
X233053Y182409D01*
X233047Y182537D01*
X233045Y182665D01*
X237504Y187124D02*
X248652Y178206D01*
X220345Y392811D02*
X200279Y392811D01*
X200279Y381663D02*
X220345Y392811D01*
X220345Y381663D02*
X200279Y381663D01*
X200279Y373642D02*
X213656Y373642D01*
X219230Y374200D02*
X220345Y374200D01*
X220345Y373085D01*
X219230Y373085D01*
X219230Y374200D01*
X200279Y362999D02*
X200279Y358540D01*
X200279Y362999D02*
X200281Y363113D01*
X200287Y363227D01*
X200297Y363341D01*
X200310Y363454D01*
X200328Y363567D01*
X200349Y363679D01*
X200374Y363791D01*
X200403Y363901D01*
X200436Y364011D01*
X200472Y364119D01*
X200512Y364226D01*
X200556Y364331D01*
X200603Y364435D01*
X200654Y364537D01*
X200708Y364638D01*
X200766Y364736D01*
X200827Y364833D01*
X200891Y364927D01*
X200958Y365020D01*
X201029Y365109D01*
X201103Y365197D01*
X201179Y365281D01*
X201258Y365364D01*
X201341Y365443D01*
X201425Y365519D01*
X201513Y365593D01*
X201602Y365664D01*
X201695Y365731D01*
X201789Y365795D01*
X201886Y365856D01*
X201984Y365914D01*
X202085Y365968D01*
X202187Y366019D01*
X202291Y366066D01*
X202396Y366110D01*
X202503Y366150D01*
X202611Y366186D01*
X202721Y366219D01*
X202831Y366248D01*
X202943Y366273D01*
X203055Y366294D01*
X203168Y366312D01*
X203281Y366325D01*
X203395Y366335D01*
X203509Y366341D01*
X203623Y366343D01*
X203623Y366344D02*
X210312Y366344D01*
X210312Y366343D02*
X210426Y366341D01*
X210540Y366335D01*
X210654Y366325D01*
X210767Y366312D01*
X210880Y366294D01*
X210992Y366273D01*
X211104Y366248D01*
X211214Y366219D01*
X211324Y366186D01*
X211432Y366150D01*
X211539Y366110D01*
X211644Y366066D01*
X211748Y366019D01*
X211850Y365968D01*
X211951Y365914D01*
X212049Y365856D01*
X212146Y365795D01*
X212240Y365731D01*
X212333Y365664D01*
X212422Y365593D01*
X212510Y365519D01*
X212594Y365443D01*
X212677Y365364D01*
X212756Y365281D01*
X212832Y365197D01*
X212906Y365109D01*
X212977Y365020D01*
X213044Y364927D01*
X213108Y364833D01*
X213169Y364736D01*
X213227Y364638D01*
X213281Y364537D01*
X213332Y364435D01*
X213379Y364331D01*
X213423Y364226D01*
X213463Y364119D01*
X213499Y364011D01*
X213532Y363901D01*
X213561Y363791D01*
X213586Y363679D01*
X213607Y363567D01*
X213625Y363454D01*
X213638Y363341D01*
X213648Y363227D01*
X213654Y363113D01*
X213656Y362999D01*
X213656Y358540D01*
X209197Y352148D02*
X204738Y352148D01*
X209197Y352148D02*
X209329Y352146D01*
X209461Y352140D01*
X209593Y352130D01*
X209724Y352117D01*
X209855Y352099D01*
X209986Y352078D01*
X210115Y352052D01*
X210244Y352023D01*
X210372Y351990D01*
X210499Y351954D01*
X210625Y351913D01*
X210750Y351869D01*
X210873Y351821D01*
X210995Y351770D01*
X211115Y351715D01*
X211233Y351656D01*
X211350Y351594D01*
X211465Y351528D01*
X211577Y351460D01*
X211688Y351387D01*
X211797Y351312D01*
X211903Y351233D01*
X212007Y351152D01*
X212108Y351067D01*
X212207Y350979D01*
X212303Y350888D01*
X212396Y350795D01*
X212487Y350699D01*
X212575Y350600D01*
X212660Y350499D01*
X212741Y350395D01*
X212820Y350289D01*
X212895Y350180D01*
X212968Y350069D01*
X213036Y349957D01*
X213102Y349842D01*
X213164Y349725D01*
X213223Y349607D01*
X213278Y349487D01*
X213329Y349365D01*
X213377Y349242D01*
X213421Y349117D01*
X213462Y348991D01*
X213498Y348864D01*
X213531Y348736D01*
X213560Y348607D01*
X213586Y348478D01*
X213607Y348347D01*
X213625Y348216D01*
X213638Y348085D01*
X213648Y347953D01*
X213654Y347821D01*
X213656Y347689D01*
X213654Y347557D01*
X213648Y347425D01*
X213638Y347293D01*
X213625Y347162D01*
X213607Y347031D01*
X213586Y346900D01*
X213560Y346771D01*
X213531Y346642D01*
X213498Y346514D01*
X213462Y346387D01*
X213421Y346261D01*
X213377Y346136D01*
X213329Y346013D01*
X213278Y345891D01*
X213223Y345771D01*
X213164Y345653D01*
X213102Y345536D01*
X213036Y345421D01*
X212968Y345309D01*
X212895Y345198D01*
X212820Y345089D01*
X212741Y344983D01*
X212660Y344879D01*
X212575Y344778D01*
X212487Y344679D01*
X212396Y344583D01*
X212303Y344490D01*
X212207Y344399D01*
X212108Y344311D01*
X212007Y344226D01*
X211903Y344145D01*
X211797Y344066D01*
X211688Y343991D01*
X211577Y343918D01*
X211465Y343850D01*
X211350Y343784D01*
X211233Y343722D01*
X211115Y343663D01*
X210995Y343608D01*
X210873Y343557D01*
X210750Y343509D01*
X210625Y343465D01*
X210499Y343424D01*
X210372Y343388D01*
X210244Y343355D01*
X210115Y343326D01*
X209986Y343300D01*
X209855Y343279D01*
X209724Y343261D01*
X209593Y343248D01*
X209461Y343238D01*
X209329Y343232D01*
X209197Y343230D01*
X204738Y343230D01*
X204606Y343232D01*
X204474Y343238D01*
X204342Y343248D01*
X204211Y343261D01*
X204080Y343279D01*
X203949Y343300D01*
X203820Y343326D01*
X203691Y343355D01*
X203563Y343388D01*
X203436Y343424D01*
X203310Y343465D01*
X203185Y343509D01*
X203062Y343557D01*
X202940Y343608D01*
X202820Y343663D01*
X202702Y343722D01*
X202585Y343784D01*
X202470Y343850D01*
X202358Y343918D01*
X202247Y343991D01*
X202138Y344066D01*
X202032Y344145D01*
X201928Y344226D01*
X201827Y344311D01*
X201728Y344399D01*
X201632Y344490D01*
X201539Y344583D01*
X201448Y344679D01*
X201360Y344778D01*
X201275Y344879D01*
X201194Y344983D01*
X201115Y345089D01*
X201040Y345198D01*
X200967Y345309D01*
X200899Y345421D01*
X200833Y345536D01*
X200771Y345653D01*
X200712Y345771D01*
X200657Y345891D01*
X200606Y346013D01*
X200558Y346136D01*
X200514Y346261D01*
X200473Y346387D01*
X200437Y346514D01*
X200404Y346642D01*
X200375Y346771D01*
X200349Y346900D01*
X200328Y347031D01*
X200310Y347162D01*
X200297Y347293D01*
X200287Y347425D01*
X200281Y347557D01*
X200279Y347689D01*
X200281Y347821D01*
X200287Y347953D01*
X200297Y348085D01*
X200310Y348216D01*
X200328Y348347D01*
X200349Y348478D01*
X200375Y348607D01*
X200404Y348736D01*
X200437Y348864D01*
X200473Y348991D01*
X200514Y349117D01*
X200558Y349242D01*
X200606Y349365D01*
X200657Y349487D01*
X200712Y349607D01*
X200771Y349725D01*
X200833Y349842D01*
X200899Y349957D01*
X200967Y350069D01*
X201040Y350180D01*
X201115Y350289D01*
X201194Y350395D01*
X201275Y350499D01*
X201360Y350600D01*
X201448Y350699D01*
X201539Y350795D01*
X201632Y350888D01*
X201728Y350979D01*
X201827Y351067D01*
X201928Y351152D01*
X202032Y351233D01*
X202138Y351312D01*
X202247Y351387D01*
X202358Y351460D01*
X202470Y351528D01*
X202585Y351594D01*
X202702Y351656D01*
X202820Y351715D01*
X202940Y351770D01*
X203062Y351821D01*
X203185Y351869D01*
X203310Y351913D01*
X203436Y351954D01*
X203563Y351990D01*
X203691Y352023D01*
X203820Y352052D01*
X203949Y352078D01*
X204080Y352099D01*
X204211Y352117D01*
X204342Y352130D01*
X204474Y352140D01*
X204606Y352146D01*
X204738Y352148D01*
X203623Y335710D02*
X220345Y335710D01*
X203623Y335710D02*
X203509Y335708D01*
X203395Y335702D01*
X203281Y335692D01*
X203168Y335679D01*
X203055Y335661D01*
X202943Y335640D01*
X202831Y335615D01*
X202721Y335586D01*
X202611Y335553D01*
X202503Y335517D01*
X202396Y335477D01*
X202291Y335433D01*
X202187Y335386D01*
X202085Y335335D01*
X201984Y335281D01*
X201886Y335223D01*
X201789Y335162D01*
X201695Y335098D01*
X201602Y335031D01*
X201513Y334960D01*
X201425Y334886D01*
X201341Y334810D01*
X201258Y334731D01*
X201179Y334648D01*
X201103Y334564D01*
X201029Y334476D01*
X200958Y334387D01*
X200891Y334294D01*
X200827Y334200D01*
X200766Y334103D01*
X200708Y334005D01*
X200654Y333904D01*
X200603Y333802D01*
X200556Y333698D01*
X200512Y333593D01*
X200472Y333486D01*
X200436Y333378D01*
X200403Y333268D01*
X200374Y333158D01*
X200349Y333046D01*
X200328Y332934D01*
X200310Y332821D01*
X200297Y332708D01*
X200287Y332594D01*
X200281Y332480D01*
X200279Y332366D01*
X208082Y322357D02*
X208082Y317341D01*
X208083Y322357D02*
X208081Y322481D01*
X208075Y322604D01*
X208065Y322728D01*
X208052Y322851D01*
X208034Y322974D01*
X208012Y323095D01*
X207987Y323217D01*
X207958Y323337D01*
X207925Y323456D01*
X207888Y323575D01*
X207848Y323692D01*
X207803Y323807D01*
X207756Y323921D01*
X207704Y324034D01*
X207649Y324145D01*
X207591Y324254D01*
X207529Y324361D01*
X207464Y324467D01*
X207395Y324570D01*
X207323Y324671D01*
X207248Y324769D01*
X207170Y324865D01*
X207089Y324959D01*
X207005Y325050D01*
X206918Y325138D01*
X206829Y325223D01*
X206736Y325306D01*
X206641Y325386D01*
X206544Y325462D01*
X206444Y325535D01*
X206342Y325606D01*
X206238Y325673D01*
X206132Y325736D01*
X206024Y325796D01*
X205914Y325853D01*
X205802Y325906D01*
X205689Y325956D01*
X205574Y326002D01*
X205457Y326044D01*
X205340Y326083D01*
X205221Y326118D01*
X205101Y326149D01*
X204980Y326176D01*
X204859Y326200D01*
X204736Y326219D01*
X204613Y326235D01*
X204490Y326247D01*
X204367Y326255D01*
X204243Y326259D01*
X204119Y326259D01*
X203995Y326255D01*
X203872Y326247D01*
X203749Y326235D01*
X203626Y326219D01*
X203503Y326200D01*
X203382Y326176D01*
X203261Y326149D01*
X203141Y326118D01*
X203022Y326083D01*
X202905Y326044D01*
X202788Y326002D01*
X202673Y325956D01*
X202560Y325906D01*
X202448Y325853D01*
X202338Y325796D01*
X202230Y325736D01*
X202124Y325673D01*
X202020Y325606D01*
X201918Y325535D01*
X201818Y325462D01*
X201721Y325386D01*
X201626Y325306D01*
X201533Y325223D01*
X201444Y325138D01*
X201357Y325050D01*
X201273Y324959D01*
X201192Y324865D01*
X201114Y324769D01*
X201039Y324671D01*
X200967Y324570D01*
X200898Y324467D01*
X200833Y324361D01*
X200771Y324254D01*
X200713Y324145D01*
X200658Y324034D01*
X200606Y323921D01*
X200559Y323807D01*
X200514Y323692D01*
X200474Y323575D01*
X200437Y323456D01*
X200404Y323337D01*
X200375Y323217D01*
X200350Y323095D01*
X200328Y322974D01*
X200310Y322851D01*
X200297Y322728D01*
X200287Y322604D01*
X200281Y322481D01*
X200279Y322357D01*
X200279Y317341D01*
X210312Y317341D01*
X210426Y317343D01*
X210540Y317349D01*
X210654Y317359D01*
X210767Y317372D01*
X210880Y317390D01*
X210992Y317411D01*
X211104Y317436D01*
X211214Y317465D01*
X211324Y317498D01*
X211432Y317534D01*
X211539Y317574D01*
X211644Y317618D01*
X211748Y317665D01*
X211850Y317716D01*
X211951Y317770D01*
X212049Y317828D01*
X212146Y317889D01*
X212240Y317953D01*
X212333Y318020D01*
X212422Y318091D01*
X212510Y318165D01*
X212594Y318241D01*
X212677Y318320D01*
X212756Y318403D01*
X212832Y318487D01*
X212906Y318575D01*
X212977Y318664D01*
X213044Y318757D01*
X213108Y318851D01*
X213169Y318948D01*
X213227Y319046D01*
X213281Y319147D01*
X213332Y319249D01*
X213379Y319353D01*
X213423Y319458D01*
X213463Y319565D01*
X213499Y319673D01*
X213532Y319783D01*
X213561Y319893D01*
X213586Y320005D01*
X213607Y320117D01*
X213625Y320230D01*
X213638Y320343D01*
X213648Y320457D01*
X213654Y320571D01*
X213656Y320685D01*
X213656Y325144D01*
X208082Y307838D02*
X205853Y302264D01*
X208083Y307837D02*
X208124Y307936D01*
X208169Y308033D01*
X208218Y308128D01*
X208270Y308221D01*
X208326Y308313D01*
X208385Y308402D01*
X208447Y308489D01*
X208513Y308573D01*
X208581Y308656D01*
X208653Y308735D01*
X208727Y308812D01*
X208804Y308886D01*
X208884Y308957D01*
X208966Y309025D01*
X209051Y309090D01*
X209138Y309152D01*
X209228Y309211D01*
X209319Y309266D01*
X209413Y309318D01*
X209508Y309366D01*
X209606Y309411D01*
X209704Y309452D01*
X209804Y309489D01*
X209906Y309523D01*
X210009Y309553D01*
X210112Y309579D01*
X210217Y309601D01*
X210322Y309620D01*
X210428Y309634D01*
X210535Y309645D01*
X210641Y309651D01*
X210748Y309654D01*
X210855Y309653D01*
X210962Y309647D01*
X211069Y309638D01*
X211175Y309625D01*
X211280Y309608D01*
X211385Y309587D01*
X211489Y309562D01*
X211592Y309533D01*
X211694Y309501D01*
X211795Y309465D01*
X211894Y309425D01*
X211992Y309381D01*
X212088Y309334D01*
X212182Y309283D01*
X212274Y309229D01*
X212364Y309172D01*
X212452Y309111D01*
X212538Y309047D01*
X212621Y308980D01*
X212702Y308910D01*
X212780Y308837D01*
X212855Y308761D01*
X212928Y308682D01*
X212997Y308601D01*
X213064Y308517D01*
X213127Y308431D01*
X213187Y308342D01*
X213244Y308252D01*
X213297Y308159D01*
X213347Y308065D01*
X213393Y307968D01*
X213436Y307870D01*
X213475Y307771D01*
X213510Y307670D01*
X213542Y307568D01*
X213570Y307464D01*
X213594Y307360D01*
X213614Y307255D01*
X213630Y307149D01*
X213642Y307043D01*
X213651Y306937D01*
X213655Y306830D01*
X213656Y306723D01*
X213648Y306419D01*
X213632Y306115D01*
X213610Y305811D01*
X213580Y305508D01*
X213543Y305206D01*
X213498Y304905D01*
X213447Y304605D01*
X213388Y304307D01*
X213322Y304009D01*
X213248Y303714D01*
X213168Y303420D01*
X213081Y303129D01*
X212987Y302839D01*
X212886Y302552D01*
X212777Y302268D01*
X212663Y301986D01*
X212541Y301707D01*
X205852Y302264D02*
X205811Y302165D01*
X205766Y302068D01*
X205717Y301973D01*
X205665Y301880D01*
X205609Y301788D01*
X205550Y301699D01*
X205488Y301612D01*
X205422Y301528D01*
X205354Y301445D01*
X205282Y301366D01*
X205208Y301289D01*
X205131Y301215D01*
X205051Y301144D01*
X204969Y301076D01*
X204884Y301011D01*
X204797Y300949D01*
X204707Y300890D01*
X204616Y300835D01*
X204522Y300783D01*
X204427Y300735D01*
X204329Y300690D01*
X204231Y300649D01*
X204131Y300612D01*
X204029Y300578D01*
X203926Y300548D01*
X203823Y300522D01*
X203718Y300500D01*
X203613Y300481D01*
X203507Y300467D01*
X203400Y300456D01*
X203294Y300450D01*
X203187Y300447D01*
X203080Y300448D01*
X202973Y300454D01*
X202866Y300463D01*
X202760Y300476D01*
X202655Y300493D01*
X202550Y300514D01*
X202446Y300539D01*
X202343Y300568D01*
X202241Y300600D01*
X202140Y300636D01*
X202041Y300676D01*
X201943Y300720D01*
X201847Y300767D01*
X201753Y300818D01*
X201661Y300872D01*
X201571Y300929D01*
X201483Y300990D01*
X201397Y301054D01*
X201314Y301121D01*
X201233Y301191D01*
X201155Y301264D01*
X201080Y301340D01*
X201007Y301419D01*
X200938Y301500D01*
X200871Y301584D01*
X200808Y301670D01*
X200748Y301759D01*
X200691Y301849D01*
X200638Y301942D01*
X200588Y302036D01*
X200542Y302133D01*
X200499Y302231D01*
X200460Y302330D01*
X200425Y302431D01*
X200393Y302533D01*
X200365Y302637D01*
X200341Y302741D01*
X200321Y302846D01*
X200305Y302952D01*
X200293Y303058D01*
X200284Y303164D01*
X200280Y303271D01*
X200279Y303378D01*
X200291Y303825D01*
X200313Y304272D01*
X200346Y304718D01*
X200389Y305163D01*
X200443Y305607D01*
X200507Y306049D01*
X200582Y306490D01*
X200667Y306929D01*
X200763Y307366D01*
X200869Y307800D01*
X200985Y308232D01*
X201111Y308661D01*
X201247Y309087D01*
X201394Y309509D01*
X220345Y284356D02*
X224804Y284356D01*
X224804Y278782D02*
X220345Y278782D01*
X220345Y271507D02*
X200279Y271507D01*
X220345Y271507D02*
X220345Y265933D01*
X220343Y265785D01*
X220337Y265636D01*
X220327Y265488D01*
X220313Y265341D01*
X220296Y265193D01*
X220274Y265046D01*
X220248Y264900D01*
X220219Y264755D01*
X220186Y264610D01*
X220149Y264466D01*
X220108Y264324D01*
X220063Y264182D01*
X220014Y264042D01*
X219962Y263903D01*
X219906Y263766D01*
X219847Y263630D01*
X219784Y263495D01*
X219717Y263363D01*
X219647Y263232D01*
X219573Y263103D01*
X219496Y262976D01*
X219416Y262852D01*
X219332Y262729D01*
X219245Y262609D01*
X219155Y262491D01*
X219062Y262375D01*
X218966Y262262D01*
X218867Y262152D01*
X218765Y262044D01*
X218660Y261939D01*
X218552Y261837D01*
X218442Y261738D01*
X218329Y261642D01*
X218213Y261549D01*
X218095Y261459D01*
X217975Y261372D01*
X217852Y261288D01*
X217728Y261208D01*
X217601Y261131D01*
X217472Y261057D01*
X217341Y260987D01*
X217209Y260920D01*
X217074Y260857D01*
X216938Y260798D01*
X216801Y260742D01*
X216662Y260690D01*
X216522Y260641D01*
X216380Y260596D01*
X216238Y260555D01*
X216094Y260518D01*
X215949Y260485D01*
X215804Y260456D01*
X215658Y260430D01*
X215511Y260408D01*
X215363Y260391D01*
X215216Y260377D01*
X215068Y260367D01*
X214919Y260361D01*
X214771Y260359D01*
X214623Y260361D01*
X214474Y260367D01*
X214326Y260377D01*
X214179Y260391D01*
X214031Y260408D01*
X213884Y260430D01*
X213738Y260456D01*
X213593Y260485D01*
X213448Y260518D01*
X213304Y260555D01*
X213162Y260596D01*
X213020Y260641D01*
X212880Y260690D01*
X212741Y260742D01*
X212604Y260798D01*
X212468Y260857D01*
X212333Y260920D01*
X212201Y260987D01*
X212070Y261057D01*
X211941Y261131D01*
X211814Y261208D01*
X211690Y261288D01*
X211567Y261372D01*
X211447Y261459D01*
X211329Y261549D01*
X211213Y261642D01*
X211100Y261738D01*
X210990Y261837D01*
X210882Y261939D01*
X210777Y262044D01*
X210675Y262152D01*
X210576Y262262D01*
X210480Y262375D01*
X210387Y262491D01*
X210297Y262609D01*
X210210Y262729D01*
X210126Y262852D01*
X210046Y262976D01*
X209969Y263103D01*
X209895Y263232D01*
X209825Y263363D01*
X209758Y263495D01*
X209695Y263630D01*
X209636Y263766D01*
X209580Y263903D01*
X209528Y264042D01*
X209479Y264182D01*
X209434Y264324D01*
X209393Y264466D01*
X209356Y264610D01*
X209323Y264755D01*
X209294Y264900D01*
X209268Y265046D01*
X209246Y265193D01*
X209229Y265341D01*
X209215Y265488D01*
X209205Y265636D01*
X209199Y265785D01*
X209197Y265933D01*
X209197Y271507D01*
X213656Y253761D02*
X200279Y253761D01*
X219230Y254319D02*
X220345Y254319D01*
X220345Y253204D01*
X219230Y253204D01*
X219230Y254319D01*
X213656Y238179D02*
X200279Y247097D01*
X200279Y238179D02*
X213656Y247097D01*
X200279Y228304D02*
X200279Y222731D01*
X200279Y228304D02*
X200281Y228418D01*
X200287Y228532D01*
X200297Y228646D01*
X200310Y228759D01*
X200328Y228872D01*
X200349Y228984D01*
X200374Y229096D01*
X200403Y229206D01*
X200436Y229316D01*
X200472Y229424D01*
X200512Y229531D01*
X200556Y229636D01*
X200603Y229740D01*
X200654Y229842D01*
X200708Y229943D01*
X200766Y230041D01*
X200827Y230138D01*
X200891Y230232D01*
X200958Y230325D01*
X201029Y230414D01*
X201103Y230502D01*
X201179Y230586D01*
X201258Y230669D01*
X201341Y230748D01*
X201425Y230824D01*
X201513Y230898D01*
X201602Y230969D01*
X201695Y231036D01*
X201789Y231100D01*
X201886Y231161D01*
X201984Y231219D01*
X202085Y231273D01*
X202187Y231324D01*
X202291Y231371D01*
X202396Y231415D01*
X202503Y231455D01*
X202611Y231491D01*
X202721Y231524D01*
X202831Y231553D01*
X202943Y231578D01*
X203055Y231599D01*
X203168Y231617D01*
X203281Y231630D01*
X203395Y231640D01*
X203509Y231646D01*
X203623Y231648D01*
X203623Y231649D02*
X209197Y231649D01*
X209329Y231647D01*
X209461Y231641D01*
X209593Y231631D01*
X209724Y231618D01*
X209855Y231600D01*
X209986Y231579D01*
X210115Y231553D01*
X210244Y231524D01*
X210372Y231491D01*
X210499Y231455D01*
X210625Y231414D01*
X210750Y231370D01*
X210873Y231322D01*
X210995Y231271D01*
X211115Y231216D01*
X211233Y231157D01*
X211350Y231095D01*
X211465Y231029D01*
X211577Y230961D01*
X211688Y230888D01*
X211797Y230813D01*
X211903Y230734D01*
X212007Y230653D01*
X212108Y230568D01*
X212207Y230480D01*
X212303Y230389D01*
X212396Y230296D01*
X212487Y230200D01*
X212575Y230101D01*
X212660Y230000D01*
X212741Y229896D01*
X212820Y229790D01*
X212895Y229681D01*
X212968Y229570D01*
X213036Y229458D01*
X213102Y229343D01*
X213164Y229226D01*
X213223Y229108D01*
X213278Y228988D01*
X213329Y228866D01*
X213377Y228743D01*
X213421Y228618D01*
X213462Y228492D01*
X213498Y228365D01*
X213531Y228237D01*
X213560Y228108D01*
X213586Y227979D01*
X213607Y227848D01*
X213625Y227717D01*
X213638Y227586D01*
X213648Y227454D01*
X213654Y227322D01*
X213656Y227190D01*
X213654Y227058D01*
X213648Y226926D01*
X213638Y226794D01*
X213625Y226663D01*
X213607Y226532D01*
X213586Y226401D01*
X213560Y226272D01*
X213531Y226143D01*
X213498Y226015D01*
X213462Y225888D01*
X213421Y225762D01*
X213377Y225637D01*
X213329Y225514D01*
X213278Y225392D01*
X213223Y225272D01*
X213164Y225154D01*
X213102Y225037D01*
X213036Y224922D01*
X212968Y224810D01*
X212895Y224699D01*
X212820Y224590D01*
X212741Y224484D01*
X212660Y224380D01*
X212575Y224279D01*
X212487Y224180D01*
X212396Y224084D01*
X212303Y223991D01*
X212207Y223900D01*
X212108Y223812D01*
X212007Y223727D01*
X211903Y223646D01*
X211797Y223567D01*
X211688Y223492D01*
X211577Y223419D01*
X211465Y223351D01*
X211350Y223285D01*
X211233Y223223D01*
X211115Y223164D01*
X210995Y223109D01*
X210873Y223058D01*
X210750Y223010D01*
X210625Y222966D01*
X210499Y222925D01*
X210372Y222889D01*
X210244Y222856D01*
X210115Y222827D01*
X209986Y222801D01*
X209855Y222780D01*
X209724Y222762D01*
X209593Y222749D01*
X209461Y222739D01*
X209329Y222733D01*
X209197Y222731D01*
X206968Y222731D01*
X206968Y231649D01*
X203623Y215211D02*
X220345Y215211D01*
X203623Y215211D02*
X203509Y215209D01*
X203395Y215203D01*
X203281Y215193D01*
X203168Y215180D01*
X203055Y215162D01*
X202943Y215141D01*
X202831Y215116D01*
X202721Y215087D01*
X202611Y215054D01*
X202503Y215018D01*
X202396Y214978D01*
X202291Y214934D01*
X202187Y214887D01*
X202085Y214836D01*
X201984Y214782D01*
X201886Y214724D01*
X201789Y214663D01*
X201695Y214599D01*
X201602Y214532D01*
X201513Y214461D01*
X201425Y214387D01*
X201341Y214311D01*
X201258Y214232D01*
X201179Y214149D01*
X201103Y214065D01*
X201029Y213977D01*
X200958Y213888D01*
X200891Y213795D01*
X200827Y213701D01*
X200766Y213604D01*
X200708Y213506D01*
X200654Y213405D01*
X200603Y213303D01*
X200556Y213199D01*
X200512Y213094D01*
X200472Y212987D01*
X200436Y212879D01*
X200403Y212769D01*
X200374Y212659D01*
X200349Y212547D01*
X200328Y212435D01*
X200310Y212322D01*
X200297Y212209D01*
X200287Y212095D01*
X200281Y211981D01*
X200279Y211867D01*
X220345Y206495D02*
X224804Y206495D01*
X224804Y200921D02*
X220345Y200921D01*
X220345Y183946D02*
X200279Y183946D01*
X200279Y172798D02*
X220345Y183946D01*
X220345Y172798D02*
X200279Y172798D01*
X204738Y164911D02*
X209197Y164911D01*
X209329Y164909D01*
X209461Y164903D01*
X209593Y164893D01*
X209724Y164880D01*
X209855Y164862D01*
X209986Y164841D01*
X210115Y164815D01*
X210244Y164786D01*
X210372Y164753D01*
X210499Y164717D01*
X210625Y164676D01*
X210750Y164632D01*
X210873Y164584D01*
X210995Y164533D01*
X211115Y164478D01*
X211233Y164419D01*
X211350Y164357D01*
X211465Y164291D01*
X211577Y164223D01*
X211688Y164150D01*
X211797Y164075D01*
X211903Y163996D01*
X212007Y163915D01*
X212108Y163830D01*
X212207Y163742D01*
X212303Y163651D01*
X212396Y163558D01*
X212487Y163462D01*
X212575Y163363D01*
X212660Y163262D01*
X212741Y163158D01*
X212820Y163052D01*
X212895Y162943D01*
X212968Y162832D01*
X213036Y162720D01*
X213102Y162605D01*
X213164Y162488D01*
X213223Y162370D01*
X213278Y162250D01*
X213329Y162128D01*
X213377Y162005D01*
X213421Y161880D01*
X213462Y161754D01*
X213498Y161627D01*
X213531Y161499D01*
X213560Y161370D01*
X213586Y161241D01*
X213607Y161110D01*
X213625Y160979D01*
X213638Y160848D01*
X213648Y160716D01*
X213654Y160584D01*
X213656Y160452D01*
X213654Y160320D01*
X213648Y160188D01*
X213638Y160056D01*
X213625Y159925D01*
X213607Y159794D01*
X213586Y159663D01*
X213560Y159534D01*
X213531Y159405D01*
X213498Y159277D01*
X213462Y159150D01*
X213421Y159024D01*
X213377Y158899D01*
X213329Y158776D01*
X213278Y158654D01*
X213223Y158534D01*
X213164Y158416D01*
X213102Y158299D01*
X213036Y158184D01*
X212968Y158072D01*
X212895Y157961D01*
X212820Y157852D01*
X212741Y157746D01*
X212660Y157642D01*
X212575Y157541D01*
X212487Y157442D01*
X212396Y157346D01*
X212303Y157253D01*
X212207Y157162D01*
X212108Y157074D01*
X212007Y156989D01*
X211903Y156908D01*
X211797Y156829D01*
X211688Y156754D01*
X211577Y156681D01*
X211465Y156613D01*
X211350Y156547D01*
X211233Y156485D01*
X211115Y156426D01*
X210995Y156371D01*
X210873Y156320D01*
X210750Y156272D01*
X210625Y156228D01*
X210499Y156187D01*
X210372Y156151D01*
X210244Y156118D01*
X210115Y156089D01*
X209986Y156063D01*
X209855Y156042D01*
X209724Y156024D01*
X209593Y156011D01*
X209461Y156001D01*
X209329Y155995D01*
X209197Y155993D01*
X204738Y155993D01*
X204606Y155995D01*
X204474Y156001D01*
X204342Y156011D01*
X204211Y156024D01*
X204080Y156042D01*
X203949Y156063D01*
X203820Y156089D01*
X203691Y156118D01*
X203563Y156151D01*
X203436Y156187D01*
X203310Y156228D01*
X203185Y156272D01*
X203062Y156320D01*
X202940Y156371D01*
X202820Y156426D01*
X202702Y156485D01*
X202585Y156547D01*
X202470Y156613D01*
X202358Y156681D01*
X202247Y156754D01*
X202138Y156829D01*
X202032Y156908D01*
X201928Y156989D01*
X201827Y157074D01*
X201728Y157162D01*
X201632Y157253D01*
X201539Y157346D01*
X201448Y157442D01*
X201360Y157541D01*
X201275Y157642D01*
X201194Y157746D01*
X201115Y157852D01*
X201040Y157961D01*
X200967Y158072D01*
X200899Y158184D01*
X200833Y158299D01*
X200771Y158416D01*
X200712Y158534D01*
X200657Y158654D01*
X200606Y158776D01*
X200558Y158899D01*
X200514Y159024D01*
X200473Y159150D01*
X200437Y159277D01*
X200404Y159405D01*
X200375Y159534D01*
X200349Y159663D01*
X200328Y159794D01*
X200310Y159925D01*
X200297Y160056D01*
X200287Y160188D01*
X200281Y160320D01*
X200279Y160452D01*
X200281Y160584D01*
X200287Y160716D01*
X200297Y160848D01*
X200310Y160979D01*
X200328Y161110D01*
X200349Y161241D01*
X200375Y161370D01*
X200404Y161499D01*
X200437Y161627D01*
X200473Y161754D01*
X200514Y161880D01*
X200558Y162005D01*
X200606Y162128D01*
X200657Y162250D01*
X200712Y162370D01*
X200771Y162488D01*
X200833Y162605D01*
X200899Y162720D01*
X200967Y162832D01*
X201040Y162943D01*
X201115Y163052D01*
X201194Y163158D01*
X201275Y163262D01*
X201360Y163363D01*
X201448Y163462D01*
X201539Y163558D01*
X201632Y163651D01*
X201728Y163742D01*
X201827Y163830D01*
X201928Y163915D01*
X202032Y163996D01*
X202138Y164075D01*
X202247Y164150D01*
X202358Y164223D01*
X202470Y164291D01*
X202585Y164357D01*
X202702Y164419D01*
X202820Y164478D01*
X202940Y164533D01*
X203062Y164584D01*
X203185Y164632D01*
X203310Y164676D01*
X203436Y164717D01*
X203563Y164753D01*
X203691Y164786D01*
X203820Y164815D01*
X203949Y164841D01*
X204080Y164862D01*
X204211Y164880D01*
X204342Y164893D01*
X204474Y164903D01*
X204606Y164909D01*
X204738Y164911D01*
X200279Y148161D02*
X220345Y148161D01*
X200279Y148161D02*
X200279Y142588D01*
X200281Y142474D01*
X200287Y142360D01*
X200297Y142246D01*
X200310Y142133D01*
X200328Y142020D01*
X200349Y141908D01*
X200374Y141796D01*
X200403Y141686D01*
X200436Y141576D01*
X200472Y141468D01*
X200512Y141361D01*
X200556Y141256D01*
X200603Y141152D01*
X200654Y141050D01*
X200708Y140949D01*
X200766Y140851D01*
X200827Y140754D01*
X200891Y140660D01*
X200958Y140567D01*
X201029Y140478D01*
X201103Y140390D01*
X201179Y140306D01*
X201258Y140223D01*
X201341Y140144D01*
X201425Y140068D01*
X201513Y139994D01*
X201602Y139924D01*
X201695Y139856D01*
X201789Y139792D01*
X201885Y139731D01*
X201984Y139673D01*
X202085Y139619D01*
X202187Y139568D01*
X202291Y139521D01*
X202396Y139477D01*
X202503Y139437D01*
X202611Y139401D01*
X202721Y139368D01*
X202831Y139339D01*
X202943Y139314D01*
X203055Y139293D01*
X203168Y139275D01*
X203281Y139262D01*
X203395Y139252D01*
X203509Y139246D01*
X203623Y139244D01*
X203623Y139243D02*
X210312Y139243D01*
X210312Y139244D02*
X210426Y139246D01*
X210540Y139252D01*
X210654Y139262D01*
X210767Y139275D01*
X210880Y139293D01*
X210992Y139314D01*
X211104Y139339D01*
X211214Y139368D01*
X211324Y139401D01*
X211432Y139437D01*
X211539Y139477D01*
X211644Y139521D01*
X211748Y139568D01*
X211850Y139619D01*
X211951Y139673D01*
X212049Y139731D01*
X212146Y139792D01*
X212240Y139856D01*
X212333Y139923D01*
X212422Y139994D01*
X212510Y140068D01*
X212594Y140144D01*
X212677Y140223D01*
X212756Y140306D01*
X212832Y140390D01*
X212906Y140478D01*
X212977Y140567D01*
X213044Y140660D01*
X213108Y140754D01*
X213169Y140851D01*
X213227Y140949D01*
X213281Y141050D01*
X213332Y141152D01*
X213379Y141256D01*
X213423Y141361D01*
X213463Y141468D01*
X213499Y141576D01*
X213532Y141686D01*
X213561Y141796D01*
X213586Y141908D01*
X213607Y142020D01*
X213625Y142133D01*
X213638Y142246D01*
X213648Y142360D01*
X213654Y142474D01*
X213656Y142588D01*
X213656Y148161D01*
X220345Y131788D02*
X203623Y131788D01*
X203509Y131786D01*
X203395Y131780D01*
X203281Y131770D01*
X203168Y131757D01*
X203055Y131739D01*
X202943Y131718D01*
X202831Y131693D01*
X202721Y131664D01*
X202611Y131631D01*
X202503Y131595D01*
X202396Y131555D01*
X202291Y131511D01*
X202187Y131464D01*
X202085Y131413D01*
X201984Y131359D01*
X201886Y131301D01*
X201789Y131240D01*
X201695Y131176D01*
X201602Y131109D01*
X201513Y131038D01*
X201425Y130964D01*
X201341Y130888D01*
X201258Y130809D01*
X201179Y130726D01*
X201103Y130642D01*
X201029Y130554D01*
X200958Y130465D01*
X200891Y130372D01*
X200827Y130278D01*
X200766Y130181D01*
X200708Y130083D01*
X200654Y129982D01*
X200603Y129880D01*
X200556Y129776D01*
X200512Y129671D01*
X200472Y129564D01*
X200436Y129456D01*
X200403Y129346D01*
X200374Y129236D01*
X200349Y129124D01*
X200328Y129012D01*
X200310Y128899D01*
X200297Y128786D01*
X200287Y128672D01*
X200281Y128558D01*
X200279Y128444D01*
X200279Y118928D02*
X200279Y113354D01*
X200279Y118928D02*
X200281Y119042D01*
X200287Y119156D01*
X200297Y119270D01*
X200310Y119383D01*
X200328Y119496D01*
X200349Y119608D01*
X200374Y119720D01*
X200403Y119830D01*
X200436Y119940D01*
X200472Y120048D01*
X200512Y120155D01*
X200556Y120260D01*
X200603Y120364D01*
X200654Y120466D01*
X200708Y120567D01*
X200766Y120665D01*
X200827Y120762D01*
X200891Y120856D01*
X200958Y120949D01*
X201029Y121038D01*
X201103Y121126D01*
X201179Y121210D01*
X201258Y121293D01*
X201341Y121372D01*
X201425Y121448D01*
X201513Y121522D01*
X201602Y121593D01*
X201695Y121660D01*
X201789Y121724D01*
X201886Y121785D01*
X201984Y121843D01*
X202085Y121897D01*
X202187Y121948D01*
X202291Y121995D01*
X202396Y122039D01*
X202503Y122079D01*
X202611Y122115D01*
X202721Y122148D01*
X202831Y122177D01*
X202943Y122202D01*
X203055Y122223D01*
X203168Y122241D01*
X203281Y122254D01*
X203395Y122264D01*
X203509Y122270D01*
X203623Y122272D01*
X203623Y122273D02*
X209197Y122273D01*
X209329Y122271D01*
X209461Y122265D01*
X209593Y122255D01*
X209724Y122242D01*
X209855Y122224D01*
X209986Y122203D01*
X210115Y122177D01*
X210244Y122148D01*
X210372Y122115D01*
X210499Y122079D01*
X210625Y122038D01*
X210750Y121994D01*
X210873Y121946D01*
X210995Y121895D01*
X211115Y121840D01*
X211233Y121781D01*
X211350Y121719D01*
X211465Y121653D01*
X211577Y121585D01*
X211688Y121512D01*
X211797Y121437D01*
X211903Y121358D01*
X212007Y121277D01*
X212108Y121192D01*
X212207Y121104D01*
X212303Y121013D01*
X212396Y120920D01*
X212487Y120824D01*
X212575Y120725D01*
X212660Y120624D01*
X212741Y120520D01*
X212820Y120414D01*
X212895Y120305D01*
X212968Y120194D01*
X213036Y120082D01*
X213102Y119967D01*
X213164Y119850D01*
X213223Y119732D01*
X213278Y119612D01*
X213329Y119490D01*
X213377Y119367D01*
X213421Y119242D01*
X213462Y119116D01*
X213498Y118989D01*
X213531Y118861D01*
X213560Y118732D01*
X213586Y118603D01*
X213607Y118472D01*
X213625Y118341D01*
X213638Y118210D01*
X213648Y118078D01*
X213654Y117946D01*
X213656Y117814D01*
X213654Y117682D01*
X213648Y117550D01*
X213638Y117418D01*
X213625Y117287D01*
X213607Y117156D01*
X213586Y117025D01*
X213560Y116896D01*
X213531Y116767D01*
X213498Y116639D01*
X213462Y116512D01*
X213421Y116386D01*
X213377Y116261D01*
X213329Y116138D01*
X213278Y116016D01*
X213223Y115896D01*
X213164Y115778D01*
X213102Y115661D01*
X213036Y115546D01*
X212968Y115434D01*
X212895Y115323D01*
X212820Y115214D01*
X212741Y115108D01*
X212660Y115004D01*
X212575Y114903D01*
X212487Y114804D01*
X212396Y114708D01*
X212303Y114615D01*
X212207Y114524D01*
X212108Y114436D01*
X212007Y114351D01*
X211903Y114270D01*
X211797Y114191D01*
X211688Y114116D01*
X211577Y114043D01*
X211465Y113975D01*
X211350Y113909D01*
X211233Y113847D01*
X211115Y113788D01*
X210995Y113733D01*
X210873Y113682D01*
X210750Y113634D01*
X210625Y113590D01*
X210499Y113549D01*
X210372Y113513D01*
X210244Y113480D01*
X210115Y113451D01*
X209986Y113425D01*
X209855Y113404D01*
X209724Y113386D01*
X209593Y113373D01*
X209461Y113363D01*
X209329Y113357D01*
X209197Y113355D01*
X209197Y113354D02*
X206968Y113354D01*
X206968Y122273D01*
D10*
X408020Y408020D02*
X408020Y455580D01*
X408020Y408020D02*
X607980Y408020D01*
X607980Y455580D01*
X408020Y455580D01*
D14*
X643000Y471800D02*
X643000Y1800D01*
X373000Y1800D01*
X373000Y471800D01*
X643000Y471800D01*
D12*
X424942Y374890D02*
X413258Y374890D01*
X413258Y378135D01*
X413260Y378248D01*
X413266Y378361D01*
X413276Y378474D01*
X413290Y378587D01*
X413307Y378699D01*
X413329Y378810D01*
X413354Y378920D01*
X413384Y379030D01*
X413417Y379138D01*
X413454Y379245D01*
X413494Y379351D01*
X413539Y379455D01*
X413587Y379558D01*
X413638Y379659D01*
X413693Y379758D01*
X413751Y379855D01*
X413813Y379950D01*
X413878Y380043D01*
X413946Y380133D01*
X414017Y380221D01*
X414092Y380307D01*
X414169Y380390D01*
X414249Y380470D01*
X414332Y380547D01*
X414418Y380622D01*
X414506Y380693D01*
X414596Y380761D01*
X414689Y380826D01*
X414784Y380888D01*
X414881Y380946D01*
X414980Y381001D01*
X415081Y381052D01*
X415184Y381100D01*
X415288Y381145D01*
X415394Y381185D01*
X415501Y381222D01*
X415609Y381255D01*
X415719Y381285D01*
X415829Y381310D01*
X415940Y381332D01*
X416052Y381349D01*
X416165Y381363D01*
X416278Y381373D01*
X416391Y381379D01*
X416504Y381381D01*
X421696Y381381D01*
X421696Y381382D02*
X421809Y381380D01*
X421922Y381374D01*
X422035Y381364D01*
X422148Y381350D01*
X422260Y381333D01*
X422371Y381311D01*
X422481Y381286D01*
X422591Y381256D01*
X422699Y381223D01*
X422806Y381186D01*
X422912Y381146D01*
X423016Y381101D01*
X423119Y381053D01*
X423220Y381002D01*
X423319Y380947D01*
X423416Y380889D01*
X423511Y380827D01*
X423604Y380762D01*
X423694Y380694D01*
X423782Y380623D01*
X423868Y380548D01*
X423951Y380471D01*
X424031Y380391D01*
X424108Y380308D01*
X424183Y380222D01*
X424254Y380134D01*
X424322Y380044D01*
X424387Y379951D01*
X424449Y379856D01*
X424507Y379759D01*
X424562Y379660D01*
X424613Y379559D01*
X424661Y379456D01*
X424706Y379352D01*
X424746Y379246D01*
X424783Y379139D01*
X424816Y379031D01*
X424846Y378921D01*
X424871Y378811D01*
X424893Y378700D01*
X424910Y378588D01*
X424924Y378475D01*
X424934Y378362D01*
X424940Y378249D01*
X424942Y378136D01*
X424942Y378135D02*
X424942Y374890D01*
X419100Y386701D02*
X418870Y386704D01*
X418640Y386712D01*
X418411Y386726D01*
X418182Y386745D01*
X417953Y386770D01*
X417725Y386800D01*
X417498Y386835D01*
X417272Y386876D01*
X417047Y386922D01*
X416823Y386974D01*
X416600Y387031D01*
X416379Y387093D01*
X416159Y387161D01*
X415941Y387234D01*
X415725Y387312D01*
X415511Y387395D01*
X415299Y387483D01*
X415088Y387576D01*
X414881Y387675D01*
X414881Y387674D02*
X414791Y387707D01*
X414702Y387743D01*
X414614Y387783D01*
X414529Y387827D01*
X414445Y387874D01*
X414363Y387924D01*
X414283Y387978D01*
X414206Y388034D01*
X414130Y388094D01*
X414057Y388157D01*
X413987Y388222D01*
X413919Y388291D01*
X413855Y388362D01*
X413793Y388435D01*
X413734Y388511D01*
X413678Y388589D01*
X413625Y388670D01*
X413576Y388752D01*
X413530Y388836D01*
X413487Y388923D01*
X413448Y389010D01*
X413412Y389100D01*
X413380Y389190D01*
X413352Y389282D01*
X413327Y389375D01*
X413306Y389469D01*
X413289Y389563D01*
X413275Y389658D01*
X413266Y389754D01*
X413260Y389850D01*
X413258Y389946D01*
X413260Y390042D01*
X413266Y390138D01*
X413275Y390234D01*
X413289Y390329D01*
X413306Y390423D01*
X413327Y390517D01*
X413352Y390610D01*
X413380Y390702D01*
X413412Y390792D01*
X413448Y390882D01*
X413487Y390970D01*
X413530Y391056D01*
X413576Y391140D01*
X413625Y391222D01*
X413678Y391303D01*
X413734Y391381D01*
X413793Y391457D01*
X413855Y391530D01*
X413919Y391601D01*
X413987Y391670D01*
X414057Y391735D01*
X414130Y391798D01*
X414206Y391858D01*
X414283Y391914D01*
X414363Y391968D01*
X414445Y392018D01*
X414529Y392065D01*
X414614Y392109D01*
X414702Y392149D01*
X414791Y392185D01*
X414881Y392218D01*
X415088Y392317D01*
X415299Y392410D01*
X415511Y392498D01*
X415725Y392581D01*
X415941Y392659D01*
X416159Y392732D01*
X416379Y392800D01*
X416600Y392862D01*
X416823Y392919D01*
X417047Y392971D01*
X417272Y393017D01*
X417498Y393058D01*
X417725Y393093D01*
X417953Y393123D01*
X418182Y393148D01*
X418411Y393167D01*
X418640Y393181D01*
X418870Y393189D01*
X419100Y393192D01*
X419100Y386701D02*
X419330Y386704D01*
X419560Y386712D01*
X419789Y386726D01*
X420018Y386745D01*
X420247Y386770D01*
X420475Y386800D01*
X420702Y386835D01*
X420928Y386876D01*
X421153Y386922D01*
X421377Y386974D01*
X421600Y387031D01*
X421821Y387093D01*
X422041Y387161D01*
X422259Y387234D01*
X422475Y387312D01*
X422689Y387395D01*
X422901Y387483D01*
X423112Y387576D01*
X423319Y387675D01*
X423319Y387674D02*
X423409Y387707D01*
X423498Y387743D01*
X423586Y387784D01*
X423671Y387827D01*
X423755Y387874D01*
X423837Y387924D01*
X423917Y387978D01*
X423994Y388034D01*
X424070Y388094D01*
X424143Y388157D01*
X424213Y388222D01*
X424281Y388291D01*
X424345Y388362D01*
X424407Y388435D01*
X424466Y388511D01*
X424522Y388589D01*
X424575Y388670D01*
X424624Y388752D01*
X424670Y388836D01*
X424713Y388923D01*
X424752Y389010D01*
X424788Y389100D01*
X424820Y389190D01*
X424848Y389282D01*
X424873Y389375D01*
X424894Y389469D01*
X424911Y389563D01*
X424925Y389658D01*
X424934Y389754D01*
X424940Y389850D01*
X424942Y389946D01*
X423319Y392218D02*
X423112Y392317D01*
X422901Y392410D01*
X422689Y392498D01*
X422475Y392581D01*
X422259Y392659D01*
X422041Y392732D01*
X421821Y392800D01*
X421600Y392862D01*
X421377Y392919D01*
X421153Y392971D01*
X420928Y393017D01*
X420702Y393058D01*
X420475Y393093D01*
X420247Y393123D01*
X420018Y393148D01*
X419789Y393167D01*
X419560Y393181D01*
X419330Y393189D01*
X419100Y393192D01*
X423319Y392218D02*
X423409Y392185D01*
X423498Y392149D01*
X423586Y392109D01*
X423671Y392065D01*
X423755Y392018D01*
X423837Y391968D01*
X423917Y391914D01*
X423994Y391858D01*
X424070Y391798D01*
X424143Y391735D01*
X424213Y391670D01*
X424281Y391601D01*
X424345Y391530D01*
X424407Y391457D01*
X424466Y391381D01*
X424522Y391303D01*
X424575Y391222D01*
X424624Y391140D01*
X424670Y391056D01*
X424713Y390969D01*
X424752Y390882D01*
X424788Y390792D01*
X424820Y390702D01*
X424848Y390610D01*
X424873Y390517D01*
X424894Y390423D01*
X424911Y390329D01*
X424925Y390234D01*
X424934Y390138D01*
X424940Y390042D01*
X424942Y389946D01*
X422346Y387350D02*
X415854Y392543D01*
X591058Y374890D02*
X602742Y374890D01*
X591058Y374890D02*
X591058Y378135D01*
X591060Y378248D01*
X591066Y378361D01*
X591076Y378474D01*
X591090Y378587D01*
X591107Y378699D01*
X591129Y378810D01*
X591154Y378920D01*
X591184Y379030D01*
X591217Y379138D01*
X591254Y379245D01*
X591294Y379351D01*
X591339Y379455D01*
X591387Y379558D01*
X591438Y379659D01*
X591493Y379758D01*
X591551Y379855D01*
X591613Y379950D01*
X591678Y380043D01*
X591746Y380133D01*
X591817Y380221D01*
X591892Y380307D01*
X591969Y380390D01*
X592049Y380470D01*
X592132Y380547D01*
X592218Y380622D01*
X592306Y380693D01*
X592396Y380761D01*
X592489Y380826D01*
X592584Y380888D01*
X592681Y380946D01*
X592780Y381001D01*
X592881Y381052D01*
X592984Y381100D01*
X593088Y381145D01*
X593194Y381185D01*
X593301Y381222D01*
X593409Y381255D01*
X593519Y381285D01*
X593629Y381310D01*
X593740Y381332D01*
X593852Y381349D01*
X593965Y381363D01*
X594078Y381373D01*
X594191Y381379D01*
X594304Y381381D01*
X599496Y381381D01*
X599496Y381382D02*
X599609Y381380D01*
X599722Y381374D01*
X599835Y381364D01*
X599948Y381350D01*
X600060Y381333D01*
X600171Y381311D01*
X600281Y381286D01*
X600391Y381256D01*
X600499Y381223D01*
X600606Y381186D01*
X600712Y381146D01*
X600816Y381101D01*
X600919Y381053D01*
X601020Y381002D01*
X601119Y380947D01*
X601216Y380889D01*
X601311Y380827D01*
X601404Y380762D01*
X601494Y380694D01*
X601582Y380623D01*
X601668Y380548D01*
X601751Y380471D01*
X601831Y380391D01*
X601908Y380308D01*
X601983Y380222D01*
X602054Y380134D01*
X602122Y380044D01*
X602187Y379951D01*
X602249Y379856D01*
X602307Y379759D01*
X602362Y379660D01*
X602413Y379559D01*
X602461Y379456D01*
X602506Y379352D01*
X602546Y379246D01*
X602583Y379139D01*
X602616Y379031D01*
X602646Y378921D01*
X602671Y378811D01*
X602693Y378700D01*
X602710Y378588D01*
X602724Y378475D01*
X602734Y378362D01*
X602740Y378249D01*
X602742Y378136D01*
X602742Y378135D02*
X602742Y374890D01*
X592356Y386701D02*
X591058Y386701D01*
X591058Y393192D01*
X602742Y389946D01*
X602742Y335841D02*
X591058Y333245D01*
X594953Y338438D02*
X602742Y335841D01*
X602742Y341034D02*
X594953Y338438D01*
X591058Y343631D02*
X602742Y341034D01*
X602742Y348601D02*
X591058Y348601D01*
X591058Y351846D01*
X591060Y351959D01*
X591066Y352072D01*
X591076Y352185D01*
X591090Y352298D01*
X591107Y352410D01*
X591129Y352521D01*
X591154Y352631D01*
X591184Y352741D01*
X591217Y352849D01*
X591254Y352956D01*
X591294Y353062D01*
X591339Y353166D01*
X591387Y353269D01*
X591438Y353370D01*
X591493Y353469D01*
X591551Y353566D01*
X591613Y353661D01*
X591678Y353754D01*
X591746Y353844D01*
X591817Y353932D01*
X591892Y354018D01*
X591969Y354101D01*
X592049Y354181D01*
X592132Y354258D01*
X592218Y354333D01*
X592306Y354404D01*
X592396Y354472D01*
X592489Y354537D01*
X592584Y354599D01*
X592681Y354657D01*
X592780Y354712D01*
X592881Y354763D01*
X592984Y354811D01*
X593088Y354856D01*
X593194Y354896D01*
X593301Y354933D01*
X593409Y354966D01*
X593519Y354996D01*
X593629Y355021D01*
X593740Y355043D01*
X593852Y355060D01*
X593965Y355074D01*
X594078Y355084D01*
X594191Y355090D01*
X594304Y355092D01*
X594417Y355090D01*
X594530Y355084D01*
X594643Y355074D01*
X594756Y355060D01*
X594868Y355043D01*
X594979Y355021D01*
X595089Y354996D01*
X595199Y354966D01*
X595307Y354933D01*
X595414Y354896D01*
X595520Y354856D01*
X595624Y354811D01*
X595727Y354763D01*
X595828Y354712D01*
X595927Y354657D01*
X596024Y354599D01*
X596119Y354537D01*
X596212Y354472D01*
X596302Y354404D01*
X596390Y354333D01*
X596476Y354258D01*
X596559Y354181D01*
X596639Y354101D01*
X596716Y354018D01*
X596791Y353932D01*
X596862Y353844D01*
X596930Y353754D01*
X596995Y353661D01*
X597057Y353566D01*
X597115Y353469D01*
X597170Y353370D01*
X597221Y353269D01*
X597269Y353166D01*
X597314Y353062D01*
X597354Y352956D01*
X597391Y352849D01*
X597424Y352741D01*
X597454Y352631D01*
X597479Y352521D01*
X597501Y352410D01*
X597518Y352298D01*
X597532Y352185D01*
X597542Y352072D01*
X597548Y351959D01*
X597550Y351846D01*
X597549Y351846D02*
X597549Y348601D01*
X597549Y352496D02*
X602742Y355092D01*
X418451Y330708D02*
X418451Y328761D01*
X418451Y330708D02*
X424942Y330708D01*
X424942Y326813D01*
X424940Y326714D01*
X424934Y326614D01*
X424925Y326515D01*
X424912Y326417D01*
X424895Y326319D01*
X424874Y326221D01*
X424849Y326125D01*
X424821Y326030D01*
X424789Y325936D01*
X424754Y325843D01*
X424715Y325751D01*
X424672Y325661D01*
X424627Y325573D01*
X424577Y325486D01*
X424525Y325402D01*
X424469Y325319D01*
X424411Y325239D01*
X424349Y325161D01*
X424284Y325086D01*
X424216Y325013D01*
X424146Y324943D01*
X424073Y324875D01*
X423998Y324810D01*
X423920Y324748D01*
X423840Y324690D01*
X423757Y324634D01*
X423673Y324582D01*
X423586Y324532D01*
X423498Y324487D01*
X423408Y324444D01*
X423316Y324405D01*
X423223Y324370D01*
X423129Y324338D01*
X423034Y324310D01*
X422938Y324285D01*
X422840Y324264D01*
X422742Y324247D01*
X422644Y324234D01*
X422545Y324225D01*
X422445Y324219D01*
X422346Y324217D01*
X415854Y324217D01*
X415854Y324216D02*
X415755Y324218D01*
X415655Y324224D01*
X415556Y324233D01*
X415458Y324246D01*
X415360Y324264D01*
X415262Y324284D01*
X415166Y324309D01*
X415070Y324337D01*
X414976Y324369D01*
X414883Y324404D01*
X414792Y324443D01*
X414702Y324486D01*
X414613Y324531D01*
X414527Y324581D01*
X414442Y324633D01*
X414360Y324689D01*
X414280Y324748D01*
X414202Y324809D01*
X414126Y324874D01*
X414053Y324942D01*
X413983Y325012D01*
X413915Y325085D01*
X413850Y325161D01*
X413789Y325239D01*
X413730Y325319D01*
X413674Y325401D01*
X413622Y325486D01*
X413573Y325572D01*
X413527Y325661D01*
X413484Y325751D01*
X413445Y325842D01*
X413410Y325935D01*
X413378Y326029D01*
X413350Y326125D01*
X413325Y326221D01*
X413305Y326319D01*
X413287Y326417D01*
X413274Y326515D01*
X413265Y326614D01*
X413259Y326713D01*
X413257Y326813D01*
X413258Y326813D02*
X413258Y330708D01*
X413258Y336409D02*
X424942Y336409D01*
X424942Y342900D02*
X413258Y336409D01*
X413258Y342900D02*
X424942Y342900D01*
X424942Y348601D02*
X413258Y348601D01*
X413258Y351846D01*
X413260Y351959D01*
X413266Y352072D01*
X413276Y352185D01*
X413290Y352298D01*
X413307Y352410D01*
X413329Y352521D01*
X413354Y352631D01*
X413384Y352741D01*
X413417Y352849D01*
X413454Y352956D01*
X413494Y353062D01*
X413539Y353166D01*
X413587Y353269D01*
X413638Y353370D01*
X413693Y353469D01*
X413751Y353566D01*
X413813Y353661D01*
X413878Y353754D01*
X413946Y353844D01*
X414017Y353932D01*
X414092Y354018D01*
X414169Y354101D01*
X414249Y354181D01*
X414332Y354258D01*
X414418Y354333D01*
X414506Y354404D01*
X414596Y354472D01*
X414689Y354537D01*
X414784Y354599D01*
X414881Y354657D01*
X414980Y354712D01*
X415081Y354763D01*
X415184Y354811D01*
X415288Y354856D01*
X415394Y354896D01*
X415501Y354933D01*
X415609Y354966D01*
X415719Y354996D01*
X415829Y355021D01*
X415940Y355043D01*
X416052Y355060D01*
X416165Y355074D01*
X416278Y355084D01*
X416391Y355090D01*
X416504Y355092D01*
X421696Y355092D01*
X421809Y355090D01*
X421922Y355084D01*
X422035Y355074D01*
X422148Y355060D01*
X422260Y355043D01*
X422371Y355021D01*
X422481Y354996D01*
X422591Y354966D01*
X422699Y354933D01*
X422806Y354896D01*
X422912Y354856D01*
X423016Y354811D01*
X423119Y354763D01*
X423220Y354712D01*
X423319Y354657D01*
X423416Y354599D01*
X423511Y354537D01*
X423604Y354472D01*
X423694Y354404D01*
X423782Y354333D01*
X423868Y354258D01*
X423951Y354181D01*
X424031Y354101D01*
X424108Y354018D01*
X424183Y353932D01*
X424254Y353844D01*
X424322Y353754D01*
X424387Y353661D01*
X424449Y353566D01*
X424507Y353469D01*
X424562Y353370D01*
X424613Y353269D01*
X424661Y353166D01*
X424706Y353062D01*
X424746Y352956D01*
X424783Y352849D01*
X424816Y352741D01*
X424846Y352631D01*
X424871Y352521D01*
X424893Y352410D01*
X424910Y352298D01*
X424924Y352185D01*
X424934Y352072D01*
X424940Y351959D01*
X424942Y351846D01*
X424942Y348601D01*
D10*
X539061Y122312D02*
X539061Y118700D01*
X539059Y118582D01*
X539053Y118464D01*
X539044Y118346D01*
X539030Y118229D01*
X539013Y118112D01*
X538992Y117995D01*
X538967Y117880D01*
X538938Y117765D01*
X538905Y117651D01*
X538869Y117539D01*
X538829Y117428D01*
X538786Y117318D01*
X538739Y117209D01*
X538689Y117102D01*
X538634Y116997D01*
X538577Y116894D01*
X538516Y116793D01*
X538452Y116693D01*
X538385Y116596D01*
X538315Y116501D01*
X538241Y116409D01*
X538165Y116318D01*
X538085Y116231D01*
X538003Y116146D01*
X537918Y116064D01*
X537831Y115984D01*
X537740Y115908D01*
X537648Y115834D01*
X537553Y115764D01*
X537456Y115697D01*
X537356Y115633D01*
X537255Y115572D01*
X537152Y115515D01*
X537047Y115460D01*
X536940Y115410D01*
X536831Y115363D01*
X536721Y115320D01*
X536610Y115280D01*
X536498Y115244D01*
X536384Y115211D01*
X536269Y115182D01*
X536154Y115157D01*
X536037Y115136D01*
X535920Y115119D01*
X535803Y115105D01*
X535685Y115096D01*
X535567Y115090D01*
X535449Y115088D01*
X535449Y115087D02*
X526418Y115087D01*
X526300Y115089D01*
X526182Y115095D01*
X526064Y115104D01*
X525946Y115118D01*
X525829Y115135D01*
X525713Y115156D01*
X525598Y115181D01*
X525483Y115210D01*
X525369Y115243D01*
X525257Y115279D01*
X525145Y115319D01*
X525035Y115362D01*
X524927Y115409D01*
X524820Y115460D01*
X524715Y115514D01*
X524612Y115571D01*
X524510Y115632D01*
X524411Y115696D01*
X524314Y115763D01*
X524219Y115834D01*
X524126Y115907D01*
X524036Y115984D01*
X523948Y116063D01*
X523863Y116145D01*
X523781Y116230D01*
X523702Y116318D01*
X523625Y116408D01*
X523552Y116501D01*
X523481Y116595D01*
X523414Y116693D01*
X523350Y116792D01*
X523289Y116893D01*
X523232Y116997D01*
X523178Y117102D01*
X523127Y117209D01*
X523080Y117317D01*
X523037Y117427D01*
X522997Y117539D01*
X522961Y117651D01*
X522928Y117765D01*
X522899Y117880D01*
X522874Y117995D01*
X522853Y118111D01*
X522836Y118228D01*
X522822Y118346D01*
X522813Y118464D01*
X522807Y118582D01*
X522805Y118700D01*
X522805Y122312D01*
X522805Y128674D02*
X539061Y128674D01*
X530030Y128674D02*
X530030Y137705D01*
X522805Y137705D02*
X539061Y137705D01*
X539061Y144826D02*
X539061Y149342D01*
X539062Y149342D02*
X539060Y149475D01*
X539054Y149607D01*
X539044Y149739D01*
X539031Y149871D01*
X539013Y150003D01*
X538992Y150133D01*
X538967Y150264D01*
X538938Y150393D01*
X538905Y150521D01*
X538869Y150649D01*
X538829Y150775D01*
X538785Y150900D01*
X538737Y151024D01*
X538686Y151146D01*
X538631Y151267D01*
X538573Y151386D01*
X538511Y151504D01*
X538446Y151619D01*
X538377Y151733D01*
X538306Y151844D01*
X538230Y151953D01*
X538152Y152060D01*
X538071Y152165D01*
X537986Y152267D01*
X537899Y152367D01*
X537809Y152464D01*
X537716Y152559D01*
X537620Y152650D01*
X537522Y152739D01*
X537421Y152825D01*
X537317Y152908D01*
X537211Y152988D01*
X537103Y153064D01*
X536993Y153138D01*
X536880Y153208D01*
X536766Y153275D01*
X536649Y153338D01*
X536531Y153398D01*
X536411Y153455D01*
X536289Y153508D01*
X536166Y153557D01*
X536042Y153603D01*
X535916Y153645D01*
X535789Y153683D01*
X535661Y153718D01*
X535532Y153749D01*
X535403Y153776D01*
X535272Y153799D01*
X535141Y153819D01*
X535009Y153834D01*
X534877Y153846D01*
X534745Y153854D01*
X534612Y153858D01*
X534480Y153858D01*
X534347Y153854D01*
X534215Y153846D01*
X534083Y153834D01*
X533951Y153819D01*
X533820Y153799D01*
X533689Y153776D01*
X533560Y153749D01*
X533431Y153718D01*
X533303Y153683D01*
X533176Y153645D01*
X533050Y153603D01*
X532926Y153557D01*
X532803Y153508D01*
X532681Y153455D01*
X532561Y153398D01*
X532443Y153338D01*
X532326Y153275D01*
X532212Y153208D01*
X532099Y153138D01*
X531989Y153064D01*
X531881Y152988D01*
X531775Y152908D01*
X531671Y152825D01*
X531570Y152739D01*
X531472Y152650D01*
X531376Y152559D01*
X531283Y152464D01*
X531193Y152367D01*
X531106Y152267D01*
X531021Y152165D01*
X530940Y152060D01*
X530862Y151953D01*
X530786Y151844D01*
X530715Y151733D01*
X530646Y151619D01*
X530581Y151504D01*
X530519Y151386D01*
X530461Y151267D01*
X530406Y151146D01*
X530355Y151024D01*
X530307Y150900D01*
X530263Y150775D01*
X530223Y150649D01*
X530187Y150521D01*
X530154Y150393D01*
X530125Y150264D01*
X530100Y150133D01*
X530079Y150003D01*
X530061Y149871D01*
X530048Y149739D01*
X530038Y149607D01*
X530032Y149475D01*
X530030Y149342D01*
X522805Y150245D02*
X522805Y144826D01*
X522806Y150245D02*
X522808Y150364D01*
X522814Y150484D01*
X522824Y150603D01*
X522838Y150721D01*
X522855Y150840D01*
X522877Y150957D01*
X522902Y151074D01*
X522932Y151189D01*
X522965Y151304D01*
X523002Y151418D01*
X523042Y151530D01*
X523087Y151641D01*
X523135Y151750D01*
X523186Y151858D01*
X523241Y151964D01*
X523300Y152068D01*
X523362Y152170D01*
X523427Y152270D01*
X523496Y152368D01*
X523568Y152464D01*
X523643Y152557D01*
X523720Y152647D01*
X523801Y152735D01*
X523885Y152820D01*
X523972Y152902D01*
X524061Y152982D01*
X524153Y153058D01*
X524247Y153132D01*
X524344Y153202D01*
X524442Y153269D01*
X524543Y153333D01*
X524647Y153393D01*
X524752Y153450D01*
X524859Y153503D01*
X524967Y153553D01*
X525077Y153599D01*
X525189Y153641D01*
X525302Y153680D01*
X525416Y153715D01*
X525531Y153746D01*
X525648Y153774D01*
X525765Y153797D01*
X525882Y153817D01*
X526001Y153833D01*
X526120Y153845D01*
X526239Y153853D01*
X526358Y153857D01*
X526478Y153857D01*
X526597Y153853D01*
X526716Y153845D01*
X526835Y153833D01*
X526954Y153817D01*
X527071Y153797D01*
X527188Y153774D01*
X527305Y153746D01*
X527420Y153715D01*
X527534Y153680D01*
X527647Y153641D01*
X527759Y153599D01*
X527869Y153553D01*
X527977Y153503D01*
X528084Y153450D01*
X528189Y153393D01*
X528293Y153333D01*
X528394Y153269D01*
X528492Y153202D01*
X528589Y153132D01*
X528683Y153058D01*
X528775Y152982D01*
X528864Y152902D01*
X528951Y152820D01*
X529035Y152735D01*
X529116Y152647D01*
X529193Y152557D01*
X529268Y152464D01*
X529340Y152368D01*
X529409Y152270D01*
X529474Y152170D01*
X529536Y152068D01*
X529595Y151964D01*
X529650Y151858D01*
X529701Y151750D01*
X529749Y151641D01*
X529794Y151530D01*
X529834Y151418D01*
X529871Y151304D01*
X529904Y151189D01*
X529934Y151074D01*
X529959Y150957D01*
X529981Y150840D01*
X529998Y150721D01*
X530012Y150603D01*
X530022Y150484D01*
X530028Y150364D01*
X530030Y150245D01*
X530030Y146632D01*
X524612Y160457D02*
X522805Y160457D01*
X522805Y169488D01*
X539061Y164973D01*
X539061Y175186D02*
X522805Y186023D01*
X522805Y175186D02*
X539061Y186023D01*
X530030Y192452D02*
X530030Y196967D01*
X530032Y197100D01*
X530038Y197232D01*
X530048Y197364D01*
X530061Y197496D01*
X530079Y197628D01*
X530100Y197758D01*
X530125Y197889D01*
X530154Y198018D01*
X530187Y198146D01*
X530223Y198274D01*
X530263Y198400D01*
X530307Y198525D01*
X530355Y198649D01*
X530406Y198771D01*
X530461Y198892D01*
X530519Y199011D01*
X530581Y199129D01*
X530646Y199244D01*
X530715Y199358D01*
X530786Y199469D01*
X530862Y199578D01*
X530940Y199685D01*
X531021Y199790D01*
X531106Y199892D01*
X531193Y199992D01*
X531283Y200089D01*
X531376Y200184D01*
X531472Y200275D01*
X531570Y200364D01*
X531671Y200450D01*
X531775Y200533D01*
X531881Y200613D01*
X531989Y200689D01*
X532099Y200763D01*
X532212Y200833D01*
X532326Y200900D01*
X532443Y200963D01*
X532561Y201023D01*
X532681Y201080D01*
X532803Y201133D01*
X532926Y201182D01*
X533050Y201228D01*
X533176Y201270D01*
X533303Y201308D01*
X533431Y201343D01*
X533560Y201374D01*
X533689Y201401D01*
X533820Y201424D01*
X533951Y201444D01*
X534083Y201459D01*
X534215Y201471D01*
X534347Y201479D01*
X534480Y201483D01*
X534612Y201483D01*
X534745Y201479D01*
X534877Y201471D01*
X535009Y201459D01*
X535141Y201444D01*
X535272Y201424D01*
X535403Y201401D01*
X535532Y201374D01*
X535661Y201343D01*
X535789Y201308D01*
X535916Y201270D01*
X536042Y201228D01*
X536166Y201182D01*
X536289Y201133D01*
X536411Y201080D01*
X536531Y201023D01*
X536649Y200963D01*
X536766Y200900D01*
X536880Y200833D01*
X536993Y200763D01*
X537103Y200689D01*
X537211Y200613D01*
X537317Y200533D01*
X537421Y200450D01*
X537522Y200364D01*
X537620Y200275D01*
X537716Y200184D01*
X537809Y200089D01*
X537899Y199992D01*
X537986Y199892D01*
X538071Y199790D01*
X538152Y199685D01*
X538230Y199578D01*
X538306Y199469D01*
X538377Y199358D01*
X538446Y199244D01*
X538511Y199129D01*
X538573Y199011D01*
X538631Y198892D01*
X538686Y198771D01*
X538737Y198649D01*
X538785Y198525D01*
X538829Y198400D01*
X538869Y198274D01*
X538905Y198146D01*
X538938Y198018D01*
X538967Y197889D01*
X538992Y197758D01*
X539013Y197628D01*
X539031Y197496D01*
X539044Y197364D01*
X539054Y197232D01*
X539060Y197100D01*
X539062Y196967D01*
X539061Y196967D02*
X539061Y192452D01*
X522805Y192452D01*
X522805Y196967D01*
X522806Y196967D02*
X522808Y197086D01*
X522814Y197206D01*
X522824Y197325D01*
X522838Y197443D01*
X522855Y197562D01*
X522877Y197679D01*
X522902Y197796D01*
X522932Y197911D01*
X522965Y198026D01*
X523002Y198140D01*
X523042Y198252D01*
X523087Y198363D01*
X523135Y198472D01*
X523186Y198580D01*
X523241Y198686D01*
X523300Y198790D01*
X523362Y198892D01*
X523427Y198992D01*
X523496Y199090D01*
X523568Y199186D01*
X523643Y199279D01*
X523720Y199369D01*
X523801Y199457D01*
X523885Y199542D01*
X523972Y199624D01*
X524061Y199704D01*
X524153Y199780D01*
X524247Y199854D01*
X524344Y199924D01*
X524442Y199991D01*
X524543Y200055D01*
X524647Y200115D01*
X524752Y200172D01*
X524859Y200225D01*
X524967Y200275D01*
X525077Y200321D01*
X525189Y200363D01*
X525302Y200402D01*
X525416Y200437D01*
X525531Y200468D01*
X525648Y200496D01*
X525765Y200519D01*
X525882Y200539D01*
X526001Y200555D01*
X526120Y200567D01*
X526239Y200575D01*
X526358Y200579D01*
X526478Y200579D01*
X526597Y200575D01*
X526716Y200567D01*
X526835Y200555D01*
X526954Y200539D01*
X527071Y200519D01*
X527188Y200496D01*
X527305Y200468D01*
X527420Y200437D01*
X527534Y200402D01*
X527647Y200363D01*
X527759Y200321D01*
X527869Y200275D01*
X527977Y200225D01*
X528084Y200172D01*
X528189Y200115D01*
X528293Y200055D01*
X528394Y199991D01*
X528492Y199924D01*
X528589Y199854D01*
X528683Y199780D01*
X528775Y199704D01*
X528864Y199624D01*
X528951Y199542D01*
X529035Y199457D01*
X529116Y199369D01*
X529193Y199279D01*
X529268Y199186D01*
X529340Y199090D01*
X529409Y198992D01*
X529474Y198892D01*
X529536Y198790D01*
X529595Y198686D01*
X529650Y198580D01*
X529701Y198472D01*
X529749Y198363D01*
X529794Y198252D01*
X529834Y198140D01*
X529871Y198026D01*
X529904Y197911D01*
X529934Y197796D01*
X529959Y197679D01*
X529981Y197562D01*
X529998Y197443D01*
X530012Y197325D01*
X530022Y197206D01*
X530028Y197086D01*
X530030Y196967D01*
X527321Y207351D02*
X534546Y207351D01*
X527321Y207351D02*
X527188Y207353D01*
X527056Y207359D01*
X526924Y207369D01*
X526792Y207382D01*
X526660Y207400D01*
X526530Y207421D01*
X526399Y207446D01*
X526270Y207475D01*
X526142Y207508D01*
X526014Y207544D01*
X525888Y207584D01*
X525763Y207628D01*
X525639Y207676D01*
X525517Y207727D01*
X525396Y207782D01*
X525277Y207840D01*
X525159Y207902D01*
X525044Y207967D01*
X524930Y208036D01*
X524819Y208107D01*
X524710Y208183D01*
X524603Y208261D01*
X524498Y208342D01*
X524396Y208427D01*
X524296Y208514D01*
X524199Y208604D01*
X524104Y208697D01*
X524013Y208793D01*
X523924Y208891D01*
X523838Y208992D01*
X523755Y209096D01*
X523675Y209202D01*
X523599Y209310D01*
X523525Y209420D01*
X523455Y209533D01*
X523388Y209647D01*
X523325Y209764D01*
X523265Y209882D01*
X523208Y210002D01*
X523155Y210124D01*
X523106Y210247D01*
X523060Y210371D01*
X523018Y210497D01*
X522980Y210624D01*
X522945Y210752D01*
X522914Y210881D01*
X522887Y211010D01*
X522864Y211141D01*
X522844Y211272D01*
X522829Y211404D01*
X522817Y211536D01*
X522809Y211668D01*
X522805Y211801D01*
X522805Y211933D01*
X522809Y212066D01*
X522817Y212198D01*
X522829Y212330D01*
X522844Y212462D01*
X522864Y212593D01*
X522887Y212724D01*
X522914Y212853D01*
X522945Y212982D01*
X522980Y213110D01*
X523018Y213237D01*
X523060Y213363D01*
X523106Y213487D01*
X523155Y213610D01*
X523208Y213732D01*
X523265Y213852D01*
X523325Y213970D01*
X523388Y214087D01*
X523455Y214201D01*
X523525Y214314D01*
X523599Y214424D01*
X523675Y214532D01*
X523755Y214638D01*
X523838Y214742D01*
X523924Y214843D01*
X524013Y214941D01*
X524104Y215037D01*
X524199Y215130D01*
X524296Y215220D01*
X524396Y215307D01*
X524498Y215392D01*
X524603Y215473D01*
X524710Y215551D01*
X524819Y215627D01*
X524930Y215698D01*
X525044Y215767D01*
X525159Y215832D01*
X525277Y215894D01*
X525396Y215952D01*
X525517Y216007D01*
X525639Y216058D01*
X525763Y216106D01*
X525888Y216150D01*
X526014Y216190D01*
X526142Y216226D01*
X526270Y216259D01*
X526399Y216288D01*
X526530Y216313D01*
X526660Y216334D01*
X526792Y216352D01*
X526924Y216365D01*
X527056Y216375D01*
X527188Y216381D01*
X527321Y216383D01*
X527321Y216382D02*
X534546Y216382D01*
X534546Y216383D02*
X534679Y216381D01*
X534811Y216375D01*
X534943Y216365D01*
X535075Y216352D01*
X535207Y216334D01*
X535337Y216313D01*
X535468Y216288D01*
X535597Y216259D01*
X535725Y216226D01*
X535853Y216190D01*
X535979Y216150D01*
X536104Y216106D01*
X536228Y216058D01*
X536350Y216007D01*
X536471Y215952D01*
X536590Y215894D01*
X536708Y215832D01*
X536823Y215767D01*
X536937Y215698D01*
X537048Y215627D01*
X537157Y215551D01*
X537264Y215473D01*
X537369Y215392D01*
X537471Y215307D01*
X537571Y215220D01*
X537668Y215130D01*
X537763Y215037D01*
X537854Y214941D01*
X537943Y214843D01*
X538029Y214742D01*
X538112Y214638D01*
X538192Y214532D01*
X538268Y214424D01*
X538342Y214314D01*
X538412Y214201D01*
X538479Y214087D01*
X538542Y213970D01*
X538602Y213852D01*
X538659Y213732D01*
X538712Y213610D01*
X538761Y213487D01*
X538807Y213363D01*
X538849Y213237D01*
X538887Y213110D01*
X538922Y212982D01*
X538953Y212853D01*
X538980Y212724D01*
X539003Y212593D01*
X539023Y212462D01*
X539038Y212330D01*
X539050Y212198D01*
X539058Y212066D01*
X539062Y211933D01*
X539062Y211801D01*
X539058Y211668D01*
X539050Y211536D01*
X539038Y211404D01*
X539023Y211272D01*
X539003Y211141D01*
X538980Y211010D01*
X538953Y210881D01*
X538922Y210752D01*
X538887Y210624D01*
X538849Y210497D01*
X538807Y210371D01*
X538761Y210247D01*
X538712Y210124D01*
X538659Y210002D01*
X538602Y209882D01*
X538542Y209764D01*
X538479Y209647D01*
X538412Y209533D01*
X538342Y209420D01*
X538268Y209310D01*
X538192Y209202D01*
X538112Y209096D01*
X538029Y208992D01*
X537943Y208891D01*
X537854Y208793D01*
X537763Y208697D01*
X537668Y208604D01*
X537571Y208514D01*
X537471Y208427D01*
X537369Y208342D01*
X537264Y208261D01*
X537157Y208183D01*
X537048Y208107D01*
X536937Y208036D01*
X536823Y207967D01*
X536708Y207902D01*
X536590Y207840D01*
X536471Y207782D01*
X536350Y207727D01*
X536228Y207676D01*
X536104Y207628D01*
X535979Y207584D01*
X535853Y207544D01*
X535725Y207508D01*
X535597Y207475D01*
X535468Y207446D01*
X535337Y207421D01*
X535207Y207400D01*
X535075Y207382D01*
X534943Y207369D01*
X534811Y207359D01*
X534679Y207353D01*
X534546Y207351D01*
X539061Y222079D02*
X522805Y227498D01*
X539061Y232917D01*
X534997Y231562D02*
X534997Y223434D01*
X539061Y239226D02*
X522805Y239226D01*
X522805Y243742D01*
X522807Y243875D01*
X522813Y244007D01*
X522823Y244139D01*
X522836Y244271D01*
X522854Y244403D01*
X522875Y244533D01*
X522900Y244664D01*
X522929Y244793D01*
X522962Y244921D01*
X522998Y245049D01*
X523038Y245175D01*
X523082Y245300D01*
X523130Y245424D01*
X523181Y245546D01*
X523236Y245667D01*
X523294Y245786D01*
X523356Y245904D01*
X523421Y246019D01*
X523490Y246133D01*
X523561Y246244D01*
X523637Y246353D01*
X523715Y246460D01*
X523796Y246565D01*
X523881Y246667D01*
X523968Y246767D01*
X524058Y246864D01*
X524151Y246959D01*
X524247Y247050D01*
X524345Y247139D01*
X524446Y247225D01*
X524550Y247308D01*
X524656Y247388D01*
X524764Y247464D01*
X524874Y247538D01*
X524987Y247608D01*
X525101Y247675D01*
X525218Y247738D01*
X525336Y247798D01*
X525456Y247855D01*
X525578Y247908D01*
X525701Y247957D01*
X525825Y248003D01*
X525951Y248045D01*
X526078Y248083D01*
X526206Y248118D01*
X526335Y248149D01*
X526464Y248176D01*
X526595Y248199D01*
X526726Y248219D01*
X526858Y248234D01*
X526990Y248246D01*
X527122Y248254D01*
X527255Y248258D01*
X527387Y248258D01*
X527520Y248254D01*
X527652Y248246D01*
X527784Y248234D01*
X527916Y248219D01*
X528047Y248199D01*
X528178Y248176D01*
X528307Y248149D01*
X528436Y248118D01*
X528564Y248083D01*
X528691Y248045D01*
X528817Y248003D01*
X528941Y247957D01*
X529064Y247908D01*
X529186Y247855D01*
X529306Y247798D01*
X529424Y247738D01*
X529541Y247675D01*
X529655Y247608D01*
X529768Y247538D01*
X529878Y247464D01*
X529986Y247388D01*
X530092Y247308D01*
X530196Y247225D01*
X530297Y247139D01*
X530395Y247050D01*
X530491Y246959D01*
X530584Y246864D01*
X530674Y246767D01*
X530761Y246667D01*
X530846Y246565D01*
X530927Y246460D01*
X531005Y246353D01*
X531081Y246244D01*
X531152Y246133D01*
X531221Y246019D01*
X531286Y245904D01*
X531348Y245786D01*
X531406Y245667D01*
X531461Y245546D01*
X531512Y245424D01*
X531560Y245300D01*
X531604Y245175D01*
X531644Y245049D01*
X531680Y244921D01*
X531713Y244793D01*
X531742Y244664D01*
X531767Y244533D01*
X531788Y244403D01*
X531806Y244271D01*
X531819Y244139D01*
X531829Y244007D01*
X531835Y243875D01*
X531837Y243742D01*
X531836Y243742D02*
X531836Y239226D01*
X531836Y244645D02*
X539061Y248257D01*
X539061Y255287D02*
X522805Y255287D01*
X522805Y259802D01*
X522807Y259933D01*
X522813Y260065D01*
X522822Y260196D01*
X522836Y260326D01*
X522853Y260457D01*
X522874Y260586D01*
X522898Y260715D01*
X522927Y260843D01*
X522959Y260971D01*
X522995Y261097D01*
X523034Y261222D01*
X523077Y261347D01*
X523124Y261469D01*
X523174Y261591D01*
X523228Y261711D01*
X523285Y261829D01*
X523346Y261945D01*
X523410Y262060D01*
X523477Y262173D01*
X523548Y262284D01*
X523622Y262392D01*
X523699Y262499D01*
X523779Y262603D01*
X523862Y262705D01*
X523947Y262804D01*
X524036Y262901D01*
X524128Y262995D01*
X524222Y263087D01*
X524319Y263176D01*
X524418Y263261D01*
X524520Y263344D01*
X524624Y263424D01*
X524731Y263501D01*
X524839Y263575D01*
X524950Y263646D01*
X525063Y263713D01*
X525178Y263777D01*
X525294Y263838D01*
X525412Y263895D01*
X525532Y263949D01*
X525654Y263999D01*
X525776Y264046D01*
X525901Y264089D01*
X526026Y264128D01*
X526152Y264164D01*
X526280Y264196D01*
X526408Y264225D01*
X526537Y264249D01*
X526666Y264270D01*
X526797Y264287D01*
X526927Y264301D01*
X527058Y264310D01*
X527190Y264316D01*
X527321Y264318D01*
X534546Y264318D01*
X534677Y264316D01*
X534809Y264310D01*
X534940Y264301D01*
X535070Y264287D01*
X535201Y264270D01*
X535330Y264249D01*
X535459Y264225D01*
X535587Y264196D01*
X535715Y264164D01*
X535841Y264128D01*
X535966Y264089D01*
X536091Y264046D01*
X536213Y263999D01*
X536335Y263949D01*
X536455Y263895D01*
X536573Y263838D01*
X536689Y263777D01*
X536804Y263713D01*
X536917Y263646D01*
X537028Y263575D01*
X537136Y263501D01*
X537243Y263424D01*
X537347Y263344D01*
X537449Y263261D01*
X537548Y263176D01*
X537645Y263087D01*
X537739Y262995D01*
X537831Y262901D01*
X537920Y262804D01*
X538005Y262705D01*
X538088Y262603D01*
X538168Y262499D01*
X538245Y262392D01*
X538319Y262284D01*
X538390Y262173D01*
X538457Y262060D01*
X538521Y261945D01*
X538582Y261829D01*
X538639Y261711D01*
X538693Y261591D01*
X538743Y261469D01*
X538790Y261347D01*
X538833Y261222D01*
X538872Y261097D01*
X538908Y260971D01*
X538940Y260843D01*
X538969Y260715D01*
X538993Y260586D01*
X539014Y260456D01*
X539031Y260326D01*
X539045Y260196D01*
X539054Y260065D01*
X539060Y259933D01*
X539062Y259802D01*
X539061Y259802D02*
X539061Y255287D01*
D15*
X71200Y87850D02*
X30400Y97850D01*
X24050Y530800D02*
X24052Y530958D01*
X24058Y531117D01*
X24068Y531275D01*
X24082Y531432D01*
X24099Y531590D01*
X24121Y531746D01*
X24146Y531903D01*
X24176Y532058D01*
X24209Y532213D01*
X24246Y532367D01*
X24287Y532520D01*
X24332Y532672D01*
X24381Y532822D01*
X24433Y532972D01*
X24489Y533120D01*
X24549Y533267D01*
X24612Y533412D01*
X24679Y533555D01*
X24749Y533697D01*
X24823Y533837D01*
X24901Y533975D01*
X24982Y534111D01*
X25066Y534245D01*
X25153Y534377D01*
X25244Y534507D01*
X25338Y534634D01*
X25435Y534759D01*
X25536Y534882D01*
X25639Y535002D01*
X25745Y535119D01*
X25854Y535234D01*
X25966Y535346D01*
X26081Y535455D01*
X26198Y535561D01*
X26318Y535664D01*
X26441Y535765D01*
X26566Y535862D01*
X26693Y535956D01*
X26823Y536047D01*
X26955Y536134D01*
X27089Y536218D01*
X27225Y536299D01*
X27363Y536377D01*
X27503Y536451D01*
X27645Y536521D01*
X27788Y536588D01*
X27933Y536651D01*
X28080Y536711D01*
X28228Y536767D01*
X28378Y536819D01*
X28528Y536868D01*
X28680Y536913D01*
X28833Y536954D01*
X28987Y536991D01*
X29142Y537024D01*
X29297Y537054D01*
X29454Y537079D01*
X29610Y537101D01*
X29768Y537118D01*
X29925Y537132D01*
X30083Y537142D01*
X30242Y537148D01*
X30400Y537150D01*
X71200Y547150D01*
X71358Y547148D01*
X71517Y547142D01*
X71675Y547132D01*
X71832Y547118D01*
X71990Y547101D01*
X72146Y547079D01*
X72303Y547054D01*
X72458Y547024D01*
X72613Y546991D01*
X72767Y546954D01*
X72920Y546913D01*
X73072Y546868D01*
X73222Y546819D01*
X73372Y546767D01*
X73520Y546711D01*
X73667Y546651D01*
X73812Y546588D01*
X73955Y546521D01*
X74097Y546451D01*
X74237Y546377D01*
X74375Y546299D01*
X74511Y546218D01*
X74645Y546134D01*
X74777Y546047D01*
X74907Y545956D01*
X75034Y545862D01*
X75159Y545765D01*
X75282Y545664D01*
X75402Y545561D01*
X75519Y545455D01*
X75634Y545346D01*
X75746Y545234D01*
X75855Y545119D01*
X75961Y545002D01*
X76064Y544882D01*
X76165Y544759D01*
X76262Y544634D01*
X76356Y544507D01*
X76447Y544377D01*
X76534Y544245D01*
X76618Y544111D01*
X76699Y543975D01*
X76777Y543837D01*
X76851Y543697D01*
X76921Y543555D01*
X76988Y543412D01*
X77051Y543267D01*
X77111Y543120D01*
X77167Y542972D01*
X77219Y542822D01*
X77268Y542672D01*
X77313Y542520D01*
X77354Y542367D01*
X77391Y542213D01*
X77424Y542058D01*
X77454Y541903D01*
X77479Y541746D01*
X77501Y541590D01*
X77518Y541432D01*
X77532Y541275D01*
X77542Y541117D01*
X77548Y540958D01*
X77550Y540800D01*
X77550Y94200D02*
X77548Y94042D01*
X77542Y93883D01*
X77532Y93725D01*
X77518Y93568D01*
X77501Y93410D01*
X77479Y93254D01*
X77454Y93097D01*
X77424Y92942D01*
X77391Y92787D01*
X77354Y92633D01*
X77313Y92480D01*
X77268Y92328D01*
X77219Y92178D01*
X77167Y92028D01*
X77111Y91880D01*
X77051Y91733D01*
X76988Y91588D01*
X76921Y91445D01*
X76851Y91303D01*
X76777Y91163D01*
X76699Y91025D01*
X76618Y90889D01*
X76534Y90755D01*
X76447Y90623D01*
X76356Y90493D01*
X76262Y90366D01*
X76165Y90241D01*
X76064Y90118D01*
X75961Y89998D01*
X75855Y89881D01*
X75746Y89766D01*
X75634Y89654D01*
X75519Y89545D01*
X75402Y89439D01*
X75282Y89336D01*
X75159Y89235D01*
X75034Y89138D01*
X74907Y89044D01*
X74777Y88953D01*
X74645Y88866D01*
X74511Y88782D01*
X74375Y88701D01*
X74237Y88623D01*
X74097Y88549D01*
X73955Y88479D01*
X73812Y88412D01*
X73667Y88349D01*
X73520Y88289D01*
X73372Y88233D01*
X73222Y88181D01*
X73072Y88132D01*
X72920Y88087D01*
X72767Y88046D01*
X72613Y88009D01*
X72458Y87976D01*
X72303Y87946D01*
X72146Y87921D01*
X71990Y87899D01*
X71832Y87882D01*
X71675Y87868D01*
X71517Y87858D01*
X71358Y87852D01*
X71200Y87850D01*
X101300Y-900D02*
X101300Y635900D01*
X101300Y-900D02*
X300Y-900D01*
X300Y635900D01*
X101300Y635900D01*
X5800Y625900D02*
X5800Y565900D01*
X95800Y565900D01*
X95800Y625900D01*
X85800Y625900D01*
X85800Y585150D01*
X85800Y575900D01*
X75800Y575900D01*
X25800Y575900D01*
X15800Y575900D01*
X15800Y585150D01*
X15800Y625900D01*
X5800Y625900D01*
X75800Y585150D02*
X85800Y585150D01*
X75800Y585150D02*
X75800Y575900D01*
X25800Y575900D02*
X25800Y585150D01*
X15800Y585150D01*
X95800Y69100D02*
X95800Y9100D01*
X95800Y69100D02*
X5800Y69100D01*
X5800Y9100D01*
X15800Y9100D01*
X15800Y49850D01*
X15800Y59100D01*
X25800Y59100D01*
X75800Y59100D01*
X85800Y59100D01*
X85800Y49850D01*
X85800Y9100D01*
X95800Y9100D01*
X25800Y49850D02*
X15800Y49850D01*
X25800Y49850D02*
X25800Y59100D01*
X75800Y59100D02*
X75800Y49850D01*
X85800Y49850D01*
X183130Y565150D02*
X183130Y600710D01*
X248670Y600710D01*
X248670Y565150D01*
X183130Y565150D01*
D10*
X450850Y584200D02*
X463550Y584200D01*
X469900Y577850D01*
X469900Y565150D01*
X463550Y558800D01*
X469900Y577850D02*
X476250Y584200D01*
X488950Y584200D01*
X495300Y577850D01*
X495300Y565150D01*
X488950Y558800D01*
X476250Y558800D01*
X469900Y565150D01*
X444500Y565150D02*
X444500Y577850D01*
X450850Y584200D01*
X444500Y565150D02*
X450850Y558800D01*
X463550Y558800D01*
X495300Y577850D02*
X501650Y584200D01*
X514350Y584200D01*
X520700Y577850D01*
X520700Y565150D01*
X514350Y558800D01*
X501650Y558800D01*
X495300Y565150D01*
X196850Y508000D02*
X184150Y508000D01*
X196850Y508000D02*
X203200Y501650D01*
X203200Y488950D01*
X196850Y482600D01*
X203200Y501650D02*
X209550Y508000D01*
X222250Y508000D01*
X228600Y501650D01*
X228600Y488950D01*
X222250Y482600D01*
X209550Y482600D01*
X203200Y488950D01*
X177800Y488950D02*
X177800Y501650D01*
X184150Y508000D01*
X177800Y488950D02*
X184150Y482600D01*
X196850Y482600D01*
X228600Y501650D02*
X234950Y508000D01*
X247650Y508000D01*
X254000Y501650D01*
X254000Y488950D01*
X247650Y482600D01*
X234950Y482600D01*
X228600Y488950D01*
X304800Y488950D02*
X304800Y501650D01*
X304800Y488950D02*
X298450Y482600D01*
X285750Y482600D01*
X279400Y488950D01*
X285750Y508000D02*
X298450Y508000D01*
X304800Y501650D01*
X285750Y508000D02*
X279400Y501650D01*
X279400Y488950D01*
X298450Y482600D02*
X304800Y476250D01*
X304800Y463550D01*
X298450Y457200D01*
X285750Y457200D01*
X279400Y463550D01*
X279400Y476250D01*
X285750Y482600D01*
X127000Y476250D02*
X127000Y463550D01*
X127000Y476250D02*
X133350Y482600D01*
X146050Y482600D01*
X152400Y476250D01*
X146050Y457200D02*
X133350Y457200D01*
X127000Y463550D01*
X146050Y457200D02*
X152400Y463550D01*
X152400Y476250D01*
X133350Y482600D02*
X127000Y488950D01*
X127000Y501650D01*
X133350Y508000D01*
X146050Y508000D01*
X152400Y501650D01*
X152400Y488950D01*
X146050Y482600D01*
M02*
