G04 EAGLE Gerber RS-274X export*
G75*
%MOMM*%
%FSLAX34Y34*%
%LPD*%
%INBottom Copper*%
%IPPOS*%
%AMOC8*
5,1,8,0,0,1.08239X$1,22.5*%
G01*
%ADD10C,1.306400*%
%ADD11P,1.539592X8X292.500000*%
%ADD12C,1.422400*%
%ADD13C,0.650000*%
%ADD14C,0.152400*%
%ADD15C,0.609600*%

G36*
X632258Y2004D02*
X632258Y2004D01*
X632277Y2002D01*
X632379Y2024D01*
X632481Y2040D01*
X632498Y2050D01*
X632518Y2054D01*
X632607Y2107D01*
X632698Y2156D01*
X632712Y2170D01*
X632729Y2180D01*
X632796Y2259D01*
X632868Y2334D01*
X632876Y2352D01*
X632889Y2367D01*
X632928Y2463D01*
X632971Y2557D01*
X632973Y2577D01*
X632981Y2595D01*
X632999Y2762D01*
X632999Y632238D01*
X632996Y632258D01*
X632998Y632277D01*
X632976Y632379D01*
X632960Y632481D01*
X632950Y632498D01*
X632946Y632518D01*
X632893Y632607D01*
X632844Y632698D01*
X632830Y632712D01*
X632820Y632729D01*
X632741Y632796D01*
X632666Y632868D01*
X632648Y632876D01*
X632633Y632889D01*
X632537Y632928D01*
X632443Y632971D01*
X632423Y632973D01*
X632405Y632981D01*
X632238Y632999D01*
X2762Y632999D01*
X2742Y632996D01*
X2723Y632998D01*
X2621Y632976D01*
X2519Y632960D01*
X2502Y632950D01*
X2482Y632946D01*
X2393Y632893D01*
X2302Y632844D01*
X2288Y632830D01*
X2271Y632820D01*
X2204Y632741D01*
X2132Y632666D01*
X2124Y632648D01*
X2111Y632633D01*
X2072Y632537D01*
X2029Y632443D01*
X2027Y632423D01*
X2019Y632405D01*
X2001Y632238D01*
X2001Y2762D01*
X2004Y2742D01*
X2002Y2723D01*
X2024Y2621D01*
X2040Y2519D01*
X2050Y2502D01*
X2054Y2482D01*
X2107Y2393D01*
X2156Y2302D01*
X2170Y2288D01*
X2180Y2271D01*
X2259Y2204D01*
X2334Y2132D01*
X2352Y2124D01*
X2367Y2111D01*
X2463Y2072D01*
X2557Y2029D01*
X2577Y2027D01*
X2595Y2019D01*
X2762Y2001D01*
X632238Y2001D01*
X632258Y2004D01*
G37*
%LPC*%
G36*
X491525Y130587D02*
X491525Y130587D01*
X486187Y135925D01*
X486187Y143475D01*
X491525Y148813D01*
X499075Y148813D01*
X499768Y148119D01*
X499784Y148108D01*
X499797Y148092D01*
X499884Y148036D01*
X499968Y147976D01*
X499987Y147970D01*
X500004Y147959D01*
X500104Y147934D01*
X500203Y147903D01*
X500223Y147904D01*
X500242Y147899D01*
X500345Y147907D01*
X500449Y147910D01*
X500467Y147917D01*
X500487Y147918D01*
X500582Y147959D01*
X500680Y147994D01*
X500695Y148007D01*
X500714Y148014D01*
X500845Y148119D01*
X528096Y175371D01*
X528149Y175445D01*
X528209Y175514D01*
X528221Y175545D01*
X528240Y175571D01*
X528267Y175658D01*
X528301Y175743D01*
X528305Y175784D01*
X528312Y175806D01*
X528311Y175838D01*
X528319Y175909D01*
X528319Y193407D01*
X528308Y193477D01*
X528306Y193549D01*
X528288Y193598D01*
X528280Y193649D01*
X528246Y193713D01*
X528221Y193780D01*
X528189Y193821D01*
X528164Y193867D01*
X528113Y193916D01*
X528068Y193972D01*
X528024Y194000D01*
X527986Y194036D01*
X527921Y194066D01*
X527861Y194105D01*
X527810Y194118D01*
X527763Y194140D01*
X527692Y194148D01*
X527622Y194165D01*
X527570Y194161D01*
X527519Y194167D01*
X527448Y194152D01*
X527377Y194146D01*
X527329Y194126D01*
X527278Y194115D01*
X527217Y194078D01*
X527151Y194050D01*
X527095Y194005D01*
X527067Y193989D01*
X527052Y193971D01*
X527020Y193945D01*
X503719Y170645D01*
X503708Y170628D01*
X503692Y170616D01*
X503636Y170529D01*
X503576Y170445D01*
X503570Y170426D01*
X503559Y170409D01*
X503534Y170309D01*
X503503Y170210D01*
X503504Y170190D01*
X503499Y170171D01*
X503507Y170068D01*
X503510Y169964D01*
X503517Y169945D01*
X503518Y169925D01*
X503559Y169830D01*
X503594Y169733D01*
X503607Y169717D01*
X503614Y169699D01*
X503719Y169568D01*
X504413Y168875D01*
X504413Y161325D01*
X499075Y155987D01*
X491525Y155987D01*
X486187Y161325D01*
X486187Y168875D01*
X491525Y174213D01*
X499075Y174213D01*
X499768Y173519D01*
X499784Y173508D01*
X499797Y173492D01*
X499884Y173436D01*
X499968Y173376D01*
X499987Y173370D01*
X500004Y173359D01*
X500104Y173334D01*
X500203Y173303D01*
X500223Y173304D01*
X500242Y173299D01*
X500345Y173307D01*
X500449Y173310D01*
X500467Y173317D01*
X500487Y173318D01*
X500582Y173359D01*
X500680Y173394D01*
X500695Y173407D01*
X500714Y173414D01*
X500845Y173519D01*
X525302Y197977D01*
X525355Y198051D01*
X525415Y198120D01*
X525427Y198151D01*
X525446Y198177D01*
X525473Y198264D01*
X525507Y198349D01*
X525511Y198390D01*
X525518Y198412D01*
X525517Y198444D01*
X525525Y198515D01*
X525525Y216013D01*
X525514Y216083D01*
X525512Y216155D01*
X525494Y216204D01*
X525486Y216255D01*
X525452Y216319D01*
X525427Y216386D01*
X525395Y216427D01*
X525370Y216473D01*
X525319Y216522D01*
X525274Y216578D01*
X525230Y216606D01*
X525192Y216642D01*
X525127Y216672D01*
X525067Y216711D01*
X525016Y216724D01*
X524969Y216746D01*
X524898Y216754D01*
X524828Y216771D01*
X524776Y216767D01*
X524725Y216773D01*
X524654Y216758D01*
X524583Y216752D01*
X524535Y216732D01*
X524484Y216721D01*
X524423Y216684D01*
X524357Y216656D01*
X524301Y216611D01*
X524273Y216595D01*
X524258Y216577D01*
X524226Y216551D01*
X503719Y196045D01*
X503708Y196028D01*
X503692Y196016D01*
X503636Y195929D01*
X503576Y195845D01*
X503570Y195826D01*
X503559Y195809D01*
X503534Y195709D01*
X503503Y195610D01*
X503504Y195590D01*
X503499Y195571D01*
X503507Y195468D01*
X503510Y195364D01*
X503517Y195345D01*
X503518Y195325D01*
X503559Y195230D01*
X503594Y195133D01*
X503607Y195117D01*
X503614Y195099D01*
X503719Y194968D01*
X504413Y194275D01*
X504413Y186725D01*
X499075Y181387D01*
X491525Y181387D01*
X486187Y186725D01*
X486187Y194275D01*
X491525Y199613D01*
X499075Y199613D01*
X499768Y198919D01*
X499784Y198908D01*
X499797Y198892D01*
X499884Y198836D01*
X499968Y198776D01*
X499987Y198770D01*
X500004Y198759D01*
X500104Y198734D01*
X500203Y198703D01*
X500223Y198704D01*
X500242Y198699D01*
X500345Y198707D01*
X500449Y198710D01*
X500467Y198717D01*
X500487Y198718D01*
X500582Y198759D01*
X500680Y198794D01*
X500695Y198807D01*
X500714Y198814D01*
X500845Y198919D01*
X522508Y220583D01*
X522561Y220657D01*
X522621Y220726D01*
X522633Y220757D01*
X522652Y220783D01*
X522679Y220870D01*
X522713Y220955D01*
X522717Y220996D01*
X522724Y221018D01*
X522723Y221050D01*
X522731Y221121D01*
X522731Y238619D01*
X522720Y238689D01*
X522718Y238761D01*
X522700Y238810D01*
X522692Y238861D01*
X522658Y238925D01*
X522633Y238992D01*
X522601Y239033D01*
X522576Y239079D01*
X522525Y239128D01*
X522480Y239184D01*
X522436Y239212D01*
X522398Y239248D01*
X522333Y239278D01*
X522273Y239317D01*
X522222Y239330D01*
X522175Y239352D01*
X522104Y239360D01*
X522034Y239377D01*
X521982Y239373D01*
X521931Y239379D01*
X521860Y239364D01*
X521789Y239358D01*
X521741Y239338D01*
X521690Y239327D01*
X521629Y239290D01*
X521563Y239262D01*
X521507Y239217D01*
X521479Y239201D01*
X521464Y239183D01*
X521432Y239157D01*
X503719Y221445D01*
X503708Y221428D01*
X503692Y221416D01*
X503636Y221329D01*
X503576Y221245D01*
X503570Y221226D01*
X503559Y221209D01*
X503534Y221109D01*
X503503Y221010D01*
X503504Y220990D01*
X503499Y220971D01*
X503507Y220868D01*
X503510Y220764D01*
X503517Y220745D01*
X503518Y220725D01*
X503559Y220630D01*
X503594Y220533D01*
X503607Y220517D01*
X503614Y220499D01*
X503719Y220368D01*
X504413Y219675D01*
X504413Y212125D01*
X499075Y206787D01*
X491525Y206787D01*
X486187Y212125D01*
X486187Y219675D01*
X491525Y225013D01*
X499075Y225013D01*
X499768Y224319D01*
X499784Y224308D01*
X499797Y224292D01*
X499884Y224236D01*
X499968Y224176D01*
X499987Y224170D01*
X500004Y224159D01*
X500104Y224134D01*
X500203Y224103D01*
X500223Y224104D01*
X500242Y224099D01*
X500345Y224107D01*
X500449Y224110D01*
X500467Y224117D01*
X500487Y224118D01*
X500582Y224159D01*
X500680Y224194D01*
X500695Y224207D01*
X500714Y224214D01*
X500845Y224319D01*
X519714Y243189D01*
X519767Y243263D01*
X519827Y243332D01*
X519839Y243363D01*
X519858Y243389D01*
X519885Y243476D01*
X519919Y243561D01*
X519923Y243602D01*
X519930Y243624D01*
X519929Y243656D01*
X519937Y243727D01*
X519937Y261225D01*
X519926Y261295D01*
X519924Y261367D01*
X519906Y261416D01*
X519898Y261467D01*
X519864Y261531D01*
X519839Y261598D01*
X519807Y261639D01*
X519782Y261685D01*
X519731Y261734D01*
X519686Y261790D01*
X519642Y261818D01*
X519604Y261854D01*
X519539Y261884D01*
X519479Y261923D01*
X519428Y261936D01*
X519381Y261958D01*
X519310Y261966D01*
X519240Y261983D01*
X519188Y261979D01*
X519137Y261985D01*
X519066Y261970D01*
X518995Y261964D01*
X518947Y261944D01*
X518896Y261933D01*
X518835Y261896D01*
X518769Y261868D01*
X518713Y261823D01*
X518685Y261807D01*
X518670Y261789D01*
X518638Y261763D01*
X503719Y246845D01*
X503708Y246828D01*
X503692Y246816D01*
X503636Y246729D01*
X503576Y246645D01*
X503570Y246626D01*
X503559Y246609D01*
X503534Y246509D01*
X503503Y246410D01*
X503504Y246390D01*
X503499Y246371D01*
X503507Y246268D01*
X503510Y246164D01*
X503517Y246145D01*
X503518Y246125D01*
X503559Y246030D01*
X503594Y245933D01*
X503607Y245917D01*
X503614Y245899D01*
X503719Y245768D01*
X504413Y245075D01*
X504413Y237525D01*
X499075Y232187D01*
X491525Y232187D01*
X486187Y237525D01*
X486187Y245075D01*
X491525Y250413D01*
X499075Y250413D01*
X499768Y249719D01*
X499784Y249708D01*
X499797Y249692D01*
X499884Y249636D01*
X499968Y249576D01*
X499987Y249570D01*
X500004Y249559D01*
X500104Y249534D01*
X500203Y249503D01*
X500223Y249504D01*
X500242Y249499D01*
X500345Y249507D01*
X500449Y249510D01*
X500467Y249517D01*
X500487Y249518D01*
X500582Y249559D01*
X500680Y249594D01*
X500695Y249607D01*
X500714Y249614D01*
X500845Y249719D01*
X516920Y265795D01*
X516973Y265869D01*
X517033Y265938D01*
X517045Y265969D01*
X517064Y265995D01*
X517091Y266082D01*
X517125Y266167D01*
X517129Y266208D01*
X517136Y266230D01*
X517135Y266262D01*
X517143Y266333D01*
X517143Y283831D01*
X517132Y283901D01*
X517130Y283973D01*
X517112Y284022D01*
X517104Y284073D01*
X517070Y284137D01*
X517045Y284204D01*
X517013Y284245D01*
X516988Y284291D01*
X516937Y284340D01*
X516892Y284396D01*
X516848Y284424D01*
X516810Y284460D01*
X516745Y284490D01*
X516685Y284529D01*
X516634Y284542D01*
X516587Y284564D01*
X516516Y284572D01*
X516446Y284589D01*
X516394Y284585D01*
X516343Y284591D01*
X516272Y284576D01*
X516201Y284570D01*
X516153Y284550D01*
X516102Y284539D01*
X516041Y284502D01*
X515975Y284474D01*
X515919Y284429D01*
X515891Y284413D01*
X515876Y284395D01*
X515844Y284369D01*
X503719Y272245D01*
X503708Y272228D01*
X503692Y272216D01*
X503636Y272129D01*
X503576Y272045D01*
X503570Y272026D01*
X503559Y272009D01*
X503534Y271909D01*
X503503Y271810D01*
X503504Y271790D01*
X503499Y271771D01*
X503507Y271668D01*
X503510Y271564D01*
X503517Y271545D01*
X503518Y271525D01*
X503559Y271430D01*
X503594Y271333D01*
X503607Y271317D01*
X503614Y271299D01*
X503719Y271168D01*
X504413Y270475D01*
X504413Y262925D01*
X499075Y257587D01*
X491525Y257587D01*
X486187Y262925D01*
X486187Y270475D01*
X491525Y275813D01*
X499075Y275813D01*
X499768Y275119D01*
X499784Y275108D01*
X499797Y275092D01*
X499884Y275036D01*
X499968Y274976D01*
X499987Y274970D01*
X500004Y274959D01*
X500104Y274934D01*
X500203Y274903D01*
X500223Y274904D01*
X500242Y274899D01*
X500345Y274907D01*
X500449Y274910D01*
X500467Y274917D01*
X500487Y274918D01*
X500582Y274959D01*
X500680Y274994D01*
X500695Y275007D01*
X500714Y275014D01*
X500845Y275119D01*
X514126Y288401D01*
X514179Y288475D01*
X514239Y288544D01*
X514251Y288575D01*
X514270Y288601D01*
X514297Y288688D01*
X514331Y288773D01*
X514335Y288814D01*
X514342Y288836D01*
X514341Y288868D01*
X514349Y288939D01*
X514349Y306437D01*
X514338Y306507D01*
X514336Y306579D01*
X514318Y306628D01*
X514310Y306679D01*
X514276Y306743D01*
X514251Y306810D01*
X514219Y306851D01*
X514194Y306897D01*
X514143Y306946D01*
X514098Y307002D01*
X514054Y307030D01*
X514016Y307066D01*
X513951Y307096D01*
X513891Y307135D01*
X513840Y307148D01*
X513793Y307170D01*
X513722Y307178D01*
X513652Y307195D01*
X513600Y307191D01*
X513549Y307197D01*
X513478Y307182D01*
X513407Y307176D01*
X513359Y307156D01*
X513308Y307145D01*
X513247Y307108D01*
X513181Y307080D01*
X513125Y307035D01*
X513097Y307019D01*
X513082Y307001D01*
X513050Y306975D01*
X503719Y297645D01*
X503708Y297628D01*
X503692Y297616D01*
X503636Y297529D01*
X503576Y297445D01*
X503570Y297426D01*
X503559Y297409D01*
X503534Y297309D01*
X503503Y297210D01*
X503504Y297190D01*
X503499Y297171D01*
X503507Y297068D01*
X503510Y296964D01*
X503517Y296945D01*
X503518Y296925D01*
X503559Y296830D01*
X503594Y296733D01*
X503607Y296717D01*
X503614Y296699D01*
X503719Y296568D01*
X504413Y295875D01*
X504413Y288325D01*
X499075Y282987D01*
X491525Y282987D01*
X486187Y288325D01*
X486187Y295875D01*
X491525Y301213D01*
X499075Y301213D01*
X499768Y300519D01*
X499784Y300508D01*
X499797Y300492D01*
X499884Y300436D01*
X499968Y300376D01*
X499987Y300370D01*
X500004Y300359D01*
X500104Y300334D01*
X500203Y300303D01*
X500223Y300304D01*
X500242Y300299D01*
X500345Y300307D01*
X500449Y300310D01*
X500467Y300317D01*
X500487Y300318D01*
X500582Y300359D01*
X500680Y300394D01*
X500695Y300407D01*
X500714Y300414D01*
X500845Y300519D01*
X511332Y311007D01*
X511385Y311081D01*
X511445Y311150D01*
X511457Y311181D01*
X511476Y311207D01*
X511503Y311294D01*
X511537Y311379D01*
X511541Y311420D01*
X511548Y311442D01*
X511547Y311474D01*
X511555Y311545D01*
X511555Y329043D01*
X511544Y329113D01*
X511542Y329185D01*
X511524Y329234D01*
X511516Y329285D01*
X511482Y329349D01*
X511457Y329416D01*
X511425Y329457D01*
X511400Y329503D01*
X511349Y329552D01*
X511304Y329608D01*
X511260Y329636D01*
X511222Y329672D01*
X511157Y329702D01*
X511097Y329741D01*
X511046Y329754D01*
X510999Y329776D01*
X510928Y329784D01*
X510858Y329801D01*
X510806Y329797D01*
X510755Y329803D01*
X510684Y329788D01*
X510613Y329782D01*
X510565Y329762D01*
X510514Y329751D01*
X510453Y329714D01*
X510387Y329686D01*
X510331Y329641D01*
X510303Y329625D01*
X510288Y329607D01*
X510256Y329581D01*
X503719Y323045D01*
X503708Y323028D01*
X503692Y323016D01*
X503636Y322929D01*
X503576Y322845D01*
X503570Y322826D01*
X503559Y322809D01*
X503534Y322709D01*
X503503Y322610D01*
X503504Y322590D01*
X503499Y322571D01*
X503507Y322468D01*
X503510Y322364D01*
X503517Y322345D01*
X503518Y322325D01*
X503559Y322230D01*
X503594Y322133D01*
X503607Y322117D01*
X503614Y322099D01*
X503690Y322005D01*
X503695Y321996D01*
X503701Y321991D01*
X503719Y321968D01*
X504413Y321275D01*
X504413Y313725D01*
X499075Y308387D01*
X491525Y308387D01*
X486187Y313725D01*
X486187Y321275D01*
X491525Y326613D01*
X499075Y326613D01*
X499768Y325919D01*
X499784Y325908D01*
X499797Y325892D01*
X499884Y325836D01*
X499968Y325776D01*
X499987Y325770D01*
X500004Y325759D01*
X500104Y325734D01*
X500203Y325703D01*
X500223Y325704D01*
X500242Y325699D01*
X500345Y325707D01*
X500449Y325710D01*
X500467Y325717D01*
X500487Y325718D01*
X500582Y325759D01*
X500680Y325794D01*
X500695Y325807D01*
X500714Y325814D01*
X500845Y325919D01*
X508538Y333613D01*
X508591Y333687D01*
X508651Y333756D01*
X508663Y333787D01*
X508682Y333813D01*
X508709Y333900D01*
X508743Y333985D01*
X508747Y334026D01*
X508754Y334048D01*
X508753Y334080D01*
X508761Y334151D01*
X508761Y351649D01*
X508750Y351719D01*
X508748Y351791D01*
X508730Y351840D01*
X508722Y351891D01*
X508688Y351955D01*
X508663Y352022D01*
X508631Y352063D01*
X508606Y352109D01*
X508555Y352158D01*
X508510Y352214D01*
X508466Y352242D01*
X508428Y352278D01*
X508363Y352308D01*
X508303Y352347D01*
X508252Y352360D01*
X508205Y352382D01*
X508134Y352390D01*
X508064Y352407D01*
X508012Y352403D01*
X507961Y352409D01*
X507890Y352394D01*
X507819Y352388D01*
X507771Y352368D01*
X507720Y352357D01*
X507659Y352320D01*
X507593Y352292D01*
X507537Y352247D01*
X507509Y352231D01*
X507494Y352213D01*
X507462Y352187D01*
X503719Y348445D01*
X503708Y348428D01*
X503692Y348416D01*
X503636Y348329D01*
X503576Y348245D01*
X503570Y348226D01*
X503559Y348209D01*
X503534Y348109D01*
X503503Y348010D01*
X503504Y347990D01*
X503499Y347971D01*
X503507Y347868D01*
X503510Y347764D01*
X503517Y347745D01*
X503518Y347725D01*
X503559Y347630D01*
X503594Y347533D01*
X503607Y347517D01*
X503614Y347499D01*
X503719Y347368D01*
X504413Y346675D01*
X504413Y339125D01*
X499075Y333787D01*
X491525Y333787D01*
X486187Y339125D01*
X486187Y346675D01*
X491525Y352013D01*
X499075Y352013D01*
X499768Y351319D01*
X499784Y351308D01*
X499797Y351292D01*
X499884Y351236D01*
X499968Y351176D01*
X499987Y351170D01*
X500004Y351159D01*
X500104Y351134D01*
X500203Y351103D01*
X500223Y351104D01*
X500242Y351099D01*
X500345Y351107D01*
X500449Y351110D01*
X500467Y351117D01*
X500487Y351118D01*
X500582Y351159D01*
X500680Y351194D01*
X500695Y351207D01*
X500714Y351214D01*
X500845Y351319D01*
X505744Y356219D01*
X505788Y356280D01*
X505821Y356315D01*
X505827Y356328D01*
X505857Y356362D01*
X505869Y356393D01*
X505888Y356419D01*
X505915Y356506D01*
X505949Y356591D01*
X505953Y356632D01*
X505960Y356654D01*
X505959Y356686D01*
X505967Y356757D01*
X505967Y379843D01*
X505953Y379933D01*
X505945Y380024D01*
X505933Y380053D01*
X505928Y380085D01*
X505885Y380166D01*
X505849Y380250D01*
X505823Y380282D01*
X505812Y380303D01*
X505789Y380325D01*
X505744Y380381D01*
X474758Y411368D01*
X474664Y411435D01*
X474569Y411506D01*
X474563Y411508D01*
X474558Y411511D01*
X474447Y411545D01*
X474335Y411582D01*
X474329Y411582D01*
X474323Y411584D01*
X474206Y411581D01*
X474089Y411579D01*
X474082Y411577D01*
X474077Y411577D01*
X474059Y411571D01*
X473928Y411533D01*
X471597Y410567D01*
X468203Y410567D01*
X465067Y411866D01*
X462666Y414267D01*
X461367Y417403D01*
X461367Y420797D01*
X462333Y423128D01*
X462359Y423242D01*
X462388Y423355D01*
X462387Y423361D01*
X462389Y423367D01*
X462378Y423484D01*
X462369Y423600D01*
X462366Y423606D01*
X462366Y423612D01*
X462318Y423720D01*
X462272Y423827D01*
X462268Y423832D01*
X462266Y423837D01*
X462253Y423851D01*
X462168Y423958D01*
X456327Y429798D01*
X456253Y429851D01*
X456184Y429911D01*
X456153Y429923D01*
X456127Y429942D01*
X456040Y429969D01*
X455955Y430003D01*
X455914Y430007D01*
X455892Y430014D01*
X455860Y430013D01*
X455789Y430021D01*
X438291Y430021D01*
X438221Y430010D01*
X438149Y430008D01*
X438100Y429990D01*
X438049Y429982D01*
X437985Y429948D01*
X437918Y429923D01*
X437877Y429891D01*
X437831Y429866D01*
X437782Y429815D01*
X437726Y429770D01*
X437698Y429726D01*
X437662Y429688D01*
X437632Y429623D01*
X437593Y429563D01*
X437580Y429512D01*
X437558Y429465D01*
X437550Y429394D01*
X437533Y429324D01*
X437537Y429272D01*
X437531Y429221D01*
X437546Y429150D01*
X437552Y429079D01*
X437572Y429031D01*
X437583Y428980D01*
X437620Y428919D01*
X437648Y428853D01*
X437693Y428797D01*
X437709Y428769D01*
X437727Y428754D01*
X437753Y428722D01*
X439642Y426832D01*
X439736Y426765D01*
X439831Y426694D01*
X439837Y426692D01*
X439842Y426689D01*
X439953Y426655D01*
X440065Y426618D01*
X440071Y426618D01*
X440077Y426616D01*
X440194Y426619D01*
X440311Y426621D01*
X440318Y426623D01*
X440323Y426623D01*
X440341Y426629D01*
X440472Y426667D01*
X442803Y427633D01*
X446197Y427633D01*
X449333Y426334D01*
X451734Y423933D01*
X453033Y420797D01*
X453033Y417403D01*
X452067Y415072D01*
X452041Y414958D01*
X452012Y414845D01*
X452013Y414839D01*
X452011Y414833D01*
X452022Y414716D01*
X452031Y414600D01*
X452034Y414594D01*
X452034Y414588D01*
X452082Y414480D01*
X452128Y414373D01*
X452132Y414368D01*
X452134Y414363D01*
X452147Y414349D01*
X452232Y414242D01*
X489755Y376719D01*
X489772Y376708D01*
X489784Y376692D01*
X489871Y376636D01*
X489955Y376576D01*
X489974Y376570D01*
X489991Y376559D01*
X490091Y376534D01*
X490190Y376503D01*
X490210Y376504D01*
X490229Y376499D01*
X490332Y376507D01*
X490436Y376510D01*
X490455Y376517D01*
X490475Y376518D01*
X490570Y376559D01*
X490667Y376594D01*
X490683Y376607D01*
X490701Y376614D01*
X490832Y376719D01*
X491525Y377413D01*
X499075Y377413D01*
X504413Y372075D01*
X504413Y364525D01*
X499075Y359187D01*
X491525Y359187D01*
X486187Y364525D01*
X486187Y372075D01*
X486881Y372768D01*
X486892Y372784D01*
X486908Y372797D01*
X486964Y372884D01*
X487024Y372968D01*
X487030Y372987D01*
X487041Y373004D01*
X487066Y373104D01*
X487097Y373203D01*
X487096Y373223D01*
X487101Y373242D01*
X487093Y373345D01*
X487090Y373449D01*
X487083Y373467D01*
X487082Y373487D01*
X487041Y373582D01*
X487006Y373680D01*
X486993Y373695D01*
X486986Y373714D01*
X486881Y373845D01*
X449358Y411368D01*
X449264Y411435D01*
X449169Y411506D01*
X449163Y411508D01*
X449158Y411511D01*
X449047Y411545D01*
X448935Y411582D01*
X448929Y411582D01*
X448923Y411584D01*
X448806Y411581D01*
X448689Y411579D01*
X448682Y411577D01*
X448677Y411577D01*
X448659Y411571D01*
X448528Y411533D01*
X446197Y410567D01*
X442803Y410567D01*
X439667Y411866D01*
X437266Y414267D01*
X435967Y417403D01*
X435967Y420797D01*
X436933Y423128D01*
X436959Y423242D01*
X436988Y423355D01*
X436987Y423361D01*
X436989Y423367D01*
X436978Y423484D01*
X436969Y423600D01*
X436966Y423606D01*
X436966Y423612D01*
X436918Y423720D01*
X436872Y423827D01*
X436868Y423832D01*
X436866Y423837D01*
X436853Y423851D01*
X436768Y423958D01*
X433975Y426750D01*
X433901Y426803D01*
X433832Y426863D01*
X433801Y426875D01*
X433775Y426894D01*
X433688Y426921D01*
X433603Y426955D01*
X433562Y426959D01*
X433540Y426966D01*
X433508Y426965D01*
X433437Y426973D01*
X425132Y426973D01*
X425061Y426962D01*
X424989Y426960D01*
X424940Y426942D01*
X424889Y426934D01*
X424826Y426900D01*
X424758Y426875D01*
X424718Y426843D01*
X424672Y426818D01*
X424622Y426766D01*
X424566Y426722D01*
X424538Y426678D01*
X424502Y426640D01*
X424472Y426575D01*
X424433Y426515D01*
X424420Y426464D01*
X424399Y426417D01*
X424391Y426346D01*
X424373Y426276D01*
X424377Y426224D01*
X424371Y426173D01*
X424387Y426102D01*
X424392Y426031D01*
X424413Y425983D01*
X424424Y425932D01*
X424460Y425871D01*
X424489Y425805D01*
X424533Y425749D01*
X424550Y425721D01*
X424568Y425706D01*
X424593Y425674D01*
X426334Y423933D01*
X427633Y420797D01*
X427633Y417403D01*
X426334Y414267D01*
X423933Y411866D01*
X420797Y410567D01*
X417403Y410567D01*
X414267Y411866D01*
X411866Y414267D01*
X410567Y417403D01*
X410567Y420797D01*
X411866Y423933D01*
X413607Y425674D01*
X413648Y425732D01*
X413698Y425784D01*
X413720Y425831D01*
X413750Y425873D01*
X413771Y425942D01*
X413801Y426007D01*
X413807Y426059D01*
X413823Y426109D01*
X413821Y426180D01*
X413829Y426251D01*
X413818Y426302D01*
X413816Y426354D01*
X413792Y426422D01*
X413776Y426492D01*
X413750Y426537D01*
X413732Y426585D01*
X413687Y426641D01*
X413650Y426703D01*
X413611Y426737D01*
X413578Y426777D01*
X413518Y426816D01*
X413463Y426863D01*
X413415Y426882D01*
X413371Y426910D01*
X413302Y426928D01*
X413235Y426955D01*
X413164Y426963D01*
X413133Y426971D01*
X413109Y426969D01*
X413068Y426973D01*
X399732Y426973D01*
X399661Y426962D01*
X399589Y426960D01*
X399540Y426942D01*
X399489Y426934D01*
X399426Y426900D01*
X399358Y426875D01*
X399318Y426843D01*
X399272Y426818D01*
X399222Y426766D01*
X399166Y426722D01*
X399138Y426678D01*
X399102Y426640D01*
X399072Y426575D01*
X399033Y426515D01*
X399020Y426464D01*
X398999Y426417D01*
X398991Y426346D01*
X398973Y426276D01*
X398977Y426224D01*
X398971Y426173D01*
X398987Y426102D01*
X398992Y426031D01*
X399013Y425983D01*
X399024Y425932D01*
X399060Y425871D01*
X399089Y425805D01*
X399133Y425749D01*
X399150Y425721D01*
X399168Y425706D01*
X399193Y425674D01*
X400934Y423933D01*
X402233Y420797D01*
X402233Y417403D01*
X400934Y414267D01*
X398533Y411866D01*
X395397Y410567D01*
X392003Y410567D01*
X389672Y411533D01*
X389558Y411559D01*
X389445Y411588D01*
X389439Y411587D01*
X389433Y411589D01*
X389316Y411578D01*
X389200Y411569D01*
X389194Y411566D01*
X389188Y411566D01*
X389080Y411518D01*
X388973Y411472D01*
X388968Y411468D01*
X388963Y411466D01*
X388949Y411453D01*
X388842Y411368D01*
X134192Y156717D01*
X88332Y156717D01*
X88218Y156698D01*
X88101Y156681D01*
X88096Y156679D01*
X88090Y156678D01*
X87987Y156623D01*
X87882Y156570D01*
X87878Y156565D01*
X87872Y156562D01*
X87792Y156478D01*
X87710Y156394D01*
X87706Y156388D01*
X87703Y156384D01*
X87695Y156367D01*
X87629Y156247D01*
X86664Y153917D01*
X84263Y151516D01*
X81127Y150217D01*
X77733Y150217D01*
X74597Y151516D01*
X72196Y153917D01*
X70897Y157053D01*
X70897Y160447D01*
X71251Y161301D01*
X71273Y161396D01*
X71302Y161489D01*
X71301Y161515D01*
X71307Y161540D01*
X71298Y161637D01*
X71295Y161735D01*
X71286Y161759D01*
X71284Y161785D01*
X71244Y161874D01*
X71211Y161966D01*
X71195Y161986D01*
X71184Y162010D01*
X71118Y162082D01*
X71057Y162158D01*
X71035Y162172D01*
X71018Y162191D01*
X70932Y162238D01*
X70850Y162291D01*
X70825Y162297D01*
X70802Y162310D01*
X70706Y162327D01*
X70612Y162351D01*
X70586Y162349D01*
X70560Y162353D01*
X70464Y162339D01*
X70367Y162332D01*
X70343Y162321D01*
X70317Y162318D01*
X70230Y162273D01*
X70140Y162235D01*
X70115Y162215D01*
X70097Y162206D01*
X70074Y162183D01*
X70009Y162131D01*
X64596Y156717D01*
X50132Y156717D01*
X50018Y156698D01*
X49901Y156681D01*
X49896Y156679D01*
X49890Y156678D01*
X49787Y156623D01*
X49682Y156570D01*
X49678Y156565D01*
X49672Y156562D01*
X49592Y156478D01*
X49510Y156394D01*
X49506Y156388D01*
X49503Y156384D01*
X49495Y156367D01*
X49429Y156247D01*
X48464Y153917D01*
X46063Y151516D01*
X42927Y150217D01*
X39533Y150217D01*
X36397Y151516D01*
X33996Y153917D01*
X32697Y157053D01*
X32697Y160447D01*
X33996Y163583D01*
X36397Y165984D01*
X39533Y167283D01*
X42927Y167283D01*
X46063Y165984D01*
X48464Y163583D01*
X49429Y161253D01*
X49491Y161153D01*
X49551Y161053D01*
X49555Y161049D01*
X49559Y161044D01*
X49648Y160969D01*
X49738Y160893D01*
X49743Y160891D01*
X49748Y160887D01*
X49856Y160845D01*
X49966Y160801D01*
X49973Y160800D01*
X49978Y160799D01*
X49996Y160798D01*
X50132Y160783D01*
X62597Y160783D01*
X62687Y160797D01*
X62778Y160805D01*
X62807Y160817D01*
X62839Y160822D01*
X62920Y160865D01*
X63004Y160901D01*
X63036Y160927D01*
X63057Y160938D01*
X63079Y160961D01*
X63135Y161006D01*
X64475Y162346D01*
X64532Y162425D01*
X64594Y162500D01*
X64604Y162525D01*
X64619Y162546D01*
X64648Y162639D01*
X64682Y162730D01*
X64684Y162756D01*
X64691Y162781D01*
X64689Y162878D01*
X64693Y162976D01*
X64686Y163001D01*
X64685Y163027D01*
X64651Y163118D01*
X64624Y163212D01*
X64609Y163233D01*
X64600Y163258D01*
X64539Y163334D01*
X64484Y163414D01*
X64463Y163429D01*
X64447Y163450D01*
X64365Y163503D01*
X64287Y163561D01*
X64262Y163569D01*
X64240Y163583D01*
X64145Y163607D01*
X64053Y163637D01*
X64027Y163637D01*
X64001Y163643D01*
X63904Y163635D01*
X63807Y163634D01*
X63775Y163625D01*
X63756Y163624D01*
X63726Y163611D01*
X63646Y163588D01*
X62027Y162917D01*
X58633Y162917D01*
X55497Y164216D01*
X53096Y166617D01*
X51797Y169753D01*
X51797Y173147D01*
X53096Y176283D01*
X55497Y178684D01*
X58633Y179983D01*
X62027Y179983D01*
X65163Y178684D01*
X67564Y176283D01*
X68863Y173147D01*
X68863Y169753D01*
X68192Y168134D01*
X68170Y168039D01*
X68141Y167946D01*
X68142Y167920D01*
X68136Y167895D01*
X68145Y167798D01*
X68148Y167700D01*
X68157Y167676D01*
X68159Y167650D01*
X68199Y167561D01*
X68232Y167469D01*
X68249Y167449D01*
X68259Y167425D01*
X68325Y167353D01*
X68386Y167277D01*
X68408Y167263D01*
X68426Y167244D01*
X68511Y167197D01*
X68593Y167144D01*
X68618Y167138D01*
X68641Y167125D01*
X68737Y167108D01*
X68831Y167084D01*
X68857Y167086D01*
X68883Y167082D01*
X68980Y167096D01*
X69077Y167103D01*
X69101Y167114D01*
X69127Y167118D01*
X69214Y167162D01*
X69303Y167200D01*
X69328Y167220D01*
X69346Y167229D01*
X69369Y167253D01*
X69434Y167305D01*
X75104Y172975D01*
X118985Y172975D01*
X119075Y172989D01*
X119166Y172997D01*
X119195Y173009D01*
X119227Y173014D01*
X119308Y173057D01*
X119392Y173093D01*
X119424Y173119D01*
X119445Y173130D01*
X119467Y173153D01*
X119523Y173198D01*
X360568Y414242D01*
X360636Y414337D01*
X360706Y414431D01*
X360708Y414437D01*
X360711Y414442D01*
X360745Y414553D01*
X360782Y414665D01*
X360782Y414671D01*
X360784Y414677D01*
X360781Y414794D01*
X360779Y414911D01*
X360777Y414918D01*
X360777Y414923D01*
X360771Y414941D01*
X360733Y415072D01*
X359767Y417403D01*
X359767Y420797D01*
X361066Y423933D01*
X362807Y425674D01*
X362848Y425732D01*
X362898Y425784D01*
X362920Y425831D01*
X362950Y425873D01*
X362971Y425942D01*
X363001Y426007D01*
X363007Y426059D01*
X363023Y426109D01*
X363021Y426180D01*
X363029Y426251D01*
X363018Y426302D01*
X363016Y426354D01*
X362992Y426422D01*
X362976Y426492D01*
X362950Y426537D01*
X362932Y426585D01*
X362887Y426641D01*
X362850Y426703D01*
X362811Y426737D01*
X362778Y426777D01*
X362718Y426816D01*
X362663Y426863D01*
X362615Y426882D01*
X362571Y426910D01*
X362502Y426928D01*
X362435Y426955D01*
X362364Y426963D01*
X362333Y426971D01*
X362309Y426969D01*
X362268Y426973D01*
X348932Y426973D01*
X348861Y426962D01*
X348789Y426960D01*
X348740Y426942D01*
X348689Y426934D01*
X348626Y426900D01*
X348558Y426875D01*
X348518Y426843D01*
X348472Y426818D01*
X348422Y426766D01*
X348366Y426722D01*
X348338Y426678D01*
X348302Y426640D01*
X348272Y426575D01*
X348233Y426515D01*
X348220Y426464D01*
X348199Y426417D01*
X348191Y426346D01*
X348173Y426276D01*
X348177Y426224D01*
X348171Y426173D01*
X348187Y426102D01*
X348192Y426031D01*
X348213Y425983D01*
X348224Y425932D01*
X348260Y425871D01*
X348289Y425805D01*
X348333Y425749D01*
X348350Y425721D01*
X348368Y425706D01*
X348393Y425674D01*
X350134Y423933D01*
X351433Y420797D01*
X351433Y417403D01*
X350134Y414267D01*
X347733Y411866D01*
X344597Y410567D01*
X341203Y410567D01*
X338872Y411533D01*
X338758Y411559D01*
X338645Y411588D01*
X338639Y411587D01*
X338633Y411589D01*
X338516Y411578D01*
X338400Y411569D01*
X338394Y411566D01*
X338388Y411566D01*
X338280Y411518D01*
X338173Y411472D01*
X338168Y411468D01*
X338163Y411466D01*
X338149Y411453D01*
X338042Y411368D01*
X288006Y361331D01*
X286592Y359917D01*
X88332Y359917D01*
X88218Y359898D01*
X88101Y359881D01*
X88096Y359879D01*
X88090Y359878D01*
X87987Y359823D01*
X87882Y359770D01*
X87878Y359765D01*
X87872Y359762D01*
X87792Y359678D01*
X87710Y359594D01*
X87706Y359588D01*
X87703Y359584D01*
X87695Y359567D01*
X87629Y359447D01*
X86664Y357117D01*
X84263Y354716D01*
X81127Y353417D01*
X77733Y353417D01*
X74597Y354716D01*
X72196Y357117D01*
X70897Y360253D01*
X70897Y363647D01*
X72196Y366783D01*
X74597Y369184D01*
X77733Y370483D01*
X81127Y370483D01*
X84263Y369184D01*
X86664Y366783D01*
X87629Y364453D01*
X87691Y364353D01*
X87751Y364253D01*
X87755Y364249D01*
X87759Y364244D01*
X87848Y364169D01*
X87938Y364093D01*
X87943Y364091D01*
X87948Y364087D01*
X88056Y364045D01*
X88166Y364001D01*
X88173Y364000D01*
X88178Y363999D01*
X88196Y363998D01*
X88332Y363983D01*
X284593Y363983D01*
X284683Y363997D01*
X284774Y364005D01*
X284803Y364017D01*
X284835Y364022D01*
X284916Y364065D01*
X285000Y364101D01*
X285032Y364127D01*
X285053Y364138D01*
X285075Y364161D01*
X285131Y364206D01*
X335168Y414242D01*
X335235Y414336D01*
X335306Y414431D01*
X335308Y414437D01*
X335311Y414442D01*
X335345Y414553D01*
X335382Y414665D01*
X335382Y414671D01*
X335384Y414677D01*
X335381Y414794D01*
X335379Y414911D01*
X335377Y414918D01*
X335377Y414923D01*
X335371Y414941D01*
X335333Y415072D01*
X334367Y417403D01*
X334367Y420797D01*
X335666Y423933D01*
X337407Y425674D01*
X337448Y425732D01*
X337498Y425784D01*
X337520Y425831D01*
X337550Y425873D01*
X337571Y425942D01*
X337601Y426007D01*
X337607Y426059D01*
X337623Y426109D01*
X337621Y426180D01*
X337629Y426251D01*
X337618Y426302D01*
X337616Y426354D01*
X337592Y426422D01*
X337576Y426492D01*
X337550Y426537D01*
X337532Y426585D01*
X337487Y426641D01*
X337450Y426703D01*
X337411Y426737D01*
X337378Y426777D01*
X337318Y426816D01*
X337263Y426863D01*
X337215Y426882D01*
X337171Y426910D01*
X337102Y426928D01*
X337035Y426955D01*
X336964Y426963D01*
X336933Y426971D01*
X336909Y426969D01*
X336868Y426973D01*
X95597Y426973D01*
X95507Y426959D01*
X95416Y426951D01*
X95386Y426939D01*
X95354Y426934D01*
X95273Y426891D01*
X95190Y426855D01*
X95157Y426829D01*
X95137Y426818D01*
X95115Y426795D01*
X95059Y426750D01*
X90345Y422037D01*
X88932Y420623D01*
X85462Y420623D01*
X85391Y420612D01*
X85319Y420610D01*
X85270Y420592D01*
X85219Y420584D01*
X85156Y420550D01*
X85088Y420525D01*
X85048Y420493D01*
X85002Y420468D01*
X84952Y420416D01*
X84896Y420372D01*
X84868Y420328D01*
X84832Y420290D01*
X84802Y420225D01*
X84763Y420165D01*
X84750Y420114D01*
X84729Y420067D01*
X84721Y419996D01*
X84703Y419926D01*
X84707Y419874D01*
X84701Y419823D01*
X84717Y419752D01*
X84722Y419681D01*
X84743Y419633D01*
X84754Y419582D01*
X84790Y419521D01*
X84819Y419455D01*
X84863Y419399D01*
X84880Y419371D01*
X84898Y419356D01*
X84923Y419324D01*
X86664Y417583D01*
X87963Y414447D01*
X87963Y411053D01*
X86664Y407917D01*
X84263Y405516D01*
X81127Y404217D01*
X77733Y404217D01*
X74597Y405516D01*
X72196Y407917D01*
X70897Y411053D01*
X70897Y414447D01*
X71251Y415301D01*
X71273Y415396D01*
X71302Y415489D01*
X71301Y415515D01*
X71307Y415540D01*
X71298Y415637D01*
X71295Y415735D01*
X71286Y415759D01*
X71284Y415785D01*
X71244Y415874D01*
X71211Y415966D01*
X71195Y415986D01*
X71184Y416010D01*
X71118Y416082D01*
X71057Y416158D01*
X71035Y416172D01*
X71018Y416191D01*
X70932Y416238D01*
X70850Y416291D01*
X70825Y416297D01*
X70802Y416310D01*
X70706Y416327D01*
X70612Y416351D01*
X70586Y416349D01*
X70560Y416353D01*
X70464Y416339D01*
X70367Y416332D01*
X70343Y416322D01*
X70317Y416318D01*
X70230Y416273D01*
X70140Y416235D01*
X70115Y416215D01*
X70097Y416206D01*
X70074Y416183D01*
X70009Y416131D01*
X68002Y414123D01*
X53156Y414123D01*
X50299Y416981D01*
X50219Y417038D01*
X50144Y417100D01*
X50120Y417109D01*
X50099Y417124D01*
X50006Y417153D01*
X49915Y417188D01*
X49889Y417189D01*
X49864Y417197D01*
X49766Y417194D01*
X49669Y417198D01*
X49644Y417191D01*
X49618Y417190D01*
X49526Y417157D01*
X49433Y417130D01*
X49411Y417115D01*
X49387Y417106D01*
X49311Y417045D01*
X49231Y416989D01*
X49215Y416968D01*
X49195Y416952D01*
X49142Y416870D01*
X49084Y416792D01*
X49076Y416767D01*
X49062Y416745D01*
X49038Y416651D01*
X49008Y416558D01*
X49008Y416532D01*
X49002Y416507D01*
X49009Y416410D01*
X49010Y416312D01*
X49019Y416281D01*
X49021Y416261D01*
X49034Y416231D01*
X49057Y416151D01*
X49763Y414447D01*
X49763Y411053D01*
X48464Y407917D01*
X46063Y405516D01*
X42927Y404217D01*
X39533Y404217D01*
X36397Y405516D01*
X33996Y407917D01*
X32697Y411053D01*
X32697Y414447D01*
X33996Y417583D01*
X36397Y419984D01*
X39533Y421283D01*
X42927Y421283D01*
X44631Y420577D01*
X44726Y420555D01*
X44819Y420526D01*
X44845Y420527D01*
X44871Y420521D01*
X44967Y420530D01*
X45065Y420532D01*
X45089Y420541D01*
X45115Y420544D01*
X45205Y420584D01*
X45296Y420617D01*
X45316Y420633D01*
X45340Y420644D01*
X45412Y420710D01*
X45488Y420771D01*
X45502Y420793D01*
X45521Y420810D01*
X45568Y420896D01*
X45621Y420978D01*
X45627Y421003D01*
X45640Y421026D01*
X45657Y421122D01*
X45681Y421216D01*
X45679Y421242D01*
X45684Y421268D01*
X45669Y421364D01*
X45662Y421461D01*
X45652Y421485D01*
X45648Y421511D01*
X45604Y421598D01*
X45566Y421688D01*
X45545Y421713D01*
X45536Y421730D01*
X45513Y421754D01*
X45461Y421819D01*
X44085Y423194D01*
X44011Y423247D01*
X43942Y423307D01*
X43911Y423319D01*
X43885Y423338D01*
X43798Y423365D01*
X43713Y423399D01*
X43672Y423403D01*
X43650Y423410D01*
X43618Y423409D01*
X43547Y423417D01*
X31032Y423417D01*
X30918Y423398D01*
X30801Y423381D01*
X30796Y423379D01*
X30790Y423378D01*
X30687Y423323D01*
X30582Y423270D01*
X30578Y423265D01*
X30572Y423262D01*
X30492Y423178D01*
X30410Y423094D01*
X30406Y423088D01*
X30403Y423084D01*
X30395Y423067D01*
X30329Y422947D01*
X29364Y420617D01*
X26963Y418216D01*
X23827Y416917D01*
X20433Y416917D01*
X17297Y418216D01*
X14896Y420617D01*
X13597Y423753D01*
X13597Y427147D01*
X14896Y430283D01*
X17297Y432684D01*
X20433Y433983D01*
X23827Y433983D01*
X26963Y432684D01*
X29364Y430283D01*
X30329Y427953D01*
X30391Y427853D01*
X30451Y427753D01*
X30455Y427749D01*
X30459Y427744D01*
X30548Y427669D01*
X30638Y427593D01*
X30643Y427591D01*
X30648Y427587D01*
X30756Y427545D01*
X30866Y427501D01*
X30873Y427500D01*
X30878Y427499D01*
X30896Y427498D01*
X31032Y427483D01*
X45546Y427483D01*
X50874Y422155D01*
X50953Y422098D01*
X51028Y422036D01*
X51053Y422026D01*
X51074Y422011D01*
X51167Y421983D01*
X51258Y421948D01*
X51284Y421947D01*
X51309Y421939D01*
X51406Y421941D01*
X51503Y421937D01*
X51529Y421945D01*
X51555Y421945D01*
X51646Y421979D01*
X51740Y422006D01*
X51761Y422021D01*
X51786Y422030D01*
X51862Y422091D01*
X51942Y422146D01*
X51957Y422167D01*
X51978Y422183D01*
X52030Y422265D01*
X52088Y422343D01*
X52097Y422368D01*
X52111Y422390D01*
X52135Y422485D01*
X52165Y422577D01*
X52164Y422603D01*
X52171Y422629D01*
X52163Y422726D01*
X52162Y422823D01*
X52153Y422855D01*
X52152Y422874D01*
X52139Y422904D01*
X52116Y422984D01*
X51797Y423753D01*
X51797Y427147D01*
X53096Y430283D01*
X55497Y432684D01*
X58633Y433983D01*
X62027Y433983D01*
X63212Y433492D01*
X63307Y433470D01*
X63400Y433441D01*
X63426Y433442D01*
X63452Y433436D01*
X63548Y433445D01*
X63646Y433447D01*
X63670Y433456D01*
X63697Y433459D01*
X63786Y433498D01*
X63877Y433532D01*
X63897Y433548D01*
X63921Y433559D01*
X63993Y433625D01*
X64069Y433686D01*
X64083Y433708D01*
X64102Y433725D01*
X64149Y433811D01*
X64202Y433893D01*
X64208Y433918D01*
X64221Y433941D01*
X64238Y434037D01*
X64262Y434131D01*
X64260Y434157D01*
X64265Y434183D01*
X64250Y434279D01*
X64243Y434376D01*
X64233Y434400D01*
X64229Y434426D01*
X64185Y434513D01*
X64147Y434603D01*
X64126Y434628D01*
X64117Y434645D01*
X64094Y434669D01*
X64042Y434734D01*
X62881Y435894D01*
X62807Y435947D01*
X62738Y436007D01*
X62707Y436019D01*
X62681Y436038D01*
X62594Y436065D01*
X62509Y436099D01*
X62468Y436103D01*
X62446Y436110D01*
X62414Y436109D01*
X62343Y436117D01*
X50132Y436117D01*
X50018Y436098D01*
X49901Y436081D01*
X49896Y436079D01*
X49890Y436078D01*
X49787Y436023D01*
X49682Y435970D01*
X49678Y435965D01*
X49672Y435962D01*
X49592Y435878D01*
X49510Y435794D01*
X49506Y435788D01*
X49503Y435784D01*
X49495Y435767D01*
X49429Y435647D01*
X48464Y433317D01*
X46063Y430916D01*
X42927Y429617D01*
X39533Y429617D01*
X36397Y430916D01*
X33996Y433317D01*
X32697Y436453D01*
X32697Y439847D01*
X33996Y442983D01*
X36397Y445384D01*
X39533Y446683D01*
X42927Y446683D01*
X44533Y446018D01*
X44627Y445996D01*
X44720Y445967D01*
X44747Y445968D01*
X44772Y445962D01*
X44869Y445971D01*
X44966Y445973D01*
X44991Y445982D01*
X45017Y445985D01*
X45106Y446024D01*
X45197Y446058D01*
X45218Y446074D01*
X45242Y446085D01*
X45313Y446151D01*
X45389Y446211D01*
X45403Y446233D01*
X45423Y446251D01*
X45470Y446337D01*
X45522Y446418D01*
X45529Y446444D01*
X45541Y446467D01*
X45559Y446563D01*
X45582Y446657D01*
X45580Y446683D01*
X45585Y446709D01*
X45571Y446805D01*
X45563Y446902D01*
X45553Y446926D01*
X45549Y446952D01*
X45505Y447039D01*
X45467Y447128D01*
X45447Y447154D01*
X45438Y447171D01*
X45414Y447194D01*
X45362Y447259D01*
X44027Y448594D01*
X43953Y448647D01*
X43884Y448707D01*
X43854Y448719D01*
X43827Y448738D01*
X43740Y448765D01*
X43656Y448799D01*
X43615Y448803D01*
X43592Y448810D01*
X43560Y448809D01*
X43489Y448817D01*
X31032Y448817D01*
X30918Y448798D01*
X30801Y448781D01*
X30796Y448779D01*
X30790Y448778D01*
X30687Y448723D01*
X30582Y448670D01*
X30578Y448665D01*
X30572Y448662D01*
X30492Y448578D01*
X30410Y448494D01*
X30406Y448488D01*
X30403Y448484D01*
X30395Y448467D01*
X30329Y448347D01*
X29364Y446017D01*
X26963Y443616D01*
X23827Y442317D01*
X20433Y442317D01*
X17297Y443616D01*
X14896Y446017D01*
X13597Y449153D01*
X13597Y452547D01*
X14896Y455683D01*
X17297Y458084D01*
X20433Y459383D01*
X23827Y459383D01*
X26963Y458084D01*
X29364Y455683D01*
X30329Y453353D01*
X30391Y453253D01*
X30451Y453153D01*
X30455Y453149D01*
X30459Y453144D01*
X30548Y453069D01*
X30638Y452993D01*
X30643Y452991D01*
X30648Y452987D01*
X30756Y452945D01*
X30866Y452901D01*
X30873Y452900D01*
X30878Y452899D01*
X30896Y452898D01*
X31032Y452883D01*
X45488Y452883D01*
X50915Y447456D01*
X50994Y447399D01*
X51069Y447337D01*
X51093Y447328D01*
X51115Y447313D01*
X51208Y447284D01*
X51298Y447249D01*
X51325Y447248D01*
X51350Y447240D01*
X51447Y447243D01*
X51544Y447239D01*
X51569Y447246D01*
X51595Y447247D01*
X51687Y447280D01*
X51780Y447307D01*
X51802Y447322D01*
X51827Y447331D01*
X51903Y447392D01*
X51983Y447447D01*
X51998Y447468D01*
X52019Y447485D01*
X52071Y447567D01*
X52129Y447645D01*
X52137Y447670D01*
X52152Y447692D01*
X52175Y447786D01*
X52205Y447879D01*
X52205Y447905D01*
X52212Y447930D01*
X52204Y448027D01*
X52203Y448125D01*
X52194Y448156D01*
X52192Y448175D01*
X52180Y448206D01*
X52156Y448286D01*
X51797Y449153D01*
X51797Y452547D01*
X53096Y455683D01*
X55497Y458084D01*
X58633Y459383D01*
X62027Y459383D01*
X63646Y458712D01*
X63740Y458690D01*
X63834Y458661D01*
X63860Y458662D01*
X63885Y458656D01*
X63982Y458665D01*
X64080Y458668D01*
X64104Y458677D01*
X64130Y458679D01*
X64219Y458719D01*
X64311Y458752D01*
X64331Y458769D01*
X64355Y458779D01*
X64427Y458845D01*
X64503Y458906D01*
X64517Y458928D01*
X64536Y458946D01*
X64583Y459031D01*
X64636Y459113D01*
X64642Y459138D01*
X64655Y459161D01*
X64672Y459257D01*
X64696Y459351D01*
X64694Y459377D01*
X64698Y459403D01*
X64684Y459500D01*
X64677Y459597D01*
X64666Y459621D01*
X64662Y459647D01*
X64618Y459733D01*
X64580Y459823D01*
X64560Y459848D01*
X64551Y459866D01*
X64527Y459889D01*
X64475Y459954D01*
X63135Y461294D01*
X63061Y461347D01*
X62992Y461407D01*
X62961Y461419D01*
X62935Y461438D01*
X62848Y461465D01*
X62763Y461499D01*
X62722Y461503D01*
X62700Y461510D01*
X62668Y461509D01*
X62597Y461517D01*
X50132Y461517D01*
X50018Y461498D01*
X49901Y461481D01*
X49896Y461479D01*
X49890Y461478D01*
X49787Y461423D01*
X49682Y461370D01*
X49678Y461365D01*
X49672Y461362D01*
X49592Y461278D01*
X49510Y461194D01*
X49506Y461188D01*
X49503Y461184D01*
X49495Y461167D01*
X49429Y461047D01*
X48464Y458717D01*
X46063Y456316D01*
X42927Y455017D01*
X39533Y455017D01*
X36397Y456316D01*
X33996Y458717D01*
X32697Y461853D01*
X32697Y465247D01*
X33996Y468383D01*
X36397Y470784D01*
X39533Y472083D01*
X42927Y472083D01*
X46063Y470784D01*
X48464Y468383D01*
X49429Y466053D01*
X49491Y465953D01*
X49551Y465853D01*
X49555Y465849D01*
X49559Y465844D01*
X49648Y465769D01*
X49738Y465693D01*
X49743Y465691D01*
X49748Y465687D01*
X49856Y465645D01*
X49966Y465601D01*
X49973Y465600D01*
X49978Y465599D01*
X49996Y465598D01*
X50132Y465583D01*
X64596Y465583D01*
X70009Y460169D01*
X70088Y460113D01*
X70163Y460050D01*
X70188Y460041D01*
X70209Y460026D01*
X70302Y459997D01*
X70393Y459962D01*
X70419Y459961D01*
X70444Y459953D01*
X70542Y459956D01*
X70639Y459952D01*
X70664Y459959D01*
X70690Y459960D01*
X70781Y459993D01*
X70875Y460020D01*
X70896Y460035D01*
X70921Y460044D01*
X70997Y460105D01*
X71077Y460161D01*
X71093Y460182D01*
X71113Y460198D01*
X71166Y460280D01*
X71224Y460358D01*
X71232Y460383D01*
X71246Y460405D01*
X71270Y460499D01*
X71300Y460592D01*
X71300Y460618D01*
X71306Y460643D01*
X71299Y460740D01*
X71298Y460838D01*
X71289Y460869D01*
X71287Y460889D01*
X71274Y460919D01*
X71251Y460999D01*
X70897Y461853D01*
X70897Y465247D01*
X72196Y468383D01*
X74597Y470784D01*
X77733Y472083D01*
X81127Y472083D01*
X84263Y470784D01*
X86664Y468383D01*
X87629Y466053D01*
X87691Y465953D01*
X87751Y465853D01*
X87755Y465849D01*
X87759Y465844D01*
X87848Y465769D01*
X87938Y465693D01*
X87943Y465691D01*
X87948Y465687D01*
X88056Y465645D01*
X88166Y465601D01*
X88173Y465600D01*
X88178Y465599D01*
X88196Y465598D01*
X88332Y465583D01*
X190867Y465583D01*
X190957Y465597D01*
X191048Y465605D01*
X191077Y465617D01*
X191109Y465622D01*
X191190Y465665D01*
X191274Y465701D01*
X191306Y465727D01*
X191327Y465738D01*
X191344Y465756D01*
X191346Y465757D01*
X191353Y465764D01*
X191405Y465806D01*
X211217Y485618D01*
X211259Y485676D01*
X211308Y485728D01*
X211330Y485775D01*
X211361Y485817D01*
X211382Y485886D01*
X211412Y485951D01*
X211418Y486003D01*
X211433Y486053D01*
X211431Y486124D01*
X211439Y486195D01*
X211428Y486246D01*
X211427Y486298D01*
X211402Y486366D01*
X211387Y486436D01*
X211360Y486481D01*
X211342Y486529D01*
X211297Y486585D01*
X211261Y486647D01*
X211221Y486681D01*
X211188Y486721D01*
X211128Y486760D01*
X211074Y486807D01*
X211025Y486826D01*
X210981Y486854D01*
X210912Y486872D01*
X210845Y486899D01*
X210774Y486907D01*
X210743Y486915D01*
X210720Y486913D01*
X210679Y486917D01*
X88332Y486917D01*
X88218Y486898D01*
X88101Y486881D01*
X88096Y486879D01*
X88090Y486878D01*
X87987Y486823D01*
X87882Y486770D01*
X87878Y486765D01*
X87872Y486762D01*
X87792Y486678D01*
X87710Y486594D01*
X87706Y486588D01*
X87703Y486584D01*
X87695Y486567D01*
X87629Y486447D01*
X86664Y484117D01*
X84263Y481716D01*
X81127Y480417D01*
X77733Y480417D01*
X74597Y481716D01*
X72196Y484117D01*
X70897Y487253D01*
X70897Y490647D01*
X72196Y493783D01*
X74597Y496184D01*
X77733Y497483D01*
X81127Y497483D01*
X84263Y496184D01*
X86664Y493783D01*
X87629Y491453D01*
X87691Y491353D01*
X87751Y491253D01*
X87755Y491249D01*
X87759Y491244D01*
X87848Y491169D01*
X87938Y491093D01*
X87943Y491091D01*
X87948Y491087D01*
X88056Y491045D01*
X88166Y491001D01*
X88173Y491000D01*
X88178Y490999D01*
X88196Y490998D01*
X88332Y490983D01*
X212203Y490983D01*
X212293Y490997D01*
X212384Y491005D01*
X212413Y491017D01*
X212445Y491022D01*
X212526Y491065D01*
X212610Y491101D01*
X212642Y491127D01*
X212663Y491138D01*
X212685Y491161D01*
X212741Y491206D01*
X232553Y511018D01*
X232595Y511076D01*
X232644Y511128D01*
X232666Y511175D01*
X232697Y511217D01*
X232718Y511286D01*
X232748Y511351D01*
X232754Y511403D01*
X232769Y511453D01*
X232767Y511524D01*
X232775Y511595D01*
X232764Y511646D01*
X232763Y511698D01*
X232738Y511766D01*
X232723Y511836D01*
X232696Y511881D01*
X232678Y511929D01*
X232633Y511985D01*
X232597Y512047D01*
X232557Y512081D01*
X232524Y512121D01*
X232464Y512160D01*
X232410Y512207D01*
X232361Y512226D01*
X232317Y512254D01*
X232248Y512272D01*
X232181Y512299D01*
X232110Y512307D01*
X232079Y512315D01*
X232056Y512313D01*
X232015Y512317D01*
X88332Y512317D01*
X88218Y512298D01*
X88101Y512281D01*
X88096Y512279D01*
X88090Y512278D01*
X87987Y512223D01*
X87882Y512170D01*
X87878Y512165D01*
X87872Y512162D01*
X87792Y512078D01*
X87710Y511994D01*
X87706Y511988D01*
X87703Y511984D01*
X87695Y511967D01*
X87629Y511847D01*
X86664Y509517D01*
X84263Y507116D01*
X81127Y505817D01*
X77733Y505817D01*
X74597Y507116D01*
X72196Y509517D01*
X70897Y512653D01*
X70897Y516047D01*
X72196Y519183D01*
X74597Y521584D01*
X77733Y522883D01*
X81127Y522883D01*
X84263Y521584D01*
X86664Y519183D01*
X87629Y516853D01*
X87691Y516753D01*
X87751Y516653D01*
X87755Y516649D01*
X87759Y516644D01*
X87848Y516569D01*
X87938Y516493D01*
X87943Y516491D01*
X87948Y516487D01*
X88056Y516445D01*
X88166Y516401D01*
X88173Y516400D01*
X88178Y516399D01*
X88196Y516398D01*
X88332Y516383D01*
X233285Y516383D01*
X233375Y516397D01*
X233466Y516405D01*
X233495Y516417D01*
X233527Y516422D01*
X233608Y516465D01*
X233692Y516501D01*
X233724Y516527D01*
X233745Y516538D01*
X233767Y516561D01*
X233823Y516606D01*
X328850Y611633D01*
X481443Y611633D01*
X481533Y611647D01*
X481624Y611655D01*
X481653Y611667D01*
X481685Y611672D01*
X481766Y611715D01*
X481850Y611751D01*
X481882Y611777D01*
X481903Y611788D01*
X481925Y611811D01*
X481981Y611856D01*
X487568Y617442D01*
X487636Y617537D01*
X487706Y617631D01*
X487708Y617637D01*
X487711Y617642D01*
X487745Y617753D01*
X487782Y617865D01*
X487782Y617871D01*
X487784Y617877D01*
X487781Y617994D01*
X487779Y618111D01*
X487777Y618118D01*
X487777Y618123D01*
X487771Y618141D01*
X487733Y618272D01*
X486767Y620603D01*
X486767Y623997D01*
X488066Y627133D01*
X490467Y629534D01*
X493603Y630833D01*
X496997Y630833D01*
X500133Y629534D01*
X502534Y627133D01*
X503833Y623997D01*
X503833Y620603D01*
X502867Y618272D01*
X502841Y618158D01*
X502812Y618045D01*
X502813Y618039D01*
X502811Y618033D01*
X502822Y617916D01*
X502831Y617800D01*
X502834Y617794D01*
X502834Y617788D01*
X502882Y617680D01*
X502928Y617573D01*
X502932Y617568D01*
X502934Y617563D01*
X502947Y617549D01*
X503032Y617442D01*
X532385Y588090D01*
X532385Y173910D01*
X530971Y172496D01*
X503719Y145245D01*
X503708Y145228D01*
X503692Y145216D01*
X503636Y145129D01*
X503576Y145045D01*
X503570Y145026D01*
X503559Y145009D01*
X503534Y144909D01*
X503503Y144810D01*
X503504Y144790D01*
X503499Y144771D01*
X503507Y144668D01*
X503510Y144564D01*
X503517Y144545D01*
X503518Y144525D01*
X503559Y144430D01*
X503594Y144333D01*
X503607Y144317D01*
X503614Y144299D01*
X503719Y144168D01*
X504413Y143475D01*
X504413Y135925D01*
X499075Y130587D01*
X491525Y130587D01*
G37*
%LPD*%
G36*
X336431Y513346D02*
X336431Y513346D01*
X336503Y513348D01*
X336552Y513366D01*
X336603Y513374D01*
X336666Y513408D01*
X336734Y513433D01*
X336774Y513465D01*
X336820Y513490D01*
X336870Y513542D01*
X336926Y513586D01*
X336954Y513630D01*
X336990Y513668D01*
X337020Y513733D01*
X337059Y513793D01*
X337072Y513844D01*
X337093Y513891D01*
X337101Y513962D01*
X337119Y514032D01*
X337115Y514084D01*
X337121Y514135D01*
X337105Y514206D01*
X337100Y514277D01*
X337079Y514325D01*
X337068Y514376D01*
X337032Y514437D01*
X337003Y514503D01*
X336959Y514559D01*
X336942Y514587D01*
X336924Y514602D01*
X336899Y514634D01*
X335666Y515867D01*
X334367Y519003D01*
X334367Y522397D01*
X335666Y525533D01*
X338067Y527934D01*
X341203Y529233D01*
X344597Y529233D01*
X347733Y527934D01*
X350134Y525533D01*
X351433Y522397D01*
X351433Y519003D01*
X350134Y515867D01*
X348901Y514634D01*
X348860Y514576D01*
X348810Y514524D01*
X348788Y514477D01*
X348758Y514435D01*
X348737Y514366D01*
X348707Y514301D01*
X348701Y514249D01*
X348685Y514199D01*
X348687Y514128D01*
X348679Y514057D01*
X348690Y514006D01*
X348692Y513954D01*
X348716Y513886D01*
X348732Y513816D01*
X348758Y513771D01*
X348776Y513723D01*
X348821Y513667D01*
X348858Y513605D01*
X348897Y513571D01*
X348930Y513531D01*
X348990Y513492D01*
X349045Y513445D01*
X349093Y513426D01*
X349137Y513398D01*
X349206Y513380D01*
X349273Y513353D01*
X349344Y513345D01*
X349375Y513337D01*
X349399Y513339D01*
X349440Y513335D01*
X459345Y513335D01*
X459435Y513349D01*
X459526Y513357D01*
X459555Y513369D01*
X459587Y513374D01*
X459668Y513417D01*
X459752Y513453D01*
X459784Y513479D01*
X459805Y513490D01*
X459827Y513513D01*
X459883Y513558D01*
X487568Y541242D01*
X487636Y541337D01*
X487706Y541431D01*
X487708Y541437D01*
X487711Y541442D01*
X487745Y541553D01*
X487782Y541665D01*
X487782Y541671D01*
X487784Y541677D01*
X487781Y541794D01*
X487779Y541911D01*
X487777Y541918D01*
X487777Y541923D01*
X487771Y541941D01*
X487733Y542072D01*
X486767Y544403D01*
X486767Y547797D01*
X488066Y550933D01*
X490467Y553334D01*
X493603Y554633D01*
X496997Y554633D01*
X500133Y553334D01*
X502534Y550933D01*
X503833Y547797D01*
X503833Y544403D01*
X502867Y542072D01*
X502841Y541958D01*
X502812Y541845D01*
X502813Y541839D01*
X502811Y541833D01*
X502822Y541716D01*
X502831Y541600D01*
X502834Y541594D01*
X502834Y541588D01*
X502882Y541480D01*
X502928Y541373D01*
X502932Y541368D01*
X502934Y541363D01*
X502947Y541349D01*
X503032Y541242D01*
X524226Y520049D01*
X524284Y520007D01*
X524336Y519958D01*
X524383Y519936D01*
X524425Y519905D01*
X524494Y519884D01*
X524559Y519854D01*
X524611Y519848D01*
X524661Y519833D01*
X524732Y519835D01*
X524803Y519827D01*
X524854Y519838D01*
X524906Y519839D01*
X524974Y519864D01*
X525044Y519879D01*
X525089Y519906D01*
X525137Y519924D01*
X525193Y519969D01*
X525255Y520005D01*
X525289Y520045D01*
X525329Y520078D01*
X525368Y520138D01*
X525415Y520192D01*
X525434Y520241D01*
X525462Y520285D01*
X525480Y520354D01*
X525507Y520421D01*
X525515Y520492D01*
X525523Y520523D01*
X525521Y520546D01*
X525525Y520587D01*
X525525Y563485D01*
X525511Y563575D01*
X525503Y563666D01*
X525491Y563695D01*
X525486Y563727D01*
X525443Y563808D01*
X525407Y563892D01*
X525381Y563924D01*
X525370Y563945D01*
X525347Y563967D01*
X525302Y564023D01*
X500158Y589168D01*
X500063Y589236D01*
X499969Y589306D01*
X499963Y589308D01*
X499958Y589311D01*
X499847Y589345D01*
X499735Y589382D01*
X499729Y589382D01*
X499723Y589384D01*
X499606Y589381D01*
X499489Y589379D01*
X499482Y589377D01*
X499477Y589377D01*
X499459Y589371D01*
X499328Y589333D01*
X496997Y588367D01*
X493603Y588367D01*
X491272Y589333D01*
X491158Y589359D01*
X491045Y589388D01*
X491039Y589387D01*
X491033Y589389D01*
X490916Y589378D01*
X490800Y589369D01*
X490794Y589366D01*
X490788Y589366D01*
X490680Y589318D01*
X490573Y589272D01*
X490568Y589268D01*
X490563Y589266D01*
X490549Y589253D01*
X490442Y589168D01*
X483442Y582167D01*
X309767Y582167D01*
X309677Y582153D01*
X309586Y582145D01*
X309557Y582133D01*
X309525Y582128D01*
X309444Y582085D01*
X309360Y582049D01*
X309328Y582023D01*
X309307Y582012D01*
X309285Y581989D01*
X309229Y581944D01*
X241919Y514634D01*
X241877Y514576D01*
X241828Y514524D01*
X241806Y514477D01*
X241775Y514435D01*
X241754Y514366D01*
X241724Y514301D01*
X241718Y514249D01*
X241703Y514199D01*
X241705Y514128D01*
X241697Y514057D01*
X241708Y514006D01*
X241709Y513954D01*
X241734Y513886D01*
X241749Y513816D01*
X241776Y513771D01*
X241794Y513723D01*
X241839Y513667D01*
X241875Y513605D01*
X241915Y513571D01*
X241948Y513531D01*
X242008Y513492D01*
X242062Y513445D01*
X242111Y513426D01*
X242155Y513398D01*
X242224Y513380D01*
X242291Y513353D01*
X242362Y513345D01*
X242393Y513337D01*
X242416Y513339D01*
X242457Y513335D01*
X336360Y513335D01*
X336431Y513346D01*
G37*
G36*
X527648Y567844D02*
X527648Y567844D01*
X527700Y567845D01*
X527768Y567870D01*
X527838Y567885D01*
X527883Y567912D01*
X527931Y567930D01*
X527987Y567975D01*
X528049Y568011D01*
X528083Y568051D01*
X528123Y568084D01*
X528162Y568144D01*
X528209Y568198D01*
X528228Y568247D01*
X528256Y568291D01*
X528274Y568360D01*
X528301Y568427D01*
X528309Y568498D01*
X528317Y568529D01*
X528315Y568552D01*
X528319Y568593D01*
X528319Y586091D01*
X528305Y586181D01*
X528297Y586272D01*
X528285Y586301D01*
X528280Y586333D01*
X528237Y586414D01*
X528201Y586498D01*
X528175Y586530D01*
X528164Y586551D01*
X528141Y586573D01*
X528096Y586629D01*
X500158Y614568D01*
X500063Y614636D01*
X499969Y614706D01*
X499963Y614708D01*
X499958Y614711D01*
X499847Y614745D01*
X499735Y614782D01*
X499729Y614782D01*
X499723Y614784D01*
X499606Y614781D01*
X499489Y614779D01*
X499482Y614777D01*
X499477Y614777D01*
X499459Y614771D01*
X499328Y614733D01*
X496997Y613767D01*
X493603Y613767D01*
X491272Y614733D01*
X491158Y614759D01*
X491045Y614788D01*
X491039Y614787D01*
X491033Y614789D01*
X490916Y614778D01*
X490800Y614769D01*
X490794Y614766D01*
X490788Y614766D01*
X490680Y614718D01*
X490573Y614672D01*
X490568Y614668D01*
X490563Y614666D01*
X490549Y614653D01*
X490442Y614568D01*
X483442Y607567D01*
X330849Y607567D01*
X330759Y607553D01*
X330668Y607545D01*
X330639Y607533D01*
X330607Y607528D01*
X330526Y607485D01*
X330442Y607449D01*
X330410Y607423D01*
X330389Y607412D01*
X330367Y607389D01*
X330311Y607344D01*
X310499Y587532D01*
X310457Y587474D01*
X310408Y587422D01*
X310386Y587375D01*
X310355Y587333D01*
X310334Y587264D01*
X310304Y587199D01*
X310298Y587147D01*
X310283Y587097D01*
X310285Y587026D01*
X310277Y586955D01*
X310288Y586904D01*
X310289Y586852D01*
X310314Y586784D01*
X310329Y586714D01*
X310356Y586669D01*
X310374Y586621D01*
X310419Y586565D01*
X310455Y586503D01*
X310495Y586469D01*
X310528Y586429D01*
X310588Y586390D01*
X310642Y586343D01*
X310691Y586324D01*
X310735Y586296D01*
X310804Y586278D01*
X310871Y586251D01*
X310942Y586243D01*
X310973Y586235D01*
X310996Y586237D01*
X311037Y586233D01*
X481443Y586233D01*
X481533Y586247D01*
X481624Y586255D01*
X481653Y586267D01*
X481685Y586272D01*
X481766Y586315D01*
X481850Y586351D01*
X481882Y586377D01*
X481903Y586388D01*
X481925Y586411D01*
X481981Y586456D01*
X487568Y592042D01*
X487635Y592137D01*
X487706Y592231D01*
X487708Y592237D01*
X487711Y592242D01*
X487745Y592353D01*
X487782Y592465D01*
X487782Y592471D01*
X487784Y592477D01*
X487781Y592594D01*
X487779Y592711D01*
X487777Y592718D01*
X487777Y592723D01*
X487771Y592741D01*
X487733Y592872D01*
X486767Y595203D01*
X486767Y598597D01*
X488066Y601733D01*
X490467Y604134D01*
X493603Y605433D01*
X496997Y605433D01*
X500133Y604134D01*
X502534Y601733D01*
X503833Y598597D01*
X503833Y595203D01*
X502867Y592872D01*
X502841Y592758D01*
X502812Y592645D01*
X502813Y592639D01*
X502811Y592633D01*
X502822Y592516D01*
X502831Y592400D01*
X502834Y592394D01*
X502834Y592388D01*
X502882Y592280D01*
X502928Y592173D01*
X502932Y592168D01*
X502934Y592163D01*
X502947Y592149D01*
X503032Y592042D01*
X527020Y568055D01*
X527078Y568013D01*
X527130Y567964D01*
X527177Y567942D01*
X527219Y567911D01*
X527288Y567890D01*
X527353Y567860D01*
X527405Y567854D01*
X527455Y567839D01*
X527526Y567841D01*
X527597Y567833D01*
X527648Y567844D01*
G37*
%LPC*%
G36*
X39533Y302617D02*
X39533Y302617D01*
X36397Y303916D01*
X33996Y306317D01*
X32697Y309453D01*
X32697Y312847D01*
X33996Y315983D01*
X36245Y318232D01*
X36286Y318290D01*
X36336Y318342D01*
X36358Y318389D01*
X36388Y318431D01*
X36409Y318500D01*
X36439Y318565D01*
X36445Y318617D01*
X36461Y318667D01*
X36459Y318738D01*
X36467Y318809D01*
X36456Y318860D01*
X36454Y318912D01*
X36430Y318980D01*
X36414Y319050D01*
X36388Y319095D01*
X36370Y319143D01*
X36325Y319199D01*
X36288Y319261D01*
X36249Y319295D01*
X36216Y319335D01*
X36156Y319374D01*
X36101Y319421D01*
X36053Y319440D01*
X36009Y319468D01*
X35940Y319486D01*
X35873Y319513D01*
X35802Y319521D01*
X35771Y319529D01*
X35747Y319527D01*
X35706Y319531D01*
X30086Y319531D01*
X29970Y319512D01*
X29855Y319495D01*
X29849Y319493D01*
X29843Y319492D01*
X29740Y319437D01*
X29635Y319384D01*
X29631Y319379D01*
X29625Y319376D01*
X29546Y319292D01*
X29463Y319208D01*
X29459Y319202D01*
X29456Y319198D01*
X29448Y319181D01*
X29382Y319061D01*
X29364Y319017D01*
X26963Y316616D01*
X23827Y315317D01*
X20433Y315317D01*
X17297Y316616D01*
X14896Y319017D01*
X13597Y322153D01*
X13597Y325547D01*
X14896Y328683D01*
X17297Y331084D01*
X20433Y332383D01*
X23827Y332383D01*
X26963Y331084D01*
X29364Y328683D01*
X29382Y328639D01*
X29443Y328540D01*
X29504Y328439D01*
X29508Y328435D01*
X29512Y328430D01*
X29602Y328355D01*
X29691Y328279D01*
X29696Y328277D01*
X29701Y328273D01*
X29810Y328231D01*
X29919Y328187D01*
X29926Y328186D01*
X29931Y328185D01*
X29949Y328184D01*
X30086Y328169D01*
X34943Y328169D01*
X35013Y328180D01*
X35085Y328182D01*
X35134Y328200D01*
X35185Y328208D01*
X35249Y328242D01*
X35316Y328267D01*
X35357Y328299D01*
X35403Y328324D01*
X35452Y328376D01*
X35508Y328420D01*
X35536Y328464D01*
X35572Y328502D01*
X35602Y328567D01*
X35641Y328627D01*
X35654Y328678D01*
X35676Y328725D01*
X35684Y328796D01*
X35701Y328866D01*
X35697Y328918D01*
X35703Y328969D01*
X35688Y329040D01*
X35682Y329111D01*
X35662Y329159D01*
X35651Y329210D01*
X35614Y329271D01*
X35586Y329337D01*
X35541Y329393D01*
X35524Y329421D01*
X35507Y329436D01*
X35481Y329468D01*
X34183Y330766D01*
X33190Y332252D01*
X32506Y333904D01*
X32283Y335027D01*
X40468Y335027D01*
X40488Y335030D01*
X40507Y335028D01*
X40609Y335050D01*
X40711Y335067D01*
X40728Y335076D01*
X40748Y335080D01*
X40837Y335133D01*
X40928Y335182D01*
X40942Y335196D01*
X40959Y335206D01*
X41026Y335285D01*
X41097Y335360D01*
X41106Y335378D01*
X41119Y335393D01*
X41157Y335489D01*
X41201Y335583D01*
X41203Y335603D01*
X41211Y335621D01*
X41229Y335788D01*
X41229Y336551D01*
X41231Y336551D01*
X41231Y335788D01*
X41234Y335768D01*
X41232Y335749D01*
X41254Y335647D01*
X41271Y335545D01*
X41280Y335528D01*
X41284Y335508D01*
X41337Y335419D01*
X41386Y335328D01*
X41400Y335314D01*
X41410Y335297D01*
X41489Y335230D01*
X41564Y335159D01*
X41582Y335150D01*
X41597Y335137D01*
X41693Y335098D01*
X41787Y335055D01*
X41807Y335053D01*
X41825Y335045D01*
X41992Y335027D01*
X50177Y335027D01*
X49954Y333904D01*
X49270Y332252D01*
X48277Y330766D01*
X46979Y329468D01*
X46937Y329410D01*
X46888Y329358D01*
X46866Y329311D01*
X46835Y329269D01*
X46814Y329200D01*
X46784Y329135D01*
X46778Y329083D01*
X46763Y329033D01*
X46765Y328962D01*
X46757Y328891D01*
X46768Y328840D01*
X46769Y328788D01*
X46794Y328720D01*
X46809Y328650D01*
X46836Y328605D01*
X46854Y328557D01*
X46899Y328501D01*
X46936Y328439D01*
X46975Y328405D01*
X47008Y328365D01*
X47068Y328326D01*
X47122Y328279D01*
X47171Y328260D01*
X47215Y328232D01*
X47284Y328214D01*
X47351Y328187D01*
X47422Y328179D01*
X47453Y328171D01*
X47476Y328173D01*
X47517Y328169D01*
X52374Y328169D01*
X52490Y328188D01*
X52605Y328205D01*
X52611Y328207D01*
X52617Y328208D01*
X52720Y328263D01*
X52825Y328316D01*
X52829Y328321D01*
X52835Y328324D01*
X52914Y328408D01*
X52997Y328492D01*
X53001Y328498D01*
X53004Y328502D01*
X53012Y328519D01*
X53078Y328639D01*
X53096Y328683D01*
X55497Y331084D01*
X58633Y332383D01*
X62027Y332383D01*
X65163Y331084D01*
X67564Y328683D01*
X68863Y325547D01*
X68863Y322153D01*
X67564Y319017D01*
X65163Y316616D01*
X62027Y315317D01*
X58633Y315317D01*
X55497Y316616D01*
X53096Y319017D01*
X53078Y319061D01*
X53017Y319160D01*
X52956Y319261D01*
X52952Y319265D01*
X52948Y319270D01*
X52858Y319345D01*
X52769Y319421D01*
X52764Y319423D01*
X52759Y319427D01*
X52650Y319469D01*
X52541Y319513D01*
X52534Y319514D01*
X52529Y319515D01*
X52511Y319516D01*
X52374Y319531D01*
X46754Y319531D01*
X46683Y319520D01*
X46611Y319518D01*
X46562Y319500D01*
X46511Y319492D01*
X46448Y319458D01*
X46380Y319433D01*
X46340Y319401D01*
X46294Y319376D01*
X46244Y319324D01*
X46188Y319280D01*
X46160Y319236D01*
X46124Y319198D01*
X46094Y319133D01*
X46055Y319073D01*
X46042Y319022D01*
X46021Y318975D01*
X46013Y318904D01*
X45995Y318834D01*
X45999Y318782D01*
X45993Y318731D01*
X46009Y318660D01*
X46014Y318589D01*
X46035Y318541D01*
X46046Y318490D01*
X46082Y318429D01*
X46111Y318363D01*
X46155Y318307D01*
X46172Y318279D01*
X46190Y318264D01*
X46215Y318232D01*
X48464Y315983D01*
X49763Y312847D01*
X49763Y309453D01*
X48464Y306317D01*
X46063Y303916D01*
X42927Y302617D01*
X39533Y302617D01*
G37*
%LPD*%
%LPC*%
G36*
X47617Y591049D02*
X47617Y591049D01*
X41736Y593485D01*
X37235Y597986D01*
X34799Y603867D01*
X34799Y610233D01*
X37235Y616114D01*
X41736Y620615D01*
X47617Y623051D01*
X53983Y623051D01*
X59864Y620615D01*
X64365Y616114D01*
X66801Y610233D01*
X66801Y603867D01*
X64365Y597986D01*
X59864Y593485D01*
X53983Y591049D01*
X47617Y591049D01*
G37*
%LPD*%
%LPC*%
G36*
X47617Y11949D02*
X47617Y11949D01*
X41736Y14385D01*
X37235Y18886D01*
X34799Y24767D01*
X34799Y31133D01*
X37235Y37014D01*
X41736Y41515D01*
X47617Y43951D01*
X53983Y43951D01*
X59864Y41515D01*
X64365Y37014D01*
X66801Y31133D01*
X66801Y24767D01*
X64365Y18886D01*
X59864Y14385D01*
X53983Y11949D01*
X47617Y11949D01*
G37*
%LPD*%
%LPC*%
G36*
X581023Y11969D02*
X581023Y11969D01*
X575153Y14401D01*
X570661Y18893D01*
X568229Y24763D01*
X568229Y31117D01*
X570661Y36987D01*
X575153Y41479D01*
X581023Y43911D01*
X587377Y43911D01*
X593247Y41479D01*
X597739Y36987D01*
X600171Y31117D01*
X600171Y24763D01*
X597739Y18893D01*
X593247Y14401D01*
X587377Y11969D01*
X581023Y11969D01*
G37*
%LPD*%
%LPC*%
G36*
X581023Y591089D02*
X581023Y591089D01*
X575153Y593521D01*
X570661Y598013D01*
X568229Y603883D01*
X568229Y610237D01*
X570661Y616107D01*
X575153Y620599D01*
X581023Y623031D01*
X587377Y623031D01*
X593247Y620599D01*
X597739Y616107D01*
X600171Y610237D01*
X600171Y603883D01*
X597739Y598013D01*
X593247Y593521D01*
X587377Y591089D01*
X581023Y591089D01*
G37*
%LPD*%
%LPC*%
G36*
X136523Y591089D02*
X136523Y591089D01*
X130653Y593521D01*
X126161Y598013D01*
X123729Y603883D01*
X123729Y610237D01*
X126161Y616107D01*
X130653Y620599D01*
X136523Y623031D01*
X142877Y623031D01*
X148747Y620599D01*
X153239Y616107D01*
X155671Y610237D01*
X155671Y603883D01*
X153239Y598013D01*
X148747Y593521D01*
X142877Y591089D01*
X136523Y591089D01*
G37*
%LPD*%
%LPC*%
G36*
X136523Y11969D02*
X136523Y11969D01*
X130653Y14401D01*
X126161Y18893D01*
X123729Y24763D01*
X123729Y31117D01*
X126161Y36987D01*
X130653Y41479D01*
X136523Y43911D01*
X142877Y43911D01*
X148747Y41479D01*
X153239Y36987D01*
X155671Y31117D01*
X155671Y24763D01*
X153239Y18893D01*
X148747Y14401D01*
X142877Y11969D01*
X136523Y11969D01*
G37*
%LPD*%
%LPC*%
G36*
X575275Y498887D02*
X575275Y498887D01*
X571926Y500275D01*
X569363Y502838D01*
X567975Y506187D01*
X567975Y509813D01*
X569363Y513162D01*
X571926Y515725D01*
X575275Y517113D01*
X593125Y517113D01*
X596474Y515725D01*
X599037Y513162D01*
X600425Y509813D01*
X600425Y506187D01*
X599037Y502838D01*
X596474Y500275D01*
X593125Y498887D01*
X575275Y498887D01*
G37*
%LPD*%
%LPC*%
G36*
X575275Y549687D02*
X575275Y549687D01*
X571926Y551075D01*
X569363Y553638D01*
X567975Y556987D01*
X567975Y560613D01*
X569363Y563962D01*
X571926Y566525D01*
X575275Y567913D01*
X593125Y567913D01*
X596474Y566525D01*
X599037Y563962D01*
X600425Y560613D01*
X600425Y556987D01*
X599037Y553638D01*
X596474Y551075D01*
X593125Y549687D01*
X575275Y549687D01*
G37*
%LPD*%
%LPC*%
G36*
X575275Y524287D02*
X575275Y524287D01*
X571926Y525675D01*
X569363Y528238D01*
X567975Y531587D01*
X567975Y535213D01*
X569363Y538562D01*
X571926Y541125D01*
X575275Y542513D01*
X593125Y542513D01*
X596474Y541125D01*
X599037Y538562D01*
X600425Y535213D01*
X600425Y531587D01*
X599037Y528238D01*
X596474Y525675D01*
X593125Y524287D01*
X575275Y524287D01*
G37*
%LPD*%
%LPC*%
G36*
X491525Y28987D02*
X491525Y28987D01*
X486187Y34325D01*
X486187Y41875D01*
X491525Y47213D01*
X499075Y47213D01*
X504413Y41875D01*
X504413Y34325D01*
X499075Y28987D01*
X491525Y28987D01*
G37*
%LPD*%
%LPC*%
G36*
X491525Y79787D02*
X491525Y79787D01*
X486187Y85125D01*
X486187Y92675D01*
X491525Y98013D01*
X499075Y98013D01*
X504413Y92675D01*
X504413Y85125D01*
X499075Y79787D01*
X491525Y79787D01*
G37*
%LPD*%
%LPC*%
G36*
X491525Y105187D02*
X491525Y105187D01*
X486187Y110525D01*
X486187Y118075D01*
X491525Y123413D01*
X499075Y123413D01*
X504413Y118075D01*
X504413Y110525D01*
X499075Y105187D01*
X491525Y105187D01*
G37*
%LPD*%
%LPC*%
G36*
X491525Y54387D02*
X491525Y54387D01*
X486187Y59725D01*
X486187Y67275D01*
X491525Y72613D01*
X499075Y72613D01*
X504413Y67275D01*
X504413Y59725D01*
X499075Y54387D01*
X491525Y54387D01*
G37*
%LPD*%
%LPC*%
G36*
X341203Y613767D02*
X341203Y613767D01*
X338067Y615066D01*
X335666Y617467D01*
X334367Y620603D01*
X334367Y623997D01*
X335666Y627133D01*
X338067Y629534D01*
X341203Y630833D01*
X344597Y630833D01*
X347733Y629534D01*
X350134Y627133D01*
X351433Y623997D01*
X351433Y620603D01*
X350134Y617467D01*
X347733Y615066D01*
X344597Y613767D01*
X341203Y613767D01*
G37*
%LPD*%
%LPC*%
G36*
X39533Y277217D02*
X39533Y277217D01*
X36397Y278516D01*
X33996Y280917D01*
X32697Y284053D01*
X32697Y287447D01*
X33996Y290583D01*
X36397Y292984D01*
X39533Y294283D01*
X42927Y294283D01*
X46063Y292984D01*
X48464Y290583D01*
X49763Y287447D01*
X49763Y284053D01*
X48464Y280917D01*
X46063Y278516D01*
X42927Y277217D01*
X39533Y277217D01*
G37*
%LPD*%
%LPC*%
G36*
X77733Y201017D02*
X77733Y201017D01*
X74597Y202316D01*
X72196Y204717D01*
X70897Y207853D01*
X70897Y211247D01*
X72196Y214383D01*
X74597Y216784D01*
X77733Y218083D01*
X81127Y218083D01*
X84263Y216784D01*
X86664Y214383D01*
X87963Y211247D01*
X87963Y207853D01*
X86664Y204717D01*
X84263Y202316D01*
X81127Y201017D01*
X77733Y201017D01*
G37*
%LPD*%
%LPC*%
G36*
X20433Y264517D02*
X20433Y264517D01*
X17297Y265816D01*
X14896Y268217D01*
X13597Y271353D01*
X13597Y274747D01*
X14896Y277883D01*
X17297Y280284D01*
X20433Y281583D01*
X23827Y281583D01*
X26963Y280284D01*
X29364Y277883D01*
X30663Y274747D01*
X30663Y271353D01*
X29364Y268217D01*
X26963Y265816D01*
X23827Y264517D01*
X20433Y264517D01*
G37*
%LPD*%
%LPC*%
G36*
X77733Y251817D02*
X77733Y251817D01*
X74597Y253116D01*
X72196Y255517D01*
X70897Y258653D01*
X70897Y262047D01*
X72196Y265183D01*
X74597Y267584D01*
X77733Y268883D01*
X81127Y268883D01*
X84263Y267584D01*
X86664Y265183D01*
X87963Y262047D01*
X87963Y258653D01*
X86664Y255517D01*
X84263Y253116D01*
X81127Y251817D01*
X77733Y251817D01*
G37*
%LPD*%
%LPC*%
G36*
X39533Y251817D02*
X39533Y251817D01*
X36397Y253116D01*
X33996Y255517D01*
X32697Y258653D01*
X32697Y262047D01*
X33996Y265183D01*
X36397Y267584D01*
X39533Y268883D01*
X42927Y268883D01*
X46063Y267584D01*
X48464Y265183D01*
X49763Y262047D01*
X49763Y258653D01*
X48464Y255517D01*
X46063Y253116D01*
X42927Y251817D01*
X39533Y251817D01*
G37*
%LPD*%
%LPC*%
G36*
X493603Y562967D02*
X493603Y562967D01*
X490467Y564266D01*
X488066Y566667D01*
X486767Y569803D01*
X486767Y573197D01*
X488066Y576333D01*
X490467Y578734D01*
X493603Y580033D01*
X496997Y580033D01*
X500133Y578734D01*
X502534Y576333D01*
X503833Y573197D01*
X503833Y569803D01*
X502534Y566667D01*
X500133Y564266D01*
X496997Y562967D01*
X493603Y562967D01*
G37*
%LPD*%
%LPC*%
G36*
X341203Y562967D02*
X341203Y562967D01*
X338067Y564266D01*
X335666Y566667D01*
X334367Y569803D01*
X334367Y573197D01*
X335666Y576333D01*
X338067Y578734D01*
X341203Y580033D01*
X344597Y580033D01*
X347733Y578734D01*
X350134Y576333D01*
X351433Y573197D01*
X351433Y569803D01*
X350134Y566667D01*
X347733Y564266D01*
X344597Y562967D01*
X341203Y562967D01*
G37*
%LPD*%
%LPC*%
G36*
X341203Y537567D02*
X341203Y537567D01*
X338067Y538866D01*
X335666Y541267D01*
X334367Y544403D01*
X334367Y547797D01*
X335666Y550933D01*
X338067Y553334D01*
X341203Y554633D01*
X344597Y554633D01*
X347733Y553334D01*
X350134Y550933D01*
X351433Y547797D01*
X351433Y544403D01*
X350134Y541267D01*
X347733Y538866D01*
X344597Y537567D01*
X341203Y537567D01*
G37*
%LPD*%
%LPC*%
G36*
X58633Y239117D02*
X58633Y239117D01*
X55497Y240416D01*
X53096Y242817D01*
X51797Y245953D01*
X51797Y249347D01*
X53096Y252483D01*
X55497Y254884D01*
X58633Y256183D01*
X62027Y256183D01*
X65163Y254884D01*
X67564Y252483D01*
X68863Y249347D01*
X68863Y245953D01*
X67564Y242817D01*
X65163Y240416D01*
X62027Y239117D01*
X58633Y239117D01*
G37*
%LPD*%
%LPC*%
G36*
X20433Y239117D02*
X20433Y239117D01*
X17297Y240416D01*
X14896Y242817D01*
X13597Y245953D01*
X13597Y249347D01*
X14896Y252483D01*
X17297Y254884D01*
X20433Y256183D01*
X23827Y256183D01*
X26963Y254884D01*
X29364Y252483D01*
X30663Y249347D01*
X30663Y245953D01*
X29364Y242817D01*
X26963Y240416D01*
X23827Y239117D01*
X20433Y239117D01*
G37*
%LPD*%
%LPC*%
G36*
X77733Y226417D02*
X77733Y226417D01*
X74597Y227716D01*
X72196Y230117D01*
X70897Y233253D01*
X70897Y236647D01*
X72196Y239783D01*
X74597Y242184D01*
X77733Y243483D01*
X81127Y243483D01*
X84263Y242184D01*
X86664Y239783D01*
X87963Y236647D01*
X87963Y233253D01*
X86664Y230117D01*
X84263Y227716D01*
X81127Y226417D01*
X77733Y226417D01*
G37*
%LPD*%
%LPC*%
G36*
X39533Y226417D02*
X39533Y226417D01*
X36397Y227716D01*
X33996Y230117D01*
X32697Y233253D01*
X32697Y236647D01*
X33996Y239783D01*
X36397Y242184D01*
X39533Y243483D01*
X42927Y243483D01*
X46063Y242184D01*
X48464Y239783D01*
X49763Y236647D01*
X49763Y233253D01*
X48464Y230117D01*
X46063Y227716D01*
X42927Y226417D01*
X39533Y226417D01*
G37*
%LPD*%
%LPC*%
G36*
X58633Y366117D02*
X58633Y366117D01*
X55497Y367416D01*
X53096Y369817D01*
X51797Y372953D01*
X51797Y376347D01*
X53096Y379483D01*
X55497Y381884D01*
X58633Y383183D01*
X62027Y383183D01*
X65163Y381884D01*
X67564Y379483D01*
X68863Y376347D01*
X68863Y372953D01*
X67564Y369817D01*
X65163Y367416D01*
X62027Y366117D01*
X58633Y366117D01*
G37*
%LPD*%
%LPC*%
G36*
X58633Y213717D02*
X58633Y213717D01*
X55497Y215016D01*
X53096Y217417D01*
X51797Y220553D01*
X51797Y223947D01*
X53096Y227083D01*
X55497Y229484D01*
X58633Y230783D01*
X62027Y230783D01*
X65163Y229484D01*
X67564Y227083D01*
X68863Y223947D01*
X68863Y220553D01*
X67564Y217417D01*
X65163Y215016D01*
X62027Y213717D01*
X58633Y213717D01*
G37*
%LPD*%
%LPC*%
G36*
X20433Y213717D02*
X20433Y213717D01*
X17297Y215016D01*
X14896Y217417D01*
X13597Y220553D01*
X13597Y223947D01*
X14896Y227083D01*
X17297Y229484D01*
X20433Y230783D01*
X23827Y230783D01*
X26963Y229484D01*
X29364Y227083D01*
X30663Y223947D01*
X30663Y220553D01*
X29364Y217417D01*
X26963Y215016D01*
X23827Y213717D01*
X20433Y213717D01*
G37*
%LPD*%
%LPC*%
G36*
X39533Y201017D02*
X39533Y201017D01*
X36397Y202316D01*
X33996Y204717D01*
X32697Y207853D01*
X32697Y211247D01*
X33996Y214383D01*
X36397Y216784D01*
X39533Y218083D01*
X42927Y218083D01*
X46063Y216784D01*
X48464Y214383D01*
X49763Y211247D01*
X49763Y207853D01*
X48464Y204717D01*
X46063Y202316D01*
X42927Y201017D01*
X39533Y201017D01*
G37*
%LPD*%
%LPC*%
G36*
X58633Y264517D02*
X58633Y264517D01*
X55497Y265816D01*
X53096Y268217D01*
X51797Y271353D01*
X51797Y274747D01*
X53096Y277883D01*
X55497Y280284D01*
X58633Y281583D01*
X62027Y281583D01*
X65163Y280284D01*
X67564Y277883D01*
X68863Y274747D01*
X68863Y271353D01*
X67564Y268217D01*
X65163Y265816D01*
X62027Y264517D01*
X58633Y264517D01*
G37*
%LPD*%
%LPC*%
G36*
X77733Y302617D02*
X77733Y302617D01*
X74597Y303916D01*
X72196Y306317D01*
X70897Y309453D01*
X70897Y312847D01*
X72196Y315983D01*
X74597Y318384D01*
X77733Y319683D01*
X81127Y319683D01*
X84263Y318384D01*
X86664Y315983D01*
X87963Y312847D01*
X87963Y309453D01*
X86664Y306317D01*
X84263Y303916D01*
X81127Y302617D01*
X77733Y302617D01*
G37*
%LPD*%
%LPC*%
G36*
X39533Y505817D02*
X39533Y505817D01*
X36397Y507116D01*
X33996Y509517D01*
X32697Y512653D01*
X32697Y516047D01*
X33996Y519183D01*
X36397Y521584D01*
X39533Y522883D01*
X42927Y522883D01*
X46063Y521584D01*
X48464Y519183D01*
X49763Y516047D01*
X49763Y512653D01*
X48464Y509517D01*
X46063Y507116D01*
X42927Y505817D01*
X39533Y505817D01*
G37*
%LPD*%
%LPC*%
G36*
X58633Y493117D02*
X58633Y493117D01*
X55497Y494416D01*
X53096Y496817D01*
X51797Y499953D01*
X51797Y503347D01*
X53096Y506483D01*
X55497Y508884D01*
X58633Y510183D01*
X62027Y510183D01*
X65163Y508884D01*
X67564Y506483D01*
X68863Y503347D01*
X68863Y499953D01*
X67564Y496817D01*
X65163Y494416D01*
X62027Y493117D01*
X58633Y493117D01*
G37*
%LPD*%
%LPC*%
G36*
X20433Y493117D02*
X20433Y493117D01*
X17297Y494416D01*
X14896Y496817D01*
X13597Y499953D01*
X13597Y503347D01*
X14896Y506483D01*
X17297Y508884D01*
X20433Y510183D01*
X23827Y510183D01*
X26963Y508884D01*
X29364Y506483D01*
X30663Y503347D01*
X30663Y499953D01*
X29364Y496817D01*
X26963Y494416D01*
X23827Y493117D01*
X20433Y493117D01*
G37*
%LPD*%
%LPC*%
G36*
X39533Y480417D02*
X39533Y480417D01*
X36397Y481716D01*
X33996Y484117D01*
X32697Y487253D01*
X32697Y490647D01*
X33996Y493783D01*
X36397Y496184D01*
X39533Y497483D01*
X42927Y497483D01*
X46063Y496184D01*
X48464Y493783D01*
X49763Y490647D01*
X49763Y487253D01*
X48464Y484117D01*
X46063Y481716D01*
X42927Y480417D01*
X39533Y480417D01*
G37*
%LPD*%
%LPC*%
G36*
X58633Y188317D02*
X58633Y188317D01*
X55497Y189616D01*
X53096Y192017D01*
X51797Y195153D01*
X51797Y198547D01*
X53096Y201683D01*
X55497Y204084D01*
X58633Y205383D01*
X62027Y205383D01*
X65163Y204084D01*
X67564Y201683D01*
X68863Y198547D01*
X68863Y195153D01*
X67564Y192017D01*
X65163Y189616D01*
X62027Y188317D01*
X58633Y188317D01*
G37*
%LPD*%
%LPC*%
G36*
X20433Y188317D02*
X20433Y188317D01*
X17297Y189616D01*
X14896Y192017D01*
X13597Y195153D01*
X13597Y198547D01*
X14896Y201683D01*
X17297Y204084D01*
X20433Y205383D01*
X23827Y205383D01*
X26963Y204084D01*
X29364Y201683D01*
X30663Y198547D01*
X30663Y195153D01*
X29364Y192017D01*
X26963Y189616D01*
X23827Y188317D01*
X20433Y188317D01*
G37*
%LPD*%
%LPC*%
G36*
X58633Y467717D02*
X58633Y467717D01*
X55497Y469016D01*
X53096Y471417D01*
X51797Y474553D01*
X51797Y477947D01*
X53096Y481083D01*
X55497Y483484D01*
X58633Y484783D01*
X62027Y484783D01*
X65163Y483484D01*
X67564Y481083D01*
X68863Y477947D01*
X68863Y474553D01*
X67564Y471417D01*
X65163Y469016D01*
X62027Y467717D01*
X58633Y467717D01*
G37*
%LPD*%
%LPC*%
G36*
X20433Y467717D02*
X20433Y467717D01*
X17297Y469016D01*
X14896Y471417D01*
X13597Y474553D01*
X13597Y477947D01*
X14896Y481083D01*
X17297Y483484D01*
X20433Y484783D01*
X23827Y484783D01*
X26963Y483484D01*
X29364Y481083D01*
X30663Y477947D01*
X30663Y474553D01*
X29364Y471417D01*
X26963Y469016D01*
X23827Y467717D01*
X20433Y467717D01*
G37*
%LPD*%
%LPC*%
G36*
X77733Y175617D02*
X77733Y175617D01*
X74597Y176916D01*
X72196Y179317D01*
X70897Y182453D01*
X70897Y185847D01*
X72196Y188983D01*
X74597Y191384D01*
X77733Y192683D01*
X81127Y192683D01*
X84263Y191384D01*
X86664Y188983D01*
X87963Y185847D01*
X87963Y182453D01*
X86664Y179317D01*
X84263Y176916D01*
X81127Y175617D01*
X77733Y175617D01*
G37*
%LPD*%
%LPC*%
G36*
X39533Y175617D02*
X39533Y175617D01*
X36397Y176916D01*
X33996Y179317D01*
X32697Y182453D01*
X32697Y185847D01*
X33996Y188983D01*
X36397Y191384D01*
X39533Y192683D01*
X42927Y192683D01*
X46063Y191384D01*
X48464Y188983D01*
X49763Y185847D01*
X49763Y182453D01*
X48464Y179317D01*
X46063Y176916D01*
X42927Y175617D01*
X39533Y175617D01*
G37*
%LPD*%
%LPC*%
G36*
X20433Y162917D02*
X20433Y162917D01*
X17297Y164216D01*
X14896Y166617D01*
X13597Y169753D01*
X13597Y173147D01*
X14896Y176283D01*
X17297Y178684D01*
X20433Y179983D01*
X23827Y179983D01*
X26963Y178684D01*
X29364Y176283D01*
X30663Y173147D01*
X30663Y169753D01*
X29364Y166617D01*
X26963Y164216D01*
X23827Y162917D01*
X20433Y162917D01*
G37*
%LPD*%
%LPC*%
G36*
X20433Y391517D02*
X20433Y391517D01*
X17297Y392816D01*
X14896Y395217D01*
X13597Y398353D01*
X13597Y401747D01*
X14896Y404883D01*
X17297Y407284D01*
X20433Y408583D01*
X23827Y408583D01*
X26963Y407284D01*
X29364Y404883D01*
X30663Y401747D01*
X30663Y398353D01*
X29364Y395217D01*
X26963Y392816D01*
X23827Y391517D01*
X20433Y391517D01*
G37*
%LPD*%
%LPC*%
G36*
X58633Y391517D02*
X58633Y391517D01*
X55497Y392816D01*
X53096Y395217D01*
X51797Y398353D01*
X51797Y401747D01*
X53096Y404883D01*
X55497Y407284D01*
X58633Y408583D01*
X62027Y408583D01*
X65163Y407284D01*
X67564Y404883D01*
X68863Y401747D01*
X68863Y398353D01*
X67564Y395217D01*
X65163Y392816D01*
X62027Y391517D01*
X58633Y391517D01*
G37*
%LPD*%
%LPC*%
G36*
X77733Y378817D02*
X77733Y378817D01*
X74597Y380116D01*
X72196Y382517D01*
X70897Y385653D01*
X70897Y389047D01*
X72196Y392183D01*
X74597Y394584D01*
X77733Y395883D01*
X81127Y395883D01*
X84263Y394584D01*
X86664Y392183D01*
X87963Y389047D01*
X87963Y385653D01*
X86664Y382517D01*
X84263Y380116D01*
X81127Y378817D01*
X77733Y378817D01*
G37*
%LPD*%
%LPC*%
G36*
X39533Y378817D02*
X39533Y378817D01*
X36397Y380116D01*
X33996Y382517D01*
X32697Y385653D01*
X32697Y389047D01*
X33996Y392183D01*
X36397Y394584D01*
X39533Y395883D01*
X42927Y395883D01*
X46063Y394584D01*
X48464Y392183D01*
X49763Y389047D01*
X49763Y385653D01*
X48464Y382517D01*
X46063Y380116D01*
X42927Y378817D01*
X39533Y378817D01*
G37*
%LPD*%
%LPC*%
G36*
X58633Y137517D02*
X58633Y137517D01*
X55497Y138816D01*
X53096Y141217D01*
X51797Y144353D01*
X51797Y147747D01*
X53096Y150883D01*
X55497Y153284D01*
X58633Y154583D01*
X62027Y154583D01*
X65163Y153284D01*
X67564Y150883D01*
X68863Y147747D01*
X68863Y144353D01*
X67564Y141217D01*
X65163Y138816D01*
X62027Y137517D01*
X58633Y137517D01*
G37*
%LPD*%
%LPC*%
G36*
X20433Y366117D02*
X20433Y366117D01*
X17297Y367416D01*
X14896Y369817D01*
X13597Y372953D01*
X13597Y376347D01*
X14896Y379483D01*
X17297Y381884D01*
X20433Y383183D01*
X23827Y383183D01*
X26963Y381884D01*
X29364Y379483D01*
X30663Y376347D01*
X30663Y372953D01*
X29364Y369817D01*
X26963Y367416D01*
X23827Y366117D01*
X20433Y366117D01*
G37*
%LPD*%
%LPC*%
G36*
X20433Y137517D02*
X20433Y137517D01*
X17297Y138816D01*
X14896Y141217D01*
X13597Y144353D01*
X13597Y147747D01*
X14896Y150883D01*
X17297Y153284D01*
X20433Y154583D01*
X23827Y154583D01*
X26963Y153284D01*
X29364Y150883D01*
X30663Y147747D01*
X30663Y144353D01*
X29364Y141217D01*
X26963Y138816D01*
X23827Y137517D01*
X20433Y137517D01*
G37*
%LPD*%
%LPC*%
G36*
X77733Y124817D02*
X77733Y124817D01*
X74597Y126116D01*
X72196Y128517D01*
X70897Y131653D01*
X70897Y135047D01*
X72196Y138183D01*
X74597Y140584D01*
X77733Y141883D01*
X81127Y141883D01*
X84263Y140584D01*
X86664Y138183D01*
X87963Y135047D01*
X87963Y131653D01*
X86664Y128517D01*
X84263Y126116D01*
X81127Y124817D01*
X77733Y124817D01*
G37*
%LPD*%
%LPC*%
G36*
X39533Y353417D02*
X39533Y353417D01*
X36397Y354716D01*
X33996Y357117D01*
X32697Y360253D01*
X32697Y363647D01*
X33996Y366783D01*
X36397Y369184D01*
X39533Y370483D01*
X42927Y370483D01*
X46063Y369184D01*
X48464Y366783D01*
X49763Y363647D01*
X49763Y360253D01*
X48464Y357117D01*
X46063Y354716D01*
X42927Y353417D01*
X39533Y353417D01*
G37*
%LPD*%
%LPC*%
G36*
X39533Y124817D02*
X39533Y124817D01*
X36397Y126116D01*
X33996Y128517D01*
X32697Y131653D01*
X32697Y135047D01*
X33996Y138183D01*
X36397Y140584D01*
X39533Y141883D01*
X42927Y141883D01*
X46063Y140584D01*
X48464Y138183D01*
X49763Y135047D01*
X49763Y131653D01*
X48464Y128517D01*
X46063Y126116D01*
X42927Y124817D01*
X39533Y124817D01*
G37*
%LPD*%
%LPC*%
G36*
X58633Y112117D02*
X58633Y112117D01*
X55497Y113416D01*
X53096Y115817D01*
X51797Y118953D01*
X51797Y122347D01*
X53096Y125483D01*
X55497Y127884D01*
X58633Y129183D01*
X62027Y129183D01*
X65163Y127884D01*
X67564Y125483D01*
X68863Y122347D01*
X68863Y118953D01*
X67564Y115817D01*
X65163Y113416D01*
X62027Y112117D01*
X58633Y112117D01*
G37*
%LPD*%
%LPC*%
G36*
X20433Y112117D02*
X20433Y112117D01*
X17297Y113416D01*
X14896Y115817D01*
X13597Y118953D01*
X13597Y122347D01*
X14896Y125483D01*
X17297Y127884D01*
X20433Y129183D01*
X23827Y129183D01*
X26963Y127884D01*
X29364Y125483D01*
X30663Y122347D01*
X30663Y118953D01*
X29364Y115817D01*
X26963Y113416D01*
X23827Y112117D01*
X20433Y112117D01*
G37*
%LPD*%
%LPC*%
G36*
X20433Y340717D02*
X20433Y340717D01*
X17297Y342016D01*
X14896Y344417D01*
X13597Y347553D01*
X13597Y350947D01*
X14896Y354083D01*
X17297Y356484D01*
X20433Y357783D01*
X23827Y357783D01*
X26963Y356484D01*
X29364Y354083D01*
X30663Y350947D01*
X30663Y347553D01*
X29364Y344417D01*
X26963Y342016D01*
X23827Y340717D01*
X20433Y340717D01*
G37*
%LPD*%
%LPC*%
G36*
X58633Y340717D02*
X58633Y340717D01*
X55497Y342016D01*
X53096Y344417D01*
X51797Y347553D01*
X51797Y350947D01*
X53096Y354083D01*
X55497Y356484D01*
X58633Y357783D01*
X62027Y357783D01*
X65163Y356484D01*
X67564Y354083D01*
X68863Y350947D01*
X68863Y347553D01*
X67564Y344417D01*
X65163Y342016D01*
X62027Y340717D01*
X58633Y340717D01*
G37*
%LPD*%
%LPC*%
G36*
X77733Y277217D02*
X77733Y277217D01*
X74597Y278516D01*
X72196Y280917D01*
X70897Y284053D01*
X70897Y287447D01*
X72196Y290583D01*
X74597Y292984D01*
X77733Y294283D01*
X81127Y294283D01*
X84263Y292984D01*
X86664Y290583D01*
X87963Y287447D01*
X87963Y284053D01*
X86664Y280917D01*
X84263Y278516D01*
X81127Y277217D01*
X77733Y277217D01*
G37*
%LPD*%
%LPC*%
G36*
X585723Y484123D02*
X585723Y484123D01*
X585723Y492253D01*
X592072Y492253D01*
X593572Y492015D01*
X595017Y491546D01*
X596371Y490856D01*
X597600Y489963D01*
X598675Y488888D01*
X599568Y487659D01*
X600258Y486305D01*
X600727Y484860D01*
X600844Y484123D01*
X585723Y484123D01*
G37*
%LPD*%
%LPC*%
G36*
X567556Y484123D02*
X567556Y484123D01*
X567673Y484860D01*
X568142Y486305D01*
X568832Y487659D01*
X569725Y488888D01*
X570800Y489963D01*
X572029Y490856D01*
X573383Y491546D01*
X574828Y492015D01*
X576328Y492253D01*
X582677Y492253D01*
X582677Y484123D01*
X567556Y484123D01*
G37*
%LPD*%
%LPC*%
G36*
X585723Y472947D02*
X585723Y472947D01*
X585723Y481077D01*
X600844Y481077D01*
X600727Y480340D01*
X600258Y478895D01*
X599568Y477541D01*
X598675Y476312D01*
X597600Y475237D01*
X596371Y474344D01*
X595017Y473654D01*
X593572Y473185D01*
X592072Y472947D01*
X585723Y472947D01*
G37*
%LPD*%
%LPC*%
G36*
X576328Y472947D02*
X576328Y472947D01*
X574828Y473185D01*
X573383Y473654D01*
X572029Y474344D01*
X570800Y475237D01*
X569725Y476312D01*
X568832Y477541D01*
X568142Y478895D01*
X567673Y480340D01*
X567556Y481077D01*
X582677Y481077D01*
X582677Y472947D01*
X576328Y472947D01*
G37*
%LPD*%
%LPC*%
G36*
X471423Y242823D02*
X471423Y242823D01*
X471423Y250953D01*
X473898Y250953D01*
X479553Y245298D01*
X479553Y242823D01*
X471423Y242823D01*
G37*
%LPD*%
%LPC*%
G36*
X471423Y90423D02*
X471423Y90423D01*
X471423Y98553D01*
X473898Y98553D01*
X479553Y92898D01*
X479553Y90423D01*
X471423Y90423D01*
G37*
%LPD*%
%LPC*%
G36*
X471423Y293623D02*
X471423Y293623D01*
X471423Y301753D01*
X473898Y301753D01*
X479553Y296098D01*
X479553Y293623D01*
X471423Y293623D01*
G37*
%LPD*%
%LPC*%
G36*
X471423Y319023D02*
X471423Y319023D01*
X471423Y327153D01*
X473898Y327153D01*
X479553Y321498D01*
X479553Y319023D01*
X471423Y319023D01*
G37*
%LPD*%
%LPC*%
G36*
X471423Y65023D02*
X471423Y65023D01*
X471423Y73153D01*
X473898Y73153D01*
X479553Y67498D01*
X479553Y65023D01*
X471423Y65023D01*
G37*
%LPD*%
%LPC*%
G36*
X471423Y115823D02*
X471423Y115823D01*
X471423Y123953D01*
X473898Y123953D01*
X479553Y118298D01*
X479553Y115823D01*
X471423Y115823D01*
G37*
%LPD*%
%LPC*%
G36*
X471423Y217423D02*
X471423Y217423D01*
X471423Y225553D01*
X473898Y225553D01*
X479553Y219898D01*
X479553Y217423D01*
X471423Y217423D01*
G37*
%LPD*%
%LPC*%
G36*
X471423Y166623D02*
X471423Y166623D01*
X471423Y174753D01*
X473898Y174753D01*
X479553Y169098D01*
X479553Y166623D01*
X471423Y166623D01*
G37*
%LPD*%
%LPC*%
G36*
X471423Y369823D02*
X471423Y369823D01*
X471423Y377953D01*
X473898Y377953D01*
X479553Y372298D01*
X479553Y369823D01*
X471423Y369823D01*
G37*
%LPD*%
%LPC*%
G36*
X471423Y268223D02*
X471423Y268223D01*
X471423Y276353D01*
X473898Y276353D01*
X479553Y270698D01*
X479553Y268223D01*
X471423Y268223D01*
G37*
%LPD*%
%LPC*%
G36*
X471423Y141223D02*
X471423Y141223D01*
X471423Y149353D01*
X473898Y149353D01*
X479553Y143698D01*
X479553Y141223D01*
X471423Y141223D01*
G37*
%LPD*%
%LPC*%
G36*
X471423Y192023D02*
X471423Y192023D01*
X471423Y200153D01*
X473898Y200153D01*
X479553Y194498D01*
X479553Y192023D01*
X471423Y192023D01*
G37*
%LPD*%
%LPC*%
G36*
X471423Y344423D02*
X471423Y344423D01*
X471423Y352553D01*
X473898Y352553D01*
X479553Y346898D01*
X479553Y344423D01*
X471423Y344423D01*
G37*
%LPD*%
%LPC*%
G36*
X471423Y39623D02*
X471423Y39623D01*
X471423Y47753D01*
X473898Y47753D01*
X479553Y42098D01*
X479553Y39623D01*
X471423Y39623D01*
G37*
%LPD*%
%LPC*%
G36*
X460247Y39623D02*
X460247Y39623D01*
X460247Y42098D01*
X465902Y47753D01*
X468377Y47753D01*
X468377Y39623D01*
X460247Y39623D01*
G37*
%LPD*%
%LPC*%
G36*
X460247Y90423D02*
X460247Y90423D01*
X460247Y92898D01*
X465902Y98553D01*
X468377Y98553D01*
X468377Y90423D01*
X460247Y90423D01*
G37*
%LPD*%
%LPC*%
G36*
X460247Y293623D02*
X460247Y293623D01*
X460247Y296098D01*
X465902Y301753D01*
X468377Y301753D01*
X468377Y293623D01*
X460247Y293623D01*
G37*
%LPD*%
%LPC*%
G36*
X460247Y242823D02*
X460247Y242823D01*
X460247Y245298D01*
X465902Y250953D01*
X468377Y250953D01*
X468377Y242823D01*
X460247Y242823D01*
G37*
%LPD*%
%LPC*%
G36*
X460247Y141223D02*
X460247Y141223D01*
X460247Y143698D01*
X465902Y149353D01*
X468377Y149353D01*
X468377Y141223D01*
X460247Y141223D01*
G37*
%LPD*%
%LPC*%
G36*
X460247Y115823D02*
X460247Y115823D01*
X460247Y118298D01*
X465902Y123953D01*
X468377Y123953D01*
X468377Y115823D01*
X460247Y115823D01*
G37*
%LPD*%
%LPC*%
G36*
X460247Y217423D02*
X460247Y217423D01*
X460247Y219898D01*
X465902Y225553D01*
X468377Y225553D01*
X468377Y217423D01*
X460247Y217423D01*
G37*
%LPD*%
%LPC*%
G36*
X460247Y192023D02*
X460247Y192023D01*
X460247Y194498D01*
X465902Y200153D01*
X468377Y200153D01*
X468377Y192023D01*
X460247Y192023D01*
G37*
%LPD*%
%LPC*%
G36*
X460247Y166623D02*
X460247Y166623D01*
X460247Y169098D01*
X465902Y174753D01*
X468377Y174753D01*
X468377Y166623D01*
X460247Y166623D01*
G37*
%LPD*%
%LPC*%
G36*
X460247Y369823D02*
X460247Y369823D01*
X460247Y372298D01*
X465902Y377953D01*
X468377Y377953D01*
X468377Y369823D01*
X460247Y369823D01*
G37*
%LPD*%
%LPC*%
G36*
X460247Y344423D02*
X460247Y344423D01*
X460247Y346898D01*
X465902Y352553D01*
X468377Y352553D01*
X468377Y344423D01*
X460247Y344423D01*
G37*
%LPD*%
%LPC*%
G36*
X460247Y319023D02*
X460247Y319023D01*
X460247Y321498D01*
X465902Y327153D01*
X468377Y327153D01*
X468377Y319023D01*
X460247Y319023D01*
G37*
%LPD*%
%LPC*%
G36*
X460247Y268223D02*
X460247Y268223D01*
X460247Y270698D01*
X465902Y276353D01*
X468377Y276353D01*
X468377Y268223D01*
X460247Y268223D01*
G37*
%LPD*%
%LPC*%
G36*
X460247Y65023D02*
X460247Y65023D01*
X460247Y67498D01*
X465902Y73153D01*
X468377Y73153D01*
X468377Y65023D01*
X460247Y65023D01*
G37*
%LPD*%
%LPC*%
G36*
X471423Y231647D02*
X471423Y231647D01*
X471423Y239777D01*
X479553Y239777D01*
X479553Y237302D01*
X473898Y231647D01*
X471423Y231647D01*
G37*
%LPD*%
%LPC*%
G36*
X471423Y155447D02*
X471423Y155447D01*
X471423Y163577D01*
X479553Y163577D01*
X479553Y161102D01*
X473898Y155447D01*
X471423Y155447D01*
G37*
%LPD*%
%LPC*%
G36*
X471423Y358647D02*
X471423Y358647D01*
X471423Y366777D01*
X479553Y366777D01*
X479553Y364302D01*
X473898Y358647D01*
X471423Y358647D01*
G37*
%LPD*%
%LPC*%
G36*
X471423Y307847D02*
X471423Y307847D01*
X471423Y315977D01*
X479553Y315977D01*
X479553Y313502D01*
X473898Y307847D01*
X471423Y307847D01*
G37*
%LPD*%
%LPC*%
G36*
X471423Y180847D02*
X471423Y180847D01*
X471423Y188977D01*
X479553Y188977D01*
X479553Y186502D01*
X473898Y180847D01*
X471423Y180847D01*
G37*
%LPD*%
%LPC*%
G36*
X471423Y282447D02*
X471423Y282447D01*
X471423Y290577D01*
X479553Y290577D01*
X479553Y288102D01*
X473898Y282447D01*
X471423Y282447D01*
G37*
%LPD*%
%LPC*%
G36*
X471423Y206247D02*
X471423Y206247D01*
X471423Y214377D01*
X479553Y214377D01*
X479553Y211902D01*
X473898Y206247D01*
X471423Y206247D01*
G37*
%LPD*%
%LPC*%
G36*
X471423Y257047D02*
X471423Y257047D01*
X471423Y265177D01*
X479553Y265177D01*
X479553Y262702D01*
X473898Y257047D01*
X471423Y257047D01*
G37*
%LPD*%
%LPC*%
G36*
X471423Y79247D02*
X471423Y79247D01*
X471423Y87377D01*
X479553Y87377D01*
X479553Y84902D01*
X473898Y79247D01*
X471423Y79247D01*
G37*
%LPD*%
%LPC*%
G36*
X471423Y130047D02*
X471423Y130047D01*
X471423Y138177D01*
X479553Y138177D01*
X479553Y135702D01*
X473898Y130047D01*
X471423Y130047D01*
G37*
%LPD*%
%LPC*%
G36*
X471423Y53847D02*
X471423Y53847D01*
X471423Y61977D01*
X479553Y61977D01*
X479553Y59502D01*
X473898Y53847D01*
X471423Y53847D01*
G37*
%LPD*%
%LPC*%
G36*
X471423Y104647D02*
X471423Y104647D01*
X471423Y112777D01*
X479553Y112777D01*
X479553Y110302D01*
X473898Y104647D01*
X471423Y104647D01*
G37*
%LPD*%
%LPC*%
G36*
X471423Y333247D02*
X471423Y333247D01*
X471423Y341377D01*
X479553Y341377D01*
X479553Y338902D01*
X473898Y333247D01*
X471423Y333247D01*
G37*
%LPD*%
%LPC*%
G36*
X471423Y28447D02*
X471423Y28447D01*
X471423Y36577D01*
X479553Y36577D01*
X479553Y34102D01*
X473898Y28447D01*
X471423Y28447D01*
G37*
%LPD*%
%LPC*%
G36*
X465902Y28447D02*
X465902Y28447D01*
X460247Y34102D01*
X460247Y36577D01*
X468377Y36577D01*
X468377Y28447D01*
X465902Y28447D01*
G37*
%LPD*%
%LPC*%
G36*
X465902Y180847D02*
X465902Y180847D01*
X460247Y186502D01*
X460247Y188977D01*
X468377Y188977D01*
X468377Y180847D01*
X465902Y180847D01*
G37*
%LPD*%
%LPC*%
G36*
X465902Y231647D02*
X465902Y231647D01*
X460247Y237302D01*
X460247Y239777D01*
X468377Y239777D01*
X468377Y231647D01*
X465902Y231647D01*
G37*
%LPD*%
%LPC*%
G36*
X465902Y333247D02*
X465902Y333247D01*
X460247Y338902D01*
X460247Y341377D01*
X468377Y341377D01*
X468377Y333247D01*
X465902Y333247D01*
G37*
%LPD*%
%LPC*%
G36*
X465902Y257047D02*
X465902Y257047D01*
X460247Y262702D01*
X460247Y265177D01*
X468377Y265177D01*
X468377Y257047D01*
X465902Y257047D01*
G37*
%LPD*%
%LPC*%
G36*
X465902Y307847D02*
X465902Y307847D01*
X460247Y313502D01*
X460247Y315977D01*
X468377Y315977D01*
X468377Y307847D01*
X465902Y307847D01*
G37*
%LPD*%
%LPC*%
G36*
X465902Y155447D02*
X465902Y155447D01*
X460247Y161102D01*
X460247Y163577D01*
X468377Y163577D01*
X468377Y155447D01*
X465902Y155447D01*
G37*
%LPD*%
%LPC*%
G36*
X465902Y79247D02*
X465902Y79247D01*
X460247Y84902D01*
X460247Y87377D01*
X468377Y87377D01*
X468377Y79247D01*
X465902Y79247D01*
G37*
%LPD*%
%LPC*%
G36*
X465902Y358647D02*
X465902Y358647D01*
X460247Y364302D01*
X460247Y366777D01*
X468377Y366777D01*
X468377Y358647D01*
X465902Y358647D01*
G37*
%LPD*%
%LPC*%
G36*
X465902Y130047D02*
X465902Y130047D01*
X460247Y135702D01*
X460247Y138177D01*
X468377Y138177D01*
X468377Y130047D01*
X465902Y130047D01*
G37*
%LPD*%
%LPC*%
G36*
X465902Y53847D02*
X465902Y53847D01*
X460247Y59502D01*
X460247Y61977D01*
X468377Y61977D01*
X468377Y53847D01*
X465902Y53847D01*
G37*
%LPD*%
%LPC*%
G36*
X465902Y104647D02*
X465902Y104647D01*
X460247Y110302D01*
X460247Y112777D01*
X468377Y112777D01*
X468377Y104647D01*
X465902Y104647D01*
G37*
%LPD*%
%LPC*%
G36*
X465902Y282447D02*
X465902Y282447D01*
X460247Y288102D01*
X460247Y290577D01*
X468377Y290577D01*
X468377Y282447D01*
X465902Y282447D01*
G37*
%LPD*%
%LPC*%
G36*
X465902Y206247D02*
X465902Y206247D01*
X460247Y211902D01*
X460247Y214377D01*
X468377Y214377D01*
X468377Y206247D01*
X465902Y206247D01*
G37*
%LPD*%
%LPC*%
G36*
X80953Y109473D02*
X80953Y109473D01*
X80953Y116898D01*
X82076Y116674D01*
X83728Y115990D01*
X85214Y114997D01*
X86477Y113734D01*
X87470Y112248D01*
X88154Y110596D01*
X88378Y109473D01*
X80953Y109473D01*
G37*
%LPD*%
%LPC*%
G36*
X23653Y528573D02*
X23653Y528573D01*
X23653Y535998D01*
X24776Y535774D01*
X26428Y535090D01*
X27914Y534097D01*
X29177Y532834D01*
X30170Y531348D01*
X30854Y529696D01*
X31078Y528573D01*
X23653Y528573D01*
G37*
%LPD*%
%LPC*%
G36*
X61853Y528573D02*
X61853Y528573D01*
X61853Y535998D01*
X62976Y535774D01*
X64628Y535090D01*
X66114Y534097D01*
X67377Y532834D01*
X68370Y531348D01*
X69054Y529696D01*
X69278Y528573D01*
X61853Y528573D01*
G37*
%LPD*%
%LPC*%
G36*
X80953Y338073D02*
X80953Y338073D01*
X80953Y345498D01*
X82076Y345274D01*
X83728Y344590D01*
X85214Y343597D01*
X86477Y342334D01*
X87470Y340848D01*
X88154Y339196D01*
X88378Y338073D01*
X80953Y338073D01*
G37*
%LPD*%
%LPC*%
G36*
X42753Y338073D02*
X42753Y338073D01*
X42753Y345498D01*
X43876Y345274D01*
X45528Y344590D01*
X47014Y343597D01*
X48277Y342334D01*
X49270Y340848D01*
X49954Y339196D01*
X50178Y338073D01*
X42753Y338073D01*
G37*
%LPD*%
%LPC*%
G36*
X23653Y299973D02*
X23653Y299973D01*
X23653Y307398D01*
X24776Y307174D01*
X26428Y306490D01*
X27914Y305497D01*
X29177Y304234D01*
X30170Y302748D01*
X30854Y301096D01*
X31078Y299973D01*
X23653Y299973D01*
G37*
%LPD*%
%LPC*%
G36*
X61853Y299973D02*
X61853Y299973D01*
X61853Y307398D01*
X62976Y307174D01*
X64628Y306490D01*
X66114Y305497D01*
X67377Y304234D01*
X68370Y302748D01*
X69054Y301096D01*
X69278Y299973D01*
X61853Y299973D01*
G37*
%LPD*%
%LPC*%
G36*
X344423Y598423D02*
X344423Y598423D01*
X344423Y605848D01*
X345546Y605624D01*
X347198Y604940D01*
X348684Y603947D01*
X349947Y602684D01*
X350940Y601198D01*
X351624Y599546D01*
X351848Y598423D01*
X344423Y598423D01*
G37*
%LPD*%
%LPC*%
G36*
X42753Y109473D02*
X42753Y109473D01*
X42753Y116898D01*
X43876Y116674D01*
X45528Y115990D01*
X47014Y114997D01*
X48277Y113734D01*
X49270Y112248D01*
X49954Y110596D01*
X50178Y109473D01*
X42753Y109473D01*
G37*
%LPD*%
%LPC*%
G36*
X61853Y525527D02*
X61853Y525527D01*
X69277Y525527D01*
X69054Y524404D01*
X68370Y522752D01*
X67377Y521266D01*
X66114Y520003D01*
X64628Y519010D01*
X62976Y518326D01*
X61853Y518102D01*
X61853Y525527D01*
G37*
%LPD*%
%LPC*%
G36*
X51382Y528573D02*
X51382Y528573D01*
X51606Y529696D01*
X52290Y531348D01*
X53283Y532834D01*
X54546Y534097D01*
X56032Y535090D01*
X57684Y535774D01*
X58807Y535997D01*
X58807Y528573D01*
X51382Y528573D01*
G37*
%LPD*%
%LPC*%
G36*
X70482Y338073D02*
X70482Y338073D01*
X70706Y339196D01*
X71390Y340848D01*
X72383Y342334D01*
X73646Y343597D01*
X75132Y344590D01*
X76784Y345274D01*
X77907Y345497D01*
X77907Y338073D01*
X70482Y338073D01*
G37*
%LPD*%
%LPC*%
G36*
X13182Y528573D02*
X13182Y528573D01*
X13406Y529696D01*
X14090Y531348D01*
X15083Y532834D01*
X16346Y534097D01*
X17832Y535090D01*
X19484Y535774D01*
X20607Y535997D01*
X20607Y528573D01*
X13182Y528573D01*
G37*
%LPD*%
%LPC*%
G36*
X32282Y338073D02*
X32282Y338073D01*
X32506Y339196D01*
X33190Y340848D01*
X34183Y342334D01*
X35446Y343597D01*
X36932Y344590D01*
X38584Y345274D01*
X39707Y345497D01*
X39707Y338073D01*
X32282Y338073D01*
G37*
%LPD*%
%LPC*%
G36*
X80953Y106427D02*
X80953Y106427D01*
X88377Y106427D01*
X88154Y105304D01*
X87470Y103652D01*
X86477Y102166D01*
X85214Y100903D01*
X83728Y99910D01*
X82076Y99226D01*
X80953Y99002D01*
X80953Y106427D01*
G37*
%LPD*%
%LPC*%
G36*
X32282Y109473D02*
X32282Y109473D01*
X32506Y110596D01*
X33190Y112248D01*
X34183Y113734D01*
X35446Y114997D01*
X36932Y115990D01*
X38584Y116674D01*
X39707Y116897D01*
X39707Y109473D01*
X32282Y109473D01*
G37*
%LPD*%
%LPC*%
G36*
X70482Y109473D02*
X70482Y109473D01*
X70706Y110596D01*
X71390Y112248D01*
X72383Y113734D01*
X73646Y114997D01*
X75132Y115990D01*
X76784Y116674D01*
X77907Y116897D01*
X77907Y109473D01*
X70482Y109473D01*
G37*
%LPD*%
%LPC*%
G36*
X23653Y525527D02*
X23653Y525527D01*
X31077Y525527D01*
X30854Y524404D01*
X30170Y522752D01*
X29177Y521266D01*
X27914Y520003D01*
X26428Y519010D01*
X24776Y518326D01*
X23653Y518102D01*
X23653Y525527D01*
G37*
%LPD*%
%LPC*%
G36*
X344423Y595377D02*
X344423Y595377D01*
X351847Y595377D01*
X351624Y594254D01*
X350940Y592602D01*
X349947Y591116D01*
X348684Y589853D01*
X347198Y588860D01*
X345546Y588176D01*
X344423Y587952D01*
X344423Y595377D01*
G37*
%LPD*%
%LPC*%
G36*
X333952Y598423D02*
X333952Y598423D01*
X334176Y599546D01*
X334860Y601198D01*
X335853Y602684D01*
X337116Y603947D01*
X338602Y604940D01*
X340254Y605624D01*
X341377Y605847D01*
X341377Y598423D01*
X333952Y598423D01*
G37*
%LPD*%
%LPC*%
G36*
X51382Y299973D02*
X51382Y299973D01*
X51606Y301096D01*
X52290Y302748D01*
X53283Y304234D01*
X54546Y305497D01*
X56032Y306490D01*
X57684Y307174D01*
X58807Y307397D01*
X58807Y299973D01*
X51382Y299973D01*
G37*
%LPD*%
%LPC*%
G36*
X42753Y106427D02*
X42753Y106427D01*
X50177Y106427D01*
X49954Y105304D01*
X49270Y103652D01*
X48277Y102166D01*
X47014Y100903D01*
X45528Y99910D01*
X43876Y99226D01*
X42753Y99002D01*
X42753Y106427D01*
G37*
%LPD*%
%LPC*%
G36*
X13182Y299973D02*
X13182Y299973D01*
X13406Y301096D01*
X14090Y302748D01*
X15083Y304234D01*
X16346Y305497D01*
X17832Y306490D01*
X19484Y307174D01*
X20607Y307397D01*
X20607Y299973D01*
X13182Y299973D01*
G37*
%LPD*%
%LPC*%
G36*
X80953Y335027D02*
X80953Y335027D01*
X88377Y335027D01*
X88154Y333904D01*
X87470Y332252D01*
X86477Y330766D01*
X85214Y329503D01*
X83728Y328510D01*
X82076Y327826D01*
X80953Y327602D01*
X80953Y335027D01*
G37*
%LPD*%
%LPC*%
G36*
X23653Y296927D02*
X23653Y296927D01*
X31077Y296927D01*
X30854Y295804D01*
X30170Y294152D01*
X29177Y292666D01*
X27914Y291403D01*
X26428Y290410D01*
X24776Y289726D01*
X23653Y289502D01*
X23653Y296927D01*
G37*
%LPD*%
%LPC*%
G36*
X61853Y296927D02*
X61853Y296927D01*
X69277Y296927D01*
X69054Y295804D01*
X68370Y294152D01*
X67377Y292666D01*
X66114Y291403D01*
X64628Y290410D01*
X62976Y289726D01*
X61853Y289502D01*
X61853Y296927D01*
G37*
%LPD*%
%LPC*%
G36*
X19484Y289726D02*
X19484Y289726D01*
X17832Y290410D01*
X16346Y291403D01*
X15083Y292666D01*
X14090Y294152D01*
X13406Y295804D01*
X13183Y296927D01*
X20607Y296927D01*
X20607Y289503D01*
X19484Y289726D01*
G37*
%LPD*%
%LPC*%
G36*
X19484Y518326D02*
X19484Y518326D01*
X17832Y519010D01*
X16346Y520003D01*
X15083Y521266D01*
X14090Y522752D01*
X13406Y524404D01*
X13183Y525527D01*
X20607Y525527D01*
X20607Y518103D01*
X19484Y518326D01*
G37*
%LPD*%
%LPC*%
G36*
X57684Y518326D02*
X57684Y518326D01*
X56032Y519010D01*
X54546Y520003D01*
X53283Y521266D01*
X52290Y522752D01*
X51606Y524404D01*
X51383Y525527D01*
X58807Y525527D01*
X58807Y518103D01*
X57684Y518326D01*
G37*
%LPD*%
%LPC*%
G36*
X76784Y99226D02*
X76784Y99226D01*
X75132Y99910D01*
X73646Y100903D01*
X72383Y102166D01*
X71390Y103652D01*
X70706Y105304D01*
X70483Y106427D01*
X77907Y106427D01*
X77907Y99003D01*
X76784Y99226D01*
G37*
%LPD*%
%LPC*%
G36*
X38584Y99226D02*
X38584Y99226D01*
X36932Y99910D01*
X35446Y100903D01*
X34183Y102166D01*
X33190Y103652D01*
X32506Y105304D01*
X32283Y106427D01*
X39707Y106427D01*
X39707Y99003D01*
X38584Y99226D01*
G37*
%LPD*%
%LPC*%
G36*
X340254Y588176D02*
X340254Y588176D01*
X338602Y588860D01*
X337116Y589853D01*
X335853Y591116D01*
X334860Y592602D01*
X334176Y594254D01*
X333953Y595377D01*
X341377Y595377D01*
X341377Y587953D01*
X340254Y588176D01*
G37*
%LPD*%
%LPC*%
G36*
X57684Y289726D02*
X57684Y289726D01*
X56032Y290410D01*
X54546Y291403D01*
X53283Y292666D01*
X52290Y294152D01*
X51606Y295804D01*
X51383Y296927D01*
X58807Y296927D01*
X58807Y289503D01*
X57684Y289726D01*
G37*
%LPD*%
%LPC*%
G36*
X76784Y327826D02*
X76784Y327826D01*
X75132Y328510D01*
X73646Y329503D01*
X72383Y330766D01*
X71390Y332252D01*
X70706Y333904D01*
X70483Y335027D01*
X77907Y335027D01*
X77907Y327603D01*
X76784Y327826D01*
G37*
%LPD*%
%LPC*%
G36*
X469899Y342899D02*
X469899Y342899D01*
X469899Y342901D01*
X469901Y342901D01*
X469901Y342899D01*
X469899Y342899D01*
G37*
%LPD*%
%LPC*%
G36*
X469899Y266699D02*
X469899Y266699D01*
X469899Y266701D01*
X469901Y266701D01*
X469901Y266699D01*
X469899Y266699D01*
G37*
%LPD*%
%LPC*%
G36*
X469899Y368299D02*
X469899Y368299D01*
X469899Y368301D01*
X469901Y368301D01*
X469901Y368299D01*
X469899Y368299D01*
G37*
%LPD*%
%LPC*%
G36*
X342899Y596899D02*
X342899Y596899D01*
X342899Y596901D01*
X342901Y596901D01*
X342901Y596899D01*
X342899Y596899D01*
G37*
%LPD*%
%LPC*%
G36*
X60329Y527049D02*
X60329Y527049D01*
X60329Y527051D01*
X60331Y527051D01*
X60331Y527049D01*
X60329Y527049D01*
G37*
%LPD*%
%LPC*%
G36*
X469899Y88899D02*
X469899Y88899D01*
X469899Y88901D01*
X469901Y88901D01*
X469901Y88899D01*
X469899Y88899D01*
G37*
%LPD*%
%LPC*%
G36*
X22129Y298449D02*
X22129Y298449D01*
X22129Y298451D01*
X22131Y298451D01*
X22131Y298449D01*
X22129Y298449D01*
G37*
%LPD*%
%LPC*%
G36*
X60329Y298449D02*
X60329Y298449D01*
X60329Y298451D01*
X60331Y298451D01*
X60331Y298449D01*
X60329Y298449D01*
G37*
%LPD*%
%LPC*%
G36*
X584199Y482599D02*
X584199Y482599D01*
X584199Y482601D01*
X584201Y482601D01*
X584201Y482599D01*
X584199Y482599D01*
G37*
%LPD*%
%LPC*%
G36*
X469899Y241299D02*
X469899Y241299D01*
X469899Y241301D01*
X469901Y241301D01*
X469901Y241299D01*
X469899Y241299D01*
G37*
%LPD*%
%LPC*%
G36*
X469899Y139699D02*
X469899Y139699D01*
X469899Y139701D01*
X469901Y139701D01*
X469901Y139699D01*
X469899Y139699D01*
G37*
%LPD*%
%LPC*%
G36*
X469899Y63499D02*
X469899Y63499D01*
X469899Y63501D01*
X469901Y63501D01*
X469901Y63499D01*
X469899Y63499D01*
G37*
%LPD*%
%LPC*%
G36*
X22129Y527049D02*
X22129Y527049D01*
X22129Y527051D01*
X22131Y527051D01*
X22131Y527049D01*
X22129Y527049D01*
G37*
%LPD*%
%LPC*%
G36*
X469899Y317499D02*
X469899Y317499D01*
X469899Y317501D01*
X469901Y317501D01*
X469901Y317499D01*
X469899Y317499D01*
G37*
%LPD*%
%LPC*%
G36*
X469899Y165099D02*
X469899Y165099D01*
X469899Y165101D01*
X469901Y165101D01*
X469901Y165099D01*
X469899Y165099D01*
G37*
%LPD*%
%LPC*%
G36*
X469899Y215899D02*
X469899Y215899D01*
X469899Y215901D01*
X469901Y215901D01*
X469901Y215899D01*
X469899Y215899D01*
G37*
%LPD*%
%LPC*%
G36*
X469899Y114299D02*
X469899Y114299D01*
X469899Y114301D01*
X469901Y114301D01*
X469901Y114299D01*
X469899Y114299D01*
G37*
%LPD*%
%LPC*%
G36*
X469899Y190499D02*
X469899Y190499D01*
X469899Y190501D01*
X469901Y190501D01*
X469901Y190499D01*
X469899Y190499D01*
G37*
%LPD*%
%LPC*%
G36*
X79429Y107949D02*
X79429Y107949D01*
X79429Y107951D01*
X79431Y107951D01*
X79431Y107949D01*
X79429Y107949D01*
G37*
%LPD*%
%LPC*%
G36*
X41229Y107949D02*
X41229Y107949D01*
X41229Y107951D01*
X41231Y107951D01*
X41231Y107949D01*
X41229Y107949D01*
G37*
%LPD*%
%LPC*%
G36*
X469899Y38099D02*
X469899Y38099D01*
X469899Y38101D01*
X469901Y38101D01*
X469901Y38099D01*
X469899Y38099D01*
G37*
%LPD*%
%LPC*%
G36*
X79429Y336549D02*
X79429Y336549D01*
X79429Y336551D01*
X79431Y336551D01*
X79431Y336549D01*
X79429Y336549D01*
G37*
%LPD*%
%LPC*%
G36*
X469899Y292099D02*
X469899Y292099D01*
X469899Y292101D01*
X469901Y292101D01*
X469901Y292099D01*
X469899Y292099D01*
G37*
%LPD*%
D10*
X495300Y622300D03*
X495300Y596900D03*
X495300Y571500D03*
X495300Y546100D03*
X495300Y520700D03*
X495300Y495300D03*
X495300Y469900D03*
X495300Y444500D03*
X495300Y419100D03*
X469900Y419100D03*
X444500Y419100D03*
X419100Y419100D03*
X393700Y419100D03*
X368300Y419100D03*
X342900Y419100D03*
X342900Y444500D03*
X342900Y469900D03*
X342900Y495300D03*
X342900Y520700D03*
X342900Y546100D03*
X342900Y571500D03*
X342900Y596900D03*
X342900Y622300D03*
X60330Y527050D03*
X79430Y514350D03*
X60330Y501650D03*
X79430Y488950D03*
X60330Y476250D03*
X79430Y463550D03*
X60330Y450850D03*
X79430Y438150D03*
X60330Y425450D03*
X79430Y412750D03*
X60330Y400050D03*
X79430Y387350D03*
X60330Y374650D03*
X79430Y361950D03*
X60330Y349250D03*
X79430Y336550D03*
X60330Y323850D03*
X79430Y311150D03*
X60330Y298450D03*
X79430Y285750D03*
X60330Y273050D03*
X79430Y260350D03*
X60330Y247650D03*
X79430Y234950D03*
X60330Y222250D03*
X79430Y209550D03*
X60330Y196850D03*
X79430Y184150D03*
X60330Y171450D03*
X79430Y158750D03*
X60330Y146050D03*
X79430Y133350D03*
X60330Y120650D03*
X79430Y107950D03*
X22130Y527050D03*
X41230Y514350D03*
X22130Y501650D03*
X41230Y488950D03*
X22130Y476250D03*
X41230Y463550D03*
X22130Y450850D03*
X41230Y438150D03*
X22130Y425450D03*
X41230Y412750D03*
X22130Y400050D03*
X41230Y387350D03*
X22130Y374650D03*
X41230Y361950D03*
X22130Y349250D03*
X41230Y336550D03*
X22130Y323850D03*
X41230Y311150D03*
X22130Y298450D03*
X41230Y285750D03*
X22130Y273050D03*
X41230Y260350D03*
X22130Y247650D03*
X41230Y234950D03*
X22130Y222250D03*
X41230Y209550D03*
X22130Y196850D03*
X41230Y184150D03*
X22130Y171450D03*
X41230Y158750D03*
X22130Y146050D03*
X41230Y133350D03*
X22130Y120650D03*
X41230Y107950D03*
D11*
X469900Y368300D03*
X495300Y368300D03*
X469900Y342900D03*
X495300Y342900D03*
X469900Y317500D03*
X495300Y317500D03*
X469900Y292100D03*
X495300Y292100D03*
X469900Y266700D03*
X495300Y266700D03*
X469900Y241300D03*
X495300Y241300D03*
X469900Y215900D03*
X495300Y215900D03*
X469900Y190500D03*
X495300Y190500D03*
X469900Y165100D03*
X495300Y165100D03*
X469900Y139700D03*
X495300Y139700D03*
X469900Y114300D03*
X495300Y114300D03*
X469900Y88900D03*
X495300Y88900D03*
X469900Y63500D03*
X495300Y63500D03*
X469900Y38100D03*
X495300Y38100D03*
D12*
X577088Y482600D02*
X591312Y482600D01*
X591312Y508000D02*
X577088Y508000D01*
X577088Y533400D02*
X591312Y533400D01*
X591312Y558800D02*
X577088Y558800D01*
D13*
X368300Y571500D03*
X381000Y571500D03*
X393700Y571500D03*
X406400Y571500D03*
X419100Y571500D03*
X431800Y571500D03*
X444500Y571500D03*
X457200Y571500D03*
X469900Y571500D03*
X368300Y558800D03*
X381000Y558800D03*
X393700Y558800D03*
X406400Y558800D03*
X419100Y558800D03*
X431800Y558800D03*
X444500Y558800D03*
X457200Y558800D03*
X469900Y558800D03*
X469900Y546100D03*
X457200Y546100D03*
X444500Y546100D03*
X431800Y546100D03*
X419100Y546100D03*
X406400Y546100D03*
X393700Y546100D03*
X381000Y546100D03*
X368300Y546100D03*
X127000Y101600D03*
X139700Y101600D03*
X152400Y101600D03*
X165100Y101600D03*
X177800Y101600D03*
X190500Y101600D03*
X203200Y101600D03*
X215900Y101600D03*
X228600Y101600D03*
X127000Y88900D03*
X139700Y88900D03*
X152400Y88900D03*
X165100Y88900D03*
X177800Y88900D03*
X190500Y88900D03*
X203200Y88900D03*
X215900Y88900D03*
X228600Y88900D03*
X228600Y76200D03*
X215900Y76200D03*
X203200Y76200D03*
X190500Y76200D03*
X177800Y76200D03*
X165100Y76200D03*
X152400Y76200D03*
X139700Y76200D03*
X127000Y76200D03*
X127000Y571500D03*
X139700Y571500D03*
X152400Y571500D03*
X165100Y571500D03*
X177800Y571500D03*
X190500Y571500D03*
X203200Y571500D03*
X215900Y571500D03*
X228600Y571500D03*
X127000Y558800D03*
X139700Y558800D03*
X152400Y558800D03*
X165100Y558800D03*
X177800Y558800D03*
X190500Y558800D03*
X203200Y558800D03*
X215900Y558800D03*
X228600Y558800D03*
X228600Y546100D03*
X215900Y546100D03*
X203200Y546100D03*
X190500Y546100D03*
X177800Y546100D03*
X165100Y546100D03*
X152400Y546100D03*
X139700Y546100D03*
X127000Y546100D03*
D14*
X285750Y361950D02*
X342900Y419100D01*
X285750Y361950D02*
X79430Y361950D01*
X460502Y511302D02*
X495300Y546100D01*
X192024Y463550D02*
X79430Y463550D01*
X239776Y511302D02*
X460502Y511302D01*
X239776Y511302D02*
X192024Y463550D01*
X495300Y546100D02*
X524764Y516636D01*
X524764Y219964D02*
X495300Y190500D01*
X524764Y219964D02*
X524764Y516636D01*
X482600Y482600D02*
X218977Y482600D01*
X482600Y482600D02*
X495300Y495300D01*
X187227Y450850D02*
X60330Y450850D01*
X187227Y450850D02*
X218977Y482600D01*
X495300Y495300D02*
X519176Y471424D01*
X519176Y265176D02*
X495300Y241300D01*
X519176Y265176D02*
X519176Y471424D01*
X495300Y444500D02*
X495236Y444500D01*
X485942Y453794D01*
X198328Y453794D02*
X182684Y438150D01*
X198328Y453794D02*
X485942Y453794D01*
X182684Y438150D02*
X79430Y438150D01*
X495300Y292100D02*
X513588Y310388D01*
X513588Y426212D02*
X495300Y444500D01*
X513588Y426212D02*
X513588Y310388D01*
X469900Y419100D02*
X456946Y432054D01*
X86932Y425450D02*
X60330Y425450D01*
X86932Y425450D02*
X93536Y432054D01*
X456946Y432054D01*
X469900Y419100D02*
X508000Y381000D01*
X508000Y355600D02*
X495300Y342900D01*
X508000Y355600D02*
X508000Y381000D01*
X495300Y520700D02*
X495187Y520700D01*
X479185Y504698D01*
X237123Y504698D01*
X186681Y454256D01*
X73048Y454256D01*
X63754Y463550D02*
X41230Y463550D01*
X63754Y463550D02*
X73048Y454256D01*
X495300Y215900D02*
X521970Y242570D01*
X521970Y493917D02*
X495187Y520700D01*
X521970Y493917D02*
X521970Y242570D01*
X485902Y460502D02*
X495300Y469900D01*
X485902Y460502D02*
X201084Y460502D01*
X188638Y448056D01*
X44646Y450850D02*
X22130Y450850D01*
X44646Y450850D02*
X53940Y441556D01*
X66398Y441556D01*
X72898Y448056D02*
X188638Y448056D01*
X72898Y448056D02*
X66398Y441556D01*
X495300Y469900D02*
X516382Y448818D01*
X516382Y287782D02*
X495300Y266700D01*
X516382Y287782D02*
X516382Y448818D01*
X495300Y419100D02*
X479194Y435206D01*
X92678Y435206D01*
X86328Y428856D01*
X63500Y438150D02*
X41230Y438150D01*
X72794Y428856D02*
X86328Y428856D01*
X72794Y428856D02*
X63500Y438150D01*
X495300Y419100D02*
X510794Y403606D01*
X510794Y332994D02*
X495300Y317500D01*
X510794Y332994D02*
X510794Y403606D01*
X444500Y419100D02*
X434594Y429006D01*
X94440Y429006D02*
X88090Y422656D01*
X73660Y422656D01*
X67160Y416156D02*
X53998Y416156D01*
X44704Y425450D02*
X22130Y425450D01*
X94440Y429006D02*
X434594Y429006D01*
X73660Y422656D02*
X67160Y416156D01*
X53998Y416156D02*
X44704Y425450D01*
X444500Y419100D02*
X495300Y368300D01*
X482600Y609600D02*
X495300Y622300D01*
X482600Y609600D02*
X329692Y609600D01*
X234442Y514350D02*
X79430Y514350D01*
X234442Y514350D02*
X329692Y609600D01*
X495300Y622300D02*
X530352Y587248D01*
X530352Y174752D02*
X495300Y139700D01*
X530352Y174752D02*
X530352Y587248D01*
X495300Y596900D02*
X482600Y584200D01*
X213360Y488950D02*
X79430Y488950D01*
X308610Y584200D02*
X482600Y584200D01*
X308610Y584200D02*
X213360Y488950D01*
X495300Y596900D02*
X527558Y564642D01*
X527558Y197358D02*
X495300Y165100D01*
X527558Y197358D02*
X527558Y564642D01*
X133350Y158750D02*
X79430Y158750D01*
X133350Y158750D02*
X393700Y419100D01*
X368300Y419100D02*
X120142Y170942D01*
X63754Y158750D02*
X41230Y158750D01*
X75946Y170942D02*
X120142Y170942D01*
X75946Y170942D02*
X63754Y158750D01*
D15*
X59690Y323850D02*
X22130Y323850D01*
M02*
