G04 EAGLE Gerber RS-274X export*
G75*
%MOMM*%
%FSLAX34Y34*%
%LPD*%
%INTop Copper*%
%IPPOS*%
%AMOC8*
5,1,8,0,0,1.08239X$1,22.5*%
G01*
%ADD10C,1.306400*%
%ADD11R,2.540000X2.540000*%
%ADD12P,1.539592X8X292.500000*%
%ADD13C,1.422400*%
%ADD14C,0.650000*%
%ADD15C,0.152400*%
%ADD16C,0.609600*%
%ADD17C,0.508000*%

G36*
X632258Y2004D02*
X632258Y2004D01*
X632277Y2002D01*
X632379Y2024D01*
X632481Y2040D01*
X632498Y2050D01*
X632518Y2054D01*
X632607Y2107D01*
X632698Y2156D01*
X632712Y2170D01*
X632729Y2180D01*
X632796Y2259D01*
X632868Y2334D01*
X632876Y2352D01*
X632889Y2367D01*
X632928Y2463D01*
X632971Y2557D01*
X632973Y2577D01*
X632981Y2595D01*
X632999Y2762D01*
X632999Y632238D01*
X632996Y632258D01*
X632998Y632277D01*
X632976Y632379D01*
X632960Y632481D01*
X632950Y632498D01*
X632946Y632518D01*
X632893Y632607D01*
X632844Y632698D01*
X632830Y632712D01*
X632820Y632729D01*
X632741Y632796D01*
X632666Y632868D01*
X632648Y632876D01*
X632633Y632889D01*
X632537Y632928D01*
X632443Y632971D01*
X632423Y632973D01*
X632405Y632981D01*
X632238Y632999D01*
X2762Y632999D01*
X2742Y632996D01*
X2723Y632998D01*
X2621Y632976D01*
X2519Y632960D01*
X2502Y632950D01*
X2482Y632946D01*
X2393Y632893D01*
X2302Y632844D01*
X2288Y632830D01*
X2271Y632820D01*
X2204Y632741D01*
X2132Y632666D01*
X2124Y632648D01*
X2111Y632633D01*
X2072Y632537D01*
X2029Y632443D01*
X2027Y632423D01*
X2019Y632405D01*
X2001Y632238D01*
X2001Y2762D01*
X2004Y2742D01*
X2002Y2723D01*
X2024Y2621D01*
X2040Y2519D01*
X2050Y2502D01*
X2054Y2482D01*
X2107Y2393D01*
X2156Y2302D01*
X2170Y2288D01*
X2180Y2271D01*
X2259Y2204D01*
X2334Y2132D01*
X2352Y2124D01*
X2367Y2111D01*
X2463Y2072D01*
X2557Y2029D01*
X2577Y2027D01*
X2595Y2019D01*
X2762Y2001D01*
X632238Y2001D01*
X632258Y2004D01*
G37*
%LPC*%
G36*
X491525Y28987D02*
X491525Y28987D01*
X486187Y34325D01*
X486187Y41875D01*
X486881Y42568D01*
X486892Y42584D01*
X486908Y42597D01*
X486944Y42653D01*
X486970Y42680D01*
X486986Y42714D01*
X487024Y42768D01*
X487030Y42787D01*
X487041Y42804D01*
X487057Y42868D01*
X487074Y42903D01*
X487078Y42942D01*
X487097Y43003D01*
X487096Y43023D01*
X487101Y43042D01*
X487096Y43106D01*
X487101Y43148D01*
X487092Y43189D01*
X487090Y43249D01*
X487083Y43267D01*
X487082Y43287D01*
X487058Y43343D01*
X487048Y43388D01*
X487025Y43427D01*
X487006Y43480D01*
X486993Y43495D01*
X486986Y43514D01*
X486938Y43574D01*
X486922Y43599D01*
X486906Y43613D01*
X486881Y43645D01*
X481981Y48544D01*
X481907Y48597D01*
X481838Y48657D01*
X481807Y48669D01*
X481781Y48688D01*
X481694Y48715D01*
X481609Y48749D01*
X481568Y48753D01*
X481546Y48760D01*
X481514Y48759D01*
X481443Y48767D01*
X474722Y48767D01*
X474651Y48756D01*
X474579Y48754D01*
X474530Y48736D01*
X474479Y48728D01*
X474415Y48694D01*
X474348Y48669D01*
X474307Y48637D01*
X474261Y48612D01*
X474212Y48560D01*
X474156Y48516D01*
X474128Y48472D01*
X474092Y48434D01*
X474062Y48369D01*
X474023Y48309D01*
X474010Y48258D01*
X473988Y48211D01*
X473981Y48140D01*
X473963Y48070D01*
X473967Y48018D01*
X473961Y47967D01*
X473977Y47896D01*
X473982Y47825D01*
X474002Y47777D01*
X474014Y47726D01*
X474050Y47665D01*
X474078Y47599D01*
X474123Y47543D01*
X474140Y47515D01*
X474158Y47500D01*
X474183Y47468D01*
X479553Y42098D01*
X479553Y39623D01*
X470662Y39623D01*
X470642Y39620D01*
X470623Y39622D01*
X470521Y39600D01*
X470419Y39583D01*
X470402Y39574D01*
X470382Y39570D01*
X470293Y39517D01*
X470202Y39468D01*
X470188Y39454D01*
X470171Y39444D01*
X470104Y39365D01*
X470033Y39290D01*
X470024Y39272D01*
X470011Y39257D01*
X469973Y39161D01*
X469929Y39067D01*
X469927Y39047D01*
X469919Y39029D01*
X469901Y38862D01*
X469901Y38099D01*
X469899Y38099D01*
X469899Y38862D01*
X469896Y38882D01*
X469898Y38901D01*
X469876Y39003D01*
X469859Y39105D01*
X469850Y39122D01*
X469846Y39142D01*
X469793Y39231D01*
X469744Y39322D01*
X469730Y39336D01*
X469720Y39353D01*
X469641Y39420D01*
X469566Y39491D01*
X469548Y39500D01*
X469533Y39513D01*
X469437Y39552D01*
X469343Y39595D01*
X469323Y39597D01*
X469305Y39605D01*
X469138Y39623D01*
X460247Y39623D01*
X460247Y42098D01*
X465617Y47468D01*
X465659Y47526D01*
X465708Y47578D01*
X465730Y47625D01*
X465760Y47667D01*
X465781Y47736D01*
X465812Y47801D01*
X465817Y47853D01*
X465833Y47903D01*
X465831Y47974D01*
X465839Y48045D01*
X465828Y48096D01*
X465826Y48148D01*
X465802Y48216D01*
X465786Y48286D01*
X465760Y48331D01*
X465742Y48379D01*
X465697Y48435D01*
X465660Y48497D01*
X465621Y48531D01*
X465588Y48571D01*
X465528Y48610D01*
X465473Y48657D01*
X465425Y48676D01*
X465381Y48704D01*
X465312Y48722D01*
X465245Y48749D01*
X465174Y48757D01*
X465143Y48765D01*
X465119Y48763D01*
X465078Y48767D01*
X456358Y48767D01*
X340867Y164258D01*
X340867Y410198D01*
X340848Y410312D01*
X340831Y410429D01*
X340829Y410434D01*
X340828Y410440D01*
X340773Y410543D01*
X340720Y410648D01*
X340715Y410652D01*
X340712Y410658D01*
X340628Y410738D01*
X340544Y410820D01*
X340538Y410824D01*
X340534Y410827D01*
X340517Y410835D01*
X340397Y410901D01*
X338067Y411866D01*
X335666Y414267D01*
X334367Y417403D01*
X334367Y420797D01*
X335666Y423933D01*
X338067Y426334D01*
X341203Y427633D01*
X344597Y427633D01*
X347733Y426334D01*
X350134Y423933D01*
X351433Y420797D01*
X351433Y417403D01*
X350134Y414267D01*
X347733Y411866D01*
X345403Y410901D01*
X345303Y410839D01*
X345203Y410779D01*
X345199Y410775D01*
X345194Y410771D01*
X345119Y410682D01*
X345043Y410592D01*
X345041Y410587D01*
X345037Y410582D01*
X344995Y410473D01*
X344951Y410364D01*
X344950Y410357D01*
X344949Y410352D01*
X344948Y410334D01*
X344933Y410198D01*
X344933Y166257D01*
X344947Y166167D01*
X344955Y166076D01*
X344967Y166047D01*
X344972Y166015D01*
X345015Y165934D01*
X345051Y165850D01*
X345077Y165818D01*
X345088Y165797D01*
X345111Y165775D01*
X345156Y165719D01*
X457819Y53056D01*
X457893Y53003D01*
X457962Y52943D01*
X457993Y52931D01*
X458019Y52912D01*
X458106Y52885D01*
X458191Y52851D01*
X458232Y52847D01*
X458254Y52840D01*
X458286Y52841D01*
X458357Y52833D01*
X465078Y52833D01*
X465149Y52844D01*
X465221Y52846D01*
X465270Y52864D01*
X465321Y52872D01*
X465385Y52906D01*
X465452Y52931D01*
X465493Y52963D01*
X465539Y52988D01*
X465588Y53040D01*
X465644Y53084D01*
X465672Y53128D01*
X465708Y53166D01*
X465738Y53231D01*
X465777Y53291D01*
X465790Y53342D01*
X465812Y53389D01*
X465819Y53460D01*
X465837Y53530D01*
X465833Y53582D01*
X465839Y53633D01*
X465823Y53704D01*
X465818Y53775D01*
X465798Y53823D01*
X465786Y53874D01*
X465750Y53935D01*
X465722Y54001D01*
X465677Y54057D01*
X465660Y54085D01*
X465642Y54100D01*
X465617Y54132D01*
X460247Y59502D01*
X460247Y61977D01*
X469138Y61977D01*
X469158Y61980D01*
X469177Y61978D01*
X469279Y62000D01*
X469381Y62017D01*
X469398Y62026D01*
X469418Y62030D01*
X469507Y62083D01*
X469598Y62132D01*
X469612Y62146D01*
X469629Y62156D01*
X469696Y62235D01*
X469767Y62310D01*
X469776Y62328D01*
X469789Y62343D01*
X469827Y62439D01*
X469871Y62533D01*
X469873Y62553D01*
X469881Y62571D01*
X469899Y62738D01*
X469899Y64262D01*
X469896Y64282D01*
X469898Y64301D01*
X469876Y64403D01*
X469859Y64505D01*
X469850Y64522D01*
X469846Y64542D01*
X469793Y64631D01*
X469744Y64722D01*
X469730Y64736D01*
X469720Y64753D01*
X469641Y64820D01*
X469566Y64891D01*
X469548Y64900D01*
X469533Y64913D01*
X469437Y64952D01*
X469343Y64995D01*
X469323Y64997D01*
X469305Y65005D01*
X469138Y65023D01*
X460247Y65023D01*
X460247Y67498D01*
X465617Y72868D01*
X465659Y72926D01*
X465708Y72978D01*
X465730Y73025D01*
X465760Y73067D01*
X465781Y73136D01*
X465812Y73201D01*
X465817Y73253D01*
X465833Y73303D01*
X465831Y73374D01*
X465839Y73445D01*
X465828Y73496D01*
X465826Y73548D01*
X465802Y73616D01*
X465786Y73686D01*
X465760Y73731D01*
X465742Y73779D01*
X465697Y73835D01*
X465660Y73897D01*
X465621Y73931D01*
X465588Y73971D01*
X465528Y74010D01*
X465473Y74057D01*
X465425Y74076D01*
X465381Y74104D01*
X465312Y74122D01*
X465245Y74149D01*
X465174Y74157D01*
X465143Y74165D01*
X465119Y74163D01*
X465078Y74167D01*
X456358Y74167D01*
X353567Y176958D01*
X353567Y430643D01*
X353553Y430733D01*
X353545Y430824D01*
X353533Y430853D01*
X353528Y430885D01*
X353485Y430966D01*
X353449Y431050D01*
X353423Y431082D01*
X353412Y431103D01*
X353389Y431125D01*
X353344Y431181D01*
X347758Y436768D01*
X347663Y436836D01*
X347569Y436906D01*
X347563Y436908D01*
X347558Y436911D01*
X347447Y436945D01*
X347335Y436982D01*
X347329Y436982D01*
X347323Y436984D01*
X347206Y436981D01*
X347089Y436979D01*
X347082Y436977D01*
X347077Y436977D01*
X347059Y436971D01*
X346928Y436933D01*
X344597Y435967D01*
X341203Y435967D01*
X338067Y437266D01*
X335666Y439667D01*
X334367Y442803D01*
X334367Y446197D01*
X335666Y449333D01*
X338067Y451734D01*
X341203Y453033D01*
X344597Y453033D01*
X347733Y451734D01*
X350134Y449333D01*
X351433Y446197D01*
X351433Y442803D01*
X350467Y440472D01*
X350441Y440358D01*
X350412Y440245D01*
X350413Y440239D01*
X350411Y440233D01*
X350422Y440116D01*
X350431Y440000D01*
X350434Y439994D01*
X350434Y439988D01*
X350482Y439880D01*
X350528Y439773D01*
X350532Y439768D01*
X350534Y439763D01*
X350547Y439749D01*
X350632Y439642D01*
X357633Y432642D01*
X357633Y178957D01*
X357647Y178867D01*
X357655Y178776D01*
X357667Y178747D01*
X357672Y178715D01*
X357715Y178634D01*
X357751Y178550D01*
X357777Y178518D01*
X357788Y178497D01*
X357811Y178475D01*
X357856Y178419D01*
X457819Y78456D01*
X457893Y78403D01*
X457962Y78343D01*
X457993Y78331D01*
X458019Y78312D01*
X458106Y78285D01*
X458191Y78251D01*
X458232Y78247D01*
X458254Y78240D01*
X458286Y78241D01*
X458357Y78233D01*
X465078Y78233D01*
X465149Y78244D01*
X465221Y78246D01*
X465270Y78264D01*
X465321Y78272D01*
X465385Y78306D01*
X465452Y78331D01*
X465493Y78363D01*
X465539Y78388D01*
X465588Y78440D01*
X465644Y78484D01*
X465672Y78528D01*
X465708Y78566D01*
X465738Y78631D01*
X465777Y78691D01*
X465790Y78742D01*
X465812Y78789D01*
X465819Y78860D01*
X465837Y78930D01*
X465833Y78982D01*
X465839Y79033D01*
X465823Y79104D01*
X465818Y79175D01*
X465798Y79223D01*
X465786Y79274D01*
X465750Y79335D01*
X465722Y79401D01*
X465677Y79457D01*
X465660Y79485D01*
X465642Y79500D01*
X465617Y79532D01*
X460247Y84902D01*
X460247Y87377D01*
X469138Y87377D01*
X469158Y87380D01*
X469177Y87378D01*
X469279Y87400D01*
X469381Y87417D01*
X469398Y87426D01*
X469418Y87430D01*
X469507Y87483D01*
X469598Y87532D01*
X469612Y87546D01*
X469629Y87556D01*
X469696Y87635D01*
X469767Y87710D01*
X469776Y87728D01*
X469789Y87743D01*
X469827Y87839D01*
X469871Y87933D01*
X469873Y87953D01*
X469881Y87971D01*
X469899Y88138D01*
X469899Y89662D01*
X469896Y89682D01*
X469898Y89701D01*
X469876Y89803D01*
X469859Y89905D01*
X469850Y89922D01*
X469846Y89942D01*
X469793Y90031D01*
X469744Y90122D01*
X469730Y90136D01*
X469720Y90153D01*
X469641Y90220D01*
X469566Y90291D01*
X469548Y90300D01*
X469533Y90313D01*
X469437Y90352D01*
X469343Y90395D01*
X469323Y90397D01*
X469305Y90405D01*
X469138Y90423D01*
X460247Y90423D01*
X460247Y92898D01*
X465617Y98268D01*
X465659Y98326D01*
X465708Y98378D01*
X465730Y98425D01*
X465760Y98467D01*
X465781Y98536D01*
X465812Y98601D01*
X465817Y98653D01*
X465833Y98703D01*
X465831Y98774D01*
X465839Y98845D01*
X465828Y98896D01*
X465826Y98948D01*
X465802Y99016D01*
X465786Y99086D01*
X465760Y99131D01*
X465742Y99179D01*
X465697Y99235D01*
X465660Y99297D01*
X465621Y99331D01*
X465588Y99371D01*
X465528Y99410D01*
X465473Y99457D01*
X465425Y99476D01*
X465381Y99504D01*
X465312Y99522D01*
X465245Y99549D01*
X465174Y99557D01*
X465143Y99565D01*
X465119Y99563D01*
X465078Y99567D01*
X456358Y99567D01*
X454944Y100981D01*
X367681Y188244D01*
X366267Y189658D01*
X366267Y410198D01*
X366248Y410312D01*
X366231Y410429D01*
X366229Y410434D01*
X366228Y410440D01*
X366173Y410543D01*
X366120Y410648D01*
X366115Y410652D01*
X366112Y410658D01*
X366028Y410738D01*
X365944Y410820D01*
X365938Y410824D01*
X365934Y410827D01*
X365917Y410835D01*
X365797Y410901D01*
X363467Y411866D01*
X361066Y414267D01*
X359767Y417403D01*
X359767Y420797D01*
X361066Y423933D01*
X363467Y426334D01*
X366603Y427633D01*
X369997Y427633D01*
X373133Y426334D01*
X375534Y423933D01*
X376833Y420797D01*
X376833Y417403D01*
X375534Y414267D01*
X373133Y411866D01*
X370803Y410901D01*
X370703Y410839D01*
X370603Y410779D01*
X370599Y410775D01*
X370594Y410771D01*
X370519Y410682D01*
X370443Y410592D01*
X370441Y410587D01*
X370437Y410582D01*
X370395Y410473D01*
X370351Y410364D01*
X370350Y410357D01*
X370349Y410352D01*
X370348Y410334D01*
X370333Y410198D01*
X370333Y191657D01*
X370347Y191567D01*
X370355Y191476D01*
X370367Y191447D01*
X370372Y191415D01*
X370415Y191334D01*
X370451Y191250D01*
X370477Y191218D01*
X370488Y191197D01*
X370511Y191175D01*
X370556Y191119D01*
X457819Y103856D01*
X457893Y103803D01*
X457962Y103743D01*
X457993Y103731D01*
X458019Y103712D01*
X458106Y103685D01*
X458191Y103651D01*
X458232Y103647D01*
X458254Y103640D01*
X458286Y103641D01*
X458357Y103633D01*
X465078Y103633D01*
X465149Y103644D01*
X465221Y103646D01*
X465270Y103664D01*
X465321Y103672D01*
X465385Y103706D01*
X465452Y103731D01*
X465493Y103763D01*
X465539Y103788D01*
X465588Y103840D01*
X465644Y103884D01*
X465672Y103928D01*
X465708Y103966D01*
X465738Y104031D01*
X465777Y104091D01*
X465790Y104142D01*
X465812Y104189D01*
X465819Y104260D01*
X465837Y104330D01*
X465833Y104382D01*
X465839Y104433D01*
X465823Y104504D01*
X465818Y104575D01*
X465798Y104623D01*
X465786Y104674D01*
X465750Y104735D01*
X465722Y104801D01*
X465677Y104857D01*
X465660Y104885D01*
X465642Y104900D01*
X465617Y104932D01*
X460247Y110302D01*
X460247Y112777D01*
X469138Y112777D01*
X469158Y112780D01*
X469177Y112778D01*
X469279Y112800D01*
X469381Y112817D01*
X469398Y112826D01*
X469418Y112830D01*
X469507Y112883D01*
X469598Y112932D01*
X469612Y112946D01*
X469629Y112956D01*
X469696Y113035D01*
X469767Y113110D01*
X469776Y113128D01*
X469789Y113143D01*
X469827Y113239D01*
X469871Y113333D01*
X469873Y113353D01*
X469881Y113371D01*
X469899Y113538D01*
X469899Y115062D01*
X469896Y115082D01*
X469898Y115101D01*
X469876Y115203D01*
X469859Y115305D01*
X469850Y115322D01*
X469846Y115342D01*
X469793Y115431D01*
X469744Y115522D01*
X469730Y115536D01*
X469720Y115553D01*
X469641Y115620D01*
X469566Y115691D01*
X469548Y115700D01*
X469533Y115713D01*
X469437Y115752D01*
X469343Y115795D01*
X469323Y115797D01*
X469305Y115805D01*
X469138Y115823D01*
X460247Y115823D01*
X460247Y118298D01*
X465617Y123668D01*
X465659Y123726D01*
X465708Y123778D01*
X465730Y123825D01*
X465760Y123867D01*
X465781Y123936D01*
X465812Y124001D01*
X465817Y124053D01*
X465833Y124103D01*
X465831Y124174D01*
X465839Y124245D01*
X465828Y124296D01*
X465826Y124348D01*
X465802Y124416D01*
X465786Y124486D01*
X465760Y124531D01*
X465742Y124579D01*
X465697Y124635D01*
X465660Y124697D01*
X465621Y124731D01*
X465588Y124771D01*
X465528Y124810D01*
X465473Y124857D01*
X465425Y124876D01*
X465381Y124904D01*
X465312Y124922D01*
X465245Y124949D01*
X465174Y124957D01*
X465143Y124965D01*
X465119Y124963D01*
X465078Y124967D01*
X456358Y124967D01*
X391667Y189658D01*
X391667Y410198D01*
X391648Y410312D01*
X391631Y410429D01*
X391629Y410434D01*
X391628Y410440D01*
X391573Y410543D01*
X391520Y410648D01*
X391515Y410652D01*
X391512Y410658D01*
X391428Y410738D01*
X391344Y410820D01*
X391338Y410824D01*
X391334Y410827D01*
X391317Y410835D01*
X391197Y410901D01*
X388867Y411866D01*
X386466Y414267D01*
X385167Y417403D01*
X385167Y420797D01*
X386466Y423933D01*
X388867Y426334D01*
X392003Y427633D01*
X395397Y427633D01*
X398533Y426334D01*
X400934Y423933D01*
X402233Y420797D01*
X402233Y417403D01*
X400934Y414267D01*
X398533Y411866D01*
X396203Y410901D01*
X396103Y410839D01*
X396003Y410779D01*
X395999Y410775D01*
X395994Y410771D01*
X395919Y410682D01*
X395843Y410592D01*
X395841Y410587D01*
X395837Y410582D01*
X395795Y410473D01*
X395751Y410364D01*
X395750Y410357D01*
X395749Y410352D01*
X395748Y410334D01*
X395733Y410198D01*
X395733Y191657D01*
X395747Y191567D01*
X395755Y191476D01*
X395767Y191447D01*
X395772Y191415D01*
X395815Y191334D01*
X395851Y191250D01*
X395877Y191218D01*
X395888Y191197D01*
X395911Y191175D01*
X395956Y191119D01*
X457819Y129256D01*
X457893Y129203D01*
X457962Y129143D01*
X457993Y129131D01*
X458019Y129112D01*
X458106Y129085D01*
X458191Y129051D01*
X458232Y129047D01*
X458254Y129040D01*
X458286Y129041D01*
X458357Y129033D01*
X465078Y129033D01*
X465149Y129044D01*
X465221Y129046D01*
X465270Y129064D01*
X465321Y129072D01*
X465385Y129106D01*
X465452Y129131D01*
X465493Y129163D01*
X465539Y129188D01*
X465588Y129240D01*
X465644Y129284D01*
X465672Y129328D01*
X465708Y129366D01*
X465738Y129431D01*
X465777Y129491D01*
X465790Y129542D01*
X465812Y129589D01*
X465819Y129660D01*
X465837Y129730D01*
X465833Y129782D01*
X465839Y129833D01*
X465823Y129904D01*
X465818Y129975D01*
X465798Y130023D01*
X465786Y130074D01*
X465750Y130135D01*
X465722Y130201D01*
X465677Y130257D01*
X465660Y130285D01*
X465642Y130300D01*
X465617Y130332D01*
X460247Y135702D01*
X460247Y138177D01*
X469138Y138177D01*
X469158Y138180D01*
X469177Y138178D01*
X469279Y138200D01*
X469381Y138217D01*
X469398Y138226D01*
X469418Y138230D01*
X469507Y138283D01*
X469598Y138332D01*
X469612Y138346D01*
X469629Y138356D01*
X469696Y138435D01*
X469767Y138510D01*
X469776Y138528D01*
X469789Y138543D01*
X469827Y138639D01*
X469871Y138733D01*
X469873Y138753D01*
X469881Y138771D01*
X469899Y138938D01*
X469899Y139701D01*
X469901Y139701D01*
X469901Y138938D01*
X469904Y138918D01*
X469902Y138899D01*
X469924Y138797D01*
X469941Y138695D01*
X469950Y138678D01*
X469954Y138658D01*
X470007Y138569D01*
X470056Y138478D01*
X470070Y138464D01*
X470080Y138447D01*
X470159Y138380D01*
X470234Y138309D01*
X470252Y138300D01*
X470267Y138287D01*
X470363Y138248D01*
X470457Y138205D01*
X470477Y138203D01*
X470495Y138195D01*
X470662Y138177D01*
X479553Y138177D01*
X479553Y135702D01*
X474183Y130332D01*
X474141Y130274D01*
X474092Y130222D01*
X474070Y130175D01*
X474040Y130133D01*
X474019Y130064D01*
X473988Y129999D01*
X473983Y129947D01*
X473967Y129897D01*
X473969Y129826D01*
X473961Y129755D01*
X473972Y129704D01*
X473974Y129652D01*
X473998Y129584D01*
X474014Y129514D01*
X474040Y129469D01*
X474058Y129421D01*
X474103Y129365D01*
X474140Y129303D01*
X474179Y129269D01*
X474212Y129229D01*
X474272Y129190D01*
X474327Y129143D01*
X474375Y129124D01*
X474419Y129096D01*
X474488Y129078D01*
X474555Y129051D01*
X474626Y129043D01*
X474657Y129035D01*
X474681Y129037D01*
X474722Y129033D01*
X483442Y129033D01*
X489755Y122719D01*
X489772Y122708D01*
X489784Y122692D01*
X489871Y122636D01*
X489955Y122576D01*
X489974Y122570D01*
X489991Y122559D01*
X490091Y122534D01*
X490190Y122503D01*
X490210Y122504D01*
X490229Y122499D01*
X490332Y122507D01*
X490436Y122510D01*
X490455Y122517D01*
X490475Y122518D01*
X490570Y122559D01*
X490667Y122594D01*
X490683Y122607D01*
X490701Y122614D01*
X490832Y122719D01*
X491525Y123413D01*
X499075Y123413D01*
X504413Y118075D01*
X504413Y110525D01*
X499075Y105187D01*
X491525Y105187D01*
X486187Y110525D01*
X486187Y118075D01*
X486881Y118768D01*
X486892Y118784D01*
X486908Y118797D01*
X486964Y118884D01*
X487024Y118968D01*
X487030Y118987D01*
X487041Y119004D01*
X487066Y119104D01*
X487097Y119203D01*
X487096Y119223D01*
X487101Y119242D01*
X487093Y119345D01*
X487090Y119449D01*
X487083Y119467D01*
X487082Y119487D01*
X487041Y119582D01*
X487006Y119680D01*
X486993Y119695D01*
X486986Y119714D01*
X486881Y119845D01*
X481981Y124744D01*
X481907Y124797D01*
X481838Y124857D01*
X481807Y124869D01*
X481781Y124888D01*
X481694Y124915D01*
X481609Y124949D01*
X481568Y124953D01*
X481546Y124960D01*
X481514Y124959D01*
X481443Y124967D01*
X474722Y124967D01*
X474651Y124956D01*
X474579Y124954D01*
X474530Y124936D01*
X474479Y124928D01*
X474415Y124894D01*
X474348Y124869D01*
X474307Y124837D01*
X474261Y124812D01*
X474212Y124760D01*
X474156Y124716D01*
X474128Y124672D01*
X474092Y124634D01*
X474062Y124569D01*
X474023Y124509D01*
X474010Y124458D01*
X473988Y124411D01*
X473981Y124340D01*
X473963Y124270D01*
X473967Y124218D01*
X473961Y124167D01*
X473977Y124096D01*
X473982Y124025D01*
X474002Y123977D01*
X474014Y123926D01*
X474050Y123865D01*
X474078Y123799D01*
X474123Y123743D01*
X474140Y123715D01*
X474158Y123700D01*
X474183Y123668D01*
X479553Y118298D01*
X479553Y115823D01*
X470662Y115823D01*
X470642Y115820D01*
X470623Y115822D01*
X470521Y115800D01*
X470419Y115783D01*
X470402Y115774D01*
X470382Y115770D01*
X470293Y115717D01*
X470202Y115668D01*
X470188Y115654D01*
X470171Y115644D01*
X470104Y115565D01*
X470033Y115490D01*
X470024Y115472D01*
X470011Y115457D01*
X469973Y115361D01*
X469929Y115267D01*
X469927Y115247D01*
X469919Y115229D01*
X469901Y115062D01*
X469901Y113538D01*
X469904Y113518D01*
X469902Y113499D01*
X469924Y113397D01*
X469941Y113295D01*
X469950Y113278D01*
X469954Y113258D01*
X470007Y113169D01*
X470056Y113078D01*
X470070Y113064D01*
X470080Y113047D01*
X470159Y112980D01*
X470234Y112909D01*
X470252Y112900D01*
X470267Y112887D01*
X470363Y112848D01*
X470457Y112805D01*
X470477Y112803D01*
X470495Y112795D01*
X470662Y112777D01*
X479553Y112777D01*
X479553Y110302D01*
X474183Y104932D01*
X474141Y104874D01*
X474092Y104822D01*
X474070Y104775D01*
X474040Y104733D01*
X474019Y104664D01*
X473988Y104599D01*
X473983Y104547D01*
X473967Y104497D01*
X473969Y104426D01*
X473961Y104355D01*
X473972Y104304D01*
X473974Y104252D01*
X473998Y104184D01*
X474014Y104114D01*
X474040Y104069D01*
X474058Y104021D01*
X474103Y103965D01*
X474140Y103903D01*
X474179Y103869D01*
X474212Y103829D01*
X474272Y103790D01*
X474327Y103743D01*
X474375Y103724D01*
X474419Y103696D01*
X474488Y103678D01*
X474555Y103651D01*
X474626Y103643D01*
X474657Y103635D01*
X474681Y103637D01*
X474722Y103633D01*
X483442Y103633D01*
X489755Y97319D01*
X489772Y97308D01*
X489784Y97292D01*
X489871Y97236D01*
X489955Y97176D01*
X489974Y97170D01*
X489991Y97159D01*
X490091Y97134D01*
X490190Y97103D01*
X490210Y97104D01*
X490229Y97099D01*
X490332Y97107D01*
X490436Y97110D01*
X490455Y97117D01*
X490475Y97118D01*
X490570Y97159D01*
X490667Y97194D01*
X490683Y97207D01*
X490701Y97214D01*
X490832Y97319D01*
X491525Y98013D01*
X499075Y98013D01*
X504413Y92675D01*
X504413Y85125D01*
X499075Y79787D01*
X491525Y79787D01*
X486187Y85125D01*
X486187Y92675D01*
X486881Y93368D01*
X486892Y93384D01*
X486908Y93397D01*
X486964Y93484D01*
X487024Y93568D01*
X487030Y93587D01*
X487041Y93604D01*
X487066Y93704D01*
X487097Y93803D01*
X487096Y93823D01*
X487101Y93842D01*
X487093Y93945D01*
X487090Y94049D01*
X487083Y94067D01*
X487082Y94087D01*
X487041Y94182D01*
X487006Y94280D01*
X486993Y94295D01*
X486986Y94314D01*
X486881Y94445D01*
X481981Y99344D01*
X481907Y99397D01*
X481838Y99457D01*
X481807Y99469D01*
X481781Y99488D01*
X481694Y99515D01*
X481609Y99549D01*
X481568Y99553D01*
X481546Y99560D01*
X481514Y99559D01*
X481443Y99567D01*
X474722Y99567D01*
X474651Y99556D01*
X474579Y99554D01*
X474530Y99536D01*
X474479Y99528D01*
X474415Y99494D01*
X474348Y99469D01*
X474307Y99437D01*
X474261Y99412D01*
X474212Y99360D01*
X474156Y99316D01*
X474128Y99272D01*
X474092Y99234D01*
X474062Y99169D01*
X474023Y99109D01*
X474010Y99058D01*
X473988Y99011D01*
X473981Y98940D01*
X473963Y98870D01*
X473967Y98818D01*
X473961Y98767D01*
X473977Y98696D01*
X473982Y98625D01*
X474002Y98577D01*
X474014Y98526D01*
X474050Y98465D01*
X474078Y98399D01*
X474123Y98343D01*
X474140Y98315D01*
X474158Y98300D01*
X474183Y98268D01*
X479553Y92898D01*
X479553Y90423D01*
X470662Y90423D01*
X470642Y90420D01*
X470623Y90422D01*
X470521Y90400D01*
X470419Y90383D01*
X470402Y90374D01*
X470382Y90370D01*
X470293Y90317D01*
X470202Y90268D01*
X470188Y90254D01*
X470171Y90244D01*
X470104Y90165D01*
X470033Y90090D01*
X470024Y90072D01*
X470011Y90057D01*
X469973Y89961D01*
X469929Y89867D01*
X469927Y89847D01*
X469919Y89829D01*
X469901Y89662D01*
X469901Y88138D01*
X469904Y88118D01*
X469902Y88099D01*
X469924Y87997D01*
X469941Y87895D01*
X469950Y87878D01*
X469954Y87858D01*
X470007Y87769D01*
X470056Y87678D01*
X470070Y87664D01*
X470080Y87647D01*
X470159Y87580D01*
X470234Y87509D01*
X470252Y87500D01*
X470267Y87487D01*
X470363Y87448D01*
X470457Y87405D01*
X470477Y87403D01*
X470495Y87395D01*
X470662Y87377D01*
X479553Y87377D01*
X479553Y84902D01*
X474183Y79532D01*
X474141Y79474D01*
X474092Y79422D01*
X474070Y79375D01*
X474040Y79333D01*
X474019Y79264D01*
X473988Y79199D01*
X473983Y79147D01*
X473967Y79097D01*
X473969Y79026D01*
X473961Y78955D01*
X473972Y78904D01*
X473974Y78852D01*
X473998Y78784D01*
X474014Y78714D01*
X474040Y78669D01*
X474058Y78621D01*
X474103Y78565D01*
X474140Y78503D01*
X474179Y78469D01*
X474212Y78429D01*
X474272Y78390D01*
X474327Y78343D01*
X474375Y78324D01*
X474419Y78296D01*
X474488Y78278D01*
X474555Y78251D01*
X474626Y78243D01*
X474657Y78235D01*
X474681Y78237D01*
X474722Y78233D01*
X483442Y78233D01*
X489755Y71919D01*
X489772Y71908D01*
X489784Y71892D01*
X489871Y71836D01*
X489955Y71776D01*
X489974Y71770D01*
X489991Y71759D01*
X490091Y71734D01*
X490190Y71703D01*
X490210Y71704D01*
X490229Y71699D01*
X490332Y71707D01*
X490436Y71710D01*
X490455Y71717D01*
X490475Y71718D01*
X490570Y71759D01*
X490667Y71794D01*
X490683Y71807D01*
X490701Y71814D01*
X490832Y71919D01*
X491525Y72613D01*
X499075Y72613D01*
X504413Y67275D01*
X504413Y59725D01*
X499075Y54387D01*
X491525Y54387D01*
X486187Y59725D01*
X486187Y67275D01*
X486881Y67968D01*
X486892Y67984D01*
X486908Y67997D01*
X486964Y68084D01*
X487024Y68168D01*
X487030Y68187D01*
X487041Y68204D01*
X487066Y68304D01*
X487097Y68403D01*
X487096Y68423D01*
X487101Y68442D01*
X487093Y68545D01*
X487090Y68649D01*
X487083Y68667D01*
X487082Y68687D01*
X487041Y68782D01*
X487006Y68880D01*
X486993Y68895D01*
X486986Y68914D01*
X486881Y69045D01*
X481981Y73944D01*
X481907Y73997D01*
X481838Y74057D01*
X481807Y74069D01*
X481781Y74088D01*
X481694Y74115D01*
X481609Y74149D01*
X481568Y74153D01*
X481546Y74160D01*
X481514Y74159D01*
X481443Y74167D01*
X474722Y74167D01*
X474651Y74156D01*
X474579Y74154D01*
X474530Y74136D01*
X474479Y74128D01*
X474415Y74094D01*
X474348Y74069D01*
X474307Y74037D01*
X474261Y74012D01*
X474212Y73960D01*
X474156Y73916D01*
X474128Y73872D01*
X474092Y73834D01*
X474062Y73769D01*
X474023Y73709D01*
X474010Y73658D01*
X473988Y73611D01*
X473981Y73540D01*
X473963Y73470D01*
X473967Y73418D01*
X473961Y73367D01*
X473977Y73296D01*
X473982Y73225D01*
X474002Y73177D01*
X474014Y73126D01*
X474050Y73065D01*
X474078Y72999D01*
X474123Y72943D01*
X474140Y72915D01*
X474158Y72900D01*
X474183Y72868D01*
X479553Y67498D01*
X479553Y65023D01*
X470662Y65023D01*
X470642Y65020D01*
X470623Y65022D01*
X470521Y65000D01*
X470419Y64983D01*
X470402Y64974D01*
X470382Y64970D01*
X470293Y64917D01*
X470202Y64868D01*
X470188Y64854D01*
X470171Y64844D01*
X470104Y64765D01*
X470033Y64690D01*
X470024Y64672D01*
X470011Y64657D01*
X469973Y64561D01*
X469929Y64467D01*
X469927Y64447D01*
X469919Y64429D01*
X469901Y64262D01*
X469901Y62738D01*
X469904Y62718D01*
X469902Y62699D01*
X469924Y62597D01*
X469941Y62495D01*
X469950Y62478D01*
X469954Y62458D01*
X470007Y62369D01*
X470056Y62278D01*
X470070Y62264D01*
X470080Y62247D01*
X470159Y62180D01*
X470234Y62109D01*
X470252Y62100D01*
X470267Y62087D01*
X470363Y62048D01*
X470457Y62005D01*
X470477Y62003D01*
X470495Y61995D01*
X470662Y61977D01*
X479553Y61977D01*
X479553Y59502D01*
X474183Y54132D01*
X474141Y54074D01*
X474092Y54022D01*
X474070Y53975D01*
X474040Y53933D01*
X474019Y53864D01*
X473988Y53799D01*
X473983Y53747D01*
X473967Y53697D01*
X473969Y53626D01*
X473961Y53555D01*
X473972Y53504D01*
X473974Y53452D01*
X473998Y53384D01*
X474014Y53314D01*
X474040Y53269D01*
X474058Y53221D01*
X474103Y53165D01*
X474140Y53103D01*
X474179Y53069D01*
X474212Y53029D01*
X474272Y52990D01*
X474327Y52943D01*
X474375Y52924D01*
X474419Y52896D01*
X474488Y52878D01*
X474555Y52851D01*
X474626Y52843D01*
X474657Y52835D01*
X474681Y52837D01*
X474722Y52833D01*
X483442Y52833D01*
X489755Y46519D01*
X489772Y46508D01*
X489784Y46492D01*
X489871Y46436D01*
X489955Y46376D01*
X489974Y46370D01*
X489991Y46359D01*
X490091Y46334D01*
X490190Y46303D01*
X490210Y46304D01*
X490229Y46299D01*
X490332Y46307D01*
X490436Y46310D01*
X490455Y46317D01*
X490475Y46318D01*
X490570Y46359D01*
X490667Y46394D01*
X490683Y46407D01*
X490701Y46414D01*
X490832Y46519D01*
X491525Y47213D01*
X499075Y47213D01*
X504413Y41875D01*
X504413Y34325D01*
X499075Y28987D01*
X491525Y28987D01*
G37*
%LPD*%
%LPC*%
G36*
X410175Y54387D02*
X410175Y54387D01*
X406826Y55775D01*
X404263Y58338D01*
X402875Y61687D01*
X402875Y65313D01*
X404263Y68662D01*
X405508Y69908D01*
X405520Y69924D01*
X405535Y69936D01*
X405592Y70024D01*
X405652Y70107D01*
X405658Y70126D01*
X405668Y70143D01*
X405694Y70244D01*
X405724Y70342D01*
X405724Y70362D01*
X405728Y70382D01*
X405720Y70485D01*
X405718Y70588D01*
X405711Y70607D01*
X405709Y70627D01*
X405669Y70722D01*
X405633Y70819D01*
X405621Y70835D01*
X405613Y70853D01*
X405508Y70984D01*
X300481Y176011D01*
X300481Y318063D01*
X300467Y318153D01*
X300459Y318244D01*
X300447Y318274D01*
X300442Y318306D01*
X300399Y318386D01*
X300363Y318470D01*
X300337Y318502D01*
X300326Y318523D01*
X300303Y318545D01*
X300258Y318601D01*
X257554Y361305D01*
X257496Y361347D01*
X257444Y361396D01*
X257397Y361418D01*
X257355Y361449D01*
X257286Y361470D01*
X257221Y361500D01*
X257169Y361506D01*
X257119Y361521D01*
X257048Y361519D01*
X256977Y361527D01*
X256926Y361516D01*
X256874Y361515D01*
X256806Y361490D01*
X256736Y361475D01*
X256691Y361448D01*
X256643Y361430D01*
X256587Y361385D01*
X256525Y361349D01*
X256491Y361309D01*
X256451Y361277D01*
X256412Y361216D01*
X256365Y361162D01*
X256346Y361113D01*
X256318Y361070D01*
X256300Y361000D01*
X256273Y360934D01*
X256265Y360862D01*
X256257Y360831D01*
X256259Y360808D01*
X256255Y360767D01*
X256255Y357184D01*
X255083Y356012D01*
X228025Y356012D01*
X226853Y357184D01*
X226853Y384242D01*
X228025Y385414D01*
X236220Y385414D01*
X236240Y385417D01*
X236259Y385415D01*
X236361Y385437D01*
X236463Y385453D01*
X236480Y385463D01*
X236500Y385467D01*
X236589Y385520D01*
X236680Y385569D01*
X236694Y385583D01*
X236711Y385593D01*
X236778Y385672D01*
X236850Y385747D01*
X236858Y385765D01*
X236871Y385780D01*
X236910Y385876D01*
X236953Y385970D01*
X236955Y385990D01*
X236963Y386008D01*
X236981Y386175D01*
X236981Y471689D01*
X239734Y474442D01*
X334221Y568928D01*
X334289Y569023D01*
X334359Y569117D01*
X334361Y569123D01*
X334364Y569128D01*
X334399Y569240D01*
X334435Y569351D01*
X334435Y569357D01*
X334437Y569363D01*
X334434Y569481D01*
X334433Y569597D01*
X334430Y569604D01*
X334430Y569609D01*
X334424Y569627D01*
X334386Y569758D01*
X334367Y569803D01*
X334367Y573197D01*
X335666Y576333D01*
X338067Y578734D01*
X341203Y580033D01*
X344597Y580033D01*
X345083Y579832D01*
X345149Y579816D01*
X345169Y579808D01*
X345196Y579805D01*
X345197Y579805D01*
X345310Y579776D01*
X345316Y579777D01*
X345322Y579775D01*
X345439Y579786D01*
X345555Y579795D01*
X345561Y579798D01*
X345567Y579798D01*
X345675Y579846D01*
X345782Y579892D01*
X345787Y579896D01*
X345792Y579898D01*
X345806Y579911D01*
X345841Y579940D01*
X345850Y579944D01*
X345860Y579954D01*
X345913Y579997D01*
X351472Y585556D01*
X353927Y588011D01*
X490636Y588011D01*
X490733Y588026D01*
X490830Y588036D01*
X490854Y588046D01*
X490879Y588050D01*
X490965Y588096D01*
X491054Y588136D01*
X491074Y588153D01*
X491097Y588166D01*
X491164Y588236D01*
X491235Y588302D01*
X491248Y588325D01*
X491266Y588344D01*
X491307Y588432D01*
X491354Y588518D01*
X491359Y588543D01*
X491370Y588567D01*
X491380Y588664D01*
X491398Y588760D01*
X491394Y588786D01*
X491397Y588811D01*
X491376Y588906D01*
X491362Y589003D01*
X491350Y589026D01*
X491344Y589052D01*
X491294Y589135D01*
X491250Y589222D01*
X491232Y589241D01*
X491218Y589263D01*
X491144Y589326D01*
X491075Y589394D01*
X491046Y589410D01*
X491031Y589423D01*
X491001Y589435D01*
X490928Y589475D01*
X490467Y589666D01*
X488066Y592067D01*
X486767Y595203D01*
X486767Y598597D01*
X488066Y601733D01*
X490467Y604134D01*
X493603Y605433D01*
X496997Y605433D01*
X500133Y604134D01*
X502534Y601733D01*
X503833Y598597D01*
X503833Y595203D01*
X502534Y592067D01*
X500133Y589666D01*
X499672Y589475D01*
X499589Y589424D01*
X499503Y589378D01*
X499485Y589359D01*
X499463Y589346D01*
X499401Y589271D01*
X499334Y589200D01*
X499323Y589176D01*
X499306Y589156D01*
X499271Y589065D01*
X499230Y588977D01*
X499228Y588951D01*
X499218Y588927D01*
X499214Y588829D01*
X499203Y588733D01*
X499209Y588707D01*
X499208Y588681D01*
X499235Y588587D01*
X499256Y588492D01*
X499269Y588470D01*
X499276Y588445D01*
X499332Y588365D01*
X499382Y588281D01*
X499402Y588264D01*
X499417Y588243D01*
X499494Y588185D01*
X499569Y588121D01*
X499593Y588111D01*
X499614Y588096D01*
X499706Y588066D01*
X499797Y588029D01*
X499829Y588026D01*
X499848Y588020D01*
X499881Y588020D01*
X499964Y588011D01*
X560378Y588011D01*
X580254Y568136D01*
X580327Y568083D01*
X580397Y568023D01*
X580427Y568011D01*
X580453Y567992D01*
X580540Y567965D01*
X580625Y567931D01*
X580666Y567927D01*
X580688Y567920D01*
X580721Y567921D01*
X580792Y567913D01*
X593125Y567913D01*
X596474Y566525D01*
X599037Y563962D01*
X600425Y560613D01*
X600425Y556987D01*
X599037Y553638D01*
X596474Y551075D01*
X593125Y549687D01*
X575275Y549687D01*
X571926Y551075D01*
X569363Y553638D01*
X567975Y556987D01*
X567975Y560613D01*
X569363Y563962D01*
X570967Y565567D01*
X570979Y565583D01*
X570995Y565595D01*
X571025Y565642D01*
X571041Y565659D01*
X571053Y565686D01*
X571111Y565767D01*
X571117Y565786D01*
X571128Y565802D01*
X571153Y565903D01*
X571183Y566002D01*
X571183Y566022D01*
X571188Y566041D01*
X571180Y566144D01*
X571177Y566247D01*
X571170Y566266D01*
X571169Y566286D01*
X571128Y566381D01*
X571093Y566479D01*
X571080Y566494D01*
X571072Y566512D01*
X570967Y566643D01*
X557444Y580166D01*
X557371Y580219D01*
X557301Y580279D01*
X557271Y580291D01*
X557245Y580310D01*
X557158Y580337D01*
X557073Y580371D01*
X557032Y580375D01*
X557010Y580382D01*
X556977Y580381D01*
X556906Y580389D01*
X499964Y580389D01*
X499867Y580374D01*
X499770Y580364D01*
X499746Y580354D01*
X499721Y580350D01*
X499635Y580304D01*
X499546Y580264D01*
X499526Y580247D01*
X499503Y580234D01*
X499436Y580164D01*
X499365Y580098D01*
X499352Y580075D01*
X499334Y580056D01*
X499293Y579968D01*
X499246Y579882D01*
X499241Y579857D01*
X499230Y579833D01*
X499220Y579736D01*
X499202Y579640D01*
X499206Y579614D01*
X499203Y579589D01*
X499224Y579494D01*
X499238Y579397D01*
X499250Y579374D01*
X499256Y579348D01*
X499306Y579265D01*
X499350Y579178D01*
X499368Y579159D01*
X499382Y579137D01*
X499456Y579074D01*
X499525Y579006D01*
X499554Y578990D01*
X499569Y578977D01*
X499599Y578965D01*
X499672Y578925D01*
X500133Y578734D01*
X502534Y576333D01*
X503833Y573197D01*
X503833Y569803D01*
X502534Y566667D01*
X500133Y564266D01*
X496997Y562967D01*
X493603Y562967D01*
X490467Y564266D01*
X488066Y566667D01*
X486767Y569803D01*
X486767Y573197D01*
X488066Y576333D01*
X490467Y578734D01*
X490928Y578925D01*
X491011Y578976D01*
X491097Y579022D01*
X491115Y579041D01*
X491137Y579054D01*
X491199Y579129D01*
X491266Y579200D01*
X491277Y579224D01*
X491294Y579244D01*
X491329Y579335D01*
X491370Y579423D01*
X491372Y579449D01*
X491382Y579473D01*
X491386Y579571D01*
X491397Y579667D01*
X491391Y579693D01*
X491392Y579719D01*
X491365Y579813D01*
X491344Y579908D01*
X491331Y579930D01*
X491324Y579955D01*
X491268Y580035D01*
X491218Y580119D01*
X491198Y580136D01*
X491183Y580157D01*
X491106Y580215D01*
X491031Y580279D01*
X491007Y580289D01*
X490986Y580304D01*
X490894Y580334D01*
X490803Y580371D01*
X490771Y580374D01*
X490752Y580380D01*
X490719Y580380D01*
X490636Y580389D01*
X357399Y580389D01*
X357309Y580375D01*
X357218Y580367D01*
X357188Y580355D01*
X357156Y580350D01*
X357076Y580307D01*
X356992Y580271D01*
X356960Y580245D01*
X356939Y580234D01*
X356917Y580211D01*
X356861Y580166D01*
X351341Y574647D01*
X351273Y574551D01*
X351203Y574458D01*
X351201Y574452D01*
X351198Y574447D01*
X351163Y574335D01*
X351127Y574224D01*
X351127Y574218D01*
X351125Y574212D01*
X351128Y574095D01*
X351129Y573978D01*
X351131Y573971D01*
X351132Y573966D01*
X351138Y573948D01*
X351176Y573817D01*
X351433Y573197D01*
X351433Y569803D01*
X350134Y566667D01*
X347733Y564266D01*
X344597Y562967D01*
X341203Y562967D01*
X341158Y562986D01*
X341094Y563001D01*
X341038Y563024D01*
X340971Y563031D01*
X340931Y563041D01*
X340925Y563041D01*
X340919Y563042D01*
X340893Y563040D01*
X340871Y563042D01*
X340865Y563042D01*
X340794Y563030D01*
X340686Y563022D01*
X340680Y563020D01*
X340674Y563019D01*
X340644Y563006D01*
X340622Y563002D01*
X340551Y562965D01*
X340459Y562926D01*
X340454Y562921D01*
X340449Y562919D01*
X340435Y562906D01*
X340424Y562897D01*
X340405Y562887D01*
X340384Y562865D01*
X340328Y562821D01*
X245842Y468334D01*
X245789Y468260D01*
X245729Y468191D01*
X245717Y468161D01*
X245698Y468134D01*
X245671Y468047D01*
X245637Y467963D01*
X245633Y467922D01*
X245626Y467899D01*
X245627Y467867D01*
X245619Y467796D01*
X245619Y386175D01*
X245622Y386155D01*
X245620Y386136D01*
X245642Y386034D01*
X245658Y385932D01*
X245668Y385915D01*
X245672Y385895D01*
X245725Y385806D01*
X245774Y385715D01*
X245788Y385701D01*
X245798Y385684D01*
X245877Y385617D01*
X245952Y385545D01*
X245970Y385537D01*
X245985Y385524D01*
X246081Y385485D01*
X246175Y385442D01*
X246195Y385440D01*
X246213Y385432D01*
X246380Y385414D01*
X255083Y385414D01*
X256255Y384242D01*
X256255Y375135D01*
X256269Y375045D01*
X256277Y374954D01*
X256289Y374924D01*
X256294Y374892D01*
X256337Y374812D01*
X256373Y374728D01*
X256399Y374696D01*
X256410Y374675D01*
X256433Y374653D01*
X256478Y374597D01*
X258796Y372279D01*
X309119Y321956D01*
X309119Y179904D01*
X309133Y179814D01*
X309141Y179723D01*
X309153Y179693D01*
X309158Y179661D01*
X309201Y179581D01*
X309237Y179497D01*
X309263Y179465D01*
X309274Y179444D01*
X309297Y179422D01*
X309342Y179366D01*
X415872Y72836D01*
X415946Y72783D01*
X416015Y72723D01*
X416045Y72711D01*
X416072Y72692D01*
X416159Y72665D01*
X416243Y72631D01*
X416284Y72627D01*
X416307Y72620D01*
X416339Y72621D01*
X416410Y72613D01*
X428025Y72613D01*
X431374Y71225D01*
X433937Y68662D01*
X435325Y65313D01*
X435325Y61687D01*
X433937Y58338D01*
X431374Y55775D01*
X428025Y54387D01*
X410175Y54387D01*
G37*
%LPD*%
%LPC*%
G36*
X39533Y302617D02*
X39533Y302617D01*
X36397Y303916D01*
X33996Y306317D01*
X32697Y309453D01*
X32697Y312847D01*
X33996Y315983D01*
X36245Y318232D01*
X36286Y318290D01*
X36336Y318342D01*
X36358Y318389D01*
X36388Y318431D01*
X36409Y318500D01*
X36439Y318565D01*
X36445Y318617D01*
X36461Y318667D01*
X36459Y318738D01*
X36467Y318809D01*
X36456Y318860D01*
X36454Y318912D01*
X36430Y318980D01*
X36414Y319050D01*
X36388Y319095D01*
X36370Y319143D01*
X36325Y319199D01*
X36288Y319261D01*
X36249Y319295D01*
X36216Y319335D01*
X36156Y319374D01*
X36101Y319421D01*
X36053Y319440D01*
X36009Y319468D01*
X35940Y319486D01*
X35873Y319513D01*
X35802Y319521D01*
X35771Y319529D01*
X35747Y319527D01*
X35706Y319531D01*
X30086Y319531D01*
X29970Y319512D01*
X29855Y319495D01*
X29849Y319493D01*
X29843Y319492D01*
X29740Y319437D01*
X29635Y319384D01*
X29631Y319379D01*
X29625Y319376D01*
X29546Y319292D01*
X29463Y319208D01*
X29459Y319202D01*
X29456Y319198D01*
X29448Y319181D01*
X29382Y319061D01*
X29364Y319017D01*
X26963Y316616D01*
X23827Y315317D01*
X20433Y315317D01*
X17297Y316616D01*
X14896Y319017D01*
X13597Y322153D01*
X13597Y325547D01*
X14896Y328683D01*
X17297Y331084D01*
X20433Y332383D01*
X23827Y332383D01*
X26963Y331084D01*
X29364Y328683D01*
X29382Y328639D01*
X29443Y328540D01*
X29504Y328439D01*
X29508Y328435D01*
X29512Y328430D01*
X29602Y328355D01*
X29691Y328279D01*
X29696Y328277D01*
X29701Y328273D01*
X29810Y328231D01*
X29919Y328187D01*
X29926Y328186D01*
X29931Y328185D01*
X29949Y328184D01*
X30086Y328169D01*
X34943Y328169D01*
X35013Y328180D01*
X35085Y328182D01*
X35134Y328200D01*
X35185Y328208D01*
X35249Y328242D01*
X35316Y328267D01*
X35357Y328299D01*
X35403Y328324D01*
X35452Y328376D01*
X35508Y328420D01*
X35536Y328464D01*
X35572Y328502D01*
X35602Y328567D01*
X35641Y328627D01*
X35654Y328678D01*
X35676Y328725D01*
X35684Y328796D01*
X35701Y328866D01*
X35697Y328918D01*
X35703Y328969D01*
X35688Y329040D01*
X35682Y329111D01*
X35662Y329159D01*
X35651Y329210D01*
X35614Y329271D01*
X35586Y329337D01*
X35541Y329393D01*
X35524Y329421D01*
X35507Y329436D01*
X35481Y329468D01*
X34183Y330766D01*
X33190Y332252D01*
X32506Y333904D01*
X32283Y335027D01*
X40468Y335027D01*
X40488Y335030D01*
X40507Y335028D01*
X40609Y335050D01*
X40711Y335067D01*
X40728Y335076D01*
X40748Y335080D01*
X40837Y335133D01*
X40928Y335182D01*
X40942Y335196D01*
X40959Y335206D01*
X41026Y335285D01*
X41097Y335360D01*
X41106Y335378D01*
X41119Y335393D01*
X41157Y335489D01*
X41201Y335583D01*
X41203Y335603D01*
X41211Y335621D01*
X41229Y335788D01*
X41229Y336551D01*
X41231Y336551D01*
X41231Y335788D01*
X41234Y335768D01*
X41232Y335749D01*
X41254Y335647D01*
X41271Y335545D01*
X41280Y335528D01*
X41284Y335508D01*
X41337Y335419D01*
X41386Y335328D01*
X41400Y335314D01*
X41410Y335297D01*
X41489Y335230D01*
X41564Y335159D01*
X41582Y335150D01*
X41597Y335137D01*
X41693Y335098D01*
X41787Y335055D01*
X41807Y335053D01*
X41825Y335045D01*
X41992Y335027D01*
X50177Y335027D01*
X49954Y333904D01*
X49270Y332252D01*
X48277Y330766D01*
X46979Y329468D01*
X46937Y329410D01*
X46888Y329358D01*
X46866Y329311D01*
X46835Y329269D01*
X46814Y329200D01*
X46784Y329135D01*
X46778Y329083D01*
X46763Y329033D01*
X46765Y328962D01*
X46757Y328891D01*
X46768Y328840D01*
X46769Y328788D01*
X46794Y328720D01*
X46809Y328650D01*
X46836Y328605D01*
X46854Y328557D01*
X46899Y328501D01*
X46936Y328439D01*
X46975Y328405D01*
X47008Y328365D01*
X47068Y328326D01*
X47122Y328279D01*
X47171Y328260D01*
X47215Y328232D01*
X47284Y328214D01*
X47351Y328187D01*
X47422Y328179D01*
X47453Y328171D01*
X47476Y328173D01*
X47517Y328169D01*
X52374Y328169D01*
X52490Y328188D01*
X52605Y328205D01*
X52611Y328207D01*
X52617Y328208D01*
X52720Y328263D01*
X52825Y328316D01*
X52829Y328321D01*
X52835Y328324D01*
X52914Y328408D01*
X52997Y328492D01*
X53001Y328498D01*
X53004Y328502D01*
X53012Y328519D01*
X53078Y328639D01*
X53096Y328683D01*
X55497Y331084D01*
X58633Y332383D01*
X62027Y332383D01*
X65163Y331084D01*
X67564Y328683D01*
X67582Y328639D01*
X67643Y328540D01*
X67704Y328439D01*
X67708Y328435D01*
X67712Y328430D01*
X67802Y328355D01*
X67891Y328279D01*
X67896Y328277D01*
X67901Y328273D01*
X68010Y328231D01*
X68119Y328187D01*
X68126Y328186D01*
X68131Y328185D01*
X68149Y328184D01*
X68286Y328169D01*
X73143Y328169D01*
X73213Y328180D01*
X73285Y328182D01*
X73334Y328200D01*
X73385Y328208D01*
X73449Y328242D01*
X73516Y328267D01*
X73557Y328299D01*
X73603Y328324D01*
X73652Y328376D01*
X73708Y328420D01*
X73736Y328464D01*
X73772Y328502D01*
X73802Y328567D01*
X73841Y328627D01*
X73854Y328678D01*
X73876Y328725D01*
X73884Y328796D01*
X73901Y328866D01*
X73897Y328918D01*
X73903Y328969D01*
X73888Y329040D01*
X73882Y329111D01*
X73862Y329159D01*
X73851Y329210D01*
X73814Y329271D01*
X73786Y329337D01*
X73741Y329393D01*
X73724Y329421D01*
X73707Y329436D01*
X73681Y329468D01*
X72383Y330766D01*
X71390Y332252D01*
X70706Y333904D01*
X70483Y335027D01*
X78668Y335027D01*
X78688Y335030D01*
X78707Y335028D01*
X78809Y335050D01*
X78911Y335067D01*
X78928Y335076D01*
X78948Y335080D01*
X79037Y335133D01*
X79128Y335182D01*
X79142Y335196D01*
X79159Y335206D01*
X79226Y335285D01*
X79297Y335360D01*
X79306Y335378D01*
X79319Y335393D01*
X79357Y335489D01*
X79401Y335583D01*
X79403Y335603D01*
X79411Y335621D01*
X79429Y335788D01*
X79429Y336551D01*
X79431Y336551D01*
X79431Y335788D01*
X79434Y335768D01*
X79432Y335749D01*
X79454Y335647D01*
X79471Y335545D01*
X79480Y335528D01*
X79484Y335508D01*
X79537Y335419D01*
X79586Y335328D01*
X79600Y335314D01*
X79610Y335297D01*
X79689Y335230D01*
X79764Y335159D01*
X79782Y335150D01*
X79797Y335137D01*
X79893Y335098D01*
X79987Y335055D01*
X80007Y335053D01*
X80025Y335045D01*
X80192Y335027D01*
X88377Y335027D01*
X88154Y333904D01*
X87470Y332252D01*
X86477Y330766D01*
X85179Y329468D01*
X85137Y329410D01*
X85088Y329358D01*
X85066Y329311D01*
X85035Y329269D01*
X85014Y329200D01*
X84984Y329135D01*
X84978Y329083D01*
X84963Y329033D01*
X84965Y328962D01*
X84957Y328891D01*
X84968Y328840D01*
X84969Y328788D01*
X84994Y328720D01*
X85009Y328650D01*
X85036Y328605D01*
X85054Y328557D01*
X85099Y328501D01*
X85136Y328439D01*
X85175Y328405D01*
X85208Y328365D01*
X85268Y328326D01*
X85322Y328279D01*
X85371Y328260D01*
X85415Y328232D01*
X85484Y328214D01*
X85551Y328187D01*
X85622Y328179D01*
X85653Y328171D01*
X85676Y328173D01*
X85717Y328169D01*
X226092Y328169D01*
X226112Y328172D01*
X226131Y328170D01*
X226233Y328192D01*
X226335Y328208D01*
X226352Y328218D01*
X226372Y328222D01*
X226461Y328275D01*
X226552Y328324D01*
X226566Y328338D01*
X226583Y328348D01*
X226650Y328427D01*
X226722Y328502D01*
X226730Y328520D01*
X226743Y328535D01*
X226782Y328631D01*
X226825Y328725D01*
X226827Y328745D01*
X226835Y328763D01*
X226853Y328930D01*
X226853Y337252D01*
X228025Y338424D01*
X255083Y338424D01*
X256255Y337252D01*
X256255Y310194D01*
X255083Y309022D01*
X228025Y309022D01*
X226853Y310194D01*
X226853Y318770D01*
X226850Y318790D01*
X226852Y318809D01*
X226830Y318911D01*
X226814Y319013D01*
X226804Y319030D01*
X226800Y319050D01*
X226747Y319139D01*
X226698Y319230D01*
X226684Y319244D01*
X226674Y319261D01*
X226595Y319328D01*
X226520Y319400D01*
X226502Y319408D01*
X226487Y319421D01*
X226391Y319460D01*
X226297Y319503D01*
X226277Y319505D01*
X226259Y319513D01*
X226092Y319531D01*
X84954Y319531D01*
X84883Y319520D01*
X84811Y319518D01*
X84762Y319500D01*
X84711Y319492D01*
X84648Y319458D01*
X84580Y319433D01*
X84540Y319401D01*
X84494Y319376D01*
X84444Y319324D01*
X84388Y319280D01*
X84360Y319236D01*
X84324Y319198D01*
X84294Y319133D01*
X84255Y319073D01*
X84242Y319022D01*
X84221Y318975D01*
X84213Y318904D01*
X84195Y318834D01*
X84199Y318782D01*
X84193Y318731D01*
X84209Y318660D01*
X84214Y318589D01*
X84235Y318541D01*
X84246Y318490D01*
X84282Y318429D01*
X84311Y318363D01*
X84355Y318307D01*
X84372Y318279D01*
X84390Y318264D01*
X84415Y318232D01*
X86664Y315983D01*
X87963Y312847D01*
X87963Y309453D01*
X86664Y306317D01*
X84263Y303916D01*
X81127Y302617D01*
X77733Y302617D01*
X74597Y303916D01*
X72196Y306317D01*
X70897Y309453D01*
X70897Y312847D01*
X72196Y315983D01*
X74445Y318232D01*
X74486Y318290D01*
X74536Y318342D01*
X74558Y318389D01*
X74588Y318431D01*
X74609Y318500D01*
X74639Y318565D01*
X74645Y318617D01*
X74661Y318667D01*
X74659Y318738D01*
X74667Y318809D01*
X74656Y318860D01*
X74654Y318912D01*
X74630Y318980D01*
X74614Y319050D01*
X74588Y319095D01*
X74570Y319143D01*
X74525Y319199D01*
X74488Y319261D01*
X74449Y319295D01*
X74416Y319335D01*
X74356Y319374D01*
X74301Y319421D01*
X74253Y319440D01*
X74209Y319468D01*
X74140Y319486D01*
X74073Y319513D01*
X74002Y319521D01*
X73971Y319529D01*
X73947Y319527D01*
X73906Y319531D01*
X68286Y319531D01*
X68170Y319512D01*
X68055Y319495D01*
X68049Y319493D01*
X68043Y319492D01*
X67940Y319437D01*
X67835Y319384D01*
X67831Y319379D01*
X67825Y319376D01*
X67746Y319292D01*
X67663Y319208D01*
X67659Y319202D01*
X67656Y319198D01*
X67648Y319181D01*
X67582Y319061D01*
X67564Y319017D01*
X65163Y316616D01*
X62027Y315317D01*
X58633Y315317D01*
X55497Y316616D01*
X53096Y319017D01*
X53078Y319061D01*
X53017Y319160D01*
X52956Y319261D01*
X52952Y319265D01*
X52948Y319270D01*
X52858Y319345D01*
X52769Y319421D01*
X52764Y319423D01*
X52759Y319427D01*
X52650Y319469D01*
X52541Y319513D01*
X52534Y319514D01*
X52529Y319515D01*
X52511Y319516D01*
X52374Y319531D01*
X46754Y319531D01*
X46683Y319520D01*
X46611Y319518D01*
X46562Y319500D01*
X46511Y319492D01*
X46448Y319458D01*
X46380Y319433D01*
X46340Y319401D01*
X46294Y319376D01*
X46244Y319324D01*
X46188Y319280D01*
X46160Y319236D01*
X46124Y319198D01*
X46094Y319133D01*
X46055Y319073D01*
X46042Y319022D01*
X46021Y318975D01*
X46013Y318904D01*
X45995Y318834D01*
X45999Y318782D01*
X45993Y318731D01*
X46009Y318660D01*
X46014Y318589D01*
X46035Y318541D01*
X46046Y318490D01*
X46082Y318429D01*
X46111Y318363D01*
X46155Y318307D01*
X46172Y318279D01*
X46190Y318264D01*
X46215Y318232D01*
X48464Y315983D01*
X49763Y312847D01*
X49763Y309453D01*
X48464Y306317D01*
X46063Y303916D01*
X42927Y302617D01*
X39533Y302617D01*
G37*
%LPD*%
%LPC*%
G36*
X575275Y524287D02*
X575275Y524287D01*
X571926Y525675D01*
X569363Y528238D01*
X568261Y530897D01*
X568199Y530997D01*
X568140Y531097D01*
X568135Y531101D01*
X568132Y531106D01*
X568041Y531181D01*
X567953Y531257D01*
X567947Y531259D01*
X567942Y531263D01*
X567834Y531305D01*
X567725Y531349D01*
X567717Y531350D01*
X567712Y531351D01*
X567694Y531352D01*
X567558Y531367D01*
X354758Y531367D01*
X353344Y532781D01*
X347758Y538368D01*
X347663Y538436D01*
X347569Y538506D01*
X347563Y538508D01*
X347558Y538511D01*
X347447Y538545D01*
X347335Y538582D01*
X347329Y538582D01*
X347323Y538584D01*
X347206Y538581D01*
X347089Y538579D01*
X347082Y538577D01*
X347077Y538577D01*
X347059Y538571D01*
X346928Y538533D01*
X344597Y537567D01*
X341203Y537567D01*
X338067Y538866D01*
X335666Y541267D01*
X334367Y544403D01*
X334367Y547797D01*
X335666Y550933D01*
X338067Y553334D01*
X341203Y554633D01*
X344597Y554633D01*
X347733Y553334D01*
X350134Y550933D01*
X351433Y547797D01*
X351433Y544403D01*
X350467Y542072D01*
X350441Y541958D01*
X350412Y541845D01*
X350413Y541839D01*
X350411Y541833D01*
X350422Y541716D01*
X350431Y541600D01*
X350434Y541594D01*
X350434Y541588D01*
X350482Y541480D01*
X350528Y541373D01*
X350532Y541368D01*
X350534Y541363D01*
X350547Y541349D01*
X350632Y541242D01*
X356219Y535656D01*
X356293Y535603D01*
X356362Y535543D01*
X356393Y535531D01*
X356419Y535512D01*
X356506Y535485D01*
X356591Y535451D01*
X356632Y535447D01*
X356654Y535440D01*
X356686Y535441D01*
X356757Y535433D01*
X567558Y535433D01*
X567673Y535452D01*
X567789Y535469D01*
X567794Y535471D01*
X567801Y535472D01*
X567903Y535527D01*
X568008Y535580D01*
X568012Y535585D01*
X568018Y535588D01*
X568098Y535672D01*
X568180Y535756D01*
X568184Y535762D01*
X568187Y535766D01*
X568195Y535783D01*
X568261Y535903D01*
X569363Y538562D01*
X571926Y541125D01*
X575275Y542513D01*
X593125Y542513D01*
X596474Y541125D01*
X599037Y538562D01*
X600425Y535213D01*
X600425Y531587D01*
X599037Y528238D01*
X596474Y525675D01*
X593125Y524287D01*
X575275Y524287D01*
G37*
%LPD*%
%LPC*%
G36*
X575275Y498887D02*
X575275Y498887D01*
X571926Y500275D01*
X569363Y502838D01*
X568261Y505497D01*
X568199Y505597D01*
X568140Y505697D01*
X568135Y505701D01*
X568132Y505706D01*
X568041Y505781D01*
X567953Y505857D01*
X567947Y505859D01*
X567942Y505863D01*
X567834Y505905D01*
X567725Y505949D01*
X567717Y505950D01*
X567712Y505951D01*
X567694Y505952D01*
X567558Y505967D01*
X354758Y505967D01*
X353344Y507381D01*
X347758Y512968D01*
X347663Y513036D01*
X347569Y513106D01*
X347563Y513108D01*
X347558Y513111D01*
X347447Y513145D01*
X347335Y513182D01*
X347329Y513182D01*
X347323Y513184D01*
X347206Y513181D01*
X347089Y513179D01*
X347082Y513177D01*
X347077Y513177D01*
X347059Y513171D01*
X346928Y513133D01*
X344597Y512167D01*
X341203Y512167D01*
X338067Y513466D01*
X335666Y515867D01*
X334367Y519003D01*
X334367Y522397D01*
X335666Y525533D01*
X338067Y527934D01*
X341203Y529233D01*
X344597Y529233D01*
X347733Y527934D01*
X350134Y525533D01*
X351433Y522397D01*
X351433Y519003D01*
X350467Y516672D01*
X350441Y516558D01*
X350412Y516445D01*
X350413Y516439D01*
X350411Y516433D01*
X350422Y516316D01*
X350431Y516200D01*
X350434Y516194D01*
X350434Y516188D01*
X350482Y516080D01*
X350528Y515973D01*
X350532Y515968D01*
X350534Y515963D01*
X350547Y515949D01*
X350632Y515842D01*
X356219Y510256D01*
X356293Y510203D01*
X356362Y510143D01*
X356393Y510131D01*
X356419Y510112D01*
X356506Y510085D01*
X356591Y510051D01*
X356632Y510047D01*
X356654Y510040D01*
X356686Y510041D01*
X356757Y510033D01*
X567558Y510033D01*
X567673Y510052D01*
X567789Y510069D01*
X567794Y510071D01*
X567801Y510072D01*
X567903Y510127D01*
X568008Y510180D01*
X568012Y510185D01*
X568018Y510188D01*
X568098Y510272D01*
X568180Y510356D01*
X568184Y510362D01*
X568187Y510366D01*
X568195Y510383D01*
X568261Y510503D01*
X569363Y513162D01*
X571926Y515725D01*
X575275Y517113D01*
X593125Y517113D01*
X596474Y515725D01*
X599037Y513162D01*
X600425Y509813D01*
X600425Y506187D01*
X599037Y502838D01*
X596474Y500275D01*
X593125Y498887D01*
X575275Y498887D01*
G37*
%LPD*%
%LPC*%
G36*
X47617Y591049D02*
X47617Y591049D01*
X41736Y593485D01*
X37235Y597986D01*
X34799Y603867D01*
X34799Y610233D01*
X37235Y616114D01*
X41736Y620615D01*
X47617Y623051D01*
X53983Y623051D01*
X59864Y620615D01*
X64365Y616114D01*
X66801Y610233D01*
X66801Y603867D01*
X64365Y597986D01*
X59864Y593485D01*
X53983Y591049D01*
X47617Y591049D01*
G37*
%LPD*%
%LPC*%
G36*
X47617Y11949D02*
X47617Y11949D01*
X41736Y14385D01*
X37235Y18886D01*
X34799Y24767D01*
X34799Y31133D01*
X37235Y37014D01*
X41736Y41515D01*
X47617Y43951D01*
X53983Y43951D01*
X59864Y41515D01*
X64365Y37014D01*
X66801Y31133D01*
X66801Y24767D01*
X64365Y18886D01*
X59864Y14385D01*
X53983Y11949D01*
X47617Y11949D01*
G37*
%LPD*%
%LPC*%
G36*
X581023Y591089D02*
X581023Y591089D01*
X575153Y593521D01*
X570661Y598013D01*
X568229Y603883D01*
X568229Y610237D01*
X570661Y616107D01*
X575153Y620599D01*
X581023Y623031D01*
X587377Y623031D01*
X593247Y620599D01*
X597739Y616107D01*
X600171Y610237D01*
X600171Y603883D01*
X597739Y598013D01*
X593247Y593521D01*
X587377Y591089D01*
X581023Y591089D01*
G37*
%LPD*%
%LPC*%
G36*
X136523Y591089D02*
X136523Y591089D01*
X130653Y593521D01*
X126161Y598013D01*
X123729Y603883D01*
X123729Y610237D01*
X126161Y616107D01*
X130653Y620599D01*
X136523Y623031D01*
X142877Y623031D01*
X148747Y620599D01*
X153239Y616107D01*
X155671Y610237D01*
X155671Y603883D01*
X153239Y598013D01*
X148747Y593521D01*
X142877Y591089D01*
X136523Y591089D01*
G37*
%LPD*%
%LPC*%
G36*
X581023Y11969D02*
X581023Y11969D01*
X575153Y14401D01*
X570661Y18893D01*
X568229Y24763D01*
X568229Y31117D01*
X570661Y36987D01*
X575153Y41479D01*
X581023Y43911D01*
X587377Y43911D01*
X593247Y41479D01*
X597739Y36987D01*
X600171Y31117D01*
X600171Y24763D01*
X597739Y18893D01*
X593247Y14401D01*
X587377Y11969D01*
X581023Y11969D01*
G37*
%LPD*%
%LPC*%
G36*
X136523Y11969D02*
X136523Y11969D01*
X130653Y14401D01*
X126161Y18893D01*
X123729Y24763D01*
X123729Y31117D01*
X126161Y36987D01*
X130653Y41479D01*
X136523Y43911D01*
X142877Y43911D01*
X148747Y41479D01*
X153239Y36987D01*
X155671Y31117D01*
X155671Y24763D01*
X153239Y18893D01*
X148747Y14401D01*
X142877Y11969D01*
X136523Y11969D01*
G37*
%LPD*%
%LPC*%
G36*
X491525Y282987D02*
X491525Y282987D01*
X486187Y288325D01*
X486187Y295875D01*
X491525Y301213D01*
X499075Y301213D01*
X504413Y295875D01*
X504413Y288325D01*
X499075Y282987D01*
X491525Y282987D01*
G37*
%LPD*%
%LPC*%
G36*
X491525Y181387D02*
X491525Y181387D01*
X486187Y186725D01*
X486187Y194275D01*
X491525Y199613D01*
X499075Y199613D01*
X504413Y194275D01*
X504413Y186725D01*
X499075Y181387D01*
X491525Y181387D01*
G37*
%LPD*%
%LPC*%
G36*
X491525Y232187D02*
X491525Y232187D01*
X486187Y237525D01*
X486187Y245075D01*
X491525Y250413D01*
X499075Y250413D01*
X504413Y245075D01*
X504413Y237525D01*
X499075Y232187D01*
X491525Y232187D01*
G37*
%LPD*%
%LPC*%
G36*
X491525Y359187D02*
X491525Y359187D01*
X486187Y364525D01*
X486187Y372075D01*
X491525Y377413D01*
X499075Y377413D01*
X504413Y372075D01*
X504413Y364525D01*
X499075Y359187D01*
X491525Y359187D01*
G37*
%LPD*%
%LPC*%
G36*
X491525Y155987D02*
X491525Y155987D01*
X486187Y161325D01*
X486187Y168875D01*
X491525Y174213D01*
X499075Y174213D01*
X504413Y168875D01*
X504413Y161325D01*
X499075Y155987D01*
X491525Y155987D01*
G37*
%LPD*%
%LPC*%
G36*
X491525Y333787D02*
X491525Y333787D01*
X486187Y339125D01*
X486187Y346675D01*
X491525Y352013D01*
X499075Y352013D01*
X504413Y346675D01*
X504413Y339125D01*
X499075Y333787D01*
X491525Y333787D01*
G37*
%LPD*%
%LPC*%
G36*
X491525Y130587D02*
X491525Y130587D01*
X486187Y135925D01*
X486187Y143475D01*
X491525Y148813D01*
X499075Y148813D01*
X504413Y143475D01*
X504413Y135925D01*
X499075Y130587D01*
X491525Y130587D01*
G37*
%LPD*%
%LPC*%
G36*
X491525Y206787D02*
X491525Y206787D01*
X486187Y212125D01*
X486187Y219675D01*
X491525Y225013D01*
X499075Y225013D01*
X504413Y219675D01*
X504413Y212125D01*
X499075Y206787D01*
X491525Y206787D01*
G37*
%LPD*%
%LPC*%
G36*
X491525Y257587D02*
X491525Y257587D01*
X486187Y262925D01*
X486187Y270475D01*
X491525Y275813D01*
X499075Y275813D01*
X504413Y270475D01*
X504413Y262925D01*
X499075Y257587D01*
X491525Y257587D01*
G37*
%LPD*%
%LPC*%
G36*
X491525Y308387D02*
X491525Y308387D01*
X486187Y313725D01*
X486187Y321275D01*
X491525Y326613D01*
X499075Y326613D01*
X504413Y321275D01*
X504413Y313725D01*
X499075Y308387D01*
X491525Y308387D01*
G37*
%LPD*%
%LPC*%
G36*
X493603Y537567D02*
X493603Y537567D01*
X490467Y538866D01*
X488066Y541267D01*
X486767Y544403D01*
X486767Y547797D01*
X488066Y550933D01*
X490467Y553334D01*
X493603Y554633D01*
X496997Y554633D01*
X500133Y553334D01*
X502534Y550933D01*
X503833Y547797D01*
X503833Y544403D01*
X502534Y541267D01*
X500133Y538866D01*
X496997Y537567D01*
X493603Y537567D01*
G37*
%LPD*%
%LPC*%
G36*
X20433Y137517D02*
X20433Y137517D01*
X17297Y138816D01*
X14896Y141217D01*
X13597Y144353D01*
X13597Y147747D01*
X14896Y150883D01*
X17297Y153284D01*
X20433Y154583D01*
X23827Y154583D01*
X26963Y153284D01*
X29364Y150883D01*
X30663Y147747D01*
X30663Y144353D01*
X29364Y141217D01*
X26963Y138816D01*
X23827Y137517D01*
X20433Y137517D01*
G37*
%LPD*%
%LPC*%
G36*
X58633Y137517D02*
X58633Y137517D01*
X55497Y138816D01*
X53096Y141217D01*
X51797Y144353D01*
X51797Y147747D01*
X53096Y150883D01*
X55497Y153284D01*
X58633Y154583D01*
X62027Y154583D01*
X65163Y153284D01*
X67564Y150883D01*
X68863Y147747D01*
X68863Y144353D01*
X67564Y141217D01*
X65163Y138816D01*
X62027Y137517D01*
X58633Y137517D01*
G37*
%LPD*%
%LPC*%
G36*
X77733Y150217D02*
X77733Y150217D01*
X74597Y151516D01*
X72196Y153917D01*
X70897Y157053D01*
X70897Y160447D01*
X72196Y163583D01*
X74597Y165984D01*
X77733Y167283D01*
X81127Y167283D01*
X84263Y165984D01*
X86664Y163583D01*
X87963Y160447D01*
X87963Y157053D01*
X86664Y153917D01*
X84263Y151516D01*
X81127Y150217D01*
X77733Y150217D01*
G37*
%LPD*%
%LPC*%
G36*
X493603Y512167D02*
X493603Y512167D01*
X490467Y513466D01*
X488066Y515867D01*
X486767Y519003D01*
X486767Y522397D01*
X488066Y525533D01*
X490467Y527934D01*
X493603Y529233D01*
X496997Y529233D01*
X500133Y527934D01*
X502534Y525533D01*
X503833Y522397D01*
X503833Y519003D01*
X502534Y515867D01*
X500133Y513466D01*
X496997Y512167D01*
X493603Y512167D01*
G37*
%LPD*%
%LPC*%
G36*
X39533Y150217D02*
X39533Y150217D01*
X36397Y151516D01*
X33996Y153917D01*
X32697Y157053D01*
X32697Y160447D01*
X33996Y163583D01*
X36397Y165984D01*
X39533Y167283D01*
X42927Y167283D01*
X46063Y165984D01*
X48464Y163583D01*
X49763Y160447D01*
X49763Y157053D01*
X48464Y153917D01*
X46063Y151516D01*
X42927Y150217D01*
X39533Y150217D01*
G37*
%LPD*%
%LPC*%
G36*
X20433Y162917D02*
X20433Y162917D01*
X17297Y164216D01*
X14896Y166617D01*
X13597Y169753D01*
X13597Y173147D01*
X14896Y176283D01*
X17297Y178684D01*
X20433Y179983D01*
X23827Y179983D01*
X26963Y178684D01*
X29364Y176283D01*
X30663Y173147D01*
X30663Y169753D01*
X29364Y166617D01*
X26963Y164216D01*
X23827Y162917D01*
X20433Y162917D01*
G37*
%LPD*%
%LPC*%
G36*
X20433Y442317D02*
X20433Y442317D01*
X17297Y443616D01*
X14896Y446017D01*
X13597Y449153D01*
X13597Y452547D01*
X14896Y455683D01*
X17297Y458084D01*
X20433Y459383D01*
X23827Y459383D01*
X26963Y458084D01*
X29364Y455683D01*
X30663Y452547D01*
X30663Y449153D01*
X29364Y446017D01*
X26963Y443616D01*
X23827Y442317D01*
X20433Y442317D01*
G37*
%LPD*%
%LPC*%
G36*
X58633Y162917D02*
X58633Y162917D01*
X55497Y164216D01*
X53096Y166617D01*
X51797Y169753D01*
X51797Y173147D01*
X53096Y176283D01*
X55497Y178684D01*
X58633Y179983D01*
X62027Y179983D01*
X65163Y178684D01*
X67564Y176283D01*
X68863Y173147D01*
X68863Y169753D01*
X67564Y166617D01*
X65163Y164216D01*
X62027Y162917D01*
X58633Y162917D01*
G37*
%LPD*%
%LPC*%
G36*
X77733Y175617D02*
X77733Y175617D01*
X74597Y176916D01*
X72196Y179317D01*
X70897Y182453D01*
X70897Y185847D01*
X72196Y188983D01*
X74597Y191384D01*
X77733Y192683D01*
X81127Y192683D01*
X84263Y191384D01*
X86664Y188983D01*
X87963Y185847D01*
X87963Y182453D01*
X86664Y179317D01*
X84263Y176916D01*
X81127Y175617D01*
X77733Y175617D01*
G37*
%LPD*%
%LPC*%
G36*
X77733Y505817D02*
X77733Y505817D01*
X74597Y507116D01*
X72196Y509517D01*
X70897Y512653D01*
X70897Y516047D01*
X72196Y519183D01*
X74597Y521584D01*
X77733Y522883D01*
X81127Y522883D01*
X84263Y521584D01*
X86664Y519183D01*
X87963Y516047D01*
X87963Y512653D01*
X86664Y509517D01*
X84263Y507116D01*
X81127Y505817D01*
X77733Y505817D01*
G37*
%LPD*%
%LPC*%
G36*
X39533Y505817D02*
X39533Y505817D01*
X36397Y507116D01*
X33996Y509517D01*
X32697Y512653D01*
X32697Y516047D01*
X33996Y519183D01*
X36397Y521584D01*
X39533Y522883D01*
X42927Y522883D01*
X46063Y521584D01*
X48464Y519183D01*
X49763Y516047D01*
X49763Y512653D01*
X48464Y509517D01*
X46063Y507116D01*
X42927Y505817D01*
X39533Y505817D01*
G37*
%LPD*%
%LPC*%
G36*
X58633Y493117D02*
X58633Y493117D01*
X55497Y494416D01*
X53096Y496817D01*
X51797Y499953D01*
X51797Y503347D01*
X53096Y506483D01*
X55497Y508884D01*
X58633Y510183D01*
X62027Y510183D01*
X65163Y508884D01*
X67564Y506483D01*
X68863Y503347D01*
X68863Y499953D01*
X67564Y496817D01*
X65163Y494416D01*
X62027Y493117D01*
X58633Y493117D01*
G37*
%LPD*%
%LPC*%
G36*
X20433Y493117D02*
X20433Y493117D01*
X17297Y494416D01*
X14896Y496817D01*
X13597Y499953D01*
X13597Y503347D01*
X14896Y506483D01*
X17297Y508884D01*
X20433Y510183D01*
X23827Y510183D01*
X26963Y508884D01*
X29364Y506483D01*
X30663Y503347D01*
X30663Y499953D01*
X29364Y496817D01*
X26963Y494416D01*
X23827Y493117D01*
X20433Y493117D01*
G37*
%LPD*%
%LPC*%
G36*
X493603Y486767D02*
X493603Y486767D01*
X490467Y488066D01*
X488066Y490467D01*
X486767Y493603D01*
X486767Y496997D01*
X488066Y500133D01*
X490467Y502534D01*
X493603Y503833D01*
X496997Y503833D01*
X500133Y502534D01*
X502534Y500133D01*
X503833Y496997D01*
X503833Y493603D01*
X502534Y490467D01*
X500133Y488066D01*
X496997Y486767D01*
X493603Y486767D01*
G37*
%LPD*%
%LPC*%
G36*
X341203Y486767D02*
X341203Y486767D01*
X338067Y488066D01*
X335666Y490467D01*
X334367Y493603D01*
X334367Y496997D01*
X335666Y500133D01*
X338067Y502534D01*
X341203Y503833D01*
X344597Y503833D01*
X347733Y502534D01*
X350134Y500133D01*
X351433Y496997D01*
X351433Y493603D01*
X350134Y490467D01*
X347733Y488066D01*
X344597Y486767D01*
X341203Y486767D01*
G37*
%LPD*%
%LPC*%
G36*
X39533Y480417D02*
X39533Y480417D01*
X36397Y481716D01*
X33996Y484117D01*
X32697Y487253D01*
X32697Y490647D01*
X33996Y493783D01*
X36397Y496184D01*
X39533Y497483D01*
X42927Y497483D01*
X46063Y496184D01*
X48464Y493783D01*
X49763Y490647D01*
X49763Y487253D01*
X48464Y484117D01*
X46063Y481716D01*
X42927Y480417D01*
X39533Y480417D01*
G37*
%LPD*%
%LPC*%
G36*
X77733Y480417D02*
X77733Y480417D01*
X74597Y481716D01*
X72196Y484117D01*
X70897Y487253D01*
X70897Y490647D01*
X72196Y493783D01*
X74597Y496184D01*
X77733Y497483D01*
X81127Y497483D01*
X84263Y496184D01*
X86664Y493783D01*
X87963Y490647D01*
X87963Y487253D01*
X86664Y484117D01*
X84263Y481716D01*
X81127Y480417D01*
X77733Y480417D01*
G37*
%LPD*%
%LPC*%
G36*
X20433Y467717D02*
X20433Y467717D01*
X17297Y469016D01*
X14896Y471417D01*
X13597Y474553D01*
X13597Y477947D01*
X14896Y481083D01*
X17297Y483484D01*
X20433Y484783D01*
X23827Y484783D01*
X26963Y483484D01*
X29364Y481083D01*
X30663Y477947D01*
X30663Y474553D01*
X29364Y471417D01*
X26963Y469016D01*
X23827Y467717D01*
X20433Y467717D01*
G37*
%LPD*%
%LPC*%
G36*
X39533Y175617D02*
X39533Y175617D01*
X36397Y176916D01*
X33996Y179317D01*
X32697Y182453D01*
X32697Y185847D01*
X33996Y188983D01*
X36397Y191384D01*
X39533Y192683D01*
X42927Y192683D01*
X46063Y191384D01*
X48464Y188983D01*
X49763Y185847D01*
X49763Y182453D01*
X48464Y179317D01*
X46063Y176916D01*
X42927Y175617D01*
X39533Y175617D01*
G37*
%LPD*%
%LPC*%
G36*
X493603Y461367D02*
X493603Y461367D01*
X490467Y462666D01*
X488066Y465067D01*
X486767Y468203D01*
X486767Y471597D01*
X488066Y474733D01*
X490467Y477134D01*
X493603Y478433D01*
X496997Y478433D01*
X500133Y477134D01*
X502534Y474733D01*
X503833Y471597D01*
X503833Y468203D01*
X502534Y465067D01*
X500133Y462666D01*
X496997Y461367D01*
X493603Y461367D01*
G37*
%LPD*%
%LPC*%
G36*
X341203Y461367D02*
X341203Y461367D01*
X338067Y462666D01*
X335666Y465067D01*
X334367Y468203D01*
X334367Y471597D01*
X335666Y474733D01*
X338067Y477134D01*
X341203Y478433D01*
X344597Y478433D01*
X347733Y477134D01*
X350134Y474733D01*
X351433Y471597D01*
X351433Y468203D01*
X350134Y465067D01*
X347733Y462666D01*
X344597Y461367D01*
X341203Y461367D01*
G37*
%LPD*%
%LPC*%
G36*
X77733Y455017D02*
X77733Y455017D01*
X74597Y456316D01*
X72196Y458717D01*
X70897Y461853D01*
X70897Y465247D01*
X72196Y468383D01*
X74597Y470784D01*
X77733Y472083D01*
X81127Y472083D01*
X84263Y470784D01*
X86664Y468383D01*
X87963Y465247D01*
X87963Y461853D01*
X86664Y458717D01*
X84263Y456316D01*
X81127Y455017D01*
X77733Y455017D01*
G37*
%LPD*%
%LPC*%
G36*
X39533Y455017D02*
X39533Y455017D01*
X36397Y456316D01*
X33996Y458717D01*
X32697Y461853D01*
X32697Y465247D01*
X33996Y468383D01*
X36397Y470784D01*
X39533Y472083D01*
X42927Y472083D01*
X46063Y470784D01*
X48464Y468383D01*
X49763Y465247D01*
X49763Y461853D01*
X48464Y458717D01*
X46063Y456316D01*
X42927Y455017D01*
X39533Y455017D01*
G37*
%LPD*%
%LPC*%
G36*
X58633Y442317D02*
X58633Y442317D01*
X55497Y443616D01*
X53096Y446017D01*
X51797Y449153D01*
X51797Y452547D01*
X53096Y455683D01*
X55497Y458084D01*
X58633Y459383D01*
X62027Y459383D01*
X65163Y458084D01*
X67564Y455683D01*
X68863Y452547D01*
X68863Y449153D01*
X67564Y446017D01*
X65163Y443616D01*
X62027Y442317D01*
X58633Y442317D01*
G37*
%LPD*%
%LPC*%
G36*
X493603Y435967D02*
X493603Y435967D01*
X490467Y437266D01*
X488066Y439667D01*
X486767Y442803D01*
X486767Y446197D01*
X488066Y449333D01*
X490467Y451734D01*
X493603Y453033D01*
X496997Y453033D01*
X500133Y451734D01*
X502534Y449333D01*
X503833Y446197D01*
X503833Y442803D01*
X502534Y439667D01*
X500133Y437266D01*
X496997Y435967D01*
X493603Y435967D01*
G37*
%LPD*%
%LPC*%
G36*
X58633Y467717D02*
X58633Y467717D01*
X55497Y469016D01*
X53096Y471417D01*
X51797Y474553D01*
X51797Y477947D01*
X53096Y481083D01*
X55497Y483484D01*
X58633Y484783D01*
X62027Y484783D01*
X65163Y483484D01*
X67564Y481083D01*
X68863Y477947D01*
X68863Y474553D01*
X67564Y471417D01*
X65163Y469016D01*
X62027Y467717D01*
X58633Y467717D01*
G37*
%LPD*%
%LPC*%
G36*
X77733Y429617D02*
X77733Y429617D01*
X74597Y430916D01*
X72196Y433317D01*
X70897Y436453D01*
X70897Y439847D01*
X72196Y442983D01*
X74597Y445384D01*
X77733Y446683D01*
X81127Y446683D01*
X84263Y445384D01*
X86664Y442983D01*
X87963Y439847D01*
X87963Y436453D01*
X86664Y433317D01*
X84263Y430916D01*
X81127Y429617D01*
X77733Y429617D01*
G37*
%LPD*%
%LPC*%
G36*
X39533Y429617D02*
X39533Y429617D01*
X36397Y430916D01*
X33996Y433317D01*
X32697Y436453D01*
X32697Y439847D01*
X33996Y442983D01*
X36397Y445384D01*
X39533Y446683D01*
X42927Y446683D01*
X46063Y445384D01*
X48464Y442983D01*
X49763Y439847D01*
X49763Y436453D01*
X48464Y433317D01*
X46063Y430916D01*
X42927Y429617D01*
X39533Y429617D01*
G37*
%LPD*%
%LPC*%
G36*
X20433Y416917D02*
X20433Y416917D01*
X17297Y418216D01*
X14896Y420617D01*
X13597Y423753D01*
X13597Y427147D01*
X14896Y430283D01*
X17297Y432684D01*
X20433Y433983D01*
X23827Y433983D01*
X26963Y432684D01*
X29364Y430283D01*
X30663Y427147D01*
X30663Y423753D01*
X29364Y420617D01*
X26963Y418216D01*
X23827Y416917D01*
X20433Y416917D01*
G37*
%LPD*%
%LPC*%
G36*
X58633Y416917D02*
X58633Y416917D01*
X55497Y418216D01*
X53096Y420617D01*
X51797Y423753D01*
X51797Y427147D01*
X53096Y430283D01*
X55497Y432684D01*
X58633Y433983D01*
X62027Y433983D01*
X65163Y432684D01*
X67564Y430283D01*
X68863Y427147D01*
X68863Y423753D01*
X67564Y420617D01*
X65163Y418216D01*
X62027Y416917D01*
X58633Y416917D01*
G37*
%LPD*%
%LPC*%
G36*
X468203Y410567D02*
X468203Y410567D01*
X465067Y411866D01*
X462666Y414267D01*
X461367Y417403D01*
X461367Y420797D01*
X462666Y423933D01*
X465067Y426334D01*
X468203Y427633D01*
X471597Y427633D01*
X474733Y426334D01*
X477134Y423933D01*
X478433Y420797D01*
X478433Y417403D01*
X477134Y414267D01*
X474733Y411866D01*
X471597Y410567D01*
X468203Y410567D01*
G37*
%LPD*%
%LPC*%
G36*
X493603Y410567D02*
X493603Y410567D01*
X490467Y411866D01*
X488066Y414267D01*
X486767Y417403D01*
X486767Y420797D01*
X488066Y423933D01*
X490467Y426334D01*
X493603Y427633D01*
X496997Y427633D01*
X500133Y426334D01*
X502534Y423933D01*
X503833Y420797D01*
X503833Y417403D01*
X502534Y414267D01*
X500133Y411866D01*
X496997Y410567D01*
X493603Y410567D01*
G37*
%LPD*%
%LPC*%
G36*
X417403Y410567D02*
X417403Y410567D01*
X414267Y411866D01*
X411866Y414267D01*
X410567Y417403D01*
X410567Y420797D01*
X411866Y423933D01*
X414267Y426334D01*
X417403Y427633D01*
X420797Y427633D01*
X423933Y426334D01*
X426334Y423933D01*
X427633Y420797D01*
X427633Y417403D01*
X426334Y414267D01*
X423933Y411866D01*
X420797Y410567D01*
X417403Y410567D01*
G37*
%LPD*%
%LPC*%
G36*
X442803Y410567D02*
X442803Y410567D01*
X439667Y411866D01*
X437266Y414267D01*
X435967Y417403D01*
X435967Y420797D01*
X437266Y423933D01*
X439667Y426334D01*
X442803Y427633D01*
X446197Y427633D01*
X449333Y426334D01*
X451734Y423933D01*
X453033Y420797D01*
X453033Y417403D01*
X451734Y414267D01*
X449333Y411866D01*
X446197Y410567D01*
X442803Y410567D01*
G37*
%LPD*%
%LPC*%
G36*
X77733Y404217D02*
X77733Y404217D01*
X74597Y405516D01*
X72196Y407917D01*
X70897Y411053D01*
X70897Y414447D01*
X72196Y417583D01*
X74597Y419984D01*
X77733Y421283D01*
X81127Y421283D01*
X84263Y419984D01*
X86664Y417583D01*
X87963Y414447D01*
X87963Y411053D01*
X86664Y407917D01*
X84263Y405516D01*
X81127Y404217D01*
X77733Y404217D01*
G37*
%LPD*%
%LPC*%
G36*
X39533Y404217D02*
X39533Y404217D01*
X36397Y405516D01*
X33996Y407917D01*
X32697Y411053D01*
X32697Y414447D01*
X33996Y417583D01*
X36397Y419984D01*
X39533Y421283D01*
X42927Y421283D01*
X46063Y419984D01*
X48464Y417583D01*
X49763Y414447D01*
X49763Y411053D01*
X48464Y407917D01*
X46063Y405516D01*
X42927Y404217D01*
X39533Y404217D01*
G37*
%LPD*%
%LPC*%
G36*
X20433Y391517D02*
X20433Y391517D01*
X17297Y392816D01*
X14896Y395217D01*
X13597Y398353D01*
X13597Y401747D01*
X14896Y404883D01*
X17297Y407284D01*
X20433Y408583D01*
X23827Y408583D01*
X26963Y407284D01*
X29364Y404883D01*
X30663Y401747D01*
X30663Y398353D01*
X29364Y395217D01*
X26963Y392816D01*
X23827Y391517D01*
X20433Y391517D01*
G37*
%LPD*%
%LPC*%
G36*
X58633Y391517D02*
X58633Y391517D01*
X55497Y392816D01*
X53096Y395217D01*
X51797Y398353D01*
X51797Y401747D01*
X53096Y404883D01*
X55497Y407284D01*
X58633Y408583D01*
X62027Y408583D01*
X65163Y407284D01*
X67564Y404883D01*
X68863Y401747D01*
X68863Y398353D01*
X67564Y395217D01*
X65163Y392816D01*
X62027Y391517D01*
X58633Y391517D01*
G37*
%LPD*%
%LPC*%
G36*
X77733Y378817D02*
X77733Y378817D01*
X74597Y380116D01*
X72196Y382517D01*
X70897Y385653D01*
X70897Y389047D01*
X72196Y392183D01*
X74597Y394584D01*
X77733Y395883D01*
X81127Y395883D01*
X84263Y394584D01*
X86664Y392183D01*
X87963Y389047D01*
X87963Y385653D01*
X86664Y382517D01*
X84263Y380116D01*
X81127Y378817D01*
X77733Y378817D01*
G37*
%LPD*%
%LPC*%
G36*
X39533Y378817D02*
X39533Y378817D01*
X36397Y380116D01*
X33996Y382517D01*
X32697Y385653D01*
X32697Y389047D01*
X33996Y392183D01*
X36397Y394584D01*
X39533Y395883D01*
X42927Y395883D01*
X46063Y394584D01*
X48464Y392183D01*
X49763Y389047D01*
X49763Y385653D01*
X48464Y382517D01*
X46063Y380116D01*
X42927Y378817D01*
X39533Y378817D01*
G37*
%LPD*%
%LPC*%
G36*
X20433Y366117D02*
X20433Y366117D01*
X17297Y367416D01*
X14896Y369817D01*
X13597Y372953D01*
X13597Y376347D01*
X14896Y379483D01*
X17297Y381884D01*
X20433Y383183D01*
X23827Y383183D01*
X26963Y381884D01*
X29364Y379483D01*
X30663Y376347D01*
X30663Y372953D01*
X29364Y369817D01*
X26963Y367416D01*
X23827Y366117D01*
X20433Y366117D01*
G37*
%LPD*%
%LPC*%
G36*
X58633Y366117D02*
X58633Y366117D01*
X55497Y367416D01*
X53096Y369817D01*
X51797Y372953D01*
X51797Y376347D01*
X53096Y379483D01*
X55497Y381884D01*
X58633Y383183D01*
X62027Y383183D01*
X65163Y381884D01*
X67564Y379483D01*
X68863Y376347D01*
X68863Y372953D01*
X67564Y369817D01*
X65163Y367416D01*
X62027Y366117D01*
X58633Y366117D01*
G37*
%LPD*%
%LPC*%
G36*
X77733Y124817D02*
X77733Y124817D01*
X74597Y126116D01*
X72196Y128517D01*
X70897Y131653D01*
X70897Y135047D01*
X72196Y138183D01*
X74597Y140584D01*
X77733Y141883D01*
X81127Y141883D01*
X84263Y140584D01*
X86664Y138183D01*
X87963Y135047D01*
X87963Y131653D01*
X86664Y128517D01*
X84263Y126116D01*
X81127Y124817D01*
X77733Y124817D01*
G37*
%LPD*%
%LPC*%
G36*
X20433Y188317D02*
X20433Y188317D01*
X17297Y189616D01*
X14896Y192017D01*
X13597Y195153D01*
X13597Y198547D01*
X14896Y201683D01*
X17297Y204084D01*
X20433Y205383D01*
X23827Y205383D01*
X26963Y204084D01*
X29364Y201683D01*
X30663Y198547D01*
X30663Y195153D01*
X29364Y192017D01*
X26963Y189616D01*
X23827Y188317D01*
X20433Y188317D01*
G37*
%LPD*%
%LPC*%
G36*
X77733Y353417D02*
X77733Y353417D01*
X74597Y354716D01*
X72196Y357117D01*
X70897Y360253D01*
X70897Y363647D01*
X72196Y366783D01*
X74597Y369184D01*
X77733Y370483D01*
X81127Y370483D01*
X84263Y369184D01*
X86664Y366783D01*
X87963Y363647D01*
X87963Y360253D01*
X86664Y357117D01*
X84263Y354716D01*
X81127Y353417D01*
X77733Y353417D01*
G37*
%LPD*%
%LPC*%
G36*
X39533Y353417D02*
X39533Y353417D01*
X36397Y354716D01*
X33996Y357117D01*
X32697Y360253D01*
X32697Y363647D01*
X33996Y366783D01*
X36397Y369184D01*
X39533Y370483D01*
X42927Y370483D01*
X46063Y369184D01*
X48464Y366783D01*
X49763Y363647D01*
X49763Y360253D01*
X48464Y357117D01*
X46063Y354716D01*
X42927Y353417D01*
X39533Y353417D01*
G37*
%LPD*%
%LPC*%
G36*
X58633Y188317D02*
X58633Y188317D01*
X55497Y189616D01*
X53096Y192017D01*
X51797Y195153D01*
X51797Y198547D01*
X53096Y201683D01*
X55497Y204084D01*
X58633Y205383D01*
X62027Y205383D01*
X65163Y204084D01*
X67564Y201683D01*
X68863Y198547D01*
X68863Y195153D01*
X67564Y192017D01*
X65163Y189616D01*
X62027Y188317D01*
X58633Y188317D01*
G37*
%LPD*%
%LPC*%
G36*
X39533Y201017D02*
X39533Y201017D01*
X36397Y202316D01*
X33996Y204717D01*
X32697Y207853D01*
X32697Y211247D01*
X33996Y214383D01*
X36397Y216784D01*
X39533Y218083D01*
X42927Y218083D01*
X46063Y216784D01*
X48464Y214383D01*
X49763Y211247D01*
X49763Y207853D01*
X48464Y204717D01*
X46063Y202316D01*
X42927Y201017D01*
X39533Y201017D01*
G37*
%LPD*%
%LPC*%
G36*
X77733Y201017D02*
X77733Y201017D01*
X74597Y202316D01*
X72196Y204717D01*
X70897Y207853D01*
X70897Y211247D01*
X72196Y214383D01*
X74597Y216784D01*
X77733Y218083D01*
X81127Y218083D01*
X84263Y216784D01*
X86664Y214383D01*
X87963Y211247D01*
X87963Y207853D01*
X86664Y204717D01*
X84263Y202316D01*
X81127Y201017D01*
X77733Y201017D01*
G37*
%LPD*%
%LPC*%
G36*
X20433Y340717D02*
X20433Y340717D01*
X17297Y342016D01*
X14896Y344417D01*
X13597Y347553D01*
X13597Y350947D01*
X14896Y354083D01*
X17297Y356484D01*
X20433Y357783D01*
X23827Y357783D01*
X26963Y356484D01*
X29364Y354083D01*
X30663Y350947D01*
X30663Y347553D01*
X29364Y344417D01*
X26963Y342016D01*
X23827Y340717D01*
X20433Y340717D01*
G37*
%LPD*%
%LPC*%
G36*
X58633Y340717D02*
X58633Y340717D01*
X55497Y342016D01*
X53096Y344417D01*
X51797Y347553D01*
X51797Y350947D01*
X53096Y354083D01*
X55497Y356484D01*
X58633Y357783D01*
X62027Y357783D01*
X65163Y356484D01*
X67564Y354083D01*
X68863Y350947D01*
X68863Y347553D01*
X67564Y344417D01*
X65163Y342016D01*
X62027Y340717D01*
X58633Y340717D01*
G37*
%LPD*%
%LPC*%
G36*
X58633Y213717D02*
X58633Y213717D01*
X55497Y215016D01*
X53096Y217417D01*
X51797Y220553D01*
X51797Y223947D01*
X53096Y227083D01*
X55497Y229484D01*
X58633Y230783D01*
X62027Y230783D01*
X65163Y229484D01*
X67564Y227083D01*
X68863Y223947D01*
X68863Y220553D01*
X67564Y217417D01*
X65163Y215016D01*
X62027Y213717D01*
X58633Y213717D01*
G37*
%LPD*%
%LPC*%
G36*
X20433Y213717D02*
X20433Y213717D01*
X17297Y215016D01*
X14896Y217417D01*
X13597Y220553D01*
X13597Y223947D01*
X14896Y227083D01*
X17297Y229484D01*
X20433Y230783D01*
X23827Y230783D01*
X26963Y229484D01*
X29364Y227083D01*
X30663Y223947D01*
X30663Y220553D01*
X29364Y217417D01*
X26963Y215016D01*
X23827Y213717D01*
X20433Y213717D01*
G37*
%LPD*%
%LPC*%
G36*
X77733Y226417D02*
X77733Y226417D01*
X74597Y227716D01*
X72196Y230117D01*
X70897Y233253D01*
X70897Y236647D01*
X72196Y239783D01*
X74597Y242184D01*
X77733Y243483D01*
X81127Y243483D01*
X84263Y242184D01*
X86664Y239783D01*
X87963Y236647D01*
X87963Y233253D01*
X86664Y230117D01*
X84263Y227716D01*
X81127Y226417D01*
X77733Y226417D01*
G37*
%LPD*%
%LPC*%
G36*
X39533Y226417D02*
X39533Y226417D01*
X36397Y227716D01*
X33996Y230117D01*
X32697Y233253D01*
X32697Y236647D01*
X33996Y239783D01*
X36397Y242184D01*
X39533Y243483D01*
X42927Y243483D01*
X46063Y242184D01*
X48464Y239783D01*
X49763Y236647D01*
X49763Y233253D01*
X48464Y230117D01*
X46063Y227716D01*
X42927Y226417D01*
X39533Y226417D01*
G37*
%LPD*%
%LPC*%
G36*
X58633Y239117D02*
X58633Y239117D01*
X55497Y240416D01*
X53096Y242817D01*
X51797Y245953D01*
X51797Y249347D01*
X53096Y252483D01*
X55497Y254884D01*
X58633Y256183D01*
X62027Y256183D01*
X65163Y254884D01*
X67564Y252483D01*
X68863Y249347D01*
X68863Y245953D01*
X67564Y242817D01*
X65163Y240416D01*
X62027Y239117D01*
X58633Y239117D01*
G37*
%LPD*%
%LPC*%
G36*
X20433Y239117D02*
X20433Y239117D01*
X17297Y240416D01*
X14896Y242817D01*
X13597Y245953D01*
X13597Y249347D01*
X14896Y252483D01*
X17297Y254884D01*
X20433Y256183D01*
X23827Y256183D01*
X26963Y254884D01*
X29364Y252483D01*
X30663Y249347D01*
X30663Y245953D01*
X29364Y242817D01*
X26963Y240416D01*
X23827Y239117D01*
X20433Y239117D01*
G37*
%LPD*%
%LPC*%
G36*
X77733Y251817D02*
X77733Y251817D01*
X74597Y253116D01*
X72196Y255517D01*
X70897Y258653D01*
X70897Y262047D01*
X72196Y265183D01*
X74597Y267584D01*
X77733Y268883D01*
X81127Y268883D01*
X84263Y267584D01*
X86664Y265183D01*
X87963Y262047D01*
X87963Y258653D01*
X86664Y255517D01*
X84263Y253116D01*
X81127Y251817D01*
X77733Y251817D01*
G37*
%LPD*%
%LPC*%
G36*
X39533Y251817D02*
X39533Y251817D01*
X36397Y253116D01*
X33996Y255517D01*
X32697Y258653D01*
X32697Y262047D01*
X33996Y265183D01*
X36397Y267584D01*
X39533Y268883D01*
X42927Y268883D01*
X46063Y267584D01*
X48464Y265183D01*
X49763Y262047D01*
X49763Y258653D01*
X48464Y255517D01*
X46063Y253116D01*
X42927Y251817D01*
X39533Y251817D01*
G37*
%LPD*%
%LPC*%
G36*
X493603Y613767D02*
X493603Y613767D01*
X490467Y615066D01*
X488066Y617467D01*
X486767Y620603D01*
X486767Y623997D01*
X488066Y627133D01*
X490467Y629534D01*
X493603Y630833D01*
X496997Y630833D01*
X500133Y629534D01*
X502534Y627133D01*
X503833Y623997D01*
X503833Y620603D01*
X502534Y617467D01*
X500133Y615066D01*
X496997Y613767D01*
X493603Y613767D01*
G37*
%LPD*%
%LPC*%
G36*
X341203Y613767D02*
X341203Y613767D01*
X338067Y615066D01*
X335666Y617467D01*
X334367Y620603D01*
X334367Y623997D01*
X335666Y627133D01*
X338067Y629534D01*
X341203Y630833D01*
X344597Y630833D01*
X347733Y629534D01*
X350134Y627133D01*
X351433Y623997D01*
X351433Y620603D01*
X350134Y617467D01*
X347733Y615066D01*
X344597Y613767D01*
X341203Y613767D01*
G37*
%LPD*%
%LPC*%
G36*
X58633Y264517D02*
X58633Y264517D01*
X55497Y265816D01*
X53096Y268217D01*
X51797Y271353D01*
X51797Y274747D01*
X53096Y277883D01*
X55497Y280284D01*
X58633Y281583D01*
X62027Y281583D01*
X65163Y280284D01*
X67564Y277883D01*
X68863Y274747D01*
X68863Y271353D01*
X67564Y268217D01*
X65163Y265816D01*
X62027Y264517D01*
X58633Y264517D01*
G37*
%LPD*%
%LPC*%
G36*
X20433Y264517D02*
X20433Y264517D01*
X17297Y265816D01*
X14896Y268217D01*
X13597Y271353D01*
X13597Y274747D01*
X14896Y277883D01*
X17297Y280284D01*
X20433Y281583D01*
X23827Y281583D01*
X26963Y280284D01*
X29364Y277883D01*
X30663Y274747D01*
X30663Y271353D01*
X29364Y268217D01*
X26963Y265816D01*
X23827Y264517D01*
X20433Y264517D01*
G37*
%LPD*%
%LPC*%
G36*
X39533Y277217D02*
X39533Y277217D01*
X36397Y278516D01*
X33996Y280917D01*
X32697Y284053D01*
X32697Y287447D01*
X33996Y290583D01*
X36397Y292984D01*
X39533Y294283D01*
X42927Y294283D01*
X46063Y292984D01*
X48464Y290583D01*
X49763Y287447D01*
X49763Y284053D01*
X48464Y280917D01*
X46063Y278516D01*
X42927Y277217D01*
X39533Y277217D01*
G37*
%LPD*%
%LPC*%
G36*
X77733Y277217D02*
X77733Y277217D01*
X74597Y278516D01*
X72196Y280917D01*
X70897Y284053D01*
X70897Y287447D01*
X72196Y290583D01*
X74597Y292984D01*
X77733Y294283D01*
X81127Y294283D01*
X84263Y292984D01*
X86664Y290583D01*
X87963Y287447D01*
X87963Y284053D01*
X86664Y280917D01*
X84263Y278516D01*
X81127Y277217D01*
X77733Y277217D01*
G37*
%LPD*%
%LPC*%
G36*
X58633Y112117D02*
X58633Y112117D01*
X55497Y113416D01*
X53096Y115817D01*
X51797Y118953D01*
X51797Y122347D01*
X53096Y125483D01*
X55497Y127884D01*
X58633Y129183D01*
X62027Y129183D01*
X65163Y127884D01*
X67564Y125483D01*
X68863Y122347D01*
X68863Y118953D01*
X67564Y115817D01*
X65163Y113416D01*
X62027Y112117D01*
X58633Y112117D01*
G37*
%LPD*%
%LPC*%
G36*
X20433Y112117D02*
X20433Y112117D01*
X17297Y113416D01*
X14896Y115817D01*
X13597Y118953D01*
X13597Y122347D01*
X14896Y125483D01*
X17297Y127884D01*
X20433Y129183D01*
X23827Y129183D01*
X26963Y127884D01*
X29364Y125483D01*
X30663Y122347D01*
X30663Y118953D01*
X29364Y115817D01*
X26963Y113416D01*
X23827Y112117D01*
X20433Y112117D01*
G37*
%LPD*%
%LPC*%
G36*
X39533Y124817D02*
X39533Y124817D01*
X36397Y126116D01*
X33996Y128517D01*
X32697Y131653D01*
X32697Y135047D01*
X33996Y138183D01*
X36397Y140584D01*
X39533Y141883D01*
X42927Y141883D01*
X46063Y140584D01*
X48464Y138183D01*
X49763Y135047D01*
X49763Y131653D01*
X48464Y128517D01*
X46063Y126116D01*
X42927Y124817D01*
X39533Y124817D01*
G37*
%LPD*%
%LPC*%
G36*
X420623Y39623D02*
X420623Y39623D01*
X420623Y47753D01*
X426972Y47753D01*
X428472Y47515D01*
X429917Y47046D01*
X431271Y46356D01*
X432500Y45463D01*
X433575Y44388D01*
X434468Y43159D01*
X435158Y41805D01*
X435627Y40360D01*
X435744Y39623D01*
X420623Y39623D01*
G37*
%LPD*%
%LPC*%
G36*
X585723Y484123D02*
X585723Y484123D01*
X585723Y492253D01*
X592072Y492253D01*
X593572Y492015D01*
X595017Y491546D01*
X596371Y490856D01*
X597600Y489963D01*
X598675Y488888D01*
X599568Y487659D01*
X600258Y486305D01*
X600727Y484860D01*
X600844Y484123D01*
X585723Y484123D01*
G37*
%LPD*%
%LPC*%
G36*
X567556Y484123D02*
X567556Y484123D01*
X567673Y484860D01*
X568142Y486305D01*
X568832Y487659D01*
X569725Y488888D01*
X570800Y489963D01*
X572029Y490856D01*
X573383Y491546D01*
X574828Y492015D01*
X576328Y492253D01*
X582677Y492253D01*
X582677Y484123D01*
X567556Y484123D01*
G37*
%LPD*%
%LPC*%
G36*
X402456Y39623D02*
X402456Y39623D01*
X402573Y40360D01*
X403042Y41805D01*
X403732Y43159D01*
X404625Y44388D01*
X405700Y45463D01*
X406929Y46356D01*
X408283Y47046D01*
X409728Y47515D01*
X411228Y47753D01*
X417577Y47753D01*
X417577Y39623D01*
X402456Y39623D01*
G37*
%LPD*%
%LPC*%
G36*
X585723Y472947D02*
X585723Y472947D01*
X585723Y481077D01*
X600844Y481077D01*
X600727Y480340D01*
X600258Y478895D01*
X599568Y477541D01*
X598675Y476312D01*
X597600Y475237D01*
X596371Y474344D01*
X595017Y473654D01*
X593572Y473185D01*
X592072Y472947D01*
X585723Y472947D01*
G37*
%LPD*%
%LPC*%
G36*
X420623Y28447D02*
X420623Y28447D01*
X420623Y36577D01*
X435744Y36577D01*
X435627Y35840D01*
X435158Y34395D01*
X434468Y33041D01*
X433575Y31812D01*
X432500Y30737D01*
X431271Y29844D01*
X429917Y29154D01*
X428472Y28685D01*
X426972Y28447D01*
X420623Y28447D01*
G37*
%LPD*%
%LPC*%
G36*
X576328Y472947D02*
X576328Y472947D01*
X574828Y473185D01*
X573383Y473654D01*
X572029Y474344D01*
X570800Y475237D01*
X569725Y476312D01*
X568832Y477541D01*
X568142Y478895D01*
X567673Y480340D01*
X567556Y481077D01*
X582677Y481077D01*
X582677Y472947D01*
X576328Y472947D01*
G37*
%LPD*%
%LPC*%
G36*
X411228Y28447D02*
X411228Y28447D01*
X409728Y28685D01*
X408283Y29154D01*
X406929Y29844D01*
X405700Y30737D01*
X404625Y31812D01*
X403732Y33041D01*
X403042Y34395D01*
X402573Y35840D01*
X402456Y36577D01*
X417577Y36577D01*
X417577Y28447D01*
X411228Y28447D01*
G37*
%LPD*%
%LPC*%
G36*
X471423Y319023D02*
X471423Y319023D01*
X471423Y327153D01*
X473898Y327153D01*
X479553Y321498D01*
X479553Y319023D01*
X471423Y319023D01*
G37*
%LPD*%
%LPC*%
G36*
X471423Y293623D02*
X471423Y293623D01*
X471423Y301753D01*
X473898Y301753D01*
X479553Y296098D01*
X479553Y293623D01*
X471423Y293623D01*
G37*
%LPD*%
%LPC*%
G36*
X471423Y192023D02*
X471423Y192023D01*
X471423Y200153D01*
X473898Y200153D01*
X479553Y194498D01*
X479553Y192023D01*
X471423Y192023D01*
G37*
%LPD*%
%LPC*%
G36*
X471423Y242823D02*
X471423Y242823D01*
X471423Y250953D01*
X473898Y250953D01*
X479553Y245298D01*
X479553Y242823D01*
X471423Y242823D01*
G37*
%LPD*%
%LPC*%
G36*
X471423Y344423D02*
X471423Y344423D01*
X471423Y352553D01*
X473898Y352553D01*
X479553Y346898D01*
X479553Y344423D01*
X471423Y344423D01*
G37*
%LPD*%
%LPC*%
G36*
X471423Y141223D02*
X471423Y141223D01*
X471423Y149353D01*
X473898Y149353D01*
X479553Y143698D01*
X479553Y141223D01*
X471423Y141223D01*
G37*
%LPD*%
%LPC*%
G36*
X471423Y369823D02*
X471423Y369823D01*
X471423Y377953D01*
X473898Y377953D01*
X479553Y372298D01*
X479553Y369823D01*
X471423Y369823D01*
G37*
%LPD*%
%LPC*%
G36*
X471423Y166623D02*
X471423Y166623D01*
X471423Y174753D01*
X473898Y174753D01*
X479553Y169098D01*
X479553Y166623D01*
X471423Y166623D01*
G37*
%LPD*%
%LPC*%
G36*
X471423Y268223D02*
X471423Y268223D01*
X471423Y276353D01*
X473898Y276353D01*
X479553Y270698D01*
X479553Y268223D01*
X471423Y268223D01*
G37*
%LPD*%
%LPC*%
G36*
X471423Y217423D02*
X471423Y217423D01*
X471423Y225553D01*
X473898Y225553D01*
X479553Y219898D01*
X479553Y217423D01*
X471423Y217423D01*
G37*
%LPD*%
%LPC*%
G36*
X460247Y293623D02*
X460247Y293623D01*
X460247Y296098D01*
X465902Y301753D01*
X468377Y301753D01*
X468377Y293623D01*
X460247Y293623D01*
G37*
%LPD*%
%LPC*%
G36*
X460247Y369823D02*
X460247Y369823D01*
X460247Y372298D01*
X465902Y377953D01*
X468377Y377953D01*
X468377Y369823D01*
X460247Y369823D01*
G37*
%LPD*%
%LPC*%
G36*
X460247Y192023D02*
X460247Y192023D01*
X460247Y194498D01*
X465902Y200153D01*
X468377Y200153D01*
X468377Y192023D01*
X460247Y192023D01*
G37*
%LPD*%
%LPC*%
G36*
X460247Y242823D02*
X460247Y242823D01*
X460247Y245298D01*
X465902Y250953D01*
X468377Y250953D01*
X468377Y242823D01*
X460247Y242823D01*
G37*
%LPD*%
%LPC*%
G36*
X460247Y141223D02*
X460247Y141223D01*
X460247Y143698D01*
X465902Y149353D01*
X468377Y149353D01*
X468377Y141223D01*
X460247Y141223D01*
G37*
%LPD*%
%LPC*%
G36*
X460247Y268223D02*
X460247Y268223D01*
X460247Y270698D01*
X465902Y276353D01*
X468377Y276353D01*
X468377Y268223D01*
X460247Y268223D01*
G37*
%LPD*%
%LPC*%
G36*
X460247Y319023D02*
X460247Y319023D01*
X460247Y321498D01*
X465902Y327153D01*
X468377Y327153D01*
X468377Y319023D01*
X460247Y319023D01*
G37*
%LPD*%
%LPC*%
G36*
X460247Y344423D02*
X460247Y344423D01*
X460247Y346898D01*
X465902Y352553D01*
X468377Y352553D01*
X468377Y344423D01*
X460247Y344423D01*
G37*
%LPD*%
%LPC*%
G36*
X460247Y217423D02*
X460247Y217423D01*
X460247Y219898D01*
X465902Y225553D01*
X468377Y225553D01*
X468377Y217423D01*
X460247Y217423D01*
G37*
%LPD*%
%LPC*%
G36*
X460247Y166623D02*
X460247Y166623D01*
X460247Y169098D01*
X465902Y174753D01*
X468377Y174753D01*
X468377Y166623D01*
X460247Y166623D01*
G37*
%LPD*%
%LPC*%
G36*
X471423Y155447D02*
X471423Y155447D01*
X471423Y163577D01*
X479553Y163577D01*
X479553Y161102D01*
X473898Y155447D01*
X471423Y155447D01*
G37*
%LPD*%
%LPC*%
G36*
X471423Y257047D02*
X471423Y257047D01*
X471423Y265177D01*
X479553Y265177D01*
X479553Y262702D01*
X473898Y257047D01*
X471423Y257047D01*
G37*
%LPD*%
%LPC*%
G36*
X471423Y231647D02*
X471423Y231647D01*
X471423Y239777D01*
X479553Y239777D01*
X479553Y237302D01*
X473898Y231647D01*
X471423Y231647D01*
G37*
%LPD*%
%LPC*%
G36*
X471423Y307847D02*
X471423Y307847D01*
X471423Y315977D01*
X479553Y315977D01*
X479553Y313502D01*
X473898Y307847D01*
X471423Y307847D01*
G37*
%LPD*%
%LPC*%
G36*
X471423Y358647D02*
X471423Y358647D01*
X471423Y366777D01*
X479553Y366777D01*
X479553Y364302D01*
X473898Y358647D01*
X471423Y358647D01*
G37*
%LPD*%
%LPC*%
G36*
X471423Y180847D02*
X471423Y180847D01*
X471423Y188977D01*
X479553Y188977D01*
X479553Y186502D01*
X473898Y180847D01*
X471423Y180847D01*
G37*
%LPD*%
%LPC*%
G36*
X471423Y282447D02*
X471423Y282447D01*
X471423Y290577D01*
X479553Y290577D01*
X479553Y288102D01*
X473898Y282447D01*
X471423Y282447D01*
G37*
%LPD*%
%LPC*%
G36*
X471423Y206247D02*
X471423Y206247D01*
X471423Y214377D01*
X479553Y214377D01*
X479553Y211902D01*
X473898Y206247D01*
X471423Y206247D01*
G37*
%LPD*%
%LPC*%
G36*
X471423Y28447D02*
X471423Y28447D01*
X471423Y36577D01*
X479553Y36577D01*
X479553Y34102D01*
X473898Y28447D01*
X471423Y28447D01*
G37*
%LPD*%
%LPC*%
G36*
X471423Y333247D02*
X471423Y333247D01*
X471423Y341377D01*
X479553Y341377D01*
X479553Y338902D01*
X473898Y333247D01*
X471423Y333247D01*
G37*
%LPD*%
%LPC*%
G36*
X465902Y206247D02*
X465902Y206247D01*
X460247Y211902D01*
X460247Y214377D01*
X468377Y214377D01*
X468377Y206247D01*
X465902Y206247D01*
G37*
%LPD*%
%LPC*%
G36*
X465902Y180847D02*
X465902Y180847D01*
X460247Y186502D01*
X460247Y188977D01*
X468377Y188977D01*
X468377Y180847D01*
X465902Y180847D01*
G37*
%LPD*%
%LPC*%
G36*
X465902Y307847D02*
X465902Y307847D01*
X460247Y313502D01*
X460247Y315977D01*
X468377Y315977D01*
X468377Y307847D01*
X465902Y307847D01*
G37*
%LPD*%
%LPC*%
G36*
X465902Y282447D02*
X465902Y282447D01*
X460247Y288102D01*
X460247Y290577D01*
X468377Y290577D01*
X468377Y282447D01*
X465902Y282447D01*
G37*
%LPD*%
%LPC*%
G36*
X465902Y155447D02*
X465902Y155447D01*
X460247Y161102D01*
X460247Y163577D01*
X468377Y163577D01*
X468377Y155447D01*
X465902Y155447D01*
G37*
%LPD*%
%LPC*%
G36*
X465902Y358647D02*
X465902Y358647D01*
X460247Y364302D01*
X460247Y366777D01*
X468377Y366777D01*
X468377Y358647D01*
X465902Y358647D01*
G37*
%LPD*%
%LPC*%
G36*
X465902Y231647D02*
X465902Y231647D01*
X460247Y237302D01*
X460247Y239777D01*
X468377Y239777D01*
X468377Y231647D01*
X465902Y231647D01*
G37*
%LPD*%
%LPC*%
G36*
X465902Y333247D02*
X465902Y333247D01*
X460247Y338902D01*
X460247Y341377D01*
X468377Y341377D01*
X468377Y333247D01*
X465902Y333247D01*
G37*
%LPD*%
%LPC*%
G36*
X465902Y257047D02*
X465902Y257047D01*
X460247Y262702D01*
X460247Y265177D01*
X468377Y265177D01*
X468377Y257047D01*
X465902Y257047D01*
G37*
%LPD*%
%LPC*%
G36*
X465902Y28447D02*
X465902Y28447D01*
X460247Y34102D01*
X460247Y36577D01*
X468377Y36577D01*
X468377Y28447D01*
X465902Y28447D01*
G37*
%LPD*%
%LPC*%
G36*
X23653Y299973D02*
X23653Y299973D01*
X23653Y307398D01*
X24776Y307174D01*
X26428Y306490D01*
X27914Y305497D01*
X29177Y304234D01*
X30170Y302748D01*
X30854Y301096D01*
X31078Y299973D01*
X23653Y299973D01*
G37*
%LPD*%
%LPC*%
G36*
X80953Y338073D02*
X80953Y338073D01*
X80953Y345498D01*
X82076Y345274D01*
X83728Y344590D01*
X85214Y343597D01*
X86477Y342334D01*
X87470Y340848D01*
X88154Y339196D01*
X88378Y338073D01*
X80953Y338073D01*
G37*
%LPD*%
%LPC*%
G36*
X23653Y528573D02*
X23653Y528573D01*
X23653Y535998D01*
X24776Y535774D01*
X26428Y535090D01*
X27914Y534097D01*
X29177Y532834D01*
X30170Y531348D01*
X30854Y529696D01*
X31078Y528573D01*
X23653Y528573D01*
G37*
%LPD*%
%LPC*%
G36*
X61853Y528573D02*
X61853Y528573D01*
X61853Y535998D01*
X62976Y535774D01*
X64628Y535090D01*
X66114Y534097D01*
X67377Y532834D01*
X68370Y531348D01*
X69054Y529696D01*
X69278Y528573D01*
X61853Y528573D01*
G37*
%LPD*%
%LPC*%
G36*
X42753Y109473D02*
X42753Y109473D01*
X42753Y116898D01*
X43876Y116674D01*
X45528Y115990D01*
X47014Y114997D01*
X48277Y113734D01*
X49270Y112248D01*
X49954Y110596D01*
X50178Y109473D01*
X42753Y109473D01*
G37*
%LPD*%
%LPC*%
G36*
X80953Y109473D02*
X80953Y109473D01*
X80953Y116898D01*
X82076Y116674D01*
X83728Y115990D01*
X85214Y114997D01*
X86477Y113734D01*
X87470Y112248D01*
X88154Y110596D01*
X88378Y109473D01*
X80953Y109473D01*
G37*
%LPD*%
%LPC*%
G36*
X61853Y299973D02*
X61853Y299973D01*
X61853Y307398D01*
X62976Y307174D01*
X64628Y306490D01*
X66114Y305497D01*
X67377Y304234D01*
X68370Y302748D01*
X69054Y301096D01*
X69278Y299973D01*
X61853Y299973D01*
G37*
%LPD*%
%LPC*%
G36*
X344423Y598423D02*
X344423Y598423D01*
X344423Y605848D01*
X345546Y605624D01*
X347198Y604940D01*
X348684Y603947D01*
X349947Y602684D01*
X350940Y601198D01*
X351624Y599546D01*
X351848Y598423D01*
X344423Y598423D01*
G37*
%LPD*%
%LPC*%
G36*
X42753Y338073D02*
X42753Y338073D01*
X42753Y345498D01*
X43876Y345274D01*
X45528Y344590D01*
X47014Y343597D01*
X48277Y342334D01*
X49270Y340848D01*
X49954Y339196D01*
X50178Y338073D01*
X42753Y338073D01*
G37*
%LPD*%
%LPC*%
G36*
X51382Y299973D02*
X51382Y299973D01*
X51606Y301096D01*
X52290Y302748D01*
X53283Y304234D01*
X54546Y305497D01*
X56032Y306490D01*
X57684Y307174D01*
X58807Y307397D01*
X58807Y299973D01*
X51382Y299973D01*
G37*
%LPD*%
%LPC*%
G36*
X61853Y525527D02*
X61853Y525527D01*
X69277Y525527D01*
X69054Y524404D01*
X68370Y522752D01*
X67377Y521266D01*
X66114Y520003D01*
X64628Y519010D01*
X62976Y518326D01*
X61853Y518102D01*
X61853Y525527D01*
G37*
%LPD*%
%LPC*%
G36*
X344423Y595377D02*
X344423Y595377D01*
X351847Y595377D01*
X351624Y594254D01*
X350940Y592602D01*
X349947Y591116D01*
X348684Y589853D01*
X347198Y588860D01*
X345546Y588176D01*
X344423Y587952D01*
X344423Y595377D01*
G37*
%LPD*%
%LPC*%
G36*
X61853Y296927D02*
X61853Y296927D01*
X69277Y296927D01*
X69054Y295804D01*
X68370Y294152D01*
X67377Y292666D01*
X66114Y291403D01*
X64628Y290410D01*
X62976Y289726D01*
X61853Y289502D01*
X61853Y296927D01*
G37*
%LPD*%
%LPC*%
G36*
X42753Y106427D02*
X42753Y106427D01*
X50177Y106427D01*
X49954Y105304D01*
X49270Y103652D01*
X48277Y102166D01*
X47014Y100903D01*
X45528Y99910D01*
X43876Y99226D01*
X42753Y99002D01*
X42753Y106427D01*
G37*
%LPD*%
%LPC*%
G36*
X32282Y109473D02*
X32282Y109473D01*
X32506Y110596D01*
X33190Y112248D01*
X34183Y113734D01*
X35446Y114997D01*
X36932Y115990D01*
X38584Y116674D01*
X39707Y116897D01*
X39707Y109473D01*
X32282Y109473D01*
G37*
%LPD*%
%LPC*%
G36*
X70482Y109473D02*
X70482Y109473D01*
X70706Y110596D01*
X71390Y112248D01*
X72383Y113734D01*
X73646Y114997D01*
X75132Y115990D01*
X76784Y116674D01*
X77907Y116897D01*
X77907Y109473D01*
X70482Y109473D01*
G37*
%LPD*%
%LPC*%
G36*
X51382Y528573D02*
X51382Y528573D01*
X51606Y529696D01*
X52290Y531348D01*
X53283Y532834D01*
X54546Y534097D01*
X56032Y535090D01*
X57684Y535774D01*
X58807Y535997D01*
X58807Y528573D01*
X51382Y528573D01*
G37*
%LPD*%
%LPC*%
G36*
X333952Y598423D02*
X333952Y598423D01*
X334176Y599546D01*
X334860Y601198D01*
X335853Y602684D01*
X337116Y603947D01*
X338602Y604940D01*
X340254Y605624D01*
X341377Y605847D01*
X341377Y598423D01*
X333952Y598423D01*
G37*
%LPD*%
%LPC*%
G36*
X23653Y525527D02*
X23653Y525527D01*
X31077Y525527D01*
X30854Y524404D01*
X30170Y522752D01*
X29177Y521266D01*
X27914Y520003D01*
X26428Y519010D01*
X24776Y518326D01*
X23653Y518102D01*
X23653Y525527D01*
G37*
%LPD*%
%LPC*%
G36*
X13182Y299973D02*
X13182Y299973D01*
X13406Y301096D01*
X14090Y302748D01*
X15083Y304234D01*
X16346Y305497D01*
X17832Y306490D01*
X19484Y307174D01*
X20607Y307397D01*
X20607Y299973D01*
X13182Y299973D01*
G37*
%LPD*%
%LPC*%
G36*
X13182Y528573D02*
X13182Y528573D01*
X13406Y529696D01*
X14090Y531348D01*
X15083Y532834D01*
X16346Y534097D01*
X17832Y535090D01*
X19484Y535774D01*
X20607Y535997D01*
X20607Y528573D01*
X13182Y528573D01*
G37*
%LPD*%
%LPC*%
G36*
X70482Y338073D02*
X70482Y338073D01*
X70706Y339196D01*
X71390Y340848D01*
X72383Y342334D01*
X73646Y343597D01*
X75132Y344590D01*
X76784Y345274D01*
X77907Y345497D01*
X77907Y338073D01*
X70482Y338073D01*
G37*
%LPD*%
%LPC*%
G36*
X32282Y338073D02*
X32282Y338073D01*
X32506Y339196D01*
X33190Y340848D01*
X34183Y342334D01*
X35446Y343597D01*
X36932Y344590D01*
X38584Y345274D01*
X39707Y345497D01*
X39707Y338073D01*
X32282Y338073D01*
G37*
%LPD*%
%LPC*%
G36*
X23653Y296927D02*
X23653Y296927D01*
X31077Y296927D01*
X30854Y295804D01*
X30170Y294152D01*
X29177Y292666D01*
X27914Y291403D01*
X26428Y290410D01*
X24776Y289726D01*
X23653Y289502D01*
X23653Y296927D01*
G37*
%LPD*%
%LPC*%
G36*
X80953Y106427D02*
X80953Y106427D01*
X88377Y106427D01*
X88154Y105304D01*
X87470Y103652D01*
X86477Y102166D01*
X85214Y100903D01*
X83728Y99910D01*
X82076Y99226D01*
X80953Y99002D01*
X80953Y106427D01*
G37*
%LPD*%
%LPC*%
G36*
X57684Y289726D02*
X57684Y289726D01*
X56032Y290410D01*
X54546Y291403D01*
X53283Y292666D01*
X52290Y294152D01*
X51606Y295804D01*
X51383Y296927D01*
X58807Y296927D01*
X58807Y289503D01*
X57684Y289726D01*
G37*
%LPD*%
%LPC*%
G36*
X19484Y289726D02*
X19484Y289726D01*
X17832Y290410D01*
X16346Y291403D01*
X15083Y292666D01*
X14090Y294152D01*
X13406Y295804D01*
X13183Y296927D01*
X20607Y296927D01*
X20607Y289503D01*
X19484Y289726D01*
G37*
%LPD*%
%LPC*%
G36*
X38584Y99226D02*
X38584Y99226D01*
X36932Y99910D01*
X35446Y100903D01*
X34183Y102166D01*
X33190Y103652D01*
X32506Y105304D01*
X32283Y106427D01*
X39707Y106427D01*
X39707Y99003D01*
X38584Y99226D01*
G37*
%LPD*%
%LPC*%
G36*
X76784Y99226D02*
X76784Y99226D01*
X75132Y99910D01*
X73646Y100903D01*
X72383Y102166D01*
X71390Y103652D01*
X70706Y105304D01*
X70483Y106427D01*
X77907Y106427D01*
X77907Y99003D01*
X76784Y99226D01*
G37*
%LPD*%
%LPC*%
G36*
X57684Y518326D02*
X57684Y518326D01*
X56032Y519010D01*
X54546Y520003D01*
X53283Y521266D01*
X52290Y522752D01*
X51606Y524404D01*
X51383Y525527D01*
X58807Y525527D01*
X58807Y518103D01*
X57684Y518326D01*
G37*
%LPD*%
%LPC*%
G36*
X19484Y518326D02*
X19484Y518326D01*
X17832Y519010D01*
X16346Y520003D01*
X15083Y521266D01*
X14090Y522752D01*
X13406Y524404D01*
X13183Y525527D01*
X20607Y525527D01*
X20607Y518103D01*
X19484Y518326D01*
G37*
%LPD*%
%LPC*%
G36*
X340254Y588176D02*
X340254Y588176D01*
X338602Y588860D01*
X337116Y589853D01*
X335853Y591116D01*
X334860Y592602D01*
X334176Y594254D01*
X333953Y595377D01*
X341377Y595377D01*
X341377Y587953D01*
X340254Y588176D01*
G37*
%LPD*%
%LPC*%
G36*
X469899Y165099D02*
X469899Y165099D01*
X469899Y165101D01*
X469901Y165101D01*
X469901Y165099D01*
X469899Y165099D01*
G37*
%LPD*%
%LPC*%
G36*
X22129Y298449D02*
X22129Y298449D01*
X22129Y298451D01*
X22131Y298451D01*
X22131Y298449D01*
X22129Y298449D01*
G37*
%LPD*%
%LPC*%
G36*
X79429Y107949D02*
X79429Y107949D01*
X79429Y107951D01*
X79431Y107951D01*
X79431Y107949D01*
X79429Y107949D01*
G37*
%LPD*%
%LPC*%
G36*
X41229Y107949D02*
X41229Y107949D01*
X41229Y107951D01*
X41231Y107951D01*
X41231Y107949D01*
X41229Y107949D01*
G37*
%LPD*%
%LPC*%
G36*
X584199Y482599D02*
X584199Y482599D01*
X584199Y482601D01*
X584201Y482601D01*
X584201Y482599D01*
X584199Y482599D01*
G37*
%LPD*%
%LPC*%
G36*
X469899Y190499D02*
X469899Y190499D01*
X469899Y190501D01*
X469901Y190501D01*
X469901Y190499D01*
X469899Y190499D01*
G37*
%LPD*%
%LPC*%
G36*
X60329Y298449D02*
X60329Y298449D01*
X60329Y298451D01*
X60331Y298451D01*
X60331Y298449D01*
X60329Y298449D01*
G37*
%LPD*%
%LPC*%
G36*
X469899Y368299D02*
X469899Y368299D01*
X469899Y368301D01*
X469901Y368301D01*
X469901Y368299D01*
X469899Y368299D01*
G37*
%LPD*%
%LPC*%
G36*
X469899Y215899D02*
X469899Y215899D01*
X469899Y215901D01*
X469901Y215901D01*
X469901Y215899D01*
X469899Y215899D01*
G37*
%LPD*%
%LPC*%
G36*
X469899Y241299D02*
X469899Y241299D01*
X469899Y241301D01*
X469901Y241301D01*
X469901Y241299D01*
X469899Y241299D01*
G37*
%LPD*%
%LPC*%
G36*
X469899Y342899D02*
X469899Y342899D01*
X469899Y342901D01*
X469901Y342901D01*
X469901Y342899D01*
X469899Y342899D01*
G37*
%LPD*%
%LPC*%
G36*
X469899Y266699D02*
X469899Y266699D01*
X469899Y266701D01*
X469901Y266701D01*
X469901Y266699D01*
X469899Y266699D01*
G37*
%LPD*%
%LPC*%
G36*
X469899Y317499D02*
X469899Y317499D01*
X469899Y317501D01*
X469901Y317501D01*
X469901Y317499D01*
X469899Y317499D01*
G37*
%LPD*%
%LPC*%
G36*
X419099Y38099D02*
X419099Y38099D01*
X419099Y38101D01*
X419101Y38101D01*
X419101Y38099D01*
X419099Y38099D01*
G37*
%LPD*%
%LPC*%
G36*
X22129Y527049D02*
X22129Y527049D01*
X22129Y527051D01*
X22131Y527051D01*
X22131Y527049D01*
X22129Y527049D01*
G37*
%LPD*%
%LPC*%
G36*
X342899Y596899D02*
X342899Y596899D01*
X342899Y596901D01*
X342901Y596901D01*
X342901Y596899D01*
X342899Y596899D01*
G37*
%LPD*%
%LPC*%
G36*
X60329Y527049D02*
X60329Y527049D01*
X60329Y527051D01*
X60331Y527051D01*
X60331Y527049D01*
X60329Y527049D01*
G37*
%LPD*%
%LPC*%
G36*
X469899Y292099D02*
X469899Y292099D01*
X469899Y292101D01*
X469901Y292101D01*
X469901Y292099D01*
X469899Y292099D01*
G37*
%LPD*%
D10*
X495300Y622300D03*
X495300Y596900D03*
X495300Y571500D03*
X495300Y546100D03*
X495300Y520700D03*
X495300Y495300D03*
X495300Y469900D03*
X495300Y444500D03*
X495300Y419100D03*
X469900Y419100D03*
X444500Y419100D03*
X419100Y419100D03*
X393700Y419100D03*
X368300Y419100D03*
X342900Y419100D03*
X342900Y444500D03*
X342900Y469900D03*
X342900Y495300D03*
X342900Y520700D03*
X342900Y546100D03*
X342900Y571500D03*
X342900Y596900D03*
X342900Y622300D03*
D11*
X241554Y370713D03*
X241554Y323723D03*
D10*
X60330Y527050D03*
X79430Y514350D03*
X60330Y501650D03*
X79430Y488950D03*
X60330Y476250D03*
X79430Y463550D03*
X60330Y450850D03*
X79430Y438150D03*
X60330Y425450D03*
X79430Y412750D03*
X60330Y400050D03*
X79430Y387350D03*
X60330Y374650D03*
X79430Y361950D03*
X60330Y349250D03*
X79430Y336550D03*
X60330Y323850D03*
X79430Y311150D03*
X60330Y298450D03*
X79430Y285750D03*
X60330Y273050D03*
X79430Y260350D03*
X60330Y247650D03*
X79430Y234950D03*
X60330Y222250D03*
X79430Y209550D03*
X60330Y196850D03*
X79430Y184150D03*
X60330Y171450D03*
X79430Y158750D03*
X60330Y146050D03*
X79430Y133350D03*
X60330Y120650D03*
X79430Y107950D03*
X22130Y527050D03*
X41230Y514350D03*
X22130Y501650D03*
X41230Y488950D03*
X22130Y476250D03*
X41230Y463550D03*
X22130Y450850D03*
X41230Y438150D03*
X22130Y425450D03*
X41230Y412750D03*
X22130Y400050D03*
X41230Y387350D03*
X22130Y374650D03*
X41230Y361950D03*
X22130Y349250D03*
X41230Y336550D03*
X22130Y323850D03*
X41230Y311150D03*
X22130Y298450D03*
X41230Y285750D03*
X22130Y273050D03*
X41230Y260350D03*
X22130Y247650D03*
X41230Y234950D03*
X22130Y222250D03*
X41230Y209550D03*
X22130Y196850D03*
X41230Y184150D03*
X22130Y171450D03*
X41230Y158750D03*
X22130Y146050D03*
X41230Y133350D03*
X22130Y120650D03*
X41230Y107950D03*
D12*
X469900Y368300D03*
X495300Y368300D03*
X469900Y342900D03*
X495300Y342900D03*
X469900Y317500D03*
X495300Y317500D03*
X469900Y292100D03*
X495300Y292100D03*
X469900Y266700D03*
X495300Y266700D03*
X469900Y241300D03*
X495300Y241300D03*
X469900Y215900D03*
X495300Y215900D03*
X469900Y190500D03*
X495300Y190500D03*
X469900Y165100D03*
X495300Y165100D03*
X469900Y139700D03*
X495300Y139700D03*
X469900Y114300D03*
X495300Y114300D03*
X469900Y88900D03*
X495300Y88900D03*
X469900Y63500D03*
X495300Y63500D03*
X469900Y38100D03*
X495300Y38100D03*
D13*
X577088Y482600D02*
X591312Y482600D01*
X591312Y508000D02*
X577088Y508000D01*
X577088Y533400D02*
X591312Y533400D01*
X591312Y558800D02*
X577088Y558800D01*
X426212Y38100D02*
X411988Y38100D01*
X411988Y63500D02*
X426212Y63500D01*
D14*
X368300Y571500D03*
X381000Y571500D03*
X393700Y571500D03*
X406400Y571500D03*
X419100Y571500D03*
X431800Y571500D03*
X444500Y571500D03*
X457200Y571500D03*
X469900Y571500D03*
X368300Y558800D03*
X381000Y558800D03*
X393700Y558800D03*
X406400Y558800D03*
X419100Y558800D03*
X431800Y558800D03*
X444500Y558800D03*
X457200Y558800D03*
X469900Y558800D03*
X469900Y546100D03*
X457200Y546100D03*
X444500Y546100D03*
X431800Y546100D03*
X419100Y546100D03*
X406400Y546100D03*
X393700Y546100D03*
X381000Y546100D03*
X368300Y546100D03*
X127000Y101600D03*
X139700Y101600D03*
X152400Y101600D03*
X165100Y101600D03*
X177800Y101600D03*
X190500Y101600D03*
X203200Y101600D03*
X215900Y101600D03*
X228600Y101600D03*
X127000Y88900D03*
X139700Y88900D03*
X152400Y88900D03*
X165100Y88900D03*
X177800Y88900D03*
X190500Y88900D03*
X203200Y88900D03*
X215900Y88900D03*
X228600Y88900D03*
X228600Y76200D03*
X215900Y76200D03*
X203200Y76200D03*
X190500Y76200D03*
X177800Y76200D03*
X165100Y76200D03*
X152400Y76200D03*
X139700Y76200D03*
X127000Y76200D03*
X127000Y571500D03*
X139700Y571500D03*
X152400Y571500D03*
X165100Y571500D03*
X177800Y571500D03*
X190500Y571500D03*
X203200Y571500D03*
X215900Y571500D03*
X228600Y571500D03*
X127000Y558800D03*
X139700Y558800D03*
X152400Y558800D03*
X165100Y558800D03*
X177800Y558800D03*
X190500Y558800D03*
X203200Y558800D03*
X215900Y558800D03*
X228600Y558800D03*
X228600Y546100D03*
X215900Y546100D03*
X203200Y546100D03*
X190500Y546100D03*
X177800Y546100D03*
X165100Y546100D03*
X152400Y546100D03*
X139700Y546100D03*
X127000Y546100D03*
D15*
X457200Y76200D02*
X482600Y76200D01*
X495300Y63500D01*
X457200Y76200D02*
X355600Y177800D01*
X355600Y431800D02*
X342900Y444500D01*
X355600Y431800D02*
X355600Y177800D01*
X342900Y165100D02*
X342900Y419100D01*
X457200Y50800D02*
X482600Y50800D01*
X495300Y38100D01*
X457200Y50800D02*
X342900Y165100D01*
X393700Y190500D02*
X457200Y127000D01*
X482600Y127000D01*
X495300Y114300D01*
X393700Y190500D02*
X393700Y419100D01*
X368300Y419100D02*
X368300Y190500D01*
X457200Y101600D02*
X482600Y101600D01*
X495300Y88900D01*
X457200Y101600D02*
X368300Y190500D01*
D16*
X241300Y469900D02*
X342900Y571500D01*
X241300Y370967D02*
X241554Y370713D01*
X241300Y370967D02*
X241300Y469900D01*
X254254Y370713D02*
X304800Y320167D01*
X254254Y370713D02*
X241554Y370713D01*
X304800Y320167D02*
X304800Y177800D01*
D17*
X342900Y571595D02*
X355505Y584200D01*
X342900Y571595D02*
X342900Y571500D01*
X355505Y584200D02*
X558800Y584200D01*
X584200Y558800D01*
D16*
X304800Y177800D02*
X419100Y63500D01*
X60330Y323850D02*
X22130Y323850D01*
X241427Y323850D02*
X241554Y323723D01*
X241427Y323850D02*
X60330Y323850D01*
D15*
X342900Y546100D02*
X355600Y533400D01*
X584200Y533400D01*
X355600Y508000D02*
X342900Y520700D01*
X355600Y508000D02*
X584200Y508000D01*
M02*
