M48
;GenerationSoftware,Autodesk,EAGLE,9.6.2*%
;CreationDate,2026-09-09T04:27:01Z*%
FMAT,2
ICI,OFF
METRIC,TZ,000.000
T5C0.350
T4C0.900
T3C1.016
T2C2.794
T1C2.800
%
G90
M71
T1
X5080Y2795
X5080Y60705
T2
X58420Y60706
X58420Y2794
X13970Y2794
X13970Y60706
T3
X49530Y34290
X46990Y34290
X49530Y36830
X46990Y36830
X49530Y31750
X58420Y53340
X58420Y50800
X58420Y48260
X49530Y3810
X46990Y3810
X49530Y6350
X46990Y6350
X49530Y8890
X46990Y8890
X49530Y11430
X46990Y11430
X49530Y13970
X46990Y13970
X49530Y16510
X46990Y16510
X58420Y55880
X49530Y19050
X46990Y19050
X49530Y21590
X46990Y21590
X49530Y24130
X46990Y24130
X49530Y26670
X46990Y26670
X49530Y29210
X46990Y29210
X46990Y31750
T4
X7943Y28575
X6033Y27305
X6033Y24765
X7943Y23495
X6033Y22225
X7943Y20955
X6033Y19685
X7943Y18415
X6033Y17145
X7943Y15875
X6033Y14605
X7943Y13335
X6033Y12065
X7943Y10795
X2213Y52705
X4123Y51435
X2213Y50165
X4123Y48895
X2213Y47625
X4123Y46355
X2213Y45085
X4123Y43815
X2213Y42545
X4123Y41275
X2213Y40005
X4123Y38735
X2213Y37465
X2213Y34925
X4123Y33655
X2213Y32385
X4123Y31115
X2213Y29845
X4123Y28575
X2213Y27305
X4123Y26035
X2213Y24765
X4123Y23495
X2213Y22225
X4123Y20955
X2213Y19685
X4123Y18415
X2213Y17145
X4123Y15875
X2213Y14605
X4123Y13335
X2213Y12065
X4123Y10795
X4123Y36195
X34290Y52070
X49530Y62230
X49530Y59690
X49530Y57150
X49530Y54610
X49530Y52070
X49530Y49530
X49530Y46990
X49530Y44450
X49530Y41910
X46990Y41910
X44450Y41910
X41910Y41910
X39370Y41910
X36830Y41910
X34290Y41910
X34290Y44450
X34290Y46990
X34290Y49530
X7943Y26035
X34290Y54610
X34290Y57150
X34290Y59690
X34290Y62230
X6033Y52705
X7943Y51435
X6033Y50165
X7943Y48895
X6033Y47625
X7943Y46355
X6033Y45085
X7943Y43815
X6033Y42545
X7943Y41275
X6033Y40005
X7943Y38735
X6033Y37465
X7943Y36195
X6033Y34925
X7943Y33655
X6033Y32385
X7943Y31115
X6033Y29845
T5
X36830Y57150
X38100Y57150
X39370Y57150
X40640Y57150
X41910Y57150
X43180Y57150
X44450Y57150
X45720Y57150
X46990Y57150
X36830Y55880
X38100Y55880
X39370Y55880
X40640Y55880
X41910Y55880
X43180Y55880
X44450Y55880
X45720Y55880
X46990Y55880
X46990Y54610
X45720Y54610
X44450Y54610
X43180Y54610
X41910Y54610
X40640Y54610
X39370Y54610
X38100Y54610
X12700Y10160
X13970Y10160
X15240Y10160
X16510Y10160
X17780Y10160
X19050Y10160
X20320Y10160
X21590Y10160
X22860Y10160
X12700Y8890
X13970Y8890
X15240Y8890
X16510Y8890
X17780Y8890
X19050Y8890
X20320Y8890
X21590Y8890
X22860Y8890
X22860Y7620
X21590Y7620
X20320Y7620
X19050Y7620
X12700Y54610
X15240Y54610
X16510Y54610
X17780Y54610
X19050Y54610
X20320Y54610
X36830Y54610
X21590Y54610
X22860Y54610
X22860Y55880
X21590Y55880
X20320Y55880
X19050Y55880
X17780Y55880
X16510Y55880
X15240Y55880
X13970Y55880
X12700Y55880
X22860Y57150
X21590Y57150
X20320Y57150
X19050Y57150
X17780Y57150
X16510Y57150
X15240Y57150
X13970Y57150
X12700Y57150
X12700Y7620
X13970Y7620
X15240Y7620
X16510Y7620
X17780Y7620
X13970Y54610
M30