G04 EAGLE Gerber RS-274X export*
G75*
%MOMM*%
%FSLAX34Y34*%
%LPD*%
%INSilkscreen Top*%
%IPPOS*%
%AMOC8*
5,1,8,0,0,1.08239X$1,22.5*%
G01*
%ADD10C,0.203200*%
%ADD11C,0.076200*%
%ADD12C,0.152400*%
%ADD13C,0.127000*%


D10*
X267716Y459127D02*
X291084Y459127D01*
X291084Y452636D01*
X291082Y452477D01*
X291076Y452318D01*
X291066Y452158D01*
X291053Y452000D01*
X291035Y451841D01*
X291014Y451684D01*
X290988Y451526D01*
X290959Y451370D01*
X290926Y451214D01*
X290889Y451059D01*
X290849Y450905D01*
X290804Y450752D01*
X290756Y450600D01*
X290705Y450449D01*
X290649Y450300D01*
X290590Y450152D01*
X290527Y450006D01*
X290461Y449861D01*
X290391Y449718D01*
X290318Y449576D01*
X290241Y449437D01*
X290161Y449299D01*
X290077Y449163D01*
X289990Y449030D01*
X289900Y448898D01*
X289807Y448769D01*
X289710Y448643D01*
X289611Y448518D01*
X289508Y448396D01*
X289403Y448277D01*
X289294Y448160D01*
X289183Y448046D01*
X289069Y447935D01*
X288952Y447826D01*
X288833Y447721D01*
X288711Y447618D01*
X288586Y447519D01*
X288460Y447422D01*
X288331Y447329D01*
X288199Y447239D01*
X288066Y447152D01*
X287930Y447068D01*
X287792Y446988D01*
X287653Y446911D01*
X287511Y446838D01*
X287368Y446768D01*
X287223Y446702D01*
X287077Y446639D01*
X286929Y446580D01*
X286780Y446524D01*
X286629Y446473D01*
X286477Y446425D01*
X286324Y446380D01*
X286170Y446340D01*
X286015Y446303D01*
X285859Y446270D01*
X285703Y446241D01*
X285545Y446215D01*
X285388Y446194D01*
X285229Y446176D01*
X285071Y446163D01*
X284911Y446153D01*
X284752Y446147D01*
X284593Y446145D01*
X284434Y446147D01*
X284275Y446153D01*
X284115Y446163D01*
X283957Y446176D01*
X283798Y446194D01*
X283641Y446215D01*
X283483Y446241D01*
X283327Y446270D01*
X283171Y446303D01*
X283016Y446340D01*
X282862Y446380D01*
X282709Y446425D01*
X282557Y446473D01*
X282406Y446524D01*
X282257Y446580D01*
X282109Y446639D01*
X281963Y446702D01*
X281818Y446768D01*
X281675Y446838D01*
X281533Y446911D01*
X281394Y446988D01*
X281256Y447068D01*
X281120Y447152D01*
X280987Y447239D01*
X280855Y447329D01*
X280726Y447422D01*
X280600Y447519D01*
X280475Y447618D01*
X280353Y447721D01*
X280234Y447826D01*
X280117Y447935D01*
X280003Y448046D01*
X279892Y448160D01*
X279783Y448277D01*
X279678Y448396D01*
X279575Y448518D01*
X279476Y448643D01*
X279379Y448769D01*
X279286Y448898D01*
X279196Y449030D01*
X279109Y449163D01*
X279025Y449299D01*
X278945Y449437D01*
X278868Y449576D01*
X278795Y449718D01*
X278725Y449861D01*
X278659Y450006D01*
X278596Y450152D01*
X278537Y450300D01*
X278481Y450449D01*
X278430Y450600D01*
X278382Y450752D01*
X278337Y450905D01*
X278297Y451059D01*
X278260Y451214D01*
X278227Y451370D01*
X278198Y451526D01*
X278172Y451684D01*
X278151Y451841D01*
X278133Y452000D01*
X278120Y452158D01*
X278110Y452318D01*
X278104Y452477D01*
X278102Y452636D01*
X278102Y459127D01*
X267716Y436777D02*
X291084Y436777D01*
X267716Y439373D02*
X267716Y434180D01*
X291084Y434180D02*
X291084Y439373D01*
X267716Y421396D02*
X267716Y416203D01*
X267716Y421396D02*
X267718Y421539D01*
X267724Y421682D01*
X267734Y421825D01*
X267748Y421967D01*
X267765Y422109D01*
X267787Y422251D01*
X267812Y422392D01*
X267842Y422532D01*
X267875Y422671D01*
X267912Y422809D01*
X267953Y422946D01*
X267997Y423082D01*
X268046Y423217D01*
X268098Y423350D01*
X268153Y423482D01*
X268213Y423612D01*
X268276Y423741D01*
X268342Y423868D01*
X268412Y423993D01*
X268485Y424115D01*
X268562Y424236D01*
X268642Y424355D01*
X268725Y424471D01*
X268811Y424586D01*
X268900Y424697D01*
X268993Y424807D01*
X269088Y424913D01*
X269187Y425017D01*
X269288Y425118D01*
X269392Y425217D01*
X269498Y425312D01*
X269608Y425405D01*
X269719Y425494D01*
X269834Y425580D01*
X269950Y425663D01*
X270069Y425743D01*
X270190Y425820D01*
X270313Y425893D01*
X270437Y425963D01*
X270564Y426029D01*
X270693Y426092D01*
X270823Y426152D01*
X270955Y426207D01*
X271088Y426259D01*
X271223Y426308D01*
X271359Y426352D01*
X271496Y426393D01*
X271634Y426430D01*
X271773Y426463D01*
X271913Y426493D01*
X272054Y426518D01*
X272196Y426540D01*
X272338Y426557D01*
X272480Y426571D01*
X272623Y426581D01*
X272766Y426587D01*
X272909Y426589D01*
X285891Y426589D01*
X286034Y426587D01*
X286177Y426581D01*
X286320Y426571D01*
X286462Y426557D01*
X286604Y426540D01*
X286746Y426518D01*
X286887Y426493D01*
X287027Y426463D01*
X287166Y426430D01*
X287304Y426393D01*
X287441Y426352D01*
X287577Y426308D01*
X287712Y426259D01*
X287845Y426207D01*
X287977Y426152D01*
X288107Y426092D01*
X288236Y426029D01*
X288363Y425963D01*
X288487Y425893D01*
X288610Y425820D01*
X288731Y425743D01*
X288850Y425663D01*
X288966Y425580D01*
X289081Y425494D01*
X289192Y425405D01*
X289302Y425312D01*
X289408Y425217D01*
X289512Y425118D01*
X289613Y425017D01*
X289712Y424913D01*
X289807Y424807D01*
X289900Y424697D01*
X289989Y424586D01*
X290075Y424471D01*
X290158Y424355D01*
X290238Y424236D01*
X290315Y424115D01*
X290388Y423993D01*
X290458Y423868D01*
X290524Y423741D01*
X290587Y423612D01*
X290647Y423482D01*
X290702Y423350D01*
X290754Y423217D01*
X290803Y423082D01*
X290847Y422946D01*
X290888Y422809D01*
X290925Y422671D01*
X290958Y422532D01*
X290988Y422392D01*
X291013Y422251D01*
X291035Y422109D01*
X291052Y421967D01*
X291066Y421825D01*
X291076Y421682D01*
X291082Y421539D01*
X291084Y421396D01*
X291084Y416203D01*
X284593Y409166D02*
X274207Y409166D01*
X284593Y409166D02*
X284752Y409164D01*
X284911Y409158D01*
X285071Y409148D01*
X285229Y409135D01*
X285388Y409117D01*
X285545Y409096D01*
X285703Y409070D01*
X285859Y409041D01*
X286015Y409008D01*
X286170Y408971D01*
X286324Y408931D01*
X286477Y408886D01*
X286629Y408838D01*
X286780Y408787D01*
X286929Y408731D01*
X287077Y408672D01*
X287223Y408609D01*
X287368Y408543D01*
X287511Y408473D01*
X287653Y408400D01*
X287792Y408323D01*
X287930Y408243D01*
X288066Y408159D01*
X288199Y408072D01*
X288331Y407982D01*
X288460Y407889D01*
X288586Y407792D01*
X288711Y407693D01*
X288833Y407590D01*
X288952Y407485D01*
X289069Y407376D01*
X289183Y407265D01*
X289294Y407151D01*
X289403Y407034D01*
X289508Y406915D01*
X289611Y406793D01*
X289710Y406668D01*
X289807Y406542D01*
X289900Y406413D01*
X289990Y406281D01*
X290077Y406148D01*
X290161Y406012D01*
X290241Y405874D01*
X290318Y405735D01*
X290391Y405593D01*
X290461Y405450D01*
X290527Y405305D01*
X290590Y405159D01*
X290649Y405011D01*
X290705Y404862D01*
X290756Y404711D01*
X290804Y404559D01*
X290849Y404406D01*
X290889Y404252D01*
X290926Y404097D01*
X290959Y403941D01*
X290988Y403785D01*
X291014Y403627D01*
X291035Y403470D01*
X291053Y403311D01*
X291066Y403153D01*
X291076Y402993D01*
X291082Y402834D01*
X291084Y402675D01*
X291082Y402516D01*
X291076Y402357D01*
X291066Y402197D01*
X291053Y402039D01*
X291035Y401880D01*
X291014Y401723D01*
X290988Y401565D01*
X290959Y401409D01*
X290926Y401253D01*
X290889Y401098D01*
X290849Y400944D01*
X290804Y400791D01*
X290756Y400639D01*
X290705Y400488D01*
X290649Y400339D01*
X290590Y400191D01*
X290527Y400045D01*
X290461Y399900D01*
X290391Y399757D01*
X290318Y399615D01*
X290241Y399476D01*
X290161Y399338D01*
X290077Y399202D01*
X289990Y399069D01*
X289900Y398937D01*
X289807Y398808D01*
X289710Y398682D01*
X289611Y398557D01*
X289508Y398435D01*
X289403Y398316D01*
X289294Y398199D01*
X289183Y398085D01*
X289069Y397974D01*
X288952Y397865D01*
X288833Y397760D01*
X288711Y397657D01*
X288586Y397558D01*
X288460Y397461D01*
X288331Y397368D01*
X288199Y397278D01*
X288066Y397191D01*
X287930Y397107D01*
X287792Y397027D01*
X287653Y396950D01*
X287511Y396877D01*
X287368Y396807D01*
X287223Y396741D01*
X287077Y396678D01*
X286929Y396619D01*
X286780Y396563D01*
X286629Y396512D01*
X286477Y396464D01*
X286324Y396419D01*
X286170Y396379D01*
X286015Y396342D01*
X285859Y396309D01*
X285703Y396280D01*
X285545Y396254D01*
X285388Y396233D01*
X285229Y396215D01*
X285071Y396202D01*
X284911Y396192D01*
X284752Y396186D01*
X284593Y396184D01*
X274207Y396184D01*
X274048Y396186D01*
X273889Y396192D01*
X273729Y396202D01*
X273571Y396215D01*
X273412Y396233D01*
X273255Y396254D01*
X273097Y396280D01*
X272941Y396309D01*
X272785Y396342D01*
X272630Y396379D01*
X272476Y396419D01*
X272323Y396464D01*
X272171Y396512D01*
X272020Y396563D01*
X271871Y396619D01*
X271723Y396678D01*
X271577Y396741D01*
X271432Y396807D01*
X271289Y396877D01*
X271147Y396950D01*
X271008Y397027D01*
X270870Y397107D01*
X270734Y397191D01*
X270601Y397278D01*
X270469Y397368D01*
X270340Y397461D01*
X270214Y397558D01*
X270089Y397657D01*
X269967Y397760D01*
X269848Y397865D01*
X269731Y397974D01*
X269617Y398085D01*
X269506Y398199D01*
X269397Y398316D01*
X269292Y398435D01*
X269189Y398557D01*
X269090Y398682D01*
X268993Y398808D01*
X268900Y398937D01*
X268810Y399069D01*
X268723Y399202D01*
X268639Y399338D01*
X268559Y399476D01*
X268482Y399615D01*
X268409Y399757D01*
X268339Y399900D01*
X268273Y400045D01*
X268210Y400191D01*
X268151Y400339D01*
X268095Y400488D01*
X268044Y400639D01*
X267996Y400791D01*
X267951Y400944D01*
X267911Y401098D01*
X267874Y401253D01*
X267841Y401409D01*
X267812Y401565D01*
X267786Y401723D01*
X267765Y401880D01*
X267747Y402039D01*
X267734Y402197D01*
X267724Y402357D01*
X267718Y402516D01*
X267716Y402675D01*
X267718Y402834D01*
X267724Y402993D01*
X267734Y403153D01*
X267747Y403311D01*
X267765Y403470D01*
X267786Y403627D01*
X267812Y403785D01*
X267841Y403941D01*
X267874Y404097D01*
X267911Y404252D01*
X267951Y404406D01*
X267996Y404559D01*
X268044Y404711D01*
X268095Y404862D01*
X268151Y405011D01*
X268210Y405159D01*
X268273Y405305D01*
X268339Y405450D01*
X268409Y405593D01*
X268482Y405735D01*
X268559Y405874D01*
X268639Y406012D01*
X268723Y406148D01*
X268810Y406281D01*
X268900Y406413D01*
X268993Y406542D01*
X269090Y406668D01*
X269189Y406793D01*
X269292Y406915D01*
X269397Y407034D01*
X269506Y407151D01*
X269617Y407265D01*
X269731Y407376D01*
X269848Y407485D01*
X269967Y407590D01*
X270089Y407693D01*
X270214Y407792D01*
X270340Y407889D01*
X270469Y407982D01*
X270601Y408072D01*
X270734Y408159D01*
X270870Y408243D01*
X271008Y408323D01*
X271147Y408400D01*
X271289Y408473D01*
X271432Y408543D01*
X271577Y408609D01*
X271723Y408672D01*
X271871Y408731D01*
X272020Y408787D01*
X272171Y408838D01*
X272323Y408886D01*
X272476Y408931D01*
X272630Y408971D01*
X272785Y409008D01*
X272941Y409041D01*
X273097Y409070D01*
X273255Y409096D01*
X273412Y409117D01*
X273571Y409135D01*
X273729Y409148D01*
X273889Y409158D01*
X274048Y409164D01*
X274207Y409166D01*
X276804Y388193D02*
X276804Y372615D01*
X267716Y363929D02*
X291084Y363929D01*
X291084Y357438D01*
X291082Y357279D01*
X291076Y357120D01*
X291066Y356960D01*
X291053Y356802D01*
X291035Y356643D01*
X291014Y356486D01*
X290988Y356328D01*
X290959Y356172D01*
X290926Y356016D01*
X290889Y355861D01*
X290849Y355707D01*
X290804Y355554D01*
X290756Y355402D01*
X290705Y355251D01*
X290649Y355102D01*
X290590Y354954D01*
X290527Y354808D01*
X290461Y354663D01*
X290391Y354520D01*
X290318Y354378D01*
X290241Y354239D01*
X290161Y354101D01*
X290077Y353965D01*
X289990Y353832D01*
X289900Y353700D01*
X289807Y353571D01*
X289710Y353445D01*
X289611Y353320D01*
X289508Y353198D01*
X289403Y353079D01*
X289294Y352962D01*
X289183Y352848D01*
X289069Y352737D01*
X288952Y352628D01*
X288833Y352523D01*
X288711Y352420D01*
X288586Y352321D01*
X288460Y352224D01*
X288331Y352131D01*
X288199Y352041D01*
X288066Y351954D01*
X287930Y351870D01*
X287792Y351790D01*
X287653Y351713D01*
X287511Y351640D01*
X287368Y351570D01*
X287223Y351504D01*
X287077Y351441D01*
X286929Y351382D01*
X286780Y351326D01*
X286629Y351275D01*
X286477Y351227D01*
X286324Y351182D01*
X286170Y351142D01*
X286015Y351105D01*
X285859Y351072D01*
X285703Y351043D01*
X285545Y351017D01*
X285388Y350996D01*
X285229Y350978D01*
X285071Y350965D01*
X284911Y350955D01*
X284752Y350949D01*
X284593Y350947D01*
X284593Y350946D02*
X274207Y350946D01*
X274207Y350947D02*
X274048Y350949D01*
X273889Y350955D01*
X273729Y350965D01*
X273571Y350978D01*
X273412Y350996D01*
X273255Y351017D01*
X273097Y351043D01*
X272941Y351072D01*
X272785Y351105D01*
X272630Y351142D01*
X272476Y351182D01*
X272323Y351227D01*
X272171Y351275D01*
X272020Y351326D01*
X271871Y351382D01*
X271723Y351441D01*
X271577Y351504D01*
X271432Y351570D01*
X271289Y351640D01*
X271147Y351713D01*
X271008Y351790D01*
X270870Y351870D01*
X270734Y351954D01*
X270601Y352041D01*
X270469Y352131D01*
X270340Y352224D01*
X270214Y352321D01*
X270089Y352420D01*
X269967Y352523D01*
X269848Y352628D01*
X269731Y352737D01*
X269617Y352848D01*
X269506Y352962D01*
X269397Y353079D01*
X269292Y353198D01*
X269189Y353320D01*
X269090Y353445D01*
X268993Y353571D01*
X268900Y353700D01*
X268810Y353832D01*
X268723Y353965D01*
X268639Y354101D01*
X268559Y354239D01*
X268482Y354378D01*
X268409Y354520D01*
X268339Y354663D01*
X268273Y354808D01*
X268210Y354954D01*
X268151Y355102D01*
X268095Y355251D01*
X268044Y355402D01*
X267996Y355554D01*
X267951Y355707D01*
X267911Y355861D01*
X267874Y356016D01*
X267841Y356172D01*
X267812Y356328D01*
X267786Y356486D01*
X267765Y356643D01*
X267747Y356802D01*
X267734Y356960D01*
X267724Y357120D01*
X267718Y357279D01*
X267716Y357438D01*
X267716Y363929D01*
X267716Y338553D02*
X267716Y332062D01*
X267716Y338553D02*
X267718Y338675D01*
X267724Y338798D01*
X267733Y338920D01*
X267747Y339041D01*
X267764Y339162D01*
X267785Y339283D01*
X267810Y339403D01*
X267838Y339522D01*
X267871Y339640D01*
X267907Y339757D01*
X267946Y339872D01*
X267990Y339987D01*
X268036Y340100D01*
X268087Y340211D01*
X268141Y340321D01*
X268198Y340429D01*
X268258Y340536D01*
X268322Y340640D01*
X268390Y340742D01*
X268460Y340842D01*
X268533Y340940D01*
X268610Y341036D01*
X268689Y341129D01*
X268772Y341219D01*
X268857Y341307D01*
X268945Y341392D01*
X269035Y341475D01*
X269128Y341554D01*
X269224Y341631D01*
X269322Y341704D01*
X269422Y341774D01*
X269524Y341842D01*
X269628Y341906D01*
X269735Y341966D01*
X269843Y342023D01*
X269953Y342077D01*
X270064Y342128D01*
X270177Y342174D01*
X270292Y342218D01*
X270407Y342257D01*
X270524Y342293D01*
X270642Y342326D01*
X270761Y342354D01*
X270881Y342379D01*
X271002Y342400D01*
X271123Y342417D01*
X271244Y342431D01*
X271366Y342440D01*
X271489Y342446D01*
X271611Y342448D01*
X278102Y342448D01*
X278245Y342446D01*
X278388Y342440D01*
X278531Y342430D01*
X278673Y342416D01*
X278815Y342399D01*
X278957Y342377D01*
X279098Y342352D01*
X279238Y342322D01*
X279377Y342289D01*
X279515Y342252D01*
X279652Y342211D01*
X279788Y342167D01*
X279923Y342118D01*
X280056Y342066D01*
X280188Y342011D01*
X280318Y341951D01*
X280447Y341888D01*
X280574Y341822D01*
X280699Y341752D01*
X280821Y341679D01*
X280942Y341602D01*
X281061Y341522D01*
X281177Y341439D01*
X281292Y341353D01*
X281403Y341264D01*
X281513Y341171D01*
X281619Y341076D01*
X281723Y340977D01*
X281824Y340876D01*
X281923Y340772D01*
X282018Y340666D01*
X282111Y340556D01*
X282200Y340445D01*
X282286Y340330D01*
X282369Y340214D01*
X282449Y340095D01*
X282526Y339974D01*
X282599Y339851D01*
X282669Y339727D01*
X282735Y339600D01*
X282798Y339471D01*
X282858Y339341D01*
X282913Y339209D01*
X282965Y339076D01*
X283014Y338941D01*
X283058Y338805D01*
X283099Y338668D01*
X283136Y338530D01*
X283169Y338391D01*
X283199Y338251D01*
X283224Y338110D01*
X283246Y337968D01*
X283263Y337826D01*
X283277Y337684D01*
X283287Y337541D01*
X283293Y337398D01*
X283295Y337255D01*
X283293Y337112D01*
X283287Y336969D01*
X283277Y336826D01*
X283263Y336684D01*
X283246Y336542D01*
X283224Y336400D01*
X283199Y336259D01*
X283169Y336119D01*
X283136Y335980D01*
X283099Y335842D01*
X283058Y335705D01*
X283014Y335569D01*
X282965Y335434D01*
X282913Y335301D01*
X282858Y335169D01*
X282798Y335039D01*
X282735Y334910D01*
X282669Y334783D01*
X282599Y334658D01*
X282526Y334536D01*
X282449Y334415D01*
X282369Y334296D01*
X282286Y334180D01*
X282200Y334065D01*
X282111Y333954D01*
X282018Y333844D01*
X281923Y333738D01*
X281824Y333634D01*
X281723Y333533D01*
X281619Y333434D01*
X281513Y333339D01*
X281403Y333246D01*
X281292Y333157D01*
X281177Y333071D01*
X281061Y332988D01*
X280942Y332908D01*
X280821Y332831D01*
X280699Y332758D01*
X280574Y332688D01*
X280447Y332622D01*
X280318Y332559D01*
X280188Y332499D01*
X280056Y332444D01*
X279923Y332392D01*
X279788Y332343D01*
X279652Y332299D01*
X279515Y332258D01*
X279377Y332221D01*
X279238Y332188D01*
X279098Y332158D01*
X278957Y332133D01*
X278815Y332111D01*
X278673Y332094D01*
X278531Y332080D01*
X278388Y332070D01*
X278245Y332064D01*
X278102Y332062D01*
X275505Y332062D01*
X275505Y342448D01*
X283295Y325049D02*
X267716Y319856D01*
X283295Y314663D01*
X276804Y307462D02*
X276804Y291884D01*
X280698Y283050D02*
X280698Y276559D01*
X280696Y276400D01*
X280690Y276241D01*
X280680Y276081D01*
X280667Y275923D01*
X280649Y275764D01*
X280628Y275607D01*
X280602Y275449D01*
X280573Y275293D01*
X280540Y275137D01*
X280503Y274982D01*
X280463Y274828D01*
X280418Y274675D01*
X280370Y274523D01*
X280319Y274372D01*
X280263Y274223D01*
X280204Y274075D01*
X280141Y273929D01*
X280075Y273784D01*
X280005Y273641D01*
X279932Y273499D01*
X279855Y273360D01*
X279775Y273222D01*
X279691Y273086D01*
X279604Y272953D01*
X279514Y272821D01*
X279421Y272692D01*
X279324Y272566D01*
X279225Y272441D01*
X279122Y272319D01*
X279017Y272200D01*
X278908Y272083D01*
X278797Y271969D01*
X278683Y271858D01*
X278566Y271749D01*
X278447Y271644D01*
X278325Y271541D01*
X278200Y271442D01*
X278074Y271345D01*
X277945Y271252D01*
X277813Y271162D01*
X277680Y271075D01*
X277544Y270991D01*
X277406Y270911D01*
X277267Y270834D01*
X277125Y270761D01*
X276982Y270691D01*
X276837Y270625D01*
X276691Y270562D01*
X276543Y270503D01*
X276394Y270447D01*
X276243Y270396D01*
X276091Y270348D01*
X275938Y270303D01*
X275784Y270263D01*
X275629Y270226D01*
X275473Y270193D01*
X275317Y270164D01*
X275159Y270138D01*
X275002Y270117D01*
X274843Y270099D01*
X274685Y270086D01*
X274525Y270076D01*
X274366Y270070D01*
X274207Y270068D01*
X274048Y270070D01*
X273889Y270076D01*
X273729Y270086D01*
X273571Y270099D01*
X273412Y270117D01*
X273255Y270138D01*
X273097Y270164D01*
X272941Y270193D01*
X272785Y270226D01*
X272630Y270263D01*
X272476Y270303D01*
X272323Y270348D01*
X272171Y270396D01*
X272020Y270447D01*
X271871Y270503D01*
X271723Y270562D01*
X271577Y270625D01*
X271432Y270691D01*
X271289Y270761D01*
X271147Y270834D01*
X271008Y270911D01*
X270870Y270991D01*
X270734Y271075D01*
X270601Y271162D01*
X270469Y271252D01*
X270340Y271345D01*
X270214Y271442D01*
X270089Y271541D01*
X269967Y271644D01*
X269848Y271749D01*
X269731Y271858D01*
X269617Y271969D01*
X269506Y272083D01*
X269397Y272200D01*
X269292Y272319D01*
X269189Y272441D01*
X269090Y272566D01*
X268993Y272692D01*
X268900Y272821D01*
X268810Y272953D01*
X268723Y273086D01*
X268639Y273222D01*
X268559Y273360D01*
X268482Y273499D01*
X268409Y273641D01*
X268339Y273784D01*
X268273Y273929D01*
X268210Y274075D01*
X268151Y274223D01*
X268095Y274372D01*
X268044Y274523D01*
X267996Y274675D01*
X267951Y274828D01*
X267911Y274982D01*
X267874Y275137D01*
X267841Y275293D01*
X267812Y275449D01*
X267786Y275607D01*
X267765Y275764D01*
X267747Y275923D01*
X267734Y276081D01*
X267724Y276241D01*
X267718Y276400D01*
X267716Y276559D01*
X267716Y283050D01*
X291084Y283050D01*
X291084Y276559D01*
X291082Y276416D01*
X291076Y276273D01*
X291066Y276130D01*
X291052Y275988D01*
X291035Y275846D01*
X291013Y275704D01*
X290988Y275563D01*
X290958Y275423D01*
X290925Y275284D01*
X290888Y275146D01*
X290847Y275009D01*
X290803Y274873D01*
X290754Y274738D01*
X290702Y274605D01*
X290647Y274473D01*
X290587Y274343D01*
X290524Y274214D01*
X290458Y274087D01*
X290388Y273962D01*
X290315Y273840D01*
X290238Y273719D01*
X290158Y273600D01*
X290075Y273484D01*
X289989Y273369D01*
X289900Y273258D01*
X289807Y273148D01*
X289712Y273042D01*
X289613Y272938D01*
X289512Y272837D01*
X289408Y272738D01*
X289302Y272643D01*
X289192Y272550D01*
X289081Y272461D01*
X288966Y272375D01*
X288850Y272292D01*
X288731Y272212D01*
X288610Y272135D01*
X288487Y272062D01*
X288363Y271992D01*
X288236Y271926D01*
X288107Y271863D01*
X287977Y271803D01*
X287845Y271748D01*
X287712Y271696D01*
X287577Y271647D01*
X287441Y271603D01*
X287304Y271562D01*
X287166Y271525D01*
X287027Y271492D01*
X286887Y271462D01*
X286746Y271437D01*
X286604Y271415D01*
X286462Y271398D01*
X286320Y271384D01*
X286177Y271374D01*
X286034Y271368D01*
X285891Y271366D01*
X285748Y271368D01*
X285605Y271374D01*
X285462Y271384D01*
X285320Y271398D01*
X285178Y271415D01*
X285036Y271437D01*
X284895Y271462D01*
X284755Y271492D01*
X284616Y271525D01*
X284478Y271562D01*
X284341Y271603D01*
X284205Y271647D01*
X284070Y271696D01*
X283937Y271748D01*
X283805Y271803D01*
X283675Y271863D01*
X283546Y271926D01*
X283419Y271992D01*
X283294Y272062D01*
X283172Y272135D01*
X283051Y272212D01*
X282932Y272292D01*
X282816Y272375D01*
X282701Y272461D01*
X282590Y272550D01*
X282480Y272643D01*
X282374Y272738D01*
X282270Y272837D01*
X282169Y272938D01*
X282070Y273042D01*
X281975Y273148D01*
X281882Y273258D01*
X281793Y273369D01*
X281707Y273484D01*
X281624Y273600D01*
X281544Y273719D01*
X281467Y273840D01*
X281394Y273963D01*
X281324Y274087D01*
X281258Y274214D01*
X281195Y274343D01*
X281135Y274473D01*
X281080Y274605D01*
X281028Y274738D01*
X280979Y274873D01*
X280935Y275009D01*
X280894Y275146D01*
X280857Y275284D01*
X280824Y275423D01*
X280794Y275563D01*
X280769Y275704D01*
X280747Y275846D01*
X280730Y275988D01*
X280716Y276130D01*
X280706Y276273D01*
X280700Y276416D01*
X280698Y276559D01*
X278102Y263108D02*
X272909Y263108D01*
X278102Y263108D02*
X278245Y263106D01*
X278388Y263100D01*
X278531Y263090D01*
X278673Y263076D01*
X278815Y263059D01*
X278957Y263037D01*
X279098Y263012D01*
X279238Y262982D01*
X279377Y262949D01*
X279515Y262912D01*
X279652Y262871D01*
X279788Y262827D01*
X279923Y262778D01*
X280056Y262726D01*
X280188Y262671D01*
X280318Y262611D01*
X280447Y262548D01*
X280574Y262482D01*
X280699Y262412D01*
X280821Y262339D01*
X280942Y262262D01*
X281061Y262182D01*
X281177Y262099D01*
X281292Y262013D01*
X281403Y261924D01*
X281513Y261831D01*
X281619Y261736D01*
X281723Y261637D01*
X281824Y261536D01*
X281923Y261432D01*
X282018Y261326D01*
X282111Y261216D01*
X282200Y261105D01*
X282286Y260990D01*
X282369Y260874D01*
X282449Y260755D01*
X282526Y260634D01*
X282599Y260511D01*
X282669Y260387D01*
X282735Y260260D01*
X282798Y260131D01*
X282858Y260001D01*
X282913Y259869D01*
X282965Y259736D01*
X283014Y259601D01*
X283058Y259465D01*
X283099Y259328D01*
X283136Y259190D01*
X283169Y259051D01*
X283199Y258911D01*
X283224Y258770D01*
X283246Y258628D01*
X283263Y258486D01*
X283277Y258344D01*
X283287Y258201D01*
X283293Y258058D01*
X283295Y257915D01*
X283293Y257772D01*
X283287Y257629D01*
X283277Y257486D01*
X283263Y257344D01*
X283246Y257202D01*
X283224Y257060D01*
X283199Y256919D01*
X283169Y256779D01*
X283136Y256640D01*
X283099Y256502D01*
X283058Y256365D01*
X283014Y256229D01*
X282965Y256094D01*
X282913Y255961D01*
X282858Y255829D01*
X282798Y255699D01*
X282735Y255570D01*
X282669Y255443D01*
X282599Y255318D01*
X282526Y255196D01*
X282449Y255075D01*
X282369Y254956D01*
X282286Y254840D01*
X282200Y254725D01*
X282111Y254614D01*
X282018Y254504D01*
X281923Y254398D01*
X281824Y254294D01*
X281723Y254193D01*
X281619Y254094D01*
X281513Y253999D01*
X281403Y253906D01*
X281292Y253817D01*
X281177Y253731D01*
X281061Y253648D01*
X280942Y253568D01*
X280821Y253491D01*
X280699Y253418D01*
X280574Y253348D01*
X280447Y253282D01*
X280318Y253219D01*
X280188Y253159D01*
X280056Y253104D01*
X279923Y253052D01*
X279788Y253003D01*
X279652Y252959D01*
X279515Y252918D01*
X279377Y252881D01*
X279238Y252848D01*
X279098Y252818D01*
X278957Y252793D01*
X278815Y252771D01*
X278673Y252754D01*
X278531Y252740D01*
X278388Y252730D01*
X278245Y252724D01*
X278102Y252722D01*
X278102Y252723D02*
X272909Y252723D01*
X272909Y252722D02*
X272766Y252724D01*
X272623Y252730D01*
X272480Y252740D01*
X272338Y252754D01*
X272196Y252771D01*
X272054Y252793D01*
X271913Y252818D01*
X271773Y252848D01*
X271634Y252881D01*
X271496Y252918D01*
X271359Y252959D01*
X271223Y253003D01*
X271088Y253052D01*
X270955Y253104D01*
X270823Y253159D01*
X270693Y253219D01*
X270564Y253282D01*
X270437Y253348D01*
X270312Y253418D01*
X270190Y253491D01*
X270069Y253568D01*
X269950Y253648D01*
X269834Y253731D01*
X269719Y253817D01*
X269608Y253906D01*
X269498Y253999D01*
X269392Y254094D01*
X269288Y254193D01*
X269187Y254294D01*
X269088Y254398D01*
X268993Y254504D01*
X268900Y254614D01*
X268811Y254725D01*
X268725Y254840D01*
X268642Y254956D01*
X268562Y255075D01*
X268485Y255196D01*
X268412Y255319D01*
X268342Y255443D01*
X268276Y255570D01*
X268213Y255699D01*
X268153Y255829D01*
X268098Y255961D01*
X268046Y256094D01*
X267997Y256229D01*
X267953Y256365D01*
X267912Y256502D01*
X267875Y256640D01*
X267842Y256779D01*
X267812Y256919D01*
X267787Y257060D01*
X267765Y257202D01*
X267748Y257344D01*
X267734Y257486D01*
X267724Y257629D01*
X267718Y257772D01*
X267716Y257915D01*
X267718Y258058D01*
X267724Y258201D01*
X267734Y258344D01*
X267748Y258486D01*
X267765Y258628D01*
X267787Y258770D01*
X267812Y258911D01*
X267842Y259051D01*
X267875Y259190D01*
X267912Y259328D01*
X267953Y259465D01*
X267997Y259601D01*
X268046Y259736D01*
X268098Y259869D01*
X268153Y260001D01*
X268213Y260131D01*
X268276Y260260D01*
X268342Y260387D01*
X268412Y260512D01*
X268485Y260634D01*
X268562Y260755D01*
X268642Y260874D01*
X268725Y260990D01*
X268811Y261105D01*
X268900Y261216D01*
X268993Y261326D01*
X269088Y261432D01*
X269187Y261536D01*
X269288Y261637D01*
X269392Y261736D01*
X269498Y261831D01*
X269608Y261924D01*
X269719Y262013D01*
X269834Y262099D01*
X269950Y262182D01*
X270069Y262262D01*
X270190Y262339D01*
X270313Y262412D01*
X270437Y262482D01*
X270564Y262548D01*
X270693Y262611D01*
X270823Y262671D01*
X270955Y262726D01*
X271088Y262778D01*
X271223Y262827D01*
X271359Y262871D01*
X271496Y262912D01*
X271634Y262949D01*
X271773Y262982D01*
X271913Y263012D01*
X272054Y263037D01*
X272196Y263059D01*
X272338Y263076D01*
X272480Y263090D01*
X272623Y263100D01*
X272766Y263106D01*
X272909Y263108D01*
X276804Y240521D02*
X276804Y234679D01*
X276804Y240521D02*
X276802Y240654D01*
X276796Y240788D01*
X276786Y240921D01*
X276773Y241053D01*
X276755Y241186D01*
X276734Y241317D01*
X276708Y241448D01*
X276679Y241579D01*
X276646Y241708D01*
X276610Y241836D01*
X276569Y241963D01*
X276525Y242089D01*
X276477Y242214D01*
X276425Y242337D01*
X276370Y242458D01*
X276312Y242578D01*
X276250Y242696D01*
X276184Y242812D01*
X276115Y242926D01*
X276043Y243039D01*
X275967Y243149D01*
X275889Y243256D01*
X275807Y243362D01*
X275722Y243464D01*
X275634Y243565D01*
X275543Y243663D01*
X275449Y243758D01*
X275353Y243850D01*
X275254Y243939D01*
X275152Y244026D01*
X275048Y244109D01*
X274942Y244189D01*
X274833Y244266D01*
X274722Y244340D01*
X274609Y244411D01*
X274493Y244478D01*
X274376Y244542D01*
X274257Y244603D01*
X274137Y244659D01*
X274014Y244713D01*
X273890Y244762D01*
X273765Y244808D01*
X273639Y244851D01*
X273511Y244889D01*
X273382Y244924D01*
X273253Y244955D01*
X273122Y244983D01*
X272991Y245006D01*
X272859Y245025D01*
X272726Y245041D01*
X272593Y245053D01*
X272460Y245061D01*
X272327Y245065D01*
X272193Y245065D01*
X272060Y245061D01*
X271927Y245053D01*
X271794Y245041D01*
X271661Y245025D01*
X271529Y245006D01*
X271398Y244983D01*
X271267Y244955D01*
X271138Y244924D01*
X271009Y244889D01*
X270881Y244851D01*
X270755Y244808D01*
X270630Y244762D01*
X270506Y244713D01*
X270383Y244659D01*
X270263Y244603D01*
X270144Y244542D01*
X270027Y244478D01*
X269911Y244411D01*
X269798Y244340D01*
X269687Y244266D01*
X269578Y244189D01*
X269472Y244109D01*
X269368Y244026D01*
X269266Y243939D01*
X269167Y243850D01*
X269071Y243758D01*
X268977Y243663D01*
X268886Y243565D01*
X268798Y243464D01*
X268713Y243362D01*
X268631Y243256D01*
X268553Y243149D01*
X268477Y243039D01*
X268405Y242926D01*
X268336Y242812D01*
X268270Y242696D01*
X268208Y242578D01*
X268150Y242458D01*
X268095Y242337D01*
X268043Y242214D01*
X267995Y242089D01*
X267951Y241963D01*
X267910Y241836D01*
X267874Y241708D01*
X267841Y241579D01*
X267812Y241448D01*
X267786Y241317D01*
X267765Y241186D01*
X267747Y241053D01*
X267734Y240921D01*
X267724Y240788D01*
X267718Y240654D01*
X267716Y240521D01*
X267716Y234679D01*
X279400Y234679D01*
X279400Y234678D02*
X279522Y234680D01*
X279645Y234686D01*
X279767Y234695D01*
X279888Y234709D01*
X280009Y234726D01*
X280130Y234747D01*
X280250Y234772D01*
X280369Y234800D01*
X280487Y234833D01*
X280604Y234869D01*
X280719Y234908D01*
X280834Y234952D01*
X280947Y234998D01*
X281058Y235049D01*
X281168Y235103D01*
X281276Y235160D01*
X281383Y235220D01*
X281487Y235284D01*
X281589Y235352D01*
X281689Y235422D01*
X281787Y235495D01*
X281883Y235572D01*
X281976Y235651D01*
X282066Y235734D01*
X282154Y235819D01*
X282239Y235907D01*
X282322Y235997D01*
X282401Y236090D01*
X282478Y236186D01*
X282551Y236284D01*
X282621Y236384D01*
X282689Y236486D01*
X282753Y236590D01*
X282813Y236697D01*
X282870Y236805D01*
X282924Y236915D01*
X282975Y237026D01*
X283021Y237139D01*
X283065Y237254D01*
X283104Y237369D01*
X283140Y237486D01*
X283173Y237604D01*
X283201Y237723D01*
X283226Y237843D01*
X283247Y237964D01*
X283264Y238085D01*
X283278Y238206D01*
X283287Y238328D01*
X283293Y238451D01*
X283295Y238573D01*
X283295Y243766D01*
X283295Y225463D02*
X267716Y225463D01*
X283295Y225463D02*
X283295Y217673D01*
X280698Y217673D01*
X291084Y201273D02*
X267716Y201273D01*
X267716Y207764D01*
X267718Y207886D01*
X267724Y208009D01*
X267733Y208131D01*
X267747Y208252D01*
X267764Y208373D01*
X267785Y208494D01*
X267810Y208614D01*
X267838Y208733D01*
X267871Y208851D01*
X267907Y208968D01*
X267946Y209083D01*
X267990Y209198D01*
X268036Y209311D01*
X268087Y209422D01*
X268141Y209532D01*
X268198Y209640D01*
X268258Y209747D01*
X268322Y209851D01*
X268390Y209953D01*
X268460Y210053D01*
X268533Y210151D01*
X268610Y210247D01*
X268689Y210340D01*
X268772Y210430D01*
X268857Y210518D01*
X268945Y210603D01*
X269035Y210686D01*
X269128Y210765D01*
X269224Y210842D01*
X269322Y210915D01*
X269422Y210985D01*
X269524Y211053D01*
X269628Y211117D01*
X269735Y211177D01*
X269843Y211234D01*
X269953Y211288D01*
X270064Y211339D01*
X270177Y211385D01*
X270292Y211429D01*
X270407Y211468D01*
X270524Y211504D01*
X270642Y211537D01*
X270761Y211565D01*
X270881Y211590D01*
X271002Y211611D01*
X271123Y211628D01*
X271244Y211642D01*
X271366Y211651D01*
X271489Y211657D01*
X271611Y211659D01*
X271611Y211658D02*
X279400Y211658D01*
X279400Y211659D02*
X279522Y211657D01*
X279645Y211651D01*
X279767Y211642D01*
X279888Y211628D01*
X280009Y211611D01*
X280130Y211590D01*
X280250Y211565D01*
X280369Y211537D01*
X280487Y211504D01*
X280604Y211468D01*
X280719Y211429D01*
X280834Y211385D01*
X280947Y211339D01*
X281058Y211288D01*
X281168Y211234D01*
X281276Y211177D01*
X281383Y211117D01*
X281487Y211053D01*
X281589Y210985D01*
X281689Y210915D01*
X281787Y210842D01*
X281883Y210765D01*
X281976Y210686D01*
X282066Y210603D01*
X282154Y210518D01*
X282239Y210430D01*
X282322Y210340D01*
X282401Y210247D01*
X282478Y210151D01*
X282551Y210053D01*
X282621Y209953D01*
X282689Y209851D01*
X282753Y209747D01*
X282813Y209640D01*
X282870Y209532D01*
X282924Y209422D01*
X282975Y209311D01*
X283021Y209198D01*
X283065Y209083D01*
X283104Y208968D01*
X283140Y208851D01*
X283173Y208733D01*
X283201Y208614D01*
X283226Y208494D01*
X283247Y208373D01*
X283264Y208252D01*
X283278Y208131D01*
X283287Y208009D01*
X283293Y207886D01*
X283295Y207764D01*
X283295Y201273D01*
X214884Y526433D02*
X191516Y526433D01*
X207095Y526433D02*
X207095Y519942D01*
X207093Y519820D01*
X207087Y519697D01*
X207078Y519575D01*
X207064Y519454D01*
X207047Y519333D01*
X207026Y519212D01*
X207001Y519092D01*
X206973Y518973D01*
X206940Y518855D01*
X206904Y518738D01*
X206865Y518623D01*
X206821Y518508D01*
X206775Y518395D01*
X206724Y518284D01*
X206670Y518174D01*
X206613Y518066D01*
X206553Y517959D01*
X206489Y517855D01*
X206421Y517753D01*
X206351Y517653D01*
X206278Y517555D01*
X206201Y517459D01*
X206122Y517366D01*
X206039Y517276D01*
X205954Y517188D01*
X205866Y517103D01*
X205776Y517020D01*
X205683Y516941D01*
X205587Y516864D01*
X205489Y516791D01*
X205389Y516721D01*
X205287Y516653D01*
X205183Y516589D01*
X205076Y516529D01*
X204968Y516472D01*
X204858Y516418D01*
X204747Y516367D01*
X204634Y516321D01*
X204519Y516277D01*
X204404Y516238D01*
X204287Y516202D01*
X204169Y516169D01*
X204050Y516141D01*
X203930Y516116D01*
X203809Y516095D01*
X203688Y516078D01*
X203567Y516064D01*
X203445Y516055D01*
X203322Y516049D01*
X203200Y516047D01*
X203200Y516048D02*
X191516Y516048D01*
X207095Y509212D02*
X207095Y501423D01*
X214884Y506616D02*
X195411Y506616D01*
X195289Y506614D01*
X195166Y506608D01*
X195044Y506599D01*
X194923Y506585D01*
X194802Y506568D01*
X194681Y506547D01*
X194561Y506522D01*
X194442Y506494D01*
X194324Y506461D01*
X194207Y506425D01*
X194092Y506386D01*
X193977Y506342D01*
X193864Y506296D01*
X193753Y506245D01*
X193643Y506191D01*
X193535Y506134D01*
X193428Y506074D01*
X193324Y506010D01*
X193222Y505942D01*
X193122Y505872D01*
X193024Y505799D01*
X192928Y505722D01*
X192835Y505643D01*
X192745Y505560D01*
X192657Y505475D01*
X192572Y505387D01*
X192489Y505297D01*
X192410Y505204D01*
X192333Y505108D01*
X192260Y505010D01*
X192190Y504910D01*
X192122Y504808D01*
X192058Y504704D01*
X191998Y504597D01*
X191941Y504489D01*
X191887Y504379D01*
X191836Y504268D01*
X191790Y504155D01*
X191746Y504040D01*
X191707Y503925D01*
X191671Y503808D01*
X191638Y503690D01*
X191610Y503571D01*
X191585Y503451D01*
X191564Y503330D01*
X191547Y503209D01*
X191533Y503088D01*
X191524Y502966D01*
X191518Y502843D01*
X191516Y502721D01*
X191516Y501423D01*
X207095Y495989D02*
X207095Y488199D01*
X214884Y493392D02*
X195411Y493392D01*
X195411Y493393D02*
X195289Y493391D01*
X195166Y493385D01*
X195044Y493376D01*
X194923Y493362D01*
X194802Y493345D01*
X194681Y493324D01*
X194561Y493299D01*
X194442Y493271D01*
X194324Y493238D01*
X194207Y493202D01*
X194092Y493163D01*
X193977Y493119D01*
X193864Y493073D01*
X193753Y493022D01*
X193643Y492968D01*
X193535Y492911D01*
X193428Y492851D01*
X193324Y492787D01*
X193222Y492719D01*
X193122Y492649D01*
X193024Y492576D01*
X192928Y492499D01*
X192835Y492420D01*
X192745Y492337D01*
X192657Y492252D01*
X192572Y492164D01*
X192489Y492074D01*
X192410Y491981D01*
X192333Y491885D01*
X192260Y491787D01*
X192190Y491687D01*
X192122Y491585D01*
X192058Y491481D01*
X191998Y491374D01*
X191941Y491266D01*
X191887Y491156D01*
X191836Y491045D01*
X191790Y490932D01*
X191746Y490817D01*
X191707Y490702D01*
X191671Y490585D01*
X191638Y490467D01*
X191610Y490348D01*
X191585Y490228D01*
X191564Y490107D01*
X191547Y489986D01*
X191533Y489865D01*
X191524Y489743D01*
X191518Y489620D01*
X191516Y489498D01*
X191516Y488199D01*
X183727Y480449D02*
X207095Y480449D01*
X207095Y473958D01*
X207093Y473836D01*
X207087Y473713D01*
X207078Y473591D01*
X207064Y473470D01*
X207047Y473349D01*
X207026Y473228D01*
X207001Y473108D01*
X206973Y472989D01*
X206940Y472871D01*
X206904Y472754D01*
X206865Y472639D01*
X206821Y472524D01*
X206775Y472411D01*
X206724Y472300D01*
X206670Y472190D01*
X206613Y472082D01*
X206553Y471975D01*
X206489Y471871D01*
X206421Y471769D01*
X206351Y471669D01*
X206278Y471571D01*
X206201Y471475D01*
X206122Y471382D01*
X206039Y471292D01*
X205954Y471204D01*
X205866Y471119D01*
X205776Y471036D01*
X205683Y470957D01*
X205587Y470880D01*
X205489Y470807D01*
X205389Y470737D01*
X205287Y470669D01*
X205183Y470605D01*
X205076Y470545D01*
X204968Y470488D01*
X204858Y470434D01*
X204747Y470383D01*
X204634Y470337D01*
X204519Y470293D01*
X204404Y470254D01*
X204287Y470218D01*
X204169Y470185D01*
X204050Y470157D01*
X203930Y470132D01*
X203809Y470111D01*
X203688Y470094D01*
X203567Y470080D01*
X203445Y470071D01*
X203322Y470065D01*
X203200Y470063D01*
X195411Y470063D01*
X195289Y470065D01*
X195166Y470071D01*
X195044Y470080D01*
X194923Y470094D01*
X194802Y470111D01*
X194681Y470132D01*
X194561Y470157D01*
X194442Y470185D01*
X194324Y470218D01*
X194207Y470254D01*
X194092Y470293D01*
X193977Y470337D01*
X193864Y470383D01*
X193753Y470434D01*
X193643Y470488D01*
X193535Y470545D01*
X193428Y470605D01*
X193324Y470669D01*
X193222Y470737D01*
X193122Y470807D01*
X193024Y470880D01*
X192928Y470957D01*
X192835Y471036D01*
X192745Y471119D01*
X192657Y471204D01*
X192572Y471292D01*
X192489Y471382D01*
X192410Y471475D01*
X192333Y471571D01*
X192260Y471669D01*
X192190Y471769D01*
X192122Y471871D01*
X192058Y471975D01*
X191998Y472082D01*
X191941Y472190D01*
X191887Y472300D01*
X191836Y472411D01*
X191790Y472524D01*
X191746Y472639D01*
X191707Y472754D01*
X191671Y472871D01*
X191638Y472989D01*
X191610Y473108D01*
X191585Y473228D01*
X191564Y473349D01*
X191547Y473470D01*
X191533Y473591D01*
X191524Y473713D01*
X191518Y473836D01*
X191516Y473958D01*
X191516Y480449D01*
X200604Y460458D02*
X198007Y453967D01*
X200604Y460458D02*
X200648Y460564D01*
X200697Y460669D01*
X200749Y460772D01*
X200804Y460873D01*
X200863Y460973D01*
X200925Y461070D01*
X200990Y461165D01*
X201059Y461257D01*
X201131Y461348D01*
X201205Y461435D01*
X201283Y461521D01*
X201364Y461603D01*
X201447Y461683D01*
X201533Y461759D01*
X201622Y461833D01*
X201713Y461904D01*
X201807Y461971D01*
X201903Y462035D01*
X202001Y462096D01*
X202100Y462154D01*
X202202Y462208D01*
X202306Y462258D01*
X202411Y462305D01*
X202518Y462349D01*
X202627Y462388D01*
X202736Y462424D01*
X202847Y462456D01*
X202959Y462485D01*
X203071Y462509D01*
X203185Y462530D01*
X203299Y462546D01*
X203414Y462559D01*
X203529Y462568D01*
X203644Y462573D01*
X203759Y462574D01*
X203874Y462571D01*
X203990Y462564D01*
X204104Y462553D01*
X204219Y462538D01*
X204332Y462519D01*
X204446Y462497D01*
X204558Y462470D01*
X204669Y462440D01*
X204779Y462406D01*
X204888Y462368D01*
X204996Y462327D01*
X205102Y462281D01*
X205206Y462232D01*
X205309Y462180D01*
X205410Y462124D01*
X205509Y462065D01*
X205606Y462002D01*
X205700Y461936D01*
X205793Y461867D01*
X205883Y461795D01*
X205970Y461720D01*
X206055Y461641D01*
X206137Y461560D01*
X206216Y461476D01*
X206292Y461390D01*
X206365Y461301D01*
X206435Y461209D01*
X206502Y461115D01*
X206566Y461019D01*
X206626Y460921D01*
X206683Y460821D01*
X206737Y460719D01*
X206787Y460615D01*
X206833Y460509D01*
X206876Y460402D01*
X206915Y460293D01*
X206950Y460184D01*
X206982Y460073D01*
X207010Y459961D01*
X207034Y459848D01*
X207054Y459734D01*
X207070Y459620D01*
X207082Y459506D01*
X207090Y459391D01*
X207094Y459275D01*
X207095Y459160D01*
X207094Y459160D02*
X207085Y458805D01*
X207067Y458451D01*
X207041Y458098D01*
X207006Y457745D01*
X206963Y457393D01*
X206911Y457042D01*
X206851Y456693D01*
X206782Y456345D01*
X206705Y455999D01*
X206620Y455655D01*
X206527Y455313D01*
X206425Y454974D01*
X206315Y454637D01*
X206198Y454302D01*
X206072Y453971D01*
X205938Y453643D01*
X205796Y453318D01*
X198007Y453967D02*
X197963Y453861D01*
X197914Y453756D01*
X197862Y453653D01*
X197807Y453552D01*
X197748Y453452D01*
X197686Y453355D01*
X197621Y453260D01*
X197552Y453168D01*
X197480Y453077D01*
X197406Y452990D01*
X197328Y452904D01*
X197247Y452822D01*
X197164Y452742D01*
X197078Y452666D01*
X196989Y452592D01*
X196898Y452521D01*
X196804Y452454D01*
X196708Y452390D01*
X196610Y452329D01*
X196511Y452271D01*
X196409Y452217D01*
X196305Y452167D01*
X196200Y452120D01*
X196093Y452076D01*
X195984Y452037D01*
X195875Y452001D01*
X195764Y451969D01*
X195652Y451940D01*
X195540Y451916D01*
X195426Y451895D01*
X195312Y451879D01*
X195197Y451866D01*
X195082Y451857D01*
X194967Y451852D01*
X194852Y451851D01*
X194737Y451854D01*
X194621Y451861D01*
X194507Y451872D01*
X194392Y451887D01*
X194279Y451906D01*
X194165Y451928D01*
X194053Y451955D01*
X193942Y451985D01*
X193832Y452019D01*
X193723Y452057D01*
X193615Y452098D01*
X193509Y452144D01*
X193405Y452193D01*
X193302Y452245D01*
X193201Y452301D01*
X193102Y452360D01*
X193005Y452423D01*
X192911Y452489D01*
X192818Y452558D01*
X192728Y452630D01*
X192641Y452705D01*
X192556Y452784D01*
X192474Y452865D01*
X192395Y452949D01*
X192319Y453035D01*
X192246Y453124D01*
X192176Y453216D01*
X192109Y453310D01*
X192045Y453406D01*
X191985Y453504D01*
X191928Y453604D01*
X191874Y453706D01*
X191824Y453810D01*
X191778Y453916D01*
X191735Y454023D01*
X191696Y454132D01*
X191661Y454241D01*
X191629Y454352D01*
X191601Y454464D01*
X191577Y454577D01*
X191557Y454691D01*
X191541Y454805D01*
X191529Y454919D01*
X191521Y455034D01*
X191517Y455150D01*
X191516Y455265D01*
X191530Y455786D01*
X191556Y456306D01*
X191594Y456825D01*
X191644Y457344D01*
X191707Y457861D01*
X191782Y458376D01*
X191869Y458889D01*
X191968Y459401D01*
X192080Y459909D01*
X192203Y460415D01*
X192338Y460918D01*
X192485Y461418D01*
X192644Y461914D01*
X192814Y462406D01*
X193463Y443942D02*
X194762Y443942D01*
X194762Y442644D01*
X193463Y442644D01*
X193463Y443942D01*
X203849Y443942D02*
X205147Y443942D01*
X205147Y442644D01*
X203849Y442644D01*
X203849Y443942D01*
X188920Y435263D02*
X217480Y424877D01*
X217480Y408174D02*
X188920Y418560D01*
X191516Y400414D02*
X214884Y400414D01*
X191516Y400414D02*
X191516Y393923D01*
X191518Y393801D01*
X191524Y393678D01*
X191533Y393556D01*
X191547Y393435D01*
X191564Y393314D01*
X191585Y393193D01*
X191610Y393073D01*
X191638Y392954D01*
X191671Y392836D01*
X191707Y392719D01*
X191746Y392604D01*
X191790Y392489D01*
X191836Y392376D01*
X191887Y392265D01*
X191941Y392155D01*
X191998Y392047D01*
X192058Y391940D01*
X192122Y391836D01*
X192190Y391734D01*
X192260Y391634D01*
X192333Y391536D01*
X192410Y391440D01*
X192489Y391347D01*
X192572Y391257D01*
X192657Y391169D01*
X192745Y391084D01*
X192835Y391001D01*
X192928Y390922D01*
X193024Y390845D01*
X193122Y390772D01*
X193222Y390702D01*
X193324Y390634D01*
X193428Y390570D01*
X193535Y390510D01*
X193643Y390453D01*
X193753Y390399D01*
X193864Y390348D01*
X193977Y390302D01*
X194092Y390258D01*
X194207Y390219D01*
X194324Y390183D01*
X194442Y390150D01*
X194561Y390122D01*
X194681Y390097D01*
X194802Y390076D01*
X194923Y390059D01*
X195044Y390045D01*
X195166Y390036D01*
X195289Y390030D01*
X195411Y390028D01*
X203200Y390028D01*
X203322Y390030D01*
X203445Y390036D01*
X203567Y390045D01*
X203688Y390059D01*
X203809Y390076D01*
X203930Y390097D01*
X204050Y390122D01*
X204169Y390150D01*
X204287Y390183D01*
X204404Y390219D01*
X204519Y390258D01*
X204634Y390302D01*
X204747Y390348D01*
X204858Y390399D01*
X204968Y390453D01*
X205076Y390510D01*
X205183Y390570D01*
X205287Y390634D01*
X205389Y390702D01*
X205489Y390772D01*
X205587Y390845D01*
X205683Y390922D01*
X205776Y391001D01*
X205866Y391084D01*
X205954Y391169D01*
X206039Y391257D01*
X206122Y391347D01*
X206201Y391440D01*
X206278Y391536D01*
X206351Y391634D01*
X206421Y391734D01*
X206489Y391836D01*
X206553Y391940D01*
X206613Y392047D01*
X206670Y392155D01*
X206724Y392265D01*
X206775Y392376D01*
X206821Y392489D01*
X206865Y392604D01*
X206904Y392719D01*
X206940Y392836D01*
X206973Y392954D01*
X207001Y393073D01*
X207026Y393193D01*
X207047Y393314D01*
X207064Y393435D01*
X207078Y393556D01*
X207087Y393678D01*
X207093Y393801D01*
X207095Y393923D01*
X207095Y400414D01*
X207095Y382049D02*
X191516Y382049D01*
X213586Y382698D02*
X214884Y382698D01*
X214884Y381400D01*
X213586Y381400D01*
X213586Y382698D01*
X207095Y375588D02*
X207095Y367799D01*
X214884Y372992D02*
X195411Y372992D01*
X195289Y372990D01*
X195166Y372984D01*
X195044Y372975D01*
X194923Y372961D01*
X194802Y372944D01*
X194681Y372923D01*
X194561Y372898D01*
X194442Y372870D01*
X194324Y372837D01*
X194207Y372801D01*
X194092Y372762D01*
X193977Y372718D01*
X193864Y372672D01*
X193753Y372621D01*
X193643Y372567D01*
X193535Y372510D01*
X193428Y372450D01*
X193324Y372386D01*
X193222Y372318D01*
X193122Y372248D01*
X193024Y372175D01*
X192928Y372098D01*
X192835Y372019D01*
X192745Y371936D01*
X192657Y371851D01*
X192572Y371763D01*
X192489Y371673D01*
X192410Y371580D01*
X192333Y371484D01*
X192260Y371386D01*
X192190Y371286D01*
X192122Y371184D01*
X192058Y371080D01*
X191998Y370973D01*
X191941Y370865D01*
X191887Y370755D01*
X191836Y370644D01*
X191790Y370531D01*
X191746Y370416D01*
X191707Y370301D01*
X191671Y370184D01*
X191638Y370066D01*
X191610Y369947D01*
X191585Y369827D01*
X191564Y369706D01*
X191547Y369585D01*
X191533Y369464D01*
X191524Y369342D01*
X191518Y369219D01*
X191516Y369097D01*
X191516Y367799D01*
X191516Y361123D02*
X192814Y361123D01*
X192814Y359825D01*
X191516Y359825D01*
X191516Y361123D01*
X195411Y351938D02*
X214884Y351938D01*
X195411Y351938D02*
X195289Y351936D01*
X195166Y351930D01*
X195044Y351921D01*
X194923Y351907D01*
X194802Y351890D01*
X194681Y351869D01*
X194561Y351844D01*
X194442Y351816D01*
X194324Y351783D01*
X194207Y351747D01*
X194092Y351708D01*
X193977Y351664D01*
X193864Y351618D01*
X193753Y351567D01*
X193643Y351513D01*
X193535Y351456D01*
X193428Y351396D01*
X193324Y351332D01*
X193222Y351264D01*
X193122Y351194D01*
X193024Y351121D01*
X192928Y351044D01*
X192835Y350965D01*
X192745Y350882D01*
X192657Y350797D01*
X192572Y350709D01*
X192489Y350619D01*
X192410Y350526D01*
X192333Y350430D01*
X192260Y350332D01*
X192190Y350232D01*
X192122Y350130D01*
X192058Y350026D01*
X191998Y349919D01*
X191941Y349811D01*
X191887Y349701D01*
X191836Y349590D01*
X191790Y349477D01*
X191746Y349362D01*
X191707Y349247D01*
X191671Y349130D01*
X191638Y349012D01*
X191610Y348893D01*
X191585Y348773D01*
X191564Y348652D01*
X191547Y348531D01*
X191533Y348410D01*
X191524Y348288D01*
X191518Y348165D01*
X191516Y348043D01*
X183727Y342005D02*
X183727Y339408D01*
X207095Y331619D01*
X207095Y342005D02*
X191516Y336812D01*
X188920Y325302D02*
X217480Y314916D01*
X207095Y307156D02*
X183727Y307156D01*
X207095Y307156D02*
X207095Y300665D01*
X207093Y300543D01*
X207087Y300420D01*
X207078Y300298D01*
X207064Y300177D01*
X207047Y300056D01*
X207026Y299935D01*
X207001Y299815D01*
X206973Y299696D01*
X206940Y299578D01*
X206904Y299461D01*
X206865Y299346D01*
X206821Y299231D01*
X206775Y299118D01*
X206724Y299007D01*
X206670Y298897D01*
X206613Y298789D01*
X206553Y298682D01*
X206489Y298578D01*
X206421Y298476D01*
X206351Y298376D01*
X206278Y298278D01*
X206201Y298182D01*
X206122Y298089D01*
X206039Y297999D01*
X205954Y297911D01*
X205866Y297826D01*
X205776Y297743D01*
X205683Y297664D01*
X205587Y297587D01*
X205489Y297514D01*
X205389Y297444D01*
X205287Y297376D01*
X205183Y297312D01*
X205076Y297252D01*
X204968Y297195D01*
X204858Y297141D01*
X204747Y297090D01*
X204634Y297044D01*
X204519Y297000D01*
X204404Y296961D01*
X204287Y296925D01*
X204169Y296892D01*
X204050Y296864D01*
X203930Y296839D01*
X203809Y296818D01*
X203688Y296801D01*
X203567Y296787D01*
X203445Y296778D01*
X203322Y296772D01*
X203200Y296770D01*
X195411Y296770D01*
X195289Y296772D01*
X195166Y296778D01*
X195044Y296787D01*
X194923Y296801D01*
X194802Y296818D01*
X194681Y296839D01*
X194561Y296864D01*
X194442Y296892D01*
X194324Y296925D01*
X194207Y296961D01*
X194092Y297000D01*
X193977Y297044D01*
X193864Y297090D01*
X193753Y297141D01*
X193643Y297195D01*
X193535Y297252D01*
X193428Y297312D01*
X193324Y297376D01*
X193222Y297444D01*
X193122Y297514D01*
X193024Y297587D01*
X192928Y297664D01*
X192835Y297743D01*
X192745Y297826D01*
X192657Y297911D01*
X192572Y297999D01*
X192489Y298089D01*
X192410Y298182D01*
X192333Y298278D01*
X192260Y298376D01*
X192190Y298476D01*
X192122Y298578D01*
X192058Y298682D01*
X191998Y298789D01*
X191941Y298897D01*
X191887Y299007D01*
X191836Y299118D01*
X191790Y299231D01*
X191746Y299346D01*
X191707Y299461D01*
X191671Y299578D01*
X191638Y299696D01*
X191610Y299815D01*
X191585Y299935D01*
X191564Y300056D01*
X191547Y300177D01*
X191533Y300298D01*
X191524Y300420D01*
X191518Y300543D01*
X191516Y300665D01*
X191516Y307156D01*
X191516Y285203D02*
X191516Y280010D01*
X191516Y285203D02*
X191518Y285325D01*
X191524Y285448D01*
X191533Y285570D01*
X191547Y285691D01*
X191564Y285812D01*
X191585Y285933D01*
X191610Y286053D01*
X191638Y286172D01*
X191671Y286290D01*
X191707Y286407D01*
X191746Y286522D01*
X191790Y286637D01*
X191836Y286750D01*
X191887Y286861D01*
X191941Y286971D01*
X191998Y287079D01*
X192058Y287186D01*
X192122Y287290D01*
X192190Y287392D01*
X192260Y287492D01*
X192333Y287590D01*
X192410Y287686D01*
X192489Y287779D01*
X192572Y287869D01*
X192657Y287957D01*
X192745Y288042D01*
X192835Y288125D01*
X192928Y288204D01*
X193024Y288281D01*
X193122Y288354D01*
X193222Y288424D01*
X193324Y288492D01*
X193428Y288556D01*
X193535Y288616D01*
X193643Y288673D01*
X193753Y288727D01*
X193864Y288778D01*
X193977Y288824D01*
X194092Y288868D01*
X194207Y288907D01*
X194324Y288943D01*
X194442Y288976D01*
X194561Y289004D01*
X194681Y289029D01*
X194802Y289050D01*
X194923Y289067D01*
X195044Y289081D01*
X195166Y289090D01*
X195289Y289096D01*
X195411Y289098D01*
X195411Y289097D02*
X203200Y289097D01*
X203200Y289098D02*
X203322Y289096D01*
X203445Y289090D01*
X203567Y289081D01*
X203688Y289067D01*
X203809Y289050D01*
X203930Y289029D01*
X204050Y289004D01*
X204169Y288976D01*
X204287Y288943D01*
X204404Y288907D01*
X204519Y288868D01*
X204634Y288824D01*
X204747Y288778D01*
X204858Y288727D01*
X204968Y288673D01*
X205076Y288616D01*
X205183Y288556D01*
X205287Y288492D01*
X205389Y288424D01*
X205489Y288354D01*
X205587Y288281D01*
X205683Y288204D01*
X205776Y288125D01*
X205866Y288042D01*
X205954Y287957D01*
X206039Y287869D01*
X206122Y287779D01*
X206201Y287686D01*
X206278Y287590D01*
X206351Y287492D01*
X206421Y287392D01*
X206489Y287290D01*
X206553Y287186D01*
X206613Y287079D01*
X206670Y286971D01*
X206724Y286861D01*
X206775Y286750D01*
X206821Y286637D01*
X206865Y286522D01*
X206904Y286407D01*
X206940Y286290D01*
X206973Y286172D01*
X207001Y286053D01*
X207026Y285933D01*
X207047Y285812D01*
X207064Y285691D01*
X207078Y285570D01*
X207087Y285448D01*
X207093Y285325D01*
X207095Y285203D01*
X207095Y280010D01*
X200604Y271157D02*
X198007Y264666D01*
X200604Y271157D02*
X200648Y271263D01*
X200697Y271368D01*
X200749Y271471D01*
X200804Y271572D01*
X200863Y271672D01*
X200925Y271769D01*
X200990Y271864D01*
X201059Y271956D01*
X201131Y272047D01*
X201205Y272134D01*
X201283Y272220D01*
X201364Y272302D01*
X201447Y272382D01*
X201533Y272458D01*
X201622Y272532D01*
X201713Y272603D01*
X201807Y272670D01*
X201903Y272734D01*
X202001Y272795D01*
X202100Y272853D01*
X202202Y272907D01*
X202306Y272957D01*
X202411Y273004D01*
X202518Y273048D01*
X202627Y273087D01*
X202736Y273123D01*
X202847Y273155D01*
X202959Y273184D01*
X203071Y273208D01*
X203185Y273229D01*
X203299Y273245D01*
X203414Y273258D01*
X203529Y273267D01*
X203644Y273272D01*
X203759Y273273D01*
X203874Y273270D01*
X203990Y273263D01*
X204104Y273252D01*
X204219Y273237D01*
X204332Y273218D01*
X204446Y273196D01*
X204558Y273169D01*
X204669Y273139D01*
X204779Y273105D01*
X204888Y273067D01*
X204996Y273026D01*
X205102Y272980D01*
X205206Y272931D01*
X205309Y272879D01*
X205410Y272823D01*
X205509Y272764D01*
X205606Y272701D01*
X205700Y272635D01*
X205793Y272566D01*
X205883Y272494D01*
X205970Y272419D01*
X206055Y272340D01*
X206137Y272259D01*
X206216Y272175D01*
X206292Y272089D01*
X206365Y272000D01*
X206435Y271908D01*
X206502Y271814D01*
X206566Y271718D01*
X206626Y271620D01*
X206683Y271520D01*
X206737Y271418D01*
X206787Y271314D01*
X206833Y271208D01*
X206876Y271101D01*
X206915Y270992D01*
X206950Y270883D01*
X206982Y270772D01*
X207010Y270660D01*
X207034Y270547D01*
X207054Y270433D01*
X207070Y270319D01*
X207082Y270205D01*
X207090Y270090D01*
X207094Y269974D01*
X207095Y269859D01*
X207094Y269860D02*
X207085Y269505D01*
X207067Y269151D01*
X207041Y268798D01*
X207006Y268445D01*
X206963Y268093D01*
X206911Y267742D01*
X206851Y267393D01*
X206782Y267045D01*
X206705Y266699D01*
X206620Y266355D01*
X206527Y266013D01*
X206425Y265674D01*
X206315Y265337D01*
X206198Y265002D01*
X206072Y264671D01*
X205938Y264343D01*
X205796Y264018D01*
X198007Y264666D02*
X197963Y264560D01*
X197914Y264455D01*
X197862Y264352D01*
X197807Y264251D01*
X197748Y264151D01*
X197686Y264054D01*
X197621Y263959D01*
X197552Y263867D01*
X197480Y263776D01*
X197406Y263689D01*
X197328Y263603D01*
X197247Y263521D01*
X197164Y263441D01*
X197078Y263365D01*
X196989Y263291D01*
X196898Y263220D01*
X196804Y263153D01*
X196708Y263089D01*
X196610Y263028D01*
X196511Y262970D01*
X196409Y262916D01*
X196305Y262866D01*
X196200Y262819D01*
X196093Y262775D01*
X195984Y262736D01*
X195875Y262700D01*
X195764Y262668D01*
X195652Y262639D01*
X195540Y262615D01*
X195426Y262594D01*
X195312Y262578D01*
X195197Y262565D01*
X195082Y262556D01*
X194967Y262551D01*
X194852Y262550D01*
X194737Y262553D01*
X194621Y262560D01*
X194507Y262571D01*
X194392Y262586D01*
X194279Y262605D01*
X194165Y262627D01*
X194053Y262654D01*
X193942Y262684D01*
X193832Y262718D01*
X193723Y262756D01*
X193615Y262797D01*
X193509Y262843D01*
X193405Y262892D01*
X193302Y262944D01*
X193201Y263000D01*
X193102Y263059D01*
X193005Y263122D01*
X192911Y263188D01*
X192818Y263257D01*
X192728Y263329D01*
X192641Y263404D01*
X192556Y263483D01*
X192474Y263564D01*
X192395Y263648D01*
X192319Y263734D01*
X192246Y263823D01*
X192176Y263915D01*
X192109Y264009D01*
X192045Y264105D01*
X191985Y264203D01*
X191928Y264303D01*
X191874Y264405D01*
X191824Y264509D01*
X191778Y264615D01*
X191735Y264722D01*
X191696Y264831D01*
X191661Y264940D01*
X191629Y265051D01*
X191601Y265163D01*
X191577Y265276D01*
X191557Y265390D01*
X191541Y265504D01*
X191529Y265618D01*
X191521Y265733D01*
X191517Y265849D01*
X191516Y265964D01*
X191530Y266485D01*
X191556Y267005D01*
X191594Y267524D01*
X191644Y268043D01*
X191707Y268560D01*
X191782Y269075D01*
X191869Y269588D01*
X191968Y270100D01*
X192080Y270608D01*
X192203Y271114D01*
X192338Y271617D01*
X192485Y272117D01*
X192644Y272613D01*
X192814Y273105D01*
X191516Y255706D02*
X207095Y245320D01*
X207095Y255706D02*
X191516Y245320D01*
X200604Y238119D02*
X200604Y222541D01*
X207095Y213884D02*
X191516Y213884D01*
X207095Y213884D02*
X207095Y206095D01*
X204498Y206095D01*
X191516Y196134D02*
X191516Y189643D01*
X191516Y196134D02*
X191518Y196256D01*
X191524Y196379D01*
X191533Y196501D01*
X191547Y196622D01*
X191564Y196743D01*
X191585Y196864D01*
X191610Y196984D01*
X191638Y197103D01*
X191671Y197221D01*
X191707Y197338D01*
X191746Y197453D01*
X191790Y197568D01*
X191836Y197681D01*
X191887Y197792D01*
X191941Y197902D01*
X191998Y198010D01*
X192058Y198117D01*
X192122Y198221D01*
X192190Y198323D01*
X192260Y198423D01*
X192333Y198521D01*
X192410Y198617D01*
X192489Y198710D01*
X192572Y198800D01*
X192657Y198888D01*
X192745Y198973D01*
X192835Y199056D01*
X192928Y199135D01*
X193024Y199212D01*
X193122Y199285D01*
X193222Y199355D01*
X193324Y199423D01*
X193428Y199487D01*
X193535Y199547D01*
X193643Y199604D01*
X193753Y199658D01*
X193864Y199709D01*
X193977Y199755D01*
X194092Y199799D01*
X194207Y199838D01*
X194324Y199874D01*
X194442Y199907D01*
X194561Y199935D01*
X194681Y199960D01*
X194802Y199981D01*
X194923Y199998D01*
X195044Y200012D01*
X195166Y200021D01*
X195289Y200027D01*
X195411Y200029D01*
X201902Y200029D01*
X202045Y200027D01*
X202188Y200021D01*
X202331Y200011D01*
X202473Y199997D01*
X202615Y199980D01*
X202757Y199958D01*
X202898Y199933D01*
X203038Y199903D01*
X203177Y199870D01*
X203315Y199833D01*
X203452Y199792D01*
X203588Y199748D01*
X203723Y199699D01*
X203856Y199647D01*
X203988Y199592D01*
X204118Y199532D01*
X204247Y199469D01*
X204374Y199403D01*
X204499Y199333D01*
X204621Y199260D01*
X204742Y199183D01*
X204861Y199103D01*
X204977Y199020D01*
X205092Y198934D01*
X205203Y198845D01*
X205313Y198752D01*
X205419Y198657D01*
X205523Y198558D01*
X205624Y198457D01*
X205723Y198353D01*
X205818Y198247D01*
X205911Y198137D01*
X206000Y198026D01*
X206086Y197911D01*
X206169Y197795D01*
X206249Y197676D01*
X206326Y197555D01*
X206399Y197432D01*
X206469Y197308D01*
X206535Y197181D01*
X206598Y197052D01*
X206658Y196922D01*
X206713Y196790D01*
X206765Y196657D01*
X206814Y196522D01*
X206858Y196386D01*
X206899Y196249D01*
X206936Y196111D01*
X206969Y195972D01*
X206999Y195832D01*
X207024Y195691D01*
X207046Y195549D01*
X207063Y195407D01*
X207077Y195265D01*
X207087Y195122D01*
X207093Y194979D01*
X207095Y194836D01*
X207093Y194693D01*
X207087Y194550D01*
X207077Y194407D01*
X207063Y194265D01*
X207046Y194123D01*
X207024Y193981D01*
X206999Y193840D01*
X206969Y193700D01*
X206936Y193561D01*
X206899Y193423D01*
X206858Y193286D01*
X206814Y193150D01*
X206765Y193015D01*
X206713Y192882D01*
X206658Y192750D01*
X206598Y192620D01*
X206535Y192491D01*
X206469Y192364D01*
X206399Y192239D01*
X206326Y192117D01*
X206249Y191996D01*
X206169Y191877D01*
X206086Y191761D01*
X206000Y191646D01*
X205911Y191535D01*
X205818Y191425D01*
X205723Y191319D01*
X205624Y191215D01*
X205523Y191114D01*
X205419Y191015D01*
X205313Y190920D01*
X205203Y190827D01*
X205092Y190738D01*
X204977Y190652D01*
X204861Y190569D01*
X204742Y190489D01*
X204621Y190412D01*
X204498Y190339D01*
X204374Y190269D01*
X204247Y190203D01*
X204118Y190140D01*
X203988Y190080D01*
X203856Y190025D01*
X203723Y189973D01*
X203588Y189924D01*
X203452Y189880D01*
X203315Y189839D01*
X203177Y189802D01*
X203038Y189769D01*
X202898Y189739D01*
X202757Y189714D01*
X202615Y189692D01*
X202473Y189675D01*
X202331Y189661D01*
X202188Y189651D01*
X202045Y189645D01*
X201902Y189643D01*
X199305Y189643D01*
X199305Y200029D01*
X191516Y171599D02*
X214884Y171599D01*
X191516Y171599D02*
X191516Y178091D01*
X191518Y178213D01*
X191524Y178336D01*
X191533Y178458D01*
X191547Y178579D01*
X191564Y178700D01*
X191585Y178821D01*
X191610Y178941D01*
X191638Y179060D01*
X191671Y179178D01*
X191707Y179295D01*
X191746Y179410D01*
X191790Y179525D01*
X191836Y179638D01*
X191887Y179749D01*
X191941Y179859D01*
X191998Y179967D01*
X192058Y180074D01*
X192122Y180178D01*
X192190Y180280D01*
X192260Y180380D01*
X192333Y180478D01*
X192410Y180574D01*
X192489Y180667D01*
X192572Y180757D01*
X192657Y180845D01*
X192745Y180930D01*
X192835Y181013D01*
X192928Y181092D01*
X193024Y181169D01*
X193122Y181242D01*
X193222Y181312D01*
X193324Y181380D01*
X193428Y181444D01*
X193535Y181504D01*
X193643Y181561D01*
X193753Y181615D01*
X193864Y181666D01*
X193977Y181712D01*
X194092Y181756D01*
X194207Y181795D01*
X194324Y181831D01*
X194442Y181864D01*
X194561Y181892D01*
X194681Y181917D01*
X194802Y181938D01*
X194923Y181955D01*
X195044Y181969D01*
X195166Y181978D01*
X195289Y181984D01*
X195411Y181986D01*
X195411Y181985D02*
X203200Y181985D01*
X203200Y181986D02*
X203322Y181984D01*
X203445Y181978D01*
X203567Y181969D01*
X203688Y181955D01*
X203809Y181938D01*
X203930Y181917D01*
X204050Y181892D01*
X204169Y181864D01*
X204287Y181831D01*
X204404Y181795D01*
X204519Y181756D01*
X204634Y181712D01*
X204747Y181666D01*
X204858Y181615D01*
X204968Y181561D01*
X205076Y181504D01*
X205183Y181444D01*
X205287Y181380D01*
X205389Y181312D01*
X205489Y181242D01*
X205587Y181169D01*
X205683Y181092D01*
X205776Y181013D01*
X205866Y180930D01*
X205954Y180845D01*
X206039Y180757D01*
X206122Y180667D01*
X206201Y180574D01*
X206278Y180478D01*
X206351Y180380D01*
X206421Y180280D01*
X206489Y180178D01*
X206553Y180074D01*
X206613Y179967D01*
X206670Y179859D01*
X206724Y179749D01*
X206775Y179638D01*
X206821Y179525D01*
X206865Y179410D01*
X206904Y179295D01*
X206940Y179178D01*
X206973Y179060D01*
X207001Y178941D01*
X207026Y178821D01*
X207047Y178700D01*
X207064Y178579D01*
X207078Y178458D01*
X207087Y178336D01*
X207093Y178213D01*
X207095Y178091D01*
X207095Y171599D01*
X207095Y162447D02*
X195411Y162447D01*
X195411Y162448D02*
X195289Y162446D01*
X195166Y162440D01*
X195044Y162431D01*
X194923Y162417D01*
X194802Y162400D01*
X194681Y162379D01*
X194561Y162354D01*
X194442Y162326D01*
X194324Y162293D01*
X194207Y162257D01*
X194092Y162218D01*
X193977Y162174D01*
X193864Y162128D01*
X193753Y162077D01*
X193643Y162023D01*
X193535Y161966D01*
X193428Y161906D01*
X193324Y161842D01*
X193222Y161774D01*
X193122Y161704D01*
X193024Y161631D01*
X192928Y161554D01*
X192835Y161475D01*
X192745Y161392D01*
X192657Y161307D01*
X192572Y161219D01*
X192489Y161129D01*
X192410Y161036D01*
X192333Y160940D01*
X192260Y160842D01*
X192190Y160742D01*
X192122Y160640D01*
X192058Y160536D01*
X191998Y160429D01*
X191941Y160321D01*
X191887Y160211D01*
X191836Y160100D01*
X191790Y159987D01*
X191746Y159872D01*
X191707Y159757D01*
X191671Y159640D01*
X191638Y159522D01*
X191610Y159403D01*
X191585Y159283D01*
X191564Y159162D01*
X191547Y159041D01*
X191533Y158920D01*
X191524Y158798D01*
X191518Y158675D01*
X191516Y158553D01*
X191516Y152062D01*
X207095Y152062D01*
X191516Y144352D02*
X207095Y133967D01*
X207095Y144352D02*
X191516Y133967D01*
D11*
X525653Y374126D02*
X533019Y374126D01*
X533019Y372080D01*
X533017Y371991D01*
X533011Y371902D01*
X533001Y371813D01*
X532988Y371725D01*
X532971Y371637D01*
X532949Y371550D01*
X532924Y371465D01*
X532896Y371380D01*
X532863Y371297D01*
X532827Y371215D01*
X532788Y371135D01*
X532745Y371057D01*
X532699Y370981D01*
X532649Y370906D01*
X532596Y370834D01*
X532540Y370765D01*
X532481Y370698D01*
X532420Y370633D01*
X532355Y370572D01*
X532288Y370513D01*
X532219Y370457D01*
X532147Y370404D01*
X532072Y370354D01*
X531996Y370308D01*
X531918Y370265D01*
X531838Y370226D01*
X531756Y370190D01*
X531673Y370157D01*
X531588Y370129D01*
X531503Y370104D01*
X531416Y370082D01*
X531328Y370065D01*
X531240Y370052D01*
X531151Y370042D01*
X531062Y370036D01*
X530973Y370034D01*
X530973Y370033D02*
X527699Y370033D01*
X527699Y370034D02*
X527610Y370036D01*
X527521Y370042D01*
X527432Y370052D01*
X527344Y370065D01*
X527256Y370082D01*
X527169Y370104D01*
X527084Y370129D01*
X526999Y370157D01*
X526916Y370190D01*
X526834Y370226D01*
X526754Y370265D01*
X526676Y370308D01*
X526600Y370354D01*
X526525Y370404D01*
X526453Y370457D01*
X526384Y370513D01*
X526317Y370572D01*
X526252Y370633D01*
X526191Y370698D01*
X526132Y370765D01*
X526076Y370834D01*
X526023Y370906D01*
X525973Y370981D01*
X525927Y371057D01*
X525884Y371135D01*
X525845Y371215D01*
X525809Y371297D01*
X525776Y371380D01*
X525748Y371465D01*
X525723Y371550D01*
X525701Y371637D01*
X525684Y371725D01*
X525671Y371813D01*
X525661Y371902D01*
X525655Y371991D01*
X525653Y372080D01*
X525653Y374126D01*
X532201Y366567D02*
X533019Y366567D01*
X533019Y362474D01*
X525653Y364521D01*
X525653Y348726D02*
X533019Y348726D01*
X533019Y346680D01*
X533017Y346591D01*
X533011Y346502D01*
X533001Y346413D01*
X532988Y346325D01*
X532971Y346237D01*
X532949Y346150D01*
X532924Y346065D01*
X532896Y345980D01*
X532863Y345897D01*
X532827Y345815D01*
X532788Y345735D01*
X532745Y345657D01*
X532699Y345581D01*
X532649Y345506D01*
X532596Y345434D01*
X532540Y345365D01*
X532481Y345298D01*
X532420Y345233D01*
X532355Y345172D01*
X532288Y345113D01*
X532219Y345057D01*
X532147Y345004D01*
X532072Y344954D01*
X531996Y344908D01*
X531918Y344865D01*
X531838Y344826D01*
X531756Y344790D01*
X531673Y344757D01*
X531588Y344729D01*
X531503Y344704D01*
X531416Y344682D01*
X531328Y344665D01*
X531240Y344652D01*
X531151Y344642D01*
X531062Y344636D01*
X530973Y344634D01*
X530973Y344633D02*
X527699Y344633D01*
X527699Y344634D02*
X527610Y344636D01*
X527521Y344642D01*
X527432Y344652D01*
X527344Y344665D01*
X527256Y344682D01*
X527169Y344704D01*
X527084Y344729D01*
X526999Y344757D01*
X526916Y344790D01*
X526834Y344826D01*
X526754Y344865D01*
X526676Y344908D01*
X526600Y344954D01*
X526525Y345004D01*
X526453Y345057D01*
X526384Y345113D01*
X526317Y345172D01*
X526252Y345233D01*
X526191Y345298D01*
X526132Y345365D01*
X526076Y345434D01*
X526023Y345506D01*
X525973Y345581D01*
X525927Y345657D01*
X525884Y345735D01*
X525845Y345815D01*
X525809Y345897D01*
X525776Y345980D01*
X525748Y346065D01*
X525723Y346150D01*
X525701Y346237D01*
X525684Y346325D01*
X525671Y346413D01*
X525661Y346502D01*
X525655Y346591D01*
X525653Y346680D01*
X525653Y348726D01*
X529745Y341167D02*
X529745Y338711D01*
X529743Y338631D01*
X529737Y338551D01*
X529727Y338471D01*
X529714Y338392D01*
X529696Y338313D01*
X529675Y338236D01*
X529649Y338160D01*
X529620Y338085D01*
X529588Y338011D01*
X529552Y337939D01*
X529512Y337869D01*
X529469Y337802D01*
X529423Y337736D01*
X529373Y337673D01*
X529321Y337612D01*
X529266Y337553D01*
X529207Y337498D01*
X529147Y337446D01*
X529083Y337396D01*
X529017Y337350D01*
X528950Y337307D01*
X528880Y337267D01*
X528808Y337231D01*
X528734Y337199D01*
X528660Y337170D01*
X528583Y337144D01*
X528506Y337123D01*
X528427Y337105D01*
X528348Y337092D01*
X528268Y337082D01*
X528188Y337076D01*
X528108Y337074D01*
X527699Y337074D01*
X527610Y337076D01*
X527521Y337082D01*
X527432Y337092D01*
X527344Y337105D01*
X527256Y337122D01*
X527169Y337144D01*
X527084Y337169D01*
X526999Y337197D01*
X526916Y337230D01*
X526834Y337266D01*
X526754Y337305D01*
X526676Y337348D01*
X526600Y337394D01*
X526525Y337444D01*
X526453Y337497D01*
X526384Y337553D01*
X526317Y337612D01*
X526252Y337673D01*
X526191Y337738D01*
X526132Y337805D01*
X526076Y337874D01*
X526023Y337946D01*
X525973Y338021D01*
X525927Y338097D01*
X525884Y338175D01*
X525845Y338255D01*
X525809Y338337D01*
X525776Y338420D01*
X525748Y338505D01*
X525723Y338590D01*
X525701Y338677D01*
X525684Y338765D01*
X525671Y338853D01*
X525661Y338942D01*
X525655Y339031D01*
X525653Y339120D01*
X525655Y339209D01*
X525661Y339298D01*
X525671Y339387D01*
X525684Y339475D01*
X525701Y339563D01*
X525723Y339650D01*
X525748Y339735D01*
X525776Y339820D01*
X525809Y339903D01*
X525845Y339985D01*
X525884Y340065D01*
X525927Y340143D01*
X525973Y340219D01*
X526023Y340294D01*
X526076Y340366D01*
X526132Y340435D01*
X526191Y340502D01*
X526252Y340567D01*
X526317Y340628D01*
X526384Y340687D01*
X526453Y340743D01*
X526525Y340796D01*
X526600Y340846D01*
X526676Y340892D01*
X526754Y340935D01*
X526834Y340974D01*
X526916Y341010D01*
X526999Y341043D01*
X527084Y341071D01*
X527169Y341096D01*
X527256Y341118D01*
X527344Y341135D01*
X527432Y341148D01*
X527521Y341158D01*
X527610Y341164D01*
X527699Y341166D01*
X527699Y341167D02*
X529745Y341167D01*
X529859Y341165D01*
X529973Y341159D01*
X530087Y341149D01*
X530201Y341135D01*
X530314Y341117D01*
X530426Y341095D01*
X530537Y341070D01*
X530647Y341040D01*
X530757Y341007D01*
X530865Y340970D01*
X530971Y340929D01*
X531077Y340884D01*
X531180Y340836D01*
X531282Y340784D01*
X531382Y340728D01*
X531480Y340670D01*
X531576Y340607D01*
X531669Y340542D01*
X531761Y340473D01*
X531849Y340401D01*
X531936Y340326D01*
X532019Y340248D01*
X532100Y340167D01*
X532178Y340084D01*
X532253Y339997D01*
X532325Y339909D01*
X532394Y339817D01*
X532459Y339724D01*
X532521Y339628D01*
X532580Y339530D01*
X532636Y339430D01*
X532688Y339328D01*
X532736Y339225D01*
X532781Y339119D01*
X532822Y339013D01*
X532859Y338905D01*
X532892Y338795D01*
X532922Y338685D01*
X532947Y338574D01*
X532969Y338462D01*
X532987Y338349D01*
X533001Y338235D01*
X533011Y338121D01*
X533017Y338007D01*
X533019Y337893D01*
X533019Y323326D02*
X525653Y323326D01*
X533019Y323326D02*
X533019Y321280D01*
X533017Y321191D01*
X533011Y321102D01*
X533001Y321013D01*
X532988Y320925D01*
X532971Y320837D01*
X532949Y320750D01*
X532924Y320665D01*
X532896Y320580D01*
X532863Y320497D01*
X532827Y320415D01*
X532788Y320335D01*
X532745Y320257D01*
X532699Y320181D01*
X532649Y320106D01*
X532596Y320034D01*
X532540Y319965D01*
X532481Y319898D01*
X532420Y319833D01*
X532355Y319772D01*
X532288Y319713D01*
X532219Y319657D01*
X532147Y319604D01*
X532072Y319554D01*
X531996Y319508D01*
X531918Y319465D01*
X531838Y319426D01*
X531756Y319390D01*
X531673Y319357D01*
X531588Y319329D01*
X531503Y319304D01*
X531416Y319282D01*
X531328Y319265D01*
X531240Y319252D01*
X531151Y319242D01*
X531062Y319236D01*
X530973Y319234D01*
X530973Y319233D02*
X527699Y319233D01*
X527699Y319234D02*
X527610Y319236D01*
X527521Y319242D01*
X527432Y319252D01*
X527344Y319265D01*
X527256Y319282D01*
X527169Y319304D01*
X527084Y319329D01*
X526999Y319357D01*
X526916Y319390D01*
X526834Y319426D01*
X526754Y319465D01*
X526676Y319508D01*
X526600Y319554D01*
X526525Y319604D01*
X526453Y319657D01*
X526384Y319713D01*
X526317Y319772D01*
X526252Y319833D01*
X526191Y319898D01*
X526132Y319965D01*
X526076Y320034D01*
X526023Y320106D01*
X525973Y320181D01*
X525927Y320257D01*
X525884Y320335D01*
X525845Y320415D01*
X525809Y320497D01*
X525776Y320580D01*
X525748Y320665D01*
X525723Y320750D01*
X525701Y320837D01*
X525684Y320925D01*
X525671Y321013D01*
X525661Y321102D01*
X525655Y321191D01*
X525653Y321280D01*
X525653Y323326D01*
X525653Y315767D02*
X525653Y313311D01*
X525655Y313231D01*
X525661Y313151D01*
X525671Y313071D01*
X525684Y312992D01*
X525702Y312913D01*
X525723Y312836D01*
X525749Y312760D01*
X525778Y312685D01*
X525810Y312611D01*
X525846Y312539D01*
X525886Y312469D01*
X525929Y312402D01*
X525975Y312336D01*
X526025Y312273D01*
X526077Y312212D01*
X526132Y312153D01*
X526191Y312098D01*
X526251Y312046D01*
X526315Y311996D01*
X526380Y311950D01*
X526448Y311907D01*
X526518Y311867D01*
X526590Y311831D01*
X526664Y311799D01*
X526738Y311770D01*
X526815Y311745D01*
X526892Y311723D01*
X526971Y311705D01*
X527050Y311692D01*
X527129Y311682D01*
X527210Y311676D01*
X527290Y311674D01*
X528108Y311674D01*
X528186Y311676D01*
X528264Y311681D01*
X528341Y311691D01*
X528418Y311704D01*
X528494Y311720D01*
X528569Y311740D01*
X528643Y311764D01*
X528716Y311791D01*
X528788Y311822D01*
X528858Y311856D01*
X528927Y311893D01*
X528993Y311934D01*
X529058Y311978D01*
X529120Y312024D01*
X529180Y312074D01*
X529238Y312126D01*
X529293Y312181D01*
X529345Y312239D01*
X529395Y312299D01*
X529441Y312361D01*
X529485Y312426D01*
X529526Y312493D01*
X529563Y312561D01*
X529597Y312631D01*
X529628Y312703D01*
X529655Y312776D01*
X529679Y312850D01*
X529699Y312925D01*
X529715Y313001D01*
X529728Y313078D01*
X529738Y313155D01*
X529743Y313233D01*
X529745Y313311D01*
X529745Y315767D01*
X533019Y315767D01*
X533019Y311674D01*
X533019Y297926D02*
X525653Y297926D01*
X533019Y297926D02*
X533019Y295880D01*
X533017Y295791D01*
X533011Y295702D01*
X533001Y295613D01*
X532988Y295525D01*
X532971Y295437D01*
X532949Y295350D01*
X532924Y295265D01*
X532896Y295180D01*
X532863Y295097D01*
X532827Y295015D01*
X532788Y294935D01*
X532745Y294857D01*
X532699Y294781D01*
X532649Y294706D01*
X532596Y294634D01*
X532540Y294565D01*
X532481Y294498D01*
X532420Y294433D01*
X532355Y294372D01*
X532288Y294313D01*
X532219Y294257D01*
X532147Y294204D01*
X532072Y294154D01*
X531996Y294108D01*
X531918Y294065D01*
X531838Y294026D01*
X531756Y293990D01*
X531673Y293957D01*
X531588Y293929D01*
X531503Y293904D01*
X531416Y293882D01*
X531328Y293865D01*
X531240Y293852D01*
X531151Y293842D01*
X531062Y293836D01*
X530973Y293834D01*
X530973Y293833D02*
X527699Y293833D01*
X527699Y293834D02*
X527610Y293836D01*
X527521Y293842D01*
X527432Y293852D01*
X527344Y293865D01*
X527256Y293882D01*
X527169Y293904D01*
X527084Y293929D01*
X526999Y293957D01*
X526916Y293990D01*
X526834Y294026D01*
X526754Y294065D01*
X526676Y294108D01*
X526600Y294154D01*
X526525Y294204D01*
X526453Y294257D01*
X526384Y294313D01*
X526317Y294372D01*
X526252Y294433D01*
X526191Y294498D01*
X526132Y294565D01*
X526076Y294634D01*
X526023Y294706D01*
X525973Y294781D01*
X525927Y294857D01*
X525884Y294935D01*
X525845Y295015D01*
X525809Y295097D01*
X525776Y295180D01*
X525748Y295265D01*
X525723Y295350D01*
X525701Y295437D01*
X525684Y295525D01*
X525671Y295613D01*
X525661Y295702D01*
X525655Y295791D01*
X525653Y295880D01*
X525653Y297926D01*
X527290Y290367D02*
X533019Y288730D01*
X527290Y290367D02*
X527290Y286274D01*
X528927Y287502D02*
X525653Y287502D01*
X525653Y272526D02*
X533019Y272526D01*
X533019Y270480D01*
X533017Y270391D01*
X533011Y270302D01*
X533001Y270213D01*
X532988Y270125D01*
X532971Y270037D01*
X532949Y269950D01*
X532924Y269865D01*
X532896Y269780D01*
X532863Y269697D01*
X532827Y269615D01*
X532788Y269535D01*
X532745Y269457D01*
X532699Y269381D01*
X532649Y269306D01*
X532596Y269234D01*
X532540Y269165D01*
X532481Y269098D01*
X532420Y269033D01*
X532355Y268972D01*
X532288Y268913D01*
X532219Y268857D01*
X532147Y268804D01*
X532072Y268754D01*
X531996Y268708D01*
X531918Y268665D01*
X531838Y268626D01*
X531756Y268590D01*
X531673Y268557D01*
X531588Y268529D01*
X531503Y268504D01*
X531416Y268482D01*
X531328Y268465D01*
X531240Y268452D01*
X531151Y268442D01*
X531062Y268436D01*
X530973Y268434D01*
X530973Y268433D02*
X527699Y268433D01*
X527699Y268434D02*
X527610Y268436D01*
X527521Y268442D01*
X527432Y268452D01*
X527344Y268465D01*
X527256Y268482D01*
X527169Y268504D01*
X527084Y268529D01*
X526999Y268557D01*
X526916Y268590D01*
X526834Y268626D01*
X526754Y268665D01*
X526676Y268708D01*
X526600Y268754D01*
X526525Y268804D01*
X526453Y268857D01*
X526384Y268913D01*
X526317Y268972D01*
X526252Y269033D01*
X526191Y269098D01*
X526132Y269165D01*
X526076Y269234D01*
X526023Y269306D01*
X525973Y269381D01*
X525927Y269457D01*
X525884Y269535D01*
X525845Y269615D01*
X525809Y269697D01*
X525776Y269780D01*
X525748Y269865D01*
X525723Y269950D01*
X525701Y270037D01*
X525684Y270125D01*
X525671Y270213D01*
X525661Y270302D01*
X525655Y270391D01*
X525653Y270480D01*
X525653Y272526D01*
X525653Y264967D02*
X525653Y262921D01*
X525655Y262832D01*
X525661Y262743D01*
X525671Y262654D01*
X525684Y262566D01*
X525701Y262478D01*
X525723Y262391D01*
X525748Y262306D01*
X525776Y262221D01*
X525809Y262138D01*
X525845Y262056D01*
X525884Y261976D01*
X525927Y261898D01*
X525973Y261822D01*
X526023Y261747D01*
X526076Y261675D01*
X526132Y261606D01*
X526191Y261539D01*
X526252Y261474D01*
X526317Y261413D01*
X526384Y261354D01*
X526453Y261298D01*
X526525Y261245D01*
X526600Y261195D01*
X526676Y261149D01*
X526754Y261106D01*
X526834Y261067D01*
X526916Y261031D01*
X526999Y260998D01*
X527084Y260970D01*
X527169Y260945D01*
X527256Y260923D01*
X527344Y260906D01*
X527432Y260893D01*
X527521Y260883D01*
X527610Y260877D01*
X527699Y260875D01*
X527788Y260877D01*
X527877Y260883D01*
X527966Y260893D01*
X528054Y260906D01*
X528142Y260923D01*
X528229Y260945D01*
X528314Y260970D01*
X528399Y260998D01*
X528482Y261031D01*
X528564Y261067D01*
X528644Y261106D01*
X528722Y261149D01*
X528798Y261195D01*
X528873Y261245D01*
X528945Y261298D01*
X529014Y261354D01*
X529081Y261413D01*
X529146Y261474D01*
X529207Y261539D01*
X529266Y261606D01*
X529322Y261675D01*
X529375Y261747D01*
X529425Y261822D01*
X529471Y261898D01*
X529514Y261976D01*
X529553Y262056D01*
X529589Y262138D01*
X529622Y262221D01*
X529650Y262306D01*
X529675Y262391D01*
X529697Y262478D01*
X529714Y262566D01*
X529727Y262654D01*
X529737Y262743D01*
X529743Y262832D01*
X529745Y262921D01*
X533019Y262511D02*
X533019Y264967D01*
X533019Y262511D02*
X533017Y262432D01*
X533011Y262353D01*
X533002Y262274D01*
X532989Y262196D01*
X532971Y262119D01*
X532951Y262043D01*
X532926Y261968D01*
X532898Y261894D01*
X532867Y261821D01*
X532831Y261750D01*
X532793Y261681D01*
X532751Y261614D01*
X532706Y261549D01*
X532658Y261486D01*
X532607Y261425D01*
X532553Y261368D01*
X532497Y261312D01*
X532438Y261260D01*
X532376Y261210D01*
X532312Y261164D01*
X532246Y261120D01*
X532178Y261080D01*
X532108Y261044D01*
X532036Y261010D01*
X531962Y260980D01*
X531888Y260954D01*
X531812Y260931D01*
X531735Y260913D01*
X531658Y260897D01*
X531579Y260886D01*
X531501Y260878D01*
X531422Y260874D01*
X531342Y260874D01*
X531263Y260878D01*
X531185Y260886D01*
X531106Y260897D01*
X531029Y260913D01*
X530952Y260931D01*
X530876Y260954D01*
X530802Y260980D01*
X530728Y261010D01*
X530656Y261044D01*
X530586Y261080D01*
X530518Y261120D01*
X530452Y261164D01*
X530388Y261210D01*
X530326Y261260D01*
X530267Y261312D01*
X530211Y261368D01*
X530157Y261425D01*
X530106Y261486D01*
X530058Y261549D01*
X530013Y261614D01*
X529971Y261681D01*
X529933Y261750D01*
X529897Y261821D01*
X529866Y261894D01*
X529838Y261968D01*
X529813Y262043D01*
X529793Y262119D01*
X529775Y262196D01*
X529762Y262274D01*
X529753Y262353D01*
X529747Y262432D01*
X529745Y262511D01*
X529745Y264148D01*
X533019Y247126D02*
X525653Y247126D01*
X533019Y247126D02*
X533019Y245080D01*
X533017Y244991D01*
X533011Y244902D01*
X533001Y244813D01*
X532988Y244725D01*
X532971Y244637D01*
X532949Y244550D01*
X532924Y244465D01*
X532896Y244380D01*
X532863Y244297D01*
X532827Y244215D01*
X532788Y244135D01*
X532745Y244057D01*
X532699Y243981D01*
X532649Y243906D01*
X532596Y243834D01*
X532540Y243765D01*
X532481Y243698D01*
X532420Y243633D01*
X532355Y243572D01*
X532288Y243513D01*
X532219Y243457D01*
X532147Y243404D01*
X532072Y243354D01*
X531996Y243308D01*
X531918Y243265D01*
X531838Y243226D01*
X531756Y243190D01*
X531673Y243157D01*
X531588Y243129D01*
X531503Y243104D01*
X531416Y243082D01*
X531328Y243065D01*
X531240Y243052D01*
X531151Y243042D01*
X531062Y243036D01*
X530973Y243034D01*
X530973Y243033D02*
X527699Y243033D01*
X527699Y243034D02*
X527610Y243036D01*
X527521Y243042D01*
X527432Y243052D01*
X527344Y243065D01*
X527256Y243082D01*
X527169Y243104D01*
X527084Y243129D01*
X526999Y243157D01*
X526916Y243190D01*
X526834Y243226D01*
X526754Y243265D01*
X526676Y243308D01*
X526600Y243354D01*
X526525Y243404D01*
X526453Y243457D01*
X526384Y243513D01*
X526317Y243572D01*
X526252Y243633D01*
X526191Y243698D01*
X526132Y243765D01*
X526076Y243834D01*
X526023Y243906D01*
X525973Y243981D01*
X525927Y244057D01*
X525884Y244135D01*
X525845Y244215D01*
X525809Y244297D01*
X525776Y244380D01*
X525748Y244465D01*
X525723Y244550D01*
X525701Y244637D01*
X525684Y244725D01*
X525671Y244813D01*
X525661Y244902D01*
X525655Y244991D01*
X525653Y245080D01*
X525653Y247126D01*
X533020Y237316D02*
X533018Y237231D01*
X533012Y237146D01*
X533002Y237062D01*
X532989Y236978D01*
X532971Y236894D01*
X532950Y236812D01*
X532925Y236731D01*
X532896Y236651D01*
X532863Y236572D01*
X532827Y236495D01*
X532787Y236420D01*
X532744Y236346D01*
X532698Y236275D01*
X532648Y236206D01*
X532595Y236139D01*
X532539Y236075D01*
X532480Y236014D01*
X532419Y235955D01*
X532355Y235899D01*
X532288Y235846D01*
X532219Y235796D01*
X532148Y235750D01*
X532074Y235707D01*
X531999Y235667D01*
X531922Y235631D01*
X531843Y235598D01*
X531763Y235569D01*
X531682Y235544D01*
X531600Y235523D01*
X531516Y235505D01*
X531432Y235492D01*
X531348Y235482D01*
X531263Y235476D01*
X531178Y235474D01*
X533019Y237316D02*
X533017Y237412D01*
X533011Y237508D01*
X533001Y237603D01*
X532988Y237698D01*
X532970Y237793D01*
X532949Y237886D01*
X532924Y237979D01*
X532895Y238070D01*
X532863Y238161D01*
X532827Y238250D01*
X532787Y238337D01*
X532744Y238423D01*
X532698Y238507D01*
X532648Y238589D01*
X532594Y238669D01*
X532538Y238746D01*
X532478Y238821D01*
X532416Y238894D01*
X532350Y238964D01*
X532282Y239032D01*
X532211Y239097D01*
X532138Y239158D01*
X532062Y239217D01*
X531983Y239273D01*
X531903Y239325D01*
X531820Y239374D01*
X531736Y239420D01*
X531650Y239462D01*
X531562Y239500D01*
X531473Y239535D01*
X531382Y239567D01*
X529746Y236088D02*
X529805Y236028D01*
X529867Y235971D01*
X529931Y235916D01*
X529998Y235865D01*
X530067Y235816D01*
X530137Y235770D01*
X530210Y235727D01*
X530284Y235687D01*
X530360Y235651D01*
X530438Y235618D01*
X530517Y235588D01*
X530597Y235561D01*
X530678Y235538D01*
X530760Y235519D01*
X530842Y235503D01*
X530926Y235490D01*
X531010Y235481D01*
X531094Y235476D01*
X531178Y235474D01*
X529745Y236088D02*
X525653Y239567D01*
X525653Y235474D01*
X525653Y221726D02*
X533019Y221726D01*
X533019Y219680D01*
X533017Y219591D01*
X533011Y219502D01*
X533001Y219413D01*
X532988Y219325D01*
X532971Y219237D01*
X532949Y219150D01*
X532924Y219065D01*
X532896Y218980D01*
X532863Y218897D01*
X532827Y218815D01*
X532788Y218735D01*
X532745Y218657D01*
X532699Y218581D01*
X532649Y218506D01*
X532596Y218434D01*
X532540Y218365D01*
X532481Y218298D01*
X532420Y218233D01*
X532355Y218172D01*
X532288Y218113D01*
X532219Y218057D01*
X532147Y218004D01*
X532072Y217954D01*
X531996Y217908D01*
X531918Y217865D01*
X531838Y217826D01*
X531756Y217790D01*
X531673Y217757D01*
X531588Y217729D01*
X531503Y217704D01*
X531416Y217682D01*
X531328Y217665D01*
X531240Y217652D01*
X531151Y217642D01*
X531062Y217636D01*
X530973Y217634D01*
X530973Y217633D02*
X527699Y217633D01*
X527699Y217634D02*
X527610Y217636D01*
X527521Y217642D01*
X527432Y217652D01*
X527344Y217665D01*
X527256Y217682D01*
X527169Y217704D01*
X527084Y217729D01*
X526999Y217757D01*
X526916Y217790D01*
X526834Y217826D01*
X526754Y217865D01*
X526676Y217908D01*
X526600Y217954D01*
X526525Y218004D01*
X526453Y218057D01*
X526384Y218113D01*
X526317Y218172D01*
X526252Y218233D01*
X526191Y218298D01*
X526132Y218365D01*
X526076Y218434D01*
X526023Y218506D01*
X525973Y218581D01*
X525927Y218657D01*
X525884Y218735D01*
X525845Y218815D01*
X525809Y218897D01*
X525776Y218980D01*
X525748Y219065D01*
X525723Y219150D01*
X525701Y219237D01*
X525684Y219325D01*
X525671Y219413D01*
X525661Y219502D01*
X525655Y219591D01*
X525653Y219680D01*
X525653Y221726D01*
X531382Y214167D02*
X533019Y212121D01*
X525653Y212121D01*
X525653Y214167D02*
X525653Y210074D01*
X525653Y196326D02*
X533019Y196326D01*
X533019Y194280D01*
X533017Y194191D01*
X533011Y194102D01*
X533001Y194013D01*
X532988Y193925D01*
X532971Y193837D01*
X532949Y193750D01*
X532924Y193665D01*
X532896Y193580D01*
X532863Y193497D01*
X532827Y193415D01*
X532788Y193335D01*
X532745Y193257D01*
X532699Y193181D01*
X532649Y193106D01*
X532596Y193034D01*
X532540Y192965D01*
X532481Y192898D01*
X532420Y192833D01*
X532355Y192772D01*
X532288Y192713D01*
X532219Y192657D01*
X532147Y192604D01*
X532072Y192554D01*
X531996Y192508D01*
X531918Y192465D01*
X531838Y192426D01*
X531756Y192390D01*
X531673Y192357D01*
X531588Y192329D01*
X531503Y192304D01*
X531416Y192282D01*
X531328Y192265D01*
X531240Y192252D01*
X531151Y192242D01*
X531062Y192236D01*
X530973Y192234D01*
X530973Y192233D02*
X527699Y192233D01*
X527699Y192234D02*
X527610Y192236D01*
X527521Y192242D01*
X527432Y192252D01*
X527344Y192265D01*
X527256Y192282D01*
X527169Y192304D01*
X527084Y192329D01*
X526999Y192357D01*
X526916Y192390D01*
X526834Y192426D01*
X526754Y192465D01*
X526676Y192508D01*
X526600Y192554D01*
X526525Y192604D01*
X526453Y192657D01*
X526384Y192713D01*
X526317Y192772D01*
X526252Y192833D01*
X526191Y192898D01*
X526132Y192965D01*
X526076Y193034D01*
X526023Y193106D01*
X525973Y193181D01*
X525927Y193257D01*
X525884Y193335D01*
X525845Y193415D01*
X525809Y193497D01*
X525776Y193580D01*
X525748Y193665D01*
X525723Y193750D01*
X525701Y193837D01*
X525684Y193925D01*
X525671Y194013D01*
X525661Y194102D01*
X525655Y194191D01*
X525653Y194280D01*
X525653Y196326D01*
X529336Y188766D02*
X529489Y188764D01*
X529642Y188758D01*
X529794Y188749D01*
X529947Y188735D01*
X530099Y188718D01*
X530250Y188697D01*
X530401Y188672D01*
X530551Y188643D01*
X530701Y188611D01*
X530849Y188574D01*
X530997Y188534D01*
X531144Y188491D01*
X531289Y188443D01*
X531433Y188392D01*
X531576Y188338D01*
X531718Y188279D01*
X531857Y188218D01*
X531996Y188152D01*
X531996Y188153D02*
X532066Y188127D01*
X532135Y188097D01*
X532203Y188065D01*
X532269Y188028D01*
X532333Y187989D01*
X532395Y187946D01*
X532454Y187901D01*
X532512Y187852D01*
X532566Y187801D01*
X532619Y187747D01*
X532668Y187690D01*
X532715Y187631D01*
X532758Y187570D01*
X532799Y187507D01*
X532836Y187442D01*
X532871Y187375D01*
X532901Y187306D01*
X532929Y187236D01*
X532952Y187165D01*
X532973Y187093D01*
X532989Y187020D01*
X533002Y186946D01*
X533012Y186871D01*
X533017Y186796D01*
X533019Y186721D01*
X533017Y186646D01*
X533012Y186571D01*
X533002Y186496D01*
X532989Y186422D01*
X532973Y186349D01*
X532952Y186277D01*
X532929Y186206D01*
X532901Y186136D01*
X532871Y186067D01*
X532836Y186000D01*
X532799Y185935D01*
X532758Y185872D01*
X532715Y185811D01*
X532668Y185752D01*
X532619Y185695D01*
X532566Y185641D01*
X532512Y185590D01*
X532454Y185542D01*
X532395Y185496D01*
X532333Y185453D01*
X532269Y185414D01*
X532203Y185378D01*
X532136Y185345D01*
X532066Y185315D01*
X531996Y185289D01*
X531996Y185288D02*
X531858Y185223D01*
X531718Y185161D01*
X531576Y185103D01*
X531433Y185048D01*
X531289Y184997D01*
X531144Y184949D01*
X530997Y184906D01*
X530850Y184866D01*
X530701Y184829D01*
X530551Y184797D01*
X530401Y184768D01*
X530250Y184743D01*
X530099Y184722D01*
X529947Y184705D01*
X529794Y184691D01*
X529642Y184682D01*
X529489Y184676D01*
X529336Y184674D01*
X529336Y188767D02*
X529183Y188765D01*
X529030Y188759D01*
X528877Y188750D01*
X528725Y188736D01*
X528573Y188719D01*
X528422Y188698D01*
X528271Y188673D01*
X528120Y188644D01*
X527971Y188612D01*
X527822Y188575D01*
X527675Y188535D01*
X527528Y188492D01*
X527383Y188444D01*
X527238Y188393D01*
X527096Y188338D01*
X526954Y188280D01*
X526814Y188218D01*
X526676Y188153D01*
X526606Y188127D01*
X526536Y188097D01*
X526469Y188065D01*
X526403Y188028D01*
X526339Y187989D01*
X526277Y187946D01*
X526218Y187900D01*
X526160Y187852D01*
X526106Y187801D01*
X526053Y187747D01*
X526004Y187690D01*
X525957Y187631D01*
X525914Y187570D01*
X525873Y187507D01*
X525836Y187442D01*
X525801Y187375D01*
X525771Y187306D01*
X525743Y187236D01*
X525720Y187165D01*
X525699Y187093D01*
X525683Y187020D01*
X525670Y186946D01*
X525660Y186871D01*
X525655Y186796D01*
X525653Y186721D01*
X526676Y185289D02*
X526814Y185224D01*
X526954Y185162D01*
X527096Y185104D01*
X527239Y185049D01*
X527383Y184998D01*
X527528Y184950D01*
X527675Y184907D01*
X527823Y184867D01*
X527971Y184830D01*
X528121Y184798D01*
X528271Y184769D01*
X528422Y184744D01*
X528573Y184723D01*
X528725Y184706D01*
X528878Y184692D01*
X529030Y184683D01*
X529183Y184677D01*
X529336Y184675D01*
X526676Y185289D02*
X526605Y185315D01*
X526536Y185345D01*
X526469Y185378D01*
X526403Y185414D01*
X526339Y185453D01*
X526277Y185496D01*
X526218Y185542D01*
X526160Y185590D01*
X526106Y185641D01*
X526053Y185695D01*
X526004Y185752D01*
X525957Y185811D01*
X525914Y185872D01*
X525873Y185935D01*
X525836Y186000D01*
X525801Y186067D01*
X525771Y186136D01*
X525743Y186206D01*
X525720Y186277D01*
X525699Y186349D01*
X525683Y186422D01*
X525670Y186496D01*
X525660Y186571D01*
X525655Y186646D01*
X525653Y186721D01*
X527290Y188357D02*
X531382Y185084D01*
X534543Y174000D02*
X534543Y156200D01*
X525653Y170346D02*
X525653Y171983D01*
X525655Y172061D01*
X525660Y172139D01*
X525670Y172216D01*
X525683Y172293D01*
X525699Y172369D01*
X525719Y172444D01*
X525743Y172518D01*
X525770Y172591D01*
X525801Y172663D01*
X525835Y172733D01*
X525872Y172802D01*
X525913Y172868D01*
X525957Y172933D01*
X526003Y172995D01*
X526053Y173055D01*
X526105Y173113D01*
X526160Y173168D01*
X526218Y173220D01*
X526278Y173270D01*
X526340Y173316D01*
X526405Y173360D01*
X526472Y173401D01*
X526540Y173438D01*
X526610Y173472D01*
X526682Y173503D01*
X526755Y173530D01*
X526829Y173554D01*
X526904Y173574D01*
X526980Y173590D01*
X527057Y173603D01*
X527134Y173613D01*
X527212Y173618D01*
X527290Y173620D01*
X527290Y173619D02*
X531382Y173619D01*
X531382Y173620D02*
X531460Y173618D01*
X531538Y173613D01*
X531615Y173603D01*
X531692Y173590D01*
X531768Y173574D01*
X531843Y173554D01*
X531917Y173530D01*
X531990Y173503D01*
X532062Y173472D01*
X532132Y173438D01*
X532201Y173401D01*
X532267Y173360D01*
X532332Y173316D01*
X532394Y173270D01*
X532454Y173220D01*
X532512Y173168D01*
X532567Y173113D01*
X532619Y173055D01*
X532669Y172995D01*
X532715Y172933D01*
X532759Y172868D01*
X532800Y172802D01*
X532837Y172733D01*
X532871Y172663D01*
X532902Y172591D01*
X532929Y172518D01*
X532953Y172444D01*
X532973Y172369D01*
X532989Y172293D01*
X533002Y172216D01*
X533012Y172139D01*
X533017Y172061D01*
X533019Y171983D01*
X533019Y170346D01*
X527290Y163652D02*
X527212Y163654D01*
X527134Y163659D01*
X527057Y163669D01*
X526980Y163682D01*
X526904Y163698D01*
X526829Y163718D01*
X526755Y163742D01*
X526682Y163769D01*
X526610Y163800D01*
X526540Y163834D01*
X526471Y163871D01*
X526405Y163912D01*
X526340Y163956D01*
X526278Y164002D01*
X526218Y164052D01*
X526160Y164104D01*
X526105Y164159D01*
X526053Y164217D01*
X526003Y164277D01*
X525957Y164339D01*
X525913Y164404D01*
X525872Y164471D01*
X525835Y164539D01*
X525801Y164609D01*
X525770Y164681D01*
X525743Y164754D01*
X525719Y164828D01*
X525699Y164903D01*
X525683Y164979D01*
X525670Y165056D01*
X525660Y165133D01*
X525655Y165211D01*
X525653Y165289D01*
X525655Y165403D01*
X525660Y165516D01*
X525670Y165630D01*
X525683Y165743D01*
X525700Y165855D01*
X525720Y165967D01*
X525744Y166078D01*
X525772Y166189D01*
X525803Y166298D01*
X525838Y166406D01*
X525877Y166513D01*
X525919Y166619D01*
X525964Y166723D01*
X526013Y166826D01*
X526066Y166927D01*
X526121Y167026D01*
X526180Y167124D01*
X526242Y167219D01*
X526307Y167312D01*
X526375Y167404D01*
X526446Y167492D01*
X526520Y167579D01*
X526597Y167663D01*
X526676Y167744D01*
X531382Y167540D02*
X531460Y167538D01*
X531538Y167533D01*
X531615Y167523D01*
X531692Y167510D01*
X531768Y167494D01*
X531843Y167474D01*
X531917Y167450D01*
X531990Y167423D01*
X532062Y167392D01*
X532132Y167358D01*
X532201Y167321D01*
X532267Y167280D01*
X532332Y167236D01*
X532394Y167190D01*
X532454Y167140D01*
X532512Y167088D01*
X532567Y167033D01*
X532619Y166975D01*
X532669Y166915D01*
X532715Y166853D01*
X532759Y166788D01*
X532800Y166722D01*
X532837Y166653D01*
X532871Y166583D01*
X532902Y166511D01*
X532929Y166438D01*
X532953Y166364D01*
X532973Y166289D01*
X532989Y166213D01*
X533002Y166136D01*
X533012Y166059D01*
X533017Y165981D01*
X533019Y165903D01*
X533017Y165793D01*
X533011Y165684D01*
X533001Y165574D01*
X532988Y165466D01*
X532970Y165357D01*
X532949Y165250D01*
X532923Y165143D01*
X532894Y165037D01*
X532862Y164932D01*
X532825Y164829D01*
X532785Y164727D01*
X532741Y164626D01*
X532693Y164527D01*
X532643Y164430D01*
X532588Y164335D01*
X532530Y164242D01*
X532469Y164151D01*
X532405Y164062D01*
X529949Y166721D02*
X529991Y166788D01*
X530035Y166853D01*
X530083Y166915D01*
X530133Y166975D01*
X530186Y167033D01*
X530242Y167088D01*
X530301Y167140D01*
X530361Y167190D01*
X530425Y167237D01*
X530490Y167280D01*
X530557Y167321D01*
X530626Y167358D01*
X530697Y167392D01*
X530769Y167423D01*
X530843Y167450D01*
X530917Y167474D01*
X530993Y167494D01*
X531070Y167510D01*
X531147Y167523D01*
X531225Y167533D01*
X531304Y167538D01*
X531382Y167540D01*
X528722Y164470D02*
X528681Y164404D01*
X528636Y164339D01*
X528589Y164277D01*
X528538Y164217D01*
X528485Y164159D01*
X528429Y164104D01*
X528371Y164051D01*
X528310Y164002D01*
X528247Y163955D01*
X528182Y163912D01*
X528115Y163871D01*
X528046Y163834D01*
X527975Y163800D01*
X527903Y163769D01*
X527829Y163742D01*
X527754Y163718D01*
X527679Y163698D01*
X527602Y163682D01*
X527525Y163669D01*
X527447Y163659D01*
X527368Y163654D01*
X527290Y163652D01*
X528722Y164470D02*
X529950Y166721D01*
X529336Y160673D02*
X529489Y160671D01*
X529642Y160665D01*
X529794Y160656D01*
X529947Y160642D01*
X530099Y160625D01*
X530250Y160604D01*
X530401Y160579D01*
X530551Y160550D01*
X530701Y160518D01*
X530849Y160481D01*
X530997Y160441D01*
X531144Y160398D01*
X531289Y160350D01*
X531433Y160299D01*
X531576Y160245D01*
X531718Y160186D01*
X531857Y160125D01*
X531996Y160059D01*
X532066Y160033D01*
X532135Y160003D01*
X532203Y159971D01*
X532269Y159934D01*
X532333Y159895D01*
X532395Y159852D01*
X532454Y159807D01*
X532512Y159758D01*
X532566Y159707D01*
X532619Y159653D01*
X532668Y159596D01*
X532715Y159537D01*
X532758Y159476D01*
X532799Y159413D01*
X532836Y159348D01*
X532871Y159281D01*
X532901Y159212D01*
X532929Y159142D01*
X532952Y159071D01*
X532973Y158999D01*
X532989Y158926D01*
X533002Y158852D01*
X533012Y158777D01*
X533017Y158702D01*
X533019Y158627D01*
X533017Y158552D01*
X533012Y158477D01*
X533002Y158402D01*
X532989Y158328D01*
X532973Y158255D01*
X532952Y158183D01*
X532929Y158112D01*
X532901Y158042D01*
X532871Y157973D01*
X532836Y157906D01*
X532799Y157841D01*
X532758Y157778D01*
X532715Y157717D01*
X532668Y157658D01*
X532619Y157601D01*
X532566Y157547D01*
X532512Y157496D01*
X532454Y157448D01*
X532395Y157402D01*
X532333Y157359D01*
X532269Y157320D01*
X532203Y157284D01*
X532136Y157251D01*
X532066Y157221D01*
X531996Y157195D01*
X531858Y157130D01*
X531718Y157068D01*
X531576Y157010D01*
X531433Y156955D01*
X531289Y156904D01*
X531144Y156856D01*
X530997Y156813D01*
X530850Y156773D01*
X530701Y156736D01*
X530551Y156704D01*
X530401Y156675D01*
X530250Y156650D01*
X530099Y156629D01*
X529947Y156612D01*
X529794Y156598D01*
X529642Y156589D01*
X529489Y156583D01*
X529336Y156581D01*
X529336Y160673D02*
X529183Y160671D01*
X529030Y160665D01*
X528877Y160656D01*
X528725Y160642D01*
X528573Y160625D01*
X528422Y160604D01*
X528271Y160579D01*
X528120Y160550D01*
X527971Y160518D01*
X527822Y160481D01*
X527675Y160441D01*
X527528Y160398D01*
X527383Y160350D01*
X527238Y160299D01*
X527096Y160244D01*
X526954Y160186D01*
X526814Y160124D01*
X526676Y160059D01*
X526606Y160033D01*
X526536Y160003D01*
X526469Y159971D01*
X526403Y159934D01*
X526339Y159895D01*
X526277Y159852D01*
X526218Y159806D01*
X526160Y159758D01*
X526106Y159707D01*
X526053Y159653D01*
X526004Y159596D01*
X525957Y159537D01*
X525914Y159476D01*
X525873Y159413D01*
X525836Y159348D01*
X525801Y159281D01*
X525771Y159212D01*
X525743Y159142D01*
X525720Y159071D01*
X525699Y158999D01*
X525683Y158926D01*
X525670Y158852D01*
X525660Y158777D01*
X525655Y158702D01*
X525653Y158627D01*
X526676Y157195D02*
X526814Y157130D01*
X526954Y157068D01*
X527096Y157010D01*
X527239Y156955D01*
X527383Y156904D01*
X527528Y156856D01*
X527675Y156813D01*
X527823Y156773D01*
X527971Y156736D01*
X528121Y156704D01*
X528271Y156675D01*
X528422Y156650D01*
X528573Y156629D01*
X528725Y156612D01*
X528878Y156598D01*
X529030Y156589D01*
X529183Y156583D01*
X529336Y156581D01*
X526676Y157195D02*
X526605Y157221D01*
X526536Y157251D01*
X526469Y157284D01*
X526403Y157320D01*
X526339Y157359D01*
X526277Y157402D01*
X526218Y157448D01*
X526160Y157496D01*
X526106Y157547D01*
X526053Y157601D01*
X526004Y157658D01*
X525957Y157717D01*
X525914Y157778D01*
X525873Y157841D01*
X525836Y157906D01*
X525801Y157973D01*
X525771Y158042D01*
X525743Y158112D01*
X525720Y158183D01*
X525699Y158255D01*
X525683Y158328D01*
X525670Y158402D01*
X525660Y158477D01*
X525655Y158552D01*
X525653Y158627D01*
X527290Y160264D02*
X531382Y156990D01*
X534543Y148929D02*
X534543Y130471D01*
X533019Y148548D02*
X525653Y148548D01*
X533019Y148548D02*
X533019Y146502D01*
X533017Y146413D01*
X533011Y146324D01*
X533001Y146235D01*
X532988Y146147D01*
X532971Y146059D01*
X532949Y145972D01*
X532924Y145887D01*
X532896Y145802D01*
X532863Y145719D01*
X532827Y145637D01*
X532788Y145557D01*
X532745Y145479D01*
X532699Y145403D01*
X532649Y145328D01*
X532596Y145256D01*
X532540Y145187D01*
X532481Y145120D01*
X532420Y145055D01*
X532355Y144994D01*
X532288Y144935D01*
X532219Y144879D01*
X532147Y144826D01*
X532072Y144776D01*
X531996Y144730D01*
X531918Y144687D01*
X531838Y144648D01*
X531756Y144612D01*
X531673Y144579D01*
X531588Y144551D01*
X531503Y144526D01*
X531416Y144504D01*
X531328Y144487D01*
X531240Y144474D01*
X531151Y144464D01*
X531062Y144458D01*
X530973Y144456D01*
X530884Y144458D01*
X530795Y144464D01*
X530706Y144474D01*
X530618Y144487D01*
X530530Y144504D01*
X530443Y144526D01*
X530358Y144551D01*
X530273Y144579D01*
X530190Y144612D01*
X530108Y144648D01*
X530028Y144687D01*
X529950Y144730D01*
X529874Y144776D01*
X529799Y144826D01*
X529727Y144879D01*
X529658Y144935D01*
X529591Y144994D01*
X529526Y145055D01*
X529465Y145120D01*
X529406Y145187D01*
X529350Y145256D01*
X529297Y145328D01*
X529247Y145403D01*
X529201Y145479D01*
X529158Y145557D01*
X529119Y145637D01*
X529083Y145719D01*
X529050Y145802D01*
X529022Y145887D01*
X528997Y145972D01*
X528975Y146059D01*
X528958Y146147D01*
X528945Y146235D01*
X528935Y146324D01*
X528929Y146413D01*
X528927Y146502D01*
X528927Y148548D01*
X528927Y146093D02*
X525653Y144456D01*
X525653Y139073D02*
X525655Y138995D01*
X525660Y138917D01*
X525670Y138840D01*
X525683Y138763D01*
X525699Y138687D01*
X525719Y138612D01*
X525743Y138538D01*
X525770Y138465D01*
X525801Y138393D01*
X525835Y138323D01*
X525872Y138255D01*
X525913Y138188D01*
X525957Y138123D01*
X526003Y138061D01*
X526053Y138001D01*
X526105Y137943D01*
X526160Y137888D01*
X526218Y137836D01*
X526278Y137786D01*
X526340Y137740D01*
X526405Y137696D01*
X526471Y137655D01*
X526540Y137618D01*
X526610Y137584D01*
X526682Y137553D01*
X526755Y137526D01*
X526829Y137502D01*
X526904Y137482D01*
X526980Y137466D01*
X527057Y137453D01*
X527134Y137443D01*
X527212Y137438D01*
X527290Y137436D01*
X525653Y139072D02*
X525655Y139186D01*
X525660Y139299D01*
X525670Y139413D01*
X525683Y139526D01*
X525700Y139638D01*
X525720Y139750D01*
X525744Y139861D01*
X525772Y139972D01*
X525803Y140081D01*
X525838Y140189D01*
X525877Y140296D01*
X525919Y140402D01*
X525964Y140506D01*
X526013Y140609D01*
X526066Y140710D01*
X526121Y140809D01*
X526180Y140907D01*
X526242Y141002D01*
X526307Y141095D01*
X526375Y141187D01*
X526446Y141275D01*
X526520Y141362D01*
X526597Y141446D01*
X526676Y141527D01*
X531382Y141323D02*
X531460Y141321D01*
X531538Y141316D01*
X531615Y141306D01*
X531692Y141293D01*
X531768Y141277D01*
X531843Y141257D01*
X531917Y141233D01*
X531990Y141206D01*
X532062Y141175D01*
X532132Y141141D01*
X532201Y141104D01*
X532267Y141063D01*
X532332Y141019D01*
X532394Y140973D01*
X532454Y140923D01*
X532512Y140871D01*
X532567Y140816D01*
X532619Y140758D01*
X532669Y140698D01*
X532715Y140636D01*
X532759Y140571D01*
X532800Y140505D01*
X532837Y140436D01*
X532871Y140366D01*
X532902Y140294D01*
X532929Y140221D01*
X532953Y140147D01*
X532973Y140072D01*
X532989Y139996D01*
X533002Y139919D01*
X533012Y139842D01*
X533017Y139764D01*
X533019Y139686D01*
X533017Y139576D01*
X533011Y139467D01*
X533001Y139357D01*
X532988Y139249D01*
X532970Y139140D01*
X532949Y139033D01*
X532923Y138926D01*
X532894Y138820D01*
X532862Y138715D01*
X532825Y138612D01*
X532785Y138510D01*
X532741Y138409D01*
X532693Y138310D01*
X532643Y138213D01*
X532588Y138118D01*
X532530Y138025D01*
X532469Y137934D01*
X532405Y137845D01*
X529949Y140505D02*
X529991Y140572D01*
X530035Y140637D01*
X530083Y140699D01*
X530133Y140759D01*
X530186Y140817D01*
X530242Y140872D01*
X530301Y140924D01*
X530361Y140974D01*
X530425Y141021D01*
X530490Y141064D01*
X530557Y141105D01*
X530626Y141142D01*
X530697Y141176D01*
X530769Y141207D01*
X530843Y141234D01*
X530917Y141258D01*
X530993Y141278D01*
X531070Y141294D01*
X531147Y141307D01*
X531225Y141317D01*
X531304Y141322D01*
X531382Y141324D01*
X528722Y138254D02*
X528681Y138188D01*
X528636Y138123D01*
X528589Y138061D01*
X528538Y138001D01*
X528485Y137943D01*
X528429Y137888D01*
X528371Y137835D01*
X528310Y137786D01*
X528247Y137739D01*
X528182Y137696D01*
X528115Y137655D01*
X528046Y137618D01*
X527975Y137584D01*
X527903Y137553D01*
X527829Y137526D01*
X527754Y137502D01*
X527679Y137482D01*
X527602Y137466D01*
X527525Y137453D01*
X527447Y137443D01*
X527368Y137438D01*
X527290Y137436D01*
X528722Y138254D02*
X529950Y140505D01*
X533019Y132898D02*
X525653Y132898D01*
X533019Y134944D02*
X533019Y130852D01*
X534543Y120481D02*
X534543Y108119D01*
X533019Y120100D02*
X525653Y120100D01*
X533019Y120100D02*
X533019Y118054D01*
X533017Y117965D01*
X533011Y117876D01*
X533001Y117787D01*
X532988Y117699D01*
X532971Y117611D01*
X532949Y117524D01*
X532924Y117439D01*
X532896Y117354D01*
X532863Y117271D01*
X532827Y117189D01*
X532788Y117109D01*
X532745Y117031D01*
X532699Y116955D01*
X532649Y116880D01*
X532596Y116808D01*
X532540Y116739D01*
X532481Y116672D01*
X532420Y116607D01*
X532355Y116546D01*
X532288Y116487D01*
X532219Y116431D01*
X532147Y116378D01*
X532072Y116328D01*
X531996Y116282D01*
X531918Y116239D01*
X531838Y116200D01*
X531756Y116164D01*
X531673Y116131D01*
X531588Y116103D01*
X531503Y116078D01*
X531416Y116056D01*
X531328Y116039D01*
X531240Y116026D01*
X531151Y116016D01*
X531062Y116010D01*
X530973Y116008D01*
X530884Y116010D01*
X530795Y116016D01*
X530706Y116026D01*
X530618Y116039D01*
X530530Y116056D01*
X530443Y116078D01*
X530358Y116103D01*
X530273Y116131D01*
X530190Y116164D01*
X530108Y116200D01*
X530028Y116239D01*
X529950Y116282D01*
X529874Y116328D01*
X529799Y116378D01*
X529727Y116431D01*
X529658Y116487D01*
X529591Y116546D01*
X529526Y116607D01*
X529465Y116672D01*
X529406Y116739D01*
X529350Y116808D01*
X529297Y116880D01*
X529247Y116955D01*
X529201Y117031D01*
X529158Y117109D01*
X529119Y117189D01*
X529083Y117271D01*
X529050Y117354D01*
X529022Y117439D01*
X528997Y117524D01*
X528975Y117611D01*
X528958Y117699D01*
X528945Y117787D01*
X528935Y117876D01*
X528929Y117965D01*
X528927Y118054D01*
X528927Y120100D01*
X528927Y117645D02*
X525653Y116008D01*
X525653Y112592D02*
X533019Y112592D01*
X533019Y110546D01*
X533017Y110457D01*
X533011Y110368D01*
X533001Y110279D01*
X532988Y110191D01*
X532971Y110103D01*
X532949Y110016D01*
X532924Y109931D01*
X532896Y109846D01*
X532863Y109763D01*
X532827Y109681D01*
X532788Y109601D01*
X532745Y109523D01*
X532699Y109447D01*
X532649Y109372D01*
X532596Y109300D01*
X532540Y109231D01*
X532481Y109164D01*
X532420Y109099D01*
X532355Y109038D01*
X532288Y108979D01*
X532219Y108923D01*
X532147Y108870D01*
X532072Y108820D01*
X531996Y108774D01*
X531918Y108731D01*
X531838Y108692D01*
X531756Y108656D01*
X531673Y108623D01*
X531588Y108595D01*
X531503Y108570D01*
X531416Y108548D01*
X531328Y108531D01*
X531240Y108518D01*
X531151Y108508D01*
X531062Y108502D01*
X530973Y108500D01*
X527699Y108500D01*
X527610Y108502D01*
X527521Y108508D01*
X527432Y108518D01*
X527344Y108531D01*
X527256Y108548D01*
X527169Y108570D01*
X527084Y108595D01*
X526999Y108623D01*
X526916Y108656D01*
X526834Y108692D01*
X526754Y108731D01*
X526676Y108774D01*
X526600Y108820D01*
X526525Y108870D01*
X526453Y108923D01*
X526384Y108979D01*
X526317Y109038D01*
X526252Y109099D01*
X526191Y109164D01*
X526132Y109231D01*
X526076Y109300D01*
X526023Y109372D01*
X525973Y109447D01*
X525927Y109523D01*
X525884Y109601D01*
X525845Y109681D01*
X525809Y109763D01*
X525776Y109846D01*
X525748Y109931D01*
X525723Y110016D01*
X525701Y110103D01*
X525684Y110191D01*
X525671Y110279D01*
X525661Y110368D01*
X525655Y110457D01*
X525653Y110546D01*
X525653Y112592D01*
X534543Y96234D02*
X534543Y81566D01*
X533019Y95853D02*
X525653Y94216D01*
X530564Y92579D01*
X525653Y90942D01*
X533019Y89305D01*
X533019Y86040D02*
X525653Y86040D01*
X533019Y86040D02*
X533019Y83993D01*
X533017Y83904D01*
X533011Y83815D01*
X533001Y83726D01*
X532988Y83638D01*
X532971Y83550D01*
X532949Y83463D01*
X532924Y83378D01*
X532896Y83293D01*
X532863Y83210D01*
X532827Y83128D01*
X532788Y83048D01*
X532745Y82970D01*
X532699Y82894D01*
X532649Y82819D01*
X532596Y82747D01*
X532540Y82678D01*
X532481Y82611D01*
X532420Y82546D01*
X532355Y82485D01*
X532288Y82426D01*
X532219Y82370D01*
X532147Y82317D01*
X532072Y82267D01*
X531996Y82221D01*
X531918Y82178D01*
X531838Y82139D01*
X531756Y82103D01*
X531673Y82070D01*
X531588Y82042D01*
X531503Y82017D01*
X531416Y81995D01*
X531328Y81978D01*
X531240Y81965D01*
X531151Y81955D01*
X531062Y81949D01*
X530973Y81947D01*
X530884Y81949D01*
X530795Y81955D01*
X530706Y81965D01*
X530618Y81978D01*
X530530Y81995D01*
X530443Y82017D01*
X530358Y82042D01*
X530273Y82070D01*
X530190Y82103D01*
X530108Y82139D01*
X530028Y82178D01*
X529950Y82221D01*
X529874Y82267D01*
X529799Y82317D01*
X529727Y82370D01*
X529658Y82426D01*
X529591Y82485D01*
X529526Y82546D01*
X529465Y82611D01*
X529406Y82678D01*
X529350Y82747D01*
X529297Y82819D01*
X529247Y82894D01*
X529201Y82970D01*
X529158Y83048D01*
X529119Y83128D01*
X529083Y83210D01*
X529050Y83293D01*
X529022Y83378D01*
X528997Y83463D01*
X528975Y83550D01*
X528958Y83638D01*
X528945Y83726D01*
X528935Y83815D01*
X528929Y83904D01*
X528927Y83993D01*
X528927Y86040D01*
X528927Y83584D02*
X525653Y81947D01*
X525653Y69408D02*
X533019Y66953D01*
X525653Y64498D01*
X527495Y65112D02*
X527495Y68795D01*
X529336Y61684D02*
X529489Y61682D01*
X529642Y61676D01*
X529794Y61667D01*
X529947Y61653D01*
X530099Y61636D01*
X530250Y61615D01*
X530401Y61590D01*
X530551Y61561D01*
X530701Y61529D01*
X530849Y61492D01*
X530997Y61452D01*
X531144Y61409D01*
X531289Y61361D01*
X531433Y61310D01*
X531576Y61256D01*
X531718Y61197D01*
X531857Y61136D01*
X531996Y61070D01*
X532066Y61044D01*
X532135Y61014D01*
X532203Y60982D01*
X532269Y60945D01*
X532333Y60906D01*
X532395Y60863D01*
X532454Y60818D01*
X532512Y60769D01*
X532566Y60718D01*
X532619Y60664D01*
X532668Y60607D01*
X532715Y60548D01*
X532758Y60487D01*
X532799Y60424D01*
X532836Y60359D01*
X532871Y60292D01*
X532901Y60223D01*
X532929Y60153D01*
X532952Y60082D01*
X532973Y60010D01*
X532989Y59937D01*
X533002Y59863D01*
X533012Y59788D01*
X533017Y59713D01*
X533019Y59638D01*
X533017Y59563D01*
X533012Y59488D01*
X533002Y59413D01*
X532989Y59339D01*
X532973Y59266D01*
X532952Y59194D01*
X532929Y59123D01*
X532901Y59053D01*
X532871Y58984D01*
X532836Y58917D01*
X532799Y58852D01*
X532758Y58789D01*
X532715Y58728D01*
X532668Y58669D01*
X532619Y58612D01*
X532566Y58558D01*
X532512Y58507D01*
X532454Y58459D01*
X532395Y58413D01*
X532333Y58370D01*
X532269Y58331D01*
X532203Y58295D01*
X532136Y58262D01*
X532066Y58232D01*
X531996Y58206D01*
X531858Y58141D01*
X531718Y58079D01*
X531576Y58021D01*
X531433Y57966D01*
X531289Y57915D01*
X531144Y57867D01*
X530997Y57824D01*
X530850Y57784D01*
X530701Y57747D01*
X530551Y57715D01*
X530401Y57686D01*
X530250Y57661D01*
X530099Y57640D01*
X529947Y57623D01*
X529794Y57609D01*
X529642Y57600D01*
X529489Y57594D01*
X529336Y57592D01*
X529336Y61684D02*
X529183Y61682D01*
X529030Y61676D01*
X528877Y61667D01*
X528725Y61653D01*
X528573Y61636D01*
X528422Y61615D01*
X528271Y61590D01*
X528120Y61561D01*
X527971Y61529D01*
X527822Y61492D01*
X527675Y61452D01*
X527528Y61409D01*
X527383Y61361D01*
X527238Y61310D01*
X527096Y61255D01*
X526954Y61197D01*
X526814Y61135D01*
X526676Y61070D01*
X526606Y61044D01*
X526536Y61014D01*
X526469Y60982D01*
X526403Y60945D01*
X526339Y60906D01*
X526277Y60863D01*
X526218Y60817D01*
X526160Y60769D01*
X526106Y60718D01*
X526053Y60664D01*
X526004Y60607D01*
X525957Y60548D01*
X525914Y60487D01*
X525873Y60424D01*
X525836Y60359D01*
X525801Y60292D01*
X525771Y60223D01*
X525743Y60153D01*
X525720Y60082D01*
X525699Y60010D01*
X525683Y59937D01*
X525670Y59863D01*
X525660Y59788D01*
X525655Y59713D01*
X525653Y59638D01*
X526676Y58206D02*
X526814Y58141D01*
X526954Y58079D01*
X527096Y58021D01*
X527239Y57966D01*
X527383Y57915D01*
X527528Y57867D01*
X527675Y57824D01*
X527823Y57784D01*
X527971Y57747D01*
X528121Y57715D01*
X528271Y57686D01*
X528422Y57661D01*
X528573Y57640D01*
X528725Y57623D01*
X528878Y57609D01*
X529030Y57600D01*
X529183Y57594D01*
X529336Y57592D01*
X526676Y58206D02*
X526605Y58232D01*
X526536Y58262D01*
X526469Y58295D01*
X526403Y58331D01*
X526339Y58370D01*
X526277Y58413D01*
X526218Y58459D01*
X526160Y58507D01*
X526106Y58558D01*
X526053Y58612D01*
X526004Y58669D01*
X525957Y58728D01*
X525914Y58789D01*
X525873Y58852D01*
X525836Y58917D01*
X525801Y58984D01*
X525771Y59053D01*
X525743Y59123D01*
X525720Y59194D01*
X525699Y59266D01*
X525683Y59339D01*
X525670Y59413D01*
X525660Y59488D01*
X525655Y59563D01*
X525653Y59638D01*
X527290Y61275D02*
X531382Y58001D01*
X525653Y46730D02*
X525653Y44684D01*
X525655Y44595D01*
X525661Y44506D01*
X525671Y44417D01*
X525684Y44329D01*
X525701Y44241D01*
X525723Y44154D01*
X525748Y44069D01*
X525776Y43984D01*
X525809Y43901D01*
X525845Y43819D01*
X525884Y43739D01*
X525927Y43661D01*
X525973Y43585D01*
X526023Y43510D01*
X526076Y43438D01*
X526132Y43369D01*
X526191Y43302D01*
X526252Y43237D01*
X526317Y43176D01*
X526384Y43117D01*
X526453Y43061D01*
X526525Y43008D01*
X526600Y42958D01*
X526676Y42912D01*
X526754Y42869D01*
X526834Y42830D01*
X526916Y42794D01*
X526999Y42761D01*
X527084Y42733D01*
X527169Y42708D01*
X527256Y42686D01*
X527344Y42669D01*
X527432Y42656D01*
X527521Y42646D01*
X527610Y42640D01*
X527699Y42638D01*
X527788Y42640D01*
X527877Y42646D01*
X527966Y42656D01*
X528054Y42669D01*
X528142Y42686D01*
X528229Y42708D01*
X528314Y42733D01*
X528399Y42761D01*
X528482Y42794D01*
X528564Y42830D01*
X528644Y42869D01*
X528722Y42912D01*
X528798Y42958D01*
X528873Y43008D01*
X528945Y43061D01*
X529014Y43117D01*
X529081Y43176D01*
X529146Y43237D01*
X529207Y43302D01*
X529266Y43369D01*
X529322Y43438D01*
X529375Y43510D01*
X529425Y43585D01*
X529471Y43661D01*
X529514Y43739D01*
X529553Y43819D01*
X529589Y43901D01*
X529622Y43984D01*
X529650Y44069D01*
X529675Y44154D01*
X529697Y44241D01*
X529714Y44329D01*
X529727Y44417D01*
X529737Y44506D01*
X529743Y44595D01*
X529745Y44684D01*
X533019Y44274D02*
X533019Y46730D01*
X533019Y44274D02*
X533017Y44195D01*
X533011Y44116D01*
X533002Y44037D01*
X532989Y43959D01*
X532971Y43882D01*
X532951Y43806D01*
X532926Y43731D01*
X532898Y43657D01*
X532867Y43584D01*
X532831Y43513D01*
X532793Y43444D01*
X532751Y43377D01*
X532706Y43312D01*
X532658Y43249D01*
X532607Y43188D01*
X532553Y43131D01*
X532497Y43075D01*
X532438Y43023D01*
X532376Y42973D01*
X532312Y42927D01*
X532246Y42883D01*
X532178Y42843D01*
X532108Y42807D01*
X532036Y42773D01*
X531962Y42743D01*
X531888Y42717D01*
X531812Y42694D01*
X531735Y42676D01*
X531658Y42660D01*
X531579Y42649D01*
X531501Y42641D01*
X531422Y42637D01*
X531342Y42637D01*
X531263Y42641D01*
X531185Y42649D01*
X531106Y42660D01*
X531029Y42676D01*
X530952Y42694D01*
X530876Y42717D01*
X530802Y42743D01*
X530728Y42773D01*
X530656Y42807D01*
X530586Y42843D01*
X530518Y42883D01*
X530452Y42927D01*
X530388Y42973D01*
X530326Y43023D01*
X530267Y43075D01*
X530211Y43131D01*
X530157Y43188D01*
X530106Y43249D01*
X530058Y43312D01*
X530013Y43377D01*
X529971Y43444D01*
X529933Y43513D01*
X529897Y43584D01*
X529866Y43657D01*
X529838Y43731D01*
X529813Y43806D01*
X529793Y43882D01*
X529775Y43959D01*
X529762Y44037D01*
X529753Y44116D01*
X529747Y44195D01*
X529745Y44274D01*
X529745Y45911D01*
X530564Y39737D02*
X525653Y38100D01*
X530564Y36463D01*
X525653Y33562D02*
X525653Y31516D01*
X525655Y31427D01*
X525661Y31338D01*
X525671Y31249D01*
X525684Y31161D01*
X525701Y31073D01*
X525723Y30986D01*
X525748Y30901D01*
X525776Y30816D01*
X525809Y30733D01*
X525845Y30651D01*
X525884Y30571D01*
X525927Y30493D01*
X525973Y30417D01*
X526023Y30342D01*
X526076Y30270D01*
X526132Y30201D01*
X526191Y30134D01*
X526252Y30069D01*
X526317Y30008D01*
X526384Y29949D01*
X526453Y29893D01*
X526525Y29840D01*
X526600Y29790D01*
X526676Y29744D01*
X526754Y29701D01*
X526834Y29662D01*
X526916Y29626D01*
X526999Y29593D01*
X527084Y29565D01*
X527169Y29540D01*
X527256Y29518D01*
X527344Y29501D01*
X527432Y29488D01*
X527521Y29478D01*
X527610Y29472D01*
X527699Y29470D01*
X527788Y29472D01*
X527877Y29478D01*
X527966Y29488D01*
X528054Y29501D01*
X528142Y29518D01*
X528229Y29540D01*
X528314Y29565D01*
X528399Y29593D01*
X528482Y29626D01*
X528564Y29662D01*
X528644Y29701D01*
X528722Y29744D01*
X528798Y29790D01*
X528873Y29840D01*
X528945Y29893D01*
X529014Y29949D01*
X529081Y30008D01*
X529146Y30069D01*
X529207Y30134D01*
X529266Y30201D01*
X529322Y30270D01*
X529375Y30342D01*
X529425Y30417D01*
X529471Y30493D01*
X529514Y30571D01*
X529553Y30651D01*
X529589Y30733D01*
X529622Y30816D01*
X529650Y30901D01*
X529675Y30986D01*
X529697Y31073D01*
X529714Y31161D01*
X529727Y31249D01*
X529737Y31338D01*
X529743Y31427D01*
X529745Y31516D01*
X533019Y31107D02*
X533019Y33562D01*
X533019Y31107D02*
X533017Y31028D01*
X533011Y30949D01*
X533002Y30870D01*
X532989Y30792D01*
X532971Y30715D01*
X532951Y30639D01*
X532926Y30564D01*
X532898Y30490D01*
X532867Y30417D01*
X532831Y30346D01*
X532793Y30277D01*
X532751Y30210D01*
X532706Y30145D01*
X532658Y30082D01*
X532607Y30021D01*
X532553Y29964D01*
X532497Y29908D01*
X532438Y29856D01*
X532376Y29806D01*
X532312Y29760D01*
X532246Y29716D01*
X532178Y29676D01*
X532108Y29640D01*
X532036Y29606D01*
X531962Y29576D01*
X531888Y29550D01*
X531812Y29527D01*
X531735Y29509D01*
X531658Y29493D01*
X531579Y29482D01*
X531501Y29474D01*
X531422Y29470D01*
X531342Y29470D01*
X531263Y29474D01*
X531185Y29482D01*
X531106Y29493D01*
X531029Y29509D01*
X530952Y29527D01*
X530876Y29550D01*
X530802Y29576D01*
X530728Y29606D01*
X530656Y29640D01*
X530586Y29676D01*
X530518Y29716D01*
X530452Y29760D01*
X530388Y29806D01*
X530326Y29856D01*
X530267Y29908D01*
X530211Y29964D01*
X530157Y30021D01*
X530106Y30082D01*
X530058Y30145D01*
X530013Y30210D01*
X529971Y30277D01*
X529933Y30346D01*
X529897Y30417D01*
X529866Y30490D01*
X529838Y30564D01*
X529813Y30639D01*
X529793Y30715D01*
X529775Y30792D01*
X529762Y30870D01*
X529753Y30949D01*
X529747Y31028D01*
X529745Y31107D01*
X529745Y32744D01*
D12*
X444500Y215900D02*
X444500Y368300D01*
X444500Y190500D02*
X444500Y38100D01*
D11*
X414542Y210343D02*
X414542Y211909D01*
X414542Y210343D02*
X409321Y210343D01*
X409321Y213476D01*
X409323Y213565D01*
X409329Y213653D01*
X409338Y213741D01*
X409351Y213829D01*
X409368Y213916D01*
X409388Y214002D01*
X409413Y214087D01*
X409440Y214172D01*
X409472Y214255D01*
X409506Y214336D01*
X409545Y214416D01*
X409586Y214494D01*
X409631Y214571D01*
X409679Y214645D01*
X409730Y214718D01*
X409784Y214788D01*
X409842Y214855D01*
X409902Y214921D01*
X409964Y214983D01*
X410030Y215043D01*
X410097Y215101D01*
X410167Y215155D01*
X410240Y215206D01*
X410314Y215254D01*
X410391Y215299D01*
X410469Y215340D01*
X410549Y215379D01*
X410630Y215413D01*
X410713Y215445D01*
X410798Y215472D01*
X410883Y215497D01*
X410969Y215517D01*
X411056Y215534D01*
X411144Y215547D01*
X411232Y215556D01*
X411320Y215562D01*
X411409Y215564D01*
X416631Y215564D01*
X416722Y215562D01*
X416813Y215556D01*
X416904Y215546D01*
X416994Y215532D01*
X417083Y215515D01*
X417171Y215493D01*
X417259Y215467D01*
X417345Y215438D01*
X417430Y215405D01*
X417513Y215368D01*
X417595Y215328D01*
X417675Y215284D01*
X417753Y215237D01*
X417829Y215186D01*
X417902Y215133D01*
X417973Y215076D01*
X418042Y215015D01*
X418107Y214952D01*
X418170Y214887D01*
X418230Y214818D01*
X418288Y214747D01*
X418341Y214674D01*
X418392Y214598D01*
X418439Y214520D01*
X418483Y214440D01*
X418523Y214358D01*
X418560Y214275D01*
X418593Y214190D01*
X418622Y214104D01*
X418648Y214016D01*
X418670Y213928D01*
X418687Y213839D01*
X418701Y213749D01*
X418711Y213658D01*
X418717Y213567D01*
X418719Y213476D01*
X418719Y210343D01*
X418719Y205811D02*
X409321Y205811D01*
X409321Y200589D02*
X418719Y205811D01*
X418719Y200589D02*
X409321Y200589D01*
X409321Y196057D02*
X418719Y196057D01*
X418719Y193446D01*
X418717Y193346D01*
X418711Y193246D01*
X418702Y193147D01*
X418688Y193047D01*
X418671Y192949D01*
X418650Y192851D01*
X418626Y192754D01*
X418597Y192658D01*
X418565Y192563D01*
X418530Y192470D01*
X418491Y192378D01*
X418448Y192287D01*
X418402Y192199D01*
X418352Y192112D01*
X418300Y192027D01*
X418244Y191944D01*
X418185Y191863D01*
X418122Y191785D01*
X418057Y191709D01*
X417989Y191635D01*
X417919Y191565D01*
X417845Y191497D01*
X417769Y191432D01*
X417691Y191369D01*
X417610Y191310D01*
X417527Y191254D01*
X417442Y191202D01*
X417355Y191152D01*
X417267Y191106D01*
X417176Y191063D01*
X417084Y191024D01*
X416991Y190989D01*
X416896Y190957D01*
X416800Y190928D01*
X416703Y190904D01*
X416605Y190883D01*
X416507Y190866D01*
X416407Y190852D01*
X416308Y190843D01*
X416208Y190837D01*
X416108Y190835D01*
X416108Y190836D02*
X411932Y190836D01*
X411932Y190835D02*
X411832Y190837D01*
X411732Y190843D01*
X411633Y190852D01*
X411533Y190866D01*
X411435Y190883D01*
X411337Y190904D01*
X411240Y190928D01*
X411144Y190957D01*
X411049Y190989D01*
X410956Y191024D01*
X410864Y191063D01*
X410773Y191106D01*
X410685Y191152D01*
X410598Y191202D01*
X410513Y191254D01*
X410430Y191310D01*
X410349Y191369D01*
X410271Y191432D01*
X410195Y191497D01*
X410121Y191565D01*
X410051Y191635D01*
X409983Y191709D01*
X409918Y191785D01*
X409855Y191863D01*
X409796Y191944D01*
X409740Y192027D01*
X409688Y192112D01*
X409638Y192199D01*
X409592Y192287D01*
X409549Y192378D01*
X409510Y192470D01*
X409475Y192563D01*
X409443Y192658D01*
X409414Y192754D01*
X409390Y192851D01*
X409369Y192949D01*
X409352Y193047D01*
X409338Y193147D01*
X409329Y193246D01*
X409323Y193346D01*
X409321Y193446D01*
X409321Y196057D01*
D12*
X444500Y368300D02*
X444504Y368607D01*
X444515Y368914D01*
X444533Y369220D01*
X444559Y369526D01*
X444593Y369831D01*
X444633Y370135D01*
X444681Y370438D01*
X444737Y370740D01*
X444799Y371040D01*
X444869Y371339D01*
X444946Y371636D01*
X445030Y371932D01*
X445122Y372225D01*
X445220Y372515D01*
X445325Y372803D01*
X445438Y373089D01*
X445557Y373372D01*
X445683Y373652D01*
X445815Y373929D01*
X445955Y374202D01*
X446101Y374472D01*
X446253Y374738D01*
X446412Y375001D01*
X446577Y375260D01*
X446748Y375514D01*
X446925Y375765D01*
X447109Y376011D01*
X447298Y376253D01*
X447493Y376489D01*
X447694Y376722D01*
X447900Y376949D01*
X448112Y377171D01*
X448329Y377388D01*
X448551Y377600D01*
X448778Y377806D01*
X449011Y378007D01*
X449247Y378202D01*
X449489Y378391D01*
X449735Y378575D01*
X449986Y378752D01*
X450240Y378923D01*
X450499Y379088D01*
X450762Y379247D01*
X451028Y379399D01*
X451298Y379545D01*
X451571Y379685D01*
X451848Y379817D01*
X452128Y379943D01*
X452411Y380062D01*
X452697Y380175D01*
X452985Y380280D01*
X453275Y380378D01*
X453568Y380470D01*
X453864Y380554D01*
X454161Y380631D01*
X454460Y380701D01*
X454760Y380763D01*
X455062Y380819D01*
X455365Y380867D01*
X455669Y380907D01*
X455974Y380941D01*
X456280Y380967D01*
X456586Y380985D01*
X456893Y380996D01*
X457200Y381000D01*
X444500Y38100D02*
X444504Y37793D01*
X444515Y37486D01*
X444533Y37180D01*
X444559Y36874D01*
X444593Y36569D01*
X444633Y36265D01*
X444681Y35962D01*
X444737Y35660D01*
X444799Y35360D01*
X444869Y35061D01*
X444946Y34764D01*
X445030Y34468D01*
X445122Y34175D01*
X445220Y33885D01*
X445325Y33597D01*
X445438Y33311D01*
X445557Y33028D01*
X445683Y32748D01*
X445815Y32471D01*
X445955Y32198D01*
X446101Y31928D01*
X446253Y31662D01*
X446412Y31399D01*
X446577Y31140D01*
X446748Y30886D01*
X446925Y30635D01*
X447109Y30389D01*
X447298Y30147D01*
X447493Y29911D01*
X447694Y29678D01*
X447900Y29451D01*
X448112Y29229D01*
X448329Y29012D01*
X448551Y28800D01*
X448778Y28594D01*
X449011Y28393D01*
X449247Y28198D01*
X449489Y28009D01*
X449735Y27825D01*
X449986Y27648D01*
X450240Y27477D01*
X450499Y27312D01*
X450762Y27153D01*
X451028Y27001D01*
X451298Y26855D01*
X451571Y26715D01*
X451848Y26583D01*
X452128Y26457D01*
X452411Y26338D01*
X452697Y26225D01*
X452985Y26120D01*
X453275Y26022D01*
X453568Y25930D01*
X453864Y25846D01*
X454161Y25769D01*
X454460Y25699D01*
X454760Y25637D01*
X455062Y25581D01*
X455365Y25533D01*
X455669Y25493D01*
X455974Y25459D01*
X456280Y25433D01*
X456586Y25415D01*
X456893Y25404D01*
X457200Y25400D01*
X431800Y203200D02*
X432107Y203204D01*
X432414Y203215D01*
X432720Y203233D01*
X433026Y203259D01*
X433331Y203293D01*
X433635Y203333D01*
X433938Y203381D01*
X434240Y203437D01*
X434540Y203499D01*
X434839Y203569D01*
X435136Y203646D01*
X435432Y203730D01*
X435725Y203822D01*
X436015Y203920D01*
X436303Y204025D01*
X436589Y204138D01*
X436872Y204257D01*
X437152Y204383D01*
X437429Y204515D01*
X437702Y204655D01*
X437972Y204801D01*
X438238Y204953D01*
X438501Y205112D01*
X438760Y205277D01*
X439014Y205448D01*
X439265Y205625D01*
X439511Y205809D01*
X439753Y205998D01*
X439989Y206193D01*
X440222Y206394D01*
X440449Y206600D01*
X440671Y206812D01*
X440888Y207029D01*
X441100Y207251D01*
X441306Y207478D01*
X441507Y207711D01*
X441702Y207947D01*
X441891Y208189D01*
X442075Y208435D01*
X442252Y208686D01*
X442423Y208940D01*
X442588Y209199D01*
X442747Y209462D01*
X442899Y209728D01*
X443045Y209998D01*
X443185Y210271D01*
X443317Y210548D01*
X443443Y210828D01*
X443562Y211111D01*
X443675Y211397D01*
X443780Y211685D01*
X443878Y211975D01*
X443970Y212268D01*
X444054Y212564D01*
X444131Y212861D01*
X444201Y213160D01*
X444263Y213460D01*
X444319Y213762D01*
X444367Y214065D01*
X444407Y214369D01*
X444441Y214674D01*
X444467Y214980D01*
X444485Y215286D01*
X444496Y215593D01*
X444500Y215900D01*
X431800Y203200D02*
X432107Y203196D01*
X432414Y203185D01*
X432720Y203167D01*
X433026Y203141D01*
X433331Y203107D01*
X433635Y203067D01*
X433938Y203019D01*
X434240Y202963D01*
X434540Y202901D01*
X434839Y202831D01*
X435136Y202754D01*
X435432Y202670D01*
X435725Y202578D01*
X436015Y202480D01*
X436303Y202375D01*
X436589Y202262D01*
X436872Y202143D01*
X437152Y202017D01*
X437429Y201885D01*
X437702Y201745D01*
X437972Y201599D01*
X438238Y201447D01*
X438501Y201288D01*
X438760Y201123D01*
X439014Y200952D01*
X439265Y200775D01*
X439511Y200591D01*
X439753Y200402D01*
X439989Y200207D01*
X440222Y200006D01*
X440449Y199800D01*
X440671Y199588D01*
X440888Y199371D01*
X441100Y199149D01*
X441306Y198922D01*
X441507Y198689D01*
X441702Y198453D01*
X441891Y198211D01*
X442075Y197965D01*
X442252Y197714D01*
X442423Y197460D01*
X442588Y197201D01*
X442747Y196938D01*
X442899Y196672D01*
X443045Y196402D01*
X443185Y196129D01*
X443317Y195852D01*
X443443Y195572D01*
X443562Y195289D01*
X443675Y195003D01*
X443780Y194715D01*
X443878Y194425D01*
X443970Y194132D01*
X444054Y193836D01*
X444131Y193539D01*
X444201Y193240D01*
X444263Y192940D01*
X444319Y192638D01*
X444367Y192335D01*
X444407Y192031D01*
X444441Y191726D01*
X444467Y191420D01*
X444485Y191114D01*
X444496Y190807D01*
X444500Y190500D01*
D11*
X353266Y523621D02*
X353266Y533019D01*
X355876Y533019D01*
X355977Y533017D01*
X356078Y533011D01*
X356179Y533001D01*
X356279Y532988D01*
X356379Y532970D01*
X356478Y532949D01*
X356576Y532923D01*
X356673Y532894D01*
X356769Y532862D01*
X356863Y532825D01*
X356956Y532785D01*
X357048Y532741D01*
X357137Y532694D01*
X357225Y532643D01*
X357311Y532589D01*
X357394Y532532D01*
X357476Y532472D01*
X357554Y532408D01*
X357631Y532342D01*
X357704Y532272D01*
X357775Y532200D01*
X357843Y532125D01*
X357908Y532047D01*
X357970Y531967D01*
X358029Y531885D01*
X358085Y531800D01*
X358137Y531714D01*
X358186Y531625D01*
X358232Y531534D01*
X358273Y531442D01*
X358312Y531348D01*
X358346Y531253D01*
X358377Y531157D01*
X358404Y531059D01*
X358428Y530961D01*
X358447Y530861D01*
X358463Y530761D01*
X358475Y530661D01*
X358483Y530560D01*
X358487Y530459D01*
X358487Y530357D01*
X358483Y530256D01*
X358475Y530155D01*
X358463Y530055D01*
X358447Y529955D01*
X358428Y529855D01*
X358404Y529757D01*
X358377Y529659D01*
X358346Y529563D01*
X358312Y529468D01*
X358273Y529374D01*
X358232Y529282D01*
X358186Y529191D01*
X358137Y529103D01*
X358085Y529016D01*
X358029Y528931D01*
X357970Y528849D01*
X357908Y528769D01*
X357843Y528691D01*
X357775Y528616D01*
X357704Y528544D01*
X357631Y528474D01*
X357554Y528408D01*
X357476Y528344D01*
X357394Y528284D01*
X357311Y528227D01*
X357225Y528173D01*
X357137Y528122D01*
X357048Y528075D01*
X356956Y528031D01*
X356863Y527991D01*
X356769Y527954D01*
X356673Y527922D01*
X356576Y527893D01*
X356478Y527867D01*
X356379Y527846D01*
X356279Y527828D01*
X356179Y527815D01*
X356078Y527805D01*
X355977Y527799D01*
X355876Y527797D01*
X355876Y527798D02*
X353266Y527798D01*
X361841Y529886D02*
X361841Y523621D01*
X361580Y532497D02*
X361580Y533019D01*
X362102Y533019D01*
X362102Y532497D01*
X361580Y532497D01*
X367120Y523621D02*
X369209Y523621D01*
X367120Y523621D02*
X367043Y523623D01*
X366967Y523629D01*
X366890Y523638D01*
X366814Y523651D01*
X366739Y523668D01*
X366665Y523688D01*
X366592Y523713D01*
X366521Y523740D01*
X366450Y523771D01*
X366382Y523806D01*
X366315Y523844D01*
X366250Y523885D01*
X366187Y523929D01*
X366127Y523976D01*
X366068Y524027D01*
X366013Y524080D01*
X365960Y524135D01*
X365909Y524194D01*
X365862Y524254D01*
X365818Y524317D01*
X365777Y524382D01*
X365739Y524449D01*
X365704Y524517D01*
X365673Y524588D01*
X365646Y524659D01*
X365621Y524732D01*
X365601Y524806D01*
X365584Y524881D01*
X365571Y524957D01*
X365562Y525034D01*
X365556Y525110D01*
X365554Y525187D01*
X365554Y528320D01*
X365556Y528397D01*
X365562Y528473D01*
X365571Y528550D01*
X365584Y528626D01*
X365601Y528701D01*
X365621Y528775D01*
X365646Y528848D01*
X365673Y528919D01*
X365704Y528990D01*
X365739Y529058D01*
X365777Y529125D01*
X365818Y529190D01*
X365862Y529253D01*
X365909Y529313D01*
X365960Y529372D01*
X366013Y529427D01*
X366068Y529480D01*
X366127Y529531D01*
X366187Y529578D01*
X366250Y529622D01*
X366315Y529663D01*
X366382Y529701D01*
X366450Y529736D01*
X366521Y529767D01*
X366592Y529794D01*
X366665Y529819D01*
X366739Y529839D01*
X366814Y529856D01*
X366890Y529869D01*
X366967Y529878D01*
X367043Y529884D01*
X367120Y529886D01*
X369209Y529886D01*
X372554Y527798D02*
X372554Y525709D01*
X372555Y527798D02*
X372557Y527888D01*
X372563Y527977D01*
X372572Y528067D01*
X372586Y528156D01*
X372603Y528244D01*
X372624Y528331D01*
X372649Y528418D01*
X372678Y528503D01*
X372710Y528587D01*
X372745Y528669D01*
X372785Y528750D01*
X372827Y528829D01*
X372873Y528906D01*
X372923Y528981D01*
X372975Y529054D01*
X373031Y529125D01*
X373089Y529193D01*
X373151Y529258D01*
X373215Y529321D01*
X373282Y529381D01*
X373351Y529438D01*
X373423Y529492D01*
X373497Y529543D01*
X373573Y529591D01*
X373651Y529635D01*
X373731Y529676D01*
X373813Y529714D01*
X373896Y529748D01*
X373981Y529778D01*
X374067Y529805D01*
X374153Y529828D01*
X374241Y529847D01*
X374330Y529862D01*
X374419Y529874D01*
X374508Y529882D01*
X374598Y529886D01*
X374688Y529886D01*
X374778Y529882D01*
X374867Y529874D01*
X374956Y529862D01*
X375045Y529847D01*
X375133Y529828D01*
X375219Y529805D01*
X375305Y529778D01*
X375390Y529748D01*
X375473Y529714D01*
X375555Y529676D01*
X375635Y529635D01*
X375713Y529591D01*
X375789Y529543D01*
X375863Y529492D01*
X375935Y529438D01*
X376004Y529381D01*
X376071Y529321D01*
X376135Y529258D01*
X376197Y529193D01*
X376255Y529125D01*
X376311Y529054D01*
X376363Y528981D01*
X376413Y528906D01*
X376459Y528829D01*
X376501Y528750D01*
X376541Y528669D01*
X376576Y528587D01*
X376608Y528503D01*
X376637Y528418D01*
X376662Y528331D01*
X376683Y528244D01*
X376700Y528156D01*
X376714Y528067D01*
X376723Y527977D01*
X376729Y527888D01*
X376731Y527798D01*
X376731Y525709D01*
X376729Y525619D01*
X376723Y525530D01*
X376714Y525440D01*
X376700Y525351D01*
X376683Y525263D01*
X376662Y525176D01*
X376637Y525089D01*
X376608Y525004D01*
X376576Y524920D01*
X376541Y524838D01*
X376501Y524757D01*
X376459Y524678D01*
X376413Y524601D01*
X376363Y524526D01*
X376311Y524453D01*
X376255Y524382D01*
X376197Y524314D01*
X376135Y524249D01*
X376071Y524186D01*
X376004Y524126D01*
X375935Y524069D01*
X375863Y524015D01*
X375789Y523964D01*
X375713Y523916D01*
X375635Y523872D01*
X375555Y523831D01*
X375473Y523793D01*
X375390Y523759D01*
X375305Y523729D01*
X375219Y523702D01*
X375133Y523679D01*
X375045Y523660D01*
X374956Y523645D01*
X374867Y523633D01*
X374778Y523625D01*
X374688Y523621D01*
X374598Y523621D01*
X374508Y523625D01*
X374419Y523633D01*
X374330Y523645D01*
X374241Y523660D01*
X374153Y523679D01*
X374067Y523702D01*
X373981Y523729D01*
X373896Y523759D01*
X373813Y523793D01*
X373731Y523831D01*
X373651Y523872D01*
X373573Y523916D01*
X373497Y523964D01*
X373423Y524015D01*
X373351Y524069D01*
X373282Y524126D01*
X373215Y524186D01*
X373151Y524249D01*
X373089Y524314D01*
X373031Y524382D01*
X372975Y524453D01*
X372923Y524526D01*
X372873Y524601D01*
X372827Y524678D01*
X372785Y524757D01*
X372745Y524838D01*
X372710Y524920D01*
X372678Y525004D01*
X372649Y525089D01*
X372624Y525176D01*
X372603Y525263D01*
X372586Y525351D01*
X372572Y525440D01*
X372563Y525530D01*
X372557Y525619D01*
X372555Y525709D01*
X385138Y533019D02*
X390359Y533019D01*
X385138Y523621D01*
X390359Y523621D01*
X395456Y523621D02*
X398067Y523621D01*
X395456Y523621D02*
X395379Y523623D01*
X395303Y523629D01*
X395226Y523638D01*
X395150Y523651D01*
X395075Y523668D01*
X395001Y523688D01*
X394928Y523713D01*
X394857Y523740D01*
X394786Y523771D01*
X394718Y523806D01*
X394651Y523844D01*
X394586Y523885D01*
X394523Y523929D01*
X394463Y523976D01*
X394404Y524027D01*
X394349Y524080D01*
X394296Y524135D01*
X394245Y524194D01*
X394198Y524254D01*
X394154Y524317D01*
X394113Y524382D01*
X394075Y524449D01*
X394040Y524517D01*
X394009Y524588D01*
X393982Y524659D01*
X393957Y524732D01*
X393937Y524806D01*
X393920Y524881D01*
X393907Y524957D01*
X393898Y525034D01*
X393892Y525110D01*
X393890Y525187D01*
X393890Y527798D01*
X393892Y527888D01*
X393898Y527977D01*
X393907Y528067D01*
X393921Y528156D01*
X393938Y528244D01*
X393959Y528331D01*
X393984Y528418D01*
X394013Y528503D01*
X394045Y528587D01*
X394080Y528669D01*
X394120Y528750D01*
X394162Y528829D01*
X394208Y528906D01*
X394258Y528981D01*
X394310Y529054D01*
X394366Y529125D01*
X394424Y529193D01*
X394486Y529258D01*
X394550Y529321D01*
X394617Y529381D01*
X394686Y529438D01*
X394758Y529492D01*
X394832Y529543D01*
X394908Y529591D01*
X394986Y529635D01*
X395066Y529676D01*
X395148Y529714D01*
X395231Y529748D01*
X395316Y529778D01*
X395402Y529805D01*
X395488Y529828D01*
X395576Y529847D01*
X395665Y529862D01*
X395754Y529874D01*
X395843Y529882D01*
X395933Y529886D01*
X396023Y529886D01*
X396113Y529882D01*
X396202Y529874D01*
X396291Y529862D01*
X396380Y529847D01*
X396468Y529828D01*
X396554Y529805D01*
X396640Y529778D01*
X396725Y529748D01*
X396808Y529714D01*
X396890Y529676D01*
X396970Y529635D01*
X397048Y529591D01*
X397124Y529543D01*
X397198Y529492D01*
X397270Y529438D01*
X397339Y529381D01*
X397406Y529321D01*
X397470Y529258D01*
X397532Y529193D01*
X397590Y529125D01*
X397646Y529054D01*
X397698Y528981D01*
X397748Y528906D01*
X397794Y528829D01*
X397836Y528750D01*
X397876Y528669D01*
X397911Y528587D01*
X397943Y528503D01*
X397972Y528418D01*
X397997Y528331D01*
X398018Y528244D01*
X398035Y528156D01*
X398049Y528067D01*
X398058Y527977D01*
X398064Y527888D01*
X398066Y527798D01*
X398067Y527798D02*
X398067Y526754D01*
X393890Y526754D01*
X402171Y523621D02*
X402171Y529886D01*
X405304Y529886D01*
X405304Y528842D01*
X408216Y527798D02*
X408216Y525709D01*
X408216Y527798D02*
X408218Y527888D01*
X408224Y527977D01*
X408233Y528067D01*
X408247Y528156D01*
X408264Y528244D01*
X408285Y528331D01*
X408310Y528418D01*
X408339Y528503D01*
X408371Y528587D01*
X408406Y528669D01*
X408446Y528750D01*
X408488Y528829D01*
X408534Y528906D01*
X408584Y528981D01*
X408636Y529054D01*
X408692Y529125D01*
X408750Y529193D01*
X408812Y529258D01*
X408876Y529321D01*
X408943Y529381D01*
X409012Y529438D01*
X409084Y529492D01*
X409158Y529543D01*
X409234Y529591D01*
X409312Y529635D01*
X409392Y529676D01*
X409474Y529714D01*
X409557Y529748D01*
X409642Y529778D01*
X409728Y529805D01*
X409814Y529828D01*
X409902Y529847D01*
X409991Y529862D01*
X410080Y529874D01*
X410169Y529882D01*
X410259Y529886D01*
X410349Y529886D01*
X410439Y529882D01*
X410528Y529874D01*
X410617Y529862D01*
X410706Y529847D01*
X410794Y529828D01*
X410880Y529805D01*
X410966Y529778D01*
X411051Y529748D01*
X411134Y529714D01*
X411216Y529676D01*
X411296Y529635D01*
X411374Y529591D01*
X411450Y529543D01*
X411524Y529492D01*
X411596Y529438D01*
X411665Y529381D01*
X411732Y529321D01*
X411796Y529258D01*
X411858Y529193D01*
X411916Y529125D01*
X411972Y529054D01*
X412024Y528981D01*
X412074Y528906D01*
X412120Y528829D01*
X412162Y528750D01*
X412202Y528669D01*
X412237Y528587D01*
X412269Y528503D01*
X412298Y528418D01*
X412323Y528331D01*
X412344Y528244D01*
X412361Y528156D01*
X412375Y528067D01*
X412384Y527977D01*
X412390Y527888D01*
X412392Y527798D01*
X412392Y525709D01*
X412390Y525619D01*
X412384Y525530D01*
X412375Y525440D01*
X412361Y525351D01*
X412344Y525263D01*
X412323Y525176D01*
X412298Y525089D01*
X412269Y525004D01*
X412237Y524920D01*
X412202Y524838D01*
X412162Y524757D01*
X412120Y524678D01*
X412074Y524601D01*
X412024Y524526D01*
X411972Y524453D01*
X411916Y524382D01*
X411858Y524314D01*
X411796Y524249D01*
X411732Y524186D01*
X411665Y524126D01*
X411596Y524069D01*
X411524Y524015D01*
X411450Y523964D01*
X411374Y523916D01*
X411296Y523872D01*
X411216Y523831D01*
X411134Y523793D01*
X411051Y523759D01*
X410966Y523729D01*
X410880Y523702D01*
X410794Y523679D01*
X410706Y523660D01*
X410617Y523645D01*
X410528Y523633D01*
X410439Y523625D01*
X410349Y523621D01*
X410259Y523621D01*
X410169Y523625D01*
X410080Y523633D01*
X409991Y523645D01*
X409902Y523660D01*
X409814Y523679D01*
X409728Y523702D01*
X409642Y523729D01*
X409557Y523759D01*
X409474Y523793D01*
X409392Y523831D01*
X409312Y523872D01*
X409234Y523916D01*
X409158Y523964D01*
X409084Y524015D01*
X409012Y524069D01*
X408943Y524126D01*
X408876Y524186D01*
X408812Y524249D01*
X408750Y524314D01*
X408692Y524382D01*
X408636Y524453D01*
X408584Y524526D01*
X408534Y524601D01*
X408488Y524678D01*
X408446Y524757D01*
X408406Y524838D01*
X408371Y524920D01*
X408339Y525004D01*
X408310Y525089D01*
X408285Y525176D01*
X408264Y525263D01*
X408247Y525351D01*
X408233Y525440D01*
X408224Y525530D01*
X408218Y525619D01*
X408216Y525709D01*
X422538Y523621D02*
X425148Y523621D01*
X422538Y523621D02*
X422461Y523623D01*
X422385Y523629D01*
X422308Y523638D01*
X422232Y523651D01*
X422157Y523668D01*
X422083Y523688D01*
X422010Y523713D01*
X421939Y523740D01*
X421868Y523771D01*
X421800Y523806D01*
X421733Y523844D01*
X421668Y523885D01*
X421605Y523929D01*
X421545Y523976D01*
X421486Y524027D01*
X421431Y524080D01*
X421378Y524135D01*
X421327Y524194D01*
X421280Y524254D01*
X421236Y524317D01*
X421195Y524382D01*
X421157Y524449D01*
X421122Y524517D01*
X421091Y524588D01*
X421064Y524659D01*
X421039Y524732D01*
X421019Y524806D01*
X421002Y524881D01*
X420989Y524957D01*
X420980Y525034D01*
X420974Y525110D01*
X420972Y525187D01*
X420971Y525187D02*
X420971Y528320D01*
X420972Y528320D02*
X420974Y528397D01*
X420980Y528473D01*
X420989Y528550D01*
X421002Y528626D01*
X421019Y528701D01*
X421039Y528775D01*
X421064Y528848D01*
X421091Y528919D01*
X421122Y528990D01*
X421157Y529058D01*
X421195Y529125D01*
X421236Y529190D01*
X421280Y529253D01*
X421327Y529313D01*
X421378Y529372D01*
X421431Y529427D01*
X421486Y529480D01*
X421545Y529531D01*
X421605Y529578D01*
X421668Y529622D01*
X421733Y529663D01*
X421800Y529701D01*
X421868Y529736D01*
X421939Y529767D01*
X422010Y529794D01*
X422083Y529819D01*
X422157Y529839D01*
X422232Y529856D01*
X422308Y529869D01*
X422385Y529878D01*
X422461Y529884D01*
X422538Y529886D01*
X425148Y529886D01*
X425148Y522055D01*
X425146Y521978D01*
X425140Y521902D01*
X425131Y521825D01*
X425118Y521749D01*
X425101Y521674D01*
X425081Y521600D01*
X425056Y521527D01*
X425029Y521456D01*
X424998Y521385D01*
X424963Y521317D01*
X424925Y521250D01*
X424884Y521185D01*
X424840Y521122D01*
X424793Y521062D01*
X424742Y521003D01*
X424689Y520948D01*
X424634Y520895D01*
X424575Y520844D01*
X424515Y520797D01*
X424452Y520753D01*
X424387Y520712D01*
X424320Y520674D01*
X424252Y520639D01*
X424181Y520608D01*
X424110Y520581D01*
X424037Y520556D01*
X423963Y520536D01*
X423888Y520519D01*
X423812Y520506D01*
X423736Y520497D01*
X423659Y520491D01*
X423582Y520489D01*
X423582Y520488D02*
X421493Y520488D01*
X429247Y525709D02*
X429247Y527798D01*
X429249Y527888D01*
X429255Y527977D01*
X429264Y528067D01*
X429278Y528156D01*
X429295Y528244D01*
X429316Y528331D01*
X429341Y528418D01*
X429370Y528503D01*
X429402Y528587D01*
X429437Y528669D01*
X429477Y528750D01*
X429519Y528829D01*
X429565Y528906D01*
X429615Y528981D01*
X429667Y529054D01*
X429723Y529125D01*
X429781Y529193D01*
X429843Y529258D01*
X429907Y529321D01*
X429974Y529381D01*
X430043Y529438D01*
X430115Y529492D01*
X430189Y529543D01*
X430265Y529591D01*
X430343Y529635D01*
X430423Y529676D01*
X430505Y529714D01*
X430588Y529748D01*
X430673Y529778D01*
X430759Y529805D01*
X430845Y529828D01*
X430933Y529847D01*
X431022Y529862D01*
X431111Y529874D01*
X431200Y529882D01*
X431290Y529886D01*
X431380Y529886D01*
X431470Y529882D01*
X431559Y529874D01*
X431648Y529862D01*
X431737Y529847D01*
X431825Y529828D01*
X431911Y529805D01*
X431997Y529778D01*
X432082Y529748D01*
X432165Y529714D01*
X432247Y529676D01*
X432327Y529635D01*
X432405Y529591D01*
X432481Y529543D01*
X432555Y529492D01*
X432627Y529438D01*
X432696Y529381D01*
X432763Y529321D01*
X432827Y529258D01*
X432889Y529193D01*
X432947Y529125D01*
X433003Y529054D01*
X433055Y528981D01*
X433105Y528906D01*
X433151Y528829D01*
X433193Y528750D01*
X433233Y528669D01*
X433268Y528587D01*
X433300Y528503D01*
X433329Y528418D01*
X433354Y528331D01*
X433375Y528244D01*
X433392Y528156D01*
X433406Y528067D01*
X433415Y527977D01*
X433421Y527888D01*
X433423Y527798D01*
X433423Y525709D01*
X433421Y525619D01*
X433415Y525530D01*
X433406Y525440D01*
X433392Y525351D01*
X433375Y525263D01*
X433354Y525176D01*
X433329Y525089D01*
X433300Y525004D01*
X433268Y524920D01*
X433233Y524838D01*
X433193Y524757D01*
X433151Y524678D01*
X433105Y524601D01*
X433055Y524526D01*
X433003Y524453D01*
X432947Y524382D01*
X432889Y524314D01*
X432827Y524249D01*
X432763Y524186D01*
X432696Y524126D01*
X432627Y524069D01*
X432555Y524015D01*
X432481Y523964D01*
X432405Y523916D01*
X432327Y523872D01*
X432247Y523831D01*
X432165Y523793D01*
X432082Y523759D01*
X431997Y523729D01*
X431911Y523702D01*
X431825Y523679D01*
X431737Y523660D01*
X431648Y523645D01*
X431559Y523633D01*
X431470Y523625D01*
X431380Y523621D01*
X431290Y523621D01*
X431200Y523625D01*
X431111Y523633D01*
X431022Y523645D01*
X430933Y523660D01*
X430845Y523679D01*
X430759Y523702D01*
X430673Y523729D01*
X430588Y523759D01*
X430505Y523793D01*
X430423Y523831D01*
X430343Y523872D01*
X430265Y523916D01*
X430189Y523964D01*
X430115Y524015D01*
X430043Y524069D01*
X429974Y524126D01*
X429907Y524186D01*
X429843Y524249D01*
X429781Y524314D01*
X429723Y524382D01*
X429667Y524453D01*
X429615Y524526D01*
X429565Y524601D01*
X429519Y524678D01*
X429477Y524757D01*
X429437Y524838D01*
X429402Y524920D01*
X429370Y525004D01*
X429341Y525089D01*
X429316Y525176D01*
X429295Y525263D01*
X429278Y525351D01*
X429264Y525440D01*
X429255Y525530D01*
X429249Y525619D01*
X429247Y525709D01*
X438738Y523621D02*
X441348Y523621D01*
X438738Y523621D02*
X438661Y523623D01*
X438585Y523629D01*
X438508Y523638D01*
X438432Y523651D01*
X438357Y523668D01*
X438283Y523688D01*
X438210Y523713D01*
X438139Y523740D01*
X438068Y523771D01*
X438000Y523806D01*
X437933Y523844D01*
X437868Y523885D01*
X437805Y523929D01*
X437745Y523976D01*
X437686Y524027D01*
X437631Y524080D01*
X437578Y524135D01*
X437527Y524194D01*
X437480Y524254D01*
X437436Y524317D01*
X437395Y524382D01*
X437357Y524449D01*
X437322Y524517D01*
X437291Y524588D01*
X437264Y524659D01*
X437239Y524732D01*
X437219Y524806D01*
X437202Y524881D01*
X437189Y524957D01*
X437180Y525034D01*
X437174Y525110D01*
X437172Y525187D01*
X437171Y525187D02*
X437171Y527798D01*
X437172Y527798D02*
X437174Y527888D01*
X437180Y527977D01*
X437189Y528067D01*
X437203Y528156D01*
X437220Y528244D01*
X437241Y528331D01*
X437266Y528418D01*
X437295Y528503D01*
X437327Y528587D01*
X437362Y528669D01*
X437402Y528750D01*
X437444Y528829D01*
X437490Y528906D01*
X437540Y528981D01*
X437592Y529054D01*
X437648Y529125D01*
X437706Y529193D01*
X437768Y529258D01*
X437832Y529321D01*
X437899Y529381D01*
X437968Y529438D01*
X438040Y529492D01*
X438114Y529543D01*
X438190Y529591D01*
X438268Y529635D01*
X438348Y529676D01*
X438430Y529714D01*
X438513Y529748D01*
X438598Y529778D01*
X438684Y529805D01*
X438770Y529828D01*
X438858Y529847D01*
X438947Y529862D01*
X439036Y529874D01*
X439125Y529882D01*
X439215Y529886D01*
X439305Y529886D01*
X439395Y529882D01*
X439484Y529874D01*
X439573Y529862D01*
X439662Y529847D01*
X439750Y529828D01*
X439836Y529805D01*
X439922Y529778D01*
X440007Y529748D01*
X440090Y529714D01*
X440172Y529676D01*
X440252Y529635D01*
X440330Y529591D01*
X440406Y529543D01*
X440480Y529492D01*
X440552Y529438D01*
X440621Y529381D01*
X440688Y529321D01*
X440752Y529258D01*
X440814Y529193D01*
X440872Y529125D01*
X440928Y529054D01*
X440980Y528981D01*
X441030Y528906D01*
X441076Y528829D01*
X441118Y528750D01*
X441158Y528669D01*
X441193Y528587D01*
X441225Y528503D01*
X441254Y528418D01*
X441279Y528331D01*
X441300Y528244D01*
X441317Y528156D01*
X441331Y528067D01*
X441340Y527977D01*
X441346Y527888D01*
X441348Y527798D01*
X441348Y526754D01*
X437171Y526754D01*
X445879Y527276D02*
X448490Y526232D01*
X445879Y527276D02*
X445813Y527304D01*
X445748Y527337D01*
X445685Y527372D01*
X445624Y527411D01*
X445565Y527453D01*
X445509Y527498D01*
X445455Y527546D01*
X445404Y527597D01*
X445355Y527650D01*
X445310Y527707D01*
X445267Y527765D01*
X445228Y527825D01*
X445191Y527888D01*
X445159Y527953D01*
X445130Y528019D01*
X445104Y528086D01*
X445082Y528155D01*
X445064Y528225D01*
X445049Y528296D01*
X445038Y528367D01*
X445031Y528439D01*
X445028Y528511D01*
X445029Y528583D01*
X445034Y528656D01*
X445042Y528727D01*
X445054Y528799D01*
X445070Y528869D01*
X445090Y528938D01*
X445114Y529007D01*
X445141Y529074D01*
X445171Y529139D01*
X445205Y529203D01*
X445243Y529265D01*
X445283Y529325D01*
X445327Y529382D01*
X445374Y529437D01*
X445424Y529490D01*
X445476Y529539D01*
X445531Y529586D01*
X445588Y529630D01*
X445648Y529671D01*
X445710Y529708D01*
X445774Y529743D01*
X445839Y529773D01*
X445906Y529801D01*
X445974Y529824D01*
X446044Y529844D01*
X446114Y529860D01*
X446185Y529873D01*
X446257Y529881D01*
X446329Y529886D01*
X446401Y529887D01*
X446402Y529886D02*
X446553Y529882D01*
X446704Y529874D01*
X446855Y529863D01*
X447006Y529847D01*
X447156Y529827D01*
X447306Y529804D01*
X447455Y529777D01*
X447603Y529746D01*
X447751Y529711D01*
X447897Y529673D01*
X448043Y529630D01*
X448187Y529584D01*
X448330Y529535D01*
X448472Y529482D01*
X448612Y529425D01*
X448751Y529364D01*
X448490Y526232D02*
X448556Y526204D01*
X448621Y526171D01*
X448684Y526136D01*
X448745Y526097D01*
X448804Y526055D01*
X448860Y526010D01*
X448914Y525962D01*
X448965Y525911D01*
X449014Y525858D01*
X449059Y525801D01*
X449102Y525743D01*
X449141Y525683D01*
X449178Y525620D01*
X449210Y525555D01*
X449239Y525489D01*
X449265Y525422D01*
X449287Y525353D01*
X449305Y525283D01*
X449320Y525212D01*
X449331Y525141D01*
X449338Y525069D01*
X449341Y524997D01*
X449340Y524925D01*
X449335Y524852D01*
X449327Y524781D01*
X449315Y524709D01*
X449299Y524639D01*
X449279Y524570D01*
X449255Y524501D01*
X449228Y524434D01*
X449198Y524369D01*
X449164Y524305D01*
X449126Y524243D01*
X449086Y524183D01*
X449042Y524126D01*
X448995Y524071D01*
X448945Y524018D01*
X448893Y523969D01*
X448838Y523922D01*
X448781Y523878D01*
X448721Y523837D01*
X448659Y523800D01*
X448595Y523765D01*
X448530Y523735D01*
X448463Y523707D01*
X448395Y523684D01*
X448325Y523664D01*
X448255Y523648D01*
X448184Y523635D01*
X448112Y523627D01*
X448040Y523622D01*
X447968Y523621D01*
X447758Y523626D01*
X447549Y523637D01*
X447340Y523652D01*
X447132Y523672D01*
X446924Y523698D01*
X446717Y523728D01*
X446510Y523763D01*
X446305Y523803D01*
X446100Y523847D01*
X445897Y523897D01*
X445694Y523951D01*
X445493Y524011D01*
X445294Y524074D01*
X445096Y524143D01*
X458202Y523621D02*
X458202Y533019D01*
X458202Y529886D02*
X460813Y529886D01*
X460890Y529884D01*
X460966Y529878D01*
X461043Y529869D01*
X461119Y529856D01*
X461194Y529839D01*
X461268Y529819D01*
X461341Y529794D01*
X461412Y529767D01*
X461483Y529736D01*
X461551Y529701D01*
X461618Y529663D01*
X461683Y529622D01*
X461746Y529578D01*
X461806Y529531D01*
X461865Y529480D01*
X461920Y529427D01*
X461973Y529372D01*
X462024Y529313D01*
X462071Y529253D01*
X462115Y529190D01*
X462156Y529125D01*
X462194Y529058D01*
X462229Y528990D01*
X462260Y528919D01*
X462287Y528848D01*
X462312Y528775D01*
X462332Y528701D01*
X462349Y528626D01*
X462362Y528550D01*
X462371Y528474D01*
X462377Y528397D01*
X462379Y528320D01*
X462379Y523621D01*
X467998Y523621D02*
X470609Y523621D01*
X467998Y523621D02*
X467921Y523623D01*
X467845Y523629D01*
X467768Y523638D01*
X467692Y523651D01*
X467617Y523668D01*
X467543Y523688D01*
X467470Y523713D01*
X467399Y523740D01*
X467328Y523771D01*
X467260Y523806D01*
X467193Y523844D01*
X467128Y523885D01*
X467065Y523929D01*
X467005Y523976D01*
X466946Y524027D01*
X466891Y524080D01*
X466838Y524135D01*
X466787Y524194D01*
X466740Y524254D01*
X466696Y524317D01*
X466655Y524382D01*
X466617Y524449D01*
X466582Y524517D01*
X466551Y524588D01*
X466524Y524659D01*
X466499Y524732D01*
X466479Y524806D01*
X466462Y524881D01*
X466449Y524957D01*
X466440Y525034D01*
X466434Y525110D01*
X466432Y525187D01*
X466432Y527798D01*
X466434Y527888D01*
X466440Y527977D01*
X466449Y528067D01*
X466463Y528156D01*
X466480Y528244D01*
X466501Y528331D01*
X466526Y528418D01*
X466555Y528503D01*
X466587Y528587D01*
X466622Y528669D01*
X466662Y528750D01*
X466704Y528829D01*
X466750Y528906D01*
X466800Y528981D01*
X466852Y529054D01*
X466908Y529125D01*
X466966Y529193D01*
X467028Y529258D01*
X467092Y529321D01*
X467159Y529381D01*
X467228Y529438D01*
X467300Y529492D01*
X467374Y529543D01*
X467450Y529591D01*
X467528Y529635D01*
X467608Y529676D01*
X467690Y529714D01*
X467773Y529748D01*
X467858Y529778D01*
X467944Y529805D01*
X468030Y529828D01*
X468118Y529847D01*
X468207Y529862D01*
X468296Y529874D01*
X468385Y529882D01*
X468475Y529886D01*
X468565Y529886D01*
X468655Y529882D01*
X468744Y529874D01*
X468833Y529862D01*
X468922Y529847D01*
X469010Y529828D01*
X469096Y529805D01*
X469182Y529778D01*
X469267Y529748D01*
X469350Y529714D01*
X469432Y529676D01*
X469512Y529635D01*
X469590Y529591D01*
X469666Y529543D01*
X469740Y529492D01*
X469812Y529438D01*
X469881Y529381D01*
X469948Y529321D01*
X470012Y529258D01*
X470074Y529193D01*
X470132Y529125D01*
X470188Y529054D01*
X470240Y528981D01*
X470290Y528906D01*
X470336Y528829D01*
X470378Y528750D01*
X470418Y528669D01*
X470453Y528587D01*
X470485Y528503D01*
X470514Y528418D01*
X470539Y528331D01*
X470560Y528244D01*
X470577Y528156D01*
X470591Y528067D01*
X470600Y527977D01*
X470606Y527888D01*
X470608Y527798D01*
X470609Y527798D02*
X470609Y526754D01*
X466432Y526754D01*
X474713Y523621D02*
X474713Y529886D01*
X477846Y529886D01*
X477846Y528842D01*
X482324Y523621D02*
X484934Y523621D01*
X482324Y523621D02*
X482247Y523623D01*
X482171Y523629D01*
X482094Y523638D01*
X482018Y523651D01*
X481943Y523668D01*
X481869Y523688D01*
X481796Y523713D01*
X481725Y523740D01*
X481654Y523771D01*
X481586Y523806D01*
X481519Y523844D01*
X481454Y523885D01*
X481391Y523929D01*
X481331Y523976D01*
X481272Y524027D01*
X481217Y524080D01*
X481164Y524135D01*
X481113Y524194D01*
X481066Y524254D01*
X481022Y524317D01*
X480981Y524382D01*
X480943Y524449D01*
X480908Y524517D01*
X480877Y524588D01*
X480850Y524659D01*
X480825Y524732D01*
X480805Y524806D01*
X480788Y524881D01*
X480775Y524957D01*
X480766Y525034D01*
X480760Y525110D01*
X480758Y525187D01*
X480757Y525187D02*
X480757Y527798D01*
X480758Y527798D02*
X480760Y527888D01*
X480766Y527977D01*
X480775Y528067D01*
X480789Y528156D01*
X480806Y528244D01*
X480827Y528331D01*
X480852Y528418D01*
X480881Y528503D01*
X480913Y528587D01*
X480948Y528669D01*
X480988Y528750D01*
X481030Y528829D01*
X481076Y528906D01*
X481126Y528981D01*
X481178Y529054D01*
X481234Y529125D01*
X481292Y529193D01*
X481354Y529258D01*
X481418Y529321D01*
X481485Y529381D01*
X481554Y529438D01*
X481626Y529492D01*
X481700Y529543D01*
X481776Y529591D01*
X481854Y529635D01*
X481934Y529676D01*
X482016Y529714D01*
X482099Y529748D01*
X482184Y529778D01*
X482270Y529805D01*
X482356Y529828D01*
X482444Y529847D01*
X482533Y529862D01*
X482622Y529874D01*
X482711Y529882D01*
X482801Y529886D01*
X482891Y529886D01*
X482981Y529882D01*
X483070Y529874D01*
X483159Y529862D01*
X483248Y529847D01*
X483336Y529828D01*
X483422Y529805D01*
X483508Y529778D01*
X483593Y529748D01*
X483676Y529714D01*
X483758Y529676D01*
X483838Y529635D01*
X483916Y529591D01*
X483992Y529543D01*
X484066Y529492D01*
X484138Y529438D01*
X484207Y529381D01*
X484274Y529321D01*
X484338Y529258D01*
X484400Y529193D01*
X484458Y529125D01*
X484514Y529054D01*
X484566Y528981D01*
X484616Y528906D01*
X484662Y528829D01*
X484704Y528750D01*
X484744Y528669D01*
X484779Y528587D01*
X484811Y528503D01*
X484840Y528418D01*
X484865Y528331D01*
X484886Y528244D01*
X484903Y528156D01*
X484917Y528067D01*
X484926Y527977D01*
X484932Y527888D01*
X484934Y527798D01*
X484934Y526754D01*
X480757Y526754D01*
X384222Y513602D02*
X381611Y513602D01*
X384222Y513603D02*
X384323Y513601D01*
X384424Y513595D01*
X384525Y513585D01*
X384625Y513572D01*
X384725Y513554D01*
X384824Y513533D01*
X384922Y513507D01*
X385019Y513478D01*
X385115Y513446D01*
X385209Y513409D01*
X385302Y513369D01*
X385394Y513325D01*
X385483Y513278D01*
X385571Y513227D01*
X385657Y513173D01*
X385740Y513116D01*
X385822Y513056D01*
X385900Y512992D01*
X385977Y512926D01*
X386050Y512856D01*
X386121Y512784D01*
X386189Y512709D01*
X386254Y512631D01*
X386316Y512551D01*
X386375Y512469D01*
X386431Y512384D01*
X386483Y512297D01*
X386532Y512209D01*
X386578Y512118D01*
X386619Y512026D01*
X386658Y511932D01*
X386692Y511837D01*
X386723Y511741D01*
X386750Y511643D01*
X386774Y511545D01*
X386793Y511445D01*
X386809Y511345D01*
X386821Y511245D01*
X386829Y511144D01*
X386833Y511043D01*
X386833Y510941D01*
X386829Y510840D01*
X386821Y510739D01*
X386809Y510639D01*
X386793Y510539D01*
X386774Y510439D01*
X386750Y510341D01*
X386723Y510243D01*
X386692Y510147D01*
X386658Y510052D01*
X386619Y509958D01*
X386578Y509866D01*
X386532Y509775D01*
X386483Y509687D01*
X386431Y509600D01*
X386375Y509515D01*
X386316Y509433D01*
X386254Y509353D01*
X386189Y509275D01*
X386121Y509200D01*
X386050Y509128D01*
X385977Y509058D01*
X385900Y508992D01*
X385822Y508928D01*
X385740Y508868D01*
X385657Y508811D01*
X385571Y508757D01*
X385483Y508706D01*
X385394Y508659D01*
X385302Y508615D01*
X385209Y508575D01*
X385115Y508538D01*
X385019Y508506D01*
X384922Y508477D01*
X384824Y508451D01*
X384725Y508430D01*
X384625Y508412D01*
X384525Y508399D01*
X384424Y508389D01*
X384323Y508383D01*
X384222Y508381D01*
X381611Y508381D01*
X381611Y517779D01*
X384222Y517779D01*
X384312Y517777D01*
X384401Y517771D01*
X384491Y517762D01*
X384580Y517748D01*
X384668Y517731D01*
X384755Y517710D01*
X384842Y517685D01*
X384927Y517656D01*
X385011Y517624D01*
X385093Y517589D01*
X385174Y517549D01*
X385253Y517507D01*
X385330Y517461D01*
X385405Y517411D01*
X385478Y517359D01*
X385549Y517303D01*
X385617Y517245D01*
X385682Y517183D01*
X385745Y517119D01*
X385805Y517052D01*
X385862Y516983D01*
X385916Y516911D01*
X385967Y516837D01*
X386015Y516761D01*
X386059Y516683D01*
X386100Y516603D01*
X386138Y516521D01*
X386172Y516438D01*
X386202Y516353D01*
X386229Y516267D01*
X386252Y516181D01*
X386271Y516093D01*
X386286Y516004D01*
X386298Y515915D01*
X386306Y515826D01*
X386310Y515736D01*
X386310Y515646D01*
X386306Y515556D01*
X386298Y515467D01*
X386286Y515378D01*
X386271Y515289D01*
X386252Y515201D01*
X386229Y515115D01*
X386202Y515029D01*
X386172Y514944D01*
X386138Y514861D01*
X386100Y514779D01*
X386059Y514699D01*
X386015Y514621D01*
X385967Y514545D01*
X385916Y514471D01*
X385862Y514399D01*
X385805Y514330D01*
X385745Y514263D01*
X385682Y514199D01*
X385617Y514137D01*
X385549Y514079D01*
X385478Y514023D01*
X385405Y513971D01*
X385330Y513921D01*
X385253Y513875D01*
X385174Y513833D01*
X385093Y513793D01*
X385011Y513758D01*
X384927Y513726D01*
X384842Y513697D01*
X384755Y513672D01*
X384668Y513651D01*
X384580Y513634D01*
X384491Y513620D01*
X384401Y513611D01*
X384312Y513605D01*
X384222Y513603D01*
X390536Y514646D02*
X390536Y509947D01*
X390537Y509947D02*
X390539Y509870D01*
X390545Y509794D01*
X390554Y509717D01*
X390567Y509641D01*
X390584Y509566D01*
X390604Y509492D01*
X390629Y509419D01*
X390656Y509348D01*
X390687Y509277D01*
X390722Y509209D01*
X390760Y509142D01*
X390801Y509077D01*
X390845Y509014D01*
X390892Y508954D01*
X390943Y508895D01*
X390996Y508840D01*
X391051Y508787D01*
X391110Y508736D01*
X391170Y508689D01*
X391233Y508645D01*
X391298Y508604D01*
X391365Y508566D01*
X391433Y508531D01*
X391504Y508500D01*
X391575Y508473D01*
X391648Y508448D01*
X391722Y508428D01*
X391797Y508411D01*
X391873Y508398D01*
X391950Y508389D01*
X392026Y508383D01*
X392103Y508381D01*
X394713Y508381D01*
X394713Y514646D01*
X397997Y514646D02*
X401130Y514646D01*
X399042Y517779D02*
X399042Y509947D01*
X399044Y509870D01*
X399050Y509794D01*
X399059Y509717D01*
X399072Y509641D01*
X399089Y509566D01*
X399109Y509492D01*
X399134Y509419D01*
X399161Y509348D01*
X399192Y509277D01*
X399227Y509209D01*
X399265Y509142D01*
X399306Y509077D01*
X399350Y509014D01*
X399397Y508954D01*
X399448Y508895D01*
X399501Y508840D01*
X399556Y508787D01*
X399615Y508736D01*
X399675Y508689D01*
X399738Y508645D01*
X399803Y508604D01*
X399870Y508566D01*
X399938Y508531D01*
X400009Y508500D01*
X400080Y508473D01*
X400153Y508448D01*
X400227Y508428D01*
X400302Y508411D01*
X400378Y508398D01*
X400455Y508389D01*
X400531Y508383D01*
X400608Y508381D01*
X401130Y508381D01*
X403789Y514646D02*
X406921Y514646D01*
X404833Y517779D02*
X404833Y509947D01*
X404835Y509870D01*
X404841Y509794D01*
X404850Y509717D01*
X404863Y509641D01*
X404880Y509566D01*
X404900Y509492D01*
X404925Y509419D01*
X404952Y509348D01*
X404983Y509277D01*
X405018Y509209D01*
X405056Y509142D01*
X405097Y509077D01*
X405141Y509014D01*
X405188Y508954D01*
X405239Y508895D01*
X405292Y508840D01*
X405347Y508787D01*
X405406Y508736D01*
X405466Y508689D01*
X405529Y508645D01*
X405594Y508604D01*
X405661Y508566D01*
X405729Y508531D01*
X405800Y508500D01*
X405871Y508473D01*
X405944Y508448D01*
X406018Y508428D01*
X406093Y508411D01*
X406169Y508398D01*
X406246Y508389D01*
X406322Y508383D01*
X406399Y508381D01*
X406921Y508381D01*
X410348Y510469D02*
X410348Y512558D01*
X410349Y512558D02*
X410351Y512648D01*
X410357Y512737D01*
X410366Y512827D01*
X410380Y512916D01*
X410397Y513004D01*
X410418Y513091D01*
X410443Y513178D01*
X410472Y513263D01*
X410504Y513347D01*
X410539Y513429D01*
X410579Y513510D01*
X410621Y513589D01*
X410667Y513666D01*
X410717Y513741D01*
X410769Y513814D01*
X410825Y513885D01*
X410883Y513953D01*
X410945Y514018D01*
X411009Y514081D01*
X411076Y514141D01*
X411145Y514198D01*
X411217Y514252D01*
X411291Y514303D01*
X411367Y514351D01*
X411445Y514395D01*
X411525Y514436D01*
X411607Y514474D01*
X411690Y514508D01*
X411775Y514538D01*
X411861Y514565D01*
X411947Y514588D01*
X412035Y514607D01*
X412124Y514622D01*
X412213Y514634D01*
X412302Y514642D01*
X412392Y514646D01*
X412482Y514646D01*
X412572Y514642D01*
X412661Y514634D01*
X412750Y514622D01*
X412839Y514607D01*
X412927Y514588D01*
X413013Y514565D01*
X413099Y514538D01*
X413184Y514508D01*
X413267Y514474D01*
X413349Y514436D01*
X413429Y514395D01*
X413507Y514351D01*
X413583Y514303D01*
X413657Y514252D01*
X413729Y514198D01*
X413798Y514141D01*
X413865Y514081D01*
X413929Y514018D01*
X413991Y513953D01*
X414049Y513885D01*
X414105Y513814D01*
X414157Y513741D01*
X414207Y513666D01*
X414253Y513589D01*
X414295Y513510D01*
X414335Y513429D01*
X414370Y513347D01*
X414402Y513263D01*
X414431Y513178D01*
X414456Y513091D01*
X414477Y513004D01*
X414494Y512916D01*
X414508Y512827D01*
X414517Y512737D01*
X414523Y512648D01*
X414525Y512558D01*
X414525Y510469D01*
X414523Y510379D01*
X414517Y510290D01*
X414508Y510200D01*
X414494Y510111D01*
X414477Y510023D01*
X414456Y509936D01*
X414431Y509849D01*
X414402Y509764D01*
X414370Y509680D01*
X414335Y509598D01*
X414295Y509517D01*
X414253Y509438D01*
X414207Y509361D01*
X414157Y509286D01*
X414105Y509213D01*
X414049Y509142D01*
X413991Y509074D01*
X413929Y509009D01*
X413865Y508946D01*
X413798Y508886D01*
X413729Y508829D01*
X413657Y508775D01*
X413583Y508724D01*
X413507Y508676D01*
X413429Y508632D01*
X413349Y508591D01*
X413267Y508553D01*
X413184Y508519D01*
X413099Y508489D01*
X413013Y508462D01*
X412927Y508439D01*
X412839Y508420D01*
X412750Y508405D01*
X412661Y508393D01*
X412572Y508385D01*
X412482Y508381D01*
X412392Y508381D01*
X412302Y508385D01*
X412213Y508393D01*
X412124Y508405D01*
X412035Y508420D01*
X411947Y508439D01*
X411861Y508462D01*
X411775Y508489D01*
X411690Y508519D01*
X411607Y508553D01*
X411525Y508591D01*
X411445Y508632D01*
X411367Y508676D01*
X411291Y508724D01*
X411217Y508775D01*
X411145Y508829D01*
X411076Y508886D01*
X411009Y508946D01*
X410945Y509009D01*
X410883Y509074D01*
X410825Y509142D01*
X410769Y509213D01*
X410717Y509286D01*
X410667Y509361D01*
X410621Y509438D01*
X410579Y509517D01*
X410539Y509598D01*
X410504Y509680D01*
X410472Y509764D01*
X410443Y509849D01*
X410418Y509936D01*
X410397Y510023D01*
X410380Y510111D01*
X410366Y510200D01*
X410357Y510290D01*
X410351Y510379D01*
X410349Y510469D01*
X418578Y508381D02*
X418578Y514646D01*
X421188Y514646D01*
X421265Y514644D01*
X421341Y514638D01*
X421418Y514629D01*
X421494Y514616D01*
X421569Y514599D01*
X421643Y514579D01*
X421716Y514554D01*
X421787Y514527D01*
X421858Y514496D01*
X421926Y514461D01*
X421993Y514423D01*
X422058Y514382D01*
X422121Y514338D01*
X422181Y514291D01*
X422240Y514240D01*
X422295Y514187D01*
X422348Y514132D01*
X422399Y514073D01*
X422446Y514013D01*
X422490Y513950D01*
X422531Y513885D01*
X422569Y513818D01*
X422604Y513750D01*
X422635Y513679D01*
X422662Y513608D01*
X422687Y513535D01*
X422707Y513461D01*
X422724Y513386D01*
X422737Y513310D01*
X422746Y513234D01*
X422752Y513157D01*
X422754Y513080D01*
X422755Y513080D02*
X422755Y508381D01*
X427591Y512036D02*
X430201Y510992D01*
X427590Y512036D02*
X427524Y512064D01*
X427459Y512097D01*
X427396Y512132D01*
X427335Y512171D01*
X427276Y512213D01*
X427220Y512258D01*
X427166Y512306D01*
X427115Y512357D01*
X427066Y512410D01*
X427021Y512467D01*
X426978Y512525D01*
X426939Y512585D01*
X426902Y512648D01*
X426870Y512713D01*
X426841Y512779D01*
X426815Y512846D01*
X426793Y512915D01*
X426775Y512985D01*
X426760Y513056D01*
X426749Y513127D01*
X426742Y513199D01*
X426739Y513271D01*
X426740Y513343D01*
X426745Y513416D01*
X426753Y513487D01*
X426765Y513559D01*
X426781Y513629D01*
X426801Y513698D01*
X426825Y513767D01*
X426852Y513834D01*
X426882Y513899D01*
X426916Y513963D01*
X426954Y514025D01*
X426994Y514085D01*
X427038Y514142D01*
X427085Y514197D01*
X427135Y514250D01*
X427187Y514299D01*
X427242Y514346D01*
X427299Y514390D01*
X427359Y514431D01*
X427421Y514468D01*
X427485Y514503D01*
X427550Y514533D01*
X427617Y514561D01*
X427685Y514584D01*
X427755Y514604D01*
X427825Y514620D01*
X427896Y514633D01*
X427968Y514641D01*
X428040Y514646D01*
X428112Y514647D01*
X428113Y514646D02*
X428264Y514642D01*
X428415Y514634D01*
X428566Y514623D01*
X428717Y514607D01*
X428867Y514587D01*
X429017Y514564D01*
X429166Y514537D01*
X429314Y514506D01*
X429462Y514471D01*
X429608Y514433D01*
X429754Y514390D01*
X429898Y514344D01*
X430041Y514295D01*
X430183Y514242D01*
X430323Y514185D01*
X430462Y514124D01*
X430201Y510992D02*
X430267Y510964D01*
X430332Y510931D01*
X430395Y510896D01*
X430456Y510857D01*
X430515Y510815D01*
X430571Y510770D01*
X430625Y510722D01*
X430676Y510671D01*
X430725Y510618D01*
X430770Y510561D01*
X430813Y510503D01*
X430852Y510443D01*
X430889Y510380D01*
X430921Y510315D01*
X430950Y510249D01*
X430976Y510182D01*
X430998Y510113D01*
X431016Y510043D01*
X431031Y509972D01*
X431042Y509901D01*
X431049Y509829D01*
X431052Y509757D01*
X431051Y509685D01*
X431046Y509612D01*
X431038Y509541D01*
X431026Y509469D01*
X431010Y509399D01*
X430990Y509330D01*
X430966Y509261D01*
X430939Y509194D01*
X430909Y509129D01*
X430875Y509065D01*
X430837Y509003D01*
X430797Y508943D01*
X430753Y508886D01*
X430706Y508831D01*
X430656Y508778D01*
X430604Y508729D01*
X430549Y508682D01*
X430492Y508638D01*
X430432Y508597D01*
X430370Y508560D01*
X430306Y508525D01*
X430241Y508495D01*
X430174Y508467D01*
X430106Y508444D01*
X430036Y508424D01*
X429966Y508408D01*
X429895Y508395D01*
X429823Y508387D01*
X429751Y508382D01*
X429679Y508381D01*
X429469Y508386D01*
X429260Y508397D01*
X429051Y508412D01*
X428843Y508432D01*
X428635Y508458D01*
X428428Y508488D01*
X428221Y508523D01*
X428016Y508563D01*
X427811Y508607D01*
X427608Y508657D01*
X427405Y508711D01*
X427204Y508771D01*
X427005Y508834D01*
X426807Y508903D01*
X439914Y509947D02*
X439914Y514646D01*
X439914Y509947D02*
X439916Y509870D01*
X439922Y509794D01*
X439931Y509717D01*
X439944Y509641D01*
X439961Y509566D01*
X439981Y509492D01*
X440006Y509419D01*
X440033Y509348D01*
X440064Y509277D01*
X440099Y509209D01*
X440137Y509142D01*
X440178Y509077D01*
X440222Y509014D01*
X440269Y508954D01*
X440320Y508895D01*
X440373Y508840D01*
X440428Y508787D01*
X440487Y508736D01*
X440547Y508689D01*
X440610Y508645D01*
X440675Y508604D01*
X440742Y508566D01*
X440810Y508531D01*
X440881Y508500D01*
X440952Y508473D01*
X441025Y508448D01*
X441099Y508428D01*
X441174Y508411D01*
X441250Y508398D01*
X441327Y508389D01*
X441403Y508383D01*
X441480Y508381D01*
X444091Y508381D01*
X444091Y514646D01*
X448494Y514646D02*
X448494Y505248D01*
X448494Y514646D02*
X451104Y514646D01*
X451181Y514644D01*
X451257Y514638D01*
X451334Y514629D01*
X451410Y514616D01*
X451485Y514599D01*
X451559Y514579D01*
X451632Y514554D01*
X451703Y514527D01*
X451774Y514496D01*
X451842Y514461D01*
X451909Y514423D01*
X451974Y514382D01*
X452037Y514338D01*
X452097Y514291D01*
X452156Y514240D01*
X452211Y514187D01*
X452264Y514132D01*
X452315Y514073D01*
X452362Y514013D01*
X452406Y513950D01*
X452447Y513885D01*
X452485Y513818D01*
X452520Y513750D01*
X452551Y513679D01*
X452578Y513608D01*
X452603Y513535D01*
X452623Y513461D01*
X452640Y513386D01*
X452653Y513310D01*
X452662Y513234D01*
X452668Y513157D01*
X452670Y513080D01*
X452671Y513080D02*
X452671Y509947D01*
X452670Y509947D02*
X452668Y509870D01*
X452662Y509794D01*
X452653Y509717D01*
X452640Y509641D01*
X452623Y509566D01*
X452603Y509492D01*
X452578Y509419D01*
X452551Y509348D01*
X452520Y509277D01*
X452485Y509209D01*
X452447Y509142D01*
X452406Y509077D01*
X452362Y509014D01*
X452315Y508954D01*
X452264Y508895D01*
X452211Y508840D01*
X452156Y508787D01*
X452097Y508736D01*
X452037Y508689D01*
X451974Y508645D01*
X451909Y508604D01*
X451842Y508566D01*
X451774Y508531D01*
X451703Y508500D01*
X451632Y508473D01*
X451559Y508448D01*
X451485Y508428D01*
X451410Y508411D01*
X451334Y508398D01*
X451257Y508389D01*
X451181Y508383D01*
X451104Y508381D01*
X448494Y508381D01*
X456328Y511514D02*
X456328Y517779D01*
X456067Y508903D02*
X456067Y508381D01*
X456067Y508903D02*
X456589Y508903D01*
X456589Y508381D01*
X456067Y508381D01*
X601853Y577580D02*
X609219Y580036D01*
X609219Y575125D02*
X601853Y577580D01*
X601853Y570697D02*
X601853Y569060D01*
X601853Y570697D02*
X601855Y570775D01*
X601860Y570853D01*
X601870Y570930D01*
X601883Y571007D01*
X601899Y571083D01*
X601919Y571158D01*
X601943Y571232D01*
X601970Y571305D01*
X602001Y571377D01*
X602035Y571447D01*
X602072Y571516D01*
X602113Y571582D01*
X602157Y571647D01*
X602203Y571709D01*
X602253Y571769D01*
X602305Y571827D01*
X602360Y571882D01*
X602418Y571934D01*
X602478Y571984D01*
X602540Y572030D01*
X602605Y572074D01*
X602672Y572115D01*
X602740Y572152D01*
X602810Y572186D01*
X602882Y572217D01*
X602955Y572244D01*
X603029Y572268D01*
X603104Y572288D01*
X603180Y572304D01*
X603257Y572317D01*
X603334Y572327D01*
X603412Y572332D01*
X603490Y572334D01*
X607582Y572334D01*
X607660Y572332D01*
X607738Y572327D01*
X607815Y572317D01*
X607892Y572304D01*
X607968Y572288D01*
X608043Y572268D01*
X608117Y572244D01*
X608190Y572217D01*
X608262Y572186D01*
X608332Y572152D01*
X608401Y572115D01*
X608467Y572074D01*
X608532Y572030D01*
X608594Y571984D01*
X608654Y571934D01*
X608712Y571882D01*
X608767Y571827D01*
X608819Y571769D01*
X608869Y571709D01*
X608915Y571647D01*
X608959Y571582D01*
X609000Y571516D01*
X609037Y571447D01*
X609071Y571377D01*
X609102Y571305D01*
X609129Y571232D01*
X609153Y571158D01*
X609173Y571083D01*
X609189Y571007D01*
X609202Y570930D01*
X609212Y570853D01*
X609217Y570775D01*
X609219Y570697D01*
X609219Y569060D01*
X601853Y564601D02*
X601853Y562964D01*
X601853Y564601D02*
X601855Y564679D01*
X601860Y564757D01*
X601870Y564834D01*
X601883Y564911D01*
X601899Y564987D01*
X601919Y565062D01*
X601943Y565136D01*
X601970Y565209D01*
X602001Y565281D01*
X602035Y565351D01*
X602072Y565420D01*
X602113Y565486D01*
X602157Y565551D01*
X602203Y565613D01*
X602253Y565673D01*
X602305Y565731D01*
X602360Y565786D01*
X602418Y565838D01*
X602478Y565888D01*
X602540Y565934D01*
X602605Y565978D01*
X602672Y566019D01*
X602740Y566056D01*
X602810Y566090D01*
X602882Y566121D01*
X602955Y566148D01*
X603029Y566172D01*
X603104Y566192D01*
X603180Y566208D01*
X603257Y566221D01*
X603334Y566231D01*
X603412Y566236D01*
X603490Y566238D01*
X607582Y566238D01*
X607660Y566236D01*
X607738Y566231D01*
X607815Y566221D01*
X607892Y566208D01*
X607968Y566192D01*
X608043Y566172D01*
X608117Y566148D01*
X608190Y566121D01*
X608262Y566090D01*
X608332Y566056D01*
X608401Y566019D01*
X608467Y565978D01*
X608532Y565934D01*
X608594Y565888D01*
X608654Y565838D01*
X608712Y565786D01*
X608767Y565731D01*
X608819Y565673D01*
X608869Y565613D01*
X608915Y565551D01*
X608959Y565486D01*
X609000Y565420D01*
X609037Y565351D01*
X609071Y565281D01*
X609102Y565209D01*
X609129Y565136D01*
X609153Y565062D01*
X609173Y564987D01*
X609189Y564911D01*
X609202Y564834D01*
X609212Y564757D01*
X609217Y564679D01*
X609219Y564601D01*
X609219Y562964D01*
X609219Y539283D02*
X601853Y539283D01*
X609219Y539283D02*
X609219Y537237D01*
X609217Y537148D01*
X609211Y537059D01*
X609201Y536970D01*
X609188Y536882D01*
X609171Y536794D01*
X609149Y536707D01*
X609124Y536622D01*
X609096Y536537D01*
X609063Y536454D01*
X609027Y536372D01*
X608988Y536292D01*
X608945Y536214D01*
X608899Y536138D01*
X608849Y536063D01*
X608796Y535991D01*
X608740Y535922D01*
X608681Y535855D01*
X608620Y535790D01*
X608555Y535729D01*
X608488Y535670D01*
X608419Y535614D01*
X608347Y535561D01*
X608272Y535511D01*
X608196Y535465D01*
X608118Y535422D01*
X608038Y535383D01*
X607956Y535347D01*
X607873Y535314D01*
X607788Y535286D01*
X607703Y535261D01*
X607616Y535239D01*
X607528Y535222D01*
X607440Y535209D01*
X607351Y535199D01*
X607262Y535193D01*
X607173Y535191D01*
X607084Y535193D01*
X606995Y535199D01*
X606906Y535209D01*
X606818Y535222D01*
X606730Y535239D01*
X606643Y535261D01*
X606558Y535286D01*
X606473Y535314D01*
X606390Y535347D01*
X606308Y535383D01*
X606228Y535422D01*
X606150Y535465D01*
X606074Y535511D01*
X605999Y535561D01*
X605927Y535614D01*
X605858Y535670D01*
X605791Y535729D01*
X605726Y535790D01*
X605665Y535855D01*
X605606Y535922D01*
X605550Y535991D01*
X605497Y536063D01*
X605447Y536138D01*
X605401Y536214D01*
X605358Y536292D01*
X605319Y536372D01*
X605283Y536454D01*
X605250Y536537D01*
X605222Y536622D01*
X605197Y536707D01*
X605175Y536794D01*
X605158Y536882D01*
X605145Y536970D01*
X605135Y537059D01*
X605129Y537148D01*
X605127Y537237D01*
X605127Y539283D01*
X605127Y536827D02*
X601853Y535191D01*
X601853Y532428D02*
X609219Y527517D01*
X609219Y532428D02*
X601853Y527517D01*
X601853Y511618D02*
X609219Y511618D01*
X609219Y513664D02*
X609219Y509572D01*
X609219Y502336D02*
X601853Y507246D01*
X601853Y502336D02*
X609219Y507246D01*
X605945Y476884D02*
X605945Y475657D01*
X601853Y475657D01*
X601853Y478112D01*
X601855Y478190D01*
X601860Y478268D01*
X601870Y478345D01*
X601883Y478422D01*
X601899Y478498D01*
X601919Y478573D01*
X601943Y478647D01*
X601970Y478720D01*
X602001Y478792D01*
X602035Y478862D01*
X602072Y478931D01*
X602113Y478997D01*
X602157Y479062D01*
X602203Y479124D01*
X602253Y479184D01*
X602305Y479242D01*
X602360Y479297D01*
X602418Y479349D01*
X602478Y479399D01*
X602540Y479445D01*
X602605Y479489D01*
X602672Y479530D01*
X602740Y479567D01*
X602810Y479601D01*
X602882Y479632D01*
X602955Y479659D01*
X603029Y479683D01*
X603104Y479703D01*
X603180Y479719D01*
X603257Y479732D01*
X603334Y479742D01*
X603412Y479747D01*
X603490Y479749D01*
X607582Y479749D01*
X607660Y479747D01*
X607738Y479742D01*
X607815Y479732D01*
X607892Y479719D01*
X607968Y479703D01*
X608043Y479683D01*
X608117Y479659D01*
X608190Y479632D01*
X608262Y479601D01*
X608332Y479567D01*
X608401Y479530D01*
X608467Y479489D01*
X608532Y479445D01*
X608594Y479399D01*
X608654Y479349D01*
X608712Y479297D01*
X608767Y479242D01*
X608819Y479184D01*
X608869Y479124D01*
X608915Y479062D01*
X608959Y478997D01*
X609000Y478931D01*
X609037Y478862D01*
X609071Y478792D01*
X609102Y478720D01*
X609129Y478647D01*
X609153Y478573D01*
X609173Y478498D01*
X609189Y478422D01*
X609202Y478345D01*
X609212Y478268D01*
X609217Y478190D01*
X609219Y478112D01*
X609219Y475657D01*
X609219Y471946D02*
X601853Y471946D01*
X601853Y467854D02*
X609219Y471946D01*
X609219Y467854D02*
X601853Y467854D01*
X601853Y464143D02*
X609219Y464143D01*
X609219Y462097D01*
X609217Y462008D01*
X609211Y461919D01*
X609201Y461830D01*
X609188Y461742D01*
X609171Y461654D01*
X609149Y461567D01*
X609124Y461482D01*
X609096Y461397D01*
X609063Y461314D01*
X609027Y461232D01*
X608988Y461152D01*
X608945Y461074D01*
X608899Y460998D01*
X608849Y460923D01*
X608796Y460851D01*
X608740Y460782D01*
X608681Y460715D01*
X608620Y460650D01*
X608555Y460589D01*
X608488Y460530D01*
X608419Y460474D01*
X608347Y460421D01*
X608272Y460371D01*
X608196Y460325D01*
X608118Y460282D01*
X608038Y460243D01*
X607956Y460207D01*
X607873Y460174D01*
X607788Y460146D01*
X607703Y460121D01*
X607616Y460099D01*
X607528Y460082D01*
X607440Y460069D01*
X607351Y460059D01*
X607262Y460053D01*
X607173Y460051D01*
X603899Y460051D01*
X603810Y460053D01*
X603721Y460059D01*
X603632Y460069D01*
X603544Y460082D01*
X603456Y460099D01*
X603369Y460121D01*
X603284Y460146D01*
X603199Y460174D01*
X603116Y460207D01*
X603034Y460243D01*
X602954Y460282D01*
X602876Y460325D01*
X602800Y460371D01*
X602725Y460421D01*
X602653Y460474D01*
X602584Y460530D01*
X602517Y460589D01*
X602452Y460650D01*
X602391Y460715D01*
X602332Y460782D01*
X602276Y460851D01*
X602223Y460923D01*
X602173Y460998D01*
X602127Y461074D01*
X602084Y461152D01*
X602045Y461232D01*
X602009Y461314D01*
X601976Y461397D01*
X601948Y461482D01*
X601923Y461567D01*
X601901Y461654D01*
X601884Y461742D01*
X601871Y461830D01*
X601861Y461919D01*
X601855Y462008D01*
X601853Y462097D01*
X601853Y464143D01*
D13*
X508000Y635000D02*
X330200Y635000D01*
X508000Y635000D02*
X508000Y406400D01*
X330200Y406400D01*
X330200Y635000D01*
X381000Y660400D02*
X381000Y584200D01*
X457200Y584200D01*
X457200Y660400D01*
X381000Y660400D01*
X444500Y482600D02*
X444504Y482912D01*
X444515Y483223D01*
X444534Y483534D01*
X444561Y483845D01*
X444596Y484155D01*
X444637Y484463D01*
X444687Y484771D01*
X444744Y485078D01*
X444809Y485383D01*
X444881Y485686D01*
X444960Y485987D01*
X445047Y486287D01*
X445141Y486584D01*
X445242Y486879D01*
X445351Y487171D01*
X445467Y487460D01*
X445590Y487747D01*
X445719Y488030D01*
X445856Y488310D01*
X446000Y488587D01*
X446150Y488860D01*
X446307Y489129D01*
X446470Y489394D01*
X446640Y489656D01*
X446817Y489913D01*
X446999Y490165D01*
X447188Y490413D01*
X447383Y490657D01*
X447583Y490895D01*
X447790Y491129D01*
X448002Y491357D01*
X448220Y491580D01*
X448443Y491798D01*
X448671Y492010D01*
X448905Y492217D01*
X449143Y492417D01*
X449387Y492612D01*
X449635Y492801D01*
X449887Y492983D01*
X450144Y493160D01*
X450406Y493330D01*
X450671Y493493D01*
X450940Y493650D01*
X451213Y493800D01*
X451490Y493944D01*
X451770Y494081D01*
X452053Y494210D01*
X452340Y494333D01*
X452629Y494449D01*
X452921Y494558D01*
X453216Y494659D01*
X453513Y494753D01*
X453813Y494840D01*
X454114Y494919D01*
X454417Y494991D01*
X454722Y495056D01*
X455029Y495113D01*
X455337Y495163D01*
X455645Y495204D01*
X455955Y495239D01*
X456266Y495266D01*
X456577Y495285D01*
X456888Y495296D01*
X457200Y495300D01*
X457512Y495296D01*
X457823Y495285D01*
X458134Y495266D01*
X458445Y495239D01*
X458755Y495204D01*
X459063Y495163D01*
X459371Y495113D01*
X459678Y495056D01*
X459983Y494991D01*
X460286Y494919D01*
X460587Y494840D01*
X460887Y494753D01*
X461184Y494659D01*
X461479Y494558D01*
X461771Y494449D01*
X462060Y494333D01*
X462347Y494210D01*
X462630Y494081D01*
X462910Y493944D01*
X463187Y493800D01*
X463460Y493650D01*
X463729Y493493D01*
X463994Y493330D01*
X464256Y493160D01*
X464513Y492983D01*
X464765Y492801D01*
X465013Y492612D01*
X465257Y492417D01*
X465495Y492217D01*
X465729Y492010D01*
X465957Y491798D01*
X466180Y491580D01*
X466398Y491357D01*
X466610Y491129D01*
X466817Y490895D01*
X467017Y490657D01*
X467212Y490413D01*
X467401Y490165D01*
X467583Y489913D01*
X467760Y489656D01*
X467930Y489394D01*
X468093Y489129D01*
X468250Y488860D01*
X468400Y488587D01*
X468544Y488310D01*
X468681Y488030D01*
X468810Y487747D01*
X468933Y487460D01*
X469049Y487171D01*
X469158Y486879D01*
X469259Y486584D01*
X469353Y486287D01*
X469440Y485987D01*
X469519Y485686D01*
X469591Y485383D01*
X469656Y485078D01*
X469713Y484771D01*
X469763Y484463D01*
X469804Y484155D01*
X469839Y483845D01*
X469866Y483534D01*
X469885Y483223D01*
X469896Y482912D01*
X469900Y482600D01*
X469896Y482288D01*
X469885Y481977D01*
X469866Y481666D01*
X469839Y481355D01*
X469804Y481045D01*
X469763Y480737D01*
X469713Y480429D01*
X469656Y480122D01*
X469591Y479817D01*
X469519Y479514D01*
X469440Y479213D01*
X469353Y478913D01*
X469259Y478616D01*
X469158Y478321D01*
X469049Y478029D01*
X468933Y477740D01*
X468810Y477453D01*
X468681Y477170D01*
X468544Y476890D01*
X468400Y476613D01*
X468250Y476340D01*
X468093Y476071D01*
X467930Y475806D01*
X467760Y475544D01*
X467583Y475287D01*
X467401Y475035D01*
X467212Y474787D01*
X467017Y474543D01*
X466817Y474305D01*
X466610Y474071D01*
X466398Y473843D01*
X466180Y473620D01*
X465957Y473402D01*
X465729Y473190D01*
X465495Y472983D01*
X465257Y472783D01*
X465013Y472588D01*
X464765Y472399D01*
X464513Y472217D01*
X464256Y472040D01*
X463994Y471870D01*
X463729Y471707D01*
X463460Y471550D01*
X463187Y471400D01*
X462910Y471256D01*
X462630Y471119D01*
X462347Y470990D01*
X462060Y470867D01*
X461771Y470751D01*
X461479Y470642D01*
X461184Y470541D01*
X460887Y470447D01*
X460587Y470360D01*
X460286Y470281D01*
X459983Y470209D01*
X459678Y470144D01*
X459371Y470087D01*
X459063Y470037D01*
X458755Y469996D01*
X458445Y469961D01*
X458134Y469934D01*
X457823Y469915D01*
X457512Y469904D01*
X457200Y469900D01*
X456888Y469904D01*
X456577Y469915D01*
X456266Y469934D01*
X455955Y469961D01*
X455645Y469996D01*
X455337Y470037D01*
X455029Y470087D01*
X454722Y470144D01*
X454417Y470209D01*
X454114Y470281D01*
X453813Y470360D01*
X453513Y470447D01*
X453216Y470541D01*
X452921Y470642D01*
X452629Y470751D01*
X452340Y470867D01*
X452053Y470990D01*
X451770Y471119D01*
X451490Y471256D01*
X451213Y471400D01*
X450940Y471550D01*
X450671Y471707D01*
X450406Y471870D01*
X450144Y472040D01*
X449887Y472217D01*
X449635Y472399D01*
X449387Y472588D01*
X449143Y472783D01*
X448905Y472983D01*
X448671Y473190D01*
X448443Y473402D01*
X448220Y473620D01*
X448002Y473843D01*
X447790Y474071D01*
X447583Y474305D01*
X447383Y474543D01*
X447188Y474787D01*
X446999Y475035D01*
X446817Y475287D01*
X446640Y475544D01*
X446470Y475806D01*
X446307Y476071D01*
X446150Y476340D01*
X446000Y476613D01*
X445856Y476890D01*
X445719Y477170D01*
X445590Y477453D01*
X445467Y477740D01*
X445351Y478029D01*
X445242Y478321D01*
X445141Y478616D01*
X445047Y478913D01*
X444960Y479213D01*
X444881Y479514D01*
X444809Y479817D01*
X444744Y480122D01*
X444687Y480429D01*
X444637Y480737D01*
X444596Y481045D01*
X444561Y481355D01*
X444534Y481666D01*
X444515Y481977D01*
X444504Y482288D01*
X444500Y482600D01*
X368300Y482600D02*
X368304Y482912D01*
X368315Y483223D01*
X368334Y483534D01*
X368361Y483845D01*
X368396Y484155D01*
X368437Y484463D01*
X368487Y484771D01*
X368544Y485078D01*
X368609Y485383D01*
X368681Y485686D01*
X368760Y485987D01*
X368847Y486287D01*
X368941Y486584D01*
X369042Y486879D01*
X369151Y487171D01*
X369267Y487460D01*
X369390Y487747D01*
X369519Y488030D01*
X369656Y488310D01*
X369800Y488587D01*
X369950Y488860D01*
X370107Y489129D01*
X370270Y489394D01*
X370440Y489656D01*
X370617Y489913D01*
X370799Y490165D01*
X370988Y490413D01*
X371183Y490657D01*
X371383Y490895D01*
X371590Y491129D01*
X371802Y491357D01*
X372020Y491580D01*
X372243Y491798D01*
X372471Y492010D01*
X372705Y492217D01*
X372943Y492417D01*
X373187Y492612D01*
X373435Y492801D01*
X373687Y492983D01*
X373944Y493160D01*
X374206Y493330D01*
X374471Y493493D01*
X374740Y493650D01*
X375013Y493800D01*
X375290Y493944D01*
X375570Y494081D01*
X375853Y494210D01*
X376140Y494333D01*
X376429Y494449D01*
X376721Y494558D01*
X377016Y494659D01*
X377313Y494753D01*
X377613Y494840D01*
X377914Y494919D01*
X378217Y494991D01*
X378522Y495056D01*
X378829Y495113D01*
X379137Y495163D01*
X379445Y495204D01*
X379755Y495239D01*
X380066Y495266D01*
X380377Y495285D01*
X380688Y495296D01*
X381000Y495300D01*
X381312Y495296D01*
X381623Y495285D01*
X381934Y495266D01*
X382245Y495239D01*
X382555Y495204D01*
X382863Y495163D01*
X383171Y495113D01*
X383478Y495056D01*
X383783Y494991D01*
X384086Y494919D01*
X384387Y494840D01*
X384687Y494753D01*
X384984Y494659D01*
X385279Y494558D01*
X385571Y494449D01*
X385860Y494333D01*
X386147Y494210D01*
X386430Y494081D01*
X386710Y493944D01*
X386987Y493800D01*
X387260Y493650D01*
X387529Y493493D01*
X387794Y493330D01*
X388056Y493160D01*
X388313Y492983D01*
X388565Y492801D01*
X388813Y492612D01*
X389057Y492417D01*
X389295Y492217D01*
X389529Y492010D01*
X389757Y491798D01*
X389980Y491580D01*
X390198Y491357D01*
X390410Y491129D01*
X390617Y490895D01*
X390817Y490657D01*
X391012Y490413D01*
X391201Y490165D01*
X391383Y489913D01*
X391560Y489656D01*
X391730Y489394D01*
X391893Y489129D01*
X392050Y488860D01*
X392200Y488587D01*
X392344Y488310D01*
X392481Y488030D01*
X392610Y487747D01*
X392733Y487460D01*
X392849Y487171D01*
X392958Y486879D01*
X393059Y486584D01*
X393153Y486287D01*
X393240Y485987D01*
X393319Y485686D01*
X393391Y485383D01*
X393456Y485078D01*
X393513Y484771D01*
X393563Y484463D01*
X393604Y484155D01*
X393639Y483845D01*
X393666Y483534D01*
X393685Y483223D01*
X393696Y482912D01*
X393700Y482600D01*
X393696Y482288D01*
X393685Y481977D01*
X393666Y481666D01*
X393639Y481355D01*
X393604Y481045D01*
X393563Y480737D01*
X393513Y480429D01*
X393456Y480122D01*
X393391Y479817D01*
X393319Y479514D01*
X393240Y479213D01*
X393153Y478913D01*
X393059Y478616D01*
X392958Y478321D01*
X392849Y478029D01*
X392733Y477740D01*
X392610Y477453D01*
X392481Y477170D01*
X392344Y476890D01*
X392200Y476613D01*
X392050Y476340D01*
X391893Y476071D01*
X391730Y475806D01*
X391560Y475544D01*
X391383Y475287D01*
X391201Y475035D01*
X391012Y474787D01*
X390817Y474543D01*
X390617Y474305D01*
X390410Y474071D01*
X390198Y473843D01*
X389980Y473620D01*
X389757Y473402D01*
X389529Y473190D01*
X389295Y472983D01*
X389057Y472783D01*
X388813Y472588D01*
X388565Y472399D01*
X388313Y472217D01*
X388056Y472040D01*
X387794Y471870D01*
X387529Y471707D01*
X387260Y471550D01*
X386987Y471400D01*
X386710Y471256D01*
X386430Y471119D01*
X386147Y470990D01*
X385860Y470867D01*
X385571Y470751D01*
X385279Y470642D01*
X384984Y470541D01*
X384687Y470447D01*
X384387Y470360D01*
X384086Y470281D01*
X383783Y470209D01*
X383478Y470144D01*
X383171Y470087D01*
X382863Y470037D01*
X382555Y469996D01*
X382245Y469961D01*
X381934Y469934D01*
X381623Y469915D01*
X381312Y469904D01*
X381000Y469900D01*
X380688Y469904D01*
X380377Y469915D01*
X380066Y469934D01*
X379755Y469961D01*
X379445Y469996D01*
X379137Y470037D01*
X378829Y470087D01*
X378522Y470144D01*
X378217Y470209D01*
X377914Y470281D01*
X377613Y470360D01*
X377313Y470447D01*
X377016Y470541D01*
X376721Y470642D01*
X376429Y470751D01*
X376140Y470867D01*
X375853Y470990D01*
X375570Y471119D01*
X375290Y471256D01*
X375013Y471400D01*
X374740Y471550D01*
X374471Y471707D01*
X374206Y471870D01*
X373944Y472040D01*
X373687Y472217D01*
X373435Y472399D01*
X373187Y472588D01*
X372943Y472783D01*
X372705Y472983D01*
X372471Y473190D01*
X372243Y473402D01*
X372020Y473620D01*
X371802Y473843D01*
X371590Y474071D01*
X371383Y474305D01*
X371183Y474543D01*
X370988Y474787D01*
X370799Y475035D01*
X370617Y475287D01*
X370440Y475544D01*
X370270Y475806D01*
X370107Y476071D01*
X369950Y476340D01*
X369800Y476613D01*
X369656Y476890D01*
X369519Y477170D01*
X369390Y477453D01*
X369267Y477740D01*
X369151Y478029D01*
X369042Y478321D01*
X368941Y478616D01*
X368847Y478913D01*
X368760Y479213D01*
X368681Y479514D01*
X368609Y479817D01*
X368544Y480122D01*
X368487Y480429D01*
X368437Y480737D01*
X368396Y481045D01*
X368361Y481355D01*
X368334Y481666D01*
X368315Y481977D01*
X368304Y482288D01*
X368300Y482600D01*
X230094Y385108D02*
X227614Y385108D01*
X230094Y385108D02*
X257554Y385108D01*
X257554Y309058D01*
X255494Y309058D01*
X254919Y309058D01*
X255494Y309058D02*
X225554Y309058D01*
X225554Y385108D01*
X230094Y385108D01*
X237109Y350393D02*
X245999Y350393D01*
X241554Y354203D01*
X237109Y350393D01*
X237109Y354203D02*
X245999Y354203D01*
D12*
X457200Y374650D02*
X463550Y381000D01*
X457200Y374650D02*
X457200Y361950D01*
X463550Y355600D01*
X457200Y349250D01*
X457200Y336550D01*
X463550Y330200D01*
X457200Y323850D01*
X457200Y311150D01*
X463550Y304800D01*
X457200Y298450D01*
X457200Y285750D01*
X463550Y279400D01*
X457200Y273050D01*
X457200Y260350D01*
X463550Y254000D01*
X457200Y247650D01*
X457200Y234950D01*
X463550Y228600D01*
X463550Y381000D02*
X501650Y381000D01*
X508000Y374650D01*
X508000Y361950D01*
X501650Y355600D01*
X508000Y349250D01*
X508000Y336550D01*
X501650Y330200D01*
X508000Y323850D01*
X508000Y311150D01*
X501650Y304800D01*
X508000Y298450D01*
X508000Y285750D01*
X501650Y279400D01*
X508000Y273050D01*
X508000Y260350D01*
X501650Y254000D01*
X508000Y247650D01*
X508000Y234950D01*
X501650Y228600D01*
X508000Y222250D01*
X508000Y209550D01*
X501650Y203200D01*
X508000Y196850D01*
X508000Y184150D01*
X501650Y177800D01*
X508000Y171450D01*
X508000Y158750D01*
X501650Y152400D01*
X508000Y146050D01*
X508000Y133350D01*
X501650Y127000D01*
X508000Y120650D01*
X508000Y107950D01*
X501650Y101600D01*
X508000Y95250D01*
X508000Y82550D01*
X501650Y76200D01*
X508000Y69850D01*
X508000Y57150D01*
X501650Y50800D01*
X463550Y50800D02*
X457200Y57150D01*
X457200Y69850D01*
X463550Y76200D01*
X457200Y82550D01*
X457200Y95250D01*
X463550Y101600D01*
X457200Y107950D01*
X457200Y120650D01*
X463550Y127000D01*
X457200Y133350D01*
X457200Y146050D01*
X463550Y152400D01*
X457200Y158750D01*
X457200Y171450D01*
X463550Y177800D01*
X457200Y184150D01*
X457200Y196850D01*
X463550Y203200D01*
X457200Y209550D01*
X457200Y222250D01*
X463550Y228600D01*
X463550Y355600D02*
X501650Y355600D01*
X501650Y330200D02*
X463550Y330200D01*
X463550Y304800D02*
X501650Y304800D01*
X501650Y279400D02*
X463550Y279400D01*
X463550Y254000D02*
X501650Y254000D01*
X501650Y228600D02*
X463550Y228600D01*
X463550Y203200D02*
X501650Y203200D01*
X501650Y177800D02*
X463550Y177800D01*
X463550Y152400D02*
X501650Y152400D01*
X501650Y127000D02*
X463550Y127000D01*
X463550Y101600D02*
X501650Y101600D01*
X501650Y76200D02*
X463550Y76200D01*
X463550Y50800D02*
X501650Y50800D01*
X508000Y44450D01*
X508000Y31750D01*
X501650Y25400D01*
X463550Y25400D02*
X457200Y31750D01*
X457200Y44450D01*
X463550Y50800D01*
X463550Y25400D02*
X501650Y25400D01*
X577850Y520700D02*
X571500Y527050D01*
X571500Y539750D01*
X577850Y546100D01*
X590550Y546100D01*
X596900Y539750D01*
X596900Y527050D01*
X590550Y520700D01*
X571500Y488950D02*
X571500Y476250D01*
X571500Y488950D02*
X577850Y495300D01*
X590550Y495300D01*
X596900Y488950D01*
X577850Y495300D02*
X571500Y501650D01*
X571500Y514350D01*
X577850Y520700D01*
X590550Y520700D01*
X596900Y514350D01*
X596900Y501650D01*
X590550Y495300D01*
X590550Y469900D02*
X577850Y469900D01*
X571500Y476250D01*
X590550Y469900D02*
X596900Y476250D01*
X596900Y488950D01*
X571500Y552450D02*
X571500Y565150D01*
X577850Y571500D01*
X590550Y571500D01*
X596900Y565150D01*
X577850Y546100D02*
X571500Y552450D01*
X590550Y546100D02*
X596900Y552450D01*
X596900Y565150D01*
M02*
