G04 EAGLE Gerber RS-274X export*
G75*
%MOMM*%
%FSLAX34Y34*%
%LPD*%
%INSoldermask Top*%
%IPPOS*%
%AMOC8*
5,1,8,0,0,1.08239X$1,22.5*%
G01*
%ADD10C,2.997200*%
%ADD11C,1.509600*%
%ADD12R,2.743200X2.743200*%
%ADD13C,3.003200*%
%ADD14P,1.759533X8X292.500000*%
%ADD15C,1.625600*%


D10*
X584200Y607060D03*
X584200Y27940D03*
X139700Y607060D03*
X139700Y27940D03*
D11*
X495300Y622300D03*
X495300Y596900D03*
X495300Y571500D03*
X495300Y546100D03*
X495300Y520700D03*
X495300Y495300D03*
X495300Y469900D03*
X495300Y444500D03*
X495300Y419100D03*
X469900Y419100D03*
X444500Y419100D03*
X419100Y419100D03*
X393700Y419100D03*
X368300Y419100D03*
X342900Y419100D03*
X342900Y444500D03*
X342900Y469900D03*
X342900Y495300D03*
X342900Y520700D03*
X342900Y546100D03*
X342900Y571500D03*
X342900Y596900D03*
X342900Y622300D03*
D12*
X241554Y370713D03*
X241554Y323723D03*
D11*
X60330Y527050D03*
X79430Y514350D03*
X60330Y501650D03*
X79430Y488950D03*
X60330Y476250D03*
X79430Y463550D03*
X60330Y450850D03*
X79430Y438150D03*
X60330Y425450D03*
X79430Y412750D03*
X60330Y400050D03*
X79430Y387350D03*
X60330Y374650D03*
X79430Y361950D03*
X60330Y349250D03*
X79430Y336550D03*
X60330Y323850D03*
X79430Y311150D03*
X60330Y298450D03*
X79430Y285750D03*
X60330Y273050D03*
X79430Y260350D03*
X60330Y247650D03*
X79430Y234950D03*
X60330Y222250D03*
X79430Y209550D03*
X60330Y196850D03*
X79430Y184150D03*
X60330Y171450D03*
X79430Y158750D03*
X60330Y146050D03*
X79430Y133350D03*
X60330Y120650D03*
X79430Y107950D03*
X22130Y527050D03*
X41230Y514350D03*
X22130Y501650D03*
X41230Y488950D03*
X22130Y476250D03*
X41230Y463550D03*
X22130Y450850D03*
X41230Y438150D03*
X22130Y425450D03*
X41230Y412750D03*
X22130Y400050D03*
X41230Y387350D03*
X22130Y374650D03*
X41230Y361950D03*
X22130Y349250D03*
X41230Y336550D03*
X22130Y323850D03*
X41230Y311150D03*
X22130Y298450D03*
X41230Y285750D03*
X22130Y273050D03*
X41230Y260350D03*
X22130Y247650D03*
X41230Y234950D03*
X22130Y222250D03*
X41230Y209550D03*
X22130Y196850D03*
X41230Y184150D03*
X22130Y171450D03*
X41230Y158750D03*
X22130Y146050D03*
X41230Y133350D03*
X22130Y120650D03*
X41230Y107950D03*
D13*
X50800Y27950D03*
X50800Y607050D03*
D14*
X469900Y368300D03*
X495300Y368300D03*
X469900Y342900D03*
X495300Y342900D03*
X469900Y317500D03*
X495300Y317500D03*
X469900Y292100D03*
X495300Y292100D03*
X469900Y266700D03*
X495300Y266700D03*
X469900Y241300D03*
X495300Y241300D03*
X469900Y215900D03*
X495300Y215900D03*
X469900Y190500D03*
X495300Y190500D03*
X469900Y165100D03*
X495300Y165100D03*
X469900Y139700D03*
X495300Y139700D03*
X469900Y114300D03*
X495300Y114300D03*
X469900Y88900D03*
X495300Y88900D03*
X469900Y63500D03*
X495300Y63500D03*
X469900Y38100D03*
X495300Y38100D03*
D15*
X577088Y482600D02*
X591312Y482600D01*
X591312Y508000D02*
X577088Y508000D01*
X577088Y533400D02*
X591312Y533400D01*
X591312Y558800D02*
X577088Y558800D01*
X426212Y38100D02*
X411988Y38100D01*
X411988Y63500D02*
X426212Y63500D01*
M02*
