M48
;GenerationSoftware,Autodesk,EAGLE,9.5.2*%
;CreationDate,2019-12-10T05:46:11Z*%
FMAT,2
ICI,OFF
METRIC,TZ,000.000
T4C0.254
T3C0.900
T2C1.016
T1C2.800
%
G90
M71
T1
X5080Y60705
X5080Y2795
T2
X16510Y60960
X46990Y31750
X44450Y31750
X46990Y34290
X44450Y34290
X13970Y60960
T3
X6033Y15875
X21590Y39370
X21590Y41910
X21590Y44450
X21590Y46990
X21590Y49530
X21590Y52070
X21590Y54610
X21590Y57150
X31750Y22860
X31750Y20320
X31750Y17780
X31750Y15240
X31750Y12700
X31750Y10160
X31750Y7620
X31750Y5080
X34290Y5080
X34290Y7620
X34290Y10160
X34290Y12700
X34290Y15240
X34290Y17780
X34290Y20320
X34290Y22860
X19050Y22860
X19050Y20320
X19050Y17780
X19050Y15240
X19050Y12700
X19050Y10160
X19050Y5080
X21590Y5080
X21590Y7620
X21590Y10160
X21590Y12700
X21590Y15240
X21590Y17780
X21590Y20320
X21590Y22860
X44450Y59690
X58410Y34925
X44450Y57150
X44450Y54610
X46990Y54610
X46990Y57150
X46990Y59690
X44450Y10160
X44450Y7620
X44450Y5080
X44450Y2540
X46990Y2540
X46990Y5080
X46990Y7620
X46990Y10160
X44450Y49530
X44450Y46990
X44450Y44450
X44450Y41910
X46990Y41910
X46990Y44450
X46990Y46990
X46990Y49530
X44450Y22860
X44450Y20320
X44450Y17780
X44450Y15240
X46990Y15240
X46990Y17780
X46990Y20320
X46990Y22860
X6033Y10795
X7943Y12065
X6033Y13335
X7943Y14605
X7943Y17145
X6033Y18415
X7943Y19685
X6033Y20955
X7943Y22225
X6033Y23495
X7943Y24765
X6033Y26035
X7943Y27305
X6033Y28575
X7943Y29845
X6033Y31115
X7943Y32385
X6033Y33655
X7943Y34925
X6033Y36195
X7943Y37465
X6033Y38735
X7943Y40005
X6033Y41275
X7943Y42545
X6033Y43815
X7943Y45085
X6033Y46355
X7943Y47625
X6033Y48895
X7943Y50165
X6033Y51435
X7943Y52705
X2213Y10795
X4123Y12065
X2213Y13335
X4123Y14605
X2213Y15875
X4123Y17145
X2213Y18415
X4123Y19685
X2213Y20955
X4123Y22225
X2213Y23495
X4123Y24765
X2213Y26035
X4123Y27305
X2213Y28575
X4123Y29845
X2213Y31115
X4123Y32385
X2213Y33655
X4123Y34925
X2213Y36195
X4123Y37465
X2213Y38735
X4123Y40005
X2213Y41275
X4123Y42545
X2213Y43815
X4123Y45085
X2213Y46355
X4123Y47625
X2213Y48895
X4123Y50165
X2213Y51435
X4123Y52705
X56500Y10795
X58410Y12065
X56500Y13335
X58410Y14605
X56500Y15875
X58410Y17145
X56500Y18415
X58410Y19685
X56500Y20955
X58410Y22225
X56500Y23495
X58410Y24765
X56500Y26035
X58410Y27305
X56500Y28575
X58410Y29845
X56500Y31115
X58410Y32385
X56500Y33655
X19050Y7620
X56500Y36195
X58410Y37465
X56500Y38735
X58410Y40005
X56500Y41275
X58410Y42545
X56500Y43815
X58410Y45085
X56500Y46355
X58410Y47625
X56500Y48895
X58410Y50165
X56500Y51435
X58410Y52705
X60320Y10795
X62230Y12065
X60320Y13335
X62230Y14605
X60320Y15875
X62230Y17145
X60320Y18415
X62230Y19685
X60320Y20955
X62230Y22225
X60320Y23495
X62230Y24765
X60320Y26035
X62230Y27305
X60320Y28575
X62230Y29845
X60320Y31115
X62230Y32385
X60320Y33655
X62230Y34925
X60320Y36195
X62230Y37465
X60320Y38735
X62230Y40005
X60320Y41275
X62230Y42545
X60320Y43815
X62230Y45085
X60320Y46355
X62230Y47625
X60320Y48895
X62230Y50165
X60320Y51435
X62230Y52705
X31750Y57150
X31750Y54610
X31750Y52070
X31750Y49530
X31750Y46990
X31750Y44450
X31750Y41910
X31750Y39370
X31750Y36830
X31750Y34290
X31750Y31750
X31750Y29210
X34290Y29210
X34290Y31750
X34290Y34290
X34290Y36830
X34290Y39370
X34290Y41910
X34290Y44450
X34290Y46990
X34290Y49530
X34290Y52070
X34290Y54610
X34290Y57150
X19050Y57150
X19050Y54610
X19050Y52070
X19050Y49530
X19050Y46990
X19050Y44450
X19050Y41910
X19050Y39370
X19050Y36830
X19050Y34290
X19050Y31750
X19050Y29210
X21590Y29210
X21590Y31750
X21590Y34290
X21590Y36830
T4
X50927Y14097
X51816Y14097
X52705Y14097
X53594Y14097
X49403Y11557
X48895Y10795
X49784Y10795
X50292Y11557
X50673Y10795
X51181Y11557
X51562Y10795
X52070Y11557
X49530Y34290
X49530Y33020
X50800Y33020
X49530Y31750
X50800Y31750
X52070Y31750
X52070Y34290
X53340Y34290
X54610Y34290
X54610Y33274
X53340Y33274
X50800Y57150
X52070Y57150
X53340Y57150
X53340Y55880
X52070Y55880
X53340Y54610
X59690Y57150
X60960Y57150
X62230Y57150
X60960Y55880
X62230Y54610
X62230Y55880
X54610Y49530
X54610Y48260
X53340Y49530
X52070Y52070
X50800Y52070
X1016Y52705
X1016Y50165
X1016Y47625
X1016Y45085
X1016Y42545
X1016Y40005
X1016Y37465
X1016Y34925
X1016Y32385
X1016Y29845
X1016Y27305
X1016Y24765
X1016Y22225
X1016Y19558
X1016Y17145
X1016Y14605
X1016Y12065
X63373Y51435
X63373Y48895
X63373Y46228
X63373Y43815
X63373Y41275
X63373Y38735
X63373Y36195
X63373Y33655
X63373Y31115
X63373Y28575
X63373Y26035
X63373Y23495
X50800Y53340
X63373Y10795
X50038Y14097
X63373Y13335
X63373Y18288
X63373Y20955
X63373Y15748
M30