G04 EAGLE Gerber RS-274X export*
G75*
%MOMM*%
%FSLAX34Y34*%
%LPD*%
%IN*%
%IPPOS*%
%AMOC8*
5,1,8,0,0,1.08239X$1,22.5*%
G01*
%ADD10C,0.254000*%


D10*
X-6350Y0D02*
X647700Y1270D01*
X647700Y635000D01*
X-6350Y635000D01*
X-6350Y0D01*
X50300Y593050D02*
X49303Y593121D01*
X48313Y593264D01*
X47336Y593476D01*
X46376Y593758D01*
X45439Y594107D01*
X44529Y594523D01*
X43652Y595002D01*
X42810Y595543D01*
X42010Y596142D01*
X41254Y596797D01*
X40547Y597504D01*
X39892Y598260D01*
X39293Y599060D01*
X38752Y599902D01*
X38273Y600779D01*
X37857Y601689D01*
X37508Y602626D01*
X37226Y603586D01*
X37014Y604563D01*
X36871Y605553D01*
X36800Y606550D01*
X36800Y607550D01*
X36871Y608548D01*
X37014Y609537D01*
X37226Y610515D01*
X37508Y611474D01*
X37857Y612411D01*
X38273Y613321D01*
X38752Y614198D01*
X39293Y615040D01*
X39892Y615840D01*
X40547Y616596D01*
X41254Y617303D01*
X42010Y617958D01*
X42810Y618557D01*
X43652Y619098D01*
X44529Y619577D01*
X45439Y619993D01*
X46376Y620342D01*
X47336Y620624D01*
X48313Y620836D01*
X49303Y620979D01*
X50300Y621050D01*
X51300Y621050D01*
X52298Y620979D01*
X53287Y620836D01*
X54265Y620624D01*
X55224Y620342D01*
X56161Y619993D01*
X57071Y619577D01*
X57948Y619098D01*
X58790Y618557D01*
X59590Y617958D01*
X60346Y617303D01*
X61053Y616596D01*
X61708Y615840D01*
X62307Y615040D01*
X62848Y614198D01*
X63327Y613321D01*
X63743Y612411D01*
X64092Y611474D01*
X64374Y610515D01*
X64586Y609537D01*
X64729Y608548D01*
X64800Y607550D01*
X64800Y606550D01*
X64729Y605553D01*
X64586Y604563D01*
X64374Y603586D01*
X64092Y602626D01*
X63743Y601689D01*
X63327Y600779D01*
X62848Y599902D01*
X62307Y599060D01*
X61708Y598260D01*
X61053Y597504D01*
X60346Y596797D01*
X59590Y596142D01*
X58790Y595543D01*
X57948Y595002D01*
X57071Y594523D01*
X56161Y594107D01*
X55224Y593758D01*
X54265Y593476D01*
X53287Y593264D01*
X52298Y593121D01*
X51300Y593050D01*
X50300Y593050D01*
X50300Y13950D02*
X49303Y14021D01*
X48313Y14164D01*
X47336Y14376D01*
X46376Y14658D01*
X45439Y15007D01*
X44529Y15423D01*
X43652Y15902D01*
X42810Y16443D01*
X42010Y17042D01*
X41254Y17697D01*
X40547Y18404D01*
X39892Y19160D01*
X39293Y19960D01*
X38752Y20802D01*
X38273Y21679D01*
X37857Y22589D01*
X37508Y23526D01*
X37226Y24486D01*
X37014Y25463D01*
X36871Y26453D01*
X36800Y27450D01*
X36800Y28450D01*
X36871Y29448D01*
X37014Y30437D01*
X37226Y31415D01*
X37508Y32374D01*
X37857Y33311D01*
X38273Y34221D01*
X38752Y35098D01*
X39293Y35940D01*
X39892Y36740D01*
X40547Y37496D01*
X41254Y38203D01*
X42010Y38858D01*
X42810Y39457D01*
X43652Y39998D01*
X44529Y40477D01*
X45439Y40893D01*
X46376Y41242D01*
X47336Y41524D01*
X48313Y41736D01*
X49303Y41879D01*
X50300Y41950D01*
X51300Y41950D01*
X52298Y41879D01*
X53287Y41736D01*
X54265Y41524D01*
X55224Y41242D01*
X56161Y40893D01*
X57071Y40477D01*
X57948Y39998D01*
X58790Y39457D01*
X59590Y38858D01*
X60346Y38203D01*
X61053Y37496D01*
X61708Y36740D01*
X62307Y35940D01*
X62848Y35098D01*
X63327Y34221D01*
X63743Y33311D01*
X64092Y32374D01*
X64374Y31415D01*
X64586Y30437D01*
X64729Y29448D01*
X64800Y28450D01*
X64800Y27450D01*
X64729Y26453D01*
X64586Y25463D01*
X64374Y24486D01*
X64092Y23526D01*
X63743Y22589D01*
X63327Y21679D01*
X62848Y20802D01*
X62307Y19960D01*
X61708Y19160D01*
X61053Y18404D01*
X60346Y17697D01*
X59590Y17042D01*
X58790Y16443D01*
X57948Y15902D01*
X57071Y15423D01*
X56161Y15007D01*
X55224Y14658D01*
X54265Y14376D01*
X53287Y14164D01*
X52298Y14021D01*
X51300Y13950D01*
X50300Y13950D01*
M02*
