G04 EAGLE Gerber RS-274X export*
G75*
%MOMM*%
%FSLAX34Y34*%
%LPD*%
%INSoldermask Bottom*%
%IPPOS*%
%AMOC8*
5,1,8,0,0,1.08239X$1,22.5*%
G01*
%ADD10C,1.611200*%
%ADD11C,3.003200*%
%ADD12P,1.869504X8X292.500000*%
%ADD13C,1.727200*%


D10*
X60330Y107950D03*
X79430Y120650D03*
X60330Y133350D03*
X79430Y146050D03*
X60330Y158750D03*
X79430Y171450D03*
X60330Y184150D03*
X79430Y196850D03*
X60330Y209550D03*
X79430Y222250D03*
X60330Y234950D03*
X79430Y247650D03*
X60330Y260350D03*
X79430Y273050D03*
X60330Y285750D03*
X79430Y298450D03*
X60330Y311150D03*
X79430Y323850D03*
X60330Y336550D03*
X79430Y349250D03*
X60330Y361950D03*
X79430Y374650D03*
X60330Y387350D03*
X79430Y400050D03*
X60330Y412750D03*
X79430Y425450D03*
X60330Y438150D03*
X79430Y450850D03*
X60330Y463550D03*
X79430Y476250D03*
X60330Y488950D03*
X79430Y501650D03*
X60330Y514350D03*
X79430Y527050D03*
X22130Y107950D03*
X41230Y120650D03*
X22130Y133350D03*
X41230Y146050D03*
X22130Y158750D03*
X41230Y171450D03*
X22130Y184150D03*
X41230Y196850D03*
X22130Y209550D03*
X41230Y222250D03*
X22130Y234950D03*
X41230Y247650D03*
X22130Y260350D03*
X41230Y273050D03*
X22130Y285750D03*
X41230Y298450D03*
X22130Y311150D03*
X41230Y323850D03*
X22130Y336550D03*
X41230Y349250D03*
X22130Y361950D03*
X41230Y374650D03*
X22130Y387350D03*
X41230Y400050D03*
X22130Y412750D03*
X41230Y425450D03*
X22130Y438150D03*
X41230Y450850D03*
X22130Y463550D03*
X41230Y476250D03*
X22130Y488950D03*
X41230Y501650D03*
X22130Y514350D03*
X41230Y527050D03*
D11*
X50800Y607050D03*
X50800Y27950D03*
D10*
X565000Y107950D03*
X584100Y120650D03*
X565000Y133350D03*
X584100Y146050D03*
X565000Y158750D03*
X584100Y171450D03*
X565000Y184150D03*
X584100Y196850D03*
X565000Y209550D03*
X584100Y222250D03*
X565000Y234950D03*
X584100Y247650D03*
X565000Y260350D03*
X584100Y273050D03*
X565000Y285750D03*
X584100Y298450D03*
X565000Y311150D03*
X584100Y323850D03*
X565000Y336550D03*
X584100Y349250D03*
X565000Y361950D03*
X584100Y374650D03*
X565000Y387350D03*
X584100Y400050D03*
X565000Y412750D03*
X584100Y425450D03*
X565000Y438150D03*
X584100Y450850D03*
X565000Y463550D03*
X584100Y476250D03*
X565000Y488950D03*
X584100Y501650D03*
X565000Y514350D03*
X584100Y527050D03*
X603200Y107950D03*
X622300Y120650D03*
X603200Y133350D03*
X622300Y146050D03*
X603200Y158750D03*
X622300Y171450D03*
X603200Y184150D03*
X622300Y196850D03*
X603200Y209550D03*
X622300Y222250D03*
X603200Y234950D03*
X622300Y247650D03*
X603200Y260350D03*
X622300Y273050D03*
X603200Y285750D03*
X622300Y298450D03*
X603200Y311150D03*
X622300Y323850D03*
X603200Y336550D03*
X622300Y349250D03*
X603200Y361950D03*
X622300Y374650D03*
X603200Y387350D03*
X622300Y400050D03*
X603200Y412750D03*
X622300Y425450D03*
X603200Y438150D03*
X622300Y450850D03*
X603200Y463550D03*
X622300Y476250D03*
X603200Y488950D03*
X622300Y501650D03*
X603200Y514350D03*
X622300Y527050D03*
D12*
X444500Y342900D03*
X469900Y342900D03*
X444500Y317500D03*
X469900Y317500D03*
D10*
X317500Y571500D03*
X317500Y546100D03*
X317500Y520700D03*
X317500Y495300D03*
X317500Y469900D03*
X317500Y444500D03*
X317500Y419100D03*
X317500Y393700D03*
X317500Y368300D03*
X317500Y342900D03*
X317500Y317500D03*
X317500Y292100D03*
X342900Y292100D03*
X342900Y317500D03*
X342900Y342900D03*
X342900Y368300D03*
X342900Y393700D03*
X342900Y419100D03*
X342900Y444500D03*
X342900Y469900D03*
X342900Y495300D03*
X342900Y520700D03*
X342900Y546100D03*
X342900Y571500D03*
X190500Y571500D03*
X190500Y546100D03*
X190500Y520700D03*
X190500Y495300D03*
X190500Y469900D03*
X190500Y444500D03*
X190500Y419100D03*
X190500Y393700D03*
X190500Y368300D03*
X190500Y342900D03*
X190500Y317500D03*
X190500Y292100D03*
X215900Y292100D03*
X215900Y317500D03*
X215900Y342900D03*
X215900Y368300D03*
X215900Y393700D03*
X215900Y419100D03*
X215900Y444500D03*
X215900Y469900D03*
X215900Y495300D03*
X215900Y520700D03*
X215900Y546100D03*
X215900Y571500D03*
X317500Y228600D03*
X317500Y203200D03*
X317500Y177800D03*
X317500Y152400D03*
X317500Y127000D03*
X317500Y101600D03*
X317500Y76200D03*
X317500Y50800D03*
X342900Y50800D03*
X342900Y76200D03*
X342900Y101600D03*
X342900Y127000D03*
X342900Y152400D03*
X342900Y177800D03*
X342900Y203200D03*
X342900Y228600D03*
X190500Y228600D03*
X190500Y203200D03*
X190500Y177800D03*
X190500Y152400D03*
X190500Y127000D03*
X190500Y101600D03*
X190500Y76200D03*
X190500Y50800D03*
X215900Y50800D03*
X215900Y76200D03*
X215900Y101600D03*
X215900Y127000D03*
X215900Y152400D03*
X215900Y177800D03*
X215900Y203200D03*
X215900Y228600D03*
X444500Y596900D03*
X444500Y571500D03*
X444500Y546100D03*
X469900Y546100D03*
X469900Y571500D03*
X469900Y596900D03*
X444500Y101600D03*
X444500Y76200D03*
X444500Y50800D03*
X444500Y25400D03*
X469900Y25400D03*
X469900Y50800D03*
X469900Y76200D03*
X469900Y101600D03*
X444500Y495300D03*
X444500Y469900D03*
X444500Y444500D03*
X444500Y419100D03*
X469900Y419100D03*
X469900Y444500D03*
X469900Y469900D03*
X469900Y495300D03*
D13*
X165100Y601980D02*
X165100Y617220D01*
X139700Y617220D02*
X139700Y601980D01*
D10*
X444500Y228600D03*
X444500Y203200D03*
X444500Y177800D03*
X444500Y152400D03*
X469900Y152400D03*
X469900Y177800D03*
X469900Y203200D03*
X469900Y228600D03*
M02*
